<?xml version="1.0" encoding="utf-8"?>
<!-- Generator: Adobe Illustrator 25.2.1, SVG Export Plug-In . SVG Version: 6.00 Build 0)  -->
<svg version="1.1" xmlns="http://www.w3.org/2000/svg" xmlns:xlink="http://www.w3.org/1999/xlink" x="0px" y="0px"
	 viewBox="0 0 200 42.4" style="enable-background:new 0 0 200 42.4;" xml:space="preserve">
<style type="text/css">
	.st0{display:none;}
	.st1{fill:#F8A500;}
	.st2{fill:#D87A0F;}
	.st3{clip-path:url(#SVGID_2_);fill:#FFFFFF;}
</style>
<g id="Layer_2" class="st0">
	
		<image style="display:inline;overflow:visible;" width="544" height="143" xlink:href="CB97583D.jpg"  transform="matrix(0.3639 0 0 0.3639 0.7713 -5.0075)">
	</image>
</g>
<g id="Layer_1">
	<g>
		<g>
			<polygon class="st1" points="12.6,26 4,17.7 15.8,15.9 21,5.2 26.3,15.9 38.1,17.5 29.6,25.9 31.7,37.6 21.2,32.1 10.6,37.7 			
				"/>
			<path class="st2" d="M21,6.9l4.8,9.6L36.5,18l-7.7,7.6l1.9,10.6l-9.6-5l-9.5,5.1l1.8-10.6l-7.8-7.5l10.7-1.6L21,6.9 M21,3.5
				l-1.3,2.7l-4.4,9l-9.9,1.5l-3,0.5l2.2,2.1l7.2,6.9l-1.6,9.9l-0.5,3l2.7-1.4l8.8-4.7l8.9,4.6l2.7,1.4l-0.5-3l-1.8-9.8l7.1-7
				l2.2-2.1l-3-0.4l-9.9-1.4l-4.5-8.9L21,3.5L21,3.5z"/>
		</g>
		<g>
			<polygon class="st1" points="52.2,26 43.7,17.7 55.4,15.9 60.6,5.2 66,15.9 77.8,17.5 69.3,25.9 71.4,37.6 60.8,32.1 50.3,37.7 
							"/>
			<path class="st2" d="M60.7,6.9l4.8,9.6L76.2,18l-7.7,7.6l1.9,10.6l-9.6-5l-9.5,5.1L53,25.7l-7.8-7.5l10.7-1.6L60.7,6.9 M60.6,3.5
				l-1.3,2.7l-4.4,9L45,16.8l-3,0.5l2.2,2.1l7.2,6.9l-1.6,9.9l-0.5,3l2.7-1.4l8.8-4.7l8.9,4.6l2.7,1.4l-0.5-3l-1.8-9.8l7.1-7
				l2.2-2.1l-3-0.4l-9.9-1.4L62,6.2L60.6,3.5L60.6,3.5z"/>
		</g>
		<g>
			<polygon class="st1" points="91.9,26 83.3,17.7 95.1,15.9 100.3,5.2 105.6,15.9 117.4,17.5 109,25.9 111,37.6 100.5,32.1 
				90,37.7 			"/>
			<path class="st2" d="M100.3,6.9l4.8,9.6l10.7,1.5l-7.7,7.6l1.9,10.6l-9.6-5l-9.5,5.1l1.8-10.6l-7.8-7.5l10.7-1.6L100.3,6.9
				 M100.3,3.5L99,6.3l-4.4,9l-9.9,1.5l-3,0.5l2.2,2.1l7.2,6.9l-1.6,9.9l-0.5,3l2.7-1.4l8.8-4.7l8.9,4.6l2.7,1.4l-0.5-3l-1.8-9.8
				l7.1-7L119,17l-3-0.4l-9.9-1.4l-4.5-8.9L100.3,3.5L100.3,3.5z"/>
		</g>
		<g>
			<polygon class="st1" points="131.6,26 123,17.7 134.7,15.9 140,5.2 145.3,15.9 157.1,17.5 148.6,25.9 150.7,37.6 140.1,32.1 
				129.6,37.7 			"/>
			<path class="st2" d="M140,6.9l4.8,9.6l10.7,1.5l-7.7,7.6l1.9,10.6l-9.6-5l-9.5,5.1l1.8-10.6l-7.8-7.5l10.7-1.6L140,6.9
				 M139.9,3.5l-1.3,2.7l-4.4,9l-9.9,1.5l-3,0.5l2.2,2.1l7.2,6.9l-1.6,9.9l-0.5,3l2.7-1.4l8.8-4.7l8.9,4.6l2.7,1.4l-0.5-3l-1.8-9.8
				l7.1-7l2.2-2.1l-3-0.4l-9.9-1.4l-4.5-8.9L139.9,3.5L139.9,3.5z"/>
		</g>
		<g>
			<g>
				<polygon class="st1" points="171.2,26 162.6,17.7 174.4,15.9 179.6,5.2 184.9,15.9 196.7,17.5 188.3,25.9 190.4,37.6 
					179.8,32.1 169.3,37.7 				"/>
				<path class="st2" d="M179.6,6.9l4.8,9.6l10.7,1.5l-7.7,7.6l1.9,10.6l-9.6-5l-9.5,5.1l1.8-10.6l-7.8-7.5l10.7-1.6L179.6,6.9
					 M179.6,3.5l-1.3,2.7l-4.4,9l-9.9,1.5l-3,0.5l2.2,2.1l7.2,6.9l-1.6,9.9l-0.5,3l2.7-1.4l8.8-4.7l8.9,4.6l2.7,1.4l-0.5-3l-1.8-9.8
					l7.1-7l2.2-2.1l-3-0.4l-9.9-1.4L181,6.2L179.6,3.5L179.6,3.5z"/>
			</g>
			<g>
				<defs>
					<rect id="SVGID_1_" x="185.6" y="12.9" width="11.4" height="26.8"/>
				</defs>
				<clipPath id="SVGID_2_">
					<use xlink:href="#SVGID_1_"  style="overflow:visible;"/>
				</clipPath>
				<polygon class="st3" points="179.6,6.9 184.5,16.6 195.1,18 187.5,25.6 189.4,36.2 179.8,31.3 170.3,36.4 172,25.7 164.2,18.2 
					174.9,16.6 				"/>
			</g>
		</g>
	</g>
</g>
</svg>
