<?xml version="1.0" encoding="utf-8"?>
<!-- Generator: Adobe Illustrator 25.2.1, SVG Export Plug-In . SVG Version: 6.00 Build 0)  -->
<svg version="1.1" xmlns="http://www.w3.org/2000/svg" xmlns:xlink="http://www.w3.org/1999/xlink" x="0px" y="0px"
	 viewBox="0 0 968.4 1461.3" style="enable-background:new 0 0 968.4 1461.3;" xml:space="preserve">
<style type="text/css">
	.st0{fill:#FFFFFF;stroke:#000000;stroke-width:2.75;stroke-miterlimit:10;}
	.st1{fill:url(#SVGID_1_);stroke:#000000;stroke-width:2.75;stroke-miterlimit:10;}
	.st2{fill:#999999;stroke:#000000;stroke-width:2.75;stroke-miterlimit:10;}
	.st3{fill:url(#SVGID_2_);stroke:#000000;stroke-width:2.75;stroke-miterlimit:10;}
	.st4{fill:none;stroke:#000000;stroke-width:2.75;stroke-miterlimit:10;}
	.st5{fill:#689283;stroke:#000000;stroke-width:2.75;stroke-miterlimit:10;}
	.st6{display:none;}
</style>
<g id="Layer_1">
	<path class="st0" d="M581.8,63.8c-47.4,34.1-95.4,82.6-132.1,148.2C410.4,282,414,336.4,390.9,399.3
		c-21.3,57.9-54.6,133.6-81.5,175c-11.7,18-37.8,51.7-62.8,75.8c-32.9,31.8-33.3,40.6-55.8,60.2c-13.2,11.5-9.4,14.6-72,46.3
		c-52.8,26.8-61.3,29.3-68.6,36.9c-9.6,10-28.3,32.9-33.8,66.1c-7.7,46.2,18,83.6,35.4,109.6c29.3,43.4,47.4,36.9,95.1,90.2
		c24.8,27.7,47.8,58.6,67.6,104.7c21.3,49.6,27.4,100.6,29,114.4c3.3,29,1,35.6,6.4,61.2c6.9,32.7,19.1,61.9,44.1,83
		c19.2,16.2,35,21.1,67.1,25c41.2,4.9,44.7-4.1,96.7-3.2c42.7,0.7,60.1,2.7,101.5,3.2c25.8,0.3,42.1-6.2,53.2-19.3
		c8-9.4,15.1-25.7,9.7-38.7c-4.6-11-15-12.1-40.3-25.8c-22.4-12.1-29.2-20.1-48.1-27.5c-25.8-10.2-48.4-20.2-59.9-22.4
		c-17-3.2-31.5-4-41.9-4.1c-4.3-62.1-3.5-112.4-1.9-148c1.5-33.1,2.8-32.3,2.8-52.7c-0.1-63.3-12.8-87.1-8.7-140.4
		c0,0,1.6-21.6,8.7-52.4C458.8,804,565,659.8,652.2,547.7c51-65.6,82.8-106.4,131.3-162.4c65.2-75.2,124.6-136.4,171.8-182.6"/>
	<linearGradient id="SVGID_1_" gradientUnits="userSpaceOnUse" x1="329.2294" y1="1110.9957" x2="802.6893" y2="252.4513">
		<stop  offset="0" style="stop-color:#FAFAFC"/>
		<stop  offset="0.811" style="stop-color:#FCFCFD"/>
		<stop  offset="1" style="stop-color:#FFFFFF"/>
	</linearGradient>
	<path class="st1" d="M581.8,63.8c-47.4,34.1-95.4,82.6-132.1,148.2C410.4,282,414,336.4,390.9,399.3
		c-21.3,57.9-54.6,133.6-81.5,175c-11.7,18-37.8,51.7-62.8,75.8c-32.9,31.8-33.3,40.6-55.8,60.2c-13.2,11.5-9.4,14.6-72,46.3
		c-52.8,26.8-61.3,29.3-68.6,36.9c-9.6,10-28.3,32.9-33.8,66.1c-7.7,46.2,18,83.6,35.4,109.6c29.3,43.4,47.4,36.9,95.1,90.2
		c24.8,27.7,47.8,58.6,67.6,104.7c21.3,49.6,27.4,100.6,29,114.4c3.3,29,1,35.6,6.4,61.2c6.9,32.7,19.1,61.9,44.1,83
		c19.2,16.2,35,21.1,67.1,25c41.2,4.9,44.7-4.1,96.7-3.2c42.7,0.7,60.1,2.7,101.5,3.2c25.8,0.3,42.1-6.2,53.2-19.3
		c8-9.4,15.1-25.7,9.7-38.7c-4.6-11-15-12.1-40.3-25.8c-22.4-12.1-29.2-20.1-48.1-27.5c-25.8-10.2-48.4-20.2-59.9-22.4
		c-17-3.2-31.5-4-41.9-4.1c-4.3-62.1-3.5-112.4-1.9-148c1.5-33.1,2.8-32.3,2.8-52.7c-0.1-63.3-12.8-87.1-8.7-140.4
		c0,0,1.6-21.6,8.7-52.4C458.8,804,565,659.8,652.2,547.7c51-65.6,82.8-106.4,131.3-162.4c65.2-75.2,124.6-136.4,171.8-182.6"/>
	<polyline class="st2" points="267.5,1005.8 269.6,867.1 244.6,797 	"/>
	<path class="st2" d="M597.2,1404.8c0.6-9-10.7-15.4-13.1-16.8c-10-5.7-13.7-1.2-25.4-5c-18-5.8-25-21-35.9-18.6
		c-3.8,0.8-6.4,2.7-7.3,13.8c-1.8,22.4-2.3,38.7,3.6,39.1c6.9,0.5,9.6-5.6,24.5-4.4c9.1,0.7,6.4,2.9,20.3,5.4
		c9.3,1.7,17,1.5,23.6-1.8C589,1415.8,596.7,1412.5,597.2,1404.8z"/>
	<path class="st2" d="M464.6,1394c1.2,0.2,2.5,0.6,13.2,7.2c14.2,8.7,16.7,11,21.8,11.1c1.2,0,8.1,0.1,12.3-4.5
		c4.5-5,0.5-9.5,2.3-25.4c1.1-9.2,3.1-13.4,0.1-18c-1.8-2.8-4.4-4.1-7.4-5.3c-12.7-5.3-24.4-6.9-28.6-7.1
		c-19.5-0.9-25.1-1.8-30.7-3.2c-10.2-2.6-19-4.4-23.9-2.7c-3.5,1.2-6.4,3.9-7.7,5.3c-10.7,11.6-18,37.6-17.5,45.3
		c0.1,2.1,4.1,9.1,11.2,11.9c7,2.7,15.3-0.7,31.8-7.6C454.2,1395.6,458,1392.8,464.6,1394z"/>
	<path class="st2" d="M368.2,1398.6c6,0.5,16.4,1.3,24.6-5.2c13.2-10.3,11.7-32.2,10.5-49.6c-0.6-9.4-1.8-12-4.8-30.1
		c0,0-2.9-18.1-5.4-39.3c-4.5-38.2-6.7-57.4-4-69.4c1.7-7.4,4.9-17.6,6.1-33.6c1.2-16.2-1-21.3-4-24.6c-5.5-6.1-16.8-4.9-23.5-5
		c-15.6-0.1-16.2,4-33.6,8.3c-8.9,2.2-19,2.1-33.2,7c-3,1-6.9,2.6-8.7,6.2c-2.6,5.4,1.1,12.2,4.5,18.2c13,22.5,21,31.7,29,47.2
		c3.7,7.1,6.3,12.1,8.2,19.6c1.3,4.9,2,9.7,2.1,32.5c0.1,17.9,0.1,27-0.9,33.3c-2.2,13.5-4.7,13.7-6.6,26.6
		c-2.1,13.6-3.6,23.6,1.1,33.7C336.9,1389.7,354.1,1397.5,368.2,1398.6z"/>
	<path class="st2" d="M294,1152.8c-2.8-10.7-0.2-20.8-2-30.8c-2.1-11.4-9.2-15.2-13.7-31.7c-0.6-2.3-1.8-7.1,0.6-9.8
		c2-2.2,5.4-2.2,6.6-2.2c5.9,0,3-1.8,43.5-13.3c21.3-6,16.9-4.1,23.6-6.4c10.2-3.5,15-6.2,22.7-5.4c2.3,0.3,8.9,1,14,5.7
		c2.5,2.4,5.6,6.6,6.8,19.6c2.2,23-5.9,25.6-2.7,43.4c1.2,6.5,3.4,12.8-0.1,16.9c-0.8,0.9-2.5,2.3-8.7,3.2
		c-8.6,1.3-13.7-0.3-19.2-0.6c-3.1-0.2-9.9,1.7-23.5,5.5c-18,5.1-27.1,6.5-27.5,6.6c-8.4,2.4-17.3,4-18.8,2.2
		C294.7,1154.6,294.2,1153.5,294,1152.8z"/>
	<path class="st2" d="M270.3,1059.1c-0.7-24.2-11.5-30.8-6.5-44.8c2.6-7.3,7.2-12.1,10.5-14c10.2-5.7,26.4-4.8,53.8-11.5
		c24-5.8,29.8-6.9,45.3-11c1.6-0.4,17.3,0.9,17.4,11.8c0.2,22.3,2.1,40.4-0.3,48.6c-3.2,11.1-17.2,12.5-29,17.6
		c-14,6-15.5,3.7-33.8,9.7c-21.5,7-29.6,11.1-40.2,12.1c-9.9,0.9-13.4-6.1-14.3-7.2C270.3,1066.4,270.4,1062,270.3,1059.1z"/>
	<path class="st2" d="M244.6,797c-2.9-4.9-15.7-24.9-41.2-32.1c-7.6-2.1-24.8-7-39.5,0.6c-4.4,2.3-8.1,5.4-15.6,7.4
		c-8.9,2.4-15.2,1-19.6,0.9c-19.3-0.6-38.6,21.2-47.1,38.3c-2.8,5.5-12.4,25-6,48c0.8,2.8,5.6,19,20.2,31c7.1,5.8,10.6,5.7,29,15.6
		c11.6,6.3,17.2,10.1,24.1,14.2c32.5,19.3,37.8,11.8,56.2,25.6c12.3,9.2,12.4,14.1,31.8,31.5c2.2,1.9,9.1,8.1,17.9,17
		c3.2,3.2,4,5,7.1,7.4c2.2,1.7,4.3,2.8,5.6,3.5"/>
	<path class="st2" d="M369.6,916.9c0.8,1.6,0.9,2.1,1.9,5c2.4,6.9,1.7,9.3,3.1,13.6c2.4,7.4,6.1,6.3,10.8,15.1
		c2.5,4.7,5.8,11,3.4,16.8c-2.8,6.8-13.6,10-15,10.3c-6.8,1.3-11.4,2.6-15.7,3.1c-13,1.5-11.8,3.6-31,7.7
		c-16.6,3.5-23.2,4.5-31.1,5.9c-7,1.3-12.6,2.3-19.1,4.4c-3.9,1.3-8,6.9-9.4,7.1c-1.5,0.2-5.6-4-6.8-5.3c-3-3.4-4-7-4.3-8.4
		c-5.5-21.9-8.2-32.9-7.3-39.1c1.8-11.9,6.4-9.7,11.4-25.8c3.3-10.5,7.2-23.3,2-35.8c-4-9.7-12.4-16.5-19-21.9
		c-7.3-6-8.2-4.7-11.6-8.5c-12-13.2-7.2-34.6-6.8-36.4c3.6-15.2,13.9-24,17-26.4c13.8-10.9,24.7-6.7,42.8-9.8c0.3,0,0.9-0.2,1.3,0.2
		c1.2,1.3-3.8,5.8-4.1,12.6c0,1,0.1,2,0.4,4c0.2,1,0.8,5.1,3.4,12.3c1.5,4.2,2,4.6,2.9,7.7c0.7,2.6,1.1,4.7,1.3,6.1
		c1.3,8.3,2,12.5,2.2,21.8c0.3,16.4,4.8,33.7,10.5,44.8c5.2,10.3,12.8,10.6,27.4,14.6c11.2,3.1,18.1,4.7,20.7,4.9
		c7.6,0.6,14.9-0.2,19.2-1.1"/>
	<linearGradient id="SVGID_2_" gradientUnits="userSpaceOnUse" x1="282.0766" y1="506.0421" x2="871.9866" y2="506.0421">
		<stop  offset="0" style="stop-color:#999999"/>
		<stop  offset="0.9162" style="stop-color:#FFFFFF"/>
	</linearGradient>
	<path class="st3" d="M872,224.1c-19.9,22.3-39.9,45.2-59.9,68.7c-32.9,38.6-49.4,59.5-89.8,108.8c-27.2,33.2-15.2,18.3-102.5,124.1
		c-59.8,72.4-75.5,91.7-98.3,124.4c-28.2,40.5-42.6,61.3-56.2,93.4c-20.3,47.6-30.4,71.4-34.4,97.1c-1.1,7.4-3.3,24.6-14.8,42.3
		c-4.6,7.2-11.7,18.5-25.6,26.4c-22.1,12.6-45.2,7.2-63.6,2.8c-12-2.8-16.9-5.9-20.4-9.4c-5.3-5.2-7.4-11.2-10.8-28.4
		c-8.1-41.1-2.7-38.6-8.5-53.7c-2.7-7-6.9-15.5-4.3-25.6c1.4-5.2,4-8.7,5.4-10.5c45.7-58.6,89.2-97.7,89.2-97.7
		c31.1-28.3,49.8-54.1,67.6-78.7c23.8-32.8,60.8-90.9,73-127c1-2.9,3.4-10.3,8.5-19.3c8.7-15.1,18.7-23.5,30.4-34.4
		c11.7-10.8,22.3-22.8,33.8-33.8c30.6-29.1,56.8-64.3,73-86.1c37.1-49.8,76.2-114.6,90.9-138.9c5.6-9.3,18.3-30.5,42.3-50.6
		c13.8-11.5,26.9-19,36.1-23.6"/>
	<path class="st4" d="M746.2,19c-21.4,8.8-50.8,21.9-84.6,40c-34.4,18.4-61.5,33-93.7,58.2c-52.5,41.1-82.8,82.6-94,98.8
		c-10.5,15.2-21.7,31.6-31.8,56c-3,7.1-8.7,21.7-21,80.9c-11.5,55.4-6.9,45.1-15,68.8"/>
	<path class="st4" d="M253.2,660.5"/>
	<path class="st5" d="M315.1,683.4c-0.2-5,0.2-13.6,1.7-19l-32.1,5.1l-0.4-17c-9.2,4-20.6,9.1-30.4,12
		c-17.9,23.6-34.9,39.8-47.4,50.5c-14.9,12.7-30.8,23.7-59.3,48.9c-5.7,5-10.3,7.2-13.4,10.1c4.1,0.4,11.6-1.1,18.5-2.8
		c10.9-2.6,12.3-5.4,17.3-7.9c8-4,27.1-5.7,52.5,9.7c16.1-13.3,30.3-25.7,47.4-42.2C286.2,714.6,301.4,698.7,315.1,683.4z"/>
	<path class="st5" d="M282.4,628.8c7.5-2.4,14.9-4.7,22.4-7.1l2.9,16.4l36.6-0.3c-0.2,5.6-0.3,11.3-0.5,16.9
		c14-16.4,28.4-32.8,43.3-49.2c48.3-53.7,100.3-110.1,148.2-155.9c-15.5,7.6-32.7,19.8-42.7,23.5c-44.2,16.2-55,11.6-59.8,8.6
		c-4.4-2.8-6.7-6.3-11-13.1c-10.7-16.8-14.4-34-15.7-46.6c-5.7,17-13.7,38.2-24.9,61.9c-8.3,17.6-24.1,48.4-48.9,83.8
		C319.6,585.3,303.2,606.4,282.4,628.8z"/>
</g>
<g id="Layer_2" class="st6">
	
		<image style="display:inline;overflow:visible;" width="1603" height="2560" xlink:href="CB4C5B7A.jpg"  transform="matrix(1 0 0 1 -77.9661 -966.4493)">
	</image>
</g>
</svg>
