<?xml version="1.0" encoding="utf-8"?>
<!-- Generator: Adobe Illustrator 25.2.1, SVG Export Plug-In . SVG Version: 6.00 Build 0)  -->
<svg version="1.1" id="Layer_1" xmlns="http://www.w3.org/2000/svg" xmlns:xlink="http://www.w3.org/1999/xlink" x="0px" y="0px"
	 viewBox="0 0 250 250" style="enable-background:new 0 0 250 250;" xml:space="preserve">
<g>
	<g>
		<path d="M129.28,4.5c6.5,2.38,11.78,6.03,14.59,12.78c0.47,1.14,2.99,2,4.57,2.02c17.66,0.16,35.32,0.12,52.98,0.15
			c13.18,0.02,18.44,5.32,18.44,18.6c0.01,62.21,0.01,124.42,0,186.63c0,12.85-5.43,18.25-18.37,18.26
			c-50.6,0.01-101.19,0.01-151.79,0c-13.27,0-18.64-5.34-18.65-18.47c-0.01-62.21-0.01-124.42,0-186.63
			c0-12.97,5.34-18.36,18.18-18.38c17.66-0.04,35.32-0.1,52.98,0c2.91,0.02,4.61-0.62,5.71-3.59c2.19-5.95,7.59-8.59,12.76-11.36
			C123.55,4.5,126.41,4.5,129.28,4.5z M85.63,29.38c-12.5,0-24.25-0.01-36,0c-7.53,0.01-8.49,0.96-8.49,8.56
			c-0.01,62.07-0.01,124.15,0,186.22c0,7.95,0.77,8.69,8.79,8.69c50.3,0,100.59,0,150.89,0c8.28,0,8.95-0.68,8.96-9
			c0.02-42.34,0.05-84.67,0.06-127.01c0-20.05-0.02-40.11-0.07-60.16c-0.02-5.96-1.36-7.24-7.36-7.3
			c-5.09-0.05-10.19-0.05-15.28-0.05c-7.11-0.01-14.22,0-21.81,0c0,2.7,0,4.74,0,6.77c0,2.07,0.06,4.14-0.04,6.21
			c-0.24,5.16-1.92,6.91-7.02,6.92c-21.81,0.05-43.61,0.05-65.42,0c-5.39-0.01-7.02-1.71-7.17-7.24
			C85.54,38.03,85.63,34.06,85.63,29.38z M96.06,29.32c0,3.46,0,6.37,0,9.6c19.68,0,39.11,0,58.8,0c0-3.24,0-6.15,0-9.6
			c-4.54,0-8.79-0.05-13.03,0.02c-3.81,0.06-5.8-1.76-6.56-5.46c-1.28-6.26-4.47-9.26-9.57-9.37c-5.31-0.12-8.67,2.91-10.04,9.38
			c-0.78,3.68-2.75,5.53-6.57,5.46C104.84,29.26,100.59,29.32,96.06,29.32z"/>
		<path d="M158.95,116.35c5.25-7.82,9.68-14.4,14.1-20.99c0.71-1.06,1.34-2.17,2.09-3.19c1.9-2.57,4.16-4.91,7.52-2.65
			c3.29,2.21,3,5.24,0.92,8.32c-4.63,6.85-9.21,13.73-13.82,20.59c-1.59,2.38-3.16,4.77-4.81,7.11c-2.74,3.9-5.56,4.27-9.06,0.92
			c-4.59-4.4-9.02-8.96-13.5-13.48c-2.38-2.4-2.72-5.15-0.43-7.64c2.47-2.68,5.2-1.91,7.47,0.48
			C152.49,109.06,155.41,112.42,158.95,116.35z"/>
		<path d="M158.87,181.02c3.06-4.5,5.3-7.76,7.5-11.04c2.83-4.23,5.61-8.49,8.46-12.7c1.88-2.78,4.18-5.44,7.77-3.12
			c3.59,2.31,2.87,5.5,0.7,8.69c-6.07,8.95-12.02,17.98-18.07,26.94c-2.97,4.4-5.9,4.7-9.71,0.98c-4.32-4.23-8.5-8.59-12.82-12.83
			c-2.54-2.49-3.27-5.29-0.83-7.99c2.61-2.89,5.48-1.9,7.83,0.65C152.71,173.84,155.56,177.23,158.87,181.02z"/>
		<path d="M95.17,113.71c-7.8,0-15.59-0.01-23.39,0.01c-3.35,0.01-6.35-0.85-6.41-4.74c-0.06-4.09,2.89-5.16,6.52-5.15
			c15.59,0.03,31.18,0.01,46.78-0.03c3.57-0.01,6.68,0.98,6.66,5.06c-0.02,4.14-3.27,4.94-6.77,4.93
			c-7.8-0.02-15.59-0.01-23.39-0.01C95.17,113.75,95.17,113.73,95.17,113.71z"/>
		<path d="M95.37,178.33c-7.8,0-15.59-0.01-23.39,0.01c-3.52,0.01-6.69-0.86-6.64-5.03c0.05-4.13,3.17-4.95,6.73-4.94
			c15.43,0.07,30.87,0.09,46.3,0.07c3.49,0,6.83,0.65,6.91,4.76c0.09,4.36-3.26,5.23-7,5.19c-7.64-0.07-15.28-0.02-22.91-0.02
			C95.37,178.36,95.37,178.35,95.37,178.33z"/>
	</g>
</g>
</svg>
