<?xml version="1.0" encoding="utf-8"?>
<!-- Generator: Adobe Illustrator 25.2.1, SVG Export Plug-In . SVG Version: 6.00 Build 0)  -->
<svg version="1.1" id="Layer_1" xmlns="http://www.w3.org/2000/svg" xmlns:xlink="http://www.w3.org/1999/xlink" x="0px" y="0px"
	 viewBox="0 0 390 140" style="enable-background:new 0 0 390 140;" xml:space="preserve">
<style type="text/css">
	.st0{opacity:0.32;fill:#7D9A96;}
</style>
<g>
	<polygon class="st0" points="5.9,8.21 67.43,69.74 5.9,131.27 322.78,131.27 384.32,69.74 322.78,8.21 	"/>
</g>
<g>
	<g>
		<path d="M121.47,69.16c0-4.73,0-9.47,0-14.2c0-0.95,0.02-0.96,0.98-0.97c6.1-0.01,12.21-0.04,18.31-0.02
			c2.71,0.01,5.38,0.41,7.92,1.43c5.23,2.09,7.95,6.03,8.5,11.56c0.21,2.1,0.13,4.19-0.31,6.26c-1.1,5.22-4.39,8.42-9.37,10.01
			c-2.09,0.67-4.25,0.99-6.44,1c-6.25,0.02-12.5,0.01-18.75,0.01c-0.84,0-0.86-0.01-0.86-0.88
			C121.47,78.63,121.47,73.89,121.47,69.16z M128.3,69.16c0,2.91,0,5.81,0,8.72c0,0.81,0.03,0.84,0.85,0.84
			c3.61,0,7.22,0.02,10.84-0.01c1.69-0.01,3.35-0.23,4.95-0.81c2.71-0.98,4.43-2.84,5.06-5.67c0.46-2.04,0.46-4.08,0.03-6.12
			c-0.61-2.91-2.34-4.89-5.16-5.78c-1.27-0.4-2.63-0.7-3.96-0.73c-3.96-0.1-7.93-0.04-11.89-0.07c-0.59,0-0.73,0.24-0.73,0.79
			C128.31,63.26,128.3,66.21,128.3,69.16z"/>
		<path d="M262.84,75.42c0,3.86,0.01,7.72-0.01,11.58c0,0.62-0.05,1.25-0.17,1.85c-0.59,2.88-2.68,4.69-5.76,4.84
			c-2.17,0.11-4.36,0.09-6.53,0.1c-2.64,0.01-5.27,0-7.91,0c-1.07,0-1.07,0-1.08-1.04c0-0.95,0-1.91,0-2.86c0-1.04,0-1.04,1.07-1.04
			c3.57,0,7.14,0,10.71,0c0.23,0,0.46,0,0.68,0c2.06-0.01,2.77-0.72,2.78-2.77c0-0.37-0.02-0.75,0-1.12
			c0.04-0.54-0.2-0.72-0.73-0.72c-3.03,0.02-6.06,0.07-9.09-0.02c-1.42-0.04-2.86-0.24-4.23-0.61c-4.28-1.17-6.9-4.42-7.13-8.85
			c-0.08-1.54-0.02-3.14,0.3-4.63c0.92-4.22,3.84-6.44,7.91-7.3c1.17-0.25,2.39-0.36,3.58-0.37c4.88-0.04,9.75-0.02,14.63-0.02
			c0.96,0,0.96,0,0.96,0.96C262.84,67.41,262.84,71.41,262.84,75.42z M256.63,73.43c0-1.76,0-3.53,0-5.29
			c0-0.41-0.05-0.75-0.59-0.74c-3.22,0.02-6.44-0.05-9.65,0.07c-2.32,0.09-3.87,1.55-4.39,3.82c-0.33,1.44-0.32,2.89,0.03,4.32
			c0.51,2.05,1.94,3.34,4.03,3.63c0.53,0.07,1.07,0.12,1.61,0.12c2.7,0.01,5.4,0.01,8.1,0c0.83,0,0.85-0.02,0.86-0.89
			C256.64,76.79,256.63,75.11,256.63,73.43z"/>
		<path d="M179.68,84.48c-2.7,0-5.4,0.02-8.09-0.01c-2.16-0.03-4.26-0.38-6.21-1.35c-2.59-1.28-4.26-3.33-4.94-6.14
			c-0.59-2.44-0.61-4.91,0.03-7.33c1.09-4.15,4.03-6.28,8.07-7.08c1.11-0.22,2.27-0.33,3.4-0.33c3.94-0.02,7.89,0.01,11.83,0.08
			c0.81,0.01,1.65,0.22,2.43,0.48c2.4,0.82,3.72,2.56,4,5.06c0.1,0.86,0.09,1.75-0.03,2.61c-0.41,2.86-2.17,4.55-5.21,5.04
			c-0.73,0.12-1.49,0.16-2.23,0.17c-5.04,0.01-10.09,0.01-15.13,0.01c-0.91,0-0.98,0.1-0.61,0.97c0.74,1.77,2.14,2.63,3.99,2.84
			c0.43,0.05,0.87,0.05,1.31,0.05c5.29,0,10.58,0,15.88,0c1.03,0,1.03,0,1.03,1.04c0,1.02,0,2.03,0,3.05
			c-0.01,0.81-0.04,0.85-0.84,0.85C185.45,84.48,182.56,84.48,179.68,84.48z M174.88,70.77c2.47,0,4.94,0.01,7.41,0
			c1.11-0.01,1.77-0.7,1.79-1.81c0.02-1.11-0.56-1.77-1.7-1.77c-3.65-0.02-7.31-0.05-10.96,0.02c-1.95,0.04-3.54,0.85-4.4,2.74
			c-0.33,0.72-0.27,0.83,0.51,0.83C169.98,70.77,172.43,70.77,174.88,70.77z"/>
		<path d="M204.81,84.48c-3.55,0-7.1,0-10.65,0c-0.86,0-0.87-0.02-0.88-0.87c0-1.1,0.03-2.2-0.01-3.3c-0.02-0.61,0.23-0.79,0.8-0.78
			c2.33,0.02,4.65,0.01,6.98,0.01c4.24,0,8.47,0,12.71,0c0.69,0,1.37-0.04,1.71-0.75c0.39-0.79,0.41-1.63-0.05-2.39
			c-0.17-0.28-0.55-0.5-0.88-0.61c-0.36-0.12-0.78-0.11-1.17-0.11c-4.32-0.01-8.64,0.01-12.96-0.02c-0.87-0.01-1.75-0.09-2.59-0.27
			c-2.93-0.63-4.64-2.61-4.85-5.61c-0.05-0.8-0.01-1.63,0.12-2.42c0.46-2.67,2.34-4.43,5.25-4.92c0.88-0.15,1.78-0.21,2.66-0.22
			c5.96-0.02,11.92-0.01,17.88-0.01c1,0,1,0.01,1,1c0,1.02,0,2.03,0,3.05c0,0.88-0.01,0.89-0.92,0.89c-5.75,0-11.5,0-17.25,0
			c-0.29,0-0.58,0-0.87,0.01c-1.17,0.05-1.71,0.61-1.69,1.76c0.01,1.12,0.66,1.81,1.76,1.83c1.22,0.02,2.45,0.01,3.67,0.01
			c3.45,0,6.89-0.02,10.34,0.01c0.82,0.01,1.67,0.08,2.47,0.26c2.29,0.53,3.75,1.95,4.3,4.26c0.31,1.29,0.33,2.6,0.1,3.9
			c-0.61,3.36-2.92,5.24-6.45,5.28c-0.04,0-0.08,0-0.12,0C211.75,84.48,208.28,84.48,204.81,84.48z"/>
		<path d="M267.35,73.34c0-3.32,0-6.64,0-9.96c0-0.92,0.01-0.93,0.95-0.93c6.02,0,12.04-0.01,18.06,0.01c0.7,0,1.41,0.07,2.1,0.19
			c3.02,0.55,4.87,2.64,5.02,5.71c0.08,1.6,0.03,3.2,0.03,4.79c0,3.4,0,6.81,0,10.21c0,0.88-0.01,0.88-0.85,0.88
			c-1.52,0-3.03-0.02-4.55,0.01c-0.6,0.01-0.78-0.2-0.78-0.79c0.02-4.4,0.01-8.8,0.01-13.2c0-0.33,0-0.67-0.05-0.99
			c-0.18-1.15-0.84-1.76-2-1.85c-0.5-0.04-1-0.03-1.49-0.03c-3.01,0-6.02,0-9.03,0c-1.2,0-1.2,0-1.2,1.17c0,4.94,0,9.88,0,14.82
			c0,0.86,0,0.86-0.86,0.87c-1.52,0-3.03-0.03-4.55,0.01c-0.65,0.02-0.81-0.23-0.81-0.83C267.36,80.06,267.35,76.7,267.35,73.34z"/>
		<path d="M231.57,73.33c0,3.36,0,6.73,0,10.09c0,0.82-0.01,0.82-0.84,0.83c-1.52,0-3.03,0-4.55,0c-0.8,0-0.82-0.02-0.82-0.86
			c0-4.36,0-8.72,0-13.08c0-2.35,0-4.69,0-7.04c0-0.8,0.04-0.83,0.85-0.84c1.54,0,3.07,0.02,4.61-0.01
			c0.56-0.01,0.76,0.18,0.75,0.75C231.56,66.56,231.57,69.95,231.57,73.33z"/>
		<path d="M228.43,58.94c-0.81,0-1.62-0.01-2.42,0.01c-0.47,0.01-0.68-0.16-0.67-0.65c0.02-1.2,0.01-2.4,0-3.6
			c0-0.42,0.17-0.6,0.59-0.6c1.7,0.01,3.4,0.01,5.1,0c0.38,0,0.57,0.15,0.57,0.55c-0.01,1.24-0.01,2.49,0,3.73
			c0,0.44-0.22,0.57-0.62,0.57C230.13,58.93,229.28,58.94,228.43,58.94z"/>
	</g>
</g>
</svg>
