<?xml version="1.0" encoding="utf-8"?>
<!-- Generator: Adobe Illustrator 25.2.1, SVG Export Plug-In . SVG Version: 6.00 Build 0)  -->
<svg version="1.1" id="Layer_1" xmlns="http://www.w3.org/2000/svg" xmlns:xlink="http://www.w3.org/1999/xlink" x="0px" y="0px"
	 viewBox="0 0 390 140" style="enable-background:new 0 0 390 140;" xml:space="preserve">
<style type="text/css">
	.st0{opacity:0.32;fill:#7D9A96;enable-background:new    ;}
</style>
<g>
	<polygon class="st0" points="5.9,8.2 67.4,69.7 5.9,131.3 322.8,131.3 384.3,69.7 322.8,8.2 	"/>
</g>
<g>
	<g>
		<path d="M117.3,88.2V52.8h12.6c3.8,0,7,0.8,9.6,2.4c2.6,1.6,4.5,3.7,5.8,6.4c1.3,2.7,1.9,5.7,1.9,8.9c0,3.6-0.7,6.7-2.1,9.4
			c-1.4,2.7-3.4,4.7-6,6.2c-2.6,1.5-5.6,2.2-9.1,2.2H117.3z M141.5,70.5c0-2.5-0.5-4.7-1.4-6.6c-0.9-1.9-2.2-3.4-4-4.5
			c-1.7-1.1-3.8-1.6-6.3-1.6h-7v25.6h7c2.5,0,4.6-0.6,6.3-1.7c1.7-1.1,3-2.7,3.9-4.6C141,75.1,141.5,72.9,141.5,70.5z"/>
		<path d="M164.2,88.8c-2.1,0-3.9-0.4-5.5-1.1c-1.6-0.7-3.1-1.7-4.2-2.9c-1.2-1.2-2.1-2.7-2.8-4.3c-0.7-1.6-1-3.3-1-5.1
			c0-2.5,0.6-4.7,1.7-6.8c1.1-2,2.7-3.7,4.8-4.9c2-1.2,4.4-1.8,7.1-1.8c2.8,0,5.1,0.6,7.1,1.9c2,1.2,3.5,2.9,4.6,4.9
			c1.1,2,1.6,4.2,1.6,6.5c0,0.4,0,0.8,0,1.1c0,0.3-0.1,0.6-0.1,0.8h-21c0.2,1.5,0.6,2.9,1.4,4c0.7,1.1,1.7,2,2.9,2.7
			c1.2,0.6,2.4,1,3.7,1c1.5,0,2.9-0.4,4.2-1.1c1.3-0.7,2.2-1.7,2.7-2.9L176,82c-0.6,1.3-1.4,2.4-2.6,3.4c-1.2,1-2.5,1.8-4.1,2.4
			C167.7,88.5,166,88.8,164.2,88.8z M156.4,73.5h15.8c-0.1-1.5-0.6-2.8-1.3-3.9c-0.7-1.1-1.7-2-2.8-2.6c-1.2-0.6-2.4-1-3.8-1
			c-1.4,0-2.7,0.3-3.8,1s-2.1,1.5-2.8,2.6C156.9,70.6,156.5,71.9,156.4,73.5z"/>
		<path d="M191.4,88.8c-2.2,0-4.3-0.4-6.2-1.1c-2-0.7-3.6-1.8-5.1-3.2l2-3.7c1.5,1.3,3.1,2.3,4.6,2.9c1.5,0.6,3,0.9,4.5,0.9
			c1.6,0,2.8-0.3,3.8-0.9c1-0.6,1.4-1.4,1.4-2.5c0-0.8-0.3-1.4-0.8-1.8c-0.5-0.4-1.2-0.7-2.2-1s-2.1-0.6-3.4-1
			c-1.8-0.6-3.4-1.1-4.7-1.8c-1.3-0.6-2.2-1.4-2.9-2.3c-0.6-0.9-1-2-1-3.4c0-1.7,0.4-3.1,1.3-4.3c0.9-1.2,2.1-2.1,3.6-2.7
			c1.6-0.6,3.3-1,5.4-1c1.9,0,3.7,0.3,5.3,0.9c1.6,0.6,3,1.5,4.3,2.7l-2.3,3.6c-1.1-1-2.3-1.8-3.6-2.3c-1.2-0.5-2.6-0.8-4-0.8
			c-0.8,0-1.5,0.1-2.3,0.3c-0.8,0.2-1.4,0.5-1.9,1c-0.5,0.5-0.8,1.1-0.8,2c0,0.7,0.2,1.3,0.6,1.7c0.4,0.4,1,0.8,1.8,1.1
			c0.8,0.3,1.8,0.6,3,1c2,0.6,3.8,1.1,5.2,1.7c1.4,0.6,2.5,1.3,3.3,2.2c0.8,0.9,1.2,2.2,1.2,3.7c0,2.5-0.9,4.4-2.8,5.8
			C197,88,194.5,88.8,191.4,88.8z"/>
		<path d="M206.7,57.8v-6h5.5v6H206.7z M206.7,88.2V62.1h5.5v26.2H206.7z"/>
		<path d="M229.1,88.8c-1.8,0-3.4-0.4-4.8-1.1c-1.5-0.7-2.7-1.7-3.8-2.9c-1-1.2-1.9-2.7-2.4-4.2c-0.6-1.6-0.9-3.3-0.9-5
			c0-1.9,0.3-3.6,0.9-5.2c0.6-1.6,1.4-3.1,2.5-4.3c1.1-1.2,2.4-2.2,3.8-2.9c1.5-0.7,3.1-1,4.9-1c2.1,0,3.9,0.5,5.5,1.4
			c1.6,1,2.9,2.2,3.9,3.9v-4.9h4.8v25.3c0,2.5-0.6,4.7-1.8,6.4c-1.2,1.8-2.9,3.1-5,4c-2.1,0.9-4.4,1.4-7,1.4c-2.9,0-5.3-0.5-7.2-1.5
			c-1.9-1-3.5-2.4-4.9-4.1l3-2.9c1.1,1.4,2.4,2.5,4,3.2c1.6,0.7,3.3,1.1,5.1,1.1c1.5,0,2.9-0.3,4.2-0.8c1.3-0.5,2.3-1.3,3-2.5
			c0.8-1.1,1.2-2.5,1.2-4.2v-4c-0.9,1.5-2.2,2.7-3.8,3.6C232.6,88.3,230.9,88.8,229.1,88.8z M230.9,84.3c0.8,0,1.6-0.1,2.4-0.5
			c0.8-0.3,1.5-0.7,2.1-1.1c0.7-0.5,1.2-1,1.7-1.7c0.5-0.6,0.8-1.3,1-2v-6.8c-0.4-1.1-1-2.1-1.8-3c-0.8-0.8-1.7-1.5-2.7-2
			s-2-0.7-3.1-0.7c-1.2,0-2.3,0.3-3.2,0.8c-1,0.5-1.8,1.2-2.4,2c-0.7,0.9-1.2,1.8-1.6,2.9c-0.4,1.1-0.5,2.2-0.5,3.3
			c0,1.2,0.2,2.3,0.6,3.3c0.4,1,1,2,1.7,2.8c0.7,0.8,1.6,1.5,2.6,1.9C228.7,84.1,229.7,84.3,230.9,84.3z"/>
		<path d="M273.6,88.2h-5.5V73.8c0-2.4-0.4-4.2-1.2-5.3c-0.8-1.1-2-1.7-3.5-1.7c-1.1,0-2.1,0.3-3.2,0.8c-1,0.5-2,1.3-2.8,2.1
			c-0.8,0.9-1.4,1.9-1.8,3.1v15.4h-5.5v-26h5v5.2c0.7-1.2,1.5-2.1,2.6-3c1.1-0.8,2.3-1.5,3.6-1.9c1.4-0.5,2.8-0.7,4.4-0.7
			c1.6,0,2.9,0.3,3.9,0.8c1,0.6,1.8,1.3,2.4,2.3c0.6,1,1,2.1,1.2,3.4c0.2,1.3,0.3,2.6,0.3,4V88.2z"/>
	</g>
</g>
</svg>
