<?xml version="1.0" encoding="utf-8"?>
<!-- Generator: Adobe Illustrator 25.2.1, SVG Export Plug-In . SVG Version: 6.00 Build 0)  -->
<svg version="1.1" id="Layer_1" xmlns="http://www.w3.org/2000/svg" xmlns:xlink="http://www.w3.org/1999/xlink" x="0px" y="0px"
	 viewBox="0 0 802 943.5" style="enable-background:new 0 0 802 943.5;" xml:space="preserve">
<style type="text/css">
	.st0{fill:none;}
	.st1{fill:#789995;}
	.st2{opacity:0.3;clip-path:url(#SVGID_8_);}
	.st3{fill:url(#SVGID_9_);}
	.st4{fill:url(#SVGID_10_);}
	.st5{fill:url(#SVGID_11_);}
	.st6{fill:url(#SVGID_12_);}
	.st7{fill:url(#SVGID_13_);}
	.st8{fill:url(#SVGID_14_);}
</style>
<pattern  y="943.5" width="38.8" height="38.8" patternUnits="userSpaceOnUse" id="SVGID_1_" viewBox="0 -38.8 38.8 38.8" style="overflow:visible;">
	<g>
		<rect y="-38.8" class="st0" width="38.8" height="38.8"/>
		<g>
			<rect y="-38.8" class="st0" width="38.8" height="38.8"/>
			<circle class="st1" cx="19.4" cy="-19.4" r="18"/>
		</g>
	</g>
</pattern>
<pattern  y="943.5" width="38.8" height="38.8" patternUnits="userSpaceOnUse" id="SVGID_2_" viewBox="0 -38.8 38.8 38.8" style="overflow:visible;">
	<g>
		<rect y="-38.8" class="st0" width="38.8" height="38.8"/>
		<g>
			<rect y="-38.8" class="st0" width="38.8" height="38.8"/>
			<circle class="st1" cx="19.4" cy="-19.4" r="18"/>
		</g>
	</g>
</pattern>
<pattern  y="943.5" width="38.8" height="38.8" patternUnits="userSpaceOnUse" id="SVGID_3_" viewBox="0 -38.8 38.8 38.8" style="overflow:visible;">
	<g>
		<rect y="-38.8" class="st0" width="38.8" height="38.8"/>
		<g>
			<rect y="-38.8" class="st0" width="38.8" height="38.8"/>
			<circle class="st1" cx="19.4" cy="-19.4" r="18"/>
		</g>
	</g>
</pattern>
<pattern  y="943.5" width="38.8" height="38.8" patternUnits="userSpaceOnUse" id="SVGID_4_" viewBox="0 -38.8 38.8 38.8" style="overflow:visible;">
	<g>
		<rect y="-38.8" class="st0" width="38.8" height="38.8"/>
		<g>
			<rect y="-38.8" class="st0" width="38.8" height="38.8"/>
			<circle class="st1" cx="19.4" cy="-19.4" r="18"/>
		</g>
	</g>
</pattern>
<pattern  y="943.5" width="38.8" height="38.8" patternUnits="userSpaceOnUse" id="SVGID_5_" viewBox="0 -38.8 38.8 38.8" style="overflow:visible;">
	<g>
		<rect y="-38.8" class="st0" width="38.8" height="38.8"/>
		<g>
			<rect y="-38.8" class="st0" width="38.8" height="38.8"/>
			<circle class="st1" cx="19.4" cy="-19.4" r="18"/>
		</g>
	</g>
</pattern>
<pattern  y="943.5" width="38.8" height="38.8" patternUnits="userSpaceOnUse" id="SVGID_6_" viewBox="0 -38.8 38.8 38.8" style="overflow:visible;">
	<g>
		<rect y="-38.8" class="st0" width="38.8" height="38.8"/>
		<g>
			<rect y="-38.8" class="st0" width="38.8" height="38.8"/>
			<circle class="st1" cx="19.4" cy="-19.4" r="18"/>
		</g>
	</g>
</pattern>
<g>
	<defs>
		<rect id="SVGID_7_" x="0" width="802" height="943.5"/>
	</defs>
	<clipPath id="SVGID_8_">
		<use xlink:href="#SVGID_7_"  style="overflow:visible;"/>
	</clipPath>
	<g class="st2">
		<g>
			<pattern  id="SVGID_9_" xlink:href="#SVGID_1_" patternTransform="matrix(1.0558 0 0 -1.0558 771.975 -17968.1055)">
			</pattern>
			<circle class="st3" cx="519" cy="881.4" r="62"/>
			<pattern  id="SVGID_10_" xlink:href="#SVGID_2_" patternTransform="matrix(1.0558 0 0 -1.0558 771.975 -17968.1055)">
			</pattern>
			<circle class="st4" cx="519" cy="716.4" r="77.6"/>
			<pattern  id="SVGID_11_" xlink:href="#SVGID_3_" patternTransform="matrix(1.0558 0 0 -1.0558 771.975 -17968.1055)">
			</pattern>
			<circle class="st5" cx="519" cy="520.4" r="93.1"/>
			<pattern  id="SVGID_12_" xlink:href="#SVGID_4_" patternTransform="matrix(1.0558 0 0 -1.0558 771.975 -17968.1055)">
			</pattern>
			<circle class="st6" cx="519" cy="108.6" r="108.6"/>
			<pattern  id="SVGID_13_" xlink:href="#SVGID_5_" patternTransform="matrix(1.0558 0 0 -1.0558 771.975 -17968.1055)">
			</pattern>
			<path class="st7" d="M547.6,297.9c3.6-49.6,44.4-76.8,93.4-88.1c74.6-17.2,370.3,7,385,79.7c15.7,78.1-227.9,255.4-374,177.9
				c-46.4-24.6-109.5-89-104.5-168.3C547.5,298.7,547.5,298.3,547.6,297.9z"/>
			<pattern  id="SVGID_14_" xlink:href="#SVGID_6_" patternTransform="matrix(1.0558 0 0 -1.0558 771.975 -17968.1055)">
			</pattern>
			<path class="st8" d="M490.4,297.9c-3.7-49.6-45.4-76.8-95.6-88.1c-76.4-17.2-379.1,7-394,79.7C-15.3,367.6,234,544.9,383.6,467.4
				c47.5-24.6,112.1-89,106.9-168.3C490.5,298.7,490.4,298.3,490.4,297.9z"/>
		</g>
	</g>
</g>
</svg>
