<?xml version="1.0" encoding="utf-8"?>
<!-- Generator: Adobe Illustrator 25.2.1, SVG Export Plug-In . SVG Version: 6.00 Build 0)  -->
<svg version="1.1" id="Layer_1" xmlns="http://www.w3.org/2000/svg" xmlns:xlink="http://www.w3.org/1999/xlink" x="0px" y="0px"
	 viewBox="0 0 1026.7 943.49" style="enable-background:new 0 0 1026.7 943.49;" xml:space="preserve">
<style type="text/css">
	.st0{fill:none;}
	.st1{fill:#789995;}
	.st2{opacity:0.3;}
	.st3{fill:url(#SVGID_1_);}
	.st4{fill:url(#SVGID_2_);}
	.st5{fill:url(#SVGID_3_);}
	.st6{fill:url(#SVGID_4_);}
	.st7{fill:url(#SVGID_5_);}
	.st8{fill:url(#SVGID_6_);}
</style>
<pattern  width="38.77" height="38.77" patternUnits="userSpaceOnUse" id="thetis_dots" viewBox="0 -38.77 38.77 38.77" style="overflow:visible;">
	<g>
		<rect y="-38.77" class="st0" width="38.77" height="38.77"/>
		<circle class="st1" cx="19.39" cy="-19.39" r="17.97"/>
	</g>
</pattern>
<g class="st2">
	<g>
		<pattern  id="SVGID_1_" xlink:href="#thetis_dots" patternTransform="matrix(1.0558 0 0 1.0558 347.1534 126.5638)">
		</pattern>
		<circle class="st3" cx="518.99" cy="881.44" r="62.05"/>
		<pattern  id="SVGID_2_" xlink:href="#thetis_dots" patternTransform="matrix(1.0558 0 0 1.0558 347.1534 126.5638)">
		</pattern>
		<circle class="st4" cx="518.99" cy="716.43" r="77.57"/>
		<pattern  id="SVGID_3_" xlink:href="#thetis_dots" patternTransform="matrix(1.0558 0 0 1.0558 347.1534 126.5638)">
		</pattern>
		<circle class="st5" cx="518.99" cy="520.4" r="93.08"/>
		<pattern  id="SVGID_4_" xlink:href="#thetis_dots" patternTransform="matrix(1.0558 0 0 1.0558 347.1534 126.5638)">
		</pattern>
		<circle class="st6" cx="518.99" cy="108.59" r="108.59"/>
		<pattern  id="SVGID_5_" xlink:href="#thetis_dots" patternTransform="matrix(1.0558 0 0 1.0558 347.1534 126.5638)">
		</pattern>
		<path class="st7" d="M547.56,297.88c3.59-49.64,44.4-76.77,93.42-88.08c74.62-17.22,370.35,6.99,384.99,79.72
			c15.71,78.06-227.89,255.36-374.02,177.85c-46.43-24.63-109.51-89.02-104.48-168.26C547.51,298.7,547.53,298.29,547.56,297.88z"/>
		<pattern  id="SVGID_6_" xlink:href="#thetis_dots" patternTransform="matrix(1.0558 0 0 1.0558 347.1534 126.5638)">
		</pattern>
		<path class="st8" d="M490.41,297.88c-3.67-49.64-45.44-76.77-95.62-88.08c-76.38-17.22-379.07,6.99-394.05,79.72
			c-16.08,78.06,233.25,255.36,382.82,177.85c47.52-24.63,112.08-89.02,106.93-168.26C490.47,298.7,490.44,298.29,490.41,297.88z"/>
	</g>
</g>
</svg>
