<?xml version="1.0" encoding="utf-8"?>
<!-- Generator: Adobe Illustrator 25.2.1, SVG Export Plug-In . SVG Version: 6.00 Build 0)  -->
<svg version="1.1" id="Layer_1" xmlns="http://www.w3.org/2000/svg" xmlns:xlink="http://www.w3.org/1999/xlink" x="0px" y="0px"
	 viewBox="0 0 918 618" style="enable-background:new 0 0 918 618;" xml:space="preserve">
<path d="M652.3,31.8c9.3,7,18,13.6,27.2,20.6c-139.8,185-279.4,369.8-419.2,554.8c-9.1-6.9-17.9-13.5-27.2-20.5
	C372.8,401.7,512.4,216.9,652.3,31.8z"/>
<g>
	<g>
		<path d="M195.1,180c0,13.8-3.7,25.8-11.1,36.2c-7.4,10.3-17.4,18.4-29.9,24.2c-12.6,5.8-26.2,8.7-41.1,8.7
			c-15.2,0-29-3.1-41.4-9.4c-12.3-6.2-22.1-14.6-29.1-25.2c-7.1-10.5-10.6-22.6-10.6-36.2c0-9,2-17.2,6-24.5c4-7.3,9-13.5,15-18.6
			c6-5.1,12.2-9,18.7-11.8c-5.8-2.6-11.2-6.1-16.1-10.6c-4.9-4.5-8.9-9.7-11.9-15.5c-3-5.8-4.5-12-4.5-18.7c0-9.9,2.2-18.7,6.6-26.4
			C50,44.6,55.9,38.2,63.3,33c7.4-5.2,15.5-9.1,24.2-11.8c8.7-2.7,17.3-4,25.9-4c8.6,0,17.3,1.3,26.1,4c8.8,2.7,16.9,6.6,24.3,11.8
			c7.4,5.2,13.3,11.5,17.7,19c4.4,7.5,6.6,16.4,6.6,26.7c0,6.4-1.4,12.6-4.3,18.5c-2.9,5.9-6.9,11.1-11.9,15.6
			c-5,4.5-10.5,8-16.3,10.6c6.9,3.2,13.4,7.5,19.5,12.8c6.1,5.3,11,11.6,14.7,18.9C193.3,162.5,195.1,170.7,195.1,180z M159.1,177.4
			c0-6-1.2-11.5-3.7-16.3c-2.5-4.9-6-9-10.6-12.4c-4.6-3.5-9.6-6-15-7.8c-5.4-1.7-10.9-2.6-16.7-2.6c-7.7,0-15,1.6-21.9,4.9
			c-6.9,3.2-12.5,7.8-16.7,13.7c-4.3,5.9-6.4,13-6.4,21.2c0,5.8,1.3,11.2,3.9,16s6.1,9,10.5,12.4c4.4,3.5,9.3,6,14.8,7.8
			c5.5,1.7,11,2.6,16.6,2.6c7.7,0,15-1.7,21.9-5c6.9-3.3,12.5-8,16.9-13.9C156.9,192,159.1,185.2,159.1,177.4z M75,79.7
			c0,6.9,1.9,12.7,5.8,17.4c3.9,4.7,8.8,8.3,14.8,10.6c6,2.4,11.9,3.5,17.7,3.5c6.2,0,12.2-1.2,18-3.7c5.8-2.5,10.7-6.1,14.7-10.8
			c4-4.7,6-10.5,6-17.4c0-6.4-1.8-11.9-5.5-16.4c-3.7-4.5-8.4-8-14.2-10.5c-5.8-2.5-12.2-3.7-19.3-3.7c-6.7,0-12.9,1.3-18.7,3.9
			c-5.8,2.6-10.5,6.2-14,10.8C76.8,68.1,75,73.5,75,79.7z"/>
		<path d="M229.9,245.9v-41.2h29.3v41.2H229.9z"/>
		<path d="M398.7,94.5H287.9V62h166.5l-114,224.8h-39.9L398.7,94.5z"/>
	</g>
</g>
<g>
	<g>
		<path d="M661.2,511.5v31.9h-123v-31.9h45.7V398.8c-1.9,2.6-4.9,5.3-9,8.2c-4.1,2.9-8.7,5.6-13.8,8c-5.2,2.5-10.3,4.5-15.3,6
			c-5,1.5-9.7,2.3-14,2.3v-33.2c4.3,0,9.3-1.3,15-3.9c5.7-2.6,11.2-5.6,16.6-9.2c5.4-3.5,10-7,13.8-10.3c3.9-3.3,6.1-5.7,6.8-7.2
			h36.4v152H661.2z"/>
		<path d="M850.2,450.5c0,18.6-3.7,35.2-10.9,49.6c-7.3,14.5-17.1,25.9-29.3,34.1c-12.2,8.3-26.3,12.4-42.2,12.4
			c-15.9,0-30-4.1-42.3-12.4c-12.3-8.2-22.1-19.6-29.3-34.1c-7.2-14.5-10.8-31-10.8-49.6s3.6-35.2,10.8-49.6
			c7.2-14.5,17-25.9,29.3-34.3c12.3-8.4,26.5-12.5,42.3-12.5c15.9,0,29.9,4.2,42.2,12.5c12.2,8.4,22,19.8,29.3,34.3
			C846.5,415.3,850.2,431.8,850.2,450.5z M814.4,450.5c0-12.6-2-23.6-6-33c-4-9.4-9.5-16.9-16.6-22.4c-7.1-5.5-15.2-8.2-24.5-8.2
			c-9,0-17.1,2.7-24.2,8c-7.1,5.4-12.6,12.8-16.6,22.3c-4,9.5-6,20.6-6,33.2c0,12.6,2,23.6,6.1,33.1c4.1,9.4,9.6,16.8,16.6,22.2
			c7,5.4,15.1,8,24.3,8c9,0,17.1-2.7,24.1-8.2c7.1-5.5,12.6-12.9,16.6-22.3C812.5,473.8,814.4,462.8,814.4,450.5z"/>
	</g>
</g>
</svg>
