<?xml version="1.0" encoding="utf-8"?>
<!-- Generator: Adobe Illustrator 25.2.1, SVG Export Plug-In . SVG Version: 6.00 Build 0)  -->
<svg version="1.1" id="Layer_1" xmlns="http://www.w3.org/2000/svg" xmlns:xlink="http://www.w3.org/1999/xlink" x="0px" y="0px"
	 viewBox="0 0 915 632" style="enable-background:new 0 0 915 632;" xml:space="preserve">
<g>
	<g>
		<path d="M409.09,204.1c-18.2,0.2-35.82,0.54-53.17-3.93c-39-10.03-60.9-37.41-62.14-77.72c-0.42-13.75,0.35-27.31,4.77-40.41
			c9.42-27.9,30.16-43.2,57.71-49.8c11.06-2.65,22.68-3.78,34.08-4.05c17.96-0.42,35.98-0.09,53.92,0.97
			c14.73,0.87,28.74,5.26,41.67,12.69c17.16,9.86,28.54,24.33,33.8,43.32c5.39,19.46,5.63,39.2,0.79,58.78
			c-7.57,30.63-28.46,47.78-57.9,55.92C444.88,204.8,426.7,204.36,409.09,204.1z M471.39,76.67C439.87,108.53,408.73,140,378,171.06
			c11.97,2.64,55.87,1.98,68.46-1.33c17.93-4.71,30.55-15.02,35.11-33.65c2.85-11.63,3.09-23.4,1.01-35.16
			C480.98,91.83,477.77,83.36,471.39,76.67z M439.59,61.22c-0.22-0.04-0.98-0.28-1.73-0.3c-15.97-0.35-31.94-0.88-47.91-0.88
			c-5.77,0-11.64,0.86-17.29,2.1c-19.53,4.3-33.04,15.29-37.33,35.58c-2.76,13.04-2.69,26.14,0.69,39.09
			c1.86,7.13,4.87,13.73,9.93,18.73C377.3,123.97,408.46,92.58,439.59,61.22z"/>
		<path d="M795.33,609.69c-17.34-0.41-34.64-0.03-51.67-4.34c-39.74-10.07-61.58-37.22-62.88-78.13
			c-0.43-13.58,0.36-26.98,4.69-39.92c9.32-27.93,30.02-43.31,57.55-50c11.05-2.69,22.68-3.82,34.08-4.09
			c17.96-0.43,35.98-0.07,53.92,0.94c14.57,0.82,28.45,5.11,41.28,12.33c17.39,9.79,29.03,24.28,34.39,43.46
			c5.48,19.61,5.76,39.52,0.78,59.26c-8.22,32.6-31.06,49.47-62.43,56.77c-3.72,0.87-7.51,1.73-11.3,1.95
			C820.94,608.66,808.13,609.12,795.33,609.69z M858.39,481.66c-31.52,31.84-62.67,63.31-93.92,94.88
			c22.67,0.88,45.97,3.29,68.95-1.93c18.06-4.1,30.58-14.88,35.15-33.52c2.85-11.63,3.1-23.4,1.02-35.16
			C867.98,496.85,864.78,488.38,858.39,481.66z M732.99,560.58c31.33-31.57,62.49-62.96,93.64-94.35c-0.25-0.05-0.99-0.29-1.75-0.31
			c-15.97-0.35-31.94-0.89-47.91-0.88c-5.77,0-11.64,0.86-17.29,2.1c-19.53,4.29-33.05,15.26-37.35,35.55
			c-2.77,13.04-2.7,26.14,0.67,39.09C724.86,548.92,727.85,555.53,732.99,560.58z"/>
		<path d="M723.43,44.18c9.26,7.01,18.01,13.63,27.19,20.58C610.83,249.76,471.22,434.53,331.38,619.6
			c-9.15-6.91-17.89-13.51-27.22-20.55C443.93,414.08,583.53,229.32,723.43,44.18z"/>
		<path d="M17.82,202.73c0-10.66,0-21.07,0-31.9c2.3,0,4.28,0,6.26,0c32.33,0,64.65,0.09,96.98-0.08
			c5.62-0.03,11.33-0.67,16.82-1.87c18.06-3.96,31.58-18.99,33.11-36.88c-1.79,0-3.54,0-5.28,0c-36.49,0-72.99,0.03-109.48-0.02
			c-13.79-0.02-26.89-2.54-37.71-11.91c-13.84-12-17.78-27.83-16.01-45.2c2.82-27.73,20.66-44.36,48.66-44.92
			c27.3-0.54,54.65-0.73,81.94,0.13c27.06,0.85,50.42,10.63,66.65,33.48c12.62,17.77,16.03,38.11,14.89,59.38
			c-1.13,21.09-7.57,40.21-22.77,55.54c-16.63,16.78-37.52,24.01-60.54,24.37c-37.15,0.58-74.32,0.15-111.47,0.14
			C19.37,202.98,18.88,202.86,17.82,202.73z M171.21,100c-0.31-1.71-0.45-3.01-0.79-4.26c-5.48-20.26-20.76-32.91-42.56-33.59
			c-22.46-0.7-44.95-0.29-67.43-0.23c-5.22,0.02-9.97,1.87-12.84,6.48c-4.69,7.51-4.7,15.63-1.03,23.39
			c3.27,6.91,9.86,8.23,16.91,8.22C97.6,99.98,131.74,100,165.88,100C167.52,100,169.17,100,171.21,100z"/>
		<path d="M653.59,434.82c0,57.73,0,115.13,0,172.86c-12.43,0-24.68,0-37.61,0c0-46.75,0-93.59,0-141.12c-17.56,0-34.45,0-51.57,0
			c0-10.93,0-21.18,0-31.73C594.22,434.82,623.79,434.82,653.59,434.82z"/>
		<path d="M273.32,168.07c0,11.58,0,22.55,0,33.98c-12.78,0-25.46,0-38.49,0c0-11.29,0-22.51,0-33.98
			C247.68,168.07,260.29,168.07,273.32,168.07z"/>
	</g>
</g>
</svg>
