<?xml version="1.0" encoding="utf-8"?>
<!-- Generator: Adobe Illustrator 25.2.1, SVG Export Plug-In . SVG Version: 6.00 Build 0)  -->
<svg version="1.1" id="Layer_1" xmlns="http://www.w3.org/2000/svg" xmlns:xlink="http://www.w3.org/1999/xlink" x="0px" y="0px"
	 viewBox="0 0 976.3 686.8" style="enable-background:new 0 0 976.3 686.8;" xml:space="preserve">
<path d="M676.2,82.4c9.3,7,18,13.6,27.2,20.6C563.6,288,424,472.8,284.2,657.8c-9.1-6.9-17.9-13.5-27.2-20.5
	C396.7,452.3,536.3,267.6,676.2,82.4z"/>
<g>
	<g>
		<path d="M219,230.6c0,13.8-3.7,25.8-11.1,36.2c-7.4,10.3-17.4,18.4-29.9,24.2c-12.6,5.8-26.2,8.7-41.1,8.7
			c-15.2,0-29-3.1-41.4-9.4c-12.3-6.2-22.1-14.6-29.1-25.2c-7.1-10.5-10.6-22.6-10.6-36.2c0-9,2-17.2,6-24.5c4-7.3,9-13.5,15-18.6
			c6-5.1,12.2-9,18.7-11.8c-5.8-2.6-11.2-6.1-16.1-10.6c-4.9-4.5-8.9-9.7-11.9-15.5c-3-5.8-4.5-12-4.5-18.7c0-9.9,2.2-18.7,6.6-26.4
			c4.4-7.7,10.3-14.2,17.7-19.3c7.4-5.2,15.5-9.1,24.2-11.8c8.7-2.7,17.3-4,25.9-4c8.6,0,17.3,1.3,26.1,4
			c8.8,2.7,16.9,6.6,24.3,11.8c7.4,5.2,13.3,11.5,17.7,19c4.4,7.5,6.6,16.4,6.6,26.7c0,6.4-1.4,12.6-4.3,18.5
			c-2.9,5.9-6.9,11.1-11.9,15.6c-5,4.5-10.5,8-16.3,10.6c6.9,3.2,13.4,7.5,19.5,12.8c6.1,5.3,11,11.6,14.7,18.9
			C217.2,213.1,219,221.4,219,230.6z M183,228.1c0-6-1.2-11.5-3.7-16.3c-2.5-4.9-6-9-10.6-12.4c-4.6-3.5-9.6-6-15-7.8
			c-5.4-1.7-10.9-2.6-16.7-2.6c-7.7,0-15,1.6-21.9,4.9c-6.9,3.2-12.5,7.8-16.7,13.7c-4.3,5.9-6.4,13-6.4,21.2c0,5.8,1.3,11.2,3.9,16
			c2.6,4.9,6.1,9,10.5,12.4c4.4,3.5,9.3,6,14.8,7.8c5.5,1.7,11,2.6,16.6,2.6c7.7,0,15-1.7,21.9-5c6.9-3.3,12.5-8,16.9-13.9
			C180.8,242.7,183,235.8,183,228.1z M98.9,130.3c0,6.9,1.9,12.7,5.8,17.4c3.9,4.7,8.8,8.3,14.8,10.6c6,2.4,11.9,3.5,17.7,3.5
			c6.2,0,12.2-1.2,18-3.7c5.8-2.5,10.7-6.1,14.7-10.8c4-4.7,6-10.5,6-17.4c0-6.4-1.8-11.9-5.5-16.4c-3.7-4.5-8.4-8-14.2-10.5
			c-5.8-2.5-12.2-3.7-19.3-3.7c-6.7,0-12.9,1.3-18.7,3.9c-5.8,2.6-10.5,6.2-14,10.8C100.7,118.7,98.9,124.1,98.9,130.3z"/>
		<path d="M253.8,296.5v-41.2h29.3v41.2H253.8z"/>
		<path d="M473.4,260.4c-7.3,12-17.1,21.6-29.5,28.7c-12.3,7.1-26.4,10.6-42,10.6c-16.7,0-31.4-4-44-12.1
			c-12.6-8-22.3-19.7-29.3-34.9c-7-15.2-10.5-33.5-10.5-54.7c0-29,3.6-53.2,10.8-72.8c7.2-19.5,17.3-34.2,30.3-44.1
			c13-9.9,28.4-14.8,46.2-14.8c14.6,0,28,3.4,40.1,10.1c12.1,6.8,21.9,16.3,29.5,28.5l-20.9,21.9c-4.7-9.2-11.5-16.5-20.3-21.7
			c-8.8-5.3-18.5-7.9-29-7.9c-10.5,0-19.8,3.1-27.7,9.2c-7.9,6.1-14.1,15-18.5,26.7c-4.4,11.7-6.8,25.7-7.2,42
			c3.2-6.4,7.5-12,12.7-16.6c5.3-4.6,11.4-8.2,18.4-10.8c7-2.6,14.5-3.9,22.7-3.9c15,0,28.5,3.4,40.4,10.1
			c11.9,6.8,21.4,15.9,28.3,27.5c7,11.6,10.5,24.6,10.5,39C484.4,235.1,480.7,248.4,473.4,260.4z M426.2,262.9
			c7.4-4.4,13.4-10.4,17.9-17.9c4.5-7.5,6.8-15.7,6.8-24.5c0-8.8-2.3-16.8-6.8-24.1c-4.5-7.3-10.4-13.1-17.7-17.5
			c-7.3-4.4-15.4-6.6-24.1-6.6c-9,0-17.2,2.2-24.6,6.6c-7.4,4.4-13.3,10.2-17.7,17.4c-4.4,7.2-6.6,15.3-6.6,24.3
			c0,8.8,2.3,16.9,6.8,24.3c4.5,7.4,10.4,13.4,17.7,17.9c7.3,4.5,15.3,6.8,24.1,6.8C410.7,269.5,418.8,267.3,426.2,262.9z"/>
	</g>
</g>
<g>
	<g>
		<path d="M685.1,562.1V594h-123v-31.9h45.7V449.4c-1.9,2.6-4.9,5.3-9,8.2c-4.1,2.9-8.7,5.6-13.8,8.1c-5.2,2.5-10.3,4.5-15.3,6
			c-5,1.5-9.7,2.3-14,2.3v-33.2c4.3,0,9.3-1.3,15-3.9c5.7-2.6,11.2-5.6,16.6-9.2c5.4-3.5,10-7,13.8-10.3c3.9-3.3,6.1-5.7,6.8-7.2
			h36.4v152H685.1z"/>
		<path d="M874.1,501.1c0,18.6-3.7,35.2-10.9,49.6c-7.3,14.5-17.1,25.9-29.3,34.1c-12.2,8.3-26.3,12.4-42.2,12.4
			c-15.9,0-30-4.1-42.3-12.4c-12.3-8.2-22.1-19.6-29.3-34.1c-7.2-14.5-10.8-31-10.8-49.6c0-18.6,3.6-35.2,10.8-49.6
			c7.2-14.5,17-25.9,29.3-34.3c12.3-8.4,26.5-12.5,42.3-12.5c15.9,0,29.9,4.2,42.2,12.5c12.2,8.4,22,19.8,29.3,34.3
			C870.4,465.9,874.1,482.5,874.1,501.1z M838.3,501.1c0-12.6-2-23.6-6-33.1c-4-9.4-9.5-16.9-16.6-22.4c-7.1-5.5-15.2-8.2-24.5-8.2
			c-9,0-17.1,2.7-24.2,8s-12.6,12.8-16.6,22.3c-4,9.5-6,20.6-6,33.2c0,12.6,2,23.6,6.1,33.1c4.1,9.4,9.6,16.8,16.6,22.2
			c7,5.4,15.1,8,24.3,8c9,0,17.1-2.7,24.1-8.2c7.1-5.5,12.6-12.9,16.6-22.3C836.3,524.4,838.3,513.5,838.3,501.1z"/>
	</g>
</g>
</svg>
