<?xml version="1.0" encoding="utf-8"?>
<!-- Generator: Adobe Illustrator 25.2.1, SVG Export Plug-In . SVG Version: 6.00 Build 0)  -->
<svg version="1.1" id="Layer_1" xmlns="http://www.w3.org/2000/svg" xmlns:xlink="http://www.w3.org/1999/xlink" x="0px" y="0px"
	 viewBox="0 0 915 632" style="enable-background:new 0 0 915 632;" xml:space="preserve">
<path d="M677.7,44.2c9.3,7,18,13.6,27.2,20.6c-139.8,185-279.4,369.8-419.2,554.8c-9.1-6.9-17.9-13.5-27.2-20.5
	C398.2,414.1,537.8,229.3,677.7,44.2z"/>
<g>
	<g>
		<path d="M64,109.1C71.3,96.8,81.2,87,93.6,79.8c12.4-7.2,26.4-10.9,41.9-10.9c17,0,31.7,4.1,44.1,12.4
			c12.4,8.2,22.2,20.2,29.1,35.8c7,15.6,10.5,34.3,10.5,56c0,29.7-3.6,54.5-10.8,74.5c-7.2,20-17.3,35-30.3,45.1
			c-13,10.1-28.4,15.2-46.2,15.2c-14.6,0-27.9-3.4-39.9-10.1c-12-6.8-21.9-16.3-29.6-28.5l20.9-21.9c4.9,9,11.8,16.2,20.6,21.6
			c8.8,5.4,18.4,8,28.7,8c10.9,0,20.3-3.2,28.2-9.6c7.8-6.4,14-15.6,18.4-27.7c4.4-12.1,6.7-26.3,6.9-42.6
			c-3,6.2-7.2,11.7-12.6,16.4c-5.4,4.7-11.5,8.4-18.5,10.9c-7,2.6-14.4,3.9-22.4,3.9c-14.8,0-28.3-3.5-40.4-10.4
			c-12.1-6.9-21.7-16.3-28.7-28.2c-7-11.9-10.5-25.1-10.5-39.8C53.1,135,56.7,121.4,64,109.1z M111.4,106
			c-7.3,4.6-13.2,10.7-17.7,18.4c-4.5,7.7-6.8,16.2-6.8,25.5c0,9.1,2.2,17.5,6.6,25c4.4,7.6,10.3,13.6,17.7,18.2
			c7.4,4.6,15.4,6.8,24,6.8c9.2,0,17.4-2.3,24.6-6.8c7.2-4.6,13-10.6,17.5-18.2c4.5-7.6,6.8-15.9,6.8-25c0-9.3-2.3-17.9-6.8-25.5
			c-4.5-7.7-10.4-13.8-17.7-18.4c-7.3-4.6-15.4-6.8-24.1-6.8C126.7,99.2,118.6,101.5,111.4,106z"/>
		<path d="M251.4,258.2V217h29.3v41.2H251.4z"/>
		<path d="M481.6,165.4c0,18.6-3.7,35.2-10.9,49.6c-7.3,14.5-17.1,25.9-29.3,34.1c-12.2,8.3-26.3,12.4-42.2,12.4
			c-15.9,0-30-4.1-42.3-12.4c-12.3-8.2-22.1-19.6-29.3-34.1c-7.2-14.5-10.8-31-10.8-49.6c0-18.6,3.6-35.2,10.8-49.6
			c7.2-14.5,17-25.9,29.3-34.3c12.3-8.4,26.5-12.5,42.3-12.5c15.9,0,29.9,4.2,42.2,12.5c12.2,8.4,22,19.8,29.3,34.3
			C478,130.2,481.6,146.7,481.6,165.4z M445.9,165.3c0-12.6-2-23.6-6-33.1c-4-9.4-9.5-16.9-16.6-22.4c-7.1-5.5-15.2-8.2-24.5-8.2
			c-9,0-17.1,2.7-24.2,8s-12.6,12.8-16.6,22.3c-4,9.5-6,20.6-6,33.2c0,12.6,2,23.6,6.1,33.1c4.1,9.4,9.6,16.8,16.6,22.2
			c7,5.4,15.1,8,24.3,8c9,0,17.1-2.7,24.1-8.2c7.1-5.5,12.6-12.9,16.6-22.3C443.9,188.6,445.9,177.7,445.9,165.3z"/>
	</g>
</g>
<g>
	<g>
		<path d="M686.5,523.9v31.9h-123v-31.9h45.7V411.2c-1.9,2.6-4.9,5.3-9,8.2c-4.1,2.9-8.7,5.6-13.8,8.1c-5.2,2.5-10.3,4.5-15.3,6
			c-5,1.5-9.7,2.3-14,2.3v-33.2c4.3,0,9.3-1.3,15-3.9c5.7-2.6,11.2-5.6,16.6-9.2c5.4-3.5,10-7,13.8-10.3c3.9-3.3,6.1-5.7,6.8-7.2
			h36.4v152H686.5z"/>
		<path d="M875.5,462.9c0,18.6-3.7,35.2-10.9,49.6c-7.3,14.5-17.1,25.9-29.3,34.1c-12.2,8.3-26.3,12.4-42.2,12.4
			c-15.9,0-30-4.1-42.3-12.4c-12.3-8.2-22.1-19.6-29.3-34.1c-7.2-14.5-10.8-31-10.8-49.6c0-18.6,3.6-35.2,10.8-49.6
			c7.2-14.5,17-25.9,29.3-34.3c12.3-8.4,26.5-12.5,42.3-12.5c15.9,0,29.9,4.2,42.2,12.5c12.2,8.4,22,19.8,29.3,34.3
			C871.9,427.7,875.5,444.2,875.5,462.9z M839.8,462.8c0-12.6-2-23.6-6-33.1c-4-9.4-9.5-16.9-16.6-22.4c-7.1-5.5-15.2-8.2-24.5-8.2
			c-9,0-17.1,2.7-24.2,8s-12.6,12.8-16.6,22.3c-4,9.5-6,20.6-6,33.2c0,12.6,2,23.6,6.1,33.1c4.1,9.4,9.6,16.8,16.6,22.2
			c7,5.4,15.1,8,24.3,8c9,0,17.1-2.7,24.1-8.2c7.1-5.5,12.6-12.9,16.6-22.3C837.8,486.1,839.8,475.2,839.8,462.8z"/>
	</g>
</g>
</svg>
