<?xml version="1.0" encoding="utf-8"?>
<!-- Generator: Adobe Illustrator 25.2.1, SVG Export Plug-In . SVG Version: 6.00 Build 0)  -->
<svg version="1.1" id="Layer_1" xmlns="http://www.w3.org/2000/svg" xmlns:xlink="http://www.w3.org/1999/xlink" x="0px" y="0px"
	 viewBox="0 0 918 618" style="enable-background:new 0 0 918 618;" xml:space="preserve">
<g>
	<g>
		<path d="M25.27,100.81c-9.16-12.9-11.02-27.32-8.79-42.16c3.81-25.39,22.4-40.87,49.17-41.09c34.15-0.28,68.31-0.35,102.46,0.01
			c33.79,0.36,54.06,24.42,49.39,60.27c-0.53,4.09-1.62,8.18-3.06,12.05c-1.43,3.85-3.63,7.42-5.64,11.41
			c12.88,13.5,16.1,30.09,13.47,48c-3.71,25.21-22.12,41.39-47.69,41.6c-38.32,0.32-76.64,0.32-114.95,0.01
			c-28.45-0.23-48.57-20.98-48.63-49.33C10.96,123.62,13.58,116.06,25.27,100.81z M117.11,119.84c-15.48,0-30.95-0.08-46.43,0.03
			c-9.97,0.07-15.62,4.87-17.41,14.38c-2.66,14.15,4.03,24.56,16.56,24.66c31.45,0.24,62.9,0.29,94.34-0.17
			c4.32-0.06,9.82-2.4,12.65-5.58c6.17-6.95,5.61-15.76,2.38-24.02c-2.98-7.6-9.68-9.36-17.17-9.33
			C147.06,119.88,132.09,119.84,117.11,119.84z M117.02,49.84c-13.15,0-26.3-0.01-39.46,0c-15.18,0.02-21.47,7.18-19.68,22.37
			c1.07,9.06,6.73,14.8,15.79,14.86c28.8,0.19,57.6,0.13,86.4,0.04c5.4-0.02,10.3-1.95,13.14-6.83c4.22-7.25,4.37-15.02,0.79-22.46
			c-3.25-6.74-9.72-7.97-16.52-7.97C143.99,49.84,130.51,49.84,117.02,49.84z"/>
		<path d="M795.06,597.1c-18.18,0.2-35.8,0.53-53.15-3.93c-38.99-10.03-60.89-37.41-62.13-77.73c-0.42-13.75,0.35-27.31,4.78-40.4
			c9.43-27.9,30.17-43.2,57.72-49.79c11.06-2.65,22.68-3.78,34.08-4.05c17.96-0.42,35.98-0.09,53.92,0.97
			c14.73,0.87,28.74,5.26,41.67,12.7c17.16,9.87,28.54,24.33,33.8,43.33c5.39,19.46,5.63,39.2,0.79,58.78
			c-7.57,30.63-28.46,47.78-57.9,55.91C830.87,597.8,812.69,597.36,795.06,597.1z M762.31,564.5c23.83,0.93,47.13,3.34,70.11-1.88
			c18.06-4.1,30.58-14.88,35.15-33.52c2.85-11.63,3.12-23.41,1.02-35.15c-1.65-9.21-4.8-17.84-11.84-24.84
			C825.32,500.85,794.21,532.28,762.31,564.5z M731.61,548.23c31.52-31.71,62.67-63.04,94.76-95.32c-16.98,0-33.58-0.19-50.18,0.1
			c-5.95,0.1-11.98,0.9-17.78,2.2c-19.3,4.32-32.7,15.2-37.03,35.28c-2.85,13.21-2.75,26.47,0.68,39.58
			C723.89,537.03,726.87,543.48,731.61,548.23z"/>
		<path d="M722.43,32.18c9.21,6.97,17.96,13.59,27.2,20.57C609.85,237.73,470.24,422.5,330.39,607.59
			c-9.1-6.87-17.85-13.46-27.23-20.54C442.9,402.11,582.5,217.36,722.43,32.18z"/>
		<path d="M446.28,49.5c-50.77,0-99.98,0-149.48,0c0-10.84,0-21.08,0-31.66c65.43,0,130.66,0,196.71,0c0,7.43-0.35,14.88,0.1,22.27
			c0.4,6.53-1.5,11.53-5.78,16.64c-36.48,43.53-72.65,87.33-109.02,130.96c-1.3,1.56-3.67,3.11-5.57,3.15
			c-13.82,0.27-27.66,0.14-41.49,0.13c-0.6,0-1.2-0.12-2.67-0.28C368.1,143.7,406.64,97.27,446.28,49.5z"/>
		<path d="M652.6,595.86c-12.66,0-24.8,0-37.62,0c0-46.94,0-93.79,0-141.32c-17.56,0-34.45,0-51.56,0c0-10.93,0-21.17,0-31.73
			c29.81,0,59.38,0,89.18,0C652.6,480.54,652.6,537.95,652.6,595.86z"/>
		<path d="M294.21,156.06c0,11.33,0,22.44,0,34c-12.69,0-25.38,0-38.39,0c0-11.34,0-22.56,0-34
			C268.7,156.06,281.31,156.06,294.21,156.06z"/>
	</g>
</g>
</svg>
