<?xml version="1.0" encoding="utf-8"?>
<!-- Generator: Adobe Illustrator 25.2.1, SVG Export Plug-In . SVG Version: 6.00 Build 0)  -->
<svg version="1.1" id="Layer_1" xmlns="http://www.w3.org/2000/svg" xmlns:xlink="http://www.w3.org/1999/xlink" x="0px" y="0px"
	 viewBox="0 0 353.27 246.83" style="enable-background:new 0 0 353.27 246.83;" xml:space="preserve">
<g>
	<g>
		<path d="M7.1,40.89c-3.55-4.97-4.28-10.52-3.47-16.24c1.4-9.78,8.56-15.84,18.88-15.94c13.3-0.13,26.6-0.15,39.9,0.01
			c10.44,0.13,17.48,6.26,18.81,16.22c0.75,5.61-0.04,11.02-3.5,15.95c2.42,2.56,4.16,5.5,4.94,8.96c0.86,3.82,0.95,7.65,0.07,11.46
			c-1.98,8.62-8.98,14.2-18.19,14.26c-14.71,0.1-29.43,0.1-44.14,0C9.33,75.49,1.62,67.5,1.52,56.44
			C1.46,50.56,2.89,45.28,7.1,40.89z M42.34,48.15c-5.97,0-11.94-0.04-17.9,0.01c-3.79,0.03-5.98,1.98-6.61,5.67
			c-0.94,5.51,1.65,9.36,6.53,9.39c12.06,0.07,24.13,0.04,36.19,0.01c1.91-0.01,3.78-0.52,4.97-2.11c2.21-2.95,2.16-6.26,0.84-9.5
			c-1.16-2.82-3.69-3.49-6.51-3.48C54.02,48.16,48.18,48.15,42.34,48.15z M42.46,35.54c5.39,0,10.79,0.01,16.18-0.01
			c2.23-0.01,4.26-0.64,5.45-2.65c1.65-2.79,1.69-5.79,0.31-8.66c-1.25-2.6-3.74-3.08-6.37-3.08c-4.82,0-9.63,0-14.45,0
			c-5.71,0-11.43,0-17.14,0c-2.2,0-4.32,0.45-5.62,2.36c-1.85,2.72-1.75,5.73-0.52,8.63c1.16,2.73,3.61,3.41,6.35,3.4
			C31.93,35.53,37.2,35.54,42.46,35.54z"/>
		<path d="M303.52,232.24c-6.81,0.08-13.62,0.21-20.29-1.6c-11.59-3.15-19.79-9.85-22.67-21.94c-1.74-7.3-1.69-14.67,0.26-21.92
			c2.68-9.98,9.29-16.47,18.91-19.67c4.34-1.44,8.99-2.43,13.54-2.62c8.01-0.34,16.05-0.06,24.07,0.24c4.5,0.17,8.86,1.43,13,3.27
			c9.46,4.19,15.15,11.41,17.05,21.55c1.22,6.51,1.16,13.05-0.46,19.49c-2.96,11.8-10.96,18.57-22.37,21.47
			c-4.13,1.05-8.48,1.3-12.75,1.68C309.06,232.43,306.28,232.24,303.52,232.24z M291.29,219.69c9.47,0.2,18.77,1.38,27.93-1.03
			c6.59-1.73,10.99-5.88,12.67-12.63c1.11-4.49,1.22-9.03,0.42-13.56c-0.63-3.56-1.85-6.89-4.56-9.61
			C315.63,195.09,303.64,207.21,291.29,219.69z M316.22,176.71c-6.84-0.03-13.31-0.18-19.79-0.03c-2.73,0.06-5.51,0.51-8.15,1.22
			c-6.82,1.84-11.28,6.18-12.78,13.22c-1.09,5.1-1.06,10.21,0.28,15.26c0.71,2.68,1.85,5.18,3.89,7.18
			C291.73,201.4,303.74,189.29,316.22,176.71z"/>
		<path d="M124.72,236.27c-3.59-2.72-6.96-5.26-10.49-7.94c53.94-71.39,107.79-142.65,161.69-213.98c3.5,2.65,6.88,5.2,10.49,7.93
			C232.52,93.59,178.68,164.85,124.72,236.27z"/>
		<path d="M194.68,8.51c0,4.05,0,7.95,0,12.13c-0.77,0-1.52,0-2.27,0c-11.76,0-23.52-0.02-35.28,0.01
			c-4.59,0.01-9.09,0.6-13.36,2.41c-5.58,2.37-8.22,6.84-9.25,12.8c0.89,0,1.64,0,2.39,0c14.39,0.02,28.79-0.04,43.18,0.1
			c5.09,0.05,9.89,1.41,13.99,4.68c3.25,2.59,5.24,5.94,6.07,9.98c0.73,3.57,0.7,7.16-0.16,10.7c-1.87,7.64-8.31,12.93-16.84,13.87
			c-1.85,0.2-3.71,0.31-5.57,0.31c-9.83,0.03-19.66,0.08-29.49-0.01c-5.94-0.06-11.59-1.38-16.62-4.74
			c-6.58-4.39-10.17-10.75-11.78-18.3c-1.48-6.92-1.51-13.91-0.02-20.84c2.22-10.33,8.68-16.9,18.48-20.41
			c5.06-1.81,10.31-2.74,15.67-2.77c13.3-0.07,26.6-0.02,39.9-0.02C193.97,8.43,194.22,8.47,194.68,8.51z M134.7,48.21
			c0.07,8.45,6.4,14.92,14.77,15.02c8.92,0.1,17.85,0.12,26.77-0.05c2.11-0.04,4.32-0.68,6.27-1.52c2.54-1.09,3.47-3.4,3.45-6.15
			c-0.02-2.71-1.09-4.86-3.59-5.84c-1.98-0.78-4.19-1.38-6.3-1.4c-13.23-0.12-26.45-0.06-39.68-0.06
			C135.83,48.21,135.27,48.21,134.7,48.21z"/>
		<path d="M248.99,231.74c-4.9,0-9.58,0-14.52,0c0-18.12,0-36.18,0-54.51c-6.77,0-13.29,0-19.87,0c0-4.21,0-8.17,0-12.23
			c11.5,0,22.91,0,34.4,0C248.99,187.27,248.99,209.41,248.99,231.74z"/>
		<path d="M110.77,62.11c0,4.37,0,8.65,0,13.11c-4.89,0-9.78,0-14.81,0c0-4.37,0-8.7,0-13.11
			C100.93,62.11,105.79,62.11,110.77,62.11z"/>
	</g>
</g>
</svg>
