<?xml version="1.0" encoding="utf-8"?>
<!-- Generator: Adobe Illustrator 25.2.1, SVG Export Plug-In . SVG Version: 6.00 Build 0)  -->
<svg version="1.1" id="Layer_1" xmlns="http://www.w3.org/2000/svg" xmlns:xlink="http://www.w3.org/1999/xlink" x="0px" y="0px"
	 viewBox="0 0 200 118" style="enable-background:new 0 0 200 118;" xml:space="preserve">
<g>
	<g>
		<path d="M6.2,71c0-7.8,0-15.3,0-22.9c27.9,0,55.8,0,83.8,0c0-15.3,0-30.5,0-45.8c6.2,0,12.3,0,18.6,0c0,15.2,0,30.4,0,45.8
			c28,0,55.9,0,83.8,0c0,7.6,0,15.2,0,22.9c-27.9,0-55.8,0-83.8,0c0,15.4,0,30.6,0,45.8c-6.2,0-12.3,0-18.5,0c0-15.2,0-30.4,0-45.7
			C62.1,71,34.3,71,6.2,71z"/>
		<path d="M171.3,116.8c-18.7,0-37.4,0-56.2,0c0-11.6,0-23.1,0-34.9c18.9,11.6,37.6,23.1,56.4,34.7
			C171.3,116.6,171.3,116.7,171.3,116.8z"/>
		<path d="M83.7,116.8c-18.8,0-37.5,0-56.2,0c0-0.1-0.1-0.2-0.1-0.2c18.7-11.5,37.5-23,56.3-34.6C83.7,93.6,83.7,105.1,83.7,116.8z"
			/>
		<path d="M115,2.3c18.8,0,37.5,0,56.2,0c0,0.1,0.1,0.1,0.1,0.2c-18.7,11.5-37.4,23-56.3,34.6C115,25.4,115,13.9,115,2.3z"/>
		<path d="M83.8,2.3c0,11.6,0,23.1,0,34.8C64.9,25.5,46.2,14,27.2,2.3C46.2,2.3,64.9,2.3,83.8,2.3z"/>
		<path d="M6.6,116.6c3-1.9,6-3.7,9.1-5.6c17.2-10.6,34.4-21.2,51.6-31.7c0.7-0.4,1.6-0.7,2.4-0.7c4-0.1,8,0,12.3,0
			c-0.4,0.3-0.6,0.5-0.8,0.7c-20.2,12.4-40.4,24.8-60.6,37.3c-0.3,0.2-0.6,0.3-0.9,0.3c-4.3,0-8.6,0-12.9,0
			C6.7,116.8,6.6,116.7,6.6,116.6z"/>
		<path d="M47.3,78.7C33.5,87.2,20,95.5,6.3,103.9c0-8.5,0-16.8,0-25.2C19.9,78.7,33.4,78.7,47.3,78.7z"/>
		<path d="M192.5,103.9c-13.7-8.4-27.2-16.8-41.1-25.3c13.9,0,27.5,0,41.1,0C192.5,87,192.5,95.3,192.5,103.9z"/>
		<path d="M192.3,2.4c-3.9,2.4-7.5,4.7-11.2,6.9c-16.5,10.1-33,20.3-49.6,30.4c-0.7,0.4-1.6,0.7-2.4,0.7c-4,0.1-8,0-12.1-0.2
			c0.3-0.2,0.6-0.4,1-0.6c20-12.3,40-24.6,60-36.9c0.4-0.3,0.9-0.5,1.4-0.5c4.1,0,8.2,0,12.3,0C191.8,2.2,191.9,2.2,192.3,2.4z"/>
		<path d="M47.4,40.3c-13.9,0-27.4,0-41.1,0c0-8.3,0-16.7,0-25.3C20,23.5,33.5,31.8,47.4,40.3z"/>
		<path d="M192.5,40.3c-13.7,0-27.2,0-41.1,0c13.9-8.5,27.4-16.8,41.1-25.3C192.5,23.6,192.5,31.9,192.5,40.3z"/>
		<path d="M67.8,40.4c-3.4,0-6.9-0.1-10.3,0c-2.3,0.1-4.2-0.5-6.1-1.7C36.7,29.5,22,20.5,7.2,11.4C6.5,11,6.1,10.5,6.2,9.6
			c0.1-2.4,0-4.7,0-7.4c20.7,12.7,41.2,25.3,61.7,37.9C67.9,40.2,67.8,40.3,67.8,40.4z"/>
		<path d="M192.6,116.8c-20.7-12.7-41.2-25.3-61.6-37.9c0-0.1,0-0.2,0-0.3c0.4,0,0.8,0,1.2,0c3.7,0,7.4,0,11.1,0
			c0.7,0,1.4,0.2,2,0.6c15.5,9.5,30.9,19,46.3,28.4c0.8,0.5,1,1,1,1.9C192.6,111.8,192.6,114.1,192.6,116.8z"/>
	</g>
</g>
</svg>
