<?xml version="1.0" encoding="utf-8"?>
<!-- Generator: Adobe Illustrator 25.2.1, SVG Export Plug-In . SVG Version: 6.00 Build 0)  -->
<svg version="1.1" id="Layer_1" xmlns="http://www.w3.org/2000/svg" xmlns:xlink="http://www.w3.org/1999/xlink" x="0px" y="0px"
	 viewBox="0 0 250 250" style="enable-background:new 0 0 250 250;" xml:space="preserve">
<g>
	<g>
		<path d="M76.11,51.02c1.08,0.29,2.93,0.71,4.73,1.29c1.46,0.47,2.85,1.15,4.27,1.73c2.26,0.93,2.28,0.95,3.74-0.91
			c3.72-4.74,7.93-8.98,12.76-12.58c1-0.74,1.08-1.4,0.62-2.5c-1.14-2.73-2.5-5.45-3.1-8.31c-1.22-5.86,1.92-11.24,7.63-13.69
			c3.7-1.59,7.42-3.12,11.18-4.58c7.01-2.72,13.66,0.11,16.61,7.02c0.79,1.85,1.56,3.71,2.29,5.59c0.33,0.85,0.78,1.22,1.79,1.09
			c6.45-0.88,12.9-0.9,19.35,0c0.99,0.14,1.44-0.21,1.79-1.08c0.84-2.12,1.66-4.25,2.65-6.29c3.14-6.47,9.59-8.99,16.25-6.34
			c3.79,1.51,7.55,3.08,11.29,4.71c6.64,2.9,9.4,9.58,6.8,16.33c-0.76,1.98-1.58,3.93-2.45,5.86c-0.39,0.86-0.35,1.41,0.45,2.01
			c5.19,3.92,9.71,8.54,13.69,13.67c0.67,0.86,1.26,0.82,2.18,0.45c2.59-1.06,5.18-2.19,7.87-2.96c4.98-1.42,10.79,0.79,13.1,5.43
			c2.49,5,4.66,10.22,6.4,15.54c1.66,5.07-1,10.71-5.7,13.27c-2.18,1.18-4.49,2.16-6.83,2.99c-1.57,0.56-1.85,1.39-1.75,2.95
			c0.28,4.28,0.4,8.57,0.46,12.86c0.02,1.79-0.24,3.6-0.47,5.38c-0.15,1.16,0.29,1.72,1.35,2.12c2.12,0.82,4.26,1.65,6.28,2.68
			c6.17,3.14,8.63,9.36,6.18,15.81c-1.5,3.96-3.13,7.88-4.9,11.73c-3.11,6.72-9.68,9.23-16.58,6.48c-1.87-0.75-3.74-1.5-5.58-2.31
			c-0.87-0.38-1.46-0.27-2.05,0.5c-3.98,5.21-8.6,9.79-13.78,13.81c-0.36,0.28-0.55,1.21-0.38,1.69c0.75,2.15,1.72,4.22,2.5,6.36
			c2.36,6.43,0.03,12.69-6.16,15.63c-4.53,2.16-9.24,4.01-13.98,5.66c-4.88,1.7-11.09-0.83-13.5-5.56
			c-2.08-4.09-3.75-8.41-5.4-12.71c-0.9-2.33,0.3-4.75,2.44-5.74c2.25-1.04,4.83-0.39,6,1.96c1.59,3.16,2.83,6.5,4.22,9.76
			c0.17,0.39,0.31,0.79,0.48,1.17c0.84,1.83,2.26,2.47,4.15,1.72c3.74-1.49,7.46-3.02,11.17-4.59c1.84-0.78,2.41-2.13,1.68-4
			c-1.25-3.21-2.59-6.38-3.9-9.56c-1.33-3.21-0.91-5.21,1.95-7.19c6.87-4.78,12.64-10.6,17.43-17.46c1.82-2.6,3.81-3.05,6.82-1.84
			c3.15,1.27,6.27,2.58,9.42,3.84c2.37,0.95,3.65,0.39,4.65-1.99c1.41-3.37,2.82-6.74,4.22-10.12c1.02-2.47,0.53-3.8-1.88-4.85
			c-3.01-1.31-6.07-2.52-9.1-3.78c-3.28-1.37-4.28-3.27-3.68-6.79c1.34-7.85,1.5-15.7,0.01-23.56c-0.71-3.76,0.23-5.5,3.77-7
			c2.98-1.26,5.97-2.46,8.96-3.7c2.42-1.01,2.97-2.37,1.96-4.79c-1.42-3.42-2.82-6.86-4.25-10.27c-0.98-2.33-2.31-2.87-4.69-1.9
			c-2.94,1.2-5.88,2.42-8.81,3.64c-3.5,1.46-5.52,0.96-7.68-2.15c-4.63-6.64-10.28-12.24-16.91-16.86
			c-2.96-2.06-3.48-3.95-2.13-7.25c1.25-3.04,2.54-6.06,3.78-9.09c0.98-2.38,0.45-3.74-1.86-4.73c-3.46-1.48-6.93-2.93-10.41-4.35
			c-2.45-1-3.69-0.43-4.73,2.06c-1.24,2.98-2.48,5.97-3.74,8.95c-1.36,3.24-2.84,4.24-6.29,3.73c-5.9-0.88-11.8-1.36-17.75-0.88
			c-2.48,0.2-4.93,0.67-7.41,0.94c-3,0.33-4.56-0.59-5.75-3.38c-1.35-3.17-2.63-6.36-4-9.52c-1.04-2.39-2.27-2.88-4.68-1.9
			c-3.43,1.4-6.86,2.81-10.28,4.25c-2.39,1.01-2.95,2.38-1.95,4.83c1.22,2.99,2.5,5.96,3.73,8.95c1.36,3.32,0.86,5.24-2.07,7.28
			c-6.69,4.65-12.36,10.29-17.02,16.98c-2.1,3.01-4.15,3.51-7.57,2.08c-2.93-1.22-5.87-2.44-8.81-3.64c-2.47-1-3.78-0.47-4.8,1.96
			c-1.44,3.42-2.87,6.84-4.29,10.27c-0.96,2.33-0.39,3.71,1.94,4.69c3.18,1.33,6.39,2.58,9.54,3.97c3.51,1.55,4.5,4.66,2.48,7.45
			c-1.19,1.64-3.41,2.32-5.56,1.49c-3.61-1.39-7.22-2.79-10.73-4.41c-6.84-3.17-9.33-9.69-6.49-16.7c1.45-3.58,2.95-7.15,4.48-10.7
			C65.92,54.05,69.74,51.32,76.11,51.02z"/>
		<path d="M72.59,104.34c2.56,0.29,5.18,0.32,7.66,0.93c3.87,0.94,6.41,4.28,6.75,8.31c0.12,1.42,0.2,2.85,0.16,4.28
			c-0.03,1.23,0.38,1.85,1.61,2.31c3.52,1.3,7.03,2.66,10.41,4.27c1.37,0.65,2.06,0.36,3-0.54c1.44-1.38,2.85-2.92,4.55-3.89
			c3.83-2.19,8.56-1.34,11.69,1.78c2.18,2.17,4.35,4.34,6.51,6.53c3.86,3.93,3.8,9.41-0.14,14c-1.06,1.24-2.85,2.35-3.04,3.69
			c-0.19,1.35,1.27,2.9,1.89,4.4c1.02,2.5,1.99,5.02,2.89,7.56c0.33,0.93,0.77,1.4,1.81,1.38c1.59-0.04,3.2-0.13,4.77,0.09
			c5.17,0.73,8.32,4.09,8.82,9.87c0.3,3.41,0.23,6.91-0.17,10.31c-0.61,5.19-4.12,8.28-9.31,8.79c-0.37,0.04-0.74,0.04-1.11,0.05
			c-4.4,0.07-4.29,0.11-5.75,4.16c-1.02,2.83-2.33,5.55-3.64,8.26c-0.46,0.96-0.29,1.47,0.37,2.21c1.57,1.76,3.33,3.46,4.46,5.49
			c1.84,3.3,1.4,6.83-0.96,9.67c-2.59,3.12-5.48,6.06-8.57,8.7c-3.68,3.13-8.89,2.74-12.5-0.51c-1.06-0.96-2.08-1.96-3.09-2.97
			c-0.65-0.66-1.25-0.69-2.12-0.3c-3.62,1.61-7.26,3.18-10.95,4.61c-1.06,0.41-1.28,0.9-1.36,1.94c-0.18,2.4-0.23,4.9-0.94,7.16
			c-1.2,3.81-4.58,6-8.61,6.06c-3.45,0.05-6.9-0.04-10.34,0.03c-4.38,0.08-8.5-3.67-9.14-8.18c-0.23-1.67-0.27-3.38-0.29-5.07
			c-0.01-1.05-0.35-1.56-1.38-1.97c-3.68-1.45-7.32-3.02-10.95-4.61c-0.88-0.39-1.46-0.27-2.11,0.39c-1.11,1.13-2.22,2.29-3.46,3.27
			c-4.02,3.19-9.34,2.94-13.04-0.58c-2.23-2.12-4.4-4.3-6.53-6.51c-4.04-4.21-4.04-10-0.04-14.24c0.54-0.58,1.03-1.25,1.67-1.69
			c1.58-1.07,1.55-2.16,0.74-3.83c-1.58-3.27-2.86-6.69-4.19-10.08c-0.39-0.99-0.92-1.43-1.99-1.41c-1.43,0.02-2.86-0.07-4.29-0.15
			c-5.31-0.31-8.78-4.32-9.12-9.5c-0.24-3.63-0.12-7.32,0.22-10.95c0.44-4.67,4.57-8.28,9.27-8.49c1.38-0.06,2.76-0.06,4.14,0
			c0.98,0.05,1.4-0.43,1.74-1.26c1.56-3.81,3.22-7.57,4.72-11.4c0.19-0.49-0.1-1.4-0.48-1.86c-1.1-1.35-2.45-2.49-3.52-3.86
			c-2.75-3.52-2.55-8.87,0.48-12.16c2.26-2.45,4.6-4.84,7.04-7.12c4.36-4.07,10.36-3.83,14.49,0.48c2.87,2.99,2.83,2.9,6.51,1.26
			c2.79-1.25,5.68-2.29,8.57-3.29c1.09-0.38,1.44-0.92,1.51-2.05c0.14-2.3,0.13-4.71,0.82-6.86c1.37-4.23,5.18-6.63,9.65-6.63
			c1.38,0,2.76,0,4.14,0C72.57,104.51,72.58,104.43,72.59,104.34z M18.02,168.12c0,0,0-0.01,0-0.01c-1.27,0-2.55,0.05-3.82-0.01
			c-1.4-0.06-2.12,0.56-2.14,1.93c-0.03,2.6-0.02,5.2,0,7.79c0.01,1.32,0.69,1.87,2.02,1.84c2.28-0.05,4.56-0.03,6.84-0.01
			c2.83,0.02,4.78,1.27,5.24,3.71c1.14,5.91,3.57,11.26,6.64,16.38c1.78,2.97,1.36,4.77-1.25,7.12c-1.49,1.34-2.89,2.79-4.31,4.22
			c-0.92,0.93-1.09,1.84-0.02,2.86c1.76,1.68,3.47,3.42,5.15,5.19c1.07,1.13,1.96,1.15,3.06,0c1.68-1.76,3.39-3.51,5.23-5.1
			c2.03-1.76,3.73-1.93,5.94-0.49c5.13,3.32,10.66,5.58,16.6,6.94c2.34,0.54,3.44,2.1,3.51,4.48c0.07,2.44,0.21,4.88,0.17,7.31
			c-0.02,1.5,0.55,2.15,2.03,2.15c2.44,0.01,4.88,0.1,7.32,0.09c1.69,0,2.25-0.61,2.27-2.34c0.03-2.44,0-4.88,0.03-7.32
			c0.03-2.24,1.32-3.89,3.44-4.36c5.78-1.27,11.22-3.35,16.23-6.57c2.95-1.89,4.73-1.61,7.21,0.84c1.55,1.53,3.1,3.05,4.58,4.64
			c0.92,0.99,1.73,1.04,2.68,0.08c1.86-1.89,3.73-3.77,5.61-5.63c0.82-0.81,0.76-1.49-0.06-2.29c-1.67-1.62-3.29-3.3-4.92-4.97
			c-2.17-2.22-2.43-4.21-0.78-6.84c3.12-4.98,5.38-10.29,6.54-16.07c0.52-2.59,2.1-3.71,4.75-3.75c2.49-0.04,4.98-0.11,7.47-0.16
			c1.5-0.03,2.02-0.88,2-2.28c-0.04-2.33-0.01-4.67-0.05-7c-0.03-1.78-0.51-2.27-2.29-2.31c-2.23-0.05-4.46-0.11-6.68-0.02
			c-3.61,0.15-4.69-1.75-5.24-4.18c-1.29-5.68-3.51-10.95-6.63-15.87c-1.5-2.37-1.26-4.43,0.7-6.45c1.66-1.71,3.33-3.42,5.04-5.07
			c0.86-0.83,0.98-1.57,0.11-2.43c-1.92-1.9-3.85-3.8-5.75-5.72c-0.89-0.9-1.6-0.71-2.42,0.13c-1.66,1.71-3.36,3.38-5.09,5.02
			c-1.99,1.88-4.14,2.1-6.5,0.65c-5.09-3.12-10.46-5.51-16.37-6.65c-2.27-0.44-3.56-2.22-3.59-4.58c-0.03-2.33-0.01-4.67-0.06-7
			c-0.04-2.07-0.52-2.56-2.54-2.58c-2.17-0.03-4.35-0.03-6.52-0.01c-2.06,0.02-2.62,0.56-2.67,2.68c-0.05,2.28,0.01,4.56-0.02,6.84
			c-0.03,2.54-1.32,4.2-3.83,4.71c-5.84,1.18-11.18,3.52-16.22,6.65c-2.36,1.47-4.48,1.22-6.46-0.74c-1.73-1.72-3.44-3.46-5.13-5.21
			c-0.79-0.82-1.5-0.83-2.31-0.02c-1.83,1.84-3.66,3.68-5.55,5.47c-1.11,1.05-1.01,1.92,0.07,2.93c1.66,1.56,3.29,3.16,4.84,4.83
			c2.06,2.21,2.23,4.03,0.62,6.59c-3.15,5.03-5.39,10.41-6.6,16.23c-0.49,2.36-2.25,3.7-4.66,3.75
			C20.35,168.14,19.18,168.12,18.02,168.12z"/>
		<path d="M186.98,98.92c-0.17,19.97-12.8,35.62-30.75,39.36c-2.77,0.58-5.68,0.67-8.52,0.59c-2.34-0.06-4.02-2.29-3.98-4.58
			c0.05-2.31,1.75-4.34,4.09-4.56c3.75-0.37,7.48-0.72,11.02-2.2c9.9-4.15,16.1-11.4,18-21.97c2.66-14.73-5.83-28.46-20.11-32.97
			c-14.49-4.58-30.63,3.32-35.67,17.6c-0.99,2.81-1.3,5.86-1.89,8.8c-0.25,1.24-0.19,2.58-0.65,3.73c-0.83,2.07-3.08,3.05-5.27,2.56
			c-2.07-0.46-3.57-2.23-3.65-4.46c-0.16-4.01,0.42-7.95,1.7-11.74c4.72-14.04,14.28-23.18,28.73-26.26
			c15.64-3.33,28.78,1.66,38.86,14.13C184.38,83.76,186.85,91.71,186.98,98.92z"/>
		<path d="M100.45,174.67c-0.45,15.47-12.89,27.31-28.1,27.14c-16.36-0.19-27.95-13.69-27.58-28.27
			c0.42-16.36,13.33-27.8,28.3-27.42C89.52,146.54,100.68,159.57,100.45,174.67z M72.68,192.83c10.26,0.31,18.96-7.98,19-18.59
			c0.04-10.94-8.08-19.27-19.12-19.28c-10.91-0.01-18.88,8.53-18.97,19.22C53.5,183.97,62.28,193.42,72.68,192.83z"/>
	</g>
</g>
</svg>
