<?xml version="1.0" encoding="utf-8"?>
<!-- Generator: Adobe Illustrator 25.2.1, SVG Export Plug-In . SVG Version: 6.00 Build 0)  -->
<svg version="1.1" id="Layer_1" xmlns="http://www.w3.org/2000/svg" xmlns:xlink="http://www.w3.org/1999/xlink" x="0px" y="0px"
	 viewBox="0 0 323 269" style="enable-background:new 0 0 323 269;" xml:space="preserve">
<style type="text/css">
	.st0{display:none;}
	.st1{display:inline;}
	.st2{fill:none;stroke:#000000;stroke-width:6;stroke-linecap:round;stroke-miterlimit:10;}
	.st3{fill:none;stroke:#000000;stroke-width:4;stroke-linecap:round;stroke-miterlimit:10;}
	.st4{stroke:#000000;stroke-miterlimit:10;}
</style>
<g id="Layer_1_1_" class="st0">
	<g class="st1">
		<g>
			<path d="M132.43,36.41c1.19-8.79,4.83-15.85,11.49-21.17c17.83-14.22,44.27-4.71,48.87,17.65c0.57,2.76,1.48,3.71,4.37,3.58
				c5.83-0.26,11.67-0.11,17.51-0.07c13.81,0.09,24.25,10.44,24.29,24.25c0.07,22.17,0.02,44.34,0.02,66.5c0,1.15,0,2.31,0,3.69
				c6.58,0,12.78,0,18.99,0c5.54,0,11.09-0.07,16.63,0.02c5.87,0.1,10.17,4.28,10.18,10.16c0.06,33.55,0.04,67.1,0.02,100.65
				c0,3.26-1.41,4.55-4.84,4.57c-11.28,0.04-22.56,0.02-33.85,0.02c-65.81,0-131.62,0-197.43,0c-1.29,0-2.57,0.01-3.86-0.01
				c-4.24-0.05-5.39-1.21-5.39-5.54c-0.01-30.88,0-61.75,0-92.63c0-2.28-0.04-4.55,0.01-6.83c0.15-6.22,4.31-10.37,10.56-10.4
				c11.57-0.05,23.15-0.02,35.26-0.02c0-1.2,0-2.33,0-3.46c0-21.97-0.01-43.94,0-65.91c0.01-14.8,10.13-24.98,24.96-25.07
				C117.53,36.37,124.84,36.41,132.43,36.41z M136.39,238.35c0-1.53,0-2.8,0-4.07c0-18.5-0.01-37,0.01-55.5
				c0-4.49,1.15-5.64,5.61-5.65c13.26-0.01,26.52-0.01,39.77,0c5.05,0,6.08,1.03,6.08,6.08c0.01,18.5,0,37,0,55.5
				c0,1.16,0,2.31,0,3.58c14.64,0,28.91,0,43.29,0c0.06-1.11,0.14-1.98,0.14-2.86c0.01-58.08,0.02-116.15,0.01-174.23
				c0-10.21-6.9-17.09-17.15-17.2c-6.03-0.06-12.07,0.04-18.1-0.05c-1.98-0.03-2.91,0.49-3.45,2.61
				c-3.54,13.9-15.6,23.25-29.67,23.22c-14.06-0.02-26.07-9.44-29.58-23.34c-0.48-1.91-1.3-2.54-3.22-2.51
				c-6.43,0.1-12.86,0.01-19.29,0.05c-11.22,0.05-17.91,6.75-17.91,17.94c0,57.68,0.01,115.36,0.01,173.04c0,1.06,0,2.12,0,3.37
				C107.5,238.35,121.7,238.35,136.39,238.35z M53.78,238.37c0-1.33,0-2.49,0-3.65c0-14.44-0.01-28.89,0.01-43.33
				c0-4.22,1.08-5.32,5.21-5.34c4.75-0.02,9.5-0.02,14.25,0c4.33,0.03,5.37,1.1,5.38,5.5c0.01,14.54,0,29.09,0.01,43.63
				c0,1.05,0,2.1,0,3.13c2.42,0,4.42,0,6.5,0c0.05-0.72,0.12-1.2,0.12-1.69c0.01-31.46-0.01-62.92,0.03-94.38
				c0-2.67-1.04-3.72-3.7-3.7c-10.19,0.07-20.38,0.01-30.57,0.04c-3.4,0.01-3.86,0.51-3.86,4.06c-0.01,31.06,0,62.13,0.01,93.19
				c0,0.85,0.13,1.7,0.19,2.54C49.56,238.37,51.5,238.37,53.78,238.37z M245.61,238.41c0-1.39,0-2.46,0-3.53
				c0-14.34-0.01-28.69,0-43.03c0-4.81,0.97-5.79,5.67-5.81c4.55-0.01,9.1-0.01,13.65,0c4.56,0.01,5.52,0.98,5.52,5.62
				c0.01,14.34,0.01,28.69,0.01,43.03c0,1.16,0,2.32,0,3.64c2.35,0,4.35,0,6.49,0c0.06-0.87,0.14-1.54,0.14-2.21
				c0.01-31.26-0.01-62.52,0.04-93.78c0.01-2.85-1.13-3.84-3.89-3.81c-9.89,0.09-19.79,0.03-29.68,0.04c-4.29,0-4.57,0.28-4.57,4.55
				c0,30.77,0,61.53,0,92.3c0,0.96,0.09,1.91,0.15,2.99C241.32,238.41,243.26,238.41,245.61,238.41z M144.29,180.96
				c0,19.34,0,38.35,0,57.35c12.04,0,23.84,0,35.67,0c0-19.23,0-38.24,0-57.35C167.99,180.96,156.25,180.96,144.29,180.96z
				 M163.19,16.28c-12.8-0.05-23.15,10.17-23.14,22.84c0.01,12.62,10.17,22.88,22.75,22.96c12.76,0.08,23.13-10.18,23.12-22.86
				C185.9,26.58,175.75,16.33,163.19,16.28z M70.93,238.34c0-3.61,0-7.04,0-10.47c0-10.48,0.04-20.95-0.06-31.43
				c-0.01-0.91-0.8-2.52-1.37-2.58c-2.59-0.28-5.22-0.12-7.86-0.12c0,15.17,0,29.84,0,44.61C64.76,238.34,67.67,238.34,70.93,238.34
				z M262.62,238.41c0-15,0-29.68,0-44.71c-2.23,0-4.29,0.13-6.33-0.04c-2.33-0.19-3.04,0.64-3.03,2.99
				c0.1,13.05,0.04,26.1,0.06,39.14c0,0.85,0.14,1.7,0.22,2.61C256.66,238.41,259.5,238.41,262.62,238.41z"/>
			<path d="M190.67,163.66c-5.44,0-10.88,0.02-16.32-0.01c-3.87-0.02-5.07-1.12-5.09-4.87c-0.05-8.41-0.04-16.81,0-25.22
				c0.02-3.73,1.27-4.93,5.04-4.94c10.88-0.02,21.76-0.02,32.64,0c3.84,0.01,5.13,1.29,5.15,5.19c0.04,8.21,0.03,16.42,0,24.63
				c-0.01,4.02-1.27,5.2-5.4,5.21C201.35,163.67,196.01,163.66,190.67,163.66z M177.03,155.62c0.46,0.15,0.74,0.32,1.01,0.32
				c8.1,0.03,16.2,0,24.3,0.08c1.88,0.02,2.04-1,2.03-2.44c-0.03-5.04,0-10.08-0.04-15.12c-0.01-0.71-0.29-1.41-0.4-1.91
				c-9.2,0-18.03,0-26.91,0C177.03,143.1,177.03,149.38,177.03,155.62z"/>
			<path d="M133.71,79.3c5.34,0,10.68-0.02,16.02,0.01c4.01,0.02,5.22,1.14,5.24,5.05c0.04,8.41,0.05,16.81,0,25.22
				c-0.02,3.58-1.26,4.79-4.88,4.8c-10.98,0.04-21.95,0.04-32.93,0c-3.68-0.01-5-1.34-5.02-5.04c-0.04-8.31-0.04-16.61,0-24.92
				c0.02-3.82,1.36-5.1,5.24-5.11C122.84,79.28,128.27,79.3,133.71,79.3z M147.41,106.58c0-6.15,0.06-11.97-0.09-17.77
				c-0.02-0.61-1.27-1.69-1.96-1.7c-7.81-0.12-15.61-0.11-23.42-0.01c-0.68,0.01-1.92,0.92-1.93,1.43
				c-0.14,5.99-0.09,11.98-0.09,18.06C129.23,106.58,138.1,106.58,147.41,106.58z"/>
			<path d="M133.61,163.66c-5.44,0-10.88,0.02-16.32-0.01c-3.86-0.02-5.13-1.27-5.15-5.18c-0.04-8.21-0.03-16.42,0-24.63
				c0.02-3.89,1.33-5.22,5.13-5.23c10.88-0.02,21.76-0.02,32.64,0c3.81,0.01,5.05,1.17,5.07,4.91c0.04,8.41,0.04,16.81-0.01,25.22
				c-0.02,3.81-1.18,4.89-5.04,4.91C144.49,163.68,139.05,163.66,133.61,163.66z M120.11,155.77c9.15,0,18.08,0,27.14,0
				c0-6.51,0-12.79,0-19.27c-9.1,0-18.02,0-27.14,0C120.11,142.99,120.11,149.35,120.11,155.77z"/>
			<path d="M190.82,79.3c5.44,0,10.88-0.02,16.32,0.01c3.52,0.02,4.92,1.31,4.94,4.8c0.06,8.5,0.06,17.01,0.01,25.51
				c-0.02,3.34-1.4,4.73-4.7,4.74c-11.17,0.05-22.35,0.05-33.52,0c-3.27-0.01-4.55-1.27-4.58-4.49c-0.06-8.7-0.07-17.4,0-26.11
				c0.03-3.17,1.4-4.42,4.62-4.45C179.55,79.27,185.19,79.31,190.82,79.3z M204.16,106.57c0-6.48,0-12.84,0-19.55
				c-5.22,0-10.24-0.06-15.25,0.02c-3.91,0.06-7.83,0.28-11.74,0.43c-0.11,3.83-0.25,7.66-0.33,11.48
				c-0.05,2.52-0.01,5.04-0.01,7.62C186.2,106.57,195.08,106.57,204.16,106.57z"/>
			<path d="M166.77,43.05c0,3.52,0.03,6.66-0.01,9.8c-0.03,3-1.4,4.74-3.67,4.81c-2.4,0.07-3.86-1.7-3.9-4.88
				c-0.05-3.14-0.01-6.27-0.01-9.73c-3.5,0-6.64,0.03-9.77-0.01c-3.17-0.04-4.86-1.46-4.8-3.96c0.06-2.38,1.66-3.69,4.72-3.74
				c3.14-0.05,6.28-0.01,9.87-0.01c0-3.64-0.01-6.97,0-10.3c0.01-2.09,0.77-3.66,2.98-4.18c2.49-0.58,4.47,1.09,4.56,4.03
				c0.1,3.33,0.02,6.67,0.02,10.44c3.38,0,6.4-0.02,9.42,0.01c3.43,0.03,5.25,1.39,5.23,3.87c-0.02,2.49-1.83,3.83-5.25,3.85
				C173.21,43.07,170.25,43.05,166.77,43.05z"/>
		</g>
	</g>
</g>
<g id="Layer_2_1_">
	<circle class="st2" cx="162.97" cy="38.11" r="27.07"/>
	<path class="st3" d="M174.79,33.89h-6.75c-0.47,0-0.85-0.38-0.85-0.85v-6.75c0-0.47-0.38-0.85-0.85-0.85h-6.75
		c-0.47,0-0.85,0.38-0.85,0.85v6.75c0,0.47-0.38,0.85-0.85,0.85h-6.75c-0.47,0-0.85,0.38-0.85,0.85v6.75c0,0.47,0.38,0.85,0.85,0.85
		h6.75c0.47,0,0.85,0.38,0.85,0.85v6.75c0,0.47,0.38,0.85,0.85,0.85h6.75c0.47,0,0.85-0.38,0.85-0.85v-6.75
		c0-0.47,0.38-0.85,0.85-0.85h6.75c0.47,0,0.85-0.38,0.85-0.85v-6.75C175.65,34.27,175.26,33.89,174.79,33.89z"/>
	<line class="st2" x1="8.97" y1="242.8" x2="315.56" y2="242.8"/>
	<path class="st2" d="M42.72,242.39v-97.74c0-5.57,4.48-10.08,10-10.08h33.67"/>
	<path class="st2" d="M57.45,242.8v-49.97c0-1.68,1.36-3.04,3.04-3.04h11.62c1.68,0,3.04,1.36,3.04,3.04v48.72"/>
	<path class="st2" d="M135.9,40.06H98.76c-5.52,0-10,4.43-10,9.9v191.31"/>
	<path class="st2" d="M139.77,242.49v-60.18c0-2.76,2.24-5,5-5h34.94c2.76,0,5,2.24,5,5v60.59"/>
	<circle class="st4" cx="171.96" cy="204.23" r="5.06"/>
	<path class="st2" d="M148.25,109.94h-29.12c-1.66,0-3-1.34-3-3V86.52c0-1.66,1.34-3,3-3h29.12c1.66,0,3,1.34,3,3v20.42
		C151.25,108.6,149.91,109.94,148.25,109.94z"/>
	<path class="st2" d="M148.25,159.17h-29.12c-1.66,0-3-1.34-3-3v-20.42c0-1.66,1.34-3,3-3h29.12c1.66,0,3,1.34,3,3v20.42
		C151.25,157.83,149.91,159.17,148.25,159.17z"/>
	<path class="st2" d="M281.65,242.39v-97.74c0-5.57-4.48-10.08-10-10.08h-33.67"/>
	<path class="st2" d="M266.92,242.8v-49.97c0-1.68-1.36-3.04-3.04-3.04h-11.62c-1.68,0-3.04,1.36-3.04,3.04v48.72"/>
	<path class="st2" d="M191.3,40.06h34.31c5.52,0,10,4.43,10,9.9v191.31"/>
	<path class="st2" d="M176.11,109.94h29.12c1.66,0,3-1.34,3-3V86.52c0-1.66-1.34-3-3-3h-29.12c-1.66,0-3,1.34-3,3v20.42
		C173.11,108.6,174.45,109.94,176.11,109.94z"/>
	<path class="st2" d="M176.11,159.17h29.12c1.66,0,3-1.34,3-3v-20.42c0-1.66-1.34-3-3-3h-29.12c-1.66,0-3,1.34-3,3v20.42
		C173.11,157.83,174.45,159.17,176.11,159.17z"/>
</g>
</svg>
