<?xml version="1.0" encoding="utf-8"?>
<!-- Generator: Adobe Illustrator 25.2.1, SVG Export Plug-In . SVG Version: 6.00 Build 0)  -->
<svg version="1.1" id="Layer_1" xmlns="http://www.w3.org/2000/svg" xmlns:xlink="http://www.w3.org/1999/xlink" x="0px" y="0px"
	 viewBox="0 0 390 140" style="enable-background:new 0 0 390 140;" xml:space="preserve">
<style type="text/css">
	.st0{opacity:0.2;fill:#7D9A96;}
</style>
<polygon class="st0" points="7.98,8.62 69.52,70.16 7.98,131.69 324.87,131.69 386.4,70.16 324.87,8.62 "/>
<g>
	<g>
		<path d="M254.76,72.76c-0.04-0.71-0.02-1.37-0.14-2.01c-0.21-1.14-1-1.75-2.17-1.77c-1.13-0.02-2.26,0-3.38,0
			c-4.65,0-9.3,0-13.95,0c-0.18,0-0.36,0-0.58,0c0-1.72,0-3.42,0-5.19c0.17,0,0.33,0,0.49,0c6.36,0,12.73,0,19.09,0
			c1.16,0,2.31,0.16,3.4,0.63c1.83,0.78,2.72,2.36,3.1,4.32c0.13,0.64,0.19,1.31,0.19,1.97c0.01,5.27,0.01,10.53,0.01,15.8
			c0,0.11,0,0.22,0,0.4c-0.18,0-0.34,0-0.5,0c-7.34,0-14.68,0.02-22.02-0.02c-0.96-0.01-1.95-0.23-2.86-0.55
			c-1.76-0.62-2.89-1.99-3.41-3.89c-0.45-1.66-0.47-3.35-0.05-5.02c0.65-2.56,2.3-3.97,4.67-4.45c0.67-0.14,1.37-0.2,2.06-0.2
			c5.14-0.02,10.29-0.01,15.43-0.01C254.32,72.76,254.5,72.76,254.76,72.76z M254.7,77.98c-0.15-0.01-0.27-0.03-0.39-0.03
			c-4.81,0-9.62-0.01-14.44,0c-1.35,0-2.1,1.2-1.65,2.61c0.26,0.83,0.78,1.2,1.8,1.2c4.78,0.01,9.56,0,14.35,0
			c0.1,0,0.2-0.02,0.33-0.04C254.7,80.48,254.7,79.26,254.7,77.98z"/>
		<path d="M205.9,77.82c0.38,1.73,1.18,3.06,2.72,3.64c0.85,0.32,1.79,0.49,2.69,0.49c5.42,0.04,10.83,0.02,16.25,0.02
			c0.18,0,0.36,0,0.56,0c0,1.73,0,3.44,0,5.19c-0.2,0-0.37,0-0.55,0c-5.46,0-10.92,0.01-16.38,0c-2,0-3.96-0.27-5.82-1.09
			c-3.39-1.49-5.29-4.23-5.84-8.08c-0.33-2.28-0.27-4.54,0.31-6.77c1-3.83,3.46-6.04,6.94-7.08c1.44-0.43,2.92-0.58,4.42-0.59
			c3.69-0.01,7.37-0.01,11.06,0.02c1.22,0.01,2.42,0.25,3.55,0.8c1.74,0.86,2.84,2.29,3.26,4.3c0.31,1.47,0.3,2.96-0.04,4.42
			c-0.59,2.52-2.2,3.9-4.49,4.4c-0.99,0.22-2.03,0.31-3.04,0.31c-4.99,0.03-9.99,0.01-14.98,0.01
			C206.31,77.82,206.13,77.82,205.9,77.82z M205.94,72.62c0.18,0.01,0.31,0.02,0.44,0.02c4.9,0,9.8,0,14.71,0
			c0.15,0,0.3-0.01,0.45-0.03c1.09-0.13,1.65-0.86,1.63-2.07c-0.02-1.14-0.53-1.68-1.66-1.78c-0.15-0.01-0.3-0.02-0.45-0.02
			c-3.2,0-6.41-0.02-9.61,0.01c-0.82,0.01-1.66,0.11-2.44,0.35C207.37,69.59,206.4,70.84,205.94,72.62z"/>
		<path d="M189.41,63.79c0-3.01,0-5.96,0-8.95c2.05,0,4.05,0,6.09,0c0,10.68,0,21.36,0,32.09c-0.18,0-0.34,0-0.5,0
			c-4.88,0-9.75,0-14.63,0c-2.26,0-4.47-0.24-6.56-1.25c-3.26-1.57-5.05-4.32-5.52-8.07c-0.28-2.28-0.21-4.55,0.49-6.75
			c1.08-3.42,3.4-5.42,6.54-6.43c1.41-0.45,2.86-0.64,4.32-0.64c3.04-0.01,6.08,0,9.12,0C188.95,63.79,189.14,63.79,189.41,63.79z
			 M189.39,81.76c0-4.3,0-8.52,0-12.78c-0.19,0-0.35,0-0.52,0c-2.93,0-5.87,0-8.8,0c-0.45,0-0.9,0.02-1.35,0.1
			c-1.97,0.34-3.35,1.46-3.94,3.55c-0.48,1.72-0.49,3.48-0.07,5.21c0.47,1.95,1.63,3.22,3.47,3.66c0.73,0.17,1.49,0.24,2.23,0.25
			c2.83,0.03,5.66,0.01,8.48,0.01C189.06,81.76,189.2,81.76,189.39,81.76z"/>
		<path d="M157.21,86.89c0-10.68,0-21.34,0-32.04c2.21,0,4.41,0,6.65,0c0,10.67,0,21.35,0,32.04
			C161.64,86.89,159.43,86.89,157.21,86.89z"/>
	</g>
</g>
</svg>
