<?xml version="1.0" encoding="utf-8"?>
<!-- Generator: Adobe Illustrator 25.2.1, SVG Export Plug-In . SVG Version: 6.00 Build 0)  -->
<svg version="1.1" id="Layer_1" xmlns="http://www.w3.org/2000/svg" xmlns:xlink="http://www.w3.org/1999/xlink" x="0px" y="0px"
	 viewBox="0 0 390 140" style="enable-background:new 0 0 390 140;" xml:space="preserve">
<style type="text/css">
	.st0{opacity:0.2;fill:#7D9A96;enable-background:new    ;}
</style>
<polygon class="st0" points="8,8.6 69.5,70.2 8,131.7 324.9,131.7 386.4,70.2 324.9,8.6 "/>
<g>
	<g>
		<path d="M147.3,88.8V53.2h5.6v35.5H147.3z"/>
		<path d="M158.6,75.8c0-2.5,0.5-4.7,1.5-6.8c1-2,2.4-3.6,4.2-4.9c1.8-1.2,3.8-1.8,6.1-1.8c2,0,3.9,0.5,5.5,1.5
			c1.6,1,2.9,2.3,3.7,3.8V52.2h5.5v30.3c0,0.6,0.1,1,0.4,1.3c0.2,0.3,0.6,0.4,1.1,0.5v4.4c-1,0.2-1.8,0.3-2.4,0.3
			c-1,0-1.9-0.3-2.6-0.9c-0.7-0.6-1.1-1.3-1.1-2.2l0-1.9c-1,1.6-2.4,2.9-4.1,3.8c-1.7,0.9-3.4,1.4-5.3,1.4c-1.8,0-3.5-0.4-5-1.1
			c-1.5-0.7-2.8-1.7-4-2.9c-1.1-1.2-2-2.7-2.6-4.3C158.9,79.4,158.6,77.7,158.6,75.8z M179.6,79.4v-6.8c-0.4-1.1-1-2-1.8-2.8
			c-0.8-0.8-1.7-1.5-2.8-2c-1-0.5-2-0.8-3.1-0.8c-1.1,0-2.2,0.2-3.1,0.7c-0.9,0.5-1.8,1.1-2.4,1.9c-0.7,0.8-1.2,1.7-1.6,2.8
			c-0.4,1.1-0.5,2.2-0.5,3.3s0.2,2.3,0.6,3.3c0.4,1.1,1,2,1.7,2.8s1.6,1.4,2.6,1.9c1,0.4,2.1,0.7,3.2,0.7c0.7,0,1.5-0.1,2.2-0.4
			c0.8-0.2,1.5-0.6,2.1-1.1c0.7-0.5,1.2-1,1.8-1.7S179.4,80.1,179.6,79.4z"/>
		<path d="M203.9,89.2c-2.1,0-3.9-0.4-5.6-1.1s-3-1.7-4.2-2.9c-1.2-1.2-2.1-2.7-2.8-4.3c-0.7-1.6-1-3.3-1-5.1c0-2.5,0.6-4.7,1.7-6.8
			c1.1-2,2.7-3.7,4.8-4.9c2-1.2,4.4-1.8,7.1-1.8c2.8,0,5.1,0.6,7.1,1.9c2,1.2,3.5,2.9,4.6,4.9c1.1,2,1.6,4.2,1.6,6.5
			c0,0.4,0,0.8,0,1.1s-0.1,0.6-0.1,0.8h-21c0.2,1.5,0.6,2.9,1.3,4c0.7,1.1,1.7,2,2.8,2.7c1.2,0.6,2.4,1,3.7,1c1.5,0,2.9-0.4,4.2-1.1
			c1.3-0.7,2.2-1.7,2.7-2.9l4.7,1.3c-0.6,1.3-1.4,2.4-2.6,3.4c-1.2,1-2.5,1.8-4.1,2.4C207.4,89,205.7,89.2,203.9,89.2z M196,74h15.8
			c-0.1-1.5-0.6-2.8-1.3-3.9c-0.7-1.1-1.7-2-2.8-2.6c-1.2-0.6-2.4-1-3.8-1c-1.4,0-2.7,0.3-3.8,1s-2.1,1.5-2.8,2.6
			C196.6,71.1,196.2,72.4,196,74z"/>
		<path d="M219.9,81.2c0-1.7,0.5-3.1,1.4-4.3c1-1.2,2.3-2.2,4-2.9c1.7-0.7,3.6-1,5.8-1c1.2,0,2.4,0.1,3.6,0.3
			c1.2,0.2,2.3,0.4,3.2,0.8v-1.6c0-1.8-0.6-3.2-1.7-4.2c-1.1-1-2.7-1.5-4.8-1.5c-1.5,0-2.8,0.2-4.2,0.8c-1.3,0.5-2.7,1.2-4.1,2.2
			l-1.8-3.8c1.7-1.1,3.4-2,5.2-2.6c1.8-0.6,3.6-0.9,5.5-0.9c3.5,0,6.2,0.9,8.2,2.7c2,1.8,3,4.4,3,7.8v9.6c0,0.6,0.1,1.1,0.4,1.3
			c0.2,0.3,0.6,0.4,1.1,0.4v4.4c-0.5,0.1-0.9,0.2-1.3,0.2c-0.4,0-0.7,0.1-1,0.1c-1.2,0-2.1-0.3-2.7-0.9c-0.6-0.6-0.9-1.2-1-2
			l-0.2-1.5c-1.1,1.5-2.5,2.6-4.3,3.4c-1.8,0.8-3.6,1.2-5.4,1.2c-1.7,0-3.3-0.4-4.7-1.1c-1.4-0.7-2.4-1.7-3.2-2.9
			C220.3,84.1,219.9,82.7,219.9,81.2z M236.5,82.8c0.4-0.5,0.7-0.9,0.9-1.3c0.2-0.4,0.4-0.8,0.4-1.2v-2.9c-0.9-0.4-1.9-0.6-2.9-0.8
			c-1-0.2-2-0.3-3-0.3c-2,0-3.7,0.4-4.9,1.2s-1.9,1.9-1.9,3.2c0,0.8,0.2,1.5,0.6,2.1c0.4,0.7,1,1.2,1.8,1.7c0.8,0.4,1.7,0.7,2.9,0.7
			c1.2,0,2.4-0.2,3.5-0.7C235,84,235.9,83.4,236.5,82.8z"/>
	</g>
</g>
</svg>
