<?xml version="1.0" encoding="utf-8"?>
<!-- Generator: Adobe Illustrator 25.2.1, SVG Export Plug-In . SVG Version: 6.00 Build 0)  -->
<svg version="1.1" id="Layer_1" xmlns="http://www.w3.org/2000/svg" xmlns:xlink="http://www.w3.org/1999/xlink" x="0px" y="0px"
	 viewBox="0 0 311.81 348.9" style="enable-background:new 0 0 311.81 348.9;" xml:space="preserve">
<style type="text/css">
	.st0{fill:#727272;stroke:#000000;stroke-width:0.7;stroke-linecap:round;stroke-linejoin:round;stroke-miterlimit:10;}
	.st1{fill:#FFFFFF;}
	.st2{fill:#595959;}
	.st3{fill:#4C4C4C;}
	.st4{fill:#2B2B2B;stroke:#000000;stroke-width:0.4;stroke-linecap:round;stroke-linejoin:round;stroke-miterlimit:10;}
	.st5{fill:#FFFFFF;stroke:#000000;stroke-width:0.7;stroke-linecap:round;stroke-linejoin:round;stroke-miterlimit:10;}
</style>
<path class="st0" d="M151.21,171.98c0.63,0.04,1.11-0.11,1.52-0.25c2.99-1.01,8.21-7.14,8.56-7.67
	c12.21-18.4,16.26-25.54,20.64-35.44c5.71-12.9,14.44-34.23,24.87-58.87c0.18-0.42,6.36,6.29,13.39,12.55
	c5.63,5.02,14.21,11.5,14.21,11.51c-5.46,12.31-13.58,30.39-17.76,38.61c-4.87,9.57-23.35,44.38-28.22,50.71
	c-3.52,4.58-9.54,13.46-11.36,19.47"/>
<g>
	<path class="st1" d="M252.82,208.01c6.56,3.09,11.85,6.83,16.87,10.88c6.19,5,10.87,10.24,12.78,11.59
		c2.29,1.62,7.06,4.39,7.82,7.09c0.68,2.43-0.42,4.98-1.6,7.21c-0.33,0.61-2.77,3.75-4.97,3.23"/>
	<g>
		<path d="M252.64,208.32c8.38,3.98,15.86,9.61,22.62,15.92c2.25,2.1,4.35,4.51,6.81,6.38c1.22,0.93,2.55,1.71,3.79,2.62
			c1.44,1.05,3.21,2.33,3.93,4.02c0.99,2.35-0.23,5.49-1.52,7.5c-0.88,1.37-2.69,3.2-4.46,2.89c-0.45-0.08-0.65,0.61-0.19,0.69
			c3.19,0.55,5.47-3.2,6.45-5.68c0.76-1.92,1.22-4.27,0.14-6.17c-0.89-1.57-2.44-2.74-3.86-3.79c-1.38-1.01-2.91-1.86-4.22-2.96
			c-1.23-1.03-2.35-2.18-3.5-3.29c-3.54-3.43-7.19-6.72-11.1-9.74c-4.54-3.49-9.35-6.58-14.53-9.03
			C252.59,207.5,252.23,208.12,252.64,208.32L252.64,208.32z"/>
	</g>
</g>
<g>
	<path class="st1" d="M261.02,226.5c5.52,2.77,10.26,6.9,14.49,11.4c1,1.06,2.46,2.7,3.38,3.82c2.93,3.57,5.1,5.68,4.44,9.08
		c-0.28,1.45-2.42,5.24-7.51,2.64"/>
	<g>
		<path d="M260.84,226.81c7.08,3.59,12.92,9.27,17.94,15.34c2,2.42,5.35,5.59,4.06,9.09c-1.11,3.02-4.28,3.15-6.83,1.9
			c-0.41-0.2-0.78,0.42-0.36,0.62c2.06,1,4.51,1.46,6.39-0.16c1.38-1.18,1.96-2.96,1.73-4.74c-0.39-3.06-3.12-5.62-5.01-7.87
			c-2.29-2.72-4.76-5.31-7.4-7.69c-3.08-2.78-6.45-5.23-10.15-7.12C260.79,225.98,260.43,226.6,260.84,226.81L260.84,226.81z"/>
	</g>
</g>
<g>
	<path class="st1" d="M257.81,235.52c4.96,2.46,9.88,7.48,13.99,12.19c1.4,1.6,2.83,3.25,3.65,5.24c0.82,1.99,0.94,4.42-0.22,6.22
		c-1,1.56-2.87,2.42-4.68,2.34c-1.81-0.08-3.41-1.23-6.91-4.46"/>
	<g>
		<path d="M257.63,235.83c3.51,1.77,6.51,4.38,9.28,7.14c1.43,1.42,2.79,2.9,4.12,4.41c1.27,1.44,2.59,2.88,3.53,4.57
			c0.98,1.74,1.53,3.88,0.92,5.84c-0.63,2.01-2.52,3.33-4.6,3.36c-2.76,0.05-5.14-2.66-6.98-4.36c-0.34-0.31-0.85,0.19-0.51,0.51
			c1.74,1.6,3.7,3.73,6.06,4.39c2.3,0.65,4.97-0.46,6.19-2.5c1.62-2.73,0.6-6.12-1.05-8.57c-2-2.97-4.65-5.64-7.17-8.16
			c-2.81-2.8-5.87-5.45-9.42-7.25C257.58,235,257.22,235.62,257.63,235.83L257.63,235.83z"/>
	</g>
</g>
<g>
	<path class="st1" d="M247.88,241.98c5.02,3.81,8.29,7.65,13.12,11.67c1.31,1.09,3.05,3.62,4.03,5c0.98,1.39,1.57,3.16,1.15,4.8
		c-0.51,2.02-2.42,3.43-4.41,4.04c-3.32,1.02-7.24,0.12-9.53-2.5"/>
	<g>
		<path d="M247.7,242.29c3.2,2.45,6.07,5.26,9,8.01c1.44,1.35,3.01,2.58,4.43,3.95c1.13,1.09,2.05,2.41,2.95,3.68
			c1.02,1.43,2.03,2.96,1.86,4.81c-0.19,2.13-2.05,3.64-3.95,4.31c-3.29,1.16-7.13,0.29-9.49-2.3c-0.31-0.34-0.82,0.17-0.51,0.51
			c1.87,2.05,4.61,3.11,7.38,3c2.65-0.1,5.67-1.32,6.85-3.86c1.31-2.81-0.46-5.39-2.07-7.6c-0.82-1.13-1.67-2.3-2.71-3.24
			c-1.35-1.22-2.76-2.38-4.09-3.63c-3.03-2.83-5.99-5.73-9.29-8.26C247.7,241.39,247.34,242.02,247.7,242.29L247.7,242.29z"/>
	</g>
</g>
<g>
	<g>
		<path d="M280.82,253.77c-1.04-0.53-2.01-1.24-2.84-2.06c-0.42-0.42-0.87-0.89-0.89-1.52c-0.01-0.33,0.1-0.63,0.2-0.94
			c0.18-0.55,0.42-1.03,0.86-1.41c0.5-0.42,1.13-0.81,1.78-0.89c0.61-0.08,1.2-0.03,1.77,0.21c0.45,0.19,0.76,0.49,1.09,0.84
			c0.32,0.33,0.83-0.17,0.51-0.51c-0.68-0.71-1.45-1.21-2.46-1.29c-1.19-0.1-2.24,0.35-3.15,1.09c-0.68,0.56-1.05,1.41-1.25,2.25
			c-0.26,1.08,0.28,1.93,1.02,2.67c0.87,0.86,1.89,1.62,2.98,2.18C280.87,254.6,281.24,253.98,280.82,253.77L280.82,253.77z"/>
	</g>
</g>
<g>
	<path class="st1" d="M21.21,28.03c22.64,37.12,51.86,77.26,72.68,108.26c9.11,13.55,19.8,24.71,17.97,40.33
		c-0.76,6.46-1.76,15.05-1.62,21.55s1.38,10.95,10.69,19.02c3.61,3.13,13.72,4.64,19.15,6.97c10.42,4.47,23.68,4.95,36.23,14.25
		c8.39,6.22,11.43,7.89,20.36,13.32c2.76,1.68,13.06,8.7,17.84,10.41c5.14,1.84,13.83,2.54,15.79,2.73
		c4.87,0.48,6.17,4.81,14.13,5.21c1.97,0.1,7.42-1.44,8.11-3.29c0.55-1.46-0.45-4.49-1.41-5.71c-4.37-5.56-9.05-9.18-15.62-13.06"/>
	<g>
		<path d="M20.9,28.21c8.19,13.43,16.81,26.59,25.6,39.64c8.74,12.99,17.66,25.85,26.58,38.72c4.16,6,8.32,12.01,12.45,18.03
			c3.94,5.75,7.77,11.58,11.82,17.26c4.03,5.66,8.27,11.28,11.18,17.62c1.44,3.14,2.51,6.47,2.95,9.9c0.44,3.45,0.07,6.8-0.32,10.22
			c-0.78,6.79-1.7,13.8-1.18,20.64c0.37,4.74,2.38,8.66,5.52,12.18c2,2.24,4.27,4.75,6.94,6.2c2.42,1.31,5.15,2.08,7.78,2.83
			c2.87,0.82,5.78,1.54,8.58,2.58c2.84,1.05,5.61,2.16,8.52,3c6.73,1.95,13.58,3.49,19.97,6.46c6.51,3.02,11.94,7.71,17.91,11.6
			c4.58,2.98,9.33,5.67,13.92,8.63c4.43,2.86,8.88,5.89,13.68,8.1c4.78,2.2,10.35,2.71,15.52,3.22c2.01,0.2,3.78,0.42,5.56,1.45
			c1.91,1.1,3.66,2.38,5.77,3.1c2.45,0.83,5.03,1.08,7.54,0.48c1.77-0.43,4.73-1.19,5.6-3.01c0.98-2.05-0.52-5.1-1.8-6.69
			c-2.09-2.6-4.45-4.96-7.05-7.05c-2.61-2.09-5.41-3.91-8.28-5.61c-0.4-0.24-0.76,0.38-0.36,0.62c5.77,3.43,11.42,7.47,15.47,12.91
			c0.91,1.23,1.55,2.97,1.54,4.52c-0.01,1.38-1.06,2.01-2.2,2.55c-2.58,1.22-5.28,1.67-8.09,1.16c-2.47-0.45-4.55-1.55-6.65-2.88
			c-1.64-1.04-3.25-1.86-5.21-2.07c-5.08-0.54-10.29-0.93-15.16-2.56c-2.28-0.76-4.4-2-6.47-3.2c-2.38-1.38-4.72-2.85-7.03-4.34
			c-4.37-2.8-8.82-5.45-13.22-8.2c-2.4-1.49-4.75-3.05-7.06-4.67c-3.01-2.12-5.89-4.42-9.06-6.29c-6.03-3.55-12.69-5.63-19.41-7.45
			c-2.99-0.81-6-1.6-8.93-2.59c-2.68-0.91-5.25-2.07-7.96-2.88c-5.46-1.63-11.56-2.53-15.91-6.47c-4.03-3.64-7.97-7.85-8.99-13.37
			c-0.45-2.47-0.43-5.03-0.36-7.52c0.1-3.65,0.41-7.29,0.78-10.92c0.35-3.44,0.96-6.9,1.03-10.35c0.06-3.11-0.38-6.22-1.25-9.2
			c-1.84-6.3-5.43-11.92-9.15-17.26c-7.87-11.31-15.65-22.69-23.49-34.03c-8.58-12.41-17.21-24.8-25.7-37.28
			C44.15,63.18,35.6,50.35,27.38,37.31c-1.98-3.14-3.93-6.29-5.86-9.46C21.28,27.46,20.66,27.82,20.9,28.21L20.9,28.21z"/>
	</g>
</g>
<g>
	<g>
		<path d="M289.5,236.67c0.3,1.68-1.39,2.89-2.73,3.52c-0.73,0.34-1.52,0.57-2.33,0.63c-0.52,0.04-1.04-0.12-1.53-0.27
			c-1.23-0.37-1.92-1.49-2.57-2.53c-0.74-1.19-1.23-2.54-0.7-3.92c0.25-0.65,0.94-1.17,1.49-1.54c0.68-0.46,1.48-0.9,2.31-0.98
			c0.46-0.05,0.46-0.76,0-0.72c-1.56,0.15-3.25,1.21-4.18,2.46c-0.95,1.27-0.58,3.14,0.1,4.43c0.66,1.26,1.63,2.89,3.04,3.39
			c0.56,0.2,1.2,0.4,1.8,0.41c0.91,0.03,1.87-0.27,2.69-0.62c1.77-0.78,3.69-2.3,3.31-4.45
			C290.11,236.03,289.42,236.22,289.5,236.67L289.5,236.67z"/>
	</g>
</g>
<g>
	<g>
		<path d="M273.75,260.04c-0.62-0.31-1.23-0.64-1.84-0.96c-0.47-0.25-0.9-0.48-1.16-0.98c-0.49-0.93-0.14-1.98,0.41-2.79
			c0.32-0.47,0.72-0.9,1.13-1.29c0.33-0.32,0.69-0.58,1.14-0.71c0.38-0.11,0.68-0.13,1.04,0.03c0.45,0.19,0.87,0.48,1.18,0.86
			c0.29,0.36,0.8-0.15,0.51-0.51c-0.45-0.56-1.33-1.17-2.08-1.2c-0.86-0.03-1.66,0.42-2.26,0.99c-1.34,1.26-2.74,3.26-1.63,5.11
			c0.3,0.49,0.73,0.79,1.23,1.06c0.65,0.34,1.3,0.7,1.96,1.02C273.8,260.86,274.17,260.25,273.75,260.04L273.75,260.04z"/>
	</g>
</g>
<g>
	<g>
		<path d="M264.71,258.25c-2.17-0.04-3.86,1.68-4.31,3.71c-0.22,0.99-0.2,2.09,0.31,3c0.51,0.92,1.47,1.4,2.39,1.82
			c0.42,0.19,0.78-0.43,0.36-0.62c-0.74-0.34-1.57-0.7-2.04-1.4c-0.5-0.75-0.52-1.75-0.33-2.6c0.38-1.73,1.75-3.23,3.62-3.19
			C265.17,258.98,265.17,258.26,264.71,258.25L264.71,258.25z"/>
	</g>
</g>
<g>
	<g>
		<path d="M252.04,262.6c-0.69-0.36-1.52-0.39-2.27-0.18c-0.28,0.08-0.56,0.19-0.78,0.38c-0.27,0.23-0.48,0.57-0.64,0.88
			c-0.16,0.32-0.29,0.66-0.42,0.99c-0.09,0.25-0.17,0.41-0.19,0.69c-0.03,0.3-0.03,0.62,0.04,0.92c0.07,0.3,0.3,0.57,0.52,0.78
			c0.62,0.59,1.44,0.89,2.18,1.29c0.41,0.22,0.77-0.4,0.36-0.62c-0.55-0.3-1.14-0.54-1.66-0.89c-0.23-0.16-0.47-0.34-0.62-0.58
			c-0.1-0.15-0.11-0.34-0.1-0.58c0-0.46,0.15-0.76,0.34-1.23c0.2-0.49,0.46-1.06,0.94-1.26c0.6-0.25,1.37-0.28,1.96,0.02
			C252.08,263.43,252.45,262.81,252.04,262.6L252.04,262.6z"/>
	</g>
</g>
<g id="XMLID_1_">
	<g>
		<path d="M256.97,217.78c1.05,6.74-5.46,12.03-10.38,15.49c-6.65,4.69-14.37,7.52-22.12,9.82c-4.08,1.22-8.26,2.08-12.52,2.25
			c-3.1,0.11-6.29,0.05-9.18-1.18c-5.82-2.48-10.9-7.04-15.44-11.34c-10.97-10.38-19.09-23.18-27.54-35.59
			c-4.33-6.34-8.64-12.73-13.42-18.74c-2.04-2.57-4.22-5.04-6.35-7.53c-6.73-7.86-13.43-15.73-20.1-23.64
			c-8.83-10.46-17.62-20.97-26.31-31.57c-7.92-9.66-15.81-19.38-23.3-29.38c-4.55-6.08-8.96-12.32-12.64-18.98
			c-3.28-5.91-5.97-12.23-6.11-19.09c-0.01-0.68,0-1.35,0.04-2.01c0.12,2.61,0.61,5.14,1.37,7.6c0.53,2.47,1.34,4.88,2.35,7.2
			c2.9,6.64,6.93,12.79,11.08,18.69c3.66,5.2,7.55,10.25,11.47,15.25c7.77,9.93,15.77,19.68,23.81,29.39
			c8.16,9.84,16.39,19.63,24.65,29.37c5.52,6.51,11.05,13,16.6,19.47c8.06,9.4,14.83,19.75,21.8,29.96
			c4.27,6.25,8.53,12.55,13.25,18.48c4.15,5.21,8.89,10,13.96,14.31c2.49,2.11,5.08,4.13,7.89,5.81c2.24,1.34,4.55,2.43,7.18,2.67
			c8.72,0.8,17.05-1.79,25.14-4.77c3.67-1.35,7.21-2.78,10.58-4.79c3.25-1.95,6.38-4.2,9.07-6.88c2.17-2.17,4.17-4.81,4.51-7.88
			C256.62,219.4,256.85,218.6,256.97,217.78z"/>
		<path d="M256.86,214.36c0.26,1.18,0.28,2.32,0.11,3.42c-0.03-0.2-0.07-0.39-0.11-0.59c-0.13-0.61-0.32-1.19-0.55-1.76
			c-0.4-3.57-2.88-6.51-5.49-8.87c-0.02-0.37-0.08-0.74-0.17-1.1C253.38,207.81,256.07,210.73,256.86,214.36z"/>
		<path d="M256.86,217.19c0.04,0.2,0.08,0.39,0.11,0.59c-0.12,0.82-0.35,1.62-0.66,2.39c0.06-0.49,0.08-0.99,0.04-1.5
			c-0.02-0.3-0.05-0.59-0.1-0.87c0.11-0.64,0.15-1.29,0.1-1.97c-0.01-0.14-0.02-0.27-0.04-0.4
			C256.54,216,256.73,216.58,256.86,217.19z"/>
		<path class="st2" d="M256.35,215.83c0.05,0.68,0.01,1.33-0.1,1.97c-0.48,2.88-2.39,5.36-4.45,7.41c-2.69,2.68-5.82,4.94-9.07,6.88
			c-3.37,2.02-6.91,3.45-10.58,4.8c-8.09,2.98-16.42,5.56-25.14,4.76c-2.63-0.24-4.94-1.32-7.18-2.67c-2.81-1.68-5.4-3.69-7.89-5.81
			c-5.07-4.3-9.81-9.1-13.96-14.3c-4.72-5.93-8.98-12.23-13.25-18.49c-6.97-10.2-13.74-20.56-21.8-29.95
			c-5.55-6.48-11.08-12.96-16.6-19.47c-8.26-9.75-16.49-19.53-24.65-29.37c-8.04-9.71-16.04-19.46-23.81-29.39
			c-3.92-5.01-7.81-10.05-11.47-15.25c-4.15-5.91-8.18-12.05-11.08-18.69c-1.66-3.8-2.77-7.84-2.99-11.94
			c-0.1-2.02,0.01-4.04,0.38-6.06c0.12-0.65,0.27-1.3,0.44-1.94c1.01-3.71,2.83-7.14,4.93-10.34c2.29-3.49,4.88-6.81,7.8-9.8
			c5.47-5.6,12.15-10.01,19.58-12.55C90.24,4,95.89,2.21,100.69,4.75c2.75,1.45,4.68,3.96,6.18,6.63c-0.43-0.18-0.87-0.34-1.32-0.48
			c-0.37-0.1-0.75-0.2-1.14-0.27c-1.56-0.33-3.19-0.38-4.79-0.21c-5.03,0.55-9.62,3.18-13.83,5.84c-8.69,5.49-17,12.84-21.01,22.51
			c-1.45,3.5-2.39,7.37-2.2,11.18c0,0,0,0.01,0,0.02c-0.07,1.61,0.04,3.22,0.38,4.8c1.04,4.87,4.53,8.58,7.41,12.45
			c3.65,4.89,6.98,10.03,10.51,15.01c3.52,4.95,7.09,9.88,10.7,14.77c7.24,9.82,14.67,19.51,22.26,29.07
			c7.45,9.36,14.96,18.69,22.84,27.69c5.56,6.34,11.42,12.48,16.52,19.21c1.95,2.56,3.66,5.26,5.42,7.94
			c2.22,3.39,4.51,6.74,6.87,10.05c5.95,8.36,12.29,16.49,19.35,23.94c3.09,3.25,6.29,6.46,9.61,9.47c3.06,2.77,6.4,5.31,10.27,6.84
			c4.33,1.71,8.88,1.79,13.41,0.86c5.59-1.15,10.98-3.1,16.12-5.56c3.74-1.79,7.36-3.9,10.51-6.6c2.79-2.39,5.49-5.49,6.03-9.25
			c0.06-0.41,0.09-0.82,0.09-1.22c0.01-0.33-0.01-0.66-0.06-0.98v-0.01v-0.01c0.08-0.64,0.08-1.27,0-1.88
			c2.61,2.36,5.09,5.3,5.49,8.87C256.33,215.56,256.34,215.69,256.35,215.83z"/>
		<path d="M256.35,218.67c0.04,0.51,0.02,1.01-0.04,1.5c-1.76,4.29-6.16,7.76-9.72,10.27c-6.65,4.69-14.37,7.51-22.12,9.82
			c-4.08,1.21-8.26,2.08-12.52,2.24c-3.1,0.12-6.29,0.05-9.18-1.18c-5.82-2.48-10.9-7.03-15.44-11.33
			c-10.97-10.38-19.09-23.19-27.54-35.59c-4.33-6.35-8.64-12.73-13.42-18.75c-2.04-2.57-4.22-5.03-6.35-7.53
			c-6.73-7.85-13.43-15.73-20.1-23.63c-8.83-10.47-17.62-20.98-26.31-31.57c-7.92-9.67-15.81-19.38-23.3-29.39
			c-4.55-6.08-8.96-12.32-12.64-18.97c-1.89-3.41-3.59-6.96-4.7-10.67c-0.53-2.49-0.77-5.03-0.64-7.57
			c0.22,4.1,1.33,8.14,2.99,11.94c2.9,6.64,6.93,12.78,11.08,18.69c3.66,5.2,7.55,10.24,11.47,15.25
			c7.77,9.93,15.77,19.68,23.81,29.39c8.16,9.84,16.39,19.62,24.65,29.37c5.52,6.51,11.05,12.99,16.6,19.47
			c8.06,9.39,14.83,19.75,21.8,29.95c4.27,6.26,8.53,12.56,13.25,18.49c4.15,5.2,8.89,10,13.96,14.3c2.49,2.12,5.08,4.13,7.89,5.81
			c2.24,1.35,4.55,2.43,7.18,2.67c8.72,0.8,17.05-1.78,25.14-4.76c3.67-1.35,7.21-2.78,10.58-4.8c3.25-1.94,6.38-4.2,9.07-6.88
			c2.06-2.05,3.97-4.53,4.45-7.41C256.3,218.08,256.33,218.37,256.35,218.67z"/>
		<path class="st3" d="M256.31,220.17c-0.34,3.07-2.34,5.71-4.51,7.88c-2.69,2.68-5.82,4.93-9.07,6.88
			c-3.37,2.01-6.91,3.44-10.58,4.79c-8.09,2.98-16.42,5.57-25.14,4.77c-2.63-0.24-4.94-1.33-7.18-2.67c-2.81-1.68-5.4-3.7-7.89-5.81
			c-5.07-4.31-9.81-9.1-13.96-14.31c-4.72-5.93-8.98-12.23-13.25-18.48c-6.97-10.21-13.74-20.56-21.8-29.96
			c-5.55-6.47-11.08-12.96-16.6-19.47c-8.26-9.74-16.49-19.53-24.65-29.37c-8.04-9.71-16.04-19.46-23.81-29.39
			c-3.92-5-7.81-10.05-11.47-15.25c-4.15-5.9-8.18-12.05-11.08-18.69c-1.01-2.32-1.82-4.73-2.35-7.2c1.11,3.71,2.81,7.26,4.7,10.67
			c3.68,6.65,8.09,12.89,12.64,18.97c7.49,10.01,15.38,19.72,23.3,29.39c8.69,10.59,17.48,21.1,26.31,31.57
			c6.67,7.9,13.37,15.78,20.1,23.63c2.13,2.5,4.31,4.96,6.35,7.53c4.78,6.02,9.09,12.4,13.42,18.75
			c8.45,12.4,16.57,25.21,27.54,35.59c4.54,4.3,9.62,8.85,15.44,11.33c2.89,1.23,6.08,1.3,9.18,1.18c4.26-0.16,8.44-1.03,12.52-2.24
			c7.75-2.31,15.47-5.13,22.12-9.82C250.15,227.93,254.55,224.46,256.31,220.17z"/>
		<path d="M250.82,208.46c0.05,0.32,0.07,0.65,0.06,0.98c-0.06-0.06-0.13-0.11-0.19-0.17c0.05-0.17,0.07-0.35,0.1-0.52
			C250.8,208.65,250.82,208.55,250.82,208.46z"/>
		<path d="M250.69,209.27c0.06,0.06,0.13,0.11,0.19,0.17c0,0.4-0.03,0.81-0.09,1.22c-0.54,3.76-3.24,6.86-6.03,9.25
			c-3.15,2.7-6.77,4.81-10.51,6.6c-5.14,2.46-10.53,4.41-16.12,5.56c-4.53,0.93-9.08,0.85-13.41-0.86
			c-3.87-1.53-7.21-4.07-10.27-6.84c-3.32-3.01-6.52-6.22-9.61-9.47c-7.06-7.45-13.4-15.58-19.35-23.94
			c-2.36-3.31-4.65-6.66-6.87-10.05c-1.76-2.68-3.47-5.38-5.42-7.94c-5.1-6.73-10.96-12.87-16.52-19.21
			c-7.88-9-15.39-18.33-22.84-27.69c-7.59-9.56-15.02-19.25-22.26-29.07c-3.61-4.89-7.18-9.82-10.7-14.77
			c-3.53-4.98-6.86-10.12-10.51-15.01c-2.88-3.87-6.37-7.58-7.41-12.45c-0.34-1.58-0.45-3.19-0.38-4.8c0.05,0.97,0.17,1.94,0.38,2.9
			c0.25,1.17,0.65,2.28,1.14,3.34c0.01,0.03,0.02,0.06,0.03,0.09c1.63,4.71,5.39,8.35,8.17,12.39c3.45,5.01,6.93,9.99,10.46,14.94
			c6.9,9.66,13.96,19.21,21.19,28.62c7.41,9.64,15.01,19.13,22.7,28.55c6.34,7.75,13.02,15.19,19.62,22.71
			c2.42,2.75,4.81,5.53,7.04,8.43c1.95,2.53,3.69,5.18,5.43,7.85c4.7,7.2,9.66,14.23,14.96,20.99c6.05,7.71,12.64,14.9,19.73,21.66
			c3.06,2.91,6.34,5.7,10.2,7.52c4.32,2.04,9.03,2.45,13.7,1.54c5.67-1.1,11.16-3.04,16.38-5.52c3.73-1.78,7.39-3.88,10.54-6.58
			c2.3-1.96,4.61-4.48,5.52-7.44C250.19,211.11,250.51,210.21,250.69,209.27z"/>
		<path d="M250.82,206.56c0.08,0.61,0.08,1.24,0,1.88c-0.08-0.83-0.28-1.63-0.58-2.39C250.43,206.21,250.63,206.38,250.82,206.56z"
			/>
		<path d="M250.82,208.45L250.82,208.45c0,0.1-0.02,0.2-0.03,0.3c-0.03,0.17-0.05,0.35-0.1,0.52c-0.18-0.16-0.36-0.32-0.54-0.47
			c0-0.13-0.02-0.26-0.04-0.39c0.02-0.08,0.02-0.17,0.02-0.25c0.12-0.07,0.28-0.08,0.41,0.04c0.09,0.08,0.19,0.16,0.28,0.24V208.45z
			"/>
		<path d="M250.82,206.56c-0.19-0.18-0.39-0.35-0.58-0.51c-0.07-0.21-0.16-0.41-0.25-0.61c0.11-0.16,0.35-0.25,0.55-0.08
			c0.04,0.03,0.07,0.06,0.11,0.09c0,0.01,0,0.01,0,0.01C250.74,205.82,250.8,206.19,250.82,206.56z"/>
		<path d="M250.82,208.44c-0.09-0.08-0.19-0.16-0.28-0.24c-0.13-0.12-0.29-0.11-0.41-0.04c0.03-0.18,0.04-0.36,0.04-0.54
			c0.01-0.61-0.04-1.21-0.16-1.78c0.01,0.01,0.02,0.02,0.03,0.03c0.07,0.06,0.13,0.11,0.2,0.18
			C250.54,206.81,250.74,207.61,250.82,208.44z"/>
		<path d="M250.15,208.8c0.18,0.15,0.36,0.31,0.54,0.47c-0.18,0.94-0.5,1.84-0.92,2.69c0.24-0.78,0.38-1.59,0.4-2.43
			C250.18,209.28,250.17,209.04,250.15,208.8z"/>
		<path d="M250.65,205.45c-0.04-0.03-0.07-0.06-0.11-0.09c-0.2-0.17-0.44-0.08-0.55,0.08c-0.04-0.09-0.08-0.17-0.12-0.25
			c-0.99-3.62-4.22-6.49-7.02-8.8c-16.86-13.95-36.61-23.89-53.33-38c-6.19-5.22-11.12-11.52-15.74-18.14
			c-6.38-9.15-12.1-18.77-17.49-28.52c0.25,0.32,0.8-0.03,0.59-0.41c2.83,5.11,5.76,10.18,8.81,15.17
			c5.15,8.4,10.58,16.8,17.04,24.27c6.49,7.51,14.88,13.34,23.03,18.89c9.42,6.42,19.15,12.35,28.34,19.09
			c4.03,2.95,8.21,5.94,11.81,9.4C248.05,200.18,249.99,202.63,250.65,205.45z"/>
		<path d="M250.15,208.8c0.02,0.24,0.03,0.48,0.02,0.73c-0.02,0.84-0.16,1.65-0.4,2.43c-1.15,2.35-3.06,4.38-5.01,6.04
			c-3.15,2.7-6.77,4.82-10.51,6.6c-5.14,2.46-10.53,4.41-16.12,5.56c-4.53,0.94-9.08,0.86-13.41-0.86
			c-3.87-1.53-7.21-4.06-10.27-6.84c-3.32-3.01-6.52-6.21-9.61-9.47c-7.06-7.45-13.4-15.58-19.35-23.94
			c-2.36-3.3-4.65-6.65-6.87-10.04c-1.76-2.69-3.47-5.39-5.42-7.95c-5.1-6.72-10.96-12.87-16.52-19.21
			c-7.88-9-15.39-18.33-22.84-27.69c-7.59-9.55-15.02-19.25-22.26-29.07c-3.61-4.89-7.18-9.81-10.7-14.77
			c-3.53-4.97-6.86-10.12-10.51-15.01c-2.18-2.93-4.72-5.78-6.27-9.1c-0.31-0.92-0.53-1.86-0.66-2.81
			c-0.01-0.01-0.01-0.02-0.01-0.03c-0.15-1.11-0.2-2.23-0.14-3.35c0.08,1.48,0.35,2.95,0.84,4.37c1.63,4.72,5.39,8.36,8.17,12.4
			c3.45,5,6.93,9.99,10.46,14.94c6.9,9.66,13.96,19.2,21.19,28.61c7.41,9.65,15.01,19.14,22.7,28.55
			c6.34,7.76,13.02,15.19,19.62,22.71c2.42,2.75,4.81,5.53,7.04,8.43c1.95,2.53,3.69,5.19,5.43,7.86
			c4.7,7.19,9.66,14.22,14.96,20.98c6.05,7.72,12.64,14.9,19.73,21.66c3.06,2.92,6.34,5.71,10.2,7.52c4.32,2.04,9.03,2.45,13.7,1.54
			c5.67-1.1,11.16-3.04,16.38-5.52c3.73-1.78,7.39-3.87,10.54-6.58c2.63-2.25,5.29-5.23,5.82-8.77
			C250.1,208.75,250.12,208.77,250.15,208.8z"/>
		<path class="st1" d="M250.01,205.84c0.12,0.57,0.17,1.17,0.16,1.78c0,0.18-0.01,0.36-0.04,0.54c0,0.08,0,0.17-0.02,0.25
			c-0.01,0.1-0.02,0.21-0.04,0.31c-0.53,3.54-3.19,6.52-5.82,8.77c-3.15,2.71-6.81,4.8-10.54,6.58c-5.22,2.48-10.71,4.42-16.38,5.52
			c-4.67,0.91-9.38,0.5-13.7-1.54c-3.86-1.81-7.14-4.6-10.2-7.52c-7.09-6.76-13.68-13.94-19.73-21.66
			c-5.3-6.76-10.26-13.79-14.96-20.98c-1.74-2.67-3.48-5.33-5.43-7.86c-2.23-2.9-4.62-5.68-7.04-8.43
			c-6.6-7.52-13.28-14.95-19.62-22.71c-7.69-9.41-15.29-18.9-22.7-28.55c-7.23-9.41-14.29-18.95-21.19-28.61
			c-3.53-4.95-7.01-9.94-10.46-14.94c-2.78-4.04-6.54-7.68-8.17-12.4c-0.49-1.42-0.76-2.89-0.84-4.37c-0.18-3.36,0.57-6.78,1.73-9.9
			c0.04-0.11,0.08-0.21,0.12-0.32c1.84-4.8,4.78-9.07,8.36-12.74c3.89-3.98,8.28-7.46,12.99-10.4c4.38-2.72,9.19-5.45,14.46-5.62
			c1.4-0.05,2.81,0.09,4.16,0.47c0.39,0.09,0.77,0.22,1.15,0.37c0.4,0.15,0.79,0.33,1.17,0.54c0.07,0.1,0.17,0.14,0.27,0.14h0.01
			c2.59,1.45,3.96,3.78,5.31,6.32c2.66,5,5.16,10.09,7.56,15.22c2.15,4.6,4.2,9.24,6.19,13.9c0.98,2.26,1.94,4.54,2.88,6.81
			c1.27,3.01,2.52,6.02,3.77,9.04c1.4,3.36,2.84,6.7,4.33,10.02c0.29,0.64,0.58,1.28,0.87,1.92c0.25,0.58,0.51,1.15,0.79,1.73
			c0.84,1.86,1.7,3.72,2.58,5.57c0.51,1.1,1.03,2.2,1.56,3.3c2.84,5.94,5.77,11.84,8.73,17.7c1.29,2.55,2.6,5.09,3.98,7.59
			c0.01,0.02,0.02,0.04,0.03,0.05c5.39,9.75,11.11,19.37,17.49,28.52c4.62,6.62,9.55,12.92,15.74,18.14
			c16.72,14.11,36.47,24.05,53.33,38c2.8,2.31,6.03,5.18,7.02,8.8c0.03,0.1,0.05,0.21,0.07,0.32
			C249.97,205.61,250,205.72,250.01,205.84z"/>
		<path d="M250.15,208.8c-0.03-0.03-0.05-0.05-0.08-0.08c0.02-0.1,0.03-0.21,0.04-0.31C250.13,208.54,250.15,208.67,250.15,208.8z"
			/>
		<path d="M250.24,206.05c-0.07-0.07-0.13-0.12-0.2-0.18c-0.01-0.01-0.02-0.02-0.03-0.03c-0.01-0.12-0.04-0.23-0.07-0.33
			c0.01-0.02,0.03-0.05,0.05-0.07C250.08,205.64,250.17,205.84,250.24,206.05z"/>
		<path d="M249.87,205.19c0.04,0.08,0.08,0.16,0.12,0.25c-0.02,0.02-0.04,0.05-0.05,0.07C249.92,205.4,249.9,205.29,249.87,205.19z"
			/>
		<path class="st1" d="M249.77,211.96c-0.91,2.96-3.22,5.48-5.52,7.44c-3.15,2.7-6.81,4.8-10.54,6.58
			c-5.22,2.48-10.71,4.42-16.38,5.52c-4.67,0.91-9.38,0.5-13.7-1.54c-3.86-1.82-7.14-4.61-10.2-7.52
			c-7.09-6.76-13.68-13.95-19.73-21.66c-5.3-6.76-10.26-13.79-14.96-20.99c-1.74-2.67-3.48-5.32-5.43-7.85
			c-2.23-2.9-4.62-5.68-7.04-8.43c-6.6-7.52-13.28-14.96-19.62-22.71c-7.69-9.42-15.29-18.91-22.7-28.55
			c-7.23-9.41-14.29-18.96-21.19-28.62c-3.53-4.95-7.01-9.93-10.46-14.94c-2.78-4.04-6.54-7.68-8.17-12.39
			c-0.01-0.03-0.02-0.06-0.03-0.09c1.55,3.32,4.09,6.17,6.27,9.1c3.65,4.89,6.98,10.04,10.51,15.01c3.52,4.96,7.09,9.88,10.7,14.77
			c7.24,9.82,14.67,19.52,22.26,29.07c7.45,9.36,14.96,18.69,22.84,27.69c5.56,6.34,11.42,12.49,16.52,19.21
			c1.95,2.56,3.66,5.26,5.42,7.95c2.22,3.39,4.51,6.74,6.87,10.04c5.95,8.36,12.29,16.49,19.35,23.94c3.09,3.26,6.29,6.46,9.61,9.47
			c3.06,2.78,6.4,5.31,10.27,6.84c4.33,1.72,8.88,1.8,13.41,0.86c5.59-1.15,10.98-3.1,16.12-5.56c3.74-1.78,7.36-3.9,10.51-6.6
			C246.71,216.34,248.62,214.31,249.77,211.96z"/>
		<path d="M156.88,111.32c0.21,0.38-0.34,0.73-0.59,0.41c-0.01-0.01-0.02-0.03-0.03-0.05C156.03,111.27,156.65,110.91,156.88,111.32
			z"/>
		<path d="M156.88,111.32c-0.23-0.41-0.85-0.05-0.62,0.36c-1.38-2.5-2.69-5.04-3.98-7.59c-2.96-5.86-5.89-11.76-8.73-17.7
			c-0.53-1.1-1.05-2.2-1.56-3.3c-0.87-1.85-1.73-3.71-2.58-5.57c-0.26-0.57-0.53-1.15-0.79-1.73c-0.29-0.64-0.58-1.28-0.87-1.92
			c-1.49-3.32-2.93-6.66-4.33-10.02c-1.25-3.02-2.5-6.03-3.77-9.04c-0.94-2.27-1.9-4.55-2.88-6.81c-1.99-4.66-4.04-9.3-6.19-13.9
			c-2.4-5.13-4.9-10.22-7.56-15.22c-1.35-2.54-2.72-4.87-5.31-6.32c0.24-0.03,0.46-0.27,0.32-0.55c-0.02-0.04-0.04-0.07-0.06-0.11
			c1.32,0.71,2.51,1.68,3.48,2.93c1.71,2.21,2.87,4.95,4.14,7.43c1.34,2.62,2.65,5.26,3.92,7.91c2.52,5.26,4.93,10.57,7.26,15.92
			c3.45,7.95,6.58,16.03,10.11,23.94c3.34,7.47,6.82,14.87,10.38,22.23C150.35,98.66,153.44,105.09,156.88,111.32z"/>
		<path d="M139.41,77.52c0.85,1.86,1.71,3.72,2.58,5.57C141.11,81.24,140.25,79.38,139.41,77.52z"/>
		<path d="M138.62,75.79c0.26,0.58,0.53,1.16,0.79,1.73C139.13,76.94,138.87,76.37,138.62,75.79z"/>
		<path d="M108.03,12.01c0.14,0.28-0.08,0.52-0.32,0.55h-0.01c-0.09-0.06-0.18-0.1-0.27-0.14c-0.01-0.01-0.01-0.03-0.02-0.04
			c-0.17-0.34-0.35-0.67-0.54-1c0.38,0.15,0.74,0.33,1.1,0.52C107.99,11.94,108.01,11.97,108.03,12.01z"/>
		<path d="M107.43,12.42c0.09,0.04,0.18,0.08,0.27,0.14C107.6,12.56,107.5,12.52,107.43,12.42z"/>
		<path d="M107.41,12.38c0.01,0.01,0.01,0.03,0.02,0.04c-0.38-0.21-0.77-0.39-1.17-0.54c-0.22-0.33-0.45-0.66-0.71-0.98
			c0.45,0.14,0.89,0.3,1.32,0.48C107.06,11.71,107.24,12.04,107.41,12.38z"/>
		<path d="M107.97,11.9c-0.36-0.19-0.72-0.37-1.1-0.52c-1.5-2.67-3.43-5.18-6.18-6.63C95.89,2.21,90.24,4,85.46,5.63
			c-7.43,2.54-14.11,6.95-19.58,12.55c-2.92,2.99-5.51,6.31-7.8,9.8c-2.1,3.2-3.92,6.63-4.93,10.34c-0.17,0.64-0.32,1.29-0.44,1.94
			c-0.59,1.95-0.98,3.96-1.11,6.03c-0.02-0.27-0.03-0.55-0.04-0.83c-0.16-7.65,3.35-14.45,7.74-20.5
			c4.65-6.41,10.33-12.01,17.2-16.01c3.25-1.9,6.71-3.38,10.3-4.51c2.43-0.76,4.91-1.48,7.47-1.65c2.53-0.16,5.05,0.31,7.24,1.6
			C104.42,6.11,106.44,8.96,107.97,11.9z"/>
		<path d="M105.55,10.9c0.26,0.32,0.49,0.65,0.71,0.98c-0.38-0.15-0.76-0.28-1.15-0.37c-0.21-0.3-0.45-0.6-0.7-0.88
			C104.8,10.7,105.18,10.8,105.55,10.9z"/>
		<path d="M104.41,10.63c0.25,0.28,0.49,0.58,0.7,0.88c-1.35-0.38-2.76-0.52-4.16-0.47c-5.27,0.17-10.08,2.9-14.46,5.62
			c-4.71,2.94-9.1,6.42-12.99,10.4c-3.58,3.67-6.52,7.94-8.36,12.74c-0.04,0.11-0.08,0.21-0.12,0.32c-0.08,0.18-0.16,0.37-0.24,0.56
			c-0.75,1.82-1.37,3.74-1.76,5.7c-0.01,0.06-0.03,0.13-0.03,0.2c-0.22,1.11-0.36,2.24-0.41,3.37c-0.19-3.81,0.75-7.68,2.2-11.18
			c4.01-9.67,12.32-17.02,21.01-22.51c4.21-2.66,8.8-5.29,13.83-5.84C101.22,10.25,102.85,10.3,104.41,10.63z"/>
		<path d="M64.78,40.68c0.08-0.19,0.16-0.38,0.24-0.56c-1.16,3.12-1.91,6.54-1.73,9.9c-0.06,1.12-0.01,2.24,0.14,3.35
			c-0.25-0.71-0.64-2.07-0.61-4.01c0.02-1.43,0.09-2.19,0.17-2.78c0-0.07,0.02-0.14,0.03-0.2C63.41,44.42,64.03,42.5,64.78,40.68z"
			/>
		<path d="M63.44,53.4c0.13,0.95,0.35,1.89,0.66,2.81c-0.49-1.06-0.89-2.17-1.14-3.34c-0.21-0.96-0.33-1.93-0.38-2.9
			c0-0.01,0-0.02,0-0.02c0.05-1.13,0.19-2.26,0.41-3.37c-0.08,0.59-0.15,1.35-0.17,2.78c-0.03,1.94,0.36,3.3,0.61,4.01
			C63.43,53.38,63.43,53.39,63.44,53.4z"/>
		<path d="M52.33,46.32c-0.13,2.54,0.11,5.08,0.64,7.57c-0.76-2.46-1.25-4.99-1.37-7.6c0.13-2.07,0.52-4.08,1.11-6.03
			C52.34,42.28,52.23,44.3,52.33,46.32z"/>
	</g>
	<g>
	</g>
</g>
<path class="st4" d="M174.94,143.18c-2.9,0.08-7.87,1.92-11.26,4.48c-5.92,4.48-9.28,7.92-13.99,13.05
	c2.75,2.93,6.19,7.25,8.84,10.69c3.08,4.01,7.61,11.1,11.93,17.58c4.44-3.58,10.03-8.81,15.31-13.92c3.58-3.46,7.71-6.89,10.31-10.1
	c-4.76-3.71-7.37-6.07-11.73-10.37C181.35,151.63,176.87,146.15,174.94,143.18z"/>
<path class="st0" d="M208.02,169.77c-0.27-0.19-0.65-0.15-0.87,0.09c-7.53,7.94-13.66,14.83-18.05,20.22
	c-10,12.29-15.18,19.85-20.32,27.71c-1.71,2.62-4.04,7.31-5.23,12.16c-0.11,0.46-0.53,1.34-0.26,2.32c0.53,1.95,3.11,2.6,4.65,3.35
	c3.21,1.58,5.97,3.48,10.71,7.61c3.59,3.13,5.45,4.33,8.52,6.06c0.26,0.15,1.38,0.75,2.97,0.26c2.19-0.68,4.5-9.17,8.28-15.09
	c2.75-4.3,10.53-13.52,20.13-25.71c3.38-4.29,9.67-12.45,15.2-20.44c0.21-0.31,0.14-0.73-0.17-0.94
	C225.06,181.51,216.54,175.64,208.02,169.77z"/>
<path class="st0" d="M76.64,114.33c-2.82-2.67-5.04-5.34-6.39-7.1c-0.79-1.02-1.46-1.97-1.84-2.51c-0.79-1.12-2.02-2.9-3.98-6.09
	c-3.61-5.87-4.09-7.37-4.35-8.45c-0.37-1.49-0.46-2.69-0.48-3.15c-0.04-0.72-0.09-2.24,0.48-5.21c0.91-4.7,2.39-8.02,2.78-8.88
	c0.93-2.03,1.8-3.43,2.07-3.85c1.54-2.44,2.94-3.91,3.3-4.27c0,0,0.58-0.6,1.23-1.18c4.29-3.84,15.09-8.95,15.09-8.95
	c5.06-2.4,7.68-3.63,11.61-5.2c2.52-1,5.22-2.08,8.87-3.21c7.48-2.33,11.35-3.48,16.01-2.52c2.66,0.55,4.74,1.63,6.11,2.48
	c0.25,0.16,0.44,0.38,0.55,0.65c3.96,9.21,7.92,18.43,11.88,27.64c-1.75-0.25-4.31-0.51-7.39-0.36c-7.39,0.35-12.2,2.73-21.21,7.03
	c-20.17,9.64-21.52,9.89-24.6,13.09c-2.35,2.43-4.39,6.15-8.48,13.57c-1.25,2.26-2.46,4.61-1.45,6.18c0.99,1.54,2.24,1.52,3.24,1.46
	"/>
<path d="M76.76,110.88c-0.3-0.56-0.51,1.34-0.52,1.5c-0.02,0.44-0.07,1.28,0.5,2.04c0.52,0.69,1.25,0.9,1.5,0.97
	c0.41,0.11,1.67,0.41,1.48,0.01C79.12,114.11,77.22,111.74,76.76,110.88z"/>
<path class="st0" d="M110.93,170.16c0-0.4,0.55-0.5,0.69-0.13c0.77,1.99,1.63,3.56,2.32,4.69c2.64,4.3,4.35,4.52,4.8,4.55
	c0.63,0.04,1.11-0.11,1.52-0.25c2.99-1.01,8.21-7.14,8.56-7.67c12.21-18.4,16.26-25.54,20.64-35.44
	c5.71-12.9,14.44-34.23,24.87-58.87c0.18-0.42,6.36,6.29,13.39,12.55c5.63,5.02,13.48,12.32,13.48,12.32
	c-5.46,12.31-12.81,29.62-16.99,37.84c-4.87,9.57-23.39,44.34-28.26,50.67c-3.52,4.58-9.54,13.46-11.36,19.47
	c-0.23,0.75-1.16,4.99-1.78,7.86c-0.65,3.01,0.18,6.21,2.35,8.39c0.07,0.07,0.13,0.13,0.2,0.19c0.23,0.22,0,0.6-0.3,0.51
	c-5.97-1.77-11.72-3.93-17.71-5.68c-0.66-0.19-1.18-0.71-1.37-1.37c-0.39-1.33-0.72-2.83-0.93-4.49c-0.68-5.48,0.4-10.04,1.35-12.88
	c-1.97-0.17-4.99-0.68-8.25-2.36c-4.57-2.35-7.25-5.76-8.59-7.85c-0.36-0.56-0.51-1.24-0.42-1.9
	C110.07,183.88,110.92,178.1,110.93,170.16z"/>
<path class="st5" d="M175.24,82.95c3.71,3.46,7.9,7.08,11.6,10.55c2.38,2.23,7.94,6.65,10.32,8.87c-1.46,3.7-3.8,8.95-5.38,12.75
	c-1.58,3.79-4.61,10.3-6.21,13.94c-4.02-3.23-8.17-7.57-12.35-11.34c-2.84-2.56-6.58-6.07-9.09-8.45c1.8-4.82,3.81-9.21,5.8-13.73
	C171.38,92.28,173.92,86.13,175.24,82.95z"/>
</svg>
