<?xml version="1.0" encoding="utf-8"?>
<!-- Generator: Adobe Illustrator 25.2.1, SVG Export Plug-In . SVG Version: 6.00 Build 0)  -->
<svg version="1.1" xmlns="http://www.w3.org/2000/svg" xmlns:xlink="http://www.w3.org/1999/xlink" x="0px" y="0px"
	 viewBox="0 0 318.87 210.44" style="enable-background:new 0 0 318.87 210.44;" xml:space="preserve">
<style type="text/css">
	.st0{display:none;}
	.st1{display:inline;opacity:0.4;}
	.st2{fill:none;stroke:#000000;stroke-width:6;stroke-linecap:round;stroke-miterlimit:10;}
</style>
<g id="Layer_1" class="st0">
	<g class="st1">
		<g>
			<g>
				<path d="M196.9,98.23c-32.47,0-64.17,0-96.29,0c-0.83,7.4-2.57,14.11-11.64,14.4c-9.36,0.3-11.14-6.49-12.2-13.68
					c-8.53-1.15-16.8-2.26-25.83-3.47c-0.12,1.04-0.52,2.97-0.53,4.91c-0.04,23.22-0.06,46.45-0.01,69.67
					c0.02,9.88,2.95,12.83,12.88,12.99c8.54,0.13,17.09-0.09,25.62,0.2c1.6,0.06,3.14,1.82,4.71,2.8c-1.48,1.12-2.93,3.18-4.44,3.22
					c-10.4,0.26-20.83,0.48-31.22-0.03c-8.17-0.4-13.73-6.49-13.77-14.85c-0.16-35.23-0.23-70.47,0.05-105.7
					c0.09-12.01,8.9-20.16,22.03-20.67c12.79-0.49,25.63-0.4,38.43-0.07c5.98,0.16,8.44-1.28,8.44-7.9
					c0.02-13.87,8.19-21.44,22.21-21.63c9.87-0.13,19.75-0.14,29.63,0.01c13.34,0.2,21.6,7.81,21.86,21.25
					c0.13,6.88,2.6,8.57,8.97,8.3c10.66-0.45,21.35-0.28,32.03-0.07c16.52,0.32,24.45,8.44,24.48,24.87
					c0.04,32.57,0.04,65.13,0,97.7c-0.02,13.73-5.17,18.91-18.75,18.98c-8.27,0.04-16.56,0.23-24.82-0.16
					c-2.03-0.09-3.97-2.17-5.95-3.33c1.87-0.95,3.72-2.65,5.62-2.72c8.8-0.31,17.61-0.1,26.42-0.19c6.05-0.06,10.94-2.54,11.01-9.08
					c0.28-26.36,0.12-52.73,0.12-78.71c-8.62,1.25-16.66,2.41-25.31,3.66c-0.76,6.63-2.4,13.44-11.5,13.73
					C199.8,112.92,197.98,106.18,196.9,98.23z M221.34,90.83c3.76,0,7.71,0.12,11.66-0.03c7.24-0.26,11.54-4.62,12.62-11.22
					c2.4-14.63-2.64-25.36-19.69-25.16c-51.73,0.61-103.48,0.61-155.2,0c-17.25-0.2-22.21,10.24-20.01,24.92
					c0.94,6.28,4.84,11.35,11.61,11.18c5.78-0.15,14.49,4.98,16.13-6.7c0.24-1.72,3.74-3.79,6.04-4.28
					c10.04-2.16,13.86,0.48,16.69,11.35c2.68,0,5.56,0,8.45,0c25.87,0,51.74-0.05,77.6,0.04c5.39,0.02,10.77,0.99,11.37-7.12
					c0.12-1.61,3.71-3.77,6-4.26C214.65,77.39,218.43,80,221.34,90.83z M149.91,24.75c0-0.01,0-0.02,0-0.03
					c-5.06,0-10.13-0.26-15.17,0.06c-10.25,0.65-16.1,7.21-15.4,17.36c0.13,1.88,1.88,3.65,2.88,5.47c1.22-1.86,3.49-3.73,3.48-5.59
					c-0.03-7.99,3.94-10.96,11.45-10.77c6.65,0.17,13.31,0.03,19.96,0.03c13.5,0,13.43,0.02,17.09,13.05
					c0.37,1.32,2.33,2.2,3.55,3.28c0.9-1.04,2.35-1.97,2.62-3.15c2.27-10.13-4-18.75-14.5-19.63
					C160.59,24.39,155.24,24.75,149.91,24.75z M166.55,47.78c0.77-0.89,1.54-1.77,2.3-2.66c-1.79-2.4-3.43-6.7-5.41-6.86
					c-8.98-0.75-18.08-0.57-27.09-0.08c-1.48,0.08-3.6,3.26-3.87,5.22c-0.17,1.26,2.47,4.13,3.93,4.18
					C146.44,47.95,156.5,47.78,166.55,47.78z M83.9,84.92c0,5.22-0.01,8.32,0,11.41c0,1.58-0.6,3.74,0.19,4.63
					c1.72,1.93,4.17,3.21,6.32,4.76c1.01-5.67,2.43-11.33,2.64-17.04C93.09,87.72,88,86.55,83.9,84.92z M204.14,84.62
					c0,7.52-0.6,12.38,0.31,16.94c0.34,1.68,4.26,2.64,6.55,3.93c0.9-5.51,2.3-11.01,2.31-16.52
					C213.31,87.76,208.38,86.55,204.14,84.62z"/>
				<path d="M196.58,153.23c-0.65,9.81,0,19.95-2.38,29.32c-1.7,6.68-6.38,13.59-11.67,18.14c-9.03,7.77-19.4,14.08-29.64,20.28
					c-2.41,1.46-7.26,1.25-9.77-0.25c-9.59-5.73-18.65-12.35-27.97-18.54c-9.98-6.62-14.32-16.34-14.62-27.83
					c-0.37-14.66-0.34-29.34,0.13-43.99c0.08-2.5,3.01-6.84,4.95-7.03c13.83-1.4,25.42-7.86,36.38-15.45
					c4.92-3.41,8.09-2.87,12.7,0.25c10.83,7.33,22.16,13.66,35.67,15.14c2.08,0.23,5.11,4.25,5.34,6.73
					c0.7,7.67,0.26,15.44,0.26,23.18C196.17,153.2,196.38,153.22,196.58,153.23z M188.98,156.17c0-6.93,0.34-13.88-0.19-20.77
					c-0.17-2.24-2.11-5.34-4.09-6.29c-10.7-5.14-21.59-9.92-32.61-14.35c-2.39-0.96-5.88-0.68-8.34,0.32
					c-10.77,4.35-21.43,8.99-31.91,13.99c-2.01,0.96-4.09,3.97-4.27,6.18c-0.55,6.88-0.21,13.84-0.21,20.77
					c0,33.05,0,33.05,27.53,51.56c13.28,8.93,12.77,8.01,26.62,0.3C182.26,196.34,194.86,181.42,188.98,156.17z"/>
				<path d="M134.86,152.3c1.66-12.78,2.98-14.24,12.33-14.44c10.96-0.23,12.08,0.83,14.56,13.84c13.47,2.83,13.99,3.42,13.63,15.45
					c-0.26,8.47-1.63,9.63-13.66,11.49c-2.35,13-3.56,14.17-14.54,13.96c-9.11-0.17-10.62-1.86-12.28-13.68
					c-13.55-2.75-13.62-3.34-13.98-15.39C120.61,153.43,127.04,152.51,134.86,152.3z M142.72,145.31c-0.26,1.34-0.73,2.39-0.61,3.37
					c0.88,7.44-1.07,11.91-9.83,10.5c-4.63-0.75-4.87,2.61-4.99,6.12c-0.13,4,1.23,6.08,5.47,5.71c5.7-0.5,10.27,0.29,9.28,7.84
					c-0.63,4.82,0.98,7.43,6.53,7.33c5.38-0.1,6.25-3.04,5.83-7.24c-0.58-5.7,1.46-8.6,7.57-7.96c4.04,0.42,7.17,0,7.26-5.62
					c0.09-5.83-2.84-6.66-7.46-6.29c-4.05,0.33-7.91-0.06-7.26-5.58C155.62,144.16,150.63,143.31,142.72,145.31z"/>
			</g>
		</g>
	</g>
</g>
<g id="Layer_2">
	<g>
		<path class="st2" d="M99.15,174.86H73.67c-8.28,0-15-6.72-15-15V55.07c0-8.28,6.72-15,15-15h90.03"/>
		<path class="st2" d="M181.74,145.76h-13.11c-0.91,0-1.65-0.74-1.65-1.65V131c0-0.91-0.74-1.65-1.65-1.65h-13.11
			c-0.91,0-1.65,0.74-1.65,1.65v13.11c0,0.91-0.74,1.65-1.65,1.65h-13.11c-0.91,0-1.65,0.74-1.65,1.65v13.11
			c0,0.91,0.74,1.65,1.65,1.65h13.11c0.91,0,1.65,0.74,1.65,1.65v13.11c0,0.91,0.74,1.65,1.65,1.65h13.11
			c0.91,0,1.65-0.74,1.65-1.65v-13.11c0-0.91,0.74-1.65,1.65-1.65h13.11c0.91,0,1.65-0.74,1.65-1.65v-13.11
			C183.39,146.5,182.66,145.76,181.74,145.76z"/>
		<path class="st2" d="M158.23,206.15l-31-21.36c-7.04-4.85-11.26-12.83-11.33-21.37l-0.3-41.69c-0.02-2.98,1.99-5.59,4.88-6.32l0,0
			c11.54-2.94,22.55-7.64,32.65-13.94l5.11-3.19"/>
		<path class="st2" d="M159.06,206.36l31-21.36c7.04-4.85,11.26-12.83,11.33-21.37l0.3-41.69c0.02-2.98-1.99-5.59-4.88-6.32h0
			c-11.54-2.94-22.55-7.64-32.65-13.94l-5.11-3.19"/>
		<path class="st2" d="M99.47,96.9L99.47,96.9c-4.47,0-8.09-3.62-8.09-8.09v-8.73c0-4.47,3.62-8.09,8.09-8.09h0
			c4.47,0,8.09,3.62,8.09,8.09v8.73C107.56,93.27,103.94,96.9,99.47,96.9z"/>
		<line class="st2" x1="58.78" y1="77.51" x2="90.52" y2="83.05"/>
		<line class="st2" x1="108.41" y1="83.05" x2="162.09" y2="83.05"/>
		<path class="st2" d="M219.72,174.86h25.48c8.28,0,15-6.72,15-15V55.07c0-8.28-6.72-15-15-15h-90.03"/>
		<path class="st2" d="M219.4,96.9L219.4,96.9c4.47,0,8.09-3.62,8.09-8.09v-8.73c0-4.47-3.62-8.09-8.09-8.09h0
			c-4.47,0-8.09,3.62-8.09,8.09v8.73C211.31,93.27,214.93,96.9,219.4,96.9z"/>
		<line class="st2" x1="260.09" y1="77.51" x2="228.35" y2="83.05"/>
		<line class="st2" x1="210.46" y1="83.05" x2="156.78" y2="83.05"/>
		<path class="st2" d="M126.73,37.83V25.41c0-8.28,6.72-15,15-15h21"/>
		<path class="st2" d="M139.09,39.38v-9.04c0-4.42,3.57-8,7.97-8h17.16"/>
		<path class="st2" d="M194.9,37.83V25.41c0-8.28-6.72-15-15-15h-21"/>
		<path class="st2" d="M182.54,39.38v-9.04c0-4.42-3.57-8-7.97-8h-17.16"/>
	</g>
</g>
</svg>
