<?xml version="1.0" encoding="utf-8"?>
<!-- Generator: Adobe Illustrator 25.2.1, SVG Export Plug-In . SVG Version: 6.00 Build 0)  -->
<svg version="1.1" id="Layer_1" xmlns="http://www.w3.org/2000/svg" xmlns:xlink="http://www.w3.org/1999/xlink" x="0px" y="0px"
	 viewBox="0 0 250 250" style="enable-background:new 0 0 250 250;" xml:space="preserve">
<g>
	<g>
		<path d="M127.84,203.83c-3.67,0-7.33,0.04-11-0.01c-8.21-0.11-13.92-5.94-14.25-14.17c-0.23-5.94-0.27-11.97-1.36-17.78
			c-1.82-9.71-6.92-17.85-13.95-24.78c-9.22-9.08-15.05-20.05-16.67-32.83c-2.85-22.57,4.9-41.17,23.1-54.75
			c33.78-25.22,82.59-6.27,90.7,35.2c3.84,19.62-1.33,37.11-15.41,51.52c-6.46,6.61-11.74,13.81-14.07,22.81
			c-1.02,3.93-1.46,8.03-1.86,12.09c-0.28,2.85,0,5.75-0.09,8.62c-0.26,8.22-6.15,13.97-14.36,14.06
			c-3.59,0.04-7.19,0.01-10.78,0.01C127.84,203.82,127.84,203.83,127.84,203.83z M127.81,193.74
			C127.81,193.74,127.81,193.75,127.81,193.74c1.58,0.01,3.16,0.01,4.74,0.01c1.58,0,3.16,0.03,4.74,0.01
			c4.26-0.05,5.59-1.43,5.63-5.75c0.04-3.88-0.27-7.8,0.18-11.63c1.65-14.19,7.6-26.3,17.84-36.38c11.93-11.73,16.4-26.09,13.7-42.5
			c-4.16-25.29-29.38-43.13-54.68-38.48c-18.67,3.43-31.57,14.43-37.41,32.46c-5.85,18.07-1.59,34.39,11.62,48.06
			c7.75,8.02,13.53,17.04,16.55,27.82c1.91,6.8,2,13.74,1.94,20.72c-0.04,4.35,1.25,5.62,5.65,5.67
			C121.48,193.77,124.64,193.74,127.81,193.74z"/>
		<path d="M127.8,209.55c5.68,0,11.36-0.05,17.04,0.02c2.29,0.03,3.78,1.54,3.85,3.56c0.07,2.07-1.46,3.62-3.84,3.83
			c-0.71,0.06-1.44,0.04-2.16,0.04c-7.33,0-14.66-0.01-22-0.01c-3.09,0-6.18,0.03-9.27-0.02c-2.82-0.05-4.68-1.57-4.69-3.72
			c0-2.17,1.86-3.69,4.67-3.7C116.87,209.52,122.34,209.54,127.8,209.55C127.8,209.54,127.8,209.54,127.8,209.55z"/>
		<path d="M127.84,222.05c5.68,0,11.36-0.04,17.03,0.02c2.1,0.02,3.53,1.29,3.74,3.17c0.21,1.85-0.54,3.29-2.34,3.89
			c-0.93,0.31-1.98,0.31-2.98,0.32c-6.68,0.04-13.37,0.04-20.05,0.05c-3.67,0-7.33,0-11-0.01c-0.57,0-1.15,0-1.72-0.06
			c-2.16-0.24-3.8-1.87-3.78-3.72c0.02-1.95,1.76-3.61,4.06-3.63C116.48,222.02,122.16,222.06,127.84,222.05
			C127.84,222.06,127.84,222.05,127.84,222.05z"/>
		<path d="M131.48,20.43c0,3.59,0.03,7.19-0.01,10.78c-0.03,2.56-1.48,4.17-3.64,4.21c-2.18,0.04-3.74-1.49-3.77-4.08
			c-0.08-7.33-0.08-14.67-0.02-22c0.02-2.6,1.54-4.08,3.77-4.06c2.24,0.02,3.62,1.52,3.65,4.15c0.05,3.67,0.01,7.33,0.01,11
			C131.48,20.43,131.48,20.43,131.48,20.43z"/>
		<path d="M197.71,167.94c-0.89,1.03-1.6,2.29-2.67,2.98c-1.5,0.96-3.06,0.36-4.29-0.85c-4.23-4.19-8.44-8.4-12.66-12.61
			c-1.07-1.06-2.17-2.1-3.17-3.22c-1.68-1.9-1.67-3.79-0.07-5.37c1.44-1.42,3.78-1.44,5.43,0.18c5.33,5.23,10.6,10.5,15.84,15.83
			C196.76,165.53,197.02,166.58,197.71,167.94z"/>
		<path d="M82.33,151.24c-0.77,1.3-1.17,2.43-1.93,3.2c-5.13,5.22-10.3,10.39-15.52,15.52c-1.83,1.8-4,1.81-5.54,0.26
			c-1.51-1.53-1.46-3.78,0.3-5.56c5.14-5.2,10.34-10.36,15.52-15.52c1.3-1.29,2.94-1.82,4.5-0.88
			C80.72,148.88,81.39,150.15,82.33,151.24z"/>
		<path d="M81.89,51.62c0.05,3.25-2.95,5.19-5.33,3.98c-0.81-0.41-1.52-1.08-2.17-1.73c-4.59-4.55-9.16-9.12-13.73-13.69
			c-0.56-0.56-1.14-1.11-1.61-1.74c-1.17-1.55-1-3.57,0.33-4.9c1.29-1.28,3.42-1.44,4.91-0.24c1.11,0.9,2.1,1.95,3.12,2.97
			c4.22,4.21,8.46,8.39,12.63,12.66C80.9,49.81,81.46,50.99,81.89,51.62z"/>
		<path d="M197.76,35.98c-0.8,1.35-1.17,2.39-1.88,3.11c-5.13,5.22-10.3,10.4-15.52,15.54c-1.86,1.84-3.94,1.85-5.54,0.25
			c-1.63-1.63-1.62-3.62,0.25-5.52c5.19-5.26,10.45-10.46,15.68-15.67c1.26-1.25,2.89-1.65,4.33-0.8
			C196.18,33.51,196.84,34.85,197.76,35.98z"/>
		<path d="M46.05,105.55c-3.87,0-7.75,0.08-11.62-0.03c-1.84-0.05-3.06-1.17-3.35-3.06c-0.27-1.76,0.44-3.12,2.03-3.89
			c0.61-0.3,1.38-0.38,2.08-0.39c7.32-0.02,14.63-0.03,21.95,0.01c2.48,0.01,3.95,1.37,4.03,3.52c0.08,2.22-1.39,3.82-3.93,3.9
			c-3.73,0.12-7.46,0.03-11.19,0.03C46.05,105.61,46.05,105.58,46.05,105.55z"/>
		<path d="M209.27,105.63c-3.52,0-7.03,0.06-10.55-0.02c-2.76-0.06-4.38-1.5-4.41-3.68c-0.03-2.3,1.67-3.76,4.51-3.76
			c7.1-0.02,14.21-0.01,21.31,0.01c2.78,0.01,4.33,1.34,4.35,3.64c0.02,2.31-1.49,3.76-4.24,3.83c-3.66,0.08-7.32,0.02-10.98,0.02
			C209.27,105.65,209.27,105.64,209.27,105.63z"/>
		<path d="M127.79,234.54c2.73,0,5.45-0.03,8.18,0.01c2.5,0.04,3.99,1.35,4.09,3.49c0.11,2.19-1.39,3.86-3.93,3.91
			c-5.59,0.11-11.19,0.11-16.78-0.02c-2.46-0.05-4.08-1.89-3.92-3.95c0.16-2.05,1.77-3.41,4.18-3.44
			C122.34,234.52,125.06,234.54,127.79,234.54z"/>
	</g>
</g>
</svg>
