<?xml version="1.0" encoding="utf-8"?>
<!-- Generator: Adobe Illustrator 25.2.1, SVG Export Plug-In . SVG Version: 6.00 Build 0)  -->
<svg version="1.1" id="Layer_1" xmlns="http://www.w3.org/2000/svg" xmlns:xlink="http://www.w3.org/1999/xlink" x="0px" y="0px"
	 viewBox="0 0 531.1 488.1" style="enable-background:new 0 0 531.1 488.1;" xml:space="preserve">
<style type="text/css">
	.st0{fill:#FFFFFF;}
</style>
<circle class="st0" cx="265.6" cy="449.9" r="31.2"/>
<circle class="st0" cx="265.6" cy="367" r="39"/>
<circle class="st0" cx="265.6" cy="268.5" r="46.8"/>
<circle class="st0" cx="265.6" cy="61.6" r="54.6"/>
<path class="st0" d="M279.9,156.7c1.8-24.9,22.3-38.6,46.9-44.3c37.5-8.7,186.1,3.5,193.5,40.1c7.9,39.2-114.5,128.3-187.9,89.4
	c-23.3-12.4-55-44.7-52.5-84.6C279.9,157.1,279.9,156.9,279.9,156.7z"/>
<path class="st0" d="M251.2,156.7c-1.8-24.9-22.3-38.6-46.9-44.3c-37.5-8.7-186.1,3.5-193.5,40.1c-7.9,39.2,114.5,128.3,187.9,89.4
	c23.3-12.4,55-44.7,52.5-84.6C251.2,157.1,251.2,156.9,251.2,156.7z"/>
</svg>
