<svg xmlns="http://www.w3.org/2000/svg" width="182mm" height="167.25mm" viewBox="0 0 515.91 474.09"><circle cx="260.79" cy="442.91" r="31.18" fill="#676767"/><circle cx="260.79" cy="360" r="38.98" fill="#676767"/><circle cx="260.79" cy="261.5" r="46.77" fill="#676767"/><circle cx="260.79" cy="54.57" r="54.57" fill="#676767"/><path d="M297.82,205.67c1.8-24.95,22.31-38.58,46.95-44.26,37.49-8.66,186.09,3.51,193.45,40.06,7.89,39.22-114.51,128.31-187.94,89.36-23.33-12.37-55-44.73-52.5-84.55C297.79,206.08,297.81,205.87,297.82,205.67Z" transform="translate(-22.68 -55.98)" fill="#676767"/><path d="M269.1,205.67c-1.84-24.95-22.83-38.58-48.05-44.26-38.38-8.66-190.47,3.51-198,40.06C15,240.69,140.25,329.78,215.41,290.83c23.88-12.37,56.32-44.73,53.74-84.55C269.13,206.08,269.12,205.87,269.1,205.67Z" transform="translate(-22.68 -55.98)" fill="#676767"/></svg>