<?xml version="1.0" encoding="utf-8"?>
<!-- Generator: Adobe Illustrator 25.2.1, SVG Export Plug-In . SVG Version: 6.00 Build 0)  -->
<svg version="1.1" id="Layer_1" xmlns="http://www.w3.org/2000/svg" xmlns:xlink="http://www.w3.org/1999/xlink" x="0px" y="0px"
	 viewBox="0 0 531.14 488.09" style="enable-background:new 0 0 531.14 488.09;" xml:space="preserve">
<style type="text/css">
	.st0{fill:#FFFFFF;}
</style>
<circle class="st0" cx="268.41" cy="449.91" r="31.18"/>
<circle class="st0" cx="268.41" cy="367" r="38.98"/>
<circle class="st0" cx="268.41" cy="268.5" r="46.77"/>
<circle class="st0" cx="268.41" cy="61.57" r="54.57"/>
<path class="st0" d="M282.75,156.69c1.8-24.95,22.31-38.58,46.95-44.26c37.49-8.66,186.09,3.51,193.45,40.06
	c7.89,39.22-114.51,128.31-187.94,89.36c-23.33-12.37-55-44.73-52.5-84.55C282.72,157.1,282.74,156.89,282.75,156.69z"/>
<path class="st0" d="M254.04,156.69c-1.84-24.95-22.83-38.58-48.05-44.26c-38.38-8.66-190.47,3.51-198,40.06
	c-8.05,39.22,117.2,128.31,192.36,89.36c23.88-12.37,56.32-44.73,53.74-84.55C254.07,157.1,254.06,156.89,254.04,156.69z"/>
</svg>
