<?xml version="1.0" encoding="utf-8"?>
<!-- Generator: Adobe Illustrator 25.2.1, SVG Export Plug-In . SVG Version: 6.00 Build 0)  -->
<svg version="1.1" xmlns="http://www.w3.org/2000/svg" xmlns:xlink="http://www.w3.org/1999/xlink" x="0px" y="0px"
	 viewBox="0 0 348.01 225.07" style="enable-background:new 0 0 348.01 225.07;" xml:space="preserve">
<style type="text/css">
	.st0{display:none;}
	.st1{display:inline;}
	.st2{fill:none;stroke:#000000;stroke-width:6;stroke-linecap:round;stroke-miterlimit:10;}
	.st3{fill:none;stroke:#000000;stroke-width:5;stroke-linecap:round;stroke-miterlimit:10;}
</style>
<g id="Layer_2" class="st0">
	<g class="st1">
		<g>
			<g>
				<g>
					<path d="M50.12,194.71c0-41.04,0-81.43,0-122.42c-4.8,0-9.08,0.02-13.36,0c-4.98-0.03-5.96-1.02-5.97-6.09
						c-0.02-13.88-0.02-27.75,0-41.63c0.01-5.27,0.88-6.1,6.3-6.11c11.08-0.01,22.15,0.12,33.22-0.12c2-0.04,4.49-1.03,5.87-2.45
						C93.05-1.34,120.71-1.28,137.51,16c1.36,1.4,3.91,2.34,5.9,2.35c56.01,0.12,112.03,0.1,168.04,0.1c6.38,0,6.99,0.61,6.99,6.95
						c0,13.62,0.01,27.24,0,40.86c-0.01,5.01-1,5.99-6.05,6.02c-4.18,0.03-8.36,0.01-13.04,0.01c0,40.85,0,81.33,0,122.42
						c1.78,0,3.26,0,4.75,0c11.71,0,23.42-0.01,35.13,0.01c2.74,0.01,6.33-0.61,6.4,3.45c0.06,4.02-3.44,3.64-6.25,3.64
						c-28.64,0-57.29,0-85.93,0c-80.71,0-161.42,0-242.13,0c-1.27,0-2.55,0.01-3.82-0.03c-2.39-0.06-4.29-1.32-3.84-3.63
						c0.26-1.33,2.3-2.48,3.76-3.34c0.76-0.45,1.99-0.1,3.01-0.1c11.58,0,23.17,0,34.75,0C46.55,194.71,47.93,194.71,50.12,194.71z
						 M220.83,194.27c22.03,0,44.05,0,66.08,0c5.11,0,5.13-0.01,5.13-4.94c0-37.43-0.06-74.86,0.09-112.29
						c0.02-3.96-1.15-4.84-4.94-4.83c-45.58,0.13-91.16,0.15-136.73,0c-6.51-0.02-12.68-0.16-16.87,5.95
						c-0.34,0.5-0.98,0.8-1.5,1.17c-18.81,13.49-39.41,9.66-55.87-4.59c-1.1-0.95-2.4-2.24-3.68-2.32c-4.31-0.29-8.66-0.22-12.97,0
						c-0.81,0.04-2.12,1.34-2.22,2.17c-0.47,3.89-0.83,7.83-0.8,11.74c0.04,5.46,0.64,10.91,0.66,16.37
						c0.08,17.19-0.01,34.37-0.02,51.56c-0.01,12.09,0.06,24.19-0.04,36.28c-0.02,2.79,0.86,3.95,3.72,3.76
						c2.66-0.18,5.37-0.27,8.01,0.02c3.83,0.42,4.65-1.22,4.62-4.78c-0.16-21.01-0.15-42.01-0.06-63.02
						c0.02-4.69,0.44-9.4,1.01-14.05c0.71-5.83,3.07-11.02,8.65-13.53c3.25-1.46,7.04-2.21,10.62-2.33
						c12.05-0.41,24.12-0.4,36.18-0.54c9.99-0.12,19.25,9.04,19.24,18.92c-0.02,24.82,0.1,49.63-0.08,74.45
						c-0.03,3.9,1.07,4.94,4.92,4.91C176.27,194.18,198.55,194.27,220.83,194.27z M142.03,153.6c0.03,0,0.06,0,0.09,0
						c0-12.22-0.03-24.44,0.01-36.65c0.02-8.68-4.91-13.36-12.6-13.82c-11.65-0.68-23.37,0.04-35.04-0.42
						c-5.89-0.24-13.52,5.57-13.71,11.84c-0.17,5.81-0.18,11.64-0.19,17.45c-0.02,19.35,0.06,38.7-0.09,58.04
						c-0.03,3.4,1.05,4.32,4.37,4.29c17.69-0.14,35.39-0.13,53.08-0.01c3.09,0.02,4.21-0.81,4.16-4.06
						C141.92,178.04,142.03,165.82,142.03,153.6z M145.05,65.03c1.6,0,2.83,0,4.07,0c52.57,0,105.14-0.02,157.7,0.07
						c3.24,0.01,4.75-0.71,4.37-4.22c-0.26-2.39-0.3-4.86,0.01-7.24c0.53-4.05-1.21-4.79-4.94-4.78
						c-48.11,0.12-96.23,0.08-144.34,0.07c-2.87,0-6.6,0.61-6.46-3.77c0.13-4.11,3.79-3.33,6.47-3.33
						c45.95-0.03,91.9-0.01,137.85-0.04c3.54,0,8.51,1.09,10.23-0.75c1.92-2.05,0.73-6.89,1.17-10.48c0.47-3.83-0.88-4.93-4.8-4.92
						c-52.44,0.14-104.88,0.09-157.32,0.1c-1.31,0-2.62,0.14-4.03,0.22C150.15,44.25,150.15,44.25,145.05,65.03z M71.62,45.09
						c-0.71,17.46,14.61,35.47,34.81,35.42c19.43-0.05,35.43-15.52,35.59-34.86c0.16-19.31-15.6-35.32-34.96-35.52
						C87.74,9.93,71.78,25.68,71.62,45.09z M68.49,65.01c-4.81-17.8-6.27-16.32-0.11-39.24c-9.49,0-18.87-0.05-28.25,0.11
						c-0.69,0.01-1.88,1.55-1.94,2.44c-0.23,3.42,0.02,6.87-0.14,10.3c-0.12,2.6,1.03,3.3,3.41,3.22c3.69-0.13,7.38-0.01,11.07-0.03
						c2.5-0.02,4.82,0.39,4.85,3.49c0.03,3.01-2.12,3.68-4.71,3.65c-3.94-0.05-7.89,0.05-11.83-0.03c-1.93-0.04-2.79,0.66-2.75,2.65
						c0.08,3.69-0.11,7.39,0.13,11.06c0.05,0.84,1.38,2.26,2.14,2.28C49.6,65.06,58.87,65.01,68.49,65.01z"/>
					<path d="M276.27,132.05c0,5.59,0.04,11.19-0.01,16.78c-0.09,10.27-6.19,16.41-16.37,16.49c-5.47,0.04-10.94,0.08-16.4-0.01
						c-8.97-0.15-15.17-6.14-15.28-15.11c-0.16-13.08-0.2-26.16-0.01-39.23c0.14-9.31,7.31-15.4,16.58-14.92
						c5.31,0.27,10.64-0.06,15.96,0.01c8.7,0.11,14.33,5.26,15.09,13.89c0.32,3.66,0.35,7.36,0.42,11.04
						C276.32,124.68,276.27,128.37,276.27,132.05z M235.32,130.48c0,0-0.01,0-0.01,0c0,6.36-0.07,12.72,0.02,19.07
						c0.08,5.41,3.14,8.47,8.57,8.59c4.96,0.11,9.92,0.05,14.88,0.03c7.45-0.03,10.14-2.73,10.21-10.07
						c0.1-11.18,0.26-22.36,0.37-33.54c0.08-7.95-2.78-11.08-10.78-11.47c-4.29-0.21-8.62-0.22-12.91-0.02
						c-8.37,0.39-10.19,2.31-10.32,10.65C235.25,119.3,235.32,124.89,235.32,130.48z"/>
					<path d="M166.4,130.55c0-6.22-0.06-12.43,0.01-18.65c0.11-9.32,5.33-14.98,14.59-15.5c6.21-0.35,12.45-0.39,18.67-0.31
						c7.38,0.1,14.55,6.89,14.68,14.36c0.25,13.48,0.27,26.97-0.02,40.45c-0.18,8.38-6.44,14.19-14.81,14.39
						c-5.85,0.14-11.7,0.09-17.55,0.01c-9.17-0.12-15.35-6.18-15.51-15.3c-0.12-6.49-0.02-12.97-0.02-19.46
						C166.43,130.55,166.41,130.55,166.4,130.55z M207.23,130.84c-0.01,0-0.02,0-0.02,0c0-6.35,0.05-12.7-0.01-19.05
						c-0.05-5.59-3.55-8.75-9.12-8.63c-5.2,0.11-10.41,0.1-15.61-0.02c-5.17-0.12-9.3,3.63-9.27,8.75
						c0.09,12.46,0.2,24.91,0.37,37.37c0.08,5.8,3.16,8.81,9.09,8.9c5.21,0.08,10.43,0.07,15.64,0c5.93-0.09,8.86-3.07,8.91-9
						C207.27,143.05,207.23,136.94,207.23,130.84z"/>
					<path d="M129.35,155.77c2.97,0.6,6.49,0.59,5.75,4.96c-0.45,2.66-4.36,3.54-8.24,2.03c-4.33-1.68-6.26-6.8-4.82-12.76
						c1.03-4.27,5.06-7.07,9.58-6.14c1.36,0.28,3.24,1.99,3.36,3.2c0.12,1.14-1.65,3.41-2.79,3.55
						C128.77,151.05,128.72,152.87,129.35,155.77z"/>
					<path d="M96.3,56.09c-8.26-1.76-11.81-5.13-11.71-10.92c0.09-5.66,3.46-8.75,11.61-10.52c0.14-0.9,0.25-1.89,0.43-2.86
						c0.97-5.12,5.11-8.6,10.18-8.58c4.99,0.02,9.07,3.28,9.94,8.32c0.39,2.22,0.75,3.5,3.5,3.83c5.28,0.64,8.71,4.92,8.71,9.96
						c0,5.03-3.39,9.12-8.65,10.08c-1.88,0.34-3.13,0.5-3.48,2.96c-0.84,5.89-4.89,9.21-10.36,9.08c-5.35-0.13-9.16-3.81-9.96-9.64
						C96.45,57.31,96.39,56.81,96.3,56.09z M106.94,29.18c-1.46,1.91-2.57,2.89-3.03,4.11c-0.43,1.12-0.15,2.5-0.19,3.77
						c-0.13,4.23-1,5.11-5.18,5.26c-1.39,0.05-2.94-0.25-4.13,0.28c-1.06,0.47-2.38,1.86-2.36,2.82c0.02,0.96,1.4,2.36,2.46,2.71
						c1.5,0.49,3.26,0.2,4.9,0.22c2.79,0.04,4.19,1.48,4.27,4.24c0.03,1.14-0.31,2.43,0.11,3.39c0.68,1.54,1.67,3.88,2.84,4.09
						c2.57,0.45,3.1-1.87,3.22-4.08c0.4-7.29,0.42-7.29,7.75-7.65c0.38-0.02,0.9,0.12,1.12-0.07c1.02-0.92,2.71-1.95,2.7-2.92
						c-0.01-0.99-1.58-2.33-2.75-2.83c-1.19-0.51-2.74-0.22-4.14-0.2c-3.15,0.05-4.7-1.45-4.67-4.62c0.01-1.39,0.23-2.87-0.16-4.16
						C109.31,32.27,108.27,31.21,106.94,29.18z"/>
				</g>
			</g>
		</g>
	</g>
</g>
<g id="Layer_1">
	<line class="st2" x1="5.72" y1="199.27" x2="341.69" y2="199.27"/>
	<circle class="st2" cx="107.04" cy="44.9" r="37.98"/>
	<path class="st3" d="M123.63,38.97h-9.47c-0.66,0-1.19-0.53-1.19-1.19v-9.47c0-0.66-0.53-1.19-1.19-1.19h-9.47
		c-0.66,0-1.19,0.53-1.19,1.19v9.47c0,0.66-0.53,1.19-1.19,1.19h-9.47c-0.66,0-1.19,0.53-1.19,1.19v9.47c0,0.66,0.53,1.19,1.19,1.19
		h9.47c0.66,0,1.19,0.53,1.19,1.19v9.47c0,0.66,0.53,1.19,1.19,1.19h9.47c0.66,0,1.19-0.53,1.19-1.19v-9.47
		c0-0.66,0.53-1.19,1.19-1.19h9.47c0.66,0,1.19-0.53,1.19-1.19v-9.47C124.82,39.51,124.29,38.97,123.63,38.97z"/>
	<path class="st2" d="M138.33,21.79h172.12c2.76,0,5,2.24,5,5v37.3c0,2.76-2.24,5-5,5H136.93"/>
	<path class="st2" d="M75.15,21.79H39.38c-2.76,0-5,2.24-5,5v37.3c0,2.76,2.24,5,5,5h36.09"/>
	<path class="st2" d="M77.1,198.53v-88.65c0-5.44,4.48-9.85,10-9.85h48.29c5.52,0,10,4.41,10,9.85v86.06"/>
	<path class="st2" d="M201.1,162.03h-20.86c-5.52,0-10-4.48-10-10v-42.57c0-5.52,4.48-10,10-10h20.86c5.52,0,10,4.48,10,10v42.57
		C211.1,157.55,206.63,162.03,201.1,162.03z"/>
	<path class="st2" d="M262.53,162.03h-20.86c-5.52,0-10-4.48-10-10v-42.57c0-5.52,4.48-10,10-10h20.86c5.52,0,10,4.48,10,10v42.57
		C272.53,157.55,268.06,162.03,262.53,162.03z"/>
	<line class="st2" x1="295.68" y1="68.89" x2="295.68" y2="199.46"/>
	<line class="st2" x1="53.1" y1="69.17" x2="53.1" y2="199.17"/>
	<line class="st2" x1="35.39" y1="45.17" x2="53.39" y2="45.17"/>
	<line class="st2" x1="159.1" y1="45.46" x2="313.68" y2="45.46"/>
	<circle class="st2" cx="129.68" cy="153.46" r="6"/>
</g>
</svg>
