<?xml version="1.0" encoding="utf-8"?>
<!-- Generator: Adobe Illustrator 25.2.1, SVG Export Plug-In . SVG Version: 6.00 Build 0)  -->
<svg version="1.1" id="Layer_1" xmlns="http://www.w3.org/2000/svg" xmlns:xlink="http://www.w3.org/1999/xlink" x="0px" y="0px"
	 viewBox="0 0 300 300" style="enable-background:new 0 0 300 300;" xml:space="preserve">
<style type="text/css">
	.st0{fill:#FFFFFF;}
</style>
<circle class="st0" cx="146.8" cy="146.2" r="100.9"/>
<g>
	<g>
		<path d="M149.4,288.4c-77.4,0-139.8-62.6-139.8-140C9.6,71,73,7.5,151.7,8.7c75.4,1.1,137.9,62.6,137.6,140.5
			C289,226.6,226.1,288.5,149.4,288.4z M100.3,98.4c-0.1,0.4-0.3,0.8-0.4,1.2c-4.1,14.1-8.2,28.1-12.4,42.2c-0.7,2.3-1,4.6-1,7
			c0,16.1,0,32.2,0,48.2c0,0.6,0,1.2,0,1.7c17.7,0,35.1,0,52.5,0c0-17.6,0-35.1,0-52.8c-5.3,0-10.6,0-15.9,0c3-15.9,6-31.7,9-47.5
			C121.5,98.4,110.9,98.4,100.3,98.4z M196.8,146c3-16,6-31.7,9-47.6c-10.8,0-21.3,0-31.8,0c-0.1,0.4-0.3,0.8-0.4,1.1
			c-4,13.9-8.1,27.7-12.1,41.6c-0.6,2-1.2,4.1-1.2,6.2c-0.1,16.5-0.1,33.1-0.1,49.6c0,0.6,0,1.2,0,1.8c17.6,0,35,0,52.5,0
			c0-17.6,0-35.1,0-52.7C207.4,146,202.2,146,196.8,146z"/>
	</g>
</g>
</svg>
