<?xml version="1.0" encoding="utf-8"?>
<!-- Generator: Adobe Illustrator 25.2.1, SVG Export Plug-In . SVG Version: 6.00 Build 0)  -->
<svg version="1.1" id="Layer_1" xmlns="http://www.w3.org/2000/svg" xmlns:xlink="http://www.w3.org/1999/xlink" x="0px" y="0px"
	 viewBox="0 0 200 200" style="enable-background:new 0 0 200 200;" xml:space="preserve">
<style type="text/css">
	.st0{fill:#689283;}
	.st1{fill:#FFFFFF;}
</style>
<circle class="st0" cx="100" cy="100" r="91.6"/>
<path class="st1" d="M104.9,159.4l-20.4-46.2L37.8,91.1c-3.2-1.5-2.9-6.1,0.4-7.3l105.2-36.7c4.1-1.4,8,2.5,6.6,6.6L113.4,159
	C112,163,106.6,163.2,104.9,159.4z M57.9,88.5l35,16.5l15.5,35.2l27.4-79L57.9,88.5z"/>
<path class="st1" d="M89,113.7c-1.3,0-2.5-0.5-3.5-1.4c-2-1.9-2-5.1,0-7.1l51.3-52c1.9-2,5.1-2,7.1,0c2,1.9,2,5.1,0,7.1l-51.3,52
	C91.6,113.2,90.3,113.7,89,113.7z"/>
</svg>
