<?xml version="1.0" encoding="utf-8"?>
<!-- Generator: Adobe Illustrator 25.2.1, SVG Export Plug-In . SVG Version: 6.00 Build 0)  -->
<svg version="1.1" id="Layer_1" xmlns="http://www.w3.org/2000/svg" xmlns:xlink="http://www.w3.org/1999/xlink" x="0px" y="0px"
	 viewBox="0 0 820 300" style="enable-background:new 0 0 820 300;" xml:space="preserve">
<g>
	<g>
		<path d="M12.73,13.39c265.77,0,531.46,0,797.23,0c0,91.78,0,183.52,0,275.28c-2,0.35-787.91,0.51-797.23,0.15
			C12.73,197.08,12.73,105.33,12.73,13.39z M805.96,181.09c-92.54,0-184.88,0-277.21,0c-0.33,7.21-0.19,48.38,0.14,50.2
			c92.35,0,184.69,0,277.07,0C805.96,214.53,805.96,197.85,805.96,181.09z M528.74,127.22c0,16.61,0,33.14,0,49.64
			c92.46,0,184.85,0,277.19,0c0-16.63,0-33.16,0-49.63c-0.22-0.22-0.38-0.38-0.58-0.58c-92,0-184.03,0-276.06,0
			C529.14,126.83,528.98,126.98,528.74,127.22z M529.26,122.95c92.04,0,184.13,0,276.14,0c0.24-0.24,0.4-0.39,0.54-0.54
			c0-16.54,0-33.07,0-49.64c-92.44,0-184.82,0-277.24,0c0,16.61,0,33.14,0,49.63C528.9,122.6,529.06,122.75,529.26,122.95z
			 M805.96,235.48c-92.54,0-184.88,0-277.22,0c-0.34,7.91-0.2,47.47,0.15,49.29c92.35,0,184.69,0,277.06,0
			C805.96,268.31,805.96,251.93,805.96,235.48z M410.67,231.8c0.64-0.8,1.52-0.43,2.28-0.43c36.62-0.02,73.24-0.02,109.87-0.02
			c0.73,0,1.46,0,2.22,0c0-16.68,0-33.21,0-49.71c-0.2-0.2-0.36-0.36-0.57-0.57c-87.39,0-174.82,0-262.23,0c0,16.8,0,33.54,0,50.27
			c48.79,0,97.47,0,146.15,0c0.6,0,1.2,0,1.8,0.01c0.06,0,0.12,0.07,0.17,0.12c0.06,0.05,0.11,0.1,0.16,0.16
			S410.61,231.75,410.67,231.8z M262.17,176.93c0.23,0.02,0.3,0.03,0.37,0.03c48.68,0,97.36,0,146.04,0c0.07,0,0.15,0,0.22,0
			s0.15,0,0.22,0c0.07,0,0.15,0,0.22,0s0.15,0,0.22,0s0.15,0,0.22,0c0.07,0,0.15,0,0.22,0s0.15-0.01,0.22,0
			c0.07,0.02,0.13,0.06,0.18,0.1c0.06,0.05,0.11,0.1,0.16,0.16c0.05,0.05,0.1,0.13,0.16,0.15c0.04,0.01,0.11-0.06,0.15-0.1
			c0.06-0.05,0.11-0.11,0.16-0.16c0.05-0.05,0.1-0.13,0.16-0.15c0.06-0.03,0.15-0.01,0.22-0.01c0.07,0,0.15,0,0.22,0s0.15,0,0.22,0
			c0.07,0,0.15,0,0.22,0s0.15,0,0.22,0s0.15,0,0.22,0c36.92,0,73.84,0,110.76,0c0.22,0,0.45,0,0.67,0c0.15,0,0.3,0,0.45,0
			c0.07,0,0.15,0,0.22,0s0.16,0.02,0.22-0.01c0.06-0.02,0.11-0.09,0.21-0.17c0-16.49,0-33.03,0-49.47c-0.24-0.28-0.44-0.5-0.55-0.64
			c-87.49,0-174.87,0-262.3,0C262.17,143.43,262.17,160.11,262.17,176.93z M262.16,122.96c87.6,0,174.99,0,262.3,0
			c0.23-0.23,0.39-0.39,0.56-0.56c0-16.52,0-33.05,0-49.64c-87.64,0-175.24,0-262.86,0C262.16,89.52,262.16,106.21,262.16,122.96z
			 M528.71,68.57c92.43,0,184.81,0,277.24,0c0-17.05,0-34.03,0-50.92c-0.24-0.28-0.44-0.51-0.54-0.64c-92.15,0-184.18,0-276.14,0
			c-0.23,0.23-0.39,0.39-0.56,0.56C528.71,34.55,528.71,51.53,528.71,68.57z M16.33,17.55c0,16.92,0,33.75,0,50.5
			c0.24,0.24,0.4,0.4,0.55,0.55C33.59,69,255.77,68.82,258,68.42c0-17.14,0-34.27,0-51.44c-80.42,0-160.77,0-241.11,0
			C16.72,17.16,16.56,17.32,16.33,17.55z M524.99,284.81c0-16.43,0-32.66,0-48.81c-0.24-0.24-0.4-0.4-0.6-0.6
			c-87.29,0-174.62,0-261.94,0c-0.06,0-0.13,0.04-0.19,0.08c-0.06,0.04-0.1,0.11-0.06,0.06c0,16.48,0,32.86,0,49.26
			C349.83,284.81,437.37,284.81,524.99,284.81z M262.16,68.64c86.85,0,173.5,0,260.16,0c0.6,0,1.21,0.06,1.79-0.02
			c0.32-0.05,0.61-0.34,0.92-0.53c0-16.87,0-33.7,0-50.5c-0.19-0.19-0.35-0.35-0.56-0.56c-87.39,0-174.83,0-262.31,0
			C262.16,34.23,262.16,51.36,262.16,68.64z M258.03,126.63c-79.81,0-159.43,0-239.05,0c-0.52,0-1.06-0.06-1.57,0.02
			c-0.4,0.06-0.77,0.31-1.12,0.46c0,16.65,0,33.19,0,49.78c80.6,0,161.15,0,241.74,0C258.03,160.14,258.03,143.46,258.03,126.63z
			 M258.03,72.75c-80.7,0-161.19,0-241.74,0c0,16.6,0,33.13,0,49.79c0.35,0.15,0.71,0.4,1.11,0.47c0.51,0.08,1.05,0.02,1.57,0.02
			c78.94,0,157.89,0,236.83,0c0.73,0,1.46,0,2.23,0C258.03,106.2,258.03,89.52,258.03,72.75z M258,231.32c0-16.87,0-33.56,0-50.27
			c-80.43,0-160.78,0-241.06,0c-0.27,0.24-0.49,0.44-0.6,0.54c0,16.65,0,33.18,0,49.73C96.92,231.32,177.42,231.32,258,231.32z
			 M258.03,235.4c-79.81,0-159.43,0-239.04,0c-0.52,0-1.06-0.06-1.57,0.02c-0.4,0.06-0.77,0.31-1.1,0.45
			c-0.34,8.69-0.2,47.06,0.16,48.9c80.51,0,161.01,0,241.55,0C258.03,268.32,258.03,251.94,258.03,235.4z"/>
		<path d="M588.3,220.97c-0.8,0-1.38,0-2.03,0c-0.02-0.25-0.12-0.56-0.03-0.64c0.73-0.63,0.99-1.53,1.43-2.34
			c1.4-2.56,2.86-5.08,4.44-7.87c-0.62,0.23-1.02,0.46-1.45,0.53c-0.51,0.08-1.05,0.06-1.57,0.01c-3.03-0.25-5.4-1.58-6.95-4.26
			c-0.83-1.44-1.14-3.07-1.26-4.62c-0.18-2.26,0.68-4.44,1.93-6.34c1.15-1.75,3.05-2.61,4.96-3.15c3.39-0.96,7.58,1.19,9.23,4.4
			c0.83,1.61,1.38,3.34,1.26,5.06c-0.15,1.99-0.8,3.98-1.92,5.68c-0.47,0.71-0.99,1.39-1.21,2.2c-0.23,0.87-0.95,1.37-1.34,2.14
			c-1.4,2.72-3.16,5.25-4.46,8.03C589.12,220.26,588.65,220.59,588.3,220.97z M586.67,195.15c-0.41,0.41-0.96,1.02-1.57,1.56
			c-1.02,0.91-1.34,2.18-1.55,3.39c-0.38,2.18,0.25,4.24,1.31,6.16c0.14,0.25,0.3,0.52,0.53,0.67c1.57,1.04,3.25,1.77,5.2,1.51
			c1.04-0.14,3.3-1.47,3.7-2.19c1.07-1.92,1.68-3.98,1.31-6.16c-0.21-1.2-0.55-2.47-1.56-3.38c-0.61-0.55-1.17-1.16-1.64-1.63
			C590.47,194.32,588.66,194.27,586.67,195.15z"/>
		<path d="M562.48,204.7c-3.85-2.1-7.58-4.13-11.29-6.16c0-0.78,0-1.43,0-2.31c4.53,2.43,8.96,4.8,13.37,7.16c0,0.98,0,1.78,0,2.57
			c-2.18,1.16-4.39,2.31-6.59,3.5c-2.02,1.09-4.02,2.22-6.03,3.32c-0.17,0.09-0.39,0.11-0.7,0.18c0-0.78,0-1.48,0-2.26
			C554.96,208.73,558.7,206.73,562.48,204.7z"/>
		<path d="M565.93,218.39c0,0.74,0,1.39,0,2.11c-5.33,0-10.62,0-16.02,0c0-0.63,0-1.33,0-2.11
			C555.16,218.39,560.45,218.39,565.93,218.39z"/>
		<path d="M592.06,137.92c1.26,0,2.14,0,3.09,0c0,6.25,0,12.44,0,18.79c1.22,0,2.38,0,3.58,0c0,0.81,0,1.46,0,2.19
			c-1.12,0-2.22,0-3.55,0c0,1.09,0,2.11,0,3.13c0,1.04,0,2.07,0,3.18c-0.89,0-1.69,0-2.65,0c0-2,0-4.06,0-6.27
			c-4.16,0-8.16,0-12.29,0c0.39-0.94,0.58-1.79,1.05-2.44c1.51-2.04,2.49-4.37,3.81-6.51c1.57-2.56,2.81-5.32,4.56-7.78
			c0.47-0.66,0.64-1.53,1.04-2.26C591.12,139.22,591.65,138.54,592.06,137.92z M592.87,156.7c0-5.08,0-10.12,0-15.16
			c-3.25,4.89-6.11,9.95-8.94,15.16C587.02,156.7,589.91,156.7,592.87,156.7z"/>
		<path d="M608.73,139.83c-1.55,1.02-1.98,2.99-2.8,4.72c-0.57,0-1.07,0-1.56,0c-0.22-0.21-0.44-0.41-0.73-0.69
			c0.47-1.05,0.9-2.15,1.45-3.19c1.41-2.67,4.85-4.41,8.24-3.43c1.54,0.45,2.83,0.95,3.83,2.15c0.72,0.87,1.21,1.87,1.41,3
			c0.12,0.69,0.62,1.53,0.38,2.02c-0.45,0.92-0.13,1.89-0.48,2.72c-0.46,1.08-1.05,2.13-1.73,3.09c-1.37,1.92-2.85,3.76-4.26,5.65
			c-1.71,2.28-3.39,4.58-5.08,6.88c-0.02,0.03,0.03,0.1,0.08,0.28c1.97,0,3.97,0,5.97,0c1.94,0,3.88,0,5.93,0c0,0.72,0,1.43,0,2.19
			c-5.31,0-10.6,0-15.9,0c-0.86-1.25,0.93-1.61,0.9-2.6c2.05-1.95,3.43-4.44,5.21-6.6c1.9-2.31,3.73-4.7,5.39-7.19
			c1.58-2.37,2.13-4.91,0.52-7.62c-0.31-0.52-0.51-0.91-1.1-1.13c-0.52-0.19-0.97-0.55-1.53-0.88c-0.65,0-1.4-0.07-2.14,0.02
			C610.09,139.31,609.5,139.59,608.73,139.83z"/>
		<path d="M564.62,148.14c0,1.04,0,1.79,0,2.54c-1.72,0.91-3.47,1.76-5.13,2.81c-1.58,1-3.42,1.53-4.95,2.7
			c-0.91,0.69-2.1,1.02-3.3,1.57c0-0.83,0-1.54,0-2.34c3.7-1.98,7.44-3.98,11.24-6.01c-3.85-2.1-7.57-4.13-11.29-6.16
			c0-0.76,0-1.41,0-2.3C555.71,143.37,560.13,145.74,564.62,148.14z"/>
		<path d="M549.83,165.21c0-0.73,0-1.39,0-2.11c5.33,0,10.62,0,16.02,0c0,0.63,0,1.33,0,2.11
			C560.6,165.21,555.31,165.21,549.83,165.21z"/>
		<path d="M593.41,95.49c4.62,2.94,5.38,6.65,3.91,10.69c-0.82,2.23-2.87,3.53-5.29,4.34c-2.48,0.83-4.63,0.1-7.09-0.67
			c-6.14-4.39-4.05-11.97,0.39-14.02c0-0.79-0.69-1.12-1.15-1.53c-1.84-1.64-2.68-4.81-1.35-7.67c1.08-2.32,3.08-3.79,5.67-4.04
			c0.22-0.02,0.52,0.07,0.65-0.05c1.18-1.09,2.5-0.32,3.44,0.12c1.94,0.92,3.77,2.2,3.96,4.71c1.07,1.6,0.13,3.21-0.06,4.79
			c-0.08,0.68-0.8,1.32-1.33,1.9C594.7,94.54,594.13,94.9,593.41,95.49z M587.92,108.65c1.05,0,2.25,0,3.29,0
			c1.63-0.84,3.27-1.51,3.89-3.6c0.11-0.62,0.28-1.52,0.41-2.24c-0.48-1.65-0.33-3.43-1.89-4.52c-1.49-1.04-3.05-1.55-4.85-1.32
			c-0.42,0.05-0.89,0.05-1.24,0.25c-0.79,0.45-1.63,0.76-2.37,1.37c-1.39,1.16-0.96,2.92-1.55,4.03c0.17,1.05,0.3,1.88,0.37,2.32
			C584.66,107.14,586.29,107.81,587.92,108.65z M594.29,91.35c0-1.06,0.03-2.1-0.01-3.14c-0.02-0.41-0.15-0.82-0.3-1.21
			c-0.64-1.76-2.2-2.23-3.79-2.61c-1.17-0.28-2.25,0.3-3.57,0.57c-0.54,0.71-1.18,1.56-1.77,2.33c0,1.17-0.09,2.23,0.02,3.26
			c0.16,1.5,0.53,2.94,2.23,3.51c0.39,0.13,0.74,0.37,1.27,0.64c1.25,0.03,2.55-0.05,3.95-0.78C593.56,93.27,593.42,92,594.29,91.35
			z"/>
		<path d="M551.24,102.87c0-0.78,0-1.49,0-2.35c1.87-0.94,3.92-1.71,5.68-2.91c1.75-1.19,3.85-1.72,5.48-3.1
			c-1.93-1.02-3.85-2-5.73-3.03c-1.84-1-3.65-2.05-5.48-3.08c0-0.73,0-1.38,0-2.27c4.52,2.42,8.95,4.79,13.36,7.15
			c0,0.98,0,1.78,0,2.6c-2.47,1.3-4.99,2.61-7.5,3.95c-1.72,0.92-3.4,1.9-5.11,2.84C551.77,102.76,551.55,102.78,551.24,102.87z"/>
		<path d="M565.97,108.3c0,0.72,0,1.32,0,1.92c-0.29,0.3-9.93,0.4-16.1,0.16c0-0.64,0-1.29,0-2c0.04-0.02,0.15-0.17,0.27-0.17
			c5.01-0.01,10.02-0.01,15.03-0.01C565.44,108.2,565.71,108.27,565.97,108.3z"/>
		<path d="M613.26,261.52c-0.18,1.81-0.24,3.63-0.57,5.41c-0.4,2.13-1.22,4.13-2.55,5.9c-1.23,1.64-3.03,2.44-4.84,2.93
			c-1.49,0.41-3.14,0.15-4.66-0.52c-2.98-1.3-4.45-3.75-5.47-6.66c-0.4-1.14-0.14-2.35-0.49-3.4c-0.46-1.39-0.22-2.75-0.41-4.1
			c-0.2-1.42,0.52-2.72,0.45-4.08c-0.08-1.42,0.5-2.65,0.95-3.89c1.53-4.21,5.08-6.56,9.28-5.97c2.22,0.32,4.24,1.42,5.56,3.55
			c1.3,2.09,2.21,4.23,2.24,6.72c0.01,0.69,0.33,1.37,0.41,2.06c0.07,0.67,0.02,1.35,0.02,2.02
			C613.2,261.52,613.23,261.52,613.26,261.52z M605.26,249.34c-0.74,0-1.57-0.07-2.37,0.02c-0.61,0.07-1.33,0.21-1.75,0.6
			c-1.16,1.07-2.38,2.09-2.92,3.72c-0.56,1.68-1.26,3.29-1.24,5.1c0.01,1.42,0.07,2.85-0.01,4.27c-0.12,1.91,0.33,3.7,0.93,5.46
			c0.9,2.63,3.12,5.73,6.78,5.11c0.21-0.04,0.44,0,0.6,0c0.58-0.41,1.11-0.77,1.62-1.15c2.35-1.76,3.21-4.46,3.45-7.06
			c0.27-2.96,0.41-5.99-0.27-9.02C609.41,253.32,608.03,250.96,605.26,249.34z"/>
		<path d="M629.3,268.33c0.77-0.25,1.42-0.46,2.08-0.67c0.71,2.92,0.91,3.28,3.11,5.48c0.92,0.15,1.89,0.43,2.87,0.44
			c0.99,0.01,1.97-0.24,2.91-0.37c1.31-1.15,2.46-2.31,2.77-4.07c0.43-2.45,0.57-4.89-0.67-7.16c-0.96-1.77-2.55-2.62-4.53-2.75
			c-0.67-0.04-1.34-0.01-1.77-0.01c-1.82,0.88-3.41,1.71-4.19,3.53c-0.79,0.16-1.57,0.19-2.13-0.73c0.15-0.32,0.46-0.69,0.47-1.08
			c0.07-1.82,0.11-3.62,0.41-5.44c0.42-2.58,0.42-5.23,0.61-7.91c4.25,0,8.5,0,12.84,0c0,0.68,0,1.38,0,2.17c-3.53,0-7.03,0-10.59,0
			c-0.35,3.14-0.69,6.2-1.06,9.61c0.72-0.62,1.17-1.15,1.74-1.47c0.53-0.3,1.28-0.25,1.77-0.59c0.98-0.68,2.16-0.53,2.98-0.24
			c1.21,0.42,2.76,0.31,3.6,1.61c1.55,0.38,1.92,1.9,2.43,3c0.66,1.44,0.95,3.14,0.97,4.74c0.01,1.52-0.33,3.13-0.9,4.54
			c-0.43,1.09-1.31,2.12-2.24,2.87c-2.95,2.39-6.77,2.85-10.06,0.69C630.47,273.05,629.57,270.92,629.3,268.33z"/>
		<path d="M587.92,275.35c-0.68,0-1.33,0-2.12,0c0-7.71,0-15.44,0-23.44c-0.74,0.32-1.31,0.49-1.82,0.78
			c-0.97,0.55-1.9,1.16-3.05,1.88c0-1.13,0-1.97,0-3.03c2.38-0.99,4.34-2.97,6.99-4.16C587.92,256.83,587.92,266.06,587.92,275.35z"
			/>
		<path d="M551.22,251.08c4.57,2.46,9.02,4.85,13.39,7.2c0,0.98,0,1.73,0,2.59c-3.03,1.53-6.2,2.94-9.16,4.72
			c-1.32,0.8-2.71,1.44-4.2,2.42c-0.05-0.93-0.09-1.62-0.14-2.39c3.79-2.02,7.53-4.02,11.41-6.1c-2.84-1.51-5.52-2.91-8.18-4.35
			c-1.05-0.57-2.05-1.21-3.12-1.85C551.22,252.61,551.22,251.91,551.22,251.08z"/>
		<path d="M565.97,273.23c0,0.44,0,0.8,0,1.17c0,0.29,0,0.58,0,0.94c-5.37,0-10.65,0-16.1,0c-0.03-0.62-0.06-1.32-0.09-2.1
			C555.16,273.23,560.44,273.23,565.97,273.23z"/>
		<path d="M622.1,274.9c-0.82,0.23-1.56,0.43-2.34,0.65c-0.37-0.47-0.69-0.87-1.22-1.53c0.11-0.48,0.3-1.28,0.46-1.99
			c1.03-0.73,1.99-0.89,3.06,0.02C622.65,273.38,622.65,273.38,622.1,274.9z"/>
		<path d="M303.56,198.32c1.44-3.9,4.14-6.1,8.35-6.05c4.12,0.05,6.72,2.28,8.1,6.09c0.29,0.68,0.06,1.42,0.45,2.25
			c0.55,1.17-0.27,2.49-0.56,3.74c-0.54,2.35-2.2,4.16-3.19,6.31c-0.67,1.45-1.65,2.75-2.45,4.15c-0.93,1.63-1.79,3.3-2.72,4.93
			c-0.25,0.44-0.64,0.8-0.95,1.18c-0.75,0-1.46,0-2.37,0c1.12-1.9,2.18-3.61,3.16-5.37c0.95-1.7,1.81-3.45,2.69-5.13
			c-0.85,0.08-1.9,0.33-2.91,0.23c-2.82-0.26-5.13-1.41-6.61-4.02c-0.85-1.5-1.07-3.16-1.52-4.76c-0.11-0.41-0.19-1.07,0.04-1.3
			C303.79,199.86,303.27,199.01,303.56,198.32z M308.96,195.08c-1.07,1.21-2.55,2.23-2.97,4.22c-0.25,1.18-0.43,2.39-0.2,3.44
			c0.4,1.76,0.85,3.51,2.67,4.71c2.68,1.77,7.12,0.94,8.53-2.11c0.83-1.79,1.1-3.63,0.79-5.46c-0.2-1.17-0.56-2.48-1.67-3.33
			c-0.59-0.45-1.07-1.04-1.38-1.36C312.71,194.26,310.89,194.32,308.96,195.08z"/>
		<path d="M287.72,214.32c0,0.83,0,1.42,0,2.19c-0.22-0.12-0.35-0.2-0.49-0.27c-3.62-1.63-7-3.72-10.5-5.56
			c-0.68-0.36-1.35-0.73-2.02-1.1c0-0.76,0-1.5,0-2.51c0.8-0.46,1.7-1,2.63-1.49c3.19-1.7,6.38-3.39,9.58-5.08
			c0.18-0.1,0.39-0.14,0.72-0.24c0,0.79,0,1.5,0,2.19c-3.55,1.91-7.1,3.82-10.86,5.83C280.48,210.32,284.07,212.3,287.72,214.32z"/>
		<path d="M302.33,158.99c0.46-0.83,0.78-1.42,1.12-2.01c1.66-2.83,3.08-5.79,4.89-8.54c0.95-1.44,1.54-3.11,2.43-4.6
			c0.97-1.62,1.96-3.2,2.7-4.95c0.16-0.38,0.61-0.64,0.97-1c0.91,0,1.86,0,2.89,0c0,6.23,0,12.42,0,18.77c1.22,0,2.38,0,3.6,0
			c0,0.81,0,1.46,0,2.27c-1.11,0-2.27,0-3.5,0c0,2.16,0,4.16,0,6.25c-0.93,0-1.78,0-2.72,0c0-2.05,0-4.05,0-6.2
			C310.64,158.99,306.64,158.99,302.33,158.99z M315.12,141.63c-0.13-0.09-0.27-0.19-0.4-0.28c-2.85,5.07-5.75,10.11-8.57,15.32
			c3.04,0,5.98,0,8.96,0C315.12,151.6,315.12,146.61,315.12,141.63z"/>
		<path d="M325.61,165.21c-0.58-1.24,0.91-1.6,0.93-2.54c2.76-3.02,4.97-6.47,7.48-9.68c0.97-1.24,1.91-2.5,2.87-3.75
			c1.21-1.57,1.72-3.25,1.65-5.17c-0.02-0.45,0-0.9,0-1.3c-0.4-0.78-0.78-1.52-1.22-2.36c-0.66-0.34-1.41-0.72-2.5-1.29
			c-0.99,0.13-2.34,0.31-3.48,0.47c-1.91,1.23-2.38,3.16-3.15,4.94c-0.58,0-1.08,0-1.64,0c-0.15-0.15-0.36-0.36-0.63-0.63
			c0.15-0.42,0.32-0.86,0.48-1.32c1.41-4.15,4.53-6.02,8.55-5.62c0.93,0.69,2.26,0.29,3.12,1.12c0.99,0.95,2.03,1.86,2.39,3.27
			c0.17,0.67,0.41,1.33,0.63,1.98c0.25,0.73,0.17,1.33-0.26,2.03c-0.27,0.43-0.05,1.16-0.05,1.48c-1.37,2.97-3.12,5.34-5.08,7.62
			c-2,2.32-3.74,4.87-5.58,7.33c-0.23,0.31-0.33,0.72-0.53,1.16c3.96,0,7.9,0,12,0c0.04,0.77,0.07,1.47,0.1,2.25
			C336.31,165.21,331.02,165.21,325.61,165.21z"/>
		<path d="M287.67,159.11c0,0.73,0,1.39,0,2.18c-4.38-2.34-8.65-4.62-12.93-6.91c0-0.78,0-1.52,0-2.48c0.56-0.4,1.18-1.04,1.94-1.37
			c3.58-1.55,6.86-3.68,10.34-5.42c0.12-0.06,0.28-0.04,0.61-0.08c0.05,0.7,0.09,1.39,0.13,2.06c-3.62,1.94-7.17,3.85-10.86,5.83
			C280.28,155.34,284.2,156.71,287.67,159.11z"/>
		<path d="M306.92,109.68c-5.77-4.36-3.9-11.58,0.73-13.99c-0.4-0.45-0.75-0.9-1.15-1.3c-2.39-2.42-2.71-4.7-1.29-7.98
			c0.38-0.88,0.67-1.88,1.49-2.27c1.24-0.58,2.33-1.63,3.85-1.57c0.29,0.01,0.66,0.06,0.85-0.09c0.73-0.58,1.58-0.52,2.27-0.21
			c0.95,0.42,1.96,0.62,2.83,1.35c1.72,1.46,2.59,3.3,2.65,5.42c0.06,2.02-0.42,3.99-2.14,5.39c-0.39,0.32-0.72,0.71-1.08,1.07
			c1.27,1.03,2.43,1.93,3.13,3.31c0.38,0.75,1.09,2.23,1.02,2.94c-0.11,1.15,0.04,2.27-0.28,3.46c-0.53,2-1.77,3.25-3.34,4.31
			c-1.94,1.31-4.15,1.59-6.4,1.32C309.14,110.74,308.26,110.19,306.92,109.68z M305.86,102.88c0.46,1.57,0.3,3.36,1.86,4.44
			c1.42,0.98,2.89,1.55,4.62,1.33c0.49-0.06,1.05-0.04,1.46-0.26c0.8-0.43,1.63-0.76,2.37-1.37c1.39-1.16,0.96-2.92,1.55-4.03
			c-0.17-1.05-0.3-1.88-0.37-2.33c-0.66-2.19-2.29-2.86-3.92-3.7c-1.05,0-2.24,0-3.44,0c-2.81,1.72-2.81,1.72-3.69,3.2
			C306.15,101.11,306.01,101.94,305.86,102.88z M307.07,87.21c0,1.21-0.08,2.33,0.03,3.44c0.07,0.75,0.25,1.55,0.63,2.18
			c0.31,0.5,1.02,0.73,1.51,1.14c1.19,0.97,2.57,0.76,3.77,0.72c0.87-0.45,1.61-0.83,2.04-1.05c1.85-2.07,1.46-4.27,1.35-6.32
			c-0.33-1.85-2.03-2.08-3.53-3.05c-1.11,0.15-2.52,0.35-3.89,0.53C308.27,85.69,307.65,86.48,307.07,87.21z"/>
		<path d="M274.74,99.55c0-0.77,0-1.51,0-2.41c0.33-0.3,0.7-0.8,1.19-1.06c3.81-2,7.65-3.95,11.69-6.02
			c0.06,0.83,0.1,1.52,0.15,2.19c-3.61,1.94-7.17,3.85-10.86,5.83c3.37,2.41,7.27,3.81,10.73,6.17c0,0.64,0,1.34,0,2.18
			C283.3,104.11,279.03,101.83,274.74,99.55z"/>
		<path d="M640.77,40.15c-1.7,0.43-3.25,0.82-4.9,1.24c-0.53-1.97-1.99-3.11-3.31-4.32c-0.54-0.5-1.26-0.88-2.14-0.8
			c-0.7,0.06-1.28-0.9-2.17-0.1c-0.44,0.4-1.4,0.16-2.06,0.39c-2.06,0.73-3.5,2.17-4.23,4.22c-0.64,1.8-1.33,3.68-1.08,5.58
			c0.14,1.06,0.36,2.11,0.37,3.01c0.99,1.91,1.7,3.82,3.54,4.91c1.93,1.14,4.05,0.88,5.73,0.89c2.6-0.87,4.12-2.34,4.52-4.91
			c-1.29-1.14-3.11-0.08-4.73-0.59c0-1.23,0-2.48,0-3.83c3.22,0,6.47,0,9.77,0c0,4.57,0,9.12,0,13.75c-1.39,0-2.79,0-4.36,0
			c-0.04-0.75-0.09-1.61-0.16-2.76c-0.51,0.51-0.87,0.93-1.28,1.27c-0.38,0.31-0.82,0.55-1.24,0.8c-0.66,0.4-1.28,0.83-2.15,0.81
			c-0.61-0.01-1.22,0.28-1.84,0.41c-0.22,0.05-0.48,0.08-0.67,0c-1.76-0.78-3.83-0.28-5.51-1.34c-0.89-0.56-1.89-1.02-2.64-1.73
			c-1.6-1.53-2.81-3.38-3.47-5.51c-0.78-2.5-1.27-5.11-0.87-7.7c0.45-2.91,1.21-5.73,3.34-8.06c1.88-2.05,3.92-3.35,6.64-4.01
			c1.38-0.33,2.74-0.55,4.09-0.37c3.67,0.5,6.94,1.28,9.31,6.08C639.72,38.31,640.22,39.15,640.77,40.15z"/>
		<path d="M593.46,59.54c0-9.3,0-18.48,0-27.76c3.72,0,7.38-0.02,11.03,0.01c1.62,0.01,4.18,1.14,5.34,2.27
			c1.16,1.13,1.57,2.67,1.94,4.12c0.43,1.71,0.07,3.54-0.56,5.12c-0.7,1.75-2.13,3.04-3.96,3.75c-0.13,0.05-0.24,0.14-0.49,0.29
			c2.23,4.12,4.93,7.96,7.49,12.18c-1.89,0.23-3.63,0.04-5.58,0.13c-2.54-4.05-5.12-8.16-7.62-12.14c-0.87,0-1.46,0-2.05,0
			c-0.22,0.22-0.44,0.44-0.72,0.72c0,3.72,0,7.52,0,11.29C596.59,59.54,594.99,59.54,593.46,59.54z M604.73,42.98
			c0.64-0.57,1.19-1.06,1.67-1.5c0.03-0.4-0.07-0.83,0.08-0.95c1.04-0.84-0.03-1.59-0.12-2.34c-0.05-0.49-0.54-1.09-1-1.32
			c-0.66-0.34-1.46-0.52-2.21-0.56c-1.4-0.08-2.81-0.02-4.11-0.02c-0.3,0.28-0.52,0.48-0.65,0.59c0,2.09,0,4.08,0,6.11
			C600.62,42.98,602.76,42.98,604.73,42.98z"/>
		<path d="M565.62,59.58c3.12-9.31,6.18-18.57,9.26-27.74c1.8,0,3.35,0,5.11,0c3.08,9.22,6.16,18.46,9.26,27.76
			c-1.71,0-3.41,0-5.32,0c-0.39-1.01-0.89-2.08-1.2-3.21c-0.32-1.14-0.33-2.38-1.14-3.41c-2.74,0-5.49,0-8.4,0
			c-0.65,2.12-1.33,4.31-2.03,6.6C569.45,59.58,567.6,59.58,565.62,59.58z M574.58,48.34c1.91,0,3.81,0,5.8,0
			c-0.97-3.2-1.9-6.29-2.92-9.65C576.46,42.07,575.53,45.17,574.58,48.34z"/>
		<path d="M660.77,42.5c0,1.63,0,3.03,0,4.57c-1.59,0-3.15,0-4.7,0c-1.49,0-2.99,0-4.47,0c-0.23,0.23-0.44,0.44-0.66,0.66
			c0,2.23,0,4.47,0,6.8c0.18,0.15,0.41,0.33,0.77,0.63c1.84,0,3.85,0,5.86,0c1.93,0,3.87,0,5.87,0c0,1.48,0,2.88,0,4.39
			c-5.74,0-11.54,0-17.4,0c0-9.18,0-18.36,0-27.66c5.59,0,11.24,0,16.95,0c0,1.39,0,2.79,0,4.39c-1.35,0-2.75,0-4.15,0
			c-2.17,0-4.34-0.02-6.51,0.02c-0.46,0.01-0.92,0.24-1.37,0.37c0,2.05,0,3.9,0,5.82C654.19,42.5,657.39,42.5,660.77,42.5z"/>
		<path d="M546.26,59.44c0-9.19,0-18.37,0-27.6c1.61,0,3.16,0,4.88,0c0,0.65,0,1.3,0,1.95c0,6.51,0,13.01,0.01,19.52
			c0,0.64-0.26,1.4,1.01,1.85c3.22,0,6.87,0,10.59,0c0,1.47,0,2.87,0,4.28C561.05,59.74,548.07,59.75,546.26,59.44z"/>
		<path d="M335.9,261.63c-0.17,1.88-0.13,3.82-0.57,5.63c-0.65,2.7-1.67,5.41-4.08,7.03c-2.43,1.63-5.12,2.17-8.04,0.9
			c-2.95-1.28-4.35-3.7-5.34-6.49c-0.33-0.94-0.55-1.91-0.5-2.95c0.03-0.75-0.33-1.52-0.4-2.28c-0.08-0.82,0.08-1.66-0.04-2.47
			c-0.22-1.42,0.53-2.72,0.44-4.08c-0.09-1.42,0.5-2.66,0.97-3.88c1.01-2.6,2.73-4.55,5.51-5.52c1.88-0.66,3.74-0.6,5.45,0.1
			c1.61,0.66,3,1.7,4.01,3.36c1.21,2.01,1.97,4.03,2.09,6.34c0.04,0.69,0.34,1.37,0.42,2.06c0.08,0.74,0.02,1.5,0.02,2.24
			C335.86,261.62,335.88,261.62,335.9,261.63z M327.94,273.61c0.56-0.38,1.04-0.68,1.49-1.02c2.43-1.79,3.36-4.54,3.59-7.23
			c0.26-2.96,0.42-6-0.28-9.03c-0.7-3.03-2.06-5.41-4.83-7c-0.68,0-1.44,0.07-2.17-0.02c-0.65-0.09-1.14,0.17-1.6,0.48
			c-1.08,0.74-2.05,1.6-2.7,2.79c-1.11,2.02-1.74,4.15-1.78,6.45c-0.02,1.35,0.07,2.7-0.02,4.04c-0.13,1.91,0.33,3.71,0.94,5.46
			c0.96,2.73,3.16,5.7,6.81,5.07C327.53,273.59,327.68,273.61,327.94,273.61z"/>
		<path d="M351.48,268.37c0.81-0.29,1.4-0.51,2.05-0.74c0.27,0.75,0.53,1.38,0.73,2.03c0.81,2.6,2.57,3.84,5.17,3.98
			c4.16,0.23,6.09-3.21,6.03-6.04c-0.03-1.36,0.57-2.81-0.4-4.09c-0.13-2.08-1.49-3.12-3.24-3.83c-0.19-0.08-0.36-0.23-0.6-0.39
			c-3.13-0.49-5.54,0.67-7.21,3.5c-0.66,0.05-1.43,0.24-1.87-0.48c0.11-0.97,0.34-1.88,0.3-2.77c-0.11-2.36,0.8-4.64,0.47-7
			c0.91-1.51,0.19-3.18,0.54-4.85c-0.04,0.04,0-0.02,0.07-0.06c0.06-0.04,0.13-0.07,0.19-0.07c4.18,0,8.36,0,12.61,0
			c0,0.74,0,1.39,0,2.2c-3.5,0-7.06,0-10.62,0c-0.35,3.22-0.69,6.28-1.08,9.85c1.76-2.12,3.72-2.81,5.93-2.58
			c1.83,0.19,3.54,0.86,4.98,2.06c0.92,0.77,2.06,3.53,2.22,4.92c0.07,0.62,0.44,1.23,0.41,1.84c-0.16,2.96-0.6,5.86-3.05,7.93
			c-2.82,2.39-6.93,2.98-10.25,0.73C352.69,273,351.87,270.91,351.48,268.37z"/>
		<path d="M310.08,275.36c-0.65,0-1.3,0-2.08,0c0-7.74,0-15.47,0-23.31c-1.12,0.08-1.75,0.71-2.48,1.25
			c-0.65,0.48-1.49,0.69-2.39,1.08c0-0.95,0-1.81,0-2.71c2.21-1.4,4.45-2.82,6.72-4.26C310.33,248.96,310.48,270.1,310.08,275.36z"
			/>
		<path d="M287.64,255.13c0,0.72,0,1.37,0,2.14c-3.48,1.87-7.09,3.82-10.88,5.85c3.72,2.04,7.33,4.02,10.92,6c0,0.76,0,1.42,0,2.28
			c-4.35-2.32-8.6-4.58-12.91-6.88c0-0.78,0-1.59,0-2.45c0.63-0.7,1.48-1.13,2.4-1.58c3.3-1.63,6.51-3.45,9.76-5.19
			C287.12,255.22,287.34,255.21,287.64,255.13z"/>
		<path d="M342.01,275.52c-0.48-0.48-0.84-0.84-1.33-1.33c0.16-0.66,0.34-1.4,0.5-2.1c1-0.85,2.01-1,3.12-0.09
			c0.59,0.86,0.79,1.82-0.27,2.98C343.54,275.11,342.74,275.33,342.01,275.52z"/>
		<path d="M316.95,59.65c0-5.6,0-11.05,0-16.49c-0.07-0.02-0.14-0.03-0.21-0.05c-1.63,4.55-3.25,9.09-4.93,13.76
			c-1.1,0-2.35,0-3.81,0c-1.65-4.53-3.36-9.21-5.07-13.89c-0.45,2.77-0.33,5.51-0.35,8.24c-0.02,2.76,0,5.52,0,8.35
			c-1.62,0-3.17,0-4.83,0c0-9.17,0-18.41,0-27.72c1.82,0,3.67,0,5.67,0c2.09,5.61,4.22,11.31,6.47,17.34
			c2.22-5.97,4.31-11.58,6.45-17.33c1.63,0,3.48,0,5.34,0c0.34,1.8,0.46,19.9,0.15,27.78c-0.79,0-1.59,0-2.4,0
			C318.68,59.65,317.93,59.65,316.95,59.65z"/>
		<path d="M334.88,31.83c1.76,0,3.31,0,5.08,0c3.08,9.21,6.16,18.46,9.27,27.76c-1.7,0-3.4,0-5.18,0c-1.37-1.92-1.22-4.5-2.38-6.61
			c-2.83,0-5.57,0-8.49,0c-0.65,2.1-1.33,4.28-2.04,6.59c-1.75,0-3.66,0-5.55,0C328.74,50.29,331.73,41.01,334.88,31.83z
			 M340.38,48.38c-0.99-3.25-1.93-6.32-2.95-9.68c-1.02,3.44-1.94,6.53-2.88,9.68C336.48,48.38,338.33,48.38,340.38,48.38z"/>
		<path d="M285.89,54.98c0.33-0.33,0.8-0.8,1.27-1.27c0.2-0.68,0.4-1.35,0.61-2.05c-0.64-1.9-2.21-2.78-3.82-3.75
			c-1.44-0.87-2.96-1.58-4.41-2.41c-2.05-1.16-2.72-3.04-3.35-4.92c-0.51-1.5-0.13-3.14,0.44-4.66c1.58-4.15,6.58-5.54,10.12-4.01
			c2.09,0.91,3.75,2.32,4.65,4.49c-1.34,0.87-2.62,1.71-4,2.61c-0.54-1.77-2.06-2.45-3.67-3.18c-0.8,0.42-1.99,0.39-2.67,1.66
			c0,0.58,0,1.39,0,1.98c0.51,1.46,1.49,2.13,2.73,2.68c1.71,0.75,3.42,1.61,4.94,2.69c2.6,1.85,4.45,4.25,3.93,7.7
			c-0.23,1.5-0.58,3.05-1.48,4.31c-0.85,1.18-2.12,1.96-3.43,2.53c-1.75,0.75-3.71,1.08-5.53,0.66c-3.29-0.77-4.85-1.85-6.85-4.96
			c-0.51-0.78-0.55-1.87-0.8-2.81c1.36-0.92,2.58-1.75,3.87-2.62c0.45,1.09,0.72,2.19,1.32,3.07c0.62,0.91,1.55,1.61,2.19,2.26
			c0.78,0.25,1.37,0.58,1.97,0.58C284.51,55.57,285.11,55.23,285.89,54.98z"/>
		<path d="M353.4,59.58c0-9.26,0-18.44,0-27.71c1.56,0,3.11,0,4.76,0c-0.04-0.04,0.02,0,0.06,0.06c0.04,0.05,0.08,0.12,0.08,0.19
			c0,7.47,0,14.94,0,22.37c0.21,0.21,0.36,0.36,0.6,0.6c3.57,0,7.21,0,11.01,0c0.03,0.78,0.06,1.5,0.08,2.22
			c0.01,0.74,0,1.47,0,2.28C364.48,59.58,359.04,59.58,353.4,59.58z"/>
		<path d="M391.08,55.08c0,1.63,0,3.03,0,4.5c-5.48,0-10.92,0-16.37,0c-0.34-1.9-0.45-18.11-0.17-27.71c1.6,0,3.2,0,4.87,0
			c0,7.59,0,15.12,0,22.59c0.22,0.22,0.38,0.38,0.62,0.62C383.6,55.08,387.24,55.08,391.08,55.08z"/>
		<path d="M47.71,137.46c0.96,0,1.76,0,2.64,0c0,7.14,0,14.23,0,21.36c0.88,1.23,1.75,2.45,2.63,3.67c1.09,0.2,2.17,0.16,2.99,0.61
			c0.66,0.36,1.31,0.54,1.85,0.33c1.41-0.55,3.01-0.7,4.18-1.86c1.24-1.22,1.87-2.7,1.88-4.39c0.04-6.52,0.02-13.03,0.02-19.66
			c0.85,0,1.7,0,2.7,0c0,0.93,0,1.88,0,2.84c0,3.89,0,7.79,0,11.68c0,1.35,0.07,2.7-0.02,4.04c-0.08,1.21-0.34,2.4-0.51,3.47
			c-0.18,0.44-0.29,0.77-0.45,1.07c-1.64,3.23-4.7,5.05-8.37,5.11c-2.97,0.05-5.46-0.96-7.47-3.13c-0.88-0.95-1.32-2.08-1.68-3.35
			c-0.38-1.38-0.38-2.72-0.39-4.1C47.71,149.32,47.71,143.48,47.71,137.46z"/>
		<path d="M28.92,163.05c4.33,0,8.58,0,12.89,0c0,0.73,0,1.38,0,2.14c-5.16,0-10.36,0-15.61,0c0-9.21,0-18.4,0-27.68
			c5.14,0,10.29,0,15.6,0c0.03,0.61,0.06,1.31,0.1,2.09c-4.34,0-8.59,0-12.95,0c0,3.33,0,6.58,0,9.92c3.35,0,6.7,0,10.14,0
			c0,0.78,0,1.49,0,2.27c-3.39,0-6.74,0-10.17,0C28.92,155.51,28.92,159.16,28.92,163.05z"/>
		<path d="M41.87,82.62c0.96,0,1.76,0,2.7,0c0,0.84,0,1.65,0,2.46c0,4.04,0,8.09,0,12.13c0,1.35,0.07,2.7-0.02,4.04
			c-0.08,1.21-0.34,2.4-0.51,3.47c-0.18,0.43-0.29,0.76-0.45,1.07c-1.63,3.23-4.71,5.05-8.37,5.11c-2.97,0.05-5.46-0.96-7.47-3.13
			c-0.88-0.95-1.32-2.09-1.68-3.35c-0.38-1.38-0.38-2.72-0.39-4.1c-0.01-5.84,0-11.68,0-17.64c0.85,0,1.7,0,2.64,0
			c0,7.07,0,14.16,0,20.89c0.81,1.78,1.6,3.16,3.13,4.16c0.71,0.13,1.74,0.08,2.48,0.52c0.66,0.39,1.31,0.55,1.85,0.34
			c1.41-0.55,3.01-0.7,4.18-1.85c1.24-1.22,1.87-2.7,1.88-4.39C41.89,95.84,41.87,89.32,41.87,82.62z"/>
		<path d="M50.94,82.62c0.88,0,1.68,0,2.64,0c0,3.9,0,7.75,0,11.72c3.6-3.99,7.07-7.83,10.58-11.71c1.01,0,2.11,0,3.5,0
			c-0.6,0.6-1.06,1.03-1.48,1.49c-2.07,2.21-4.16,4.41-6.19,6.65c-1.27,1.4-2.46,2.88-3.74,4.39c4.01,5,8.05,10.05,12.16,15.19
			c-0.99,0-1.94,0-3.11,0c-3.75-4.64-7.64-9.45-11.71-14.49c0,4.99,0,9.74,0,14.54c-0.96,0-1.76,0-2.64,0
			C50.94,101.19,50.94,91.99,50.94,82.62z"/>
		<path d="M105.25,220.49c0-3.51,0.04-6.95-0.01-10.38c-0.03-1.81-0.21-3.62-0.32-5.43c-0.82-0.6-1.31-1.39-2.24-1.82
			c-0.6-0.28-1.2-0.39-1.67-0.23c-0.97,0.33-2.05,0.72-2.75,1.42c-0.86,0.87-1.64,1.93-2.01,3.18c-0.25,0.82-0.29,1.69-0.49,2.5
			c-0.87,3.52-0.08,7.08-0.5,10.72c-0.6,0-1.3,0-2.08,0c0-5.11,0-10.25,0-15.31c-0.57-0.78-1.07-1.47-1.53-2.1
			c-0.29,0-0.47,0.06-0.58-0.01c-1.27-0.72-2.32-0.36-3.54,0.35c-1.38,0.81-2.39,1.84-2.93,3.27c-0.69,1.82-1.04,3.69-0.95,5.68
			c0.12,2.68,0.03,5.37,0.03,8.15c-0.75,0-1.46,0-2.2,0c0-6.54,0-13.03,0-19.61c0.66,0,1.31,0,2.13,0c0,1.06,0,2.22,0,3.54
			c1.2-1.24,2.14-2.37,3.42-3.25c1.44-0.98,2.89-0.75,4.47-0.83c0.78,0.48,1.74,0.86,2.41,1.53c0.67,0.68,1.06,1.64,1.58,2.51
			c1.87-2.8,4.31-4.46,7.72-3.99c0.97,0.13,1.92,0.81,2.77,1.39c0.73,0.49,0.88,1.37,1.13,2.21c0.43,1.44,0.39,2.87,0.39,4.32
			c0.01,4.03,0,8.06,0,12.17C106.79,220.49,106.13,220.49,105.25,220.49z"/>
		<path d="M25.69,192.75c0.98,0,1.78,0,2.65,0c0,7.15,0,14.24,0,21.38c0.88,1.22,1.75,2.44,2.51,3.49c1.23,0.3,2.1,0.91,3.15,0.7
			c0.48,0.71,1.28,0.61,1.81,0.38c1.33-0.58,2.88-0.63,4.02-1.69c1.34-1.25,2.02-2.77,2.02-4.56c0.03-6.51,0.01-13.03,0.01-19.65
			c0.86,0,1.72,0,2.7,0c0,2,0,4.01,0,6.01c0,2.85-0.01,5.69,0,8.54c0.02,2.56,0.08,5.13-0.66,7.8c0.04-0.04-0.14,0.05-0.16,0.18
			c-0.78,3.51-3.71,4.61-6.57,5.57c-1.21,0.41-2.75,0.39-3.97,0.02c-0.84-0.26-1.82-0.15-2.59-0.78c-0.94-0.77-2.09-1.27-2.89-2.24
			c-0.82-1-1.31-2.09-1.66-3.37c-0.37-1.38-0.38-2.73-0.38-4.1C25.68,204.59,25.69,198.75,25.69,192.75z"/>
		<path d="M62.55,211.45c-1.05-1.96-2.59-3.27-4.53-4.2c-1.38-0.66-2.71-1.44-4.06-2.14c-2.17-1.12-2.89-3.13-3.46-5.08
			c-0.46-1.61,0.48-3.25,1.16-4.84c0.58-1.38,1.74-2,2.82-2.43c3.51-1.38,7.13-0.14,8.79,3.13c0.06,0.12,0.12,0.25,0.23,0.47
			c-0.51,0.64-0.92,1.45-2.02,1.28c-0.55-1.23-1.51-2.08-2.7-2.61c-1.16-0.51-2.41-0.64-4.01,0.23c0.08-0.09-0.17,0.19-0.42,0.46
			c-0.26,0.27-0.53,0.53-0.7,0.7c-0.75,1.23-0.53,2.48-0.52,3.7c1.09,1.73,2.42,3.14,4.38,3.98c1.59,0.68,3.05,1.66,4.56,2.53
			c2.11,1.21,2.77,3.27,3.19,5.49c0.26,1.42-0.45,2.7-0.48,4.08c-0.01,0.24-0.29,0.47-0.43,0.71c-1.57,2.92-5.52,4.9-8.67,4.04
			c-1.36-0.37-2.77-0.9-3.92-1.92c-1.34-1.18-1.89-2.8-2.68-4.29c-0.15-0.29-0.02-0.74-0.02-1.25c0.62-0.46,1.32-0.96,1.94-1.42
			c0.55,1.33,1.02,2.7,1.67,3.99c0.64,1.27,1.68,2.1,3.18,2.27c0.55,0.06,1.07,0.39,1.61,0.4c0.46,0.01,0.91-0.32,1.39-0.41
			c1.69-0.3,2.55-1.49,3.24-2.89c0.18-0.37,0.41-0.76,0.43-1.16C62.59,213.32,62.55,212.34,62.55,211.45z"/>
		<path d="M130.04,215.76c-0.89,1.06-1.79,1.99-2.53,3.03c-1.11,1.57-2.85,1.93-4.49,2.18c-2.56,0.39-4.99-0.36-6.99-2.02
			c-1.44-1.19-2.26-2.92-2.65-4.72c-0.29-1.32-0.64-2.65-0.54-4.07c0.16-2.06,1.11-5.59,2.51-7.04c1.06-1.1,2.26-2.15,3.95-2.35
			c0.84-0.1,1.62-0.46,2.51-0.44c3.3,0.04,6.59,2.13,7.99,5.49c0.05,0.13,0.17,0.28,0.14,0.38c-0.23,0.78,0.49,1.33,0.47,2.06
			c-0.02,0.74,0,1.49,0,2.39c-4.93,0-9.83,0-14.72,0c-0.23,3.86,0.01,4.43,3.15,7.56c0.71,0.18,1.45,0.44,2.21,0.54
			c0.74,0.09,1.5,0.02,2.2-0.03c2.3-0.52,3.43-2.43,4.76-4.14C128.74,215.01,129.34,215.36,130.04,215.76z M127.78,208.34
			c-0.24-3.01-1.87-4.75-4.49-5.71c-0.99,0-2.03,0-3.06,0c-2.81,0.84-3.68,3.25-4.77,5.71C119.6,208.34,123.58,208.34,127.78,208.34
			z"/>
		<path d="M150.2,220.52c-0.78,0-1.43,0-2.25,0c0-1.55,0-3.1,0-4.65c0-2.47,0.05-4.94-0.02-7.4c-0.03-1.14-0.17-2.3-0.45-3.4
			c-0.43-1.68-3.13-2.94-4.88-2.27c-2.73,1.04-3.77,1.79-4.98,5.21c-0.16,0.46-0.37,0.91-0.43,1.39c-0.08,0.59-0.02,1.19-0.02,1.79
			c0,3.06,0,6.12,0,9.28c-0.73,0-1.43,0-2.19,0c0-6.51,0-13,0-19.58c0.68,0,1.38,0,2.24,0c0,1.17,0,2.33,0,3.95
			c0.54-0.89,0.74-1.44,1.12-1.82c2.39-2.44,5.31-3.47,8.72-2.04c1.59,0.66,2.14,2.04,2.63,3.38c0.3,0.81,0.58,1.72,0.55,2.71
			c-0.09,4.04-0.04,8.08-0.04,12.11C150.2,219.61,150.2,220.04,150.2,220.52z"/>
		<path d="M145.7,275.36c-0.81,0-1.47,0-2.19,0c0-5.19,0-10.33,0-15.4c-0.57-0.77-1.07-1.46-1.53-2.08c-0.3,0-0.48,0.06-0.59-0.01
			c-1.27-0.7-2.32-0.38-3.54,0.35c-1.37,0.82-2.36,1.85-2.92,3.28c-0.71,1.82-1.02,3.7-0.94,5.68c0.11,2.68,0.03,5.37,0.03,8.14
			c-0.7,0-1.36,0-2.07,0c-0.02-0.03-0.17-0.15-0.17-0.26c-0.01-6.43-0.01-12.85-0.01-19.35c0.71,0,1.37,0,2.18,0
			c0,1.07,0,2.23,0,3.55c1.05-1.12,1.86-2.2,2.88-3.02c1.84-1.47,5.1-1.45,6.96,0c0.6,0.47,1,1.21,1.44,1.86
			c0.23,0.34,0.36,0.75,0.57,1.19c1.99-3.06,4.62-4.57,8.06-4.07c0.44,0.18,0.77,0.29,1.07,0.45c1.39,0.73,2.27,1.7,2.54,3.42
			c0.18,1.14,0.36,2.27,0.36,3.42c0.01,4.25,0,8.51,0,12.84c-0.73,0-1.38,0-2.25,0c0-0.51,0-1.08,0-1.65c0-2.62,0.04-5.24-0.01-7.86
			c-0.04-2.11-0.18-4.22-0.27-6.27c-0.87-0.67-1.38-1.44-2.3-1.87c-0.6-0.29-1.21-0.37-1.68-0.22c-0.98,0.32-2.06,0.72-2.74,1.43
			c-0.85,0.88-1.67,1.91-2,3.19c-0.1,0.4-0.48,0.81-0.41,1.16c0.26,1.36-0.53,2.54-0.5,3.86C145.75,269.8,145.7,272.49,145.7,275.36
			z"/>
		<path d="M97.03,271.66c0.41-1.05,0.83-1.79,1.01-2.59c0.69-3.21,1.64-6.34,2.55-9.49c0.37-1.27,0.62-2.57,1.18-3.86
			c0.82,0,1.67,0,2.58,0c-2.01,6.59-3.99,13.09-5.99,19.64c-0.76,0-1.57,0-2.48,0c-1.54-5.17-2.54-10.53-4.23-16.12
			c-1.41,5.66-2.72,10.87-4.03,16.13c-0.82,0-1.62,0-2.53,0c-0.62-1.89-1.28-3.78-1.85-5.71c-1.14-3.86-2.08-7.78-3.57-11.54
			c-0.28-0.7-0.29-1.51-0.44-2.37c0.81,0,1.67,0,2.46,0c1.46,5.17,2.91,10.33,4.45,15.76c0.28-0.51,0.58-0.86,0.68-1.26
			c0.56-2.17,1.06-4.35,1.6-6.52c0.51-2.03,1.03-4.06,1.57-6.08c0.16-0.6,0.38-1.19,0.61-1.91c0.67,0,1.47,0,2.36,0
			C94.25,260.82,95.58,266.02,97.03,271.66z"/>
		<path d="M41.87,247.59c0.98,0,1.78,0,2.7,0c0,2.06,0,4.06,0,6.07c0,2.85,0.01,5.69,0,8.54c-0.01,2.56,0.21,5.14-0.51,7.65
			c-0.11,0.11-0.28,0.2-0.31,0.32c-0.78,3.51-3.71,4.61-6.57,5.57c-1.21,0.41-2.75,0.39-3.97,0.02c-0.84-0.26-1.82-0.15-2.59-0.78
			c-0.94-0.77-2.09-1.27-2.89-2.24c-0.82-1-1.31-2.09-1.66-3.37c-0.37-1.38-0.38-2.73-0.38-4.1c-0.01-5.84,0-11.68,0-17.62
			c0.86,0,1.72,0,2.66,0c0,7.09,0,14.19,0,20.81c0.72,1.96,1.71,3.19,2.99,4.23c0.9-0.07,1.68,0.77,2.67,0.48
			c1.34,1.18,2.64,0.08,3.79-0.28c2.83-0.88,4.05-2.88,4.07-6.04C41.9,260.48,41.87,254.11,41.87,247.59z"/>
		<path d="M63.52,251.22c-1,1.12-1.02,1.1-1.89,1.24c-0.61-0.69-1.09-1.45-1.77-1.93c-0.66-0.47-1.6-0.54-2.25-1.01
			c-0.98-0.7-1.58,0.73-2.32,0.24c-1.98,1.28-2.51,3.07-2.1,5.26c1.04,1.98,2.76,3.28,4.85,4.22c1.4,0.63,2.73,1.37,4.03,2.2
			c1.99,1.26,2.74,3.17,3.16,5.28c0.3,1.53-0.03,3.12-0.58,4.46c-0.78,1.89-2.32,3.43-4.23,4.17c-3.37,1.3-7.16,0.34-9.39-2.3
			c-1.09-1.29-1.91-2.78-2.01-4.68c0.66-0.49,1.35-0.99,2-1.47c0.49,1.21,0.95,2.42,1.48,3.61c0.68,1.55,1.79,2.54,3.57,2.66
			c0.78,0.05,1.55,0.95,2.32-0.01c1,0.29,1.67-0.36,2.31-0.92c0.76-0.68,1.26-1.51,1.56-2.56c0.63-2.22,0.31-3.75-1.08-5.37
			c-1.41-1.65-3.47-2.15-5.17-3.28c-0.86-0.57-1.88-0.9-2.75-1.47c-1.65-1.09-2.31-2.94-2.75-4.67c-0.42-1.64,0.5-3.26,1.15-4.85
			c0.57-1.39,1.73-2.02,2.81-2.44c3.46-1.37,7.13-0.18,8.79,3.11C63.31,250.84,63.38,250.96,63.52,251.22z"/>
		<path d="M173.58,273.6c2.83-0.62,3.94-2.44,5.19-4.19c0.71,0.4,1.31,0.75,2.06,1.18c-0.88,1.04-1.76,1.96-2.48,2.98
			c-1.11,1.57-2.82,1.99-4.47,2.23c-2.64,0.38-5.14-0.33-7.17-2.12c-1.34-1.18-2.16-2.83-2.53-4.54c-0.28-1.32-0.66-2.64-0.55-4.07
			c0.21-2.6,0.91-5.02,2.47-7.06c0.93-1.22,2.3-2.1,3.93-2.37c0.77-0.13,1.52-0.38,2.29-0.43c3.44-0.21,6.99,2.18,8.23,5.41
			c0.08,0.19,0.15,0.39,0.2,0.59c0.34,1.34,0.61,2.69,0.42,4.12c-0.02,0.02-0.06,0.08-0.12,0.13c-0.05,0.04-0.13,0.08-0.19,0.08
			c-4.78,0-9.56,0-14.38,0c-0.55,3.19,0.69,5.56,3.32,7.59C171.05,273.76,172.66,273.61,173.58,273.6z M178.51,263.16
			c0.09-1.81-0.72-3.11-1.87-4.23c-1.58-1.53-3.54-1.71-5.52-1.39c-2.91,0.73-3.75,3.17-4.86,5.62
			C170.37,263.16,174.36,263.16,178.51,263.16z"/>
		<path d="M125.83,262.17c0.18,1.08,0.51,2.21,0.51,3.34c0,1.13-0.33,2.25-0.53,3.48c-0.19,0.32-0.49,0.72-0.68,1.16
			c-1.64,3.92-3.46,4.32-6.55,5.59c-0.64,0.26-1.47,0.17-2.19,0.1c-2.11-0.19-5.13-1.43-6.76-3.77c-1.78-2.56-2.48-5.24-2.07-8.1
			c0.52-3.55,2.22-6.55,5.74-8.06c3.03-1.3,5.89-0.81,8.67,0.9c1.73,1.06,2.46,2.8,3.44,4.39
			C125.59,261.49,125.68,261.83,125.83,262.17z M113.95,257.94c-0.63,0.63-1.31,1.32-2.01,2c-0.68,0.66-1.08,1.42-1.34,2.36
			c-0.61,2.17-0.65,4.62,0.06,6.81c0.59,1.8,1.96,3.27,3.55,3.96c3.14,1.37,6.2,0.51,8.2-2.89c0.95-1.61,1.33-3.25,1.27-5.09
			c-0.08-2.58-1.08-4.71-3.02-6.37c-0.62-0.53-1.44-0.84-2.28-1.3c-0.62,0-1.37-0.06-2.11,0.02
			C115.52,257.53,114.78,257.76,113.95,257.94z"/>
		<path d="M185.33,255.67c0.73,0,1.38,0,2.19,0c0,1.19,0,2.35,0,3.69c0.9-1.04,1.53-2.02,2.41-2.7c0.8-0.62,1.85-0.92,3.02-1.47
			c1.44,0.01,3.15-0.12,4.76,0.85c0.65,0.39,1.14,0.77,1.5,1.43c0.86,1.58,1.41,3.19,1.37,5.06c-0.09,4.25-0.03,8.5-0.03,12.82
			c-0.73,0-1.39,0-2.25,0c0-0.59,0-1.23,0-1.88c0-3.29,0.04-6.58-0.02-9.87c-0.02-1.21-0.11-2.48-0.5-3.6
			c-0.2-0.59-0.33-1.58-1.42-1.69c-0.51-0.06-0.97-0.53-1.56-0.87c-2.54-0.3-5.73,1.85-6.56,4.83c-0.34,1.24-0.75,2.42-0.74,3.73
			c0.03,3.07,0.01,6.13,0.01,9.36c-0.69,0.03-1.39,0.06-2.17,0.1C185.33,268.84,185.33,262.36,185.33,255.67z"/>
	</g>
</g>
</svg>
