<?xml version="1.0" encoding="utf-8"?>
<!-- Generator: Adobe Illustrator 25.2.1, SVG Export Plug-In . SVG Version: 6.00 Build 0)  -->
<svg version="1.1" id="Layer_1" xmlns="http://www.w3.org/2000/svg" xmlns:xlink="http://www.w3.org/1999/xlink" x="0px" y="0px"
	 viewBox="0 0 743.2 405.6" style="enable-background:new 0 0 743.2 405.6;" xml:space="preserve">
<style type="text/css">
	.st0{fill:#639283;fill-opacity:0;}
	.st1{fill:none;stroke:#000000;stroke-width:5;stroke-miterlimit:10;}
	.st2{opacity:0.85;fill:#639283;stroke:#000000;stroke-width:0.5;stroke-miterlimit:10;enable-background:new    ;}
	.st3{opacity:0.3;fill:#639283;stroke:#000000;stroke-width:0.5;stroke-miterlimit:10;enable-background:new    ;}
	.st4{opacity:0.6;fill:#639283;stroke:#000000;stroke-width:0.5;stroke-miterlimit:10;enable-background:new    ;}
	.st5{fill:#639283;stroke:#000000;stroke-width:0.5;stroke-miterlimit:10;}
</style>
<g>
	<rect x="50.9" y="345.6" class="st0" width="94.4" height="42.7"/>
	<rect x="50.9" y="345.6" class="st1" width="94.4" height="42.7"/>
</g>
<g>
	<rect x="50.9" y="49.6" class="st2" width="94.4" height="42.7"/>
	<rect x="50.9" y="49.6" class="st1" width="94.4" height="42.7"/>
</g>
<rect x="50.9" y="186.1" class="st3" width="94.4" height="42.7"/>
<rect x="50.9" y="186.1" class="st1" width="94.4" height="42.7"/>
<g>
	<rect x="50.9" y="117.8" class="st4" width="94.4" height="42.7"/>
	<rect x="50.9" y="117.8" class="st1" width="94.4" height="42.7"/>
</g>
<rect x="50.9" y="254.3" class="st5" width="94.4" height="42.7"/>
<rect x="50.9" y="254.3" class="st1" width="94.4" height="42.7"/>
<rect x="24.7" y="24.6" class="st1" width="689.3" height="297.5"/>
<g>
	<g>
		<path d="M185.9,355.1c0,1.5,0,3,0,4.6c-0.4,0-0.7,0-1.1,0c-5.7,0-11.5,0-17.2,0c-0.7,0-1.5,0-2.2,0.2c-1.3,0.3-1.8,1.2-1.8,2.6
			s0.6,2.3,1.8,2.6c0.7,0.2,1.4,0.2,2.1,0.2c4.1,0,8.2,0,12.3,0c1.5,0,2.9,0.3,4.2,0.9c1.6,0.8,2.7,2.1,3.2,3.8c0.6,2,0.6,4,0,5.9
			c-0.8,2.6-2.8,3.9-5.3,4.4c-0.8,0.2-1.5,0.2-2.3,0.2c-6.6,0-13.3,0-19.9,0c-0.4,0-0.7,0-1.1,0c0-1.6,0-3.1,0-4.6
			c0.4,0,0.8,0,1.1,0c6.1,0,12.1,0,18.2,0c0.7,0,1.4,0,2.1-0.2c1.1-0.2,1.8-0.9,1.9-2c0.1-0.5,0.1-1.1,0-1.6c-0.1-1-0.8-1.7-1.8-1.9
			c-0.7-0.2-1.4-0.2-2.1-0.2c-4.1,0-8.2,0-12.3,0c-1,0-2-0.1-3-0.4c-3.7-1.1-4.9-3.8-4.9-7.4c0-0.5,0.1-1,0.2-1.5
			c0.5-2.4,1.9-4.1,4.2-4.9c1-0.3,2.1-0.6,3.2-0.6c6.6-0.1,13.2,0,19.7,0C185.4,355.1,185.6,355.1,185.9,355.1z"/>
		<path d="M285.6,362.3c1.8,0,3.4,0,5.2,0c0.4,4.6,0.8,9.2,1.2,13.9c1.8-0.8,3.6-1.6,5.4-2.4c0-3.8,0-7.6,0-11.5c1.7,0,3.4,0,5.2,0
			c0,3.8,0,7.6,0,11.5c1.8,0.8,3.6,1.6,5.4,2.4c0.4-4.7,0.8-9.3,1.2-13.9c1.7,0,3.4,0,5.2,0c-0.6,6.1-1.1,12.1-1.7,18.3
			c-1,0-2-0.1-3,0c-1.4,0.1-2.6-0.2-3.8-0.8c-1.9-0.9-3.9-1.7-5.9-2.6c-1.7,0.8-3.6,1.4-5.2,2.4c-2.4,1.4-4.8,1-7.4,1.1
			C286.8,374.5,286.2,368.5,285.6,362.3z"/>
		<path d="M204.5,373.3c0.3,2,1.8,3.2,4.1,3.2c3.3,0,6.6,0,9.9,0c1.5,0,3,0,4.6,0c0,1.3,0,2.6,0,4c-0.2,0-0.4,0.1-0.7,0.1
			c-4.8,0-9.6,0-14.3,0c-1.9,0-3.6-0.4-5.3-1.3c-1.9-1.1-3.1-2.7-3.6-4.9c-0.5-2-0.5-4.1,0.1-6.1c1-3.5,3.5-5.2,6.9-5.8
			c0.9-0.2,1.7-0.2,2.6-0.2c3.1,0,6.3-0.1,9.4,0c1,0,2.1,0.3,3.1,0.6c1.6,0.6,2.6,2,2.8,3.7c0.1,0.9,0.1,1.8,0,2.7
			c-0.3,1.9-1.4,3.1-3.2,3.6c-1.1,0.3-2.3,0.4-3.4,0.4c-3.9,0.1-7.8,0-11.7,0C205.3,373.3,204.9,373.3,204.5,373.3z M204.5,369.2
			c0.2,0,0.4,0,0.5,0c4,0,8,0,12,0c0.3,0,0.6,0,0.9-0.1c0.4-0.2,0.8-0.4,0.9-0.7c0.6-1-0.1-2-1.3-2c-3,0-6.1,0-9.1,0
			c-0.7,0-1.5,0.2-2.1,0.5C205.4,367.3,204.8,368.1,204.5,369.2z"/>
		<path d="M322.3,373.3c0.3,2,1.8,3.2,4.1,3.2c3.2,0,6.3,0,9.5,0c1.6,0,3.3,0,5,0c0,1.3,0,2.6,0,4c-0.2,0-0.4,0.1-0.7,0.1
			c-4.8,0-9.6,0-14.3,0c-1.9,0-3.6-0.4-5.3-1.3c-1.9-1.1-3.1-2.7-3.6-4.9c-0.5-2-0.5-4.1,0.1-6.1c1-3.5,3.5-5.2,6.9-5.8
			c0.9-0.2,1.7-0.2,2.6-0.2c3.1,0,6.3-0.1,9.4,0c1.1,0,2.2,0.3,3.2,0.7c1.6,0.6,2.5,1.9,2.7,3.6c0.1,0.9,0.1,1.8,0,2.7
			c-0.3,1.9-1.4,3.1-3.2,3.6c-1.1,0.3-2.3,0.4-3.5,0.4c-3.9,0.1-7.7,0-11.6,0C323,373.3,322.6,373.3,322.3,373.3z M322.3,369.2
			c0.2,0,0.3,0,0.4,0c4,0,8,0,12,0c0.3,0,0.5,0,0.8,0c0.8-0.1,1.3-0.8,1.2-1.6c-0.1-0.8-0.5-1.2-1.4-1.2c-3.1,0-6.2-0.1-9.3,0
			C323.9,366.4,322.5,367.7,322.3,369.2z"/>
		<path d="M227.3,388.5c0-8.8,0-17.5,0-26.3c0.3,0,0.6,0,0.9,0c4.3,0,8.5-0.1,12.8,0c1.4,0,2.8,0.3,4.1,0.7c2.7,0.9,4.3,2.8,5,5.6
			c0.5,1.9,0.5,3.8,0,5.7c-0.9,3.6-3.5,5.4-7,6.1c-0.8,0.2-1.7,0.2-2.5,0.2c-2.4,0-4.7,0-7.1,0c-0.3,0-0.6,0-1.1,0
			c0,2.7,0,5.3,0,7.9C230.7,388.5,229,388.5,227.3,388.5z M232.5,366.3c0,3.5,0,6.8,0,10.1c0.1,0,0.2,0.1,0.3,0.1
			c2.7,0,5.4,0.1,8.1,0c2.3-0.1,3.7-1.5,4-3.8c0.1-0.8,0.1-1.5,0-2.3c-0.3-2.6-1.8-4-4.4-4c-1.8,0-3.5,0-5.3,0
			C234.3,366.3,233.5,366.3,232.5,366.3z"/>
		<path d="M271.5,376.5c0,1.4,0,2.7,0,4.1c-1.5,0-2.9,0-4.4,0c-1.3,0-2.6,0-3.9,0c-3.2,0-5.3-2.2-5.3-5.4c0-2.6,0-5.2,0-7.8
			c0-0.3,0-0.6,0-1.1c-1.8,0-3.5,0-5.2,0c0-1.4,0-2.7,0-4.1c1.7,0,3.4,0,5.2,0c0-1.8,0-3.6,0-5.4c1.8,0,3.4,0,5.2,0
			c0,1.7,0,3.5,0,5.4c1.3,0,2.6,0,3.8,0c1.2,0,2.4,0,3.7,0c0,1.4,0,2.7,0,4.1c-2.5,0-4.9,0-7.4,0c0,0.4-0.1,0.7-0.1,0.9
			c0,2.2,0,4.5,0,6.7c0,0.2,0,0.4,0,0.6c0.1,1.4,0.7,2,2.1,2c1.8,0,3.5,0,5.3,0C270.8,376.5,271.1,376.5,271.5,376.5z"/>
		<path d="M190.8,355.3c1.7,0,3.3,0,5,0c0,8.4,0,16.8,0,25.3c-1.7,0-3.3,0-5,0C190.8,372.2,190.8,363.8,190.8,355.3z"/>
		<path d="M350.1,380.6c-1.7,0-3.3,0-5,0c0-8.4,0-16.8,0-25.3c1.7,0,3.3,0,5,0C350.1,363.7,350.1,372.1,350.1,380.6z"/>
		<path d="M354.2,355.3c1.7,0,3.3,0,5,0c0,8.4,0,16.8,0,25.3c-1.7,0-3.3,0-5,0C354.2,372.2,354.2,363.8,354.2,355.3z"/>
	</g>
</g>
<g>
	<path d="M159.7,83.5c0-8.1,0-16.5,0-24.6c6.7,0,13.2-0.4,19.7,0.1c6.7,0.6,10.2,5.4,10.2,12.3c0,6.8-3.6,11.5-10.2,12.1
		C172.9,83.9,166.4,83.5,159.7,83.5z M165.4,79c4.2,0,8.2,0.3,12.2-0.1c4.3-0.4,6.3-3.3,6.3-7.8c0-4.4-2-7.2-6.2-7.6
		c-4-0.4-8.1-0.1-12.3-0.1C165.4,68.6,165.4,73.8,165.4,79z"/>
	<path d="M189.7,140c-1.9,0-3.6,0-5.6,0c0-2.7,0-5.3,0-8c-2.6,0-5,0-7.6,0c0,6.8,0,13.6,0,20.4c-2,0-3.8,0-5.7,0
		c0-6.8,0-13.5,0-20.4c-2.1,0-4.1,0-6.3,0c0,2.6,0,5.2,0,7.9c-2,0-3.8,0-5.7,0c0-4.2,0-8.4,0-12.6c10.3,0,20.5,0,30.9,0
		C189.7,131.5,189.7,135.6,189.7,140z"/>
	<path d="M189.1,220.8c-2.2,0-4.1,0-6.1,0c-0.8-1.8-1.6-3.6-2.5-5.4c-4.8,0-9.5,0-14.4,0c-0.8,1.7-1.6,3.5-2.4,5.3
		c-1.9,0-3.9,0-6.1,0c1.9-4.3,3.8-8.4,5.6-12.6c1.9-4.2,3.8-8.4,5.7-12.6c2.9,0,5.8,0,8.8,0C181.4,203.9,185.2,212.2,189.1,220.8z
		 M168.2,210.6c3.5,0,6.7,0,10.2,0c-1.7-3.7-3.3-7.3-5.1-11.3C171.5,203.3,169.9,206.8,168.2,210.6z"/>
	<path d="M599.5,202.5c0,7.3,0.1,14.2,0,21.1c0,3-2,4.9-5.2,5c-4.1,0.1-8.3,0-12.6,0c0-1.3,0-2.6,0-4.1c3.1,0,6.2,0,9.3,0
		c3.2,0,3.5-0.3,3.3-3.7c-2,0-4,0-5.9,0c-1.2,0-2.5,0.1-3.7-0.1c-6.5-0.9-9.7-6.1-7.7-12.4c1.2-3.8,4.1-5.3,7.8-5.8
		c0.6-0.1,1.2-0.1,1.7-0.1C590.7,202.5,595,202.5,599.5,202.5z M594.3,206.6c-3,0-5.8-0.1-8.6,0c-2.4,0.1-3.8,1.9-3.9,4.5
		c-0.1,3.2,1,5.2,3.5,5.4c2.9,0.3,5.9,0.1,9,0.1C594.3,213.3,594.3,210,594.3,206.6z"/>
	<path d="M257,145.6c0,2.4,0,4.5,0,6.8c-1.8,0-3.3,0-5.1,0c0-4.2,0-8.3,0-12.5s0-8.3,0-12.6c1.7,0,3.3,0,5.1,0c0,2.2,0,4.4,0,6.9
		c3.6,0,7.1,0,10.6,0c1.4,0,2.7,0,4.1,0.3c2.5,0.5,3.8,2.2,4,4.6c0.3,3-0.7,4.7-3.1,5.9c-0.3,0.1-0.6,0.2-1,0.4
		c1.4,2.3,2.7,4.6,4.1,7c-2,0-3.8,0-5.7,0c-1.3-2.2-2.7-4.5-4.1-6.8C263,145.6,260.2,145.6,257,145.6z M257.1,141.3
		c4.3,0,8.6,0,13.1,0c0-1,0-1.9,0-2.9c-4.6,0-8.8,0-13.1,0C257.1,139.5,257.1,140.3,257.1,141.3z"/>
	<path d="M506,220.8c-6.7,0-13.2,0.1-19.6,0c-3.2-0.1-5-2.3-5-5.5c0-3.1,1.7-5.2,5-5.4c4-0.2,8-0.1,12.1-0.1c0.8,0,1.5,0,2.3,0
		c0.4-2.5-0.1-3.1-2.2-3.2c-4.1,0-8.2,0-12.3,0c-0.7,0-1.4,0-2.2,0c0-1.4,0-2.6,0-4.1c0.8,0,1.5,0,2.3,0c4.8,0,9.6,0,14.4,0
		c3.4,0,5.3,1.5,5.4,4.8C506.1,211.7,506,216.1,506,220.8z M500.7,216.6c0-1,0-1.8,0-2.7c-4.5,0-8.9,0-13.7,0c0,0.9-0.1,1.7-0.1,2.7
		C491.7,216.6,496.1,216.6,500.7,216.6z"/>
	<path d="M449.9,65.7c1.8,0,3.4,0,5.1,0c-0.6,6.1-1.1,12.1-1.7,18c-4.9,1.4-8.6-1.7-12.8-3.1c-4,1.3-7.7,4.5-12.7,3.1
		c-0.6-5.8-1.1-11.8-1.7-17.9c1.7,0,3.3,0,5.1,0c0.4,4.4,0.8,8.9,1.3,13.8c1.9-0.8,3.6-1.6,5.5-2.4c0-3.8,0-7.5,0-11.4
		c1.7,0,3.3,0,5,0c0,3.8,0,7.5,0,11.3c1.8,0.8,3.5,1.6,5.6,2.5C449.1,74.7,449.5,70.2,449.9,65.7z"/>
	<path d="M302.5,213.6c0.9,2.4,1.9,3.1,4.4,3.2c4,0,8.1,0,12.1,0c0.7,0,1.4,0,2.2,0c0,1.4,0,2.6,0,4.1c-4.7,0-9.4,0.1-14,0
		c-1.5,0-3.1-0.2-4.6-0.6c-3.8-1.1-5.7-4-5.8-8.3c-0.1-4.4,1.8-7.4,5.5-8.7c1.2-0.4,2.4-0.7,3.6-0.7c3.4-0.1,6.9-0.1,10.3,0
		c3.9,0.1,5.9,2.2,5.9,5.8c-0.1,3-1.5,4.9-4.5,5.1c-4.1,0.3-8.2,0.2-12.3,0.2C304.5,213.6,303.6,213.6,302.5,213.6z M302.5,209.5
		c4.4,0,8.7,0.1,12.9,0c1.6,0,1.8-1.1,1.3-2.5c-0.3-0.1-0.5-0.4-0.7-0.4c-3.5,0-7-0.1-10.5,0.1C304.1,206.8,303,207.7,302.5,209.5z"
		/>
	<path d="M337.2,76.7c0.8,2.4,1.9,3.1,4.4,3.2c4,0,8.1,0,12.1,0c0.7,0,1.4,0,2.2,0c0,1.4,0,2.6,0,4.1c-2.3,0-4.6,0-7,0
		c-3.1,0-6.3,0.2-9.3-0.2c-5.6-0.7-8.2-3.9-8.1-9.3c0.1-5.2,3.2-8.4,8.7-8.8c3.7-0.2,7.4-0.2,11.1,0c3.7,0.1,5.6,2.3,5.5,5.9
		c-0.1,2.9-1.6,4.7-4.5,4.9c-3.9,0.3-7.9,0.2-11.9,0.2C339.5,76.7,338.5,76.7,337.2,76.7z M337.2,72.6c4.5,0,8.8,0.1,13,0
		c1.6,0,1.8-1.2,1.2-2.5c-0.3-0.1-0.5-0.3-0.7-0.3c-3.4,0-6.9-0.1-10.3,0C338.9,69.8,337.8,70.7,337.2,72.6z"/>
	<path d="M463.2,76.7c0.8,2.4,1.9,3.1,4.4,3.2c4,0,8.1,0,12.1,0c0.7,0,1.4,0,2.2,0c0,1.4,0,2.6,0,4.1c-2.5,0-4.9,0-7.4,0
		c-3,0-6,0.2-8.9-0.2c-5.6-0.7-8.2-3.9-8.1-9.3c0.1-5.2,3.2-8.4,8.7-8.8c3.7-0.2,7.4-0.2,11.1,0c3.6,0.1,5.6,2.3,5.5,5.7
		c0,3-1.5,4.9-4.5,5.1c-3.9,0.3-7.9,0.2-11.9,0.2C465.5,76.7,464.4,76.7,463.2,76.7z M462.8,71.9c0.7,0.5,0.8,0.7,0.9,0.7
		c4.1,0,8.3,0.1,12.4,0c1.6,0,1.8-1.1,1.3-2.5c-0.3-0.1-0.6-0.4-0.9-0.4c-3.4,0-6.8-0.2-10.1,0.1C465.3,69.9,464.2,71,462.8,71.9z"
		/>
	<path d="M365.3,76.7c0.9,2.4,1.9,3.1,4.4,3.2c4,0,8.1,0,12.1,0c0.7,0,1.4,0,2.2,0c0,1.4,0,2.6,0,4.1c-4.7,0-9.4,0.1-14,0
		c-1.5,0-3.1-0.2-4.6-0.6c-3.8-1.1-5.7-4-5.8-8.3c-0.1-4.4,1.8-7.4,5.5-8.7c1.2-0.4,2.4-0.7,3.6-0.7c3.4-0.1,6.9-0.1,10.3,0
		c3.9,0.1,5.9,2.2,5.9,5.8c-0.1,3-1.5,4.9-4.5,5.1c-4.1,0.3-8.2,0.2-12.3,0.2C367.3,76.7,366.4,76.7,365.3,76.7z M379.5,70.1
		c-0.3-0.1-0.5-0.4-0.7-0.4c-3.4,0-6.9-0.1-10.3,0c-1.5,0.1-2.8,0.9-3.2,2.8c4.4,0,8.7,0.1,12.9,0C379.9,72.5,380,71.4,379.5,70.1z"
		/>
	<path d="M388.1,65.6c4.9,0,9.6-0.2,14.3,0c5.8,0.3,8.9,3.8,8.7,9.5c-0.1,5.4-3.6,8.6-9.3,8.8c-2.8,0.1-5.7,0-8.7,0
		c0,2.6,0,5.1,0,7.7c-1.7,0-3.3,0-5.1,0C388.1,83,388.1,74.4,388.1,65.6z M393.3,69.7c0,3.5,0,6.7,0,10c3.1,0,6.1,0.2,9-0.1
		c2.4-0.2,3.6-2.1,3.6-5c0-2.8-1.2-4.8-3.6-5C399.4,69.5,396.4,69.7,393.3,69.7z"/>
	<path d="M219,65.6c0-2.4,0-4.6,0-6.9c1.7,0,3.3,0,5,0c0,8.4,0,16.7,0,24.9c-5.4,0-10.8,0.3-16.1-0.1c-4.6-0.4-7-3.9-7-8.8
		s2.5-8,7.1-8.8c1.8-0.3,3.6-0.3,5.4-0.3C215.2,65.5,217,65.6,219,65.6z M219,69.8c-3.2,0-6.3-0.2-9.3,0.1c-2.3,0.2-3.4,2.1-3.4,5
		c0,2.8,1.2,4.7,3.5,4.9c3,0.2,6.1,0.1,9.2,0.1C219,76.3,219,73.1,219,69.8z"/>
	<path d="M212.8,220.8c-4.9,0-9.6,0.2-14.3-0.1c-5.8-0.3-8.9-3.8-8.7-9.5c0.1-5.4,3.6-8.6,9.3-8.8c2.8-0.1,5.7,0,8.7,0
		c0-2.4,0-4.6,0-6.9c1.7,0,3.3,0,5.1,0C212.8,203.9,212.8,212.2,212.8,220.8z M207.7,206.6c-3.1,0-6-0.1-8.9,0
		c-2.2,0.1-3.5,1.8-3.7,4.3c-0.3,2.8,0.7,5.3,2.9,5.5c3.2,0.3,6.5,0.1,9.8,0.1C207.7,213.2,207.7,210,207.7,206.6z"/>
	<path d="M348.1,220.8c-4.9,0-9.6,0.2-14.3,0c-5.8-0.3-8.9-3.8-8.7-9.5c0.1-5.4,3.6-8.6,9.3-8.8c2.8-0.1,5.7,0,8.7,0
		c0-2.4,0-4.6,0-6.9c1.7,0,3.3,0,5.1,0C348.1,203.9,348.1,212.2,348.1,220.8z M343,206.7c-3.1,0-6.2-0.2-9.2,0.1
		c-2.3,0.2-3.4,2.1-3.5,4.9c0,2.8,1.1,4.7,3.4,4.9c3.1,0.3,6.2,0.1,9.3,0.1C343,213.2,343,210,343,206.7z"/>
	<path d="M364.4,195.5c1.7,0,3.2,0,5,0c0,2.3,0,4.5,0,6.9c3,0,5.8,0,8.5,0c4.8,0.1,8.2,2.4,9.2,6.3c1.7,6.5-1.8,11.6-8.4,12
		c-4.7,0.3-9.5,0.1-14.3,0.1C364.4,212.4,364.4,204,364.4,195.5z M369.5,206.7c0,3.3,0,6.5,0,9.9c3.2,0,6.3,0.2,9.3-0.1
		c2.2-0.2,3.3-2.1,3.3-4.8c0-2.8-1.1-4.8-3.3-5C375.7,206.5,372.6,206.7,369.5,206.7z"/>
	<path d="M373.7,152.5c0-8.5,0-16.8,0-25.2c1.6,0,3.1,0,5,0c0,2.2,0,4.4,0,6.9c1,0,1.7,0,2.5,0c2.5,0,5.1-0.1,7.6,0.2
		c7.8,0.9,8.9,7.1,7.6,12.2c-0.9,3.6-4.1,5.8-8.6,5.9C383.1,152.6,378.5,152.5,373.7,152.5z M378.8,148.4c3.1,0,6,0.1,8.9,0
		c2.2-0.1,3.5-1.8,3.7-4.3c0.3-2.8-0.8-5.3-2.9-5.5c-3.2-0.3-6.5-0.1-9.8-0.1C378.8,141.8,378.8,145,378.8,148.4z"/>
	<path d="M255.8,206.6c-0.6,2.3-0.3,2.9,1.5,2.9c3.8,0,7.5,0,11.3,0c3.9,0,5.9,1.9,5.9,5.6c0,3.7-2.1,5.7-5.9,5.7
		c-5.4,0-10.8,0-16.2,0c-0.6,0-1.1-0.1-1.8-0.1c0-1.3,0-2.5,0-4c6.1,0,12.1,0,18.4,0c0-1.1,0-2,0-3c-1-0.1-1.7-0.1-2.5-0.1
		c-3.9-0.1-7.8,0-11.7-0.2c-3-0.2-4.6-2.1-4.7-5c-0.1-3.2,1.3-5.1,4.4-5.7c1.1-0.2,2.3-0.2,3.5-0.2c4.9,0,9.7,0,14.7,0
		c0,1.4,0,2.6,0,4.1C267.1,206.6,261.5,206.6,255.8,206.6z"/>
	<path d="M301.5,69.6c-0.7,2.4-0.3,2.9,1.6,2.9c3.7,0,7.4,0,11.1,0c3.9,0,5.9,1.9,5.9,5.6s-2.1,5.7-5.9,5.7c-5.5,0-10.9,0-16.4,0
		c-0.5,0-1-0.1-1.6-0.1c0-1.3,0-2.5,0-3.9c6.1,0,12.1,0,18.4,0c0-1.2,0-2.1,0-3.2c-2.3,0-4.2,0-6.1,0c-2.5,0-5.1,0.1-7.6-0.1
		c-3.5-0.3-5.1-2.1-5.1-5.4c0-3.2,1.7-5.3,5.1-5.4c5.8-0.2,11.5-0.1,17.4-0.1c0,1.3,0,2.5,0,4C312.7,69.6,307.1,69.6,301.5,69.6z"/>
	<path d="M432.5,221c-2.3-0.2-4.5-0.2-6.7-0.6c-4.3-0.9-6.5-4-6.5-8.7c0-4.6,2.2-7.8,6.4-8.8c1.5-0.4,3.1-0.4,4.6-0.4
		c2.5-0.1,4.9-0.2,7.4,0.1c5.7,0.6,8.6,4.1,8.3,9.5c-0.3,5.4-3.6,8.6-9.4,8.7c-1.4,0-2.7,0-4.1,0C432.6,220.9,432.6,220.9,432.5,221
		z M432.6,216.7L432.6,216.7c1.2,0,2.5,0.1,3.7,0c2.9-0.1,4.3-1.8,4.3-4.9c0-3.3-1.3-5.1-4.1-5.3c-2.6-0.1-5.2-0.1-7.8,0
		c-2.8,0.1-4.1,1.9-4.1,5.1c0,3.2,1.3,4.9,4.1,5.1C430,216.8,431.3,216.7,432.6,216.7z"/>
	<path d="M403.6,202.2c2.6,0.3,5.2,0.4,7.6,1.1c3.7,1,5.6,4.1,5.6,8.4c0,4.2-1.9,7.5-5.6,8.4c-5.1,1.3-10.4,1.3-15.6,0
		c-3.8-0.9-5.6-4-5.7-8.3c0-4.4,1.8-7.5,5.6-8.5C398.2,202.5,400.9,202.5,403.6,202.2z M403.3,216.7c1.3,0,2.6,0.1,3.9,0
		c2.8-0.1,4.2-1.8,4.3-4.9c0-3.3-1.3-5.1-4.2-5.2c-2.5-0.1-5.1-0.1-7.6,0c-2.8,0.1-4.2,1.8-4.2,4.9c0,3.3,1.3,5,4.2,5.2
		C400.8,216.8,402,216.7,403.3,216.7z"/>
	<path d="M206.1,152.7c-2.3-0.2-4.5-0.2-6.7-0.6c-4.4-0.9-6.7-4-6.7-8.7s2.3-8.2,6.6-8.7s8.8-0.6,13.1-0.1c4.8,0.5,7.3,4.4,7,9.4
		c-0.4,5.2-3.5,8.2-9,8.5c-1.4,0.1-2.9,0-4.3,0C206.1,152.6,206.1,152.7,206.1,152.7z M205.9,148.5c1.3,0,2.6,0.1,3.9,0
		c2.8-0.1,4.2-1.8,4.3-4.9c0-3.3-1.3-5.1-4.2-5.2c-2.5-0.1-5.1-0.1-7.6,0c-2.9,0.1-4.3,1.8-4.3,5.1s1.4,4.9,4.4,5
		C203.6,148.5,204.7,148.5,205.9,148.5z"/>
	<path d="M235.3,133.9c2.6,0.3,5.2,0.4,7.7,1c3.8,1,5.7,4.2,5.7,8.5c-0.1,4.3-1.9,7.4-5.7,8.3c-5.1,1.3-10.3,1.3-15.4,0
		c-3.8-0.9-5.7-4-5.7-8.3c0-4.4,1.8-7.5,5.6-8.6C230,134.3,232.7,134.3,235.3,133.9z M235.3,148.5c1.3,0,2.6,0.1,3.9,0
		c2.8-0.2,4.1-1.9,4.2-5c0-3.2-1.3-4.9-4.1-5.1c-2.6-0.1-5.2-0.1-7.8,0c-2.9,0.1-4.2,1.9-4.1,5.2c0,3.1,1.4,4.8,4.3,4.9
		C232.8,148.5,234,148.5,235.3,148.5z"/>
	<path d="M304.4,133.9c2.6,0.3,5.2,0.4,7.7,1c3.8,1,5.7,4.2,5.7,8.5s-1.9,7.4-5.7,8.3c-5.1,1.3-10.3,1.3-15.4,0
		c-3.8-0.9-5.7-4-5.7-8.3c-0.1-4.4,1.8-7.6,5.6-8.6C299,134.3,301.7,134.3,304.4,133.9z M304.3,148.5c1.3,0,2.6,0.1,3.9,0
		c2.7-0.2,4.1-1.8,4.2-4.8c0.1-3.3-1.3-5.2-4.1-5.3c-2.6-0.1-5.2-0.1-7.8,0c-2.9,0.1-4.2,1.9-4.2,5.2c0,3.1,1.4,4.8,4.3,4.9
		C301.8,148.5,303,148.5,304.3,148.5z"/>
	<path d="M412.6,152.7c-2.2-0.2-4.4-0.2-6.6-0.6c-4.4-0.9-6.7-4-6.7-8.7s2.3-8.2,6.6-8.7c4.3-0.5,8.8-0.6,13.1-0.1
		c4.8,0.5,7.3,4.4,7,9.4c-0.4,5.2-3.5,8.2-9,8.5c-1.5,0.1-3,0-4.5,0C412.6,152.6,412.6,152.6,412.6,152.7z M412.6,148.5
		c1.3,0,2.6,0.1,3.9,0c2.8-0.1,4.3-1.8,4.3-4.9c0-3.3-1.3-5.1-4.1-5.2c-2.6-0.1-5.2-0.1-7.8,0c-2.8,0.1-4.1,1.9-4.1,5.1
		c0,3.2,1.3,4.9,4.1,5.1C410.1,148.5,411.3,148.5,412.6,148.5z"/>
	<path d="M442.1,133.9c2.5,0.3,5.1,0.3,7.5,1c3.9,1,5.8,4,5.8,8.4c0,4.3-1.9,7.5-5.7,8.5c-5.1,1.3-10.3,1.3-15.4,0
		c-3.8-0.9-5.7-4-5.7-8.3c0-4.4,1.9-7.4,5.6-8.6c0.7-0.2,1.5-0.4,2.3-0.5c1.9-0.1,3.7-0.2,5.6-0.3
		C442.1,134.1,442.1,134,442.1,133.9z M442.1,138.3c-1.3,0-2.6-0.1-3.9,0c-2.8,0.2-4.2,1.8-4.2,5c0,3.3,1.3,5,4.2,5.2
		c2.5,0.1,5.1,0.1,7.6,0c2.8-0.1,4.2-1.8,4.2-5c0-3.3-1.4-5-4.2-5.2C444.6,138.2,443.3,138.3,442.1,138.3z"/>
	<path d="M608.5,206.5c0,4.8,0,9.4,0,14.1c-1.8,0-3.3,0-5.1,0c0-8.4,0-16.7,0-25.1c1.6,0,3.2,0,5,0c0,2.3,0,4.5,0,6.9
		c2.2,0,4.3,0,6.3,0c1.7,0,3.4,0,5.1,0c3.4,0.1,5.3,1.9,5.4,5.2c0.1,4.3,0,8.6,0,13c-1.6,0-3.2,0-5.1,0c0-3.1,0-6.4,0-9.6
		c0-4.5,0-4.5-4.5-4.5C613.3,206.5,611,206.5,608.5,206.5z"/>
	<path d="M564.4,220.7c-1.8,0-3.4,0-5.1,0c0-3,0-5.9,0-8.8c0-5.9,0.3-5.4-5.5-5.4c-1.9,0-3.9,0-6.1,0c0,4.8,0,9.4,0,14.2
		c-1.8,0-3.4,0-5.1,0c0-6,0-12,0-18.2c0.7,0,1.4,0,2.1,0c4.6,0,9.2,0,13.8,0c4,0,5.9,1.9,5.9,5.8
		C564.4,212.4,564.4,216.5,564.4,220.7z"/>
	<path d="M244.9,83.7c0-3.9,0-7.7,0-11.5c0-2.1-0.5-2.6-2.7-2.6c-2.9,0-5.8,0-8.9,0c0,4.8,0,9.4,0,14.1c-1.8,0-3.3,0-5.1,0
		c0-6,0-12,0-18.2c3.5,0,7,0,10.5,0c1.9,0,3.9,0,5.8,0c3.1,0.1,5.2,1.6,5.3,4.3c0.2,4.6,0.1,9.2,0.1,13.8
		C248.2,83.7,246.5,83.7,244.9,83.7z"/>
	<path d="M225.7,202.6c1.8,0,3.3,0,5.1,0c0,3.7,0,7.3,0,10.9c0,3,0.3,3.2,3.2,3.3c2.6,0,5.1,0,8.2,0c0-4.9,0-9.5,0-14.1
		c2,0,3.6,0,5.3,0c0,4.6,0.1,9.2-0.1,13.8c-0.1,2.3-1.6,4-4,4.1c-4.5,0.2-9.1,0.3-13.6,0c-2.5-0.1-4-1.9-4.1-4.4
		C225.6,211.7,225.7,207.2,225.7,202.6z"/>
	<path d="M358.9,131.3c-2.1,0-4,0-5.9,0c-2.2,0-2.5,0.5-2.5,2.8c2.4,0,4.7,0,7.3,0c0,1.4,0,2.7,0,4.1c-2.4,0-4.7,0-7.4,0
		c0,4.9,0,9.5,0,14.2c-1.8,0-3.3,0-5.1,0c0-4.6,0-9.3,0-14.1c-1.9,0-3.5,0-5.2,0c0-1.4,0-2.7,0-4.1c1.7,0,3.3,0,4.8,0
		c0.2-0.3,0.3-0.4,0.3-0.5c0.4-5.3,1.8-6.6,7.2-6.6c2.1,0,4.3,0,6.5,0C358.9,128.6,358.9,129.8,358.9,131.3z"/>
	<path d="M330.2,152.5c-1.9,0-3.4,0-5.3,0c0-2.3,0-4.6,0-6.9c0-2.3,0-4.7,0-7.2c-1.8,0-3.4,0-5.1,0c0-1.4,0-2.6,0-4
		c1.6,0,3.2,0,4.8,0c0.2-0.3,0.3-0.4,0.3-0.5c0.4-5.2,1.9-6.6,7.1-6.6c2.2,0,4.4,0,6.7,0c0,1.4,0,2.6,0,4.1c-2,0-4,0-5.9,0
		c-2.1,0-2.5,0.5-2.5,2.9c2.4,0,4.7,0,7.3,0c0,1.4,0,2.7,0,4.1c-2.4,0-4.8,0-7.3,0C330.2,143.1,330.2,147.7,330.2,152.5z"/>
	<path d="M637.7,197.1c0,1.8,0,3.5,0,5.3c2.5,0,4.9,0,7.5,0c0,1.4,0,2.6,0,4.1c-2.5,0-4.9,0-7.5,0c0,2.9,0,5.6,0,8.2
		c0,1.5,1,2,2.3,2c2,0,4,0,6.1,0c0,1.4,0,2.6,0,4c-3.1,0-6.1,0.2-9.1-0.1c-2.9-0.3-4.4-2.3-4.5-5.4c-0.1-2.8,0-5.6,0-8.6
		c-1.7,0-3.4,0-5.1,0c0-1.5,0-2.7,0-4c1.6,0,3.2,0,5,0c0-1.9,0-3.6,0-5.4C634.3,197.1,635.8,197.1,637.7,197.1z"/>
	<path d="M267.9,69.6c-1.8,0-3.4,0-5.1,0c0-1.4,0-2.6,0-4c1.6,0,3.2,0,5,0c0-1.9,0-3.6,0-5.4c1.8,0,3.4,0,5.2,0c0,1.7,0,3.4,0,5.3
		c2.6,0,5,0,7.5,0c0,1.4,0,2.6,0,4.1c-2.5,0-4.9,0-7.5,0c0,2.9,0,5.6,0,8.2c0,1.5,1,2,2.4,2c2,0,4,0,6.1,0c0,1.4,0,2.6,0,4
		c-3.1,0-6.1,0.2-9.1-0.1c-2.9-0.3-4.4-2.3-4.5-5.4c0-1.4,0-2.9,0-4.3C267.9,72.7,267.9,71.3,267.9,69.6z"/>
	<path d="M453.5,206.5c-1.8,0-3.4,0-5.1,0c0-1.4,0-2.6,0-4c1.6,0,3.2,0,5,0c0-1.9,0-3.6,0-5.4c1.8,0,3.4,0,5.2,0c0,1.7,0,3.4,0,5.3
		c2.6,0,5,0,7.5,0c0,1.4,0,2.6,0,4.1c-2.5,0-4.9,0-7.5,0c0,2.9,0,5.6,0,8.2c0,1.5,1,2,2.3,2c2,0,4,0,6.1,0c0,1.4,0,2.6,0,4
		c-3,0-6.1,0.2-9.1-0.1c-2.9-0.3-4.4-2.3-4.5-5.4C453.5,212.5,453.5,209.7,453.5,206.5z"/>
	<path d="M286.3,197.1c0,1.8,0,3.4,0,5.2c2.5,0,4.9,0,7.5,0c0,1.4,0,2.6,0,4.1c-2.4,0-4.8,0-7.5,0c0,3-0.1,5.8,0,8.6
		c0,1.3,1,1.7,2.2,1.7c2,0,4,0,6.2,0c0,1.4,0,2.6,0,4c-3,0-6,0.2-8.9-0.1c-3-0.2-4.6-2.3-4.6-5.5c-0.1-2.8,0-5.6,0-8.6
		c-1.7,0-3.3,0-5.1,0c0-1.4,0-2.7,0-4.1c1.6,0,3.2,0,5,0c0-1.9,0-3.6,0-5.4C282.9,197.1,284.5,197.1,286.3,197.1z"/>
	<path d="M476.5,152.5c-3,0-5.7,0.1-8.5,0c-3.2-0.2-5-2.2-5.1-5.5c-0.1-2.8,0-5.7,0-8.7c-1.8,0-3.4,0-5.1,0c0-1.4,0-2.6,0-4
		c1.6,0,3.2,0,5,0c0-1.9,0-3.6,0-5.4c1.8,0,3.4,0,5.2,0c0,1.7,0,3.4,0,5.3c2.6,0,5,0,7.5,0c0,1.4,0,2.6,0,4.1c-2.5,0-4.9,0-7.5,0
		c0,2.9,0,5.6,0,8.2c0,1.5,1,2,2.3,2c2,0,4,0,6.1,0C476.5,149.9,476.5,151.1,476.5,152.5z"/>
	<path d="M518.8,206.5c0,3-0.1,5.7,0,8.4c0,1.4,1,1.8,2.3,1.8c2,0,4,0,6.1,0c0,1.4,0,2.6,0,3.8c-3.2,0-6.4,0.2-9.6-0.1
		c-2.6-0.3-3.9-2.3-4-5.2c-0.1-2.8,0-5.7,0-8.7c-1.8,0-3.3,0-5.1,0c0-1.4,0-2.6,0-4c1.6,0,3.2,0,5,0c0-1.9,0-3.6,0-5.4
		c1.7,0,3.3,0,5.1,0c0,1.6,0,3.3,0,5.3c2.7,0,5.1,0,7.6,0c0,1.4,0,2.6,0,4.1C523.8,206.5,521.4,206.5,518.8,206.5z"/>
	<path d="M221.7,228.5c-1.7,0-3.2,0-4.9,0c0-8.6,0-17.2,0-25.9c1.6,0,3.1,0,4.9,0C221.7,211.2,221.7,219.7,221.7,228.5z"/>
	<path d="M328.3,83.8c-1.7,0-3.2,0-4.9,0c0-8.4,0-16.7,0-25.2c1.6,0,3.1,0,4.9,0C328.3,67,328.3,75.3,328.3,83.8z"/>
	<path d="M486,58.6c1.7,0,3.2,0,4.9,0c0,8.4,0,16.7,0,25.2c-1.6,0-3.2,0-4.9,0C486,75.4,486,67.1,486,58.6z"/>
	<path d="M500.3,83.8c-1.7,0-3.2,0-4.9,0c0-8.4,0-16.7,0-25.2c1.6,0,3.1,0,4.9,0C500.3,67,500.3,75.3,500.3,83.8z"/>
	<path d="M568.3,202.5c1.7,0,3.2,0,4.9,0c0,6,0,12,0,18.1c-1.6,0-3.2,0-4.9,0C568.3,214.7,568.3,208.7,568.3,202.5z"/>
	<path d="M192.7,65.6c1.7,0,3.2,0,5,0c0,3.1,0,6.1,0,9.1s0,5.9,0,9c-1.7,0-3.3,0-5,0C192.7,77.8,192.7,71.8,192.7,65.6z"/>
	<path d="M255.9,68.7c0-1.6,0-3.2,0-5c-0.8-0.1-1.5-0.2-2.4-0.2c0-1.5,0-3.1,0-4.8c1.7,0,3.5,0,5.4,0c0,3.3,0,6.6,0,10
		C257.9,68.7,257,68.7,255.9,68.7z"/>
	<path d="M197.5,62.8c-1.7,0-3.3,0-5,0c0-1.3,0-2.5,0-3.8c1.6,0,3.2,0,5,0C197.5,60.2,197.5,61.4,197.5,62.8z"/>
	<path d="M216.7,199.6c0-1.3,0-2.5,0-3.8c1.7,0,3.2,0,5,0c0,1.2,0,2.4,0,3.8C220.1,199.6,218.5,199.6,216.7,199.6z"/>
	<path d="M568.2,195.8c1.7,0,3.3,0,4.9,0c0,1.3,0,2.5,0,3.8c-1.6,0-3.2,0-4.9,0C568.2,198.4,568.2,197.2,568.2,195.8z"/>
	<g>
		<g>
			<path d="M174.3,289.6c-2.2-0.1-4.4-0.1-6.5-0.3c-3.1-0.3-5.8-1.4-8-3.6c-1.5-1.6-2.4-3.5-2.8-5.7c-0.5-2.6-0.5-5.2,0.2-7.7
				c1.1-4.2,3.9-6.7,8-7.8c1.7-0.5,3.4-0.7,5.1-0.7c3.3,0,6.5,0,9.8,0.1c2.1,0.1,4.1,0.6,6,1.6c2.9,1.5,4.8,3.8,5.6,7
				c0.7,2.8,0.7,5.7,0,8.5c-1.1,4.2-3.9,6.6-8,7.8c-1.8,0.5-3.6,0.7-5.4,0.7C176.8,289.5,175.6,289.5,174.3,289.6
				C174.3,289.5,174.3,289.5,174.3,289.6z M162.6,274.2c7.8,0,15.6,0,23.4,0c-0.2-1.3-0.7-2.4-1.5-3.4c-1.4-1.6-3.3-2.3-5.3-2.3
				c-3.2-0.1-6.5-0.1-9.8,0c-1.6,0-3.1,0.5-4.4,1.5C163.6,271,162.9,272.5,162.6,274.2z M162.6,278.9c0.3,1.6,0.9,3,2.2,4.1
				c1.4,1.2,3.2,1.6,5,1.7c2.5,0.1,4.9,0.1,7.4,0.1c1.1,0,2.2-0.1,3.2-0.3c3.2-0.6,5.2-2.6,5.6-5.6
				C178.2,278.9,170.4,278.9,162.6,278.9z"/>
			<path d="M245.4,282.1c0.2,1.7,1.6,3,3.4,3.2c0.5,0.1,1,0.1,1.5,0.1c4.4,0,8.9,0,13.3,0c0.2,0,0.4,0,0.7,0c0,1.4,0,2.7,0,4.1
				c-0.2,0-0.3,0-0.5,0c-4.7,0-9.5,0-14.2,0c-1.5,0-2.9-0.2-4.3-0.7c-3.3-1.2-5-3.7-5.4-7.1c-0.2-1.5-0.1-3,0.3-4.5
				c0.8-3.3,3.1-5.2,6.4-6c1-0.2,2-0.3,2.9-0.4c3.4,0,6.7,0,10.1,0c1.5,0,2.9,0.4,4.1,1.5c1.5,1.4,1.8,3.1,1.6,5
				c-0.3,3-2.1,4.6-5.3,4.7c-2.4,0.1-4.9,0-7.3,0c-2.2,0-4.3,0-6.5,0C245.8,282.1,245.6,282.1,245.4,282.1z M245.4,277.9
				c0.1,0,0.2,0.1,0.2,0.1c4.3,0,8.7,0,13,0c0.9,0,1.4-0.7,1.4-1.6c0-0.9-0.5-1.4-1.4-1.4c-0.1,0-0.3,0-0.4,0c-2.7,0-5.4,0-8.1,0
				c-0.9,0-1.8,0.2-2.6,0.5C246.4,275.8,245.7,276.7,245.4,277.9z"/>
			<path d="M215,263.9c1.7,0,3.4,0,5.1,0c0,2.4,0,4.7,0,7.1c0.3,0,0.5,0,0.7,0c3.4,0,6.8,0,10.1,0c0.8,0,1.6,0.1,2.4,0.3
				c2.2,0.6,3.5,2.4,3.5,4.9c0.1,4.3,0,8.6,0,12.8c0,0.1,0,0.1,0,0.2c-1.7,0-3.4,0-5.1,0c0-0.2,0-0.4,0-0.6c0-3.8,0-7.5,0-11.3
				c0-1.6-0.6-2.3-2.2-2.3c-3,0-5.9,0-8.9,0c-0.1,0-0.3,0-0.5,0c0,4.7,0,9.4,0,14.1c-1.7,0-3.4,0-5.2,0
				C215,280.8,215,272.4,215,263.9z"/>
			<path d="M198.4,275.1c-1.8,0-3.5,0-5.2,0c0-1.4,0-2.7,0-4.1c1.7,0,3.4,0,5.2,0c0-1.9,0-3.7,0-5.6c1.7,0,3.4,0,5.2,0
				c0,1.8,0,3.7,0,5.6c2.6,0,5.1,0,7.6,0c0,1.4,0,2.7,0,4.1c-2.5,0-5,0-7.5,0c0,0.2,0,0.4,0,0.6c0,2.4,0,4.8,0,7.2
				c0,1.6,0.7,2.3,2.3,2.3c2.1,0,4.2,0,6.3,0c0,1.4,0,2.7,0,4.1c-0.1,0-0.3,0-0.4,0c-2.6,0-5.2,0-7.8,0c-1.9,0-3.5-0.6-4.6-2.2
				c-0.7-1.1-0.9-2.2-0.9-3.5c0-2.6,0-5.2,0-7.8C198.4,275.6,198.4,275.4,198.4,275.1z"/>
			<path d="M283.1,280.4c0-1.1,0-2.1,0-3.1c0-1.5-0.6-2.2-2.1-2.2c-2.4,0-4.8,0-7.2,0c-0.1,0-0.1,0-0.2,0c0,4.7,0,9.4,0,14.1
				c-1.8,0-3.5,0-5.2,0c0-6.1,0-12.1,0-18.2c0.2,0,0.4,0,0.6,0c4.5,0,9.1,0,13.6,0c1.6,0,3.1,0.3,4.3,1.5c1,1.1,1.4,2.4,1.5,3.8
				c0,1.3,0,2.6,0,3.8c0,0.1,0,0.1-0.1,0.2C286.6,280.4,284.9,280.4,283.1,280.4z"/>
		</g>
	</g>
</g>
</svg>
