<?xml version="1.0" encoding="utf-8"?>
<!-- Generator: Adobe Illustrator 25.2.1, SVG Export Plug-In . SVG Version: 6.00 Build 0)  -->
<svg version="1.1" id="Layer_1" xmlns="http://www.w3.org/2000/svg" xmlns:xlink="http://www.w3.org/1999/xlink" x="0px" y="0px"
	 viewBox="0 0 443.9 443.9" style="enable-background:new 0 0 443.9 443.9;" xml:space="preserve">
<style type="text/css">
	.st0{fill:#639283;stroke:#000000;stroke-width:0.5;stroke-miterlimit:10;}
	.st1{opacity:0.3;fill:#639283;stroke:#000000;stroke-width:0.5;stroke-miterlimit:10;}
	.st2{opacity:0;fill:#639283;stroke:#000000;stroke-width:0.5;stroke-miterlimit:10;}
	.st3{opacity:0.6;fill:#639283;stroke:#000000;stroke-width:0.5;stroke-miterlimit:10;}
	.st4{opacity:0.85;fill:#639283;stroke:#000000;stroke-width:0.5;stroke-miterlimit:10;}
	.st5{fill:none;stroke:#000000;stroke-width:5;stroke-miterlimit:10;}
</style>
<g>
	<path class="st0" d="M222.2,221.9L204.9,24.2c5.4-0.5,11.9-0.8,17.3-0.8V221.9z"/>
	<path class="st1" d="M222.2,221.9L94.6,69.9C127.7,42,161.7,28,204.9,24.2L222.2,221.9z"/>
	<path class="st2" d="M222.2,221.9L50.2,321.2C1.6,236.9,20,132.4,94.6,69.9L222.2,221.9z"/>
	<path class="st3" d="M222.2,221.9l122.2,156.4c-86.4,67.5-211.1,52.2-278.6-34.2c-5.8-7.4-10.8-14.8-15.5-23L222.2,221.9z"/>
	<path class="st4" d="M222.2,221.9V23.4c109.6,0,198.5,88.9,198.5,198.5c0,63.6-26.2,117.3-76.3,156.4L222.2,221.9z"/>
	<path class="st5" d="M222.2,221.9L204.9,24.2c5.4-0.5,11.9-0.8,17.3-0.8V221.9z"/>
	<path class="st5" d="M222.2,221.9L94.6,69.9C127.7,42,161.7,28,204.9,24.2L222.2,221.9z"/>
	<path class="st5" d="M222.2,221.9L50.2,321.2C1.6,236.9,20,132.4,94.6,69.9L222.2,221.9z"/>
	<path class="st5" d="M222.2,221.9l122.2,156.4c-86.4,67.5-211.1,52.2-278.6-34.2c-5.8-7.4-10.8-14.8-15.5-23L222.2,221.9z"/>
	<path class="st5" d="M222.2,221.9V23.4c109.6,0,198.5,88.9,198.5,198.5c0,63.6-26.2,117.3-76.3,156.4L222.2,221.9z"/>
</g>
</svg>
