<?xml version="1.0" encoding="utf-8"?>
<!-- Generator: Adobe Illustrator 25.2.1, SVG Export Plug-In . SVG Version: 6.00 Build 0)  -->
<svg version="1.1" id="Layer_1" xmlns="http://www.w3.org/2000/svg" xmlns:xlink="http://www.w3.org/1999/xlink" x="0px" y="0px"
	 viewBox="0 0 743.2 405.6" style="enable-background:new 0 0 743.2 405.6;" xml:space="preserve">
<style type="text/css">
	.st0{fill:#639283;fill-opacity:0;}
	.st1{fill:none;stroke:#000000;stroke-width:5;stroke-miterlimit:10;}
	.st2{opacity:0.85;fill:#639283;stroke:#000000;stroke-width:0.5;stroke-miterlimit:10;enable-background:new    ;}
	.st3{opacity:0.3;fill:#639283;stroke:#000000;stroke-width:0.5;stroke-miterlimit:10;enable-background:new    ;}
	.st4{opacity:0.6;fill:#639283;stroke:#000000;stroke-width:0.5;stroke-miterlimit:10;enable-background:new    ;}
	.st5{fill:#639283;stroke:#000000;stroke-width:0.5;stroke-miterlimit:10;}
</style>
<g>
	<rect x="60.1" y="345.6" class="st0" width="94.4" height="42.7"/>
	<rect x="60.1" y="345.6" class="st1" width="94.4" height="42.7"/>
</g>
<g>
	<rect x="60.1" y="49.6" class="st2" width="94.4" height="42.7"/>
	<rect x="60.1" y="49.6" class="st1" width="94.4" height="42.7"/>
</g>
<rect x="60.1" y="186.1" class="st3" width="94.4" height="42.7"/>
<rect x="60.1" y="186.1" class="st1" width="94.4" height="42.7"/>
<g>
	<rect x="60.1" y="117.8" class="st4" width="94.4" height="42.7"/>
	<rect x="60.1" y="117.8" class="st1" width="94.4" height="42.7"/>
</g>
<rect x="60.1" y="254.3" class="st5" width="94.4" height="42.7"/>
<rect x="60.1" y="254.3" class="st1" width="94.4" height="42.7"/>
<rect x="33.9" y="24.6" class="st1" width="689.3" height="297.5"/>
<g>
	<g>
		<path d="M187,83.2V54.8H197c3.1,0,5.6,0.6,7.7,1.9c2,1.3,3.6,3,4.6,5.1c1,2.1,1.6,4.5,1.6,7.1c0,2.9-0.6,5.4-1.7,7.5
			c-1.1,2.1-2.7,3.8-4.8,5s-4.5,1.8-7.3,1.8H187z M206.3,69c0-2-0.4-3.8-1.1-5.3c-0.7-1.5-1.8-2.7-3.2-3.6s-3-1.3-5-1.3h-5.6v20.5
			h5.6c2,0,3.7-0.5,5.1-1.4c1.4-0.9,2.4-2.1,3.1-3.7C206,72.6,206.3,70.9,206.3,69z"/>
		<path d="M215,58.8V54h4.4v4.8H215z M215,83.2V62.3h4.4v20.9H215z"/>
		<path d="M223.4,72.9c0-2,0.4-3.8,1.2-5.4c0.8-1.6,1.9-2.9,3.3-3.9c1.4-1,3-1.4,4.9-1.4c1.6,0,3.1,0.4,4.4,1.2c1.3,0.8,2.3,1.8,3,3
			V54h4.4v24.2c0,0.5,0.1,0.8,0.3,1.1s0.5,0.4,0.9,0.4v3.5c-0.8,0.1-1.4,0.2-1.9,0.2c-0.8,0-1.5-0.2-2.1-0.7
			c-0.6-0.5-0.9-1.1-0.9-1.7l0-1.5c-0.8,1.3-1.9,2.3-3.3,3.1c-1.3,0.7-2.8,1.1-4.2,1.1c-1.4,0-2.8-0.3-4-0.9
			c-1.2-0.6-2.3-1.3-3.2-2.3c-0.9-1-1.6-2.1-2.1-3.4C223.7,75.7,223.4,74.3,223.4,72.9z M240.2,75.7v-5.4c-0.3-0.8-0.8-1.6-1.4-2.2
			c-0.7-0.7-1.4-1.2-2.2-1.6c-0.8-0.4-1.6-0.6-2.5-0.6c-0.9,0-1.7,0.2-2.5,0.6c-0.8,0.4-1.4,0.9-2,1.6c-0.5,0.6-1,1.4-1.3,2.2
			c-0.3,0.9-0.4,1.7-0.4,2.7c0,0.9,0.2,1.8,0.5,2.6c0.3,0.8,0.8,1.6,1.4,2.2c0.6,0.6,1.3,1.1,2.1,1.5s1.6,0.5,2.6,0.5
			c0.6,0,1.2-0.1,1.8-0.3c0.6-0.2,1.2-0.5,1.7-0.8c0.5-0.4,1-0.8,1.4-1.3C239.8,76.9,240,76.3,240.2,75.7z"/>
		<path d="M269,83.2h-4.4V71.6c0-2-0.3-3.4-1-4.2s-1.6-1.3-2.8-1.3c-0.9,0-1.7,0.2-2.5,0.6c-0.8,0.4-1.6,1-2.2,1.7
			c-0.7,0.7-1.1,1.5-1.5,2.5v12.3h-4.4V62.4h4v4.2c0.5-0.9,1.2-1.7,2.1-2.4c0.9-0.7,1.8-1.2,2.9-1.5c1.1-0.4,2.3-0.6,3.5-0.6
			c1.3,0,2.3,0.2,3.1,0.7c0.8,0.4,1.5,1.1,1.9,1.8c0.5,0.8,0.8,1.7,1,2.7c0.2,1,0.3,2.1,0.3,3.2V83.2z"/>
		<path d="M274.3,63.7l0.8-4.7h-1.4v-5h4.3v5l-1.3,4.7H274.3z"/>
		<path d="M294.5,82.2c-0.3,0.2-0.8,0.4-1.4,0.6c-0.6,0.2-1.2,0.4-1.9,0.6c-0.7,0.2-1.4,0.2-2.2,0.2c-0.9,0-1.7-0.2-2.5-0.5
			s-1.4-0.8-1.9-1.5c-0.5-0.7-0.7-1.6-0.7-2.7V65.8h-2.8v-3.4h2.8v-6.9h4.4v6.9h4.6v3.4h-4.6v11.6c0.1,0.7,0.3,1.2,0.7,1.6
			c0.4,0.3,0.9,0.5,1.5,0.5c0.6,0,1.2-0.1,1.8-0.3c0.6-0.2,1-0.4,1.2-0.5L294.5,82.2z"/>
		<path d="M314.8,83.6c-1.8,0-3.4-0.3-5-0.9c-1.6-0.6-2.9-1.5-4-2.6l1.6-2.9c1.2,1,2.4,1.8,3.7,2.3c1.2,0.5,2.4,0.7,3.6,0.7
			c1.3,0,2.3-0.2,3-0.7c0.8-0.5,1.1-1.1,1.1-2c0-0.7-0.2-1.1-0.6-1.5c-0.4-0.3-1-0.6-1.8-0.8c-0.8-0.2-1.7-0.5-2.7-0.8
			c-1.5-0.4-2.7-0.9-3.7-1.4c-1-0.5-1.8-1.1-2.3-1.8c-0.5-0.7-0.8-1.6-0.8-2.7c0-1.3,0.3-2.5,1-3.4c0.7-1,1.7-1.7,2.9-2.2
			c1.2-0.5,2.7-0.8,4.3-0.8c1.5,0,2.9,0.2,4.2,0.7c1.3,0.5,2.4,1.2,3.4,2.2l-1.9,2.9c-0.9-0.8-1.9-1.4-2.8-1.8c-1-0.4-2-0.6-3.2-0.6
			c-0.6,0-1.2,0.1-1.8,0.2s-1.1,0.4-1.5,0.8c-0.4,0.4-0.6,0.9-0.6,1.6c0,0.6,0.2,1,0.5,1.4c0.3,0.3,0.8,0.6,1.5,0.9
			c0.6,0.2,1.4,0.5,2.4,0.8c1.6,0.4,3,0.9,4.2,1.4s2,1.1,2.7,1.8c0.6,0.7,0.9,1.7,0.9,3c0,2-0.8,3.5-2.3,4.7
			C319.4,83,317.4,83.6,314.8,83.6z"/>
		<path d="M327.1,54h4.4v23.3c0,1,0.2,1.7,0.5,2s0.7,0.5,1.2,0.5c0.5,0,1-0.1,1.5-0.2c0.5-0.1,0.9-0.3,1.2-0.4l0.6,3.4
			c-0.6,0.3-1.4,0.5-2.3,0.7c-0.9,0.2-1.7,0.3-2.4,0.3c-1.5,0-2.7-0.4-3.5-1.3c-0.8-0.8-1.3-2-1.3-3.5V54z"/>
		<path d="M348.6,83.6c-1.7,0-3.1-0.3-4.4-0.9c-1.3-0.6-2.4-1.4-3.4-2.3c-1-1-1.7-2.1-2.2-3.4s-0.8-2.6-0.8-4.1c0-2,0.5-3.8,1.4-5.4
			c0.9-1.6,2.2-2.9,3.8-3.9c1.6-1,3.5-1.5,5.7-1.5c2.2,0,4.1,0.5,5.7,1.5c1.6,1,2.8,2.3,3.7,3.9c0.9,1.6,1.3,3.3,1.3,5.2
			c0,0.3,0,0.6,0,0.9c0,0.3-0.1,0.5-0.1,0.7h-16.8c0.1,1.2,0.5,2.3,1.1,3.2c0.6,0.9,1.3,1.6,2.3,2.1c0.9,0.5,1.9,0.8,3,0.8
			c1.2,0,2.3-0.3,3.4-0.9c1.1-0.6,1.8-1.4,2.1-2.3l3.8,1.1c-0.5,1-1.1,1.9-2.1,2.7c-0.9,0.8-2,1.5-3.3,1.9
			C351.4,83.4,350,83.6,348.6,83.6z M342.3,71.4h12.6c-0.1-1.2-0.4-2.2-1-3.1c-0.6-0.9-1.3-1.6-2.3-2.1c-0.9-0.5-1.9-0.8-3-0.8
			c-1.1,0-2.1,0.3-3.1,0.8c-0.9,0.5-1.7,1.2-2.3,2.1C342.7,69.1,342.4,70.1,342.3,71.4z"/>
		<path d="M372.4,83.6c-1.7,0-3.1-0.3-4.4-0.9c-1.3-0.6-2.4-1.4-3.4-2.3c-1-1-1.7-2.1-2.2-3.4s-0.8-2.6-0.8-4.1c0-2,0.5-3.8,1.4-5.4
			c0.9-1.6,2.2-2.9,3.8-3.9c1.6-1,3.5-1.5,5.7-1.5c2.2,0,4.1,0.5,5.7,1.5c1.6,1,2.8,2.3,3.7,3.9c0.9,1.6,1.3,3.3,1.3,5.2
			c0,0.3,0,0.6,0,0.9c0,0.3-0.1,0.5-0.1,0.7h-16.8c0.1,1.2,0.5,2.3,1.1,3.2c0.6,0.9,1.3,1.6,2.3,2.1c0.9,0.5,1.9,0.8,3,0.8
			c1.2,0,2.3-0.3,3.4-0.9c1.1-0.6,1.8-1.4,2.1-2.3l3.8,1.1c-0.5,1-1.1,1.9-2.1,2.7c-0.9,0.8-2,1.5-3.3,1.9
			C375.2,83.4,373.8,83.6,372.4,83.6z M366.1,71.4h12.6c-0.1-1.2-0.4-2.2-1-3.1c-0.6-0.9-1.3-1.6-2.3-2.1c-0.9-0.5-1.9-0.8-3-0.8
			c-1.1,0-2.1,0.3-3.1,0.8c-0.9,0.5-1.7,1.2-2.3,2.1C366.5,69.1,366.2,70.1,366.1,71.4z"/>
		<path d="M398.6,83.6c-1.7,0-3.2-0.4-4.4-1.2c-1.3-0.8-2.3-1.8-3-3.1v12.4h-4.4V62.4h3.9v3.8c0.8-1.2,1.8-2.2,3.1-3
			c1.3-0.7,2.7-1.1,4.3-1.1c1.4,0,2.8,0.3,4,0.9c1.2,0.6,2.2,1.4,3.1,2.4c0.9,1,1.6,2.1,2.1,3.4s0.7,2.6,0.7,4.1
			c0,2-0.4,3.8-1.2,5.4c-0.8,1.7-1.9,3-3.3,3.9C402,83.1,400.4,83.6,398.6,83.6z M397.1,79.8c1,0,1.8-0.2,2.6-0.6s1.4-0.9,1.9-1.6
			c0.5-0.7,0.9-1.4,1.2-2.2c0.3-0.8,0.4-1.7,0.4-2.6c0-1-0.2-1.9-0.5-2.7c-0.3-0.8-0.8-1.6-1.4-2.2c-0.6-0.6-1.3-1.1-2.1-1.5
			c-0.8-0.4-1.6-0.6-2.5-0.6c-0.6,0-1.2,0.1-1.8,0.3c-0.6,0.2-1.2,0.5-1.7,0.9c-0.6,0.4-1,0.8-1.4,1.3c-0.4,0.5-0.7,1-0.8,1.6v5.4
			c0.4,0.8,0.9,1.6,1.5,2.3c0.6,0.7,1.3,1.2,2.1,1.6C395.5,79.6,396.3,79.8,397.1,79.8z"/>
		<path d="M447.8,62.4h4.2l-8.8,20.8h-3.8l-3.8-9.4l-3.8,9.4h-3.7l-8.8-20.8h4.2l6.7,16.6l3-7.7l-3.6-8.8h3.7l2.3,6.5l2.3-6.5h3.8
			l-3.6,8.8l3,7.7L447.8,62.4z"/>
		<path d="M464.4,83.6c-1.7,0-3.1-0.3-4.4-0.9s-2.4-1.4-3.4-2.3c-1-1-1.7-2.1-2.2-3.4c-0.5-1.3-0.8-2.6-0.8-4.1c0-2,0.5-3.8,1.4-5.4
			c0.9-1.6,2.2-2.9,3.8-3.9c1.6-1,3.5-1.5,5.7-1.5c2.2,0,4.1,0.5,5.7,1.5c1.6,1,2.8,2.3,3.7,3.9c0.9,1.6,1.3,3.3,1.3,5.2
			c0,0.3,0,0.6,0,0.9c0,0.3-0.1,0.5-0.1,0.7h-16.8c0.1,1.2,0.5,2.3,1.1,3.2c0.6,0.9,1.3,1.6,2.3,2.1c0.9,0.5,1.9,0.8,3,0.8
			c1.2,0,2.3-0.3,3.4-0.9c1.1-0.6,1.8-1.4,2.1-2.3l3.8,1.1c-0.5,1-1.1,1.9-2.1,2.7c-0.9,0.8-2,1.5-3.3,1.9
			C467.2,83.4,465.8,83.6,464.4,83.6z M458.1,71.4h12.6c-0.1-1.2-0.4-2.2-1-3.1c-0.6-0.9-1.3-1.6-2.3-2.1c-0.9-0.5-1.9-0.8-3-0.8
			c-1.1,0-2.1,0.3-3.1,0.8c-0.9,0.5-1.7,1.2-2.3,2.1C458.5,69.1,458.2,70.1,458.1,71.4z"/>
		<path d="M478.7,54h4.4v23.3c0,1,0.2,1.7,0.5,2c0.3,0.3,0.7,0.5,1.2,0.5c0.5,0,1-0.1,1.5-0.2c0.5-0.1,0.9-0.3,1.2-0.4l0.6,3.4
			c-0.6,0.3-1.4,0.5-2.3,0.7c-0.9,0.2-1.7,0.3-2.4,0.3c-1.5,0-2.7-0.4-3.5-1.3c-0.8-0.8-1.3-2-1.3-3.5V54z"/>
		<path d="M490.8,54h4.4v23.3c0,1,0.2,1.7,0.5,2c0.3,0.3,0.7,0.5,1.2,0.5c0.5,0,1-0.1,1.5-0.2c0.5-0.1,0.9-0.3,1.2-0.4l0.6,3.4
			c-0.6,0.3-1.4,0.5-2.3,0.7c-0.9,0.2-1.7,0.3-2.4,0.3c-1.5,0-2.7-0.4-3.5-1.3c-0.8-0.8-1.3-2-1.3-3.5V54z"/>
	</g>
</g>
<g>
	<g>
		<path d="M207.8,126.2h-9.4v24.4h-4.5v-24.4h-9.5v-4h23.4V126.2z"/>
		<path d="M220.4,151.1c-1.7,0-3.1-0.3-4.4-0.9c-1.3-0.6-2.4-1.4-3.4-2.4c-0.9-1-1.7-2.1-2.2-3.4c-0.5-1.3-0.8-2.6-0.8-4.1
			c0-1.5,0.3-2.9,0.8-4.1c0.5-1.3,1.2-2.4,2.2-3.4c0.9-1,2.1-1.8,3.4-2.4c1.3-0.6,2.8-0.9,4.4-0.9c1.7,0,3.1,0.3,4.4,0.9
			c1.3,0.6,2.4,1.4,3.4,2.4c1,1,1.7,2.1,2.2,3.4c0.5,1.3,0.8,2.7,0.8,4.1c0,1.4-0.3,2.8-0.8,4.1c-0.5,1.3-1.2,2.4-2.2,3.4
			c-0.9,1-2.1,1.8-3.4,2.4C223.5,150.8,222.1,151.1,220.4,151.1z M214.2,140.3c0,1.3,0.3,2.5,0.8,3.6c0.6,1.1,1.3,1.9,2.2,2.5
			c0.9,0.6,2,0.9,3.1,0.9c1.2,0,2.3-0.3,3.2-0.9c0.9-0.6,1.7-1.4,2.2-2.5c0.6-1.1,0.8-2.3,0.8-3.5c0-1.3-0.3-2.5-0.8-3.6
			s-1.3-1.9-2.3-2.5c-0.9-0.6-2-0.9-3.1-0.9c-1.2,0-2.2,0.3-3.2,0.9c-0.9,0.6-1.7,1.5-2.2,2.5C214.5,137.9,214.2,139,214.2,140.3z"
			/>
		<path d="M244.5,151.1c-1.7,0-3.1-0.3-4.4-0.9c-1.3-0.6-2.4-1.4-3.4-2.4c-0.9-1-1.7-2.1-2.2-3.4c-0.5-1.3-0.8-2.6-0.8-4.1
			c0-1.5,0.3-2.9,0.8-4.1c0.5-1.3,1.2-2.4,2.2-3.4c0.9-1,2.1-1.8,3.4-2.4c1.3-0.6,2.8-0.9,4.4-0.9c1.7,0,3.1,0.3,4.4,0.9
			c1.3,0.6,2.4,1.4,3.4,2.4c1,1,1.7,2.1,2.2,3.4c0.5,1.3,0.8,2.7,0.8,4.1c0,1.4-0.3,2.8-0.8,4.1c-0.5,1.3-1.2,2.4-2.2,3.4
			c-0.9,1-2.1,1.8-3.4,2.4C247.6,150.8,246.2,151.1,244.5,151.1z M238.3,140.3c0,1.3,0.3,2.5,0.8,3.6c0.6,1.1,1.3,1.9,2.2,2.5
			c0.9,0.6,2,0.9,3.1,0.9c1.2,0,2.3-0.3,3.2-0.9c0.9-0.6,1.7-1.4,2.2-2.5c0.6-1.1,0.8-2.3,0.8-3.5c0-1.3-0.3-2.5-0.8-3.6
			s-1.3-1.9-2.3-2.5c-0.9-0.6-2-0.9-3.1-0.9c-1.2,0-2.2,0.3-3.2,0.9c-0.9,0.6-1.7,1.5-2.2,2.5C238.6,137.9,238.3,139,238.3,140.3z"
			/>
		<path d="M273.8,150.7l-6.7-9.5l-3.4,3.2v6.3h-4.4v-29.2h4.4v18.5l9.7-10h4.7l-8.1,8.7l8.6,12.1H273.8z"/>
		<path d="M300.4,151.1c-1.7,0-3.1-0.3-4.4-0.9c-1.3-0.6-2.4-1.4-3.4-2.4c-0.9-1-1.7-2.1-2.2-3.4c-0.5-1.3-0.8-2.6-0.8-4.1
			c0-1.5,0.3-2.9,0.8-4.1c0.5-1.3,1.2-2.4,2.2-3.4c0.9-1,2.1-1.8,3.4-2.4c1.3-0.6,2.8-0.9,4.4-0.9c1.7,0,3.1,0.3,4.4,0.9
			c1.3,0.6,2.4,1.4,3.4,2.4c1,1,1.7,2.1,2.2,3.4c0.5,1.3,0.8,2.7,0.8,4.1c0,1.4-0.3,2.8-0.8,4.1c-0.5,1.3-1.2,2.4-2.2,3.4
			c-0.9,1-2.1,1.8-3.4,2.4C303.5,150.8,302,151.1,300.4,151.1z M294.2,140.3c0,1.3,0.3,2.5,0.8,3.6c0.6,1.1,1.3,1.9,2.2,2.5
			c0.9,0.6,2,0.9,3.1,0.9c1.2,0,2.3-0.3,3.2-0.9c0.9-0.6,1.7-1.4,2.2-2.5c0.6-1.1,0.8-2.3,0.8-3.5c0-1.3-0.3-2.5-0.8-3.6
			s-1.3-1.9-2.3-2.5c-0.9-0.6-2-0.9-3.1-0.9c-1.2,0-2.2,0.3-3.2,0.9c-0.9,0.6-1.7,1.5-2.2,2.5C294.4,137.9,294.2,139,294.2,140.3z"
			/>
		<path d="M316.3,150.7v-17h-2.8v-3.4h2.8v-0.4c0-1.4,0.3-2.6,0.8-3.7c0.6-1.1,1.4-2,2.4-2.7c1.1-0.7,2.3-1,3.7-1
			c1,0,1.9,0.1,2.7,0.4c0.8,0.2,1.6,0.5,2.4,0.9l-1,3.4c-0.6-0.3-1.1-0.6-1.7-0.7c-0.5-0.1-1.1-0.2-1.6-0.2s-1.1,0.1-1.5,0.3
			c-0.4,0.2-0.8,0.5-1.1,0.8c-0.3,0.3-0.5,0.7-0.7,1.1c-0.1,0.4-0.2,0.9-0.2,1.3v0.5h5.4v3.4h-5.4v17H316.3z M326.3,150.7v-17h-2.8
			v-3.4h2.8v-0.9c0-1.7,0.3-3.2,0.8-4.4c0.5-1.3,1.3-2.2,2.3-2.9c1-0.7,2.2-1,3.6-1c0.8,0,1.7,0.1,2.5,0.3s1.6,0.5,2.3,0.9l-1,3.3
			c-0.4-0.2-0.8-0.4-1.4-0.6c-0.5-0.2-1.1-0.2-1.6-0.2c-1,0-1.8,0.4-2.4,1.2c-0.6,0.8-0.8,1.9-0.8,3.3v1h5.4v3.4h-5.4v17H326.3z"/>
		<path d="M361,151.1c-1.6,0-3-0.4-4.3-1.1c-1.3-0.8-2.3-1.8-3.1-3v3.8h-3.9v-29.2h4.4v12.4c0.8-1.3,1.9-2.3,3.1-3.1
			c1.2-0.8,2.7-1.2,4.4-1.2c1.4,0,2.7,0.3,3.8,0.9c1.1,0.6,2.1,1.4,2.9,2.4s1.4,2.2,1.9,3.4s0.7,2.6,0.7,4.1c0,1.5-0.2,2.9-0.7,4.2
			c-0.5,1.3-1.2,2.4-2.1,3.4c-0.9,1-1.9,1.8-3.1,2.3C363.8,150.8,362.5,151.1,361,151.1z M359.9,147.3c0.9,0,1.8-0.2,2.6-0.6
			c0.8-0.4,1.5-0.9,2.1-1.5c0.6-0.6,1-1.4,1.3-2.2c0.3-0.8,0.5-1.7,0.5-2.6c0-1.3-0.3-2.4-0.8-3.5s-1.2-1.9-2.2-2.6
			c-0.9-0.7-2-1-3.2-1c-0.9,0-1.7,0.2-2.5,0.6c-0.8,0.4-1.5,0.9-2.1,1.6c-0.6,0.7-1.1,1.4-1.5,2.2v5.4c0.1,0.6,0.4,1.2,0.8,1.6
			c0.4,0.5,0.9,0.9,1.4,1.3c0.6,0.4,1.1,0.7,1.7,0.8C358.7,147.2,359.3,147.3,359.9,147.3z"/>
		<path d="M384.3,151.1c-1.7,0-3.1-0.3-4.4-0.9c-1.3-0.6-2.4-1.4-3.4-2.4c-0.9-1-1.7-2.1-2.2-3.4c-0.5-1.3-0.8-2.6-0.8-4.1
			c0-1.5,0.3-2.9,0.8-4.1c0.5-1.3,1.2-2.4,2.2-3.4c0.9-1,2.1-1.8,3.4-2.4c1.3-0.6,2.8-0.9,4.4-0.9c1.7,0,3.1,0.3,4.4,0.9
			c1.3,0.6,2.4,1.4,3.4,2.4c1,1,1.7,2.1,2.2,3.4c0.5,1.3,0.8,2.7,0.8,4.1c0,1.4-0.3,2.8-0.8,4.1c-0.5,1.3-1.2,2.4-2.2,3.4
			s-2.1,1.8-3.4,2.4C387.4,150.8,385.9,151.1,384.3,151.1z M378,140.3c0,1.3,0.3,2.5,0.8,3.6c0.6,1.1,1.3,1.9,2.2,2.5
			c0.9,0.6,2,0.9,3.1,0.9c1.2,0,2.3-0.3,3.2-0.9c0.9-0.6,1.7-1.4,2.2-2.5c0.6-1.1,0.8-2.3,0.8-3.5c0-1.3-0.3-2.5-0.8-3.6
			c-0.6-1.1-1.3-1.9-2.3-2.5c-0.9-0.6-2-0.9-3.1-0.9c-1.2,0-2.2,0.3-3.2,0.9c-0.9,0.6-1.7,1.5-2.2,2.5
			C378.3,137.9,378,139,378,140.3z"/>
		<path d="M408.4,151.1c-1.7,0-3.1-0.3-4.4-0.9c-1.3-0.6-2.4-1.4-3.4-2.4c-0.9-1-1.7-2.1-2.2-3.4s-0.8-2.6-0.8-4.1
			c0-1.5,0.3-2.9,0.8-4.1s1.2-2.4,2.2-3.4c0.9-1,2.1-1.8,3.4-2.4c1.3-0.6,2.8-0.9,4.4-0.9c1.7,0,3.1,0.3,4.4,0.9
			c1.3,0.6,2.4,1.4,3.4,2.4c1,1,1.7,2.1,2.2,3.4c0.5,1.3,0.8,2.7,0.8,4.1c0,1.4-0.3,2.8-0.8,4.1c-0.5,1.3-1.2,2.4-2.2,3.4
			c-0.9,1-2.1,1.8-3.4,2.4C411.5,150.8,410,151.1,408.4,151.1z M402.1,140.3c0,1.3,0.3,2.5,0.8,3.6c0.6,1.1,1.3,1.9,2.2,2.5
			c0.9,0.6,2,0.9,3.1,0.9c1.2,0,2.3-0.3,3.2-0.9c0.9-0.6,1.7-1.4,2.2-2.5c0.6-1.1,0.8-2.3,0.8-3.5c0-1.3-0.3-2.5-0.8-3.6
			c-0.6-1.1-1.3-1.9-2.3-2.5c-0.9-0.6-2-0.9-3.1-0.9c-1.2,0-2.2,0.3-3.2,0.9s-1.7,1.5-2.2,2.5C402.4,137.9,402.1,139,402.1,140.3z"
			/>
		<path d="M434.7,149.7c-0.3,0.2-0.8,0.4-1.4,0.6c-0.6,0.2-1.2,0.4-1.9,0.6c-0.7,0.2-1.4,0.2-2.2,0.2c-0.9,0-1.7-0.2-2.5-0.5
			c-0.8-0.3-1.4-0.8-1.9-1.5c-0.5-0.7-0.7-1.6-0.7-2.7v-13.1h-2.8v-3.4h2.8V123h4.4v6.9h4.6v3.4h-4.6v11.6c0.1,0.7,0.3,1.2,0.7,1.6
			c0.4,0.3,0.9,0.5,1.5,0.5c0.6,0,1.2-0.1,1.8-0.3c0.6-0.2,1-0.4,1.2-0.5L434.7,149.7z"/>
	</g>
</g>
<g>
	<g>
		<path d="M195.2,189.7h4.2l11,28.4h-4.7l-2.8-7.7h-11.4l-2.8,7.7h-4.7L195.2,189.7z M201.8,207.1l-4.5-12.4l-4.5,12.4H201.8z"/>
		<path d="M212.1,207.8c0-2,0.4-3.8,1.2-5.4c0.8-1.6,1.9-2.9,3.3-3.9c1.4-1,3-1.4,4.9-1.4c1.6,0,3.1,0.4,4.4,1.2
			c1.3,0.8,2.3,1.8,3,3v-12.4h4.4v24.2c0,0.5,0.1,0.8,0.3,1.1s0.5,0.4,0.9,0.4v3.5c-0.8,0.1-1.4,0.2-1.9,0.2c-0.8,0-1.5-0.2-2.1-0.7
			c-0.6-0.5-0.9-1.1-0.9-1.7l0-1.5c-0.8,1.3-1.9,2.3-3.3,3.1c-1.3,0.7-2.8,1.1-4.2,1.1c-1.4,0-2.8-0.3-4-0.9
			c-1.2-0.6-2.3-1.3-3.2-2.3c-0.9-1-1.6-2.1-2.1-3.4C212.3,210.7,212.1,209.3,212.1,207.8z M228.9,210.7v-5.4
			c-0.3-0.8-0.8-1.6-1.4-2.2c-0.7-0.7-1.4-1.2-2.2-1.6c-0.8-0.4-1.6-0.6-2.5-0.6c-0.9,0-1.7,0.2-2.5,0.6c-0.8,0.4-1.4,0.9-2,1.6
			c-0.5,0.6-1,1.4-1.3,2.2c-0.3,0.9-0.4,1.7-0.4,2.7s0.2,1.8,0.5,2.6c0.3,0.8,0.8,1.6,1.4,2.2c0.6,0.6,1.3,1.1,2.1,1.5
			c0.8,0.4,1.6,0.5,2.6,0.5c0.6,0,1.2-0.1,1.8-0.3c0.6-0.2,1.2-0.5,1.7-0.8c0.5-0.4,1-0.8,1.4-1.3
			C228.4,211.8,228.7,211.3,228.9,210.7z"/>
		<path d="M236.7,225.8c-0.9,0-1.8-0.1-2.7-0.4c-0.9-0.3-1.7-0.7-2.3-1.4l2-3c0.3,0.3,0.7,0.6,1.2,0.7c0.5,0.1,0.9,0.2,1.4,0.2
			c0.5,0,1-0.1,1.5-0.4c0.5-0.3,0.8-0.6,1.1-1.1c0.3-0.5,0.4-1,0.4-1.6v-21.5h4.4v21.2c0,1.4-0.3,2.6-1,3.7
			c-0.6,1.1-1.5,1.9-2.5,2.5C239.1,225.5,237.9,225.8,236.7,225.8z M239.1,193.9v-4.8h4.4v4.8H239.1z"/>
		<path d="M248.6,210.1v-12.7h4.4v11.8c0,1.8,0.3,3.2,1,4.2c0.7,0.9,1.7,1.4,3,1.4c0.8,0,1.6-0.2,2.4-0.5s1.5-0.8,2.2-1.5
			c0.7-0.7,1.2-1.5,1.6-2.4v-12.9h4.4v15.8c0,0.5,0.1,0.8,0.3,1c0.2,0.2,0.5,0.4,0.9,0.4v3.5c-0.5,0.1-0.8,0.1-1.1,0.1
			c-0.3,0-0.6,0-0.8,0.1c-0.8,0-1.5-0.3-2-0.7c-0.5-0.4-0.8-1-0.9-1.7l-0.1-2c-0.9,1.5-2.1,2.6-3.6,3.4c-1.5,0.8-3.2,1.2-4.9,1.2
			c-2.2,0-3.8-0.7-5-2.1S248.6,212.9,248.6,210.1z"/>
		<path d="M280.6,218.5c-1.8,0-3.4-0.3-5-0.9c-1.6-0.6-2.9-1.5-4-2.6l1.6-2.9c1.2,1,2.4,1.8,3.7,2.3c1.2,0.5,2.4,0.7,3.6,0.7
			c1.3,0,2.3-0.2,3-0.7c0.8-0.5,1.1-1.1,1.1-2c0-0.7-0.2-1.1-0.6-1.5c-0.4-0.3-1-0.6-1.8-0.8c-0.8-0.2-1.7-0.5-2.7-0.8
			c-1.5-0.4-2.7-0.9-3.7-1.4c-1-0.5-1.8-1.1-2.3-1.8c-0.5-0.7-0.8-1.6-0.8-2.7c0-1.3,0.3-2.5,1-3.4c0.7-1,1.7-1.7,2.9-2.2
			c1.2-0.5,2.7-0.8,4.3-0.8c1.5,0,2.9,0.2,4.2,0.7c1.3,0.5,2.4,1.2,3.4,2.2l-1.9,2.9c-0.9-0.8-1.9-1.4-2.8-1.8c-1-0.4-2-0.6-3.2-0.6
			c-0.6,0-1.2,0.1-1.8,0.2s-1.1,0.4-1.5,0.8c-0.4,0.4-0.6,0.9-0.6,1.6c0,0.6,0.2,1,0.5,1.4s0.8,0.6,1.5,0.9c0.6,0.2,1.4,0.5,2.4,0.8
			c1.6,0.4,3,0.9,4.2,1.4c1.1,0.5,2,1.1,2.7,1.8c0.6,0.7,0.9,1.7,0.9,3c0,2-0.8,3.5-2.3,4.7C285.1,218,283.1,218.5,280.6,218.5z"/>
		<path d="M304.4,217.1c-0.3,0.2-0.8,0.4-1.4,0.6c-0.6,0.2-1.2,0.4-1.9,0.6c-0.7,0.2-1.4,0.2-2.2,0.2c-0.9,0-1.7-0.2-2.5-0.5
			c-0.8-0.3-1.4-0.8-1.9-1.5c-0.5-0.7-0.7-1.6-0.7-2.7v-13.1h-2.8v-3.4h2.8v-6.9h4.4v6.9h4.6v3.4h-4.6v11.6c0.1,0.7,0.3,1.2,0.7,1.6
			c0.4,0.3,0.9,0.5,1.5,0.5c0.6,0,1.2-0.1,1.8-0.3c0.6-0.2,1-0.4,1.2-0.5L304.4,217.1z"/>
		<path d="M317,218.5c-1.7,0-3.1-0.3-4.4-0.9c-1.3-0.6-2.4-1.4-3.4-2.3c-1-1-1.7-2.1-2.2-3.4c-0.5-1.3-0.8-2.6-0.8-4.1
			c0-2,0.5-3.8,1.4-5.4c0.9-1.6,2.2-2.9,3.8-3.9c1.6-1,3.5-1.5,5.7-1.5c2.2,0,4.1,0.5,5.7,1.5c1.6,1,2.8,2.3,3.7,3.9
			c0.9,1.6,1.3,3.3,1.3,5.2c0,0.3,0,0.6,0,0.9c0,0.3-0.1,0.5-0.1,0.7h-16.8c0.1,1.2,0.5,2.3,1.1,3.2c0.6,0.9,1.3,1.6,2.3,2.1
			c0.9,0.5,1.9,0.8,3,0.8c1.2,0,2.3-0.3,3.4-0.9c1.1-0.6,1.8-1.4,2.1-2.3l3.8,1.1c-0.5,1-1.1,1.9-2.1,2.7c-0.9,0.8-2,1.5-3.3,1.9
			C319.8,218.3,318.4,218.5,317,218.5z M310.7,206.3h12.6c-0.1-1.2-0.4-2.2-1-3.1c-0.6-0.9-1.3-1.6-2.3-2.1c-0.9-0.5-1.9-0.8-3-0.8
			c-1.1,0-2.1,0.3-3.1,0.8c-0.9,0.5-1.7,1.2-2.3,2.1C311.1,204.1,310.8,205.1,310.7,206.3z"/>
		<path d="M330,207.8c0-2,0.4-3.8,1.2-5.4c0.8-1.6,1.9-2.9,3.3-3.9c1.4-1,3-1.4,4.9-1.4c1.6,0,3.1,0.4,4.4,1.2c1.3,0.8,2.3,1.8,3,3
			v-12.4h4.4v24.2c0,0.5,0.1,0.8,0.3,1.1s0.5,0.4,0.9,0.4v3.5c-0.8,0.1-1.4,0.2-1.9,0.2c-0.8,0-1.5-0.2-2.1-0.7
			c-0.6-0.5-0.9-1.1-0.9-1.7l0-1.5c-0.8,1.3-1.9,2.3-3.3,3.1c-1.3,0.7-2.8,1.1-4.2,1.1c-1.4,0-2.8-0.3-4-0.9
			c-1.2-0.6-2.3-1.3-3.2-2.3c-0.9-1-1.6-2.1-2.1-3.4C330.2,210.7,330,209.3,330,207.8z M346.8,210.7v-5.4c-0.3-0.8-0.8-1.6-1.4-2.2
			c-0.7-0.7-1.4-1.2-2.2-1.6c-0.8-0.4-1.6-0.6-2.5-0.6c-0.9,0-1.7,0.2-2.5,0.6c-0.8,0.4-1.4,0.9-2,1.6c-0.5,0.6-1,1.4-1.3,2.2
			c-0.3,0.9-0.4,1.7-0.4,2.7s0.2,1.8,0.5,2.6c0.3,0.8,0.8,1.6,1.4,2.2c0.6,0.6,1.3,1.1,2.1,1.5c0.8,0.4,1.6,0.5,2.6,0.5
			c0.6,0,1.2-0.1,1.8-0.3c0.6-0.2,1.2-0.5,1.7-0.8c0.5-0.4,1-0.8,1.4-1.3C346.3,211.8,346.6,211.3,346.8,210.7z"/>
		<path d="M377.9,218.5c-1.6,0-3-0.4-4.3-1.1c-1.3-0.8-2.3-1.8-3.1-3v3.8h-3.9v-29.2h4.4v12.4c0.8-1.3,1.9-2.3,3.1-3.1
			c1.2-0.8,2.7-1.2,4.4-1.2c1.4,0,2.7,0.3,3.8,0.9c1.1,0.6,2.1,1.4,2.9,2.4s1.4,2.2,1.9,3.4c0.4,1.3,0.7,2.6,0.7,4.1
			c0,1.5-0.2,2.9-0.7,4.2c-0.5,1.3-1.2,2.4-2.1,3.4c-0.9,1-1.9,1.8-3.1,2.3C380.6,218.3,379.3,218.5,377.9,218.5z M376.8,214.8
			c0.9,0,1.8-0.2,2.6-0.6s1.5-0.9,2.1-1.5c0.6-0.6,1-1.4,1.3-2.2c0.3-0.8,0.5-1.7,0.5-2.6c0-1.3-0.3-2.4-0.8-3.5
			c-0.5-1.1-1.2-1.9-2.2-2.6c-0.9-0.7-2-1-3.2-1c-0.9,0-1.7,0.2-2.5,0.6c-0.8,0.4-1.5,0.9-2.1,1.6c-0.6,0.7-1.1,1.4-1.5,2.2v5.4
			c0.1,0.6,0.4,1.2,0.8,1.6c0.4,0.5,0.9,0.9,1.4,1.3c0.6,0.4,1.1,0.7,1.7,0.8C375.6,214.7,376.2,214.8,376.8,214.8z"/>
		<path d="M401.2,218.5c-1.7,0-3.1-0.3-4.4-0.9c-1.3-0.6-2.4-1.4-3.4-2.4c-0.9-1-1.7-2.1-2.2-3.4c-0.5-1.3-0.8-2.6-0.8-4.1
			c0-1.5,0.3-2.9,0.8-4.1c0.5-1.3,1.2-2.4,2.2-3.4c0.9-1,2.1-1.8,3.4-2.4c1.3-0.6,2.8-0.9,4.4-0.9c1.7,0,3.1,0.3,4.4,0.9
			c1.3,0.6,2.4,1.4,3.4,2.4c1,1,1.7,2.1,2.2,3.4c0.5,1.3,0.8,2.7,0.8,4.1c0,1.4-0.3,2.8-0.8,4.1c-0.5,1.3-1.2,2.4-2.2,3.4
			c-0.9,1-2.1,1.8-3.4,2.4C404.3,218.3,402.8,218.5,401.2,218.5z M394.9,207.8c0,1.3,0.3,2.5,0.8,3.6c0.6,1.1,1.3,1.9,2.2,2.5
			c0.9,0.6,2,0.9,3.1,0.9c1.2,0,2.3-0.3,3.2-0.9c0.9-0.6,1.7-1.4,2.2-2.5c0.6-1.1,0.8-2.3,0.8-3.5c0-1.3-0.3-2.5-0.8-3.6
			c-0.6-1.1-1.3-1.9-2.3-2.5c-0.9-0.6-2-0.9-3.1-0.9c-1.2,0-2.2,0.3-3.2,0.9c-0.9,0.6-1.7,1.5-2.2,2.5
			C395.2,205.3,394.9,206.5,394.9,207.8z"/>
		<path d="M425.2,218.5c-1.7,0-3.1-0.3-4.4-0.9c-1.3-0.6-2.4-1.4-3.4-2.4s-1.7-2.1-2.2-3.4c-0.5-1.3-0.8-2.6-0.8-4.1
			c0-1.5,0.3-2.9,0.8-4.1c0.5-1.3,1.2-2.4,2.2-3.4c0.9-1,2.1-1.8,3.4-2.4c1.3-0.6,2.8-0.9,4.4-0.9c1.7,0,3.1,0.3,4.4,0.9
			c1.3,0.6,2.4,1.4,3.4,2.4c1,1,1.7,2.1,2.2,3.4c0.5,1.3,0.8,2.7,0.8,4.1c0,1.4-0.3,2.8-0.8,4.1c-0.5,1.3-1.2,2.4-2.2,3.4
			c-0.9,1-2.1,1.8-3.4,2.4C428.3,218.3,426.9,218.5,425.2,218.5z M419,207.8c0,1.3,0.3,2.5,0.8,3.6c0.6,1.1,1.3,1.9,2.2,2.5
			s2,0.9,3.1,0.9c1.2,0,2.3-0.3,3.2-0.9c0.9-0.6,1.7-1.4,2.2-2.5c0.6-1.1,0.8-2.3,0.8-3.5c0-1.3-0.3-2.5-0.8-3.6
			c-0.6-1.1-1.3-1.9-2.3-2.5c-0.9-0.6-2-0.9-3.1-0.9c-1.2,0-2.2,0.3-3.2,0.9s-1.7,1.5-2.2,2.5C419.3,205.3,419,206.5,419,207.8z"/>
		<path d="M451.6,217.1c-0.3,0.2-0.8,0.4-1.4,0.6c-0.6,0.2-1.2,0.4-1.9,0.6s-1.4,0.2-2.2,0.2c-0.9,0-1.7-0.2-2.5-0.5
			c-0.8-0.3-1.4-0.8-1.9-1.5c-0.5-0.7-0.7-1.6-0.7-2.7v-13.1h-2.8v-3.4h2.8v-6.9h4.4v6.9h4.6v3.4h-4.6v11.6c0.1,0.7,0.3,1.2,0.7,1.6
			c0.4,0.3,0.9,0.5,1.5,0.5c0.6,0,1.2-0.1,1.8-0.3s1-0.4,1.2-0.5L451.6,217.1z"/>
		<path d="M463,212.1c0-1.3,0.4-2.5,1.1-3.5s1.8-1.8,3.2-2.3c1.3-0.5,2.9-0.8,4.6-0.8c0.9,0,1.9,0.1,2.8,0.2c1,0.1,1.8,0.4,2.6,0.6
			V205c0-1.4-0.4-2.6-1.3-3.4c-0.9-0.8-2.1-1.2-3.8-1.2c-1.2,0-2.3,0.2-3.3,0.6s-2.1,1-3.3,1.8l-1.4-3c1.3-0.9,2.7-1.6,4.1-2.1
			c1.4-0.5,2.9-0.7,4.4-0.7c2.8,0,5,0.7,6.6,2.2c1.6,1.5,2.4,3.5,2.4,6.2v7.7c0,0.5,0.1,0.9,0.3,1.1c0.2,0.2,0.5,0.3,0.9,0.4v3.5
			c-0.4,0.1-0.8,0.1-1.1,0.2c-0.3,0-0.6,0.1-0.8,0.1c-1,0-1.7-0.3-2.2-0.7c-0.5-0.5-0.8-1-0.8-1.6l-0.1-1.2c-0.9,1.2-2,2.1-3.5,2.7
			c-1.4,0.6-2.9,1-4.3,1c-1.4,0-2.6-0.3-3.7-0.9c-1.1-0.6-1.9-1.3-2.6-2.3C463.3,214.4,463,213.3,463,212.1z M476.3,213.4
			c0.3-0.4,0.5-0.7,0.7-1.1c0.2-0.3,0.3-0.7,0.3-0.9V209c-0.7-0.3-1.5-0.5-2.4-0.6c-0.8-0.1-1.6-0.2-2.4-0.2c-1.6,0-2.9,0.3-3.9,0.9
			c-1,0.6-1.5,1.5-1.5,2.6c0,0.6,0.2,1.2,0.5,1.7c0.3,0.5,0.8,1,1.4,1.3c0.6,0.4,1.4,0.5,2.3,0.5c1,0,1.9-0.2,2.8-0.6
			C475,214.3,475.8,213.9,476.3,213.4z"/>
		<path d="M498.7,217.1c-0.3,0.2-0.8,0.4-1.4,0.6c-0.6,0.2-1.2,0.4-1.9,0.6s-1.4,0.2-2.2,0.2c-0.9,0-1.7-0.2-2.5-0.5
			c-0.8-0.3-1.4-0.8-1.9-1.5c-0.5-0.7-0.7-1.6-0.7-2.7v-13.1h-2.8v-3.4h2.8v-6.9h4.4v6.9h4.6v3.4h-4.6v11.6c0.1,0.7,0.3,1.2,0.7,1.6
			c0.4,0.3,0.9,0.5,1.5,0.5c0.6,0,1.2-0.1,1.8-0.3s1-0.4,1.2-0.5L498.7,217.1z"/>
		<path d="M530.4,218.1H526v-11.6c0-2-0.3-3.4-1-4.2s-1.6-1.3-2.8-1.3c-0.9,0-1.7,0.2-2.5,0.6s-1.6,1-2.2,1.7
			c-0.7,0.7-1.1,1.5-1.5,2.5v12.3h-4.4v-20.8h4v4.2c0.5-0.9,1.2-1.7,2.1-2.4c0.9-0.7,1.8-1.2,2.9-1.5s2.3-0.6,3.5-0.6
			c1.3,0,2.3,0.2,3.1,0.7c0.8,0.4,1.5,1.1,1.9,1.8c0.5,0.8,0.8,1.7,1,2.7s0.3,2.1,0.3,3.2V218.1z"/>
		<path d="M535.5,193.8v-4.8h4.4v4.8H535.5z M535.5,218.1v-20.9h4.4v20.9H535.5z"/>
		<path d="M553.4,218.5c-1.4,0-2.7-0.3-3.9-0.9c-1.2-0.6-2.2-1.4-3-2.3c-0.8-1-1.5-2.1-1.9-3.4c-0.5-1.3-0.7-2.6-0.7-4
			c0-1.5,0.2-2.9,0.7-4.2c0.5-1.3,1.1-2.5,2-3.5s1.9-1.8,3.1-2.3c1.2-0.6,2.5-0.8,3.9-0.8c1.7,0,3.2,0.4,4.4,1.2s2.3,1.8,3.1,3.1
			v-3.9h3.9v20.2c0,2-0.5,3.7-1.5,5.1c-1,1.4-2.3,2.5-4,3.2c-1.7,0.7-3.6,1.1-5.6,1.1c-2.3,0-4.2-0.4-5.8-1.2
			c-1.5-0.8-2.8-1.9-3.9-3.3l2.4-2.3c0.9,1.1,1.9,2,3.2,2.6c1.3,0.6,2.6,0.9,4.1,0.9c1.2,0,2.3-0.2,3.3-0.6s1.8-1.1,2.4-2
			c0.6-0.9,0.9-2,0.9-3.4v-3.2c-0.7,1.2-1.8,2.2-3.1,2.9C556.3,218.2,554.9,218.5,553.4,218.5z M554.9,215c0.7,0,1.3-0.1,1.9-0.4
			c0.6-0.2,1.2-0.5,1.7-0.9c0.5-0.4,1-0.8,1.3-1.3c0.4-0.5,0.6-1,0.8-1.6v-5.5c-0.3-0.9-0.8-1.7-1.5-2.4c-0.6-0.7-1.3-1.2-2.1-1.6
			c-0.8-0.4-1.6-0.6-2.5-0.6c-1,0-1.8,0.2-2.6,0.6c-0.8,0.4-1.4,1-1.9,1.6s-0.9,1.4-1.2,2.3c-0.3,0.9-0.4,1.7-0.4,2.6
			c0,0.9,0.2,1.8,0.5,2.7c0.3,0.8,0.8,1.6,1.4,2.2s1.3,1.2,2.1,1.5C553.1,214.8,553.9,215,554.9,215z"/>
		<path d="M589.1,218.1h-4.4v-11.6c0-1.9-0.4-3.3-1.1-4.2c-0.7-0.9-1.7-1.4-2.9-1.4c-0.8,0-1.6,0.2-2.4,0.6s-1.5,1-2.2,1.7
			c-0.6,0.7-1.1,1.6-1.4,2.5v12.3h-4.4v-29.2h4.4v12.6c0.8-1.4,1.9-2.5,3.3-3.3c1.4-0.8,2.9-1.2,4.5-1.2c1.3,0,2.4,0.2,3.3,0.7
			c0.8,0.4,1.5,1.1,2,1.8c0.5,0.8,0.8,1.7,1,2.7c0.2,1,0.3,2.1,0.3,3.2V218.1z"/>
		<path d="M605.8,217.1c-0.3,0.2-0.8,0.4-1.4,0.6c-0.6,0.2-1.2,0.4-1.9,0.6s-1.4,0.2-2.2,0.2c-0.9,0-1.7-0.2-2.5-0.5
			c-0.8-0.3-1.4-0.8-1.9-1.5c-0.5-0.7-0.7-1.6-0.7-2.7v-13.1h-2.8v-3.4h2.8v-6.9h4.4v6.9h4.6v3.4h-4.6v11.6c0.1,0.7,0.3,1.2,0.7,1.6
			c0.4,0.3,0.9,0.5,1.5,0.5c0.6,0,1.2-0.1,1.8-0.3s1-0.4,1.2-0.5L605.8,217.1z"/>
	</g>
</g>
<g>
	<g>
		<path d="M198.7,285.8c-2,0-3.8-0.4-5.5-1.2c-1.7-0.8-3.1-1.9-4.3-3.3c-1.2-1.4-2.1-2.9-2.8-4.6c-0.7-1.7-1-3.5-1-5.3
			c0-1.9,0.3-3.7,1-5.4c0.7-1.7,1.7-3.3,2.9-4.6c1.2-1.3,2.7-2.4,4.3-3.2c1.6-0.8,3.4-1.2,5.4-1.2c2.1,0,3.9,0.4,5.5,1.2
			c1.6,0.8,3.1,1.9,4.3,3.3c1.2,1.4,2.1,2.9,2.8,4.6c0.6,1.7,1,3.5,1,5.3c0,1.9-0.3,3.7-1,5.4c-0.7,1.7-1.6,3.3-2.9,4.6
			c-1.2,1.3-2.7,2.4-4.3,3.2S200.7,285.8,198.7,285.8z M189.8,271.4c0,1.4,0.2,2.7,0.6,3.9c0.4,1.2,1,2.3,1.8,3.3
			c0.8,1,1.7,1.7,2.8,2.3c1.1,0.6,2.4,0.8,3.8,0.8c1.4,0,2.7-0.3,3.8-0.9c1.1-0.6,2.1-1.4,2.8-2.4c0.8-1,1.4-2.1,1.8-3.3
			c0.4-1.2,0.6-2.5,0.6-3.8c0-1.4-0.2-2.7-0.6-3.9c-0.4-1.2-1-2.3-1.8-3.3c-0.8-1-1.8-1.7-2.9-2.3c-1.1-0.6-2.3-0.8-3.7-0.8
			c-1.5,0-2.8,0.3-3.9,0.9c-1.1,0.6-2,1.4-2.8,2.4c-0.8,1-1.4,2.1-1.8,3.3S189.8,270.1,189.8,271.4z"/>
		<path d="M228.1,284.6c-0.3,0.2-0.8,0.4-1.4,0.6c-0.6,0.2-1.2,0.4-1.9,0.6c-0.7,0.2-1.4,0.2-2.2,0.2c-0.9,0-1.7-0.2-2.5-0.5
			c-0.8-0.3-1.4-0.8-1.9-1.5c-0.5-0.7-0.7-1.6-0.7-2.7v-13.1h-2.8v-3.4h2.8V258h4.4v6.9h4.6v3.4H222v11.6c0.1,0.7,0.3,1.2,0.7,1.6
			c0.4,0.3,0.9,0.5,1.5,0.5c0.6,0,1.2-0.1,1.8-0.3c0.6-0.2,1-0.4,1.2-0.5L228.1,284.6z"/>
		<path d="M249.9,285.6h-4.4V274c0-1.9-0.4-3.3-1.1-4.2c-0.7-0.9-1.7-1.4-2.9-1.4c-0.8,0-1.6,0.2-2.4,0.6c-0.8,0.4-1.5,1-2.2,1.7
			c-0.6,0.7-1.1,1.6-1.4,2.5v12.3h-4.4v-29.2h4.4V269c0.8-1.4,1.9-2.5,3.3-3.3c1.4-0.8,2.9-1.2,4.5-1.2c1.3,0,2.4,0.2,3.3,0.7
			s1.5,1.1,2,1.8c0.5,0.8,0.8,1.7,1,2.7c0.2,1,0.3,2.1,0.3,3.2V285.6z"/>
		<path d="M264.5,286c-1.7,0-3.1-0.3-4.4-0.9c-1.3-0.6-2.4-1.3-3.4-2.3c-1-1-1.7-2.1-2.2-3.4c-0.5-1.3-0.8-2.6-0.8-4.1
			c0-2,0.5-3.8,1.4-5.4c0.9-1.6,2.2-2.9,3.8-3.9s3.5-1.5,5.7-1.5c2.2,0,4.1,0.5,5.7,1.5c1.6,1,2.8,2.3,3.7,3.9s1.3,3.3,1.3,5.2
			c0,0.3,0,0.6,0,0.9c0,0.3-0.1,0.5-0.1,0.7h-16.8c0.1,1.2,0.5,2.3,1.1,3.2c0.6,0.9,1.3,1.6,2.3,2.1c0.9,0.5,1.9,0.8,3,0.8
			c1.2,0,2.3-0.3,3.4-0.9c1.1-0.6,1.8-1.4,2.1-2.3l3.8,1.1c-0.5,1-1.1,1.9-2.1,2.7c-0.9,0.8-2,1.5-3.3,1.9
			C267.3,285.8,266,286,264.5,286z M258.2,273.8h12.6c-0.1-1.2-0.4-2.2-1-3.1c-0.6-0.9-1.3-1.6-2.3-2.1c-0.9-0.5-1.9-0.8-3-0.8
			c-1.1,0-2.1,0.3-3.1,0.8s-1.7,1.2-2.3,2.1C258.7,271.5,258.3,272.6,258.2,273.8z"/>
		<path d="M290.6,268.5c-1.7,0-3.2,0.4-4.5,1.2c-1.3,0.7-2.3,1.8-2.8,3.2v12.8h-4.4v-20.8h4v4.5c0.7-1.4,1.7-2.6,2.9-3.4
			c1.2-0.9,2.4-1.3,3.7-1.4c0.3,0,0.5,0,0.7,0c0.2,0,0.3,0,0.4,0V268.5z"/>
	</g>
</g>
<g>
	<g>
		<path d="M203.8,353.2c-0.2-0.3-0.6-0.6-1.1-0.9c-0.5-0.3-1.1-0.6-1.8-0.9s-1.4-0.5-2.2-0.7c-0.8-0.2-1.6-0.3-2.5-0.3
			c-1.9,0-3.3,0.3-4.2,1c-0.9,0.7-1.4,1.6-1.4,2.9c0,0.9,0.3,1.6,0.8,2.1c0.5,0.5,1.3,1,2.3,1.3c1.1,0.3,2.4,0.7,3.9,1.1
			c1.9,0.5,3.6,1,5,1.6c1.4,0.6,2.5,1.5,3.2,2.5c0.8,1,1.1,2.4,1.1,4.1c0,1.4-0.3,2.6-0.8,3.7c-0.5,1-1.3,1.9-2.3,2.5
			c-1,0.6-2.1,1.1-3.3,1.5c-1.3,0.3-2.6,0.5-4,0.5c-1.4,0-2.8-0.2-4.2-0.5c-1.4-0.3-2.7-0.7-4-1.3c-1.3-0.6-2.4-1.3-3.5-2.1l2.1-3.8
			c0.3,0.3,0.8,0.7,1.5,1.1c0.7,0.4,1.4,0.8,2.3,1.2c0.9,0.4,1.8,0.7,2.8,0.9c1,0.3,2.1,0.4,3.1,0.4c1.8,0,3.2-0.3,4.1-0.9
			c0.9-0.6,1.4-1.5,1.4-2.7c0-0.9-0.3-1.7-0.9-2.3c-0.6-0.6-1.5-1.1-2.7-1.5c-1.2-0.4-2.6-0.8-4.2-1.2c-1.9-0.5-3.4-1-4.7-1.6
			c-1.3-0.6-2.2-1.4-2.8-2.3c-0.6-0.9-0.9-2.1-0.9-3.6c0-1.9,0.4-3.4,1.3-4.7c0.9-1.3,2.1-2.3,3.7-2.9c1.6-0.7,3.3-1,5.2-1
			c1.3,0,2.5,0.1,3.7,0.4c1.2,0.3,2.2,0.7,3.2,1.1c1,0.5,1.9,1,2.7,1.6L203.8,353.2z"/>
		<path d="M210.9,345.7h4.4V369c0,1,0.2,1.7,0.5,2s0.7,0.5,1.2,0.5c0.5,0,1-0.1,1.5-0.2c0.5-0.1,0.9-0.3,1.2-0.4l0.6,3.4
			c-0.6,0.3-1.4,0.5-2.3,0.7c-0.9,0.2-1.7,0.3-2.4,0.3c-1.5,0-2.7-0.4-3.5-1.3s-1.3-2-1.3-3.5V345.7z"/>
		<path d="M232.4,375.3c-1.7,0-3.1-0.3-4.4-0.9c-1.3-0.6-2.4-1.3-3.4-2.3c-1-1-1.7-2.1-2.2-3.4c-0.5-1.3-0.8-2.6-0.8-4.1
			c0-2,0.5-3.8,1.4-5.4c0.9-1.6,2.2-2.9,3.8-3.9s3.5-1.5,5.7-1.5c2.2,0,4.1,0.5,5.7,1.5c1.6,1,2.8,2.3,3.7,3.9s1.3,3.3,1.3,5.2
			c0,0.3,0,0.6,0,0.9c0,0.3-0.1,0.5-0.1,0.7h-16.8c0.1,1.2,0.5,2.3,1.1,3.2c0.6,0.9,1.3,1.6,2.3,2.1c0.9,0.5,1.9,0.8,3,0.8
			c1.2,0,2.3-0.3,3.4-0.9c1.1-0.6,1.8-1.4,2.1-2.3l3.8,1.1c-0.5,1-1.1,1.9-2.1,2.7c-0.9,0.8-2,1.5-3.3,1.9
			C235.2,375.1,233.8,375.3,232.4,375.3z M226.1,363.1h12.6c-0.1-1.2-0.4-2.2-1-3.1c-0.6-0.9-1.3-1.6-2.3-2.1
			c-0.9-0.5-1.9-0.8-3-0.8c-1.1,0-2.1,0.3-3.1,0.8s-1.7,1.2-2.3,2.1C226.5,360.8,226.2,361.9,226.1,363.1z"/>
		<path d="M258.6,375.3c-1.7,0-3.2-0.4-4.4-1.2c-1.3-0.8-2.3-1.8-3-3.1v12.4h-4.4v-29.3h3.9v3.8c0.8-1.2,1.8-2.2,3.1-3
			c1.3-0.7,2.7-1.1,4.3-1.1c1.4,0,2.8,0.3,4,0.9c1.2,0.6,2.2,1.4,3.1,2.4c0.9,1,1.6,2.1,2.1,3.4c0.5,1.3,0.7,2.6,0.7,4.1
			c0,2-0.4,3.8-1.2,5.4c-0.8,1.7-1.9,3-3.3,3.9C262,374.8,260.4,375.3,258.6,375.3z M257.1,371.6c1,0,1.8-0.2,2.6-0.6
			c0.8-0.4,1.4-0.9,1.9-1.6c0.5-0.7,0.9-1.4,1.2-2.2s0.4-1.7,0.4-2.6c0-1-0.2-1.9-0.5-2.7c-0.3-0.8-0.8-1.6-1.4-2.2
			s-1.3-1.1-2.1-1.5s-1.6-0.6-2.5-0.6c-0.6,0-1.2,0.1-1.8,0.3c-0.6,0.2-1.2,0.5-1.7,0.9c-0.6,0.4-1,0.8-1.4,1.3
			c-0.4,0.5-0.7,1-0.8,1.6v5.4c0.4,0.8,0.9,1.6,1.5,2.3c0.6,0.7,1.3,1.2,2.1,1.6C255.5,371.4,256.3,371.6,257.1,371.6z"/>
		<path d="M283.4,373.9c-0.3,0.2-0.8,0.4-1.4,0.6c-0.6,0.2-1.2,0.4-1.9,0.6c-0.7,0.2-1.4,0.2-2.2,0.2c-0.9,0-1.7-0.2-2.5-0.5
			c-0.8-0.3-1.4-0.8-1.9-1.5c-0.5-0.7-0.7-1.6-0.7-2.7v-13.1h-2.8v-3.4h2.8v-6.9h4.4v6.9h4.6v3.4h-4.6v11.6c0.1,0.7,0.3,1.2,0.7,1.6
			c0.4,0.3,0.9,0.5,1.5,0.5c0.6,0,1.2-0.1,1.8-0.3c0.6-0.2,1-0.4,1.2-0.5L283.4,373.9z"/>
		<path d="M322.4,354.2h4.2l-8.8,20.8h-3.8l-3.8-9.4l-3.8,9.4h-3.7l-8.8-20.8h4.2l6.7,16.6l3-7.7l-3.6-8.8h3.7l2.3,6.5l2.3-6.5h3.8
			l-3.6,8.8l3,7.7L322.4,354.2z"/>
		<path d="M339,375.3c-1.7,0-3.1-0.3-4.4-0.9c-1.3-0.6-2.4-1.3-3.4-2.3c-1-1-1.7-2.1-2.2-3.4c-0.5-1.3-0.8-2.6-0.8-4.1
			c0-2,0.5-3.8,1.4-5.4c0.9-1.6,2.2-2.9,3.8-3.9s3.5-1.5,5.7-1.5c2.2,0,4.1,0.5,5.7,1.5c1.6,1,2.8,2.3,3.7,3.9s1.3,3.3,1.3,5.2
			c0,0.3,0,0.6,0,0.9c0,0.3-0.1,0.5-0.1,0.7h-16.8c0.1,1.2,0.5,2.3,1.1,3.2c0.6,0.9,1.3,1.6,2.3,2.1c0.9,0.5,1.9,0.8,3,0.8
			c1.2,0,2.3-0.3,3.4-0.9c1.1-0.6,1.8-1.4,2.1-2.3l3.8,1.1c-0.5,1-1.1,1.9-2.1,2.7c-0.9,0.8-2,1.5-3.3,1.9
			C341.9,375.1,340.5,375.3,339,375.3z M332.8,363.1h12.6c-0.1-1.2-0.4-2.2-1-3.1c-0.6-0.9-1.3-1.6-2.3-2.1c-0.9-0.5-1.9-0.8-3-0.8
			c-1.1,0-2.1,0.3-3.1,0.8s-1.7,1.2-2.3,2.1C333.2,360.8,332.8,361.9,332.8,363.1z"/>
		<path d="M353.4,345.7h4.4V369c0,1,0.2,1.7,0.5,2s0.7,0.5,1.2,0.5c0.5,0,1-0.1,1.5-0.2c0.5-0.1,0.9-0.3,1.2-0.4l0.6,3.4
			c-0.6,0.3-1.4,0.5-2.3,0.7c-0.9,0.2-1.7,0.3-2.4,0.3c-1.5,0-2.7-0.4-3.5-1.3s-1.3-2-1.3-3.5V345.7z"/>
		<path d="M365.4,345.7h4.4V369c0,1,0.2,1.7,0.5,2s0.7,0.5,1.2,0.5c0.5,0,1-0.1,1.5-0.2c0.5-0.1,0.9-0.3,1.2-0.4l0.6,3.4
			c-0.6,0.3-1.4,0.5-2.3,0.7c-0.9,0.2-1.7,0.3-2.4,0.3c-1.5,0-2.7-0.4-3.5-1.3s-1.3-2-1.3-3.5V345.7z"/>
	</g>
</g>
</svg>
