<?xml version="1.0" encoding="utf-8"?>
<!-- Generator: Adobe Illustrator 25.2.1, SVG Export Plug-In . SVG Version: 6.00 Build 0)  -->
<svg version="1.1" id="Layer_1" xmlns="http://www.w3.org/2000/svg" xmlns:xlink="http://www.w3.org/1999/xlink" x="0px" y="0px"
	 viewBox="0 0 600 600" style="enable-background:new 0 0 600 600;" xml:space="preserve">
<style type="text/css">
	.st0{opacity:0.25;fill:#639283;enable-background:new    ;}
	.st1{fill:#639283;}
	.st2{opacity:0.8;fill:#639283;enable-background:new    ;}
	.st3{opacity:0.55;fill:#639283;enable-background:new    ;}
	.st4{fill:none;stroke:#000000;stroke-width:5;stroke-miterlimit:10;}
</style>
<g>
	<g>
		<path class="st0" d="M189.2,186.6l-76.7-92.9c42-34.7,92.9-55.5,147.1-60.1l10.3,120C240.2,156.2,212.3,167.6,189.2,186.6z"/>
		<path class="st1" d="M269.9,153.6l-10.3-120c7.7-0.7,15.5-1,23.1-1c0.6,0,1.3,0,1.9,0h0.2h-0.1l-0.9,120.5c-0.4,0-0.8,0-1.2,0l0,0
			C278.4,153.1,274.2,153.3,269.9,153.6z"/>
		<path class="st2" d="M450.8,507.9L375,414.3c34.7-28.1,54.6-69.7,54.6-114.3c0-80.5-65.5-146.4-145.9-146.9l0.8-120.5
			c71,0.5,137.7,28.5,187.8,78.9S550,228.9,550,300C550.1,381.1,513.9,456.9,450.8,507.9z"/>
		<path class="st3" d="M282.7,567.4c-96.2,0-185.4-52.1-232.8-135.8l104.8-59.3c26.1,46.1,75.1,74.7,128,74.7
			c34,0,66-11.3,92.3-32.7l75.8,93.6C403.5,546.3,343.7,567.4,282.7,567.4z"/>
		<path class="st4" d="M189.2,186.6l-76.7-92.9c42-34.7,92.9-55.5,147.1-60.1l10.3,120C240.2,156.2,212.3,167.6,189.2,186.6z"/>
		<path class="st4" d="M269.9,153.6l-10.3-120c7.7-0.7,15.5-1,23.1-1c0.6,0,1.3,0,1.9,0h0.2h-0.1l-0.9,120.5c-0.4,0-0.8,0-1.2,0l0,0
			C278.4,153.1,274.2,153.3,269.9,153.6z"/>
		<path class="st4" d="M450.8,507.9L375,414.3c34.7-28.1,54.6-69.7,54.6-114.3c0-80.5-65.5-146.4-145.9-146.9l0.8-120.5
			c71,0.5,137.7,28.5,187.8,78.9S550,228.9,550,300C550.1,381.1,513.9,456.9,450.8,507.9z"/>
		<path class="st4" d="M282.7,567.4c-96.2,0-185.4-52.1-232.8-135.8l104.8-59.3c26.1,46.1,75.1,74.7,128,74.7
			c34,0,66-11.3,92.3-32.7l75.8,93.6C403.5,546.3,343.7,567.4,282.7,567.4z"/>
	</g>
	<g>
		<g>
			<path d="M230.5,284.9h-37.8v-11.1h56.9l-38.9,76.8H197L230.5,284.9z"/>
			<path d="M310.8,314.1c0,4.7-1.3,8.8-3.8,12.4c-2.5,3.5-5.9,6.3-10.2,8.3c-4.3,2-9,3-14,3c-5.2,0-9.9-1.1-14.1-3.2
				c-4.2-2.1-7.5-5-10-8.6c-2.4-3.6-3.6-7.7-3.6-12.4c0-3.1,0.7-5.9,2-8.4c1.4-2.5,3.1-4.6,5.1-6.3c2.1-1.7,4.2-3.1,6.4-4
				c-2-0.9-3.8-2.1-5.5-3.6c-1.7-1.5-3-3.3-4.1-5.3c-1-2-1.5-4.1-1.5-6.4c0-3.4,0.8-6.4,2.3-9c1.5-2.6,3.5-4.8,6-6.6
				c2.5-1.8,5.3-3.1,8.2-4c3-0.9,5.9-1.4,8.9-1.4c2.9,0,5.9,0.5,8.9,1.4c3,0.9,5.8,2.3,8.3,4c2.5,1.8,4.5,3.9,6.1,6.5
				c1.5,2.6,2.3,5.6,2.3,9.1c0,2.2-0.5,4.3-1.5,6.3c-1,2-2.3,3.8-4.1,5.3s-3.6,2.8-5.6,3.6c2.3,1.1,4.6,2.6,6.7,4.4
				c2.1,1.8,3.8,4,5,6.5C310.2,308.2,310.8,311,310.8,314.1z M298.5,313.3c0-2.1-0.4-3.9-1.3-5.6c-0.8-1.7-2.1-3.1-3.6-4.3
				c-1.6-1.2-3.3-2.1-5.1-2.7c-1.8-0.6-3.7-0.9-5.7-0.9c-2.6,0-5.1,0.6-7.5,1.7c-2.3,1.1-4.3,2.7-5.7,4.7c-1.5,2-2.2,4.4-2.2,7.2
				c0,2,0.4,3.8,1.3,5.5c0.9,1.7,2.1,3.1,3.6,4.3c1.5,1.2,3.2,2.1,5.1,2.7c1.9,0.6,3.8,0.9,5.7,0.9c2.6,0,5.1-0.6,7.5-1.7
				c2.3-1.1,4.3-2.7,5.8-4.7C297.8,318.3,298.5,315.9,298.5,313.3z M269.8,279.9c0,2.3,0.7,4.3,2,5.9c1.3,1.6,3,2.8,5.1,3.6
				c2.1,0.8,4.1,1.2,6,1.2c2.1,0,4.2-0.4,6.2-1.3c2-0.8,3.6-2.1,5-3.7c1.4-1.6,2-3.6,2-5.9c0-2.2-0.6-4.1-1.9-5.6
				c-1.2-1.5-2.9-2.7-4.8-3.6c-2-0.8-4.2-1.3-6.6-1.3c-2.3,0-4.4,0.4-6.4,1.3c-2,0.9-3.6,2.1-4.8,3.7
				C270.4,275.9,269.8,277.8,269.8,279.9z"/>
			<path d="M337.6,290.8c-3.2,0-6.2-0.7-8.9-2.2c-2.7-1.5-4.8-3.4-6.4-5.9c-1.6-2.5-2.4-5.3-2.4-8.4c0-3,0.8-5.7,2.4-8.2
				c1.6-2.5,3.7-4.4,6.4-5.9c2.7-1.5,5.6-2.2,8.9-2.2c3.2,0,6.1,0.7,8.7,2.1c2.7,1.4,4.8,3.4,6.3,5.9c1.5,2.5,2.3,5.2,2.3,8.2
				c0,3.1-0.8,5.9-2.3,8.4c-1.5,2.5-3.6,4.5-6.3,5.9C343.6,290,340.7,290.8,337.6,290.8z M324.9,331.7l30.9-36.1l29-37.2l5.6,4.8
				L360.2,299l-29.8,37.7L324.9,331.7z M337.5,284.5c1.7,0,3.2-0.5,4.6-1.4c1.4-1,2.4-2.2,3.2-3.7c0.8-1.5,1.2-3.2,1.2-4.9
				c0-1.9-0.4-3.6-1.2-5.1c-0.8-1.5-1.9-2.7-3.2-3.6c-1.4-0.9-2.8-1.4-4.3-1.4c-1.7,0-3.2,0.5-4.6,1.4c-1.4,0.9-2.4,2.1-3.2,3.7
				c-0.8,1.5-1.2,3.2-1.2,4.9c0,1.9,0.4,3.6,1.2,5.2c0.8,1.5,1.9,2.8,3.2,3.7C334.4,284.1,335.8,284.5,337.5,284.5z M378,337.2
				c-3.3,0-6.3-0.7-8.9-2.2c-2.6-1.5-4.7-3.4-6.3-5.9c-1.6-2.5-2.4-5.2-2.4-8.3s0.8-5.8,2.4-8.3c1.6-2.5,3.7-4.4,6.3-5.9
				c2.6-1.5,5.6-2.2,8.9-2.2c3.2,0,6.2,0.7,8.8,2.1c2.6,1.4,4.7,3.4,6.3,5.9c1.5,2.5,2.3,5.2,2.3,8.2c0,3.1-0.8,5.9-2.3,8.4
				c-1.5,2.5-3.6,4.5-6.3,5.9C384.2,336.5,381.3,337.2,378,337.2z M377.8,330.9c1.7,0,3.2-0.5,4.6-1.4c1.4-1,2.4-2.2,3.2-3.7
				c0.8-1.5,1.2-3.1,1.2-4.9c0-1.9-0.4-3.6-1.2-5.1c-0.8-1.5-1.9-2.7-3.2-3.7c-1.4-1-2.8-1.4-4.3-1.4c-1.7,0-3.2,0.5-4.6,1.4
				c-1.4,1-2.4,2.2-3.2,3.7c-0.8,1.5-1.2,3.2-1.2,5c0,1.8,0.4,3.5,1.2,5.1c0.8,1.5,1.9,2.8,3.2,3.7
				C374.9,330.5,376.4,330.9,377.8,330.9z"/>
		</g>
	</g>
</g>
</svg>
