<?xml version="1.0" encoding="utf-8"?>
<!-- Generator: Adobe Illustrator 25.2.1, SVG Export Plug-In . SVG Version: 6.00 Build 0)  -->
<svg version="1.1" id="Layer_1" xmlns="http://www.w3.org/2000/svg" xmlns:xlink="http://www.w3.org/1999/xlink" x="0px" y="0px"
	 viewBox="0 0 200 200" style="enable-background:new 0 0 200 200;" xml:space="preserve">
<style type="text/css">
	.st0{fill:none;stroke:#000000;stroke-width:12;stroke-miterlimit:10;}
	.st1{fill:none;stroke:#000000;stroke-width:8;stroke-miterlimit:10;}
	.st2{fill:#FFFFFF;stroke:#000000;stroke-width:8;stroke-miterlimit:10;}
</style>
<image style="overflow:visible;" width="216" height="233" xlink:href="3F7E98F5.jpg"  transform="matrix(1 0 0 1 -8092 -8092)">
</image>
<circle class="st0" cx="100" cy="100" r="88.2"/>
<g>
	<path class="st1" d="M143.6,135.3H56.4c-6.1,0-11.1-5-11.1-11.1V75.9c0-6.1,5-11.1,11.1-11.1h87.2c6.1,0,11.1,5,11.1,11.1v48.3
		C154.7,130.3,149.8,135.3,143.6,135.3z"/>
	<path class="st1" d="M49,131.9l43.1-41.3c4.8-4.6,12.4-4.5,17.1,0.1l41.4,41.1"/>
	<path class="st2" d="M49.7,66.9l43.3,37.3c4.2,3.6,10.3,3.6,14.5,0.2l43.8-35.8"/>
</g>
</svg>
