<?xml version="1.0" encoding="utf-8"?>
<!-- Generator: Adobe Illustrator 25.2.1, SVG Export Plug-In . SVG Version: 6.00 Build 0)  -->
<svg version="1.1" id="Layer_1" xmlns="http://www.w3.org/2000/svg" xmlns:xlink="http://www.w3.org/1999/xlink" x="0px" y="0px"
	 viewBox="0 0 200 200" style="enable-background:new 0 0 200 200;" xml:space="preserve">
<g>
	<rect x="59.8" y="83.3" width="19.1" height="56.8"/>
	<ellipse cx="69.3" cy="65.9" rx="10.6" ry="10"/>
	<path d="M146.8,106.9c0-6.3-2.2-25-22.1-25c-1.8,0-5.3,0.1-9.2,2.2c-4.4,2.3-6.4,5.6-7.3,7.3v-8.2H89v56.8h19.1v-33.9
		c0.8-5.9,6-10,11-9.5c4.5,0.5,8.5,4.7,8.7,10.2h-0.1v33.2h19.1L146.8,106.9L146.8,106.9z"/>
</g>
<g>
	<path d="M100,14c47.4,0,86,38.6,86,86s-38.6,86-86,86s-86-38.6-86-86S52.6,14,100,14 M100,0C44.8,0,0,44.8,0,100s44.8,100,100,100
		s100-44.8,100-100S155.2,0,100,0L100,0z"/>
</g>
</svg>
