<?xml version="1.0" encoding="utf-8"?>
<!-- Generator: Adobe Illustrator 25.2.1, SVG Export Plug-In . SVG Version: 6.00 Build 0)  -->
<svg version="1.1" id="Layer_1" xmlns="http://www.w3.org/2000/svg" xmlns:xlink="http://www.w3.org/1999/xlink" x="0px" y="0px"
	 viewBox="0 0 200 200" style="enable-background:new 0 0 200 200;" xml:space="preserve">
<g>
	<g>
		<path d="M94.6,8c4.4,0,8.8,0,13.2,0c1.2,0.3,2.4,0.6,3.6,0.8c36.5,3.7,67.5,29.3,78,64.6c2,6.6,2.8,13.6,4.2,20.5
			c0,4.4,0,8.8,0,13.2c-0.3,1.2-0.6,2.4-0.8,3.6c-7.9,61.9-71.5,98.3-128.8,73.5c-5.6-2.4-10.4-2.8-16.1-1.1
			c-13,3.8-26.2,7.2-39.3,10.7c0.2-1.6,0.3-3.3,0.8-4.9c3.5-13,7.2-25.9,10.6-38.9c0.6-2.2,0.2-5.2-0.8-7.3
			c-6.1-12.1-9.7-24.8-10.3-38.3C7.1,61.9,34.1,24.1,74.9,12C81.3,10.1,88.1,9.3,94.6,8z M30.2,171.6c9-2.3,17.1-4.3,25.1-6.6
			c2.7-0.7,4.9-0.4,7.3,1c16.1,9.2,33.4,12.5,51.7,9.3c40.6-7,69.1-45.2,63.5-85c-5.8-41.7-42.4-70.8-83.9-66.9
			C40.2,28.6,8.1,86.1,32.7,133.9c3.9,7.6,4.8,13.9,1.9,21.5C32.8,160.3,31.8,165.6,30.2,171.6z"/>
		<path d="M125.3,143.6c-8.2,0.1-15.6-3.1-22.8-6.5c-20.1-9.4-34.4-24.9-44.6-44.2c-5.7-10.8-5.2-21.8,3.3-31.5
			c3.2-3.6,9.2-5.4,13.5-3.6c1.3,0.5,2.5,2.1,3.2,3.5c2.5,5.5,4.9,11.1,6.9,16.8c0.6,1.7,0.3,4.1-0.4,5.8c-1.1,2.3-3,4.3-4.7,6.2
			c-1.7,1.9-1.9,3.8-0.6,6c7.4,12.3,17.6,21.3,31,26.7c2.4,1,4.2,0.4,5.8-1.5c2-2.5,4.2-4.8,6-7.3c1.6-2.3,3.5-2.9,6-1.7
			c5.9,2.6,11.9,5,17.6,7.9c1.3,0.7,2.4,3.3,2.4,5c-0.4,11.7-9.5,16.6-18,18.3C128.4,143.6,126.8,143.5,125.3,143.6z"/>
	</g>
</g>
</svg>
