<?xml version="1.0" encoding="utf-8"?>
<!-- Generator: Adobe Illustrator 25.2.1, SVG Export Plug-In . SVG Version: 6.00 Build 0)  -->
<svg version="1.1" id="Layer_1" xmlns="http://www.w3.org/2000/svg" xmlns:xlink="http://www.w3.org/1999/xlink" x="0px" y="0px"
	 viewBox="0 0 200 200" style="enable-background:new 0 0 200 200;" xml:space="preserve">
<g>
	<g>
		<path d="M0.1,0.1c66.7,0,133.3,0,200,0c0,66.7,0,133.3,0,200c-66.7,0-133.3,0-200,0C0.1,133.5,0.1,66.8,0.1,0.1z M101.3,197.6
			c51.6-0.4,94.5-42,95.2-95.3c0.7-53.5-42-97.1-95.4-97.5C48.2,4.4,5.5,46.7,4.4,99.1C3.3,153.6,47.1,198.1,101.3,197.6z"/>
		<path d="M100.4,184.4c-46.1-0.1-83.3-37.8-82.8-84C18,55.2,54,19.5,97.5,18.1c48.2-1.6,85.9,37.5,85.8,83.2
			C183.2,147.3,146,184.4,100.4,184.4z M156.5,61.2c-0.3,0.1-0.4,0.2-0.5,0.2c-3.9,2.2-8,3.8-12.3,4.9c-1.1,0.3-1.8,0.1-2.6-0.7
			c-3.3-3.1-7-5.1-11.5-5.9c-4.7-0.8-9.2-0.2-13.5,1.7c-7.3,3.2-13.4,11.8-13,21c0.1,1.6,0.3,3.2,0.4,4.8
			c-18.8-1.3-34.2-9.2-46.5-23.7c-2.3,4.2-3.4,8.5-2.9,13.2c0.7,7.1,3.9,12.7,9.6,17c-1.7-0.2-3.4-0.4-5-0.9
			c-1.6-0.5-3.2-1.2-4.9-1.8c0.8,11.7,6.7,19.2,18,22.4c-3.3,0.9-6.6,1-9.9,0.5c3.6,9.6,10.6,14.8,20.9,15.7
			c-9.8,7.5-20.8,10.5-33,9.4c1.1,0.7,2.2,1.4,3.4,2c7.7,4.3,16,6.9,24.8,7.7c6.1,0.6,12.2,0.3,18.2-0.7c6.7-1.2,13-3.3,19-6.6
			c11.4-6.3,19.9-15.5,25.9-27.1c5.1-10.1,7.6-20.8,7.3-32.1c0-0.5,0.1-0.8,0.5-1.1c4.1-3,7.4-6.6,10.4-10.7
			c0.1-0.1,0.2-0.3,0.3-0.4c-4,1.6-8.1,2.8-12.4,3.2C151.6,70.5,154.7,66.5,156.5,61.2z"/>
	</g>
</g>
</svg>
