<?xml version="1.0" encoding="utf-8"?>
<!-- Generator: Adobe Illustrator 25.2.1, SVG Export Plug-In . SVG Version: 6.00 Build 0)  -->
<svg version="1.1" id="Layer_1" xmlns="http://www.w3.org/2000/svg" xmlns:xlink="http://www.w3.org/1999/xlink" x="0px" y="0px"
	 viewBox="0 0 200 200" style="enable-background:new 0 0 200 200;" xml:space="preserve">
<style type="text/css">
	.st0{fill:#FFFFFF;}
</style>
<g>
	<g>
		<path d="M200.2,200.2c-66.7,0-133.3,0-200,0c0-66.7,0-133.3,0-200c66.7,0,133.3,0,200,0C200.2,66.9,200.2,133.5,200.2,200.2z
			 M100.2,198.6c53,0.2,97.6-42.5,98.1-97c0.5-55.1-44-98.9-98.1-98.9c-53.8,0-97.6,43.2-98,97.1C1.7,155.2,46.7,198.8,100.2,198.6z
			"/>
		<path d="M186.1,100.7c0.1,47.2-38.9,86.7-87.6,85.8c-47-0.9-84.9-39.7-84.3-87c0.6-45.9,38.1-84.7,86.2-84.6
			C148.6,14.9,186.2,54.2,186.1,100.7z M73.2,105c0.7-0.1,2.1-0.1,3.4-0.3c9.6-1.3,18-10.7,19.7-19c1.4-7.1-1.3-12.3-8.1-15
			c-3.6-1.5-7.5-1.7-11.3-1.8c-6.1-0.1-12.2,0.4-18.3,1.2c-5.4,0.8-10.7,1.7-15.8,3.7c-2.2,0.8-4.3,1.8-6,3.5
			c-1.3,1.3-1.7,2.8-1.4,4.6c0.5,2.3,1.7,4.3,3.2,6.1c4.6,5.5,10.3,9.5,16.7,12.5C60.8,103.2,66.5,104.9,73.2,105z M124,68.9
			c-1.6,0.1-4.7,0.2-7.7,0.7c-2.3,0.4-4.5,1.3-6.6,2.4c-5.1,2.8-7,7.6-5.6,13.8c1.5,6.9,5.7,12,11.5,15.9c5.5,3.6,11.5,4,17.8,2.8
			c9.3-1.7,17.4-6.1,24.4-12.3c2.5-2.2,4.6-4.6,6.2-7.5c2-3.9,1.3-6.6-2.5-8.9c-0.4-0.2-0.8-0.5-1.2-0.6c-1.9-0.8-3.8-1.7-5.8-2.2
			C145.1,70.1,135.3,69.2,124,68.9z M114.1,56.7c-0.1-7.8-6.3-13.9-14.2-13.8c-7.5,0.1-13.7,6.3-13.6,13.9c0,7.9,6.3,13.9,14.2,13.9
			C108,70.5,114.2,64.2,114.1,56.7z M100.2,121.2c6.6,0,12-5.4,11.9-11.9c0-6.6-5.5-12-12-11.9c-6.6,0.1-11.9,5.5-11.9,12
			C88.3,115.9,93.7,121.2,100.2,121.2z M90.3,134.3c0,5.6,4.4,10,9.9,9.9c5.5,0,9.9-4.4,9.9-9.8c0-5.6-4.3-10-9.9-10
			C94.7,124.3,90.3,128.8,90.3,134.3z M100.2,163.3c4.4,0,8-3.6,7.9-8c0-4.3-3.6-7.9-7.9-7.9c-4.4,0-8,3.6-8,8
			C92.2,159.8,95.8,163.3,100.2,163.3z"/>
	</g>
</g>
<path class="st0" d="M-36.7,54.3"/>
</svg>
