<?xml version="1.0" encoding="utf-8"?>
<!-- Generator: Adobe Illustrator 25.2.1, SVG Export Plug-In . SVG Version: 6.00 Build 0)  -->
<svg version="1.1" id="Layer_1" xmlns="http://www.w3.org/2000/svg" xmlns:xlink="http://www.w3.org/1999/xlink" x="0px" y="0px"
	 viewBox="0 0 200 200" style="enable-background:new 0 0 200 200;" xml:space="preserve">
<g>
	<g>
		<path d="M99.8,197.2c-53.1,0-97-43.4-96.3-97.7C4.2,46.9,47.3,3.8,101.2,4.4c52.7,0.6,95.3,43.6,95.2,96.5
			C196.3,154.3,153.2,197.3,99.8,197.2z M100,184c45.3,0,83-36.5,83.2-82.8c0.1-22.5-7.8-42.1-23.5-58.3
			c-17.2-17.6-38.3-26.1-62.8-25.3C54,19,17,54.3,16.8,100.6C16.6,146,53.2,183.9,100,184z"/>
		<path d="M152.2,101.2c-0.1,5.3-0.2,10.2-0.3,15.1c-0.1,3-0.3,6.1-0.5,9.1c-0.5,6.7-2.8,12.7-7.4,17.7c-3.3,3.7-7.5,5.9-12.3,7.2
			c-3.3,0.9-6.7,1.2-10,1.3c-7.8,0.2-15.6,0.4-23.4,0.5c-4.6,0-9.2-0.1-13.7-0.3c-3.9-0.2-7.8-0.3-11.7-1c-7.5-1.4-13.6-5-17.8-11.6
			c-2-3.1-3.3-6.5-3.8-10.2c-0.5-3.4-0.7-6.9-0.9-10.4c-0.5-9.3-0.5-18.6-0.3-27.9c0.1-4.8,0.4-9.5,0.7-14.3
			c0.4-5.8,2.3-11.1,5.8-15.7c3.5-4.6,8.2-7.4,13.7-8.9c2.8-0.8,5.6-1.1,8.5-1.3c7.6-0.6,15.1-0.6,22.7-0.6
			c6.4,0.1,12.8,0.2,19.2,0.4c3.5,0.1,7,0.2,10.4,1.2c10.9,3.1,17.6,10.2,19.8,21.4c0.5,2.6,0.7,5.2,0.8,7.8
			C151.8,87.7,152,94.6,152.2,101.2z M102.4,142.9c0-0.1,0-0.1,0-0.2c2.8,0,5.7,0,8.5,0c5.2-0.1,10.4-0.1,15.5-0.8
			c4.6-0.6,8.6-2.5,11.6-6.2c2.6-3.2,3.7-7,4-11.1c0.3-3.4,0.5-6.8,0.5-10.1c0.1-6.1,0.2-12.2,0.2-18.2c0-5.3-0.2-10.7-0.4-16
			c-0.1-2-0.3-4-0.6-5.9c-0.9-4.8-3.3-8.7-7.4-11.4c-3.2-2.1-6.8-2.9-10.6-3.1c-4.3-0.2-8.6-0.5-12.9-0.5
			c-6.3-0.1-12.6-0.1-18.9-0.1c-3.5,0-7.1,0.2-10.6,0.4c-2.4,0.1-4.8,0.3-7.2,0.8c-5,1-9,3.5-11.6,8c-1.8,3-2.4,6.3-2.7,9.7
			c-0.2,2.5-0.3,5-0.4,7.6c-0.1,5-0.3,9.9-0.2,14.9c0.1,7.1,0.3,14.2,0.5,21.3c0.1,2.9,0.3,5.7,1.3,8.5c1.4,4.1,3.8,7.2,7.6,9.3
			c2.7,1.5,5.7,2.2,8.8,2.4c3,0.2,5.9,0.4,8.9,0.5C91.7,142.7,97,142.8,102.4,142.9z"/>
		<path d="M127.2,101.5c-0.1,13.5-11.2,25.5-25.8,25.7c-15,0.2-26.4-11.9-26.6-25.9c-0.1-14.2,11.2-26.4,26-26.5
			C115.4,74.7,127.5,86.5,127.2,101.5z M117.9,101c0-9.3-7.6-16.9-16.9-16.9c-9.7,0-17.1,8.1-16.9,17.2c0.1,8.9,7.5,16.9,17.4,16.6
			C110.4,117.7,117.8,110.4,117.9,101z"/>
		<path d="M128.1,79.9c-3.4,0-6.1-2.7-6.1-6.2c0-3.2,2.8-6.1,5.9-6.1c3.6,0,6.4,2.7,6.4,6.1C134.3,77.3,131.6,79.9,128.1,79.9z"/>
	</g>
</g>
</svg>
