<svg xmlns="http://www.w3.org/2000/svg" width="189.04" height="189.02" viewBox="0 0 189.04 189.02"><path d="M101.26,195.7a94.51,94.51,0,1,1,93.67-93.42A94.5,94.5,0,0,1,101.26,195.7Zm-.9-12.94a81.57,81.57,0,1,0-81.5-82.37A81.69,81.69,0,0,0,100.36,182.76Z" transform="translate(-5.9 -6.68)"/><path d="M50.62,138.54A45.11,45.11,0,0,0,83,129.25a22.65,22.65,0,0,1-16-7.55,20.24,20.24,0,0,1-4.53-7.94,22.71,22.71,0,0,0,9.74-.36c-11.12-3.21-16.91-10.56-17.6-22A23.83,23.83,0,0,0,64.52,94a22.31,22.31,0,0,1-9.61-16.57,21.76,21.76,0,0,1,2.89-13c12,14.16,27.24,21.92,45.79,23.22-.12-.92-.25-1.8-.35-2.68a21.57,21.57,0,0,1,4.24-15.69,22.22,22.22,0,0,1,33-2.94,2.45,2.45,0,0,0,2.57.69,46.73,46.73,0,0,0,12.06-4.79l.5-.24A22.26,22.26,0,0,1,152,68.85a24.78,24.78,0,0,1-5.61,5.2,41.2,41.2,0,0,0,12.26-3.3c-.18.28-.25.41-.33.52a45.58,45.58,0,0,1-10.23,10.56,1.11,1.11,0,0,0-.49,1,65.13,65.13,0,0,1-25.74,53.6,59.09,59.09,0,0,1-21.7,10.06,66.7,66.7,0,0,1-17.81,1.76,62.35,62.35,0,0,1-30.43-8.95c-.22-.13-.44-.29-.66-.44Z" transform="translate(-5.9 -6.68)"/></svg>