<?xml version="1.0" encoding="utf-8"?>
<!-- Generator: Adobe Illustrator 25.2.1, SVG Export Plug-In . SVG Version: 6.00 Build 0)  -->
<svg version="1.1" id="Layer_1" xmlns="http://www.w3.org/2000/svg" xmlns:xlink="http://www.w3.org/1999/xlink" x="0px" y="0px"
	 viewBox="0 0 200 200" style="enable-background:new 0 0 200 200;" xml:space="preserve">
<g>
	<g>
		<path d="M-1.4,200.2c0-66.7,0-133.5,0-200.2c67.7,0,135.3,0,203,0c0,66.7,0,133.5,0,200.2C134,200.2,66.3,200.2-1.4,200.2z
			 M100.3,196.9c53.9,0.1,97.6-43.3,97.1-96.7C196.9,48,153.9,5.2,100,5.4C46.2,5.7,3.1,48.9,3.5,102
			C3.9,154.6,47.3,196.8,100.3,196.9z"/>
		<path d="M184.1,102.1C184,125,174,146,158.4,160.7c-16.2,15.2-35.6,22.9-58,23.1c-23.8-0.3-43.9-8.9-60.5-25.6
			c-15.8-16.8-23.5-36.6-23.1-59.5c1-22,9.2-40.9,25.1-56.3c14.9-14.5,33-22.3,53.9-23.6c24.1-1,45,6.5,62.5,22.9
			C175.5,57.6,184.5,79.9,184.1,102.1z M104.3,108.3c5.8,0,11.6,0,17.4,0c0.9-6.8,1.8-13.5,2.7-20.3c-6.8,0-13.5,0-20.2,0
			c0-0.6,0-1.2,0-1.8c0-3.1,0-6.2,0.1-9.3c0-1.7,0.1-3.3,0.2-5c0.1-1.4,0.7-2.7,1.6-3.7c1.1-1.3,2.6-1.9,4.2-2.2
			c1.5-0.3,2.9-0.3,4.4-0.3c2.9,0,5.7,0,8.6,0c0.5,0,1.1,0,1.6,0c0-6.1,0-12,0-18.1c-1-0.1-2-0.3-3-0.3c-1.5-0.1-3-0.2-4.6-0.3
			c-2.5-0.1-5-0.2-7.5-0.2c-3.1,0-6.2,0.3-9.3,1.1c-3.6,1-6.8,2.7-9.5,5.2c-4,3.5-6.2,8-7.2,13.1c-0.6,2.9-0.7,5.8-0.7,8.8
			c0,4.2,0,8.4,0,12.5c0,0.2,0,0.4,0,0.6c-5.9,0-11.7,0-17.5,0c0,6.8,0,13.5,0,20.2c5.8,0,11.6,0,17.4,0c0,17,0,33.9,0,50.8
			c7.2,0,14.2,0,21.4,0C104.3,142.1,104.3,125.2,104.3,108.3z"/>
	</g>
</g>
</svg>
