<?xml version="1.0" encoding="utf-8"?>
<!-- Generator: Adobe Illustrator 25.2.1, SVG Export Plug-In . SVG Version: 6.00 Build 0)  -->
<svg version="1.1" id="Layer_1" xmlns="http://www.w3.org/2000/svg" xmlns:xlink="http://www.w3.org/1999/xlink" x="0px" y="0px"
	 viewBox="0 0 200 200" style="enable-background:new 0 0 200 200;" xml:space="preserve">
<g>
	<g>
		<path d="M-0.6,199.5c0-66.4,0-132.9,0-199.4c66.9,0,133.8,0,200.6,0c0,66.4,0,132.9,0,199.4C133.2,199.5,66.3,199.5-0.6,199.5z
			 M99.8,197.2c53.3,0,96.5-43,96.6-96.3C196.5,48,153.9,5,101.2,4.4C47.3,3.8,4.2,46.9,3.5,99.5C2.9,153.8,46.7,197.2,99.8,197.2z"
			/>
		<path d="M99.9,184c-46.7-0.2-83.4-38.1-83.2-83.5c0.2-46,36.9-81.4,80-82.9c48.9-1.7,86.7,37.8,86.4,83.5
			C182.9,147.4,145.3,184,99.9,184z M152.2,101.2c-0.2-6.5-0.3-13.5-0.6-20.4c-0.1-2.6-0.2-5.3-0.8-7.9
			c-2.2-11.1-8.9-18.2-19.7-21.3c-3.4-1-6.9-1.1-10.4-1.2c-6.6-0.2-13.2-0.4-19.8-0.4c-6.8,0-13.6,0.3-20.4,0.5
			c-3.1,0.1-6.2,0.4-9.2,1.1c-5.7,1.3-10.5,4-14.2,8.5c-3.9,4.8-5.9,10.3-6.3,16.3c-0.3,4.7-0.7,9.5-0.7,14.2
			c-0.1,6.7-0.1,13.5,0.1,20.2c0.1,5.2,0.4,10.3,0.8,15.5c0.3,4,1.4,7.9,3.3,11.5c4.2,7.7,10.9,11.7,19.3,13.1
			c3.6,0.6,7.3,0.7,11,0.9c4.6,0.2,9.2,0.3,13.7,0.3c7.8-0.1,15.6-0.3,23.4-0.5c3.4-0.1,6.8-0.4,10-1.3c4.7-1.3,8.9-3.5,12.3-7.2
			c4.6-5,6.8-11,7.4-17.7c0.2-3,0.4-6,0.5-9.1C152,111.4,152.1,106.5,152.2,101.2z"/>
		<path d="M101.3,142.9c-5.7-0.1-11.4-0.2-17-0.4c-3.4-0.1-6.9-0.3-10.2-1c-6.5-1.2-10.9-5-13.1-11.3c-0.9-2.7-1.2-5.5-1.3-8.3
			c-0.2-7.1-0.4-14.2-0.5-21.4c0-5,0.1-10,0.2-15c0.1-2.5,0.2-5.1,0.4-7.6c0.3-3.7,1.1-7.3,3.2-10.4c2.7-4,6.4-6.3,11-7.2
			c2.3-0.4,4.8-0.6,7.2-0.8c3.5-0.2,7.1-0.3,10.6-0.4c6.3,0,12.6,0,18.9,0.1c4.3,0.1,8.6,0.3,12.9,0.5c3.1,0.2,6.2,0.7,9,2.2
			c4.8,2.5,7.7,6.4,8.8,11.6c0.5,2.1,0.7,4.3,0.8,6.4c0.2,5.4,0.4,10.8,0.4,16.2c0,6,0,12.1-0.1,18.1c0,2.9-0.2,5.8-0.4,8.7
			c-0.2,3.5-0.8,7-2.6,10.2c-2.5,4.4-6.3,7.1-11.1,8.2c-2,0.4-4,0.7-6.1,0.8c-6,0.2-12.1,0.4-18.1,0.5c-1,0-2,0-2.9,0
			C101.3,142.8,101.3,142.8,101.3,142.9z M127.2,101.5c0.3-15-11.8-26.9-26.4-26.8c-14.9,0.1-26.2,12.3-26,26.5
			c0.1,14,11.6,26.1,26.6,25.9C116,127,127,115.1,127.2,101.5z M128.1,79.9c3.5,0,6.2-2.6,6.2-6.1c0-3.4-2.7-6.1-6.3-6.1
			c-3.2,0-6,2.8-6,6.1C122.1,77.2,124.7,79.9,128.1,79.9z"/>
		<path d="M84.1,101c0-9.4,7.6-17,16.9-16.9c9.3,0,16.9,7.7,16.9,16.9c0,9.4-7.6,16.9-17,16.9C91.6,117.9,84.1,110.3,84.1,101z"/>
	</g>
</g>
</svg>
