<?xml version="1.0" encoding="utf-8"?>
<!-- Generator: Adobe Illustrator 25.2.1, SVG Export Plug-In . SVG Version: 6.00 Build 0)  -->
<svg version="1.1" id="Layer_1" xmlns="http://www.w3.org/2000/svg" xmlns:xlink="http://www.w3.org/1999/xlink" x="0px" y="0px"
	 viewBox="0 0 929.1 802.5" style="enable-background:new 0 0 929.1 802.5;" xml:space="preserve">
<style type="text/css">
	.st0{fill:#FFFFFF;}
	.st1{fill:none;stroke:#000000;stroke-width:4;stroke-miterlimit:10;}
</style>
<rect x="448.3" y="0.1" class="st0" width="289.7" height="255.6"/>
<g>
	<g>
		<g>
			<path d="M754.4,681.6c-4.6-1.1-9-0.5-13.6,1c-2.9,1-5.5,1.2-5.2,5.2c0.2,2.7-1.9,3.4-4.2,3.3c-5.4-0.3-10.9-0.5-16.3-1.1
				c-2.7-0.3-5-1-6.3,2.5c-0.9,2.3-2.9,1.6-4.6,0.6c-3.8-2.2-7.7-4.3-11.4-6.8c-5-3.4-9.9-4-15.4-1.4c-2.3,1.1-4.8,2.1-7.3,2.5
				c-3.7,0.6-7.2,1.2-9.2,4.9c-0.2,0.4-0.7,1-1.1,1c-8.8,1.4-7.5,8.7-7.6,14.3c0,4.4-0.3,7.6-4.6,9.5c-2.2,0.9-2.1,2.7-2.1,4.5
				c0,2.9-1.3,3.5-4,2.8c-4.6-1.1-10.1,0.4-13.2-4.9c-4.2-0.8-8.5-2.5-12.7-2.2c-2.2,0.2-3.7,0.6-5.3-1c-3.7-3.9-7.8-3.4-12-1
				c-1.3,0.8-2.8,2-4.1,1.9c-5.6-0.4-10.2,0.2-11.8,6.7c-0.2,0.9-2,1.8-3.1,2c-3.5,0.7-5.7,2.8-8.1,5.3c-1.9,2-4.9,3-2.5,6.5
				c-2.8,2.5-5.5,5.2-8.3,7.5c-0.2,0.2-1.8-0.7-2.4-1.5c-1.5-1.8-2.6-3.9-4-5.7c-3.5-4.5-6.5-4.8-11.4-1.3c-0.6,0.5-1.3,0.8-2,1.2
				c-3.9,2-6.8,1.9-8.4-0.5c-2-2.8-1.3-9,1.7-10.5c4-1.9,7.6-5.6,12.8-4.6c1.1,0.2,2.8-0.9,3.8-1.8c4.7-4.5,9.2-9.1,14-13.6
				c1.8-1.7,2.9-3.6,2.7-6.1c-0.3-3.6,1.6-5.1,4.9-5.7c2-0.4,4-1.2,5.8-2.1c1.1-0.5,2.9-1.3,3-2.2c1-5.9,6-8.2,10.1-11.2
				c2.2-1.6,2.6-3.6,2.6-6c0-3.3,0.1-6.8,0.6-10c0.5-2.8,2.1-4.7,5.5-4.2c1.5,0.2,3.1,0.3,4.7,0.2c4.5-0.3,6.1-2.5,5.3-7
				c-1-5.3-0.2-7.5,4.2-8.3c9.9-1.7,19.7-4.8,30-3.4c1.8,0.2,3.7,0.3,5.2,1.1c4.7,2.5,9.5,2.2,14.4,1.2c1.8-0.3,3.5-0.7,5.3-1
				c5.2-0.8,5.5-0.7,5.6-6c0.1-2.9,1.2-4.9,3.1-6.9c4.2-4.6,8.3-9.3,12.4-14c0.4-0.5,0.6-1.2,0.8-1.8c-0.7,0.1-1.6,0-2.1,0.3
				c-1.8,1.1-3.3,2.5-5.1,3.5c-1.3,0.7-2.9,1.5-4.2,1.2c-5.6-1.2-9,1.9-11,6.2c-1.7,3.7-4.3,5.1-7.8,5.1c-4.1,0.1-8.3-0.3-12.4-0.8
				c-1.4-0.2-2.6-1.3-3.8-2.2c-1.2-0.9-2.2-2.5-3.6-2.8c-4.1-1.1-5.7-3.7-6.7-7.6c-1.3-4.9-4.2-6.1-8-2.9c-3.5,3-7.8,2.2-11.5,3.8
				c-2.7,1.2-5.8-1.6-6-4.6c-0.2-2.8,1.8-4,4.3-4.4c0.8-0.1,1.5-0.5,2.3-0.8c-1-0.7-1.9-2-2.9-2c-1.9-0.1-4.6,1.8-5.5-0.7
				c-2-5.2-4.8-6.1-9.4-3.3c-0.9,0.6-2.6,0.3-3.8-0.1c-2.5-0.8-3.8,0.2-4.8,2.5c-1.2,2.8-3.4,4.4-6.7,4.5c-1.5,0.1-3.3,0.4-4.3,1.3
				c-2.5,2.2-4.7,1.1-7.2,0.4c-2.9-0.8-3.8-2.3-2.9-5.1c0.1-0.3-1.1-1.4-1.8-1.5c-1.2-0.2-2.6,0.2-3.9-0.1c-1.9-0.4-2.7-1.6-1.5-3.4
				c0.7-1,2-1.7,2.7-2.7c0.8-1.1,2-2.7,1.7-3.6c-0.4-1.1-2.1-2.1-3.4-2.5c-1.8-0.6-4.7,0.3-5.1-2.4c-0.4-2.9,2.3-3.7,4.4-4.8
				c2.7-1.3,6.3-1.2,6.7-5.5c0-0.5,2.7-1.4,3.8-1c5.1,1.8,8.9-0.1,12.3-3.8c2.9-3.2,6.2-5.6,10.8-4.8c0.7,0.1,1.7,0.2,2.3-0.2
				c5.7-3.4,12-6.1,16.9-10.5c5.4-4.9,5.6-12.5,6.7-19.4c0.1-0.5,0-1.2-0.3-1.5c-3.6-3.5-3.8-7.1-0.4-11c0.4-0.5,0.2-2.1-0.3-2.7
				c-2.9-3.9-2.8-8.2-2.1-12.6c0.2-1,1.6-2.5-1.1-2c-4.3,0.8-8.6,1.5-12.9,2.2c-3.3,0.5-6.1,1.3-6.3,5.5c0,0.8-2.1,2.4-2.3,2.3
				c-3.2-1.9-6,0.6-9,0.3c-2.2-0.2-3.5-2.1-2.1-3.8c2.2-2.5,4.7-4.8,7.3-6.7c5-3.6,9.7-7.3,11.8-13.6c0.7-1.9,1.8-2.7-0.7-4.1
				c-4.2-2.3-6.9-6.6-11.4-8.6c-1.3-0.6-2.7-2.7-2.6-4.1c0-2.3,2.1-2.4,4.1-1.9c0.4,0.1,1.8-2,1.6-2.5c-1.5-3.5-0.2-4.7,3.2-5
				c2.8-0.3,5.5-1,8.3-1.3c2.8-0.3,4.9,0.5,6.3,3.4c1.1,2.3,2.7,4.1,5.9,4.4c4.6,0.4,4.6,0.8,4.9,6.4c-0.6,0.4-1.2,0.7-1.8,1
				c0.6-0.4,1.1-0.8,1.7-1.1c0.8-0.2,1.7-0.1,2.3-0.5c2.8-1.8,5.3-4.6,8.3-5.4c2.7-0.7,6,1.5,8.9,1.2c3.8-0.4,7.5-2,11.2-3.2
				c2.5-0.8,4.8-1.9,6.9,0.9c0.3,0.4,1.6,0.4,2,0.1c0.4-0.3,0.5-1.5,0.2-2c-1.8-3.4-0.3-5.4,2.7-6.8c2.3-1.1,3.1-2.7,1.8-5
				c-2.5-4.4-0.5-8,1.8-11.5c1.9-2.8,2.2-5.1,0.8-8.6c-1.5-3.7-1.6-8-1.5-12.1c0-1.5,2.1-3.5,3.7-4.3c2.8-1.5,4.1-2.9,2.1-5.9
				c-1.8-2.7-0.2-4.2,2-5.7c0.5-0.3,0.6-1.3,0.9-1.9c-0.7-0.2-1.3-0.7-2-0.7c-1.2-0.1-2.9,0.7-3.6,0.1c-2-1.6-3.1-1.1-4.3,0.8
				c-0.7,1.1-1.4,2.2-2.2,3.2c-1.2,1.5-2.5,1.7-3.9,0.3c-0.8-0.7-1.9-1.3-2.2-2.2c-1.2-4.3-6-5.6-7.9-9.5c-1.9-4-4.6-7.5-6.9-11.3
				c-1.2-2-2.4-4-3.9-5.8c-2.6-3.1-2.6-6.4-1.6-10.1c1.4-5,2.8-9.9,6.4-14c1.6-1.8,2.7-4.5,3.3-6.9c1.2-4.6,3.4-8,8.2-9.4
				c1.1-0.3,1.9-1.4,2.8-2.1c-1.3-0.2-2.5-0.4-3.8-0.5c-1.5-0.1-3.1,0.1-4.7,0c-3.5-0.2-6.1,0.2-6.2,4.7c0,1.1-2.3,3.1-3.6,3.2
				c-4.9,0-8.6,2.1-11.3,5.8c-2.7,3.6-6,3.7-9.6,2c-4.2-2-8.3-4.1-12.5-6.2c-0.2-0.1-0.4-0.3-0.5-0.5c0.2,0.1,0.4,0.2,0.6,0.4
				c2.9,4.1,0.2,8-0.6,11.9c-0.4,2-2.3,1.5-3.8,0.5c-4.8-3.1-9.6-6.1-14.4-9.2c-0.9-0.6-1.7-1.4-2.6-1.7c-1.1-0.4-2.7-0.8-3.4-0.3
				c-0.7,0.5-1.1,2.2-0.8,3.3c0.6,3,1.7,6,2.3,9c0.2,0.9-0.2,2.6-0.7,2.7c-1,0.4-2.5,0.3-3.5-0.2c-1-0.5-2.2-1.7-2.4-2.7
				c-0.9-5.1-3.7-8.9-7.4-12.4c-2.5-2.4-3.4-5.7-3.3-9.3c0-2.5,0.4-4.6,3.2-5.5c1.1-0.3,2.5-1.3,2.7-2.2c1.3-5.2,4.8-9,7.7-13.3
				c2.6-3.7,3.8-8.3,5.7-12.5c0.6-1.4,1.5-2.7,2.5-3.9c4.5-5.2,4.2-9.4-0.8-13.5c-1-0.8-1.9-1.8-3-2.4c-3.8-2.1-6.6-4.4-3.2-9.1
				c0.4-0.6-0.1-1.9-0.3-2.9c-0.1-0.5-0.5-0.9-0.8-1.3c-0.4,0.4-0.9,0.7-1.1,1.2c-0.7,1.9-1.2,4-2,5.8c-1,2.2-2.6,2.3-4.2,0.4
				c-1.7-2-3.1-4.2-4.8-6.1c-1-1.1-2.4-1.9-3.7-2.7c-0.5-0.3-1.3-0.2-2-0.3c0.1,0.5,0,1.1,0.3,1.4c2.4,2.7,1.5,4.9-1.4,6.1
				c-3.9,1.7-5,4.8-5.5,8.6c-0.9,6.7-2,13.3-3.1,19.9c-0.9,5.6-1.3,5.9-6.8,6.3c-7.8,0.6-9.8-2.3-6.6-9.4c0.8-1.8,2.2-3.8,2.1-5.6
				c-0.3-5.6,1.2-10.8,3.6-15.8c1.3-2.7,1.5-5.2,0.5-8.2c-1.5-4.1-2.2-8.5-3.3-12.8c-2.2,3.8-4.4,7.6-6.8,11.3
				c-0.8,1.2-2,2.6-3.3,2.9c-2.3,0.6-2,1.6-1.5,3.3c0.9,2.6-0.2,4.5-2.5,5.9c-2.9,1.7-5.7,3.6-8.7,5.2c-2.7,1.4-4.5,0.1-4.3-2.9
				c0.1-0.7,0.9-1.5,0.7-2.2c-0.4-1.6-0.8-3.5-1.8-4.6c-1.6-1.8-2.6,0.4-3.7,1.2c-0.6,0.4-1.3,1.5-1.8,1.3c-1-0.2-2.6-1.1-2.5-1.6
				c0.4-3.9,0.9-7.7,1.8-11.5c0.2-1,1.6-2.2,2.7-2.5c5.4-1.4,10-5.5,16.1-4.9c1.1,0.1,3.5-1.5,3.5-2.2c-0.1-6.9,5.9-8.5,9.8-11.9
				c2.3-2,4.6-3.8,7.1-0.1c0.2,0.3,1.9,0.1,2.3-0.4c1.5-1.7,1.6-3.7,0.5-5.8c-2-3.8-1.1-7.3,0.7-11c3-6.3,5.6-12.8,8.4-19.2
				c0.1-0.2,0.2-0.4,0.4-0.6c-0.1,0.2-0.2,0.5-0.3,0.7c-2.1,1.4-4.3,2.8-6.4,4.3c-3.2,2.3-5,5.2-4.3,9.3c0.6,3.9-1.6,6.4-4.5,8.4
				c-1,0.7-2.7,1.4-3.5,1c-4.9-2.3-9.1,0.1-13.5,1.6c-1,0.3-2,0.6-3,0.9c-5.3,1.6-9.5-0.5-11.1-6c-0.2-0.6,1.2-2.3,2-2.4
				c3.2-0.3,6-0.4,7.5-4.2c1.1-2.9,1-4.6-2-6.4c-4.8-2.8-4.9-5.1-1-8.7c1.8-1.7,4.3-2.4,2-6c-1.5-2.3,1.1-5.3,4.3-6
				c2.8-0.6,5.6-0.8,8.4-1.5c1.4-0.3,2.9-1.1,4.1-2c1.9-1.5,1.5-2.4-1-2.5c-2.4-0.1-3.5-1.5-2.6-3.6c1.2-2.8,2.2-6.4,4.4-8
				c3.1-2.1,2.5-4.8,3-7.4c0.2-0.1,0.4-0.2,0.5-0.3c0.1-0.1,0.1-0.2,0.2-0.4c-0.2,0.2-0.4,0.5-0.6,0.8c-2.7,2.2-5.2,4.6-8.1,6.4
				c-2.6,1.6-4.2,0.2-3.8-2.9c0.2-1.7,0.6-3.4,0.9-5.2c0.5-0.5,1.1-1.1,1.6-1.6c0.1-0.2,0.3-0.3,0.4-0.5c-0.1,0.2-0.2,0.4-0.3,0.6
				c-0.5,0.5-1,1.1-1.6,1.6c-3.5-1.4-6.7-2.9-10.6-3.6c-2.8-0.4-5.2-3.9-7.5-6.3c-1.6-1.7-2.7-3.6-1.6-6.3c0.9-2.2-0.1-2.6-2.3-1.6
				c-3.5,1.6-7.7-0.2-10-4.1c-1.8-3-1.2-6.7,1.6-9.1c0.7-0.6,2.1-0.6,2.7-1.2c1.5-1.6,2.4-4.7,4-5c1.9-0.3,4.1,1.7,6.2,2.6
				c0.8,0.3,1.7,0.3,2.6,0.4c-0.1-0.7-0.2-1.5-0.4-2.2c-0.6-2.6-2.2-5.1,0.6-7.8c3.9-3.7,5-3.7,8.1,1c2.5,3.8,4.5,7.6,3.8,12.3
				c-0.1,0.5,0.2,1,0.2,1.5c0.4-0.3,0.8-0.6,1.2-0.9c0.4-0.4,0.6-0.9,1-1.2c1.2-1.1,2-3.7,4.1-2.2c0.9,0.6,1.3,3.2,0.7,4.2
				c-2.1,4-0.6,8.1-0.8,12.2c-0.2,3.7,2.8,4.2,4.7,5.2c0.9,0.5,3-1.3,4.6-2c-0.7-0.9-1.5-1.7-1.9-2.7c-2.1-4.5-6.2-8.4-3.7-14.3
				c1.7-3.9,1.3-4.1,6.7-3.2c0.1,0.2,0.1,0.4,0.3,0.5c0.1,0.1,0.2,0.1,0.4,0.2c-0.2-0.2-0.5-0.4-0.7-0.6c-0.5-0.6-0.9-1.4-1.5-1.8
				c-2.7-1.7-3.7-3.6-1-6.1c2.3-2,1.2-3.1-0.7-4.8c-2.8-2.6-1.6-6.3-1.2-9.5c0.1-0.6,0.9-1.2,1.6-1.5c2.7-1.3,5.5-2.5,8.3-3.7
				c0.2-0.1,0.6-0.3,0.7-0.2c4.7,3.7,7.6-1.2,11.4-2.2c2.6-0.8,3.1-1.7,1.2-3.6c-2-2-4.3-3.8-6.3-5.8c-1.7-1.6-1.1-3.1,1-3.1
				c4.6-0.2,3.4-2.2,2.2-5c-2.1-4.7-2-4.7,2.8-6.5c1-0.4,1.9-0.8,2.9-1c3.3-0.7,5-2.1,3.8-5.8c-0.4-1.3-0.4-3.7,0.5-4.4
				c2.5-2,4.1-3.7,1-6.3c1.8-3.6,3.4-7.3,5.3-10.9c0.3-0.5,2-0.5,2.9-0.2c2,0.5,3.9,1.4,5.8,2.1c1.2,0.5,2.4,1.4,3.6,1.4
				c4.7,0.2,9.2-0.6,14.2,1.2c3.9,1.4,9.1-0.4,13.7-0.9c2.8-0.3,5.6-0.7,8.4-1.1c2.2-0.4,4.5-1,6.7-1.5c2.5-0.5,5-1.4,7.5-1.3
				c2.5,0.1,5.2,1.9,5.5-2.6c0-0.4,1.8-1,2.7-1c3.6-0.1,7.3-0.1,10.9,0.2c3.2,0.2,3.9,1.5,3.1,4.7c-0.3,1.2-0.8,2.5-1.3,3.7
				c-0.9,2.4-1.8,4.4,0.7,6.9c1.8,1.8,1.2,5-0.7,7.1c-2.2,2.5-4.4,5.5-7.3,6.9c-4,1.9-6.5,4.8-9,8.1c-2,2.6-5,4.4-7.6,6.7
				c-4.2,3.7-8.6,7.2-12.4,11.2c-1.1,1.2-0.8,3.8-0.8,5.8c0,0.3,2.7,0.7,4.1,0.6c4.1-0.2,5,0.7,3.2,4c-2.6,4.7-3.8,10.3-8.8,13.5
				c-0.7,0.4-0.8,1.8-1.2,2.8c1,0.2,2,0.6,3,0.7c1,0,2.2,0,3-0.6c4.6-3.4,9.8-5.3,15-7.4c5.7-2.3,11-4.1,17-1c2,1.1,5.2,1.3,7.4,0.5
				c4.7-1.6,9.2-0.8,13.8-0.4c4.6,0.4,9.3,0.6,13.9,0.5c4.1-0.1,8.2-0.9,12.4-1c5.9-0.2,10.2,3.3,12,8.9c1.9,5.8,1.9,10.9-2.3,15.9
				c-4.4,5.2-6.9,11.1-7.9,18.2c-1.1,7.6-4.3,14.9-6.6,22.3c-0.3,1-0.5,2.3-1.3,2.8c-5.7,3.2-6.4,9.1-8.1,14.4
				c-1.9,6-7.1,9.5-11.3,13.6c-4.4,4.4-4.8,7.6,0.3,9.9c7.3,3.3,7.8,5.4,0.3,10.2c-1.9,1.2-4.5,3-6.1,2.5
				c-6.9-2.1-10.2,2.3-12.8,6.8c-1.5,2.5-3.1,3.8-5.6,4.7c-1.1,0.4-2,1.3-2.9,2c1,0.2,2,0.4,3,0.5c0.5,0.1,1.1-0.2,1.5,0
				c7.2,2.7,12.7,1.4,17.6-5.1c3-4,6.5-2.6,11.3,0.3c4.7,2.9,9,6.9,15.2,6.7c1.9,0,4.8,1.5,5.7,3.2c5.5,9.6,14.8,15.1,22.8,22
				c3.4,3,5.3,5.9,6,10.3c1.4,9,3.1,17.9,4.9,26.7c2,9.7,5.5,18.9,10.4,27.5c3.2,5.7,8,10.1,14.2,12.8c6,2.6,11.7,5.5,17.8,8
				c4.2,1.7,7.6,4,10.1,8c3.3,5,7.1,9.6,10.8,14.2c2.2,2.8,4.4,5.5,8.1,6.9c3.2,1.1,3.2,2.3,1.1,4.4c-1.1,1.1-3.2,2-3.2,3.1
				c0,1.6,1.3,3.2,2.2,4.8c4.9,8.2,9.9,16.4,14.8,24.7c2.1,3.5,1.7,4.2-2.7,4.4c-0.8,0-1.6-0.1-2.3,0c-0.9,0.1-1.8,0.4-2.8,0.6
				c0.7,0.7,1.2,1.7,2.1,2.1c8.6,3.7,12.2,11.5,16,19.2c2.4,4.9,5.6,9.5,4.3,15.3c-0.5,2.2-1.2,4.4-2.4,6.3
				c-1.9,2.8-4.1,5.4-6.4,7.8c-5,5.1-2.8,5.1,1.7,7.2c9.1,4.3,8.6,6.8,12.9-4.8c2-5.5,4.9-7.8,10.8-7.5c7.8,0.4,15.6,0,23.4,0.1
				c6.6,0.1,12.4,2,17.9,6.2c14.8,11.4,15.3,11.6,18.2,29.6c0.2,1.5,0.2,3.1,0,4.6c-1.5,7.9-3.3,15.7-4.5,23.6
				c-1,6.5-6.1,10-9.5,14.8c-2.1,2.9-6.7,4.5-4.7,9.4c-3.2,3.6-5.9,7.8-11.2,9.1c-5.4,1.4-5.4,1.6-5.4,7.2
				c-0.1,7.3-4.1,11.9-10,15.4c-0.5,0.3-1,0.7-1.5,1.1c0.5,0.2,1,0.3,1.5,0.5c4.5,1.1,9,2.3,12.9,5.2c1.3,1,4,0.8,5.9,0.5
				c5.1-0.8,10.2-2,15.2-3c2.4-0.5,3.8,0.3,2.8,2.8c-1.7,4.4-0.7,8.6,0.7,12.8c0.8,2.5,0.4,4.5-2.1,6c-3.7,2.3-7.1,5.6-11.1,7
				c-5.1,1.9-7.8,4.8-8,10.1c-0.1,3.2-1.7,4.3-4.5,3.3c-4-1.4-6.8,0.3-9.8,2.8c-2.5,2-5.8,3.3-9,4.3c-4.9,1.5-9.3,3.5-12,8
				c-1.7,2.8-3.7,2.8-6.5,1.9c-5.2-1.7-10.4-3.1-15.8-4.2c-3.8-0.7-7.7-1.1-11.5-0.7c-4.9,0.5-9.6,1.9-14.4,3.2
				c-1.9,0.5-4.5,1.2-5.4,2.6c-2.3,4-5,2.3-8,1.5c-3-0.8-6-1.2-9.1-1.5c-2.8-0.3-3,0.9-1.4,3c0.3,0.4,0.1,1.5-0.3,2
				c-2,2.7-3.9,5.6-6.4,7.7c-1.3,1.1-4.2,1.9-5.7,1.2c-5.1-2.2-9.9-5.2-14.9-7.9c0.5-0.5,1.1-1,1.6-1.6c0.5-0.5,1-1,1.6-1.6
				c0.1-0.2,0.3-0.4,0.4-0.5c-0.1,0.2-0.2,0.4-0.3,0.6c-0.5,0.5-1,1-1.6,1.6C755.5,680.5,754.9,681.1,754.4,681.6z M536,266.6
				c1-1.1,2.3-2,3-3.3c1.4-2.6,2.5-5.4,3.7-8.2c-2.7,1.6-5.4,3.1-8,4.9c-2.1,1.5-1.5,2.7,0.5,4c0.6,0.4,0.6,1.8,0.9,2.7
				c-7.2,2.4-8,3.2-7.7,7.7c0.1,0.9,0.8,1.7,1.2,2.6c0.8-0.4,2.1-0.6,2.5-1.3C533.5,272.8,534.7,269.7,536,266.6z M509.5,280.7
				c2.7-1.1,4.8-4.1,8.4-2.7c2.1,0.8,2.7,2.3,0.7,3.6c-2,1.3-2.2,2.3-1.1,4.2c0.7,1.3,0.9,2.9,1.4,4.3c-0.1,0.2-0.2,0.4-0.4,0.6
				c0.1-0.2,0.2-0.5,0.3-0.7c8.4-2.9,8.4-2.9,6.1-10.6c-0.6-2-1.2-4-1.2-6c-0.1-2.6-1-3.1-3.3-2.1c-2.1,0.9-4.3,2-6.5,2.4
				C509.6,274.6,509.3,277.4,509.5,280.7c-0.1,0.1-0.3,0.2-0.4,0.3c-0.1,0.1-0.1,0.3-0.1,0.4C509.1,281.2,509.3,280.9,509.5,280.7z
				 M587.5,514.6c3.4,0,6.5-0.6,8.8-3.6c1-1.3,2.9-2.3,4.6-2.6c6-1.2,12.1-2.2,18.3-2.8c3.2-0.3,4.2,2,3.1,5
				c-0.9,2.3-1.5,4.8-1.8,7.2c-0.2,1.5,0.4,2.6,2.7,2.5c3.7-0.3,4.2,0.8,2.5,3.5c-0.8,1.3-1.6,2.6-2.6,3.7c-2.2,2.6-3.6,4.9-0.4,8
				c1,1,1.1,3.5,0.8,5.1c-1,4.8-1.9,9.7-3.8,14.2c-1.4,3.1-4.1,6-6.8,8.1c-4.3,3.2-9.1,5.6-13.7,8.3c-1.1,0.6-2.5,1.5-3.5,1.3
				c-5.5-1.1-8.9,2.5-12,5.8c-1.9,2.1-3.5,3.5-6.5,2.9c-1.9-0.4-4.2-0.8-5.8-0.1c-1.8,0.8-2.8,3.1-4.4,4.5c-0.7,0.6-1.9,0.6-2.9,1
				c-0.6,0.2-1.1,0.6-1.7,0.9c0.4,0.3,0.8,0.7,1.2,0.9c2.6,1,5.2,3.1,4.7,5.6c-1.3,5.5,0.6,7.6,5.8,8.2c0.8,0.1,1.4,1.4,2.2,2
				c1.1,0.8,2.5,2.1,3.6,2c1.9-0.2,5.1-1.1,5.4-2.3c1.3-5.2,5-5.2,9-5.3c1.1,0,2.1-1.3,3.3-1.6c2.7-0.6,5.5-1.2,8.2-1.2
				c3,0,2.1,3.1,3.1,4.7c0.8,1.4,1.3,2.5,3.5,2c3.5-0.8,6.3,1.8,7.7,4.1c1.8,3-2.8,3.6-3.9,5.8c-0.1,0.2-0.2,0.5-0.3,0.7
				c-0.9-0.1-1.8-0.3-2.7-0.4c0.1,0.4,0.1,0.8,0.2,1.2c0.8-0.3,1.6-0.6,2.4-0.9c3.2-0.4,6.2-0.5,9.4-2.6c5.4-3.5,8.4-2.5,11,3.5
				c2,4.7,6.2,6.5,9.2,9.7c2.6,2.8,5.2,3.2,8.2,3.1c3.1,0,6.2-0.3,9.2-0.8c0.9-0.1,1.8-1.1,2.3-1.9c3.5-5.6,7.3-10.4,15-8.6
				c0.4,0.1,1-0.2,1.5-0.4c5-3.1,10-6.2,15-9.3c1.2-0.7,2.5-1.2,3.8-1.7c-0.4,1.4-0.5,2.9-1.1,4.1c-1.1,2-2.5,4-4,5.7
				c-4.2,4.9-8.6,9.8-12.9,14.6c-2.9,3.3-6,6.4-4.3,11.5c0.7,2.2-0.4,4-3.1,4.3c-9,1-18,5.9-27.2,0.5c-0.8-0.5-2-0.3-3-0.4
				c-9.4-1-18.6,0.1-27.7,2.8c-4.7,1.4-5.2,1.5-3.6,5.5c1.4,3.5,0,5.2-2,7.5c-2.6,3-5.7,3.1-9.2,2.9c-4.6-0.2-4.9,0.2-5.2,4.5
				c-0.1,1-0.2,2.1,0,3.1c1.3,6.4-2,10.3-6.8,13.6c-1.9,1.3-4.7,3-4.8,4.7c-0.4,5.6-4.7,6.6-8.4,7.9c-4,1.4-7.3,2.6-6.7,7.8
				c0.1,1-1.1,2.3-2,3.2c-5.3,5.3-10.6,10.7-16.1,15.9c-1.8,1.7-3.8,2.6-6.8,2.5c-3.2-0.1-6.7,2-9.7,3.9c-0.9,0.5-1.2,3.6-0.5,4.9
				c1.1,2,3.2,1,4.7-0.2c1-0.8,1.9-1.7,2.8-2.7c1.6-1.9,3.2-1.7,5.5-1.1c4.9,1.3,8.2,4.1,10.5,8.5c1,1.9,2.2,2.6,4.2,1.1
				c1.7-1.2,2.5-2,0.8-4.2c-2.5-3.2-2.2-3.2,1.5-5.1c2.2-1.2,4-2.9,6-4.5c1.2-0.9,2.4-2.6,3.6-2.7c4.2-0.2,5.9-2.9,7.1-6.2
				c1.2-3.3,3.6-4.1,6.8-3.8c3.4,0.3,6.5-0.4,9.7-2c3.7-1.9,8-2.3,11.8,0.4c1.6,1.1,2.9,2,4.9,0.8c0.8-0.5,2.5-0.9,2.9-0.5
				c4.1,3.9,10.7,1.5,14.7,6.2c1.4,1.7,5.2,1.8,8,2c0.6,0,1.1-2.9,2.1-4.1c0.9-1.1,2.3-1.9,3.6-2.7c2.3-1.3,3.9-2.7,2-5.5
				c-0.4-0.6-1.2-1.7-1-2c3.7-5.5,0.8-15.3,11-16.4c0.6-0.1,1.4-0.8,1.7-1.5c1.6-2.9,4.6-3.1,7.3-4c3.2-1.1,6.6-1.5,9.6-3
				c5.5-2.7,10.6-1.8,15.6,1c3.6,2,7.2,4.2,10.8,6.1c0.9,0.5,2.9,0.8,3.2,0.4c2.3-3.3,5.2-2.3,8.4-2c4.1,0.4,8.3,0.2,12.5,0.5
				c2.8,0.1,5,0,5.4-3.8c0.1-1.3,2.1-3.1,3.5-3.5c4.4-1.2,9-1.7,13.5-2.6c1.4-0.3,2.8-0.9,4.2-1.5c1.9-0.8,3.7-2,5.6-2.6
				c4.6-1.6,4.6-1.5,4.2-6.4c-0.1-0.7,0.2-1.7,0.7-2c0.5-0.3,1.5,0,2.1,0.3c1.4,0.8,2.7,1.6,3.9,2.6c3.8,3.1,8.1,4.2,13,3.8
				c3-0.2,6.2,0.6,9,1.5c2.5,0.8,4.3,1.1,6-1.3c0.5-0.8,1.7-1.4,2.6-1.6c7-1.7,14.1-3.5,21.2-4.8c2.2-0.4,4.7,0.1,6.9,0.6
				c5.8,1.4,11.5,3,17.2,4.7c2.6,0.8,4.6,0.6,6-1.9c2.1-4,5.8-5.6,9.9-6.9c3.4-1.1,6.9-2.4,9.9-4.3c3.1-2,6.1-3.8,10-3.6
				c1.1,0,3-1.2,3.3-2.2c1.8-6.3,5.4-10.4,11.9-11.8c0.7-0.2,1.3-0.8,2-1.1c5.4-2.8,9.7-6.1,6.3-13.2c-0.5-1.1-0.3-2.6-0.3-3.9
				c0.1-2.5-1.2-3.3-3.4-2.8c-3.8,0.8-7.5,2-11.4,2.4c-2.2,0.3-5,0.1-6.5-1.1c-4.5-3.5-10-4-15.1-5.9c-3.7-1.3-8.2-0.2-11-3.9
				c3.7-0.9,7.3-2.4,11-2.7c3.6-0.3,5.6-2.2,7.6-4.7c3.1-3.8,3.2-8,2.3-12.5c-0.9-4.4-0.9-4.5,3.6-4.8c1.5-0.1,3.2,0.1,4.7-0.3
				c3.3-0.9,7.7-3.1,7-6.2c-1-4.3,1.6-5.6,3.5-7.7c2.6-2.9,5.3-5.7,8.1-8.4c2.7-2.6,4.2-5.6,4.7-9.5c0.9-6.7,1.9-13.4,3.7-19.8
				c2.3-8.5-1.8-15.7-3.4-23.5c-0.2-0.9-1.2-1.7-2-2.3c-4.7-3.7-9.2-7.6-14.2-10.9c-2.5-1.6-5.7-2.3-8.7-3c-9.8-2-19.6,0.1-29.4-0.2
				c-2.7-0.1-4.3,1-5.2,3.6c-1.3,3.6-3.1,7.1-4.7,10.7c-0.9,2-2.3,2.6-4.4,1.5c-1.1-0.6-2.4-1.1-3.5-1.7c-4.3-2.3-8.6-4.7-13-7
				c3-4.1,5.7-8.5,9.2-12.1c4.8-4.9,5-10.5,2.6-15.7c-4.5-10-8.5-20.8-20.3-25.3c-0.7-0.3-1.3-0.9-1.9-1.4
				c-5.7-5.2-11.8-9.2-20.2-7.1c-0.7,0.2-1.7-0.6-2.6-1c0.7-0.7,1.3-1.7,2.1-2c1.4-0.6,3.1-0.5,4.5-1.1c4.8-1.9,8.8-1.2,12.9,2.3
				c2.4,2,6,2.6,9.2,3.7c0.7,0.2,1.5,0,2.2,0c-0.1-0.9,0-1.9-0.4-2.6c-4.9-8.3-9.9-16.5-14.8-24.7c-1-1.7-3-3.7-0.8-5.5
				c3.4-2.7,1-3.5-0.9-5.4c-2.9-2.9-5.8-6-7.9-9.6c-6.6-11.4-16.4-18.1-28.6-22.5c-5.2-1.9-10.5-4.8-14.7-8.5
				c-9.9-8.5-13.2-20.9-16.5-32.8c-2.4-8.7-3.8-17.7-5.1-26.7c-1-6.9-4.2-11.6-9.8-15.8c-6.8-5.1-14.2-9.8-18.3-17.8
				c-1.4-2.7-3.6-3.2-6.4-3.3c-2.2-0.1-4.5-0.8-6.5-1.9c-3.5-2-6.6-4.7-10.2-6.5c-1.3-0.7-3.6-0.4-5,0.2c-1.5,0.7-2.7,2.4-3.8,3.8
				c-2.8,3.2-7,4.9-10.4,4.1c-6.2-1.5-12.4-0.7-18.5-1.6c-6.8-1-13.2-3.1-17.3-9.2c-0.4-0.6-0.4-1.4-0.6-2.1
				c0.9-0.1,2.1-0.7,2.7-0.3c5.1,3.5,11.2,3.7,17,5c4.5,1,8.5-0.9,11-4.3c4.5-5.9,8.5-11.6,17.4-9.5c1.5,0.4,3.7-2.3,5.5-3.6
				c-1.1-1.2-2.2-2.5-3.4-3.5c-1-0.8-2.4-1.1-3.4-1.9c-0.9-0.8-2.1-2.2-1.8-2.9c1.4-4.2-1.3-3.9-3.5-3c-4.1,1.6-8,3.8-12,5.6
				c-0.6,0.3-1.4-0.1-2.2-0.2c0.1-0.7-0.1-1.6,0.3-2c4.2-4.4,8.7-8.7,15.1-8.7c8.9,0,14.2-5.7,17.3-12.3c3-6.2,6.2-12.1,9.6-18
				c4.2-7.2,5.8-16,7.5-24.3c0.9-4.1,1.7-8.1,4-11.6c1.7-2.6,3.6-5.1,5.2-7.8c2.7-4.4,2.2-11.6-1.2-15.2c-1.3-1.3-3.5-2.4-5.3-2.5
				c-4.9-0.1-9.8,0.5-14.8,0.6c-3.8,0.1-7.7-0.1-11.5-0.1c-4.6-0.1-9.5-0.9-13.9,0.1c-3.8,0.9-7,1.2-10.4-0.7
				c-3.9-2.2-8.3-2.4-11.9-0.1c-5.5,3.4-12.3,3.7-17.2,8.3c-0.4,0.3-0.9,0.6-1.4,0.6c-4.6,0.3-8.4,1.9-11.3,5.7
				c-0.6,0.8-2.7,0.5-4.1,0.7c0.3-1.4,0.5-2.7,0.8-4c0.8-3.1,6.7-5.4,1.5-9.6c-0.2-0.1-0.1-1.1,0.2-1.4c2-1.6,4.6-4.9,5.9-4.4
				c4.4,1.6,4.7-1.6,6-3.9c1-1.8,0.9-3-1.6-2.8c-2.6,0.3-5.1,0.9-7.7,1.2c-0.8,0.1-1.8-0.5-2.6-1c-0.2-0.1,0.2-1.7,0.7-1.9
				c3.3-2,5.5-4.6,5.3-8.7c0-0.6,0.7-1.4,1.2-1.9c4.9-4.2,9.8-8.2,14.6-12.5c2.8-2.6,5.6-5.3,8-8.3c1.6-2.1,3.1-4,5.9-4.7
				c3.8-0.9,5.9-4.1,7.9-7.1c0.5-0.7,0.6-2.4,0.2-2.7c-4.1-2.8-1.8-6-0.8-9c1.8-4.9,2.8-5.8-4.6-5.7c-1.2,0-3.5,1-3.5,1.5
				c0.2,4.3-2.7,3.3-4.7,2.7c-4.7-1.3-9.1-1.3-13.5,1.2c-1.6,0.9-4,0.7-6,0.8c-2.3,0.2-4.9-0.3-6.9,0.6c-9.3,3.9-18.7-1.3-27.9,0.5
				c-0.9,0.2-1.9-0.7-2.9-1.1c-1.9-0.7-3.9-1.3-5.8-2.2c-1.6-0.7-3.2-0.9-4,0.8c-0.9,2-2.4,5.6-1.7,6.2c4.5,3.6,4.2,5.6-1,8.1
				c-1,0.5-1,4.2-0.8,6.3c0.3,2.3-0.4,3.4-2.4,4.1c-0.7,0.2-1.5,0.4-2.2,0.7c-1.9,0.8-4.6,1.1-5.4,2.5c-0.6,1,1.4,3.5,1.9,5.3
				c0.4,1.3,0.7,3.8,0.2,4.1c-4.1,2.1-2.2,3.4,0.3,5.1c1.5,1,2.8,2.4,4,3.7c1.3,1.4,1.5,3-0.7,3.5c-4.3,0.9-8.7,1.6-11.4,5.7
				c-0.2,0.3-1.1,0.5-1.4,0.3c-3.2-2.2-6,0.1-8.9,0.7c-5,1-6,4-2,7.7c2.3,2.1,2.7,3.5,0.7,5.7c-2,2.2-1.6,4.2,0.8,5.9
				c1.3,0.9,2.6,1.8,3.7,2.9c0.6,0.6,1.1,2.1,0.8,2.6c-0.7,1-1.9,2.2-2.9,2.2c-1.5,0-2.9-1-4.3-1.5c-2-0.8-3,0.3-3.5,2
				c-0.8,3.1,2,8.9,4.9,9.6c2.8,0.7,7.4-0.3,3.5,5c-0.1,0.2,0.2,1,0.5,1c4.5,1.1,2.5,3.6,1.2,5.8c-1.4,2.5-3.1,4.8-4.3,7.4
				c-0.6,1.3-1.4,3.5-0.9,4.2c2.7,3.3,1,4.4-2,5.5c-1.2,0.4-2.6,0.9-3.4,1.8c-1,1.1-1.5,2.6-2.2,4c1.2,0.5,2.5,1.1,3.8,1.4
				c1.7,0.4,3.7,1.1,2.2,2.8c-3.2,3.8-5.4,9.2-11.9,8.6c-1.5-0.1-3,0.6-4.5,1c-0.7,0.2-1.3,0.6-2,1c0.7,0.2,1.3,0.6,2,0.7
				c4.1,0.5,8.2,1,12.3,1.6c0.5,0.1,1.1,0.9,1.4,1.5c0.1,0.3-0.2,1-0.6,1.3c-0.6,0.5-1.5,0.6-2,1.2c-1,1-2.9,2.5-2.7,3
				c0.7,1.5,2,3.1,3.5,3.7c5.1,1.9,9.9,2.1,13.8-2.8c1.6-2,3.7-3.7,5.7-5.3c1.6-1.3,3.3-2.5,5.1-3.6c0.2-0.1,1.7,1,1.6,1.4
				c-0.3,1.5-0.8,3-1.5,4.4c-3.7,8-7.3,16.1-11.2,24c-1.5,3-2.2,5.8-0.3,8.8c1.6,2.5,0.9,4.9-0.4,7.3c-1.7,3.2-3.4,6.4-4.8,9.8
				c-0.5,1.2-0.7,3.8-0.1,4.1c3,1.7,1.9,3.6,1.2,5.9c-0.5,1.6-0.6,4,0.3,5.1c2.2,2.9,0.8,5.4-0.1,8c-1.3,3.7-3.2,7.3-3.6,11
				c-0.5,4.6,0,9.3-3,13.4c-0.5,0.7-0.1,2.8,0.6,3.3c2,1.6,5.9,0.1,6.7-2.5c0.6-2,0.9-4,1.2-6.1c1-6.1,1.9-12.3,3.1-18.4
				c0.3-1.6,1.1-3.5,2.3-4.6c4-3.9,4-3.8,1.6-8.5c-0.6-1.1-1.3-2.3-1.8-3.4c-2.8-6.2-2.4-7.6,3.5-11.9c0.8-0.6,1.5-1.5,2.3-2.1
				c0.6-0.4,1.8-0.8,2-0.5c0.7,0.6,1.4,1.8,1.2,2.5c-0.7,3-1.9,5.9-2.5,8.9c-0.2,1.1,0.6,2.4,0.9,3.6c0.8-0.6,1.8-1.1,2.4-1.9
				c1.2-1.5,2.5-1.7,4-0.7c1.1,0.7,2.2,1.4,3.3,2c3.6,2,4.2,2,5.2-2.1c0.8-2.9,1.2-5.9,4.7-6.3c2.7-0.3,5.5,0.2,8.2,0.9
				c1.2,0.3,2.1,2,3.1,3c-1.4,1-2.8,2-4.2,2.8c-0.3,0.2-1,0-1.5-0.2c-3.8-1.4-4.7,1-4.7,3.9c-0.1,3.3,0.6,6.6,0.1,9.8
				c-0.4,2.5,0.2,4,2,5.3c1.7,1.2,3.4,2.4,5,3.7c4.7,4,5,11.1,1.1,15.8c-2.5,2.9-5.5,6-6.4,9.5c-1.3,4.7-3.5,8.6-6.5,12.2
				c-3,3.7-4.1,7.7-2.6,12.4c0.5,1.4,0.5,3.1,0.3,4.6c0,0.4-1.8,1.1-2.3,0.8c-0.8-0.4-1.2-1.6-1.8-2.4c-0.7-0.9-1.6-1.6-2.3-2.4
				c-0.2,1.2-1,2.7-0.6,3.7c1.1,2.5,2.6,4.9,4.2,7.1c1.2,1.6,2,2.1,3.9-0.1c4.1-4.6,5.3-4.5,10.6-1c3.9,2.5,7.8,5.2,11.7,7.7
				c1,0.6,3.1,1.3,3.3,0.9c0.8-1.1,1.4-2.7,1.4-4.1c0-1.1-1.2-2.2-1.6-3.4c-0.4-1.4-1.1-3.1-0.6-4.1c1.1-2.1,3.1-1.2,4.7-0.2
				c4.1,2.3,8.2,4.5,12.2,6.9c2.9,1.7,5.4,1.6,7.5-1.1c2.7-3.4,5.9-5.8,10.3-6.3c2.5-0.3,3.6-1.7,3.5-4.2c-0.2-2.9,1.2-4.3,4.2-4.2
				c6.5,0.1,13,0,19.5,0.1c0.9,0,1.8,0.7,2.7,1.1c-0.6,1-1,2.5-1.9,3.1c-3.1,1.9-6.6,3.2-9.6,5.2c-1.8,1.2-3.4,3-4.5,4.9
				c-2.3,4-4.3,8.2-6.4,12.3c-3.7,7.2-7,14.4-0.5,22c3.1,3.8,5.5,8.2,8.2,12.3c1.3,2,2.5,3.9,5.5,2.6c1.9-0.8,2.8,0.4,2.5,2.4
				c-0.2,1-0.6,2.1-0.5,3c0.1,0.9,0.8,1.8,1.4,2.4c0.2,0.2,1.3-0.4,1.9-0.9c0.9-0.7,8.8-3.3,9.8-3.8c4.4-2,5.5,1.4,6.7,4.1
				c1.5,3.4-3,4-3.3,6.2c-0.4,2.3,1.1,4.8,0.9,7.2c-0.1,1-2.4,1.6-3.6,2.6c-1.1,0.9-2.9,2.1-3,3.2c-0.2,3.3-0.7,7.3,0.9,9.8
				c2.6,4.1,1.9,7.2-0.3,10.8c-2.2,3.7-3.8,7.4-1.4,11.7c1.4,2.6,0.5,4.7-2,5.8c-3.5,1.5-3.8,3.5-2.1,6.7c0.8,1.4,0.5,3.3,0.7,5
				c-1.7-0.1-3.5,0.3-4.9-0.3c-5.1-2.2-10-2.1-15.1,0c-2.3,1-5.3,2-7.5,1.4c-3.9-1.2-6.8-0.3-9.9,1.8c-2.1,1.5-4.5,2.8-7,3.4
				c-6.3,1.5-10,6.9-15.3,9.7c-0.8,0.4-1.5,1.6-1.7,2.5c-0.7,3.3-2.8,5.4-5.3,7.4c-4.1,3.1-8.1,6.3-12.2,9.5
				c-0.1,0.2-0.3,0.4-0.4,0.6C587.2,515.1,587.4,514.8,587.5,514.6z M529.2,170.9c7.3-0.1,7.3-0.1,4.6,6.6c-0.1,0.2-0.3,0.5-0.3,0.7
				c0.1,0.6,0.3,1.3,0.4,1.9c0.4-0.3,1-0.4,1.3-0.8c3.6-3.6,4.7-9.4,10.3-11.1c0.2-0.1,0.5-0.9,0.3-1.1c-0.2-0.4-0.7-0.8-1.2-0.9
				c-0.7-0.1-1.7-0.2-2.2,0.1c-4,3.3-7,1.4-9.8-1.8c-0.7-0.8-1.6-1.3-2.5-1.9c-5.6-3.4-7.9-8.5-6.2-14.6c1.6-5.6-1.4-9.4-3.7-13.7
				c-0.2-0.4-0.9-0.9-1.1-0.8c-0.6,0.4-1.5,0.9-1.6,1.5c-0.2,1.5-0.1,3.1-0.1,4.6c0.1,2.7,3.1,6,0,7.7c-1.4,0.8-4.8-2.1-7.3-3.2
				c-0.2-0.1-0.4-0.3-0.7-0.4c-1.1-0.2-2.3-0.4-3.5-0.6c0,1-0.1,1.9-0.1,2.9c0.3,3.9,0.3,3.8-4,3.5c-0.6,0-1.8,0.9-1.8,1.3
				c-0.1,3.6,2.9,5.5,6.1,4.1c4.8-2.1,8.3-0.1,7.2,4.7c-0.7,2.8,0.3,4.1,1.6,6.1C518.7,171.3,524.5,169.2,529.2,170.9z M543.9,231
				c0.4-3.8-0.9-6.4-4.1-6.1c-6.4,0.6-9.5-2.4-11.5-7.8c-0.3-0.7-0.8-1.4-1.3-1.9c-1.7-1.7-5.3-0.7-7.2,2c-1.2,1.7-0.2,2.9,1.2,3.8
				c1.7,1.1,4.4,1.9,4.9,3.4c0.5,1.5-1.1,3.8-1.7,5.7c-0.2,0.5-0.5,1.1-0.3,1.5c2.4,5.4-1.3,5.4-4.8,5.5c-0.5,0-1.1,0-1.5,0.2
				c-0.3,0.2-0.7,0.8-0.6,1.1c0.1,0.4,0.6,1.2,0.9,1.1c2-0.2,4-0.4,5.9-0.8c4.5-0.7,8.3-4.1,13.4-2.8
				C541.3,237,543.4,235.1,543.9,231z M596.9,477.8c-0.3,6.5,4.8,8.1,9.3,10.3c4.2,2.1,4.1-2.4,6-3.9c0.6-0.5,1.2-1,1.8-1.5
				c2.9-2.4,2.8-2.1-0.3-4c-2.2-1.3-4.4-3-5.7-5.1c-2.2-3.6-5.4-2.6-8.2-2.1C596.5,472.1,597.1,475.3,596.9,477.8z M768.2,676.2
				c-1.8,1.1-3.8,2.5-5.9,3.8c-0.6,0.4-1.4,0.5-2.1,0.8c0.5,0.5,1,1,1.7,1.4c2.2,1.3,4.4,2.5,6.6,3.9c1.8,1.1,3.5,1.3,4.6-0.6
				c1.4-2.3,2.5-4.7,3.7-7.1c-2.4-0.6-4.9-1.2-7.3-1.8C769.2,676.4,769,676.4,768.2,676.2z M560.3,265.2c-1.2-0.5-1.9-1-2.4-0.9
				c-0.5,0.1-1.1,0.9-1.1,1.5c-0.1,0.6,0.4,1.3,0.7,1.9C558.1,267.1,558.7,266.6,560.3,265.2z M571.9,274.9c-0.8,2.2-1.3,2.9-1.1,3
				c0.7,0.9,1.6,1.7,2.5,2.5c0.3-0.5,0.8-1.1,0.7-1.4C573.5,277.9,572.9,276.8,571.9,274.9z M529.3,213.1c0.9-0.7,1.7-1.3,2.4-1.8
				c-0.7-0.2-1.4-0.4-2-0.4c-0.7,0-1.3,0.3-2,0.5C528.2,211.9,528.7,212.4,529.3,213.1z M644.2,261.2c-0.4-0.2-0.9-0.5-1.3-0.5
				c-0.4,0-0.9,0.2-1.3,0.4c0.4,0.2,0.9,0.5,1.3,0.5C643.3,261.7,643.8,261.4,644.2,261.2z M770.7,672.9c-0.3-0.4-0.5-0.8-0.8-1.1
				c-0.2-0.1-0.7,0.1-1.1,0.2c0.2,0.4,0.3,1,0.7,1.1C769.8,673.2,770.3,673,770.7,672.9z M579,362.8c-0.1,0.2-0.3,0.4-0.3,0.6
				c0,0.2,0.1,0.5,0.2,0.7c0.1-0.2,0.3-0.4,0.3-0.6C579.2,363.2,579.1,363,579,362.8z"/>
			<path d="M521.6,332.7c-1.3,2.4-0.2,3.5,2.2,4.5c0.8,0.3,1,2.2,1.5,3.3c2,5,4.2,9.8,9.3,12.8c5.7,3.3,6,7.9,1.5,12.6
				c-0.5,0.5-1.2,0.9-1.8,1.4c0.7,0.2,1.3,0.5,2,0.5c1.6,0.1,3.2-0.2,4.7,0.2c1.7,0.5,3.9,1.1,4.5,2.4c3.4,6.6,6.6,13.1,5.1,21.1
				c-1.2,6.3-4.9,10.7-8.7,15.3c-1.4,1.8-2.9,1.1-4.8,0.8c-5.4-1-6.1-0.4-6.8,5.3c-0.6,4.8-6,11.4-10.4,12.2c-1.2,0.2-3-0.7-3.9-1.7
				c-3.5-3.7-6.6-4.8-11.5-1.6c-3,2-7.4,2-11.2,2.5c-3.1,0.4-5.9-3.4-4.8-7.1c1-3.5,1-5.2-3.2-5.7c-4-0.5-4.4-4.7-6.2-7.4
				c-0.5-0.8-0.4-2-0.6-3c-1.1-4.2-4.1-7.8-5.9-7c-1.7,0.7-5,7.2-4.3,9.2c1.1,3,1,5.1-2.3,6.2c-2.4,0.8-2.6,2.8-3.4,4.8
				c-1.6,3.9-3.2,4.5-7.3,3.8c-2.5-0.4-5-0.6-7.5-1c-1.2-0.2-2.8-0.1-3.6-0.8c-3.1-2.8-5.5-6.8-10.8-5.5c-0.7,0.2-2.4-1.5-2.7-2.5
				c-1.4-5.7-6.1-8.7-9.7-12.7c-1.2-1.4-2.4-2.7-3.4-4.2c-2.7-4.1-2.5-4.3,1.6-7.3c3.5-2.5,6-6.4,11.3-5.4c1,0.2,2.3-1.8,3.5-2.7
				c-0.8-0.8-1.7-1.5-2.5-2.3c-0.6-0.5-1.2-1-1.6-1.7c-1.3-1.5-3.6-3.3-1.8-5.2c1.8-1.9,4-5.2,7-3.5c5.1,2.8,7.7-1.5,10.5-3.5
				c2.6-1.9,4.7-5.2,5-9.3c0.2-3,1.7-5.9,2.9-8.8c2.1-5.1,4.7-6.3,10.3-5.4c0.8,0.1,1.5,0.2,2.3,0.4c3.3,0.8,5.6-0.4,6.6-3.6
				c0.6-1.7,0.8-3.6,1.6-5.1c0.5-0.9,2.2-2.2,2.7-2c6.4,3.1,11.7-0.8,16.9-3.1c3.9-1.7,7.6-1.6,11.4-1.5c3.5,0,7.1,0.9,10.7,1.4
				C519.9,323.2,522.1,326.8,521.6,332.7z M518.3,334.1c0.7-7.1,0.1-7.8-6.9-8.1c-1.3,0-2.5-0.6-3.8-0.9c-4.9-1.1-9.6-1.2-14.4,1.1
				c-3.6,1.8-7.6,3.6-11.5,3.7c-3.4,0-4.9,0.5-6.4,3.5c-3.4,7.1-3.6,7.1-11.1,6.4c-6.9-0.6-7.2-0.7-9.1,6.1
				c-1.7,5.9-4.1,11.4-6.6,17c-0.3,0.7-1,1.8-1.2,1.8c-4.8-1.1-8.2,4.8-13.2,2.6c-0.6-0.3-1.8,0.7-2.7,1.2c0.5,0.7,0.9,1.6,1.6,1.9
				c1.9,0.9,3.8,1.5,5.8,2.2c2,0.7,2.5,2.4,0.9,3.4c-3.9,2.3-6.4,6.6-11.9,6.6c-2.7,0-5.4,3.3-8.1,5.1c1.4,2.1,2.6,4.2,4.2,6.1
				c1.6,1.9,3.4,4,5.5,5.3c1.8,1.1,2.5,2.4,2.6,4.3c0.1,3.5,1.4,5.4,5.4,4.1c1.1-0.4,3.3,0.2,4.1,1.2c2.8,3.4,5.7,5,10.6,4.5
				c5.4-0.5,5.5,0.3,8.2-4c0.4-0.6,1-1.3,1.6-1.6c2.3-1.1,3-3,2.2-5.2c-1.3-3.7-0.7-6.3,3.4-7.5c0.4-0.1,0.6-0.8,1-1.2
				c3.8-4.2,5-4.3,9.2-0.7c2.1,1.9,4,4,4.2,7.2c0.3,4.4,1.5,8,7.1,8.5c2.9,0.3,4.1,2.7,3.7,5.8c-0.8,6.2-0.8,6.2,5.1,5
				c1.5-0.3,3.6,0.1,4.5-0.8c5.1-4.9,9.7-2.6,14.6,0.4c3.8,2.4,8,0.7,9.9-3.7c0.7-1.6,1-3.5,1.3-5.3c1-5.4,1.7-6.7,6.8-6.3
				c5.5,0.4,7.8-2.4,10-6.6c3.6-6.9,4.2-13.6-0.2-20.3c-1.2-1.8,0.1-5.2-3.2-5.6c-2.6-0.3-5.2-0.4-7.7,0.1c-1.6,0.3-2.8,2.1-4.4,3
				c-1,0.5-2.2,0.6-3.3,0.9c-0.2-1.2-0.9-2.5-0.7-3.7c0.8-4.1,4.2-5.6,7.4-7.4c4-2.3,3.9-2.3,0-5.2c-1.2-0.9-2-2.2-2.9-3.5
				c-2.2-3.4-5.3-6.7-6.3-10.5C522.2,341.1,516.1,339.4,518.3,334.1z"/>
			<path d="M490.5,88.3c2.5,0.7,4,1.2,5.5,1.5c1.8,0.4,2.5-0.5,1.9-2.1c-1.1-2.8,0.2-4.5,2.4-5.8c6.6-4.1,13.1-8.3,19.8-12.3
				c3.4-2,4.4-1.4,5.2,2.5c0.5,2.3,1.2,4.6,1.3,6.8c0.1,1.7,0,4.2-1,5.1c-6,5-6.7,12.2-7.7,18.9c-1,6.5-3.2,11.2-10.2,12.8
				c-2.1,0.5-3.8,2.5-5.6,4c-2.6,2.1-4.9,4.5-7.6,6.3c-4.4,2.8-9.1,1-11-4.1c-0.3-0.8,0.4-2.4,1.1-3.2c2-2.2,7.2-1.1,6.9-4.9
				c-0.1-1.8-4.2-3.3-6.4-5c-1.9-1.4-3-2.8-0.3-4.9c0.6-0.5-0.1-2.7,0-4c0.2-2.8,0-5.8,1.1-8.1C486.5,90.1,489.2,89.2,490.5,88.3z
				 M523.6,79.6c-0.4-1.9-0.6-3.4-1-4.9c-0.5-1.9-1.4-2.3-3.3-1.1c-5.4,3.5-10.9,6.9-16.5,10.2c-1.5,0.9-2.1,1.7-1.9,3.7
				c0.7,6.7,0.5,6.7-6.2,5.2c-0.8-0.2-1.5-0.4-2.3-0.5c-2.2-0.3-4.2-0.1-4.8,2.6c-0.7,2.9,0.4,5.7,3.2,6c4.2,0.4,6.9,3.3,10.1,5.4
				c2.2,1.4,4.1,3.1,6.1,4.7c2.2,1.8,4.1,1.1,5-1.1c1.4-3.6,2.6-7.3,3.3-11c1.1-5.6,1.7-11.2,6.4-15.3
				C522.8,82.5,523.1,80.7,523.6,79.6z M490.4,104.8c-0.8,0.7-1.5,1.2-1.9,1.8c-0.1,0.2,0.2,0.9,0.5,1.2c0.8,0.7,1.7,1.1,2.5,1.7
				c2,1.5,5.5,2.8,5.8,4.7c0.6,3.7-4.4,2.3-6,4.6c-1,1.4-4.7,1.2-2.7,4.3c1.7,2.6,3.6,0.5,5.3-0.5c0.4-0.3,1-0.5,1.3-0.8
				c2.5-2.7,5-5.5,7.4-8.2c-2.3-2-4.6-4-7-6c-0.6-0.5-1.2-1-1.9-1.3C492.8,105.7,491.6,105.3,490.4,104.8z"/>
			<path d="M660.8,48.3c-2.5,0.9-4.4,3.8-7.7,2.5c-4-1.5-5.8-5-7.7-8.3c-0.5-1-0.7-3-0.1-3.6c3.5-3.6,2.6-8.1,2.8-12.4
				c0.3-6,2-7.5,8.1-7c2.1,0.2,2.9,0,2-2.3c-1.1-2.6,0.4-3.3,2.6-3.1c1.2,0.1,2.8,0.4,3.5,1.2c1.1,1.2,1.6,3,2.4,4.5
				c-1.5,0.7-3,1.3-4.4,2c-0.1-0.2-0.1-0.4-0.2-0.5c-0.1-0.1-0.3-0.1-0.4-0.1c0.2,0.2,0.5,0.4,0.7,0.6c1,1.6,2.1,3.2,3.1,4.8
				c-0.2,0.2-0.3,0.4-0.5,0.6c0.1-0.2,0.2-0.4,0.4-0.7c1.7-1.1,3.3-2.4,5.4-0.3c2.2,2.3,2.2,3.3-0.8,5c-0.6,0.4-1.4,0.6-2,0.9
				c0.7,0.7,1.4,1.5,2.2,1.9c0.9,0.4,2.1,0.1,3,0.5c1.2,0.6,3.1,1.7,3.1,2.5c-0.1,1.5-0.9,3.5-2.1,4.4c-1.5,1.2-3.7,1.6-5.7,2.3
				l0.1,0.1c-2.3-4-5.2-6.7-10.3-4.6c-0.6,0.3-1.5,0-2.2-0.1c-1-0.5-2.1-1-3.1-1.6c-0.7-0.2-1.4-0.4-2.1-0.6
				c0.7,0.2,1.5,0.4,2.2,0.5c1,0.5,2.1,1,3.1,1.5C655.1,43.4,659.7,45,660.8,48.3L660.8,48.3z M667.1,35.8c0.5,0.5,1,1,1.6,1.6
				c0.7,0.5,1.4,1.2,2.2,1.5c0.3,0.1,0.8-0.3,1.3-0.5c-0.5-0.3-0.9-0.7-1.4-0.8c-0.7-0.2-1.4-0.1-2.2-0.2
				C668,37,667.5,36.4,667.1,35.8c-0.6-0.4-1.1-1-1.6-1.5c-1.1-0.4-2.2-1-3.4-1.3c-2.6-0.6-4-2.5-2.3-4.3c3-3.4,0.6-4.1-1.8-5.2
				c-1.8-0.8-3.8-2.2-5.5,0c-2.2,2.7-0.7,8.7,2.2,10.7c3.8,2.7,7.3,0.8,11,0.1C666,34.8,666.6,35.3,667.1,35.8z M655.2,46
				c-1.4-1.6-3-3.7-4.8-5.7c-0.2-0.3-1.2-0.3-1.3-0.2c-0.2,0.7-0.7,1.6-0.4,2c1.5,1.9,3.3,3.7,5,5.5c0.2,0.2,0.9-0.1,1.3-0.2
				C655.1,47.4,655.1,47,655.2,46z"/>
			<path d="M476.7,129.5c3.7-0.6,6.2,0.3,8.4,2.5c3.2,3.2,3.5,3.7,1.3,8c-1.7,3.2-3.7,6.2-5.5,9.4c-1.5,2.7-3.6,5.2-0.3,8.2
				c0.8,0.7,0.7,3.2,0.1,4.2c-2.2,3.5-2.4,7.3-2.3,11.2c0.1,2.1,0.2,4.5-2.7,4.7c-2.6,0.2-5.7,0.3-6.6-2.7c-1-3.7-1.8-7.6-1.6-11.4
				c0.4-6.3,1.6-12.5,2.6-18.8c0.5-3-1.7-4-3.7-5.3c-2.3-1.5-2.3-3.1-0.5-5.1C469.1,131.4,472.1,128.1,476.7,129.5z M473.3,145.8
				c-0.2,0.7-0.8,1.6-0.5,2.2c0.4,0.8,1.2,1.7,2,1.9c0.7,0.2,2.2,0.1,2.5-0.5c2.3-3.7,4.6-7.4,6.5-11.3c0.5-0.9-0.2-3.1-1.1-3.8
				c-3-2.6-9.2-2.3-12,0.4c-1.2,1.1-2.1,2.6-0.2,3.8C473.2,140.3,474.1,142.7,473.3,145.8z M473,155.5c-0.2,0.3-0.6,0.7-0.7,1.1
				c-0.6,3-1.5,5.9-1.7,8.9c-0.2,2.2,0.2,4.6,0.7,6.8c0.2,0.8,1.3,1.3,2,2c0.6-0.7,1.6-1.3,1.6-2.1c0.2-3.8,0-7.6,2.7-10.9
				C478.8,159.9,474.9,155.1,473,155.5z"/>
			<path d="M584.4,412.9c0-0.6,0.1-1.7-0.2-2.7c-1.8-5-0.2-8.2,4.3-10.9c2.1-1.2,3.2-4,5-5.8c2-1.9,4.2-3.8,6.6-5
				c0.9-0.5,3,0.6,4,1.5c0.5,0.4,0.2,2.5-0.4,3.3c-1,1.5-1.1,2.3-0.3,4.1c2.3,5,0.4,9.8-4.7,13c-2.8,1.8-5.5,3.8-8.2,5.8
				c-1.6,1.1-2.5,3.5-5.2,2.4C582.3,417.2,583.6,415.2,584.4,412.9z M599,392.1c-0.7,0.4-0.9,0.5-1.1,0.7c-3.5,3.7-7,7.5-10.4,11.2
				c-2.7,3-0.3,6.4,0.7,8.7c0.8,1.8,2.6-1.6,4.1-2.4c1.8-1,3.6-2,5.2-3.2c3.7-2.9,3.9-4.6,2.1-9.1c-0.5-1.2-0.2-2.8-0.4-4.2
				C599.3,393.3,599.1,392.8,599,392.1z"/>
			<path d="M683.3,25c-1.5,0.7-2.4,1.6-3.1,1.4c-2.7-0.6-5.3-1.2-7.8-2.3c-3.3-1.4-3.2-4.6-2.8-7.3c0.3-2.3-0.9-2.4-2.4-3
				c-1.9-0.8-3.6-2-5.4-3.1c-1.5-1-3.4-2.1-1.8-4.3c1.3-1.8,3-4.3,5.6-2.1c2.9,2.4,7.9,3,7.3,8.8c-0.1,1.3,3.4,2.9,4.9,4.6
				C679.8,19.9,681.3,22.2,683.3,25z M667.1,9.3c0,0.2,0.1,0.4,0.2,0.6c0.1,0.1,0.3,0.1,0.5,0.2C667.5,9.9,667.2,9.6,667.1,9.3
				c-0.6-0.3-1.1-0.7-1.6-1.1c-0.1,0.2-0.2,0.5-0.4,0.8C665.8,9.1,666.4,9.2,667.1,9.3z"/>
			<path d="M573.6,299.2c0.1,5.8-1.3,8-5.2,8.9c-3.7,0.9-8.6-2.1-10.1-6.6c-1-2.9-1.5-6-1.8-9c-0.3-2.4,5.7-8.5,8.1-8.6
				c2.9-0.1,4.9,2.5,6,6.9C571.3,293.9,572.7,296.9,573.6,299.2z M560.1,292.4c0.8,3.6,1.1,6.7,2.3,9.5c1.3,3.3,4,4.3,6,3
				c2.4-1.5,2.5-4.3,1.4-6.1c-1.7-2.7-2.6-5.5-2.9-8.6c-0.1-1-1.3-2.1-2.3-2.5c-0.5-0.2-1.9,0.7-2.5,1.4
				C561.1,290.1,560.5,291.5,560.1,292.4z"/>
			<path d="M682.9,7.8c0.2-0.1,1.3-0.7,2.5-1.2c1.8-0.8,3.7-0.9,4.6,1.2c0.9,2.1,0.5,4.3-1.6,5.3c-2.3,1-4.8,1.7-7.3,1.9
				c-2.5,0.2-4.5-2.8-4-5.4C677.4,7.9,678.6,7.4,682.9,7.8z M680.6,11.7c0.2,0.1,0.5,0.1,0.7,0.2c-0.2-0.2-0.3-0.4-0.5-0.7
				C680.8,11.4,680.7,11.6,680.6,11.7z"/>
			<path d="M498.6,220c-1.6-2.1-1.9-4.2,0.5-6c3.3-2.4,6.6-4.8,10.1-6.9c1.9-1.1,2.8,0,2.6,2.1c-0.3,3.6-1.9,6.2-5.4,7.6
				c-2.6,1-5.2,2.1-7.8,3.2L498.6,220z M506.8,212.7c-0.2-0.1-0.4-0.1-0.6-0.1c0.1,0.2,0.3,0.4,0.4,0.6
				C506.7,213,506.8,212.9,506.8,212.7z"/>
			<path d="M518.9,191.8c-1.6-0.7-3.6-1-4.7-2.2c-1.4-1.6-3.2-4.3-2.6-5.6c0.7-1.6,3.5-2.7,5.6-3.2c2.7-0.7,4.2,1.2,4.9,3.6
				c0.2,0.7,0.2,1.5,0.2,2.3c-0.2,0.3-0.4,0.6-0.7,0.9c-0.4,0.8-0.7,1.6-1.1,2.5l-0.4,0.4C519.7,191,519.3,191.4,518.9,191.8
				L518.9,191.8z M516.8,188.1c0.8-1,1.7-1.8,1.5-2.2c-0.3-0.7-1.1-1.3-1.8-1.7c-0.2-0.1-1.4,1-1.3,1.2
				C515.5,186.4,516.1,187.1,516.8,188.1z"/>
			<path d="M498.6,219.9c-0.1,4.4-3.7,5.8-6.7,7.5c-2.1,1.2-4,0.4-5-1.8c-0.9-1.9,0.6-5.2,2.7-5.4c3-0.4,6.1-0.1,9.1-0.1
				L498.6,219.9z M491.4,224c0-0.2,0-0.4-0.1-0.5c-0.2-0.1-0.4-0.1-0.7-0.1c0.1,0.3,0.1,0.5,0.2,0.8
				C491,224.1,491.2,224.1,491.4,224z"/>
			<path d="M472.1,184.3c-0.3,3-4.1,6.9-6.3,7c-0.5,0-1-0.2-1.4-0.4c-1.7-0.9-1.8-2.2-1.1-3.9c1.8-4.6,4-6.9,5.9-5.9
				C470.5,181.9,471.4,183.5,472.1,184.3z"/>
			<path d="M668.5,43.6c0,2.1,0,4.1,0.1,6.2c0.1,3.1-2.1,4.1-4.5,4.2c-2.7,0.2-3.4-1.8-3.3-4.2c0-0.5,0-1,0-1.5l-0.1,0.1
				c1.8-3,3.9-5.4,7.9-4.7L668.5,43.6z M664.8,49.2c-0.1,0.2-0.3,0.4-0.3,0.6c0,0.2,0.1,0.5,0.2,0.7c0.1-0.2,0.3-0.4,0.3-0.6
				C665,49.7,664.9,49.4,664.8,49.2z"/>
			<path d="M522.3,186.7c2.8-0.8,4.6,0.1,4.4,3.1c-0.2,2.6-2.7,4.8-5,4.2c-1-0.2-1.9-1.4-2.8-2.2l-0.1,0.1c0.5-0.5,0.9-0.9,1.4-1.4
				l0.4-0.4c0.4-0.8,0.7-1.6,1.1-2.5C521.9,187.3,522.1,187,522.3,186.7z"/>
		</g>
	</g>
	<line class="st1" x1="785" y1="627.1" x2="3.6" y2="627.1"/>
	<circle cx="785" cy="627.1" r="13.3"/>
	<circle cx="713.2" cy="651.4" r="13.3"/>
	<polyline class="st1" points="713.2,651.4 713.2,800.2 113.2,800.2 	"/>
	<circle cx="715.2" cy="522.9" r="13.3"/>
	<line class="st1" x1="715.2" y1="522.9" x2="64" y2="522.9"/>
	<g>
		<g>
			<path d="M115.8,783.7c0-1.5,0-2.8,0-4.5c0.7,0,1.3,0,1.9,0c6.2,0,12.3,0,18.4,0c2.5,0,3.6-1.1,3.4-3.5c-0.1-1.7-1.1-2.6-3.2-2.6
				c-4.4,0-8.8,0-13.2,0c-5.9,0-9.1-4.2-7.7-9.9c0.8-3,3.2-5,7-5.1c6.9-0.1,13.8,0,20.8,0c0.1,0,0.2,0.1,0.4,0.2c0,1.4,0,2.8,0,4.4
				c-0.7,0-1.3,0-1.9,0c-5.8,0-11.6,0-17.4,0c-1.6,0-3,0.4-3.3,2.2c-0.4,2.1,0.8,3.5,3.2,3.5c4.4,0,8.8,0,13.2,0
				c4.1,0,6.9,2,7.7,5.3c1.4,5.6-1.6,9.9-7.3,10c-7.1,0.1-14.2,0-21.3,0C116.2,783.9,116.1,783.8,115.8,783.7z"/>
			<path d="M403.7,783.9c-2,0-3.6,0.1-5.3-0.1c-0.5,0-1.3-0.7-1.5-1.2c-0.9-3.8-3.2-4.7-6.8-4.2c-2.8,0.3-5.6,0.1-8.4,0
				c-0.9,0-1.7,0.1-1.9,1.2c-0.8,3.9-3.3,4.9-6.9,4.2c-0.3-0.1-0.7,0-1.2-0.1c3.9-8.7,7.7-17.2,11.5-25.7c2.7,0,5.3,0,7.9,0
				c0.4,0,1,0.3,1.2,0.7C396.2,767.1,399.9,775.3,403.7,783.9z M393,773.8c-1.7-3.8-3.3-7.4-5.2-11.5c-1.8,4.1-3.5,7.8-5.2,11.5
				C386.1,773.8,389.4,773.8,393,773.8z"/>
			<path d="M264.8,765.3c0,7.4,0.1,14.5,0,21.6c0,2.9-2,4.8-4.9,4.9c-4.3,0.2-8.6,0-13,0c0-1.3,0-2.5,0-4.1c1.7,0,3.5,0,5.2,0
				c1.4,0,2.9,0,4.3,0c3,0,3.4-0.5,3.2-3.8c-1.9,0-3.8,0-5.8,0c-1.8,0-3.6,0-5.3-0.4c-4.4-0.8-6.9-4.1-6.9-8.9c0-5,2.4-8.3,7-9
				c2.6-0.4,5.3-0.3,8-0.4C259.3,765.2,262,765.3,264.8,765.3z M259.6,769.3c-0.8,0-1.5,0-2.1,0c-2.1,0-4.3-0.1-6.4,0.1
				c-2.7,0.2-4.1,2-4.1,5.1c0,3,1.2,4.9,3.9,5.1c2.9,0.2,5.8,0,8.8,0C259.6,776.2,259.6,772.9,259.6,769.3z"/>
			<path d="M492.2,769.5c0,4.8,0,9.5,0,14.3c-1.7,0-3.3,0-5,0c0-6.1,0-12.2,0-18.4c0.2,0,0.4-0.1,0.7-0.1c7.8,0,15.6,0,23.5,0
				c3.6,0,5.6,2,5.7,5.5c0.1,4.3,0,8.6,0,13c-1.7,0-3.3,0-5.1,0c0-1.9,0-3.7,0-5.6c0-2.1,0-4.2,0-6.3c0-1.7-0.8-2.6-2.5-2.5
				c-1.5,0-3,0-4.7,0c0,4.9,0,9.6,0,14.4c-1.8,0-3.4,0-5.2,0c0-4.8,0-9.5,0-14.3C496.9,769.5,494.6,769.5,492.2,769.5z"/>
			<path d="M573.4,765.3c1.9,0,3.5,0,5.4,0c0,0.6,0,1.2,0,1.8c0,6.2,0,12.3,0,18.4c0,4.3-1.9,6.2-6.2,6.2c-3.8,0-7.6,0-11.5,0
				c-0.1,0-0.2-0.1-0.4-0.2c0-1.2,0-2.4,0-3.9c3.2,0,6.3,0,9.5,0c3.2,0,3.5-0.4,3.2-3.8c-3,0-6,0-9,0c-6.7,0-7.9-1.3-7.9-8
				c0-3.5,0-6.9,0-10.5c1.7,0,3.3,0,5.2,0c0,3.8,0,7.6,0,11.4c0,2.5,0.5,3,3,3c2.8,0,5.7,0,8.7,0
				C573.4,774.8,573.4,770.2,573.4,765.3z"/>
			<path d="M299.5,772.6c0.3-2.5-0.2-3.2-2.5-3.3c-4.2,0-8.4,0-12.5,0c-0.6,0-1.3,0-2.1,0c0-1.4,0-2.6,0-4c0.5,0,1-0.1,1.5-0.1
				c5,0,9.9,0,14.9,0c4.2,0,6,1.8,6,6c0,4.1,0,8.2,0,12.4c-0.4,0.1-0.7,0.2-1,0.2c-6.1,0-12.2,0-18.2,0c-3.5,0-5.4-1.9-5.6-5.2
				c-0.2-3.8,1.8-6,5.6-6c4-0.1,8,0,12,0C298.3,772.6,298.9,772.6,299.5,772.6z M299.7,776.7c-4.2,0-8.2,0-12.3,0
				c-1.1,0-1.9,0.2-1.9,1.5c0,1.3,0.8,1.5,1.9,1.5c3.7,0,7.5,0,11.2,0c0.3,0,0.6-0.2,1-0.2C299.7,778.6,299.7,777.8,299.7,776.7z"/>
			<path d="M175.2,765.4c1.8,0,3.4,0,5.2,0c0.4,4.6,0.8,9.2,1.3,14c1.7-0.8,3.3-1.3,4.7-2.1c0.5-0.3,0.8-1.1,0.8-1.7
				c0.1-3.3,0-6.7,0-10.1c1.7,0,3.3,0,5.2,0c0,2.4,0,4.9,0,7.3c0,4.3,0,4.3,4.1,6c0.4,0.2,0.9,0.3,1.5,0.5c0.4-4.7,0.8-9.3,1.2-13.9
				c1.7,0,3.3,0,5.2,0c-0.6,6.2-1.1,12.2-1.7,18.4c-3.1,0.5-5.9,0.2-8.4-1.4c-3.1-2.1-6-1.9-9.1,0c-2.5,1.6-5.2,1.8-8.2,1.3
				C176.4,777.7,175.8,771.6,175.2,765.4z"/>
			<path d="M153.2,776.4c0.7,2.5,1.9,3.4,4.4,3.4c4.1,0,8.2,0,12.4,0c0.6,0,1.3,0,2,0c0,1.4,0,2.7,0,4.1c-2.5,0-4.9,0-7.3,0
				c-3.3-0.1-6.7,0.1-10-0.3c-4.8-0.6-7.2-4-7.2-9.1c0-5,2.6-8.3,7.3-8.8c4.3-0.4,8.7-0.4,13-0.3c3.3,0.1,5.1,2.1,5.2,5
				c0.2,3.7-1.9,5.9-5.9,6c-4.1,0.1-8.1,0-12.2,0C154.4,776.4,153.8,776.4,153.2,776.4z M153.2,772.2c4.6,0,9,0,13.4-0.1
				c0.4,0,1.2-1.1,1.1-1.5c-0.2-0.5-1-1.2-1.5-1.3c-3-0.1-6.1-0.1-9.1,0C155.4,769.5,153.9,770,153.2,772.2z"/>
			<path d="M464,776.4c0.7,2.5,1.9,3.4,4.6,3.4c4.6,0,9.3,0,14.1,0c0,1.4,0,2.6,0,4.1c-3.6,0-7.1,0-10.7,0c-2.2,0-4.4,0-6.6-0.3
				c-4.8-0.7-7.2-4-7.2-9.1c0-5,2.5-8.3,7.3-8.8c4.3-0.4,8.7-0.4,13-0.2c3.3,0.1,5,2.1,5.2,5c0.2,3.7-1.9,5.9-5.9,6
				c-4.1,0.1-8.1,0-12.2,0C465.2,776.4,464.6,776.4,464,776.4z M464.1,772.3c1.3,0,2.4,0,3.5,0c3.2,0,6.3,0.1,9.5-0.1
				c0.6,0,1.1-0.9,1.7-1.4c-0.4-0.5-0.9-1.3-1.3-1.3c-3.5-0.1-6.9,0-10.4,0.1C465.6,769.6,464.5,770.4,464.1,772.3z"/>
			<path d="M351.7,758.2c1.9,0,3.5,0,5.2,0c0,8.5,0,17,0,25.7c-1.1,0-2.2,0-3.4,0c-3.5,0-6.9,0-10.4,0c-6-0.1-9.6-3.6-9.6-9.2
				c0-5.8,3.5-9.3,9.6-9.4c2.8,0,5.6,0,8.6,0C351.7,762.9,351.7,760.6,351.7,758.2z M351.7,769.5c-3.1,0-6.1-0.2-9.1,0.1
				c-2.4,0.2-3.6,2-3.6,4.9c0,2.9,1,4.9,3.4,5.1c3.1,0.3,6.2,0.1,9.4,0.1C351.7,776.2,351.7,772.9,351.7,769.5z"/>
			<path d="M520.8,783.6c0-8.4,0-16.8,0-25.4c1.6,0,3.3,0,5,0c0,2.3,0,4.5,0,7c2.8,0,5.6-0.1,8.3,0c1.7,0.1,3.5,0.4,5,1
				c3.5,1.3,5.1,4.3,5,8.7c-0.1,4-1.9,6.8-5.3,8.1c-0.6,0.2-1.2,0.5-1.9,0.5C531.5,783.6,526.2,783.6,520.8,783.6z M525.9,769.4
				c0,3.5,0,6.9,0,10.3c3,0,6,0.2,9,0c2.6-0.2,3.8-2.1,3.8-5.1c0-3-1.3-4.9-3.9-5C531.9,769.2,529,769.4,525.9,769.4z"/>
			<path d="M405.5,783.7c0-1.2,0-2.4,0-3.9c2.4,0,4.7,0,7,0c3,0,6.1,0,9.1,0c1.3,0,2.9,0.3,2.8-1.8s-1.6-1.7-2.9-1.7
				c-3.5,0-7,0.1-10.6,0c-4.5-0.1-6.9-3.3-5.6-7.5c0.8-2.4,2.6-3.5,4.9-3.5c5.8-0.2,11.7,0,17.6,0c0,1.3,0,2.6,0,4
				c-0.7,0-1.3,0.1-2,0.1c-4.3,0-8.6,0-12.9,0c-1.1,0-2.7-0.4-2.6,1.5c0.1,1.8,1.6,1.4,2.8,1.4c3.5,0,7,0,10.6,0
				c4.9,0,7.5,4.2,5.4,8.7c-0.9,1.9-2.5,2.9-4.6,2.9c-6.2,0.1-12.4,0-18.6,0C405.8,783.8,405.7,783.7,405.5,783.7z"/>
			<path d="M432,783.9c0-1.4,0-2.6,0-4c0.7,0,1.3-0.1,1.9-0.1c4.9,0,9.8,0,14.7,0c1.2,0,2.4,0,2.4-1.7c0-1.6-1-1.8-2.3-1.8
				c-3.7,0-7.4,0.1-11.1,0c-4-0.1-6.2-2.3-5.9-6c0.2-3,2.1-5,5.4-5.1c5.1-0.2,10.3,0,15.4,0c0.6,0,1.2,0,1.9,0c0,1.3,0,2.5,0,4
				c-0.6,0-1.2,0.1-1.9,0.1c-4.5,0-9,0-13.4,0c-1,0-2.2,0-2.2,1.4c0,1.4,1.1,1.5,2.2,1.5c3.8,0,7.5,0,11.3,0c3.9,0,5.8,1.9,5.8,5.6
				c0,3.9-2.1,6-6,6C444.2,783.9,438.2,783.9,432,783.9z"/>
			<path d="M238.7,783.8c-1.8,0-3.4,0-5.1,0c0-3.4,0-6.7,0-10c0-4.5,0-4.5-4.5-4.5c-2.3,0-4.5,0-6.8,0c-0.1,0-0.2,0.1-0.4,0.2
				c0,4.6,0,9.3,0,14.1c-1.8,0-3.4,0-5.1,0c0-6.1,0-12.2,0-18.5c0.6,0,1.1,0,1.7,0c4.7,0,9.4,0,14.1,0c4.2,0,6.1,1.9,6.1,6.1
				C238.7,775.5,238.7,779.6,238.7,783.8z"/>
			<path d="M313.8,769.3c0,5,0,9.7,0,14.4c-1.7,0-3.3,0-5,0c0-6.1,0-12.2,0-18.5c1.8,0,3.6,0,5.3,0c3.6,0,7.3,0,10.9,0
				c3.7,0,5.6,2,5.7,5.7c0,4.2,0,8.5,0,12.8c-1.7,0-3.3,0-5.1,0c0-3.8,0-7.5,0-11.3c0-2.7-0.5-3.1-3.1-3.1
				C319.6,769.3,316.8,769.3,313.8,769.3z"/>
			<path d="M547.3,758.2c1.7,0,3.2,0,4.9,0c0,8.5,0,17,0,25.6c-1.6,0-3.2,0-4.9,0C547.3,775.3,547.3,766.8,547.3,758.2z"/>
			<path d="M207.4,765.3c1.7,0,3.2,0,4.9,0c0,6.1,0,12.2,0,18.5c-1.6,0-3.2,0-4.9,0C207.4,777.7,207.4,771.6,207.4,765.3z"/>
			<path d="M207.2,758.4c1.7,0,3.4,0,5.1,0c0,1.3,0,2.5,0,3.9c-1.7,0-3.3,0-5.1,0C207.2,761,207.2,759.7,207.2,758.4z"/>
		</g>
	</g>
	<g>
		<g>
			<path d="M73.6,497.9c0,3.1,0,6.1,0,9.1c-1.9,0-3.7,0-5.6,0c0-8.4,0-16.8,0-25.5c0.5,0,1.1,0,1.6,0c6.5,0,13,0,19.5,0
				c7,0,10.8,6.8,7.3,12.9c-1.6,2.7-4.1,3.4-7,3.4C84.3,497.9,79.1,497.9,73.6,497.9z M73.7,493.2c5.2,0,10.3,0.1,15.4,0
				c1.8,0,2.7-1.3,2.7-3.5c0-2.2-0.8-3.5-2.6-3.5c-5.1-0.1-10.2,0-15.5,0C73.7,488.6,73.7,490.8,73.7,493.2z"/>
			<path d="M235,497.9c0,3.1,0,6.1,0,9.1c-1.9,0-3.7,0-5.6,0c0-8.5,0-16.9,0-25.5c0.8,0,1.6,0,2.3,0c6.3,0,12.7,0,19,0
				c3,0,5.8,0.7,7.2,3.6c1.5,3.2,1.6,6.6-0.4,9.7c-1.5,2.4-4,3-6.6,3C245.6,497.9,240.4,497.9,235,497.9z M235,493.3
				c5.1,0,9.9,0,14.8,0c2.4,0,3.3-1.1,3.3-3.6c0-2.5-1-3.5-3.4-3.5c-4.1,0-8.3,0-12.4,0c-0.7,0-1.5,0-2.2,0
				C235,488.6,235,490.9,235,493.3z"/>
			<path d="M127.7,496c0.2-2.6-0.3-3.2-2.5-3.2c-4.1,0-8.3,0-12.4,0c-0.6,0-1.3,0-2,0c0-1.4,0-2.6,0-4.1c1.6,0,3.2,0,4.8,0
				c4,0,7.9,0,11.9,0c3.7,0,5.5,1.8,5.5,5.5c0.1,4.3,0,8.5,0,12.9c-0.4,0.1-0.7,0.2-1.1,0.2c-6,0-12,0-17.9,0
				c-3.6,0-5.6-1.9-5.7-5.4c-0.1-3.6,1.8-5.7,5.5-5.8c3.7-0.1,7.5,0,11.2,0C125.8,496,126.7,496,127.7,496z M127.8,500
				c-4.3,0-8.4,0-12.6,0.1c-0.5,0-1.4,1-1.4,1.3c0.1,0.6,0.8,1.5,1.3,1.6c1.9,0.2,3.8,0.1,5.7,0.1c2.3,0,4.6,0,6.9,0
				C127.8,502,127.8,501.1,127.8,500z"/>
			<path d="M331.2,488.6c0-2.4,0-4.6,0-7c1.7,0,3.4,0,5.1,0c0,8.4,0,16.8,0,25.4c-0.5,0-1,0.1-1.5,0.1c-4.1,0-8.2,0.1-12.2,0
				c-5.8-0.1-9.3-3.6-9.4-9.1c0-5.7,3.4-9.2,9.3-9.4C325.4,488.6,328.2,488.6,331.2,488.6z M331.2,492.8c-3.1,0-6.1-0.2-9.1,0.1
				c-2.4,0.2-3.5,2-3.6,4.7c-0.1,2.9,1,5,3.2,5.2c3.1,0.3,6.3,0.1,9.5,0.1C331.2,499.5,331.2,496.2,331.2,492.8z"/>
			<path d="M158.4,488.6c0,1.4,0,2.6,0,4c-0.7,0-1.3,0.1-1.9,0.1c-4.4,0-8.9,0-13.3,0c-1.1,0-2.2,0-2.2,1.4c0,1.4,1.1,1.5,2.2,1.5
				c3.7,0,7.5,0,11.2,0c3.8,0,5.8,1.9,5.8,5.6c0,3.8-2,5.9-5.8,5.9c-5.6,0-11.2,0-16.9,0c-0.4,0-0.8,0-1.3,0c0-1.4,0-2.6,0-4.1
				c1.2,0,2.4,0,3.5,0c4.3,0,8.6,0,13,0c1.2,0,2.3-0.1,2.3-1.7c0-1.6-1.1-1.7-2.3-1.7c-3.7,0-7.3,0.1-11,0c-3.9-0.1-6.1-2.3-5.9-6
				c0.2-2.9,2-4.6,5.2-5c0.5-0.1,1.1,0,1.6,0C147.9,488.6,153.1,488.6,158.4,488.6z"/>
			<path d="M297.5,507.2c-2.1-0.1-4.1-0.1-6.2-0.5c-4.6-0.8-7.1-3.9-7.1-8.9c0-5,2.5-8.3,7.1-8.9c3.8-0.4,7.7-0.5,11.5-0.2
				c5.8,0.6,8.5,4.2,8.1,9.9c-0.4,5.1-3.8,8.2-9.4,8.4c-1.4,0-2.7,0-4.1,0C297.5,507.2,297.5,507.2,297.5,507.2z M297.6,502.9
				c0,0.1,0,0.1,0,0.2c1.5-0.1,3.1,0,4.6-0.2c2.4-0.4,3.5-2,3.5-5c0-2.9-1.1-4.8-3.4-5c-3-0.3-6.1-0.3-9.2,0
				c-2.4,0.2-3.6,2.2-3.5,5.1c0.1,2.9,1.2,4.5,3.6,4.9C294.6,503.1,296.1,502.9,297.6,502.9z"/>
			<path d="M432.2,507.3c-2.1-0.1-4.3-0.1-6.3-0.5c-4.6-0.8-7-4-6.9-9c0-4.9,2.5-8.2,7.1-8.7c3.8-0.4,7.7-0.5,11.5-0.2
				c5.8,0.6,8.6,4.2,8.2,9.9c-0.4,5.1-3.8,8.2-9.4,8.4c-1.4,0-2.7,0-4.1,0C432.2,507.2,432.2,507.2,432.2,507.3z M432.2,503
				c1.2,0,2.5,0.1,3.7,0c3-0.2,4.4-1.9,4.4-5.1c0-3.3-1.4-5.1-4.4-5.2c-2.4-0.1-4.8-0.1-7.3,0c-3,0.1-4.5,2-4.4,5.2
				c0,3.2,1.5,4.9,4.4,5.1C429.8,503.1,431,503,432.2,503z"/>
			<path d="M340.2,488.7c1.8,0,3.3,0,5.1,0c0,2.4,0,4.7,0,7.1c0,1.6,0,3.2,0,4.8c0,1.7,0.8,2.5,2.5,2.5c2.2,0,4.5,0,6.8,0
				c1.9,0,2.4-0.6,2.4-2.5c0-3.9,0-7.8,0-11.8c1.8,0,3.4,0,5.1,0c0,4.6,0.2,9.2-0.1,13.8c-0.1,2.8-2.2,4.5-5.2,4.5
				c-3.7,0.1-7.5,0.1-11.2,0c-3-0.1-5.2-1.8-5.3-4.6C340.1,497.9,340.2,493.4,340.2,488.7z"/>
			<path d="M448.9,488.6c5.7,0,11.2-0.1,16.6,0c3.1,0.1,5,2,5.1,4.9c0.1,4.4,0,8.9,0,13.4c-1.7,0-3.3,0-5.1,0c0-3.8,0-7.5,0-11.2
				c0-2.6-0.5-3.1-3.1-3.1c-2.8,0-5.5,0-8.5,0c0,4.8,0,9.5,0,14.3c-1.8,0-3.3,0-5,0C448.9,501,448.9,494.9,448.9,488.6z"/>
			<path d="M213.7,503.2c0,1.3,0,2.5,0,3.5c-5.2,0-10.4,0.4-15.4-0.1c-4.5-0.4-6.8-4-6.8-9c0-4.8,2.4-8.2,6.9-8.6
				c4.9-0.4,9.9-0.1,14.9-0.1c0,1.1,0,2.3,0,3.7c-1.9,0-3.8,0-5.7,0c-1.8,0-3.6,0-5.3,0c-4.6,0-6.8,3.4-5.1,7.7
				c0.8,2.1,2.6,2.6,4.6,2.7c3.8,0,7.6,0,11.4,0C213.2,503.1,213.3,503.1,213.7,503.2z"/>
			<path d="M387.5,503.1c0,1.4,0,2.6,0,4.1c-0.7,0-1.4,0-2,0c-4,0-8.1,0.2-12.1-0.2c-5.8-0.6-8.3-3.9-8.1-9.6
				c0.2-5.2,3.3-8.4,8.9-8.6c4.2-0.2,8.5,0,12.9,0c0,1.3,0,2.6,0,4.1c-3.8,0-7.6-0.1-11.4,0c-1.2,0-2.6,0.4-3.6,1.1
				c-1.5,1-2,4.2-1.2,6.4c0.6,1.8,2,2.7,4.3,2.8c3.4,0,6.8,0,10.1,0C386,503.1,386.6,503.1,387.5,503.1z"/>
			<path d="M171.7,492.6c0,3,0,5.6,0,8.3c0,1.5,0.9,2.1,2.3,2.1c2,0,4,0,6.1,0c0,1.3,0,2.6,0,4.2c-3.4-0.2-6.9-0.1-10.2-0.6
				c-2.1-0.3-3.1-2.1-3.2-4.2c-0.2-2.4-0.1-4.9-0.1-7.3c0-0.8,0-1.5,0-2.4c-1.8,0-3.3,0-5.1,0c0-1.4,0-2.7,0-4.1c1.6,0,3.3,0,5.1,0
				c0-1.9,0-3.6,0-5.4c1.8,0,3.3,0,5.1,0c0,1.7,0,3.5,0,5.4c2.6,0,5,0,7.5,0c0,1.4,0,2.6,0,4C176.7,492.6,174.3,492.6,171.7,492.6z"
				/>
			<path d="M394.4,492.7c-1.9,0-3.5,0-5.2,0c0-1.4,0-2.6,0-4c1.6,0,3.2,0,5,0c0-1.9,0-3.5,0-5.4c1.8,0,3.4,0,5.2,0
				c0,1.7,0,3.4,0,5.2c2.5,0,5,0,7.5,0c0,1.4,0,2.7,0,4.1c-2.5,0-4.9,0-7.4,0c0,3,0,5.7,0,8.5c0,1.4,1.1,1.8,2.3,1.8c2,0,4,0,6.1,0
				c0,1.4,0,2.6,0,4c-3.1,0-6.1,0.2-9.2-0.1c-2.7-0.2-4.2-1.9-4.4-4.7C394.3,499.1,394.4,496.1,394.4,492.7z"/>
			<path d="M266.7,507c-1.9,0-3.4,0-5.1,0c0-6.1,0-12.1,0-18.4c1.1,0,2.2,0,3.3,0c3.6,0,7.2,0,10.8,0c3.7,0,5.7,2,5.7,5.7
				c0,1.1,0,2.2,0,3.5c-0.9,0-1.7,0.1-2.5,0.1c-0.8,0-1.6,0-2.7,0c0-1.2,0.2-2.3-0.1-3.2c-0.2-0.8-1-1.9-1.6-1.9
				c-2.6-0.2-5.2-0.1-7.9-0.1C266.7,497.6,266.7,502.2,266.7,507z"/>
			<path d="M100.6,481.6c1.7,0,3.2,0,4.8,0c0,8.5,0,16.9,0,25.4c-1.6,0-3.1,0-4.8,0C100.6,498.6,100.6,490.2,100.6,481.6z"/>
			<path d="M183,507c0-6.2,0-12.2,0-18.3c1.7,0,3.2,0,4.9,0c0,6.1,0,12.1,0,18.3C186.3,507,184.8,507,183,507z"/>
			<path d="M415.8,488.7c0,6.2,0,12.2,0,18.3c-1.6,0-3.2,0-4.9,0c0-6.1,0-12.2,0-18.3C412.5,488.7,414.1,488.7,415.8,488.7z"/>
			<path d="M182.8,485.7c0-1.3,0-2.5,0-3.8c1.7,0,3.3,0,5.1,0c0,1.3,0,2.5,0,3.8C186.2,485.7,184.6,485.7,182.8,485.7z"/>
			<path d="M410.6,485.6c0-1.2,0-2.5,0-3.8c1.7,0,3.3,0,5,0c0,1.2,0,2.4,0,3.8C414.1,485.6,412.4,485.6,410.6,485.6z"/>
		</g>
	</g>
</g>
<g>
	<g>
		<path d="M7.8,613.2c0-8.5,0-16.8,0-25.3c0.5-0.1,1-0.2,1.4-0.2c5.9,0.1,11.8-0.3,17.7,0.3c9.4,1,14,10,9.9,18.5
			c-2.2,4.6-6.3,6.3-11,6.5C19.9,613.4,13.9,613.2,7.8,613.2z M13.6,608.8c4.5-0.2,8.8-0.1,12.9-0.7c4-0.5,5.7-3.3,5.7-7.7
			c0-4.3-1.7-7.1-5.6-7.5c-4.2-0.5-8.6-0.1-12.9-0.1C13.6,597.9,13.6,603.1,13.6,608.8z"/>
		<path d="M263.7,587.7c7.6,0,15-0.2,22.5,0.1c4.8,0.1,7.4,3.5,7.2,8.5c-0.2,4.8-3,7.6-7.8,7.7c-5.3,0.1-10.6,0-16.2,0
			c0,3.1,0,6.1,0,9.2c-2,0-3.7,0-5.6,0C263.7,604.8,263.7,596.4,263.7,587.7z M269.4,599.2c5.2,0,10.4,0.1,15.4,0
			c2,0,2.7-1.5,2.7-3.4c0-1.9-0.7-3.3-2.7-3.3c-5.1-0.1-10.2,0-15.4,0C269.4,594.7,269.4,596.8,269.4,599.2z"/>
		<path d="M127.7,594.5c0,7.5,0.1,14.8-0.1,22.2c-0.1,2.8-2.1,4.6-5.1,4.7c-4.2,0.1-8.4,0-12.7,0c0-1.3,0-2.5,0-4c3.2,0,6.2,0,9.3,0
			c3.1,0,3.6-0.7,3.2-4.1c-2.7,0-5.3,0-8,0c-7.2-0.1-11.2-5.3-9.4-12.3c1-3.8,3.9-6.2,8.5-6.4C118.1,594.4,122.7,594.5,127.7,594.5z
			 M122.4,609c0-3.4,0-6.8,0-10.2c-3,0-5.9-0.2-8.8,0.1c-2.5,0.2-3.7,2.1-3.7,5.1c0,2.9,1.2,4.8,3.6,5
			C116.4,609.2,119.3,609,122.4,609z"/>
		<path d="M531,594.6c0,7.4,0.1,14.6,0,21.8c0,3-2,4.9-5,5c-4.2,0.1-8.5,0-12.9,0c0-1.3,0-2.5,0-4c2.4,0,4.9,0,7.3,0
			c0.8,0,1.7,0,2.6,0c2.6-0.1,3-0.7,2.8-4.1c-2.6,0-5.3,0-8,0c-7.4,0-11.4-5.2-9.5-12.4c1-3.7,3.7-6,8.2-6.3
			C521.1,594.4,525.9,594.6,531,594.6z M525.7,598.8c-3.1,0-6-0.2-8.8,0.1c-2.5,0.2-3.7,2.1-3.7,5.1c0,2.9,1.2,4.8,3.6,5
			c2.9,0.2,5.9,0.1,9,0.1C525.7,605.7,525.7,602.3,525.7,598.8z"/>
		<path d="M425,621.4c0-1.5,0-2.6,0-4c3.2,0,6.2,0,9.2,0c3.2,0,3.7-0.6,3.5-4.1c-3.4,0-6.9,0.1-10.3,0c-1.3,0-2.9,0-3.9-0.7
			c-1.2-0.9-2.5-2.4-2.6-3.8c-0.3-4.6-0.1-9.3-0.1-14.1c1.7,0,3.3,0,5.1,0c0,3.8,0,7.5,0,11.1c0,3,0.5,3.5,3.5,3.5
			c2.7,0,5.4,0,8.2,0c0-5,0-9.7,0-14.6c1.9,0,3.5,0,5.4,0c0,1.4,0,2.8,0,4.2c0,5.5,0,10.9,0,16.4c0,4.2-2,6.1-6.2,6.1
			C433,621.4,429.1,621.4,425,621.4z"/>
		<path d="M193.9,613.3c-3.9,0-7.7,0-11.4,0c-2.6,0-5.1,0-7.7,0c-3.8-0.1-5.9-2.1-5.9-5.8c0-3.5,2-5.5,5.8-5.5c4.5,0,9.1,0,13.6,0
			c0.5-2.7-0.1-3.4-2.8-3.5c-4.6,0-9.2,0-14,0c0-1.3,0-2.5,0-3.9c0.5,0,1.1-0.1,1.7-0.1c4.8,0,9.6,0,14.5,0c4.2,0,5.9,1.5,6.1,5.6
			C194,604.5,193.9,608.8,193.9,613.3z M188.6,606c-4.3,0-8.4,0-12.6,0.1c-0.5,0-1.5,1-1.4,1.4c0.2,0.7,0.9,1.6,1.4,1.7
			c4.1,0.1,8.3,0.1,12.6,0.1C188.6,608,188.6,607.2,188.6,606z"/>
		<path d="M46.2,605.8c0.7,2.2,1.9,3.2,3.7,3.2c4,0.1,7.9,0.2,11.9,0.2c1.1,0,2.1,0,3.3,0c0,1.4,0,2.6,0,3.9
			c-5.5,0-11.1,0.4-16.6-0.1c-5.8-0.5-8.3-4.2-7.9-10.2c0.3-4.9,3.7-8,9.1-8.2c3.5-0.1,7.1-0.1,10.7,0c3.8,0.1,5.9,2.3,5.8,5.9
			c-0.1,3.5-2.1,5.3-6,5.3C55.6,605.8,51,605.8,46.2,605.8z M46.3,601.8c4.5,0,8.7,0.1,12.8-0.1c0.6,0,1.2-1,1.8-1.5
			c-0.6-0.5-1.2-1.5-1.8-1.5c-3.2-0.1-6.4,0-9.5,0.2C48,598.9,46.9,599.8,46.3,601.8z"/>
		<path d="M452,621.3c-2,0-3.5,0-5.1,0c0-8.9,0-17.7,0-27c5.7,0.2,11.3,0.1,16.9,0.8c4.3,0.5,6.4,4.2,6.3,9c-0.1,4.7-2.4,8-6.6,8.6
			c-3.7,0.6-7.5,0.5-11.5,0.7C452,616,452,618.5,452,621.3z M452,609c3.1,0,6.1,0.2,9,0c2.5-0.2,3.6-2,3.7-4.9c0.1-3-1.1-5-3.5-5.2
			c-3-0.2-6-0.1-9.2-0.1C452,602.2,452,605.5,452,609z"/>
		<path d="M241.5,594.5c0-2.4,0-4.5,0-6.7c1.8,0,3.4,0,5.1,0c0,8.5,0,16.8,0,25.7c-5.7-0.2-11.4-0.1-16.9-0.8
			c-4.1-0.5-6.4-4.2-6.3-8.8c0-4.7,2.2-7.9,6.4-8.8c1.9-0.4,3.9-0.4,5.9-0.5C237.5,594.5,239.3,594.5,241.5,594.5z M241.4,598.8
			c-3.2,0-6.2-0.2-9.2,0.1c-2.3,0.2-3.5,2.2-3.5,5.1c0,2.9,1.2,4.8,3.5,5c3,0.2,6.1,0.1,9.2,0.1
			C241.4,605.7,241.4,602.3,241.4,598.8z"/>
		<path d="M91.3,594.5c0,1.4,0,2.5,0,3.9c-0.8,0-1.5,0.1-2.3,0.1c-4.3,0-8.7,0-13,0c-1.1,0-2.3,0.1-2.2,1.7c0.1,1.5,1.1,1.6,2.3,1.5
			c3.7,0,7.4,0,11.1,0c3.9,0,5.9,1.9,5.9,5.7c0,3.8-2.1,5.8-6,5.8c-6,0-12,0-18.2,0c0-1.4,0-2.5,0-3.9c0.8,0,1.6-0.1,2.3-0.1
			c4.8,0,9.5,0,14.3,0c1.2,0,2.4-0.2,2.4-1.7c0-1.6-1.2-1.7-2.4-1.7c-3.7,0-7.4,0-11.1,0c-3.6,0-5.6-1.8-5.8-5.1
			c-0.2-3.5,1.7-6,5.3-6.1C79.6,594.4,85.4,594.5,91.3,594.5z"/>
		<path d="M383.1,613.3c-1.5,0-3,0.1-4.5,0c-5.5-0.4-8.7-3.5-8.9-8.7c-0.2-5.9,2.4-9.2,8.1-9.9c3.5-0.4,7.1-0.4,10.6,0
			c5.9,0.7,8.5,4.2,8.1,10.3c-0.3,5-3.8,8.1-9.3,8.3C385.9,613.3,384.5,613.3,383.1,613.3z M383.2,609.4c1.5-0.1,3-0.1,4.5-0.4
			c2.4-0.4,3.6-2.1,3.6-5c0-3-1.2-5-3.6-5.2c-2.8-0.2-5.6-0.3-8.4,0c-3,0.2-4.2,1.9-4.2,5c0,3.2,1.2,4.8,4.2,5.2
			C380.5,609.2,381.8,609.3,383.2,609.4z"/>
		<path d="M332.7,613.1c-1.8,0-3.6,0.2-5.3,0c-5.5-0.8-8-3.8-8-9.2c0-5.4,2.5-8.5,8-9.1c3.6-0.4,7.2-0.4,10.8,0
			c5.9,0.7,8.4,4.2,8,10.4c-0.3,4.9-3.7,7.9-9.1,8.2c-1.5,0.1-3,0-4.5,0C332.7,613.2,332.7,613.2,332.7,613.1z M332.9,609.4
			c1.5-0.1,3-0.1,4.5-0.4c2.4-0.4,3.6-2.1,3.6-5c0-3-1.2-4.9-3.6-5.2c-2.8-0.2-5.6-0.3-8.4,0c-3,0.2-4.2,1.9-4.2,5
			c0,3.2,1.2,4.8,4.2,5.2C330.2,609.2,331.5,609.3,332.9,609.4z"/>
		<path d="M136.9,613.2c-1.9,0-3.4,0-5.1,0c0-6.2,0-12.3,0-18.7c2.7,0,5.4,0,8,0c2.8,0,5.5,0,8.3,0c3.2,0.1,5.3,1.6,5.5,4.5
			c0.2,4.7,0.1,9.3,0.1,14.1c-1.7,0-3.2,0-5.1,0c0-2.5,0-5,0-7.6c0-1.6,0-3.1,0-4.7c0-1.4-0.7-2.2-2-2.2c-3.2-0.1-6.4,0-9.7,0
			C136.9,603.6,136.9,608.3,136.9,613.2z"/>
		<path d="M197.9,594.5c5.7,0,11.2-0.1,16.8,0c3.1,0.1,5,2,5.1,5c0.1,4.5,0,8.9,0,13.6c-1.7,0-3.3,0-5.1,0c0-3.6,0-7.2,0-10.8
			c0-3.4-0.4-3.8-3.8-3.8c-2.6,0-5.1,0-7.9,0c0,5,0,9.7,0,14.6c-1.8,0-3.3,0-5.1,0C197.9,607,197.9,600.9,197.9,594.5z"/>
		<path d="M482.6,613.1c0-6.2,0-12.2,0-18.4c0.6-0.1,1.1-0.2,1.6-0.2c4.8,0,9.5,0,14.3,0c4.1,0,6,1.9,6.1,6c0,4.2,0,8.4,0,12.7
			c-1.7,0-3.2,0-5.2,0c0-1.7,0-3.4,0-5.2c0-2.3,0-4.5,0-6.8c0-1.5-0.6-2.5-2.2-2.5c-3.1-0.1-6.2,0-9.5,0c0,4.9,0,9.7,0,14.5
			C486,613.1,484.4,613.1,482.6,613.1z"/>
		<path d="M359.1,598.5c0,3,0,5.8,0,8.5c0,1.7,1.2,2.1,2.6,2.2c1.9,0.1,3.8,0,5.9,0c0,1.3,0,2.5,0,4.2c-3.4-0.2-6.8-0.1-10.2-0.6
			c-2.2-0.3-3.4-2.3-3.5-5c-0.1-3,0-6,0-9.2c-1.8,0-3.5,0-5.2,0c0-1.5,0-2.6,0-4c1.7,0,3.3,0,5.1,0c0-1.9,0-3.6,0-5.4
			c1.8,0,3.3,0,5.2,0c0,1.7,0,3.4,0,5.3c2.7,0,5.1,0,7.6,0c0,1.4,0,2.6,0,4C364.1,598.5,361.7,598.5,359.1,598.5z"/>
		<path d="M417,594.5c0,1.5,0,2.7,0,4.1c-2.5,0-5,0-7.6,0c0,3,0,5.7,0,8.3c0,1.8,1.2,2.3,2.7,2.3c1.9,0.1,3.8,0,5.9,0
			c0,1.4,0,2.6,0,3.9c-3.1,0-6.3,0.2-9.4-0.1c-2.7-0.3-4.1-2.2-4.2-5c-0.1-3,0-6.1,0-9.4c-1.8,0-3.5,0-5.3,0c0-1.5,0-2.6,0-4
			c1.7,0,3.4,0,5.2,0c0-1.9,0-3.6,0-5.4c1.8,0,3.3,0,5.2,0c0,1.7,0,3.4,0,5.3C412,594.5,414.4,594.5,417,594.5z"/>
		<path d="M316.3,604c-1.8,0-3.4,0-5.1,0c0-0.9-0.2-1.6-0.1-2.4c0.1-2.1-0.8-3-2.8-3c-2.2,0-4.4,0-6.8,0c0,5,0,9.8,0,14.6
			c-1.8,0-3.4,0-5.1,0c0-6.2,0-12.3,0-18.6c5.1,0,10.1-0.1,15.1,0c2.8,0.1,4.5,1.9,4.8,4.6C316.5,600.7,316.3,602.3,316.3,604z"/>
		<path d="M473.7,613.1c0-6.2,0-12.3,0-18.5c1.6,0,3.2,0,4.9,0c0,6.1,0,12.2,0,18.5C477,613.1,475.3,613.1,473.7,613.1z"/>
		<path d="M96.1,594.6c1.7,0,3.2,0,4.9,0c0,6.2,0,12.2,0,18.5c-1.6,0-3.2,0-4.9,0C96.1,607,96.1,600.9,96.1,594.6z"/>
		<path d="M96.2,587.6c1.7,0,3.2,0,4.9,0c0,1.3,0,2.4,0,3.8c-1.6,0-3.2,0-4.9,0C96.2,590.3,96.2,589,96.2,587.6z"/>
		<path d="M473.9,587.7c1.7,0,3.2,0,5,0c0,1.3,0,2.5,0,3.8c-1.6,0-3.2,0-5,0C473.9,590.2,473.9,589,473.9,587.7z"/>
	</g>
</g>
</svg>
