<?xml version="1.0" encoding="utf-8"?>
<!-- Generator: Adobe Illustrator 25.2.1, SVG Export Plug-In . SVG Version: 6.00 Build 0)  -->
<svg version="1.1" id="Layer_1" xmlns="http://www.w3.org/2000/svg" xmlns:xlink="http://www.w3.org/1999/xlink" x="0px" y="0px"
	 viewBox="0 0 929.1 802.5" style="enable-background:new 0 0 929.1 802.5;" xml:space="preserve">
<style type="text/css">
	.st0{fill:#FFFFFF;}
	.st1{fill:none;stroke:#000000;stroke-width:4;stroke-miterlimit:10;}
</style>
<rect x="448.3" y="0.1" class="st0" width="289.7" height="255.6"/>
<g>
	<g>
		<g>
			<path d="M754.4,681.6c-4.6-1.1-9-0.5-13.6,1c-2.9,1-5.5,1.2-5.2,5.2c0.2,2.7-1.9,3.4-4.2,3.3c-5.4-0.3-10.9-0.5-16.3-1.1
				c-2.7-0.3-5-1-6.3,2.5c-0.9,2.3-2.9,1.6-4.6,0.6c-3.8-2.2-7.7-4.3-11.4-6.8c-5-3.4-9.9-4-15.4-1.4c-2.3,1.1-4.8,2.1-7.3,2.5
				c-3.7,0.6-7.2,1.2-9.2,4.9c-0.2,0.4-0.7,1-1.1,1c-8.8,1.4-7.5,8.7-7.6,14.3c0,4.4-0.3,7.6-4.6,9.5c-2.2,0.9-2.1,2.7-2.1,4.5
				c0,2.9-1.3,3.5-4,2.8c-4.6-1.1-10.1,0.4-13.2-4.9c-4.2-0.8-8.5-2.5-12.7-2.2c-2.2,0.2-3.7,0.6-5.3-1c-3.7-3.9-7.8-3.4-12-1
				c-1.3,0.8-2.8,2-4.1,1.9c-5.6-0.4-10.2,0.2-11.8,6.7c-0.2,0.9-2,1.8-3.1,2c-3.5,0.7-5.7,2.8-8.1,5.3c-1.9,2-4.9,3-2.5,6.5
				c-2.8,2.5-5.5,5.2-8.3,7.5c-0.2,0.2-1.8-0.7-2.4-1.5c-1.5-1.8-2.6-3.9-4-5.7c-3.5-4.5-6.5-4.8-11.4-1.3c-0.6,0.5-1.3,0.8-2,1.2
				c-3.9,2-6.8,1.9-8.4-0.5c-2-2.8-1.3-9,1.7-10.5c4-1.9,7.6-5.6,12.8-4.6c1.1,0.2,2.8-0.9,3.8-1.8c4.7-4.5,9.2-9.1,14-13.6
				c1.8-1.7,2.9-3.6,2.7-6.1c-0.3-3.6,1.6-5.1,4.9-5.7c2-0.4,4-1.2,5.8-2.1c1.1-0.5,2.9-1.3,3-2.2c1-5.9,6-8.2,10.1-11.2
				c2.2-1.6,2.6-3.6,2.6-6c0-3.3,0.1-6.8,0.6-10c0.5-2.8,2.1-4.7,5.5-4.2c1.5,0.2,3.1,0.3,4.7,0.2c4.5-0.3,6.1-2.5,5.3-7
				c-1-5.3-0.2-7.5,4.2-8.3c9.9-1.7,19.7-4.8,30-3.4c1.8,0.2,3.7,0.3,5.2,1.1c4.7,2.5,9.5,2.2,14.4,1.2c1.8-0.3,3.5-0.7,5.3-1
				c5.2-0.8,5.5-0.7,5.6-6c0.1-2.9,1.2-4.9,3.1-6.9c4.2-4.6,8.3-9.3,12.4-14c0.4-0.5,0.6-1.2,0.8-1.8c-0.7,0.1-1.6,0-2.1,0.3
				c-1.8,1.1-3.3,2.5-5.1,3.5c-1.3,0.7-2.9,1.5-4.2,1.2c-5.6-1.2-9,1.9-11,6.2c-1.7,3.7-4.3,5.1-7.8,5.1c-4.1,0.1-8.3-0.3-12.4-0.8
				c-1.4-0.2-2.6-1.3-3.8-2.2s-2.2-2.5-3.6-2.8c-4.1-1.1-5.7-3.7-6.7-7.6c-1.3-4.9-4.2-6.1-8-2.9c-3.5,3-7.8,2.2-11.5,3.8
				c-2.7,1.2-5.8-1.6-6-4.6c-0.2-2.8,1.8-4,4.3-4.4c0.8-0.1,1.5-0.5,2.3-0.8c-1-0.7-1.9-2-2.9-2c-1.9-0.1-4.6,1.8-5.5-0.7
				c-2-5.2-4.8-6.1-9.4-3.3c-0.9,0.6-2.6,0.3-3.8-0.1c-2.5-0.8-3.8,0.2-4.8,2.5c-1.2,2.8-3.4,4.4-6.7,4.5c-1.5,0.1-3.3,0.4-4.3,1.3
				c-2.5,2.2-4.7,1.1-7.2,0.4c-2.9-0.8-3.8-2.3-2.9-5.1c0.1-0.3-1.1-1.4-1.8-1.5c-1.2-0.2-2.6,0.2-3.9-0.1c-1.9-0.4-2.7-1.6-1.5-3.4
				c0.7-1,2-1.7,2.7-2.7c0.8-1.1,2-2.7,1.7-3.6c-0.4-1.1-2.1-2.1-3.4-2.5c-1.8-0.6-4.7,0.3-5.1-2.4c-0.4-2.9,2.3-3.7,4.4-4.8
				c2.7-1.3,6.3-1.2,6.7-5.5c0-0.5,2.7-1.4,3.8-1c5.1,1.8,8.9-0.1,12.3-3.8c2.9-3.2,6.2-5.6,10.8-4.8c0.7,0.1,1.7,0.2,2.3-0.2
				c5.7-3.4,12-6.1,16.9-10.5c5.4-4.9,5.6-12.5,6.7-19.4c0.1-0.5,0-1.2-0.3-1.5c-3.6-3.5-3.8-7.1-0.4-11c0.4-0.5,0.2-2.1-0.3-2.7
				c-2.9-3.9-2.8-8.2-2.1-12.6c0.2-1,1.6-2.5-1.1-2c-4.3,0.8-8.6,1.5-12.9,2.2c-3.3,0.5-6.1,1.3-6.3,5.5c0,0.8-2.1,2.4-2.3,2.3
				c-3.2-1.9-6,0.6-9,0.3c-2.2-0.2-3.5-2.1-2.1-3.8c2.2-2.5,4.7-4.8,7.3-6.7c5-3.6,9.7-7.3,11.8-13.6c0.7-1.9,1.8-2.7-0.7-4.1
				c-4.2-2.3-6.9-6.6-11.4-8.6c-1.3-0.6-2.7-2.7-2.6-4.1c0-2.3,2.1-2.4,4.1-1.9c0.4,0.1,1.8-2,1.6-2.5c-1.5-3.5-0.2-4.7,3.2-5
				c2.8-0.3,5.5-1,8.3-1.3s4.9,0.5,6.3,3.4c1.1,2.3,2.7,4.1,5.9,4.4c4.6,0.4,4.6,0.8,4.9,6.4c-0.6,0.4-1.2,0.7-1.8,1
				c0.6-0.4,1.1-0.8,1.7-1.1c0.8-0.2,1.7-0.1,2.3-0.5c2.8-1.8,5.3-4.6,8.3-5.4c2.7-0.7,6,1.5,8.9,1.2c3.8-0.4,7.5-2,11.2-3.2
				c2.5-0.8,4.8-1.9,6.9,0.9c0.3,0.4,1.6,0.4,2,0.1s0.5-1.5,0.2-2c-1.8-3.4-0.3-5.4,2.7-6.8c2.3-1.1,3.1-2.7,1.8-5
				c-2.5-4.4-0.5-8,1.8-11.5c1.9-2.8,2.2-5.1,0.8-8.6c-1.5-3.7-1.6-8-1.5-12.1c0-1.5,2.1-3.5,3.7-4.3c2.8-1.5,4.1-2.9,2.1-5.9
				c-1.8-2.7-0.2-4.2,2-5.7c0.5-0.3,0.6-1.3,0.9-1.9c-0.7-0.2-1.3-0.7-2-0.7c-1.2-0.1-2.9,0.7-3.6,0.1c-2-1.6-3.1-1.1-4.3,0.8
				c-0.7,1.1-1.4,2.2-2.2,3.2c-1.2,1.5-2.5,1.7-3.9,0.3c-0.8-0.7-1.9-1.3-2.2-2.2c-1.2-4.3-6-5.6-7.9-9.5c-1.9-4-4.6-7.5-6.9-11.3
				c-1.2-2-2.4-4-3.9-5.8c-2.6-3.1-2.6-6.4-1.6-10.1c1.4-5,2.8-9.9,6.4-14c1.6-1.8,2.7-4.5,3.3-6.9c1.2-4.6,3.4-8,8.2-9.4
				c1.1-0.3,1.9-1.4,2.8-2.1c-1.3-0.2-2.5-0.4-3.8-0.5c-1.5-0.1-3.1,0.1-4.7,0c-3.5-0.2-6.1,0.2-6.2,4.7c0,1.1-2.3,3.1-3.6,3.2
				c-4.9,0-8.6,2.1-11.3,5.8c-2.7,3.6-6,3.7-9.6,2c-4.2-2-8.3-4.1-12.5-6.2c-0.2-0.1-0.4-0.3-0.5-0.5c0.2,0.1,0.4,0.2,0.6,0.4
				c2.9,4.1,0.2,8-0.6,11.9c-0.4,2-2.3,1.5-3.8,0.5c-4.8-3.1-9.6-6.1-14.4-9.2c-0.9-0.6-1.7-1.4-2.6-1.7c-1.1-0.4-2.7-0.8-3.4-0.3
				s-1.1,2.2-0.8,3.3c0.6,3,1.7,6,2.3,9c0.2,0.9-0.2,2.6-0.7,2.7c-1,0.4-2.5,0.3-3.5-0.2s-2.2-1.7-2.4-2.7
				c-0.9-5.1-3.7-8.9-7.4-12.4c-2.5-2.4-3.4-5.7-3.3-9.3c0-2.5,0.4-4.6,3.2-5.5c1.1-0.3,2.5-1.3,2.7-2.2c1.3-5.2,4.8-9,7.7-13.3
				c2.6-3.7,3.8-8.3,5.7-12.5c0.6-1.4,1.5-2.7,2.5-3.9c4.5-5.2,4.2-9.4-0.8-13.5c-1-0.8-1.9-1.8-3-2.4c-3.8-2.1-6.6-4.4-3.2-9.1
				c0.4-0.6-0.1-1.9-0.3-2.9c-0.1-0.5-0.5-0.9-0.8-1.3c-0.4,0.4-0.9,0.7-1.1,1.2c-0.7,1.9-1.2,4-2,5.8c-1,2.2-2.6,2.3-4.2,0.4
				c-1.7-2-3.1-4.2-4.8-6.1c-1-1.1-2.4-1.9-3.7-2.7c-0.5-0.3-1.3-0.2-2-0.3c0.1,0.5,0,1.1,0.3,1.4c2.4,2.7,1.5,4.9-1.4,6.1
				c-3.9,1.7-5,4.8-5.5,8.6c-0.9,6.7-2,13.3-3.1,19.9c-0.9,5.6-1.3,5.9-6.8,6.3c-7.8,0.6-9.8-2.3-6.6-9.4c0.8-1.8,2.2-3.8,2.1-5.6
				c-0.3-5.6,1.2-10.8,3.6-15.8c1.3-2.7,1.5-5.2,0.5-8.2c-1.5-4.1-2.2-8.5-3.3-12.8c-2.2,3.8-4.4,7.6-6.8,11.3
				c-0.8,1.2-2,2.6-3.3,2.9c-2.3,0.6-2,1.6-1.5,3.3c0.9,2.6-0.2,4.5-2.5,5.9c-2.9,1.7-5.7,3.6-8.7,5.2c-2.7,1.4-4.5,0.1-4.3-2.9
				c0.1-0.7,0.9-1.5,0.7-2.2c-0.4-1.6-0.8-3.5-1.8-4.6c-1.6-1.8-2.6,0.4-3.7,1.2c-0.6,0.4-1.3,1.5-1.8,1.3c-1-0.2-2.6-1.1-2.5-1.6
				c0.4-3.9,0.9-7.7,1.8-11.5c0.2-1,1.6-2.2,2.7-2.5c5.4-1.4,10-5.5,16.1-4.9c1.1,0.1,3.5-1.5,3.5-2.2c-0.1-6.9,5.9-8.5,9.8-11.9
				c2.3-2,4.6-3.8,7.1-0.1c0.2,0.3,1.9,0.1,2.3-0.4c1.5-1.7,1.6-3.7,0.5-5.8c-2-3.8-1.1-7.3,0.7-11c3-6.3,5.6-12.8,8.4-19.2
				c0.1-0.2,0.2-0.4,0.4-0.6c-0.1,0.2-0.2,0.5-0.3,0.7c-2.1,1.4-4.3,2.8-6.4,4.3c-3.2,2.3-5,5.2-4.3,9.3c0.6,3.9-1.6,6.4-4.5,8.4
				c-1,0.7-2.7,1.4-3.5,1c-4.9-2.3-9.1,0.1-13.5,1.6c-1,0.3-2,0.6-3,0.9c-5.3,1.6-9.5-0.5-11.1-6c-0.2-0.6,1.2-2.3,2-2.4
				c3.2-0.3,6-0.4,7.5-4.2c1.1-2.9,1-4.6-2-6.4c-4.8-2.8-4.9-5.1-1-8.7c1.8-1.7,4.3-2.4,2-6c-1.5-2.3,1.1-5.3,4.3-6
				c2.8-0.6,5.6-0.8,8.4-1.5c1.4-0.3,2.9-1.1,4.1-2c1.9-1.5,1.5-2.4-1-2.5c-2.4-0.1-3.5-1.5-2.6-3.6c1.2-2.8,2.2-6.4,4.4-8
				c3.1-2.1,2.5-4.8,3-7.4c0.2-0.1,0.4-0.2,0.5-0.3s0.1-0.2,0.2-0.4c-0.2,0.2-0.4,0.5-0.6,0.8c-2.7,2.2-5.2,4.6-8.1,6.4
				c-2.6,1.6-4.2,0.2-3.8-2.9c0.2-1.7,0.6-3.4,0.9-5.2c0.5-0.5,1.1-1.1,1.6-1.6c0.1-0.2,0.3-0.3,0.4-0.5c-0.1,0.2-0.2,0.4-0.3,0.6
				c-0.5,0.5-1,1.1-1.6,1.6c-3.5-1.4-6.7-2.9-10.6-3.6c-2.8-0.4-5.2-3.9-7.5-6.3c-1.6-1.7-2.7-3.6-1.6-6.3c0.9-2.2-0.1-2.6-2.3-1.6
				c-3.5,1.6-7.7-0.2-10-4.1c-1.8-3-1.2-6.7,1.6-9.1c0.7-0.6,2.1-0.6,2.7-1.2c1.5-1.6,2.4-4.7,4-5c1.9-0.3,4.1,1.7,6.2,2.6
				c0.8,0.3,1.7,0.3,2.6,0.4c-0.1-0.7-0.2-1.5-0.4-2.2c-0.6-2.6-2.2-5.1,0.6-7.8c3.9-3.7,5-3.7,8.1,1c2.5,3.8,4.5,7.6,3.8,12.3
				c-0.1,0.5,0.2,1,0.2,1.5c0.4-0.3,0.8-0.6,1.2-0.9c0.4-0.4,0.6-0.9,1-1.2c1.2-1.1,2-3.7,4.1-2.2c0.9,0.6,1.3,3.2,0.7,4.2
				c-2.1,4-0.6,8.1-0.8,12.2c-0.2,3.7,2.8,4.2,4.7,5.2c0.9,0.5,3-1.3,4.6-2c-0.7-0.9-1.5-1.7-1.9-2.7c-2.1-4.5-6.2-8.4-3.7-14.3
				c1.7-3.9,1.3-4.1,6.7-3.2c0.1,0.2,0.1,0.4,0.3,0.5c0.1,0.1,0.2,0.1,0.4,0.2c-0.2-0.2-0.5-0.4-0.7-0.6c-0.5-0.6-0.9-1.4-1.5-1.8
				c-2.7-1.7-3.7-3.6-1-6.1c2.3-2,1.2-3.1-0.7-4.8c-2.8-2.6-1.6-6.3-1.2-9.5c0.1-0.6,0.9-1.2,1.6-1.5c2.7-1.3,5.5-2.5,8.3-3.7
				c0.2-0.1,0.6-0.3,0.7-0.2c4.7,3.7,7.6-1.2,11.4-2.2c2.6-0.8,3.1-1.7,1.2-3.6c-2-2-4.3-3.8-6.3-5.8c-1.7-1.6-1.1-3.1,1-3.1
				c4.6-0.2,3.4-2.2,2.2-5c-2.1-4.7-2-4.7,2.8-6.5c1-0.4,1.9-0.8,2.9-1c3.3-0.7,5-2.1,3.8-5.8c-0.4-1.3-0.4-3.7,0.5-4.4
				c2.5-2,4.1-3.7,1-6.3c1.8-3.6,3.4-7.3,5.3-10.9c0.3-0.5,2-0.5,2.9-0.2c2,0.5,3.9,1.4,5.8,2.1c1.2,0.5,2.4,1.4,3.6,1.4
				c4.7,0.2,9.2-0.6,14.2,1.2c3.9,1.4,9.1-0.4,13.7-0.9c2.8-0.3,5.6-0.7,8.4-1.1c2.2-0.4,4.5-1,6.7-1.5c2.5-0.5,5-1.4,7.5-1.3
				c2.5,0.1,5.2,1.9,5.5-2.6c0-0.4,1.8-1,2.7-1c3.6-0.1,7.3-0.1,10.9,0.2c3.2,0.2,3.9,1.5,3.1,4.7c-0.3,1.2-0.8,2.5-1.3,3.7
				c-0.9,2.4-1.8,4.4,0.7,6.9c1.8,1.8,1.2,5-0.7,7.1c-2.2,2.5-4.4,5.5-7.3,6.9c-4,1.9-6.5,4.8-9,8.1c-2,2.6-5,4.4-7.6,6.7
				c-4.2,3.7-8.6,7.2-12.4,11.2c-1.1,1.2-0.8,3.8-0.8,5.8c0,0.3,2.7,0.7,4.1,0.6c4.1-0.2,5,0.7,3.2,4c-2.6,4.7-3.8,10.3-8.8,13.5
				c-0.7,0.4-0.8,1.8-1.2,2.8c1,0.2,2,0.6,3,0.7c1,0,2.2,0,3-0.6c4.6-3.4,9.8-5.3,15-7.4c5.7-2.3,11-4.1,17-1c2,1.1,5.2,1.3,7.4,0.5
				c4.7-1.6,9.2-0.8,13.8-0.4c4.6,0.4,9.3,0.6,13.9,0.5c4.1-0.1,8.2-0.9,12.4-1c5.9-0.2,10.2,3.3,12,8.9c1.9,5.8,1.9,10.9-2.3,15.9
				c-4.4,5.2-6.9,11.1-7.9,18.2c-1.1,7.6-4.3,14.9-6.6,22.3c-0.3,1-0.5,2.3-1.3,2.8c-5.7,3.2-6.4,9.1-8.1,14.4
				c-1.9,6-7.1,9.5-11.3,13.6c-4.4,4.4-4.8,7.6,0.3,9.9c7.3,3.3,7.8,5.4,0.3,10.2c-1.9,1.2-4.5,3-6.1,2.5
				c-6.9-2.1-10.2,2.3-12.8,6.8c-1.5,2.5-3.1,3.8-5.6,4.7c-1.1,0.4-2,1.3-2.9,2c1,0.2,2,0.4,3,0.5c0.5,0.1,1.1-0.2,1.5,0
				c7.2,2.7,12.7,1.4,17.6-5.1c3-4,6.5-2.6,11.3,0.3c4.7,2.9,9,6.9,15.2,6.7c1.9,0,4.8,1.5,5.7,3.2c5.5,9.6,14.8,15.1,22.8,22
				c3.4,3,5.3,5.9,6,10.3c1.4,9,3.1,17.9,4.9,26.7c2,9.7,5.5,18.9,10.4,27.5c3.2,5.7,8,10.1,14.2,12.8c6,2.6,11.7,5.5,17.8,8
				c4.2,1.7,7.6,4,10.1,8c3.3,5,7.1,9.6,10.8,14.2c2.2,2.8,4.4,5.5,8.1,6.9c3.2,1.1,3.2,2.3,1.1,4.4c-1.1,1.1-3.2,2-3.2,3.1
				c0,1.6,1.3,3.2,2.2,4.8c4.9,8.2,9.9,16.4,14.8,24.7c2.1,3.5,1.7,4.2-2.7,4.4c-0.8,0-1.6-0.1-2.3,0c-0.9,0.1-1.8,0.4-2.8,0.6
				c0.7,0.7,1.2,1.7,2.1,2.1c8.6,3.7,12.2,11.5,16,19.2c2.4,4.9,5.6,9.5,4.3,15.3c-0.5,2.2-1.2,4.4-2.4,6.3
				c-1.9,2.8-4.1,5.4-6.4,7.8c-5,5.1-2.8,5.1,1.7,7.2c9.1,4.3,8.6,6.8,12.9-4.8c2-5.5,4.9-7.8,10.8-7.5c7.8,0.4,15.6,0,23.4,0.1
				c6.6,0.1,12.4,2,17.9,6.2c14.8,11.4,15.3,11.6,18.2,29.6c0.2,1.5,0.2,3.1,0,4.6c-1.5,7.9-3.3,15.7-4.5,23.6
				c-1,6.5-6.1,10-9.5,14.8c-2.1,2.9-6.7,4.5-4.7,9.4c-3.2,3.6-5.9,7.8-11.2,9.1c-5.4,1.4-5.4,1.6-5.4,7.2
				c-0.1,7.3-4.1,11.9-10,15.4c-0.5,0.3-1,0.7-1.5,1.1c0.5,0.2,1,0.3,1.5,0.5c4.5,1.1,9,2.3,12.9,5.2c1.3,1,4,0.8,5.9,0.5
				c5.1-0.8,10.2-2,15.2-3c2.4-0.5,3.8,0.3,2.8,2.8c-1.7,4.4-0.7,8.6,0.7,12.8c0.8,2.5,0.4,4.5-2.1,6c-3.7,2.3-7.1,5.6-11.1,7
				c-5.1,1.9-7.8,4.8-8,10.1c-0.1,3.2-1.7,4.3-4.5,3.3c-4-1.4-6.8,0.3-9.8,2.8c-2.5,2-5.8,3.3-9,4.3c-4.9,1.5-9.3,3.5-12,8
				c-1.7,2.8-3.7,2.8-6.5,1.9c-5.2-1.7-10.4-3.1-15.8-4.2c-3.8-0.7-7.7-1.1-11.5-0.7c-4.9,0.5-9.6,1.9-14.4,3.2
				c-1.9,0.5-4.5,1.2-5.4,2.6c-2.3,4-5,2.3-8,1.5s-6-1.2-9.1-1.5c-2.8-0.3-3,0.9-1.4,3c0.3,0.4,0.1,1.5-0.3,2
				c-2,2.7-3.9,5.6-6.4,7.7c-1.3,1.1-4.2,1.9-5.7,1.2c-5.1-2.2-9.9-5.2-14.9-7.9c0.5-0.5,1.1-1,1.6-1.6c0.5-0.5,1-1,1.6-1.6
				c0.1-0.2,0.3-0.4,0.4-0.5c-0.1,0.2-0.2,0.4-0.3,0.6c-0.5,0.5-1,1-1.6,1.6C755.5,680.5,754.9,681.1,754.4,681.6z M536,266.6
				c1-1.1,2.3-2,3-3.3c1.4-2.6,2.5-5.4,3.7-8.2c-2.7,1.6-5.4,3.1-8,4.9c-2.1,1.5-1.5,2.7,0.5,4c0.6,0.4,0.6,1.8,0.9,2.7
				c-7.2,2.4-8,3.2-7.7,7.7c0.1,0.9,0.8,1.7,1.2,2.6c0.8-0.4,2.1-0.6,2.5-1.3C533.5,272.8,534.7,269.7,536,266.6z M509.5,280.7
				c2.7-1.1,4.8-4.1,8.4-2.7c2.1,0.8,2.7,2.3,0.7,3.6c-2,1.3-2.2,2.3-1.1,4.2c0.7,1.3,0.9,2.9,1.4,4.3c-0.1,0.2-0.2,0.4-0.4,0.6
				c0.1-0.2,0.2-0.5,0.3-0.7c8.4-2.9,8.4-2.9,6.1-10.6c-0.6-2-1.2-4-1.2-6c-0.1-2.6-1-3.1-3.3-2.1c-2.1,0.9-4.3,2-6.5,2.4
				C509.6,274.6,509.3,277.4,509.5,280.7c-0.1,0.1-0.3,0.2-0.4,0.3c-0.1,0.1-0.1,0.3-0.1,0.4C509.1,281.2,509.3,280.9,509.5,280.7z
				 M587.5,514.6c3.4,0,6.5-0.6,8.8-3.6c1-1.3,2.9-2.3,4.6-2.6c6-1.2,12.1-2.2,18.3-2.8c3.2-0.3,4.2,2,3.1,5
				c-0.9,2.3-1.5,4.8-1.8,7.2c-0.2,1.5,0.4,2.6,2.7,2.5c3.7-0.3,4.2,0.8,2.5,3.5c-0.8,1.3-1.6,2.6-2.6,3.7c-2.2,2.6-3.6,4.9-0.4,8
				c1,1,1.1,3.5,0.8,5.1c-1,4.8-1.9,9.7-3.8,14.2c-1.4,3.1-4.1,6-6.8,8.1c-4.3,3.2-9.1,5.6-13.7,8.3c-1.1,0.6-2.5,1.5-3.5,1.3
				c-5.5-1.1-8.9,2.5-12,5.8c-1.9,2.1-3.5,3.5-6.5,2.9c-1.9-0.4-4.2-0.8-5.8-0.1c-1.8,0.8-2.8,3.1-4.4,4.5c-0.7,0.6-1.9,0.6-2.9,1
				c-0.6,0.2-1.1,0.6-1.7,0.9c0.4,0.3,0.8,0.7,1.2,0.9c2.6,1,5.2,3.1,4.7,5.6c-1.3,5.5,0.6,7.6,5.8,8.2c0.8,0.1,1.4,1.4,2.2,2
				c1.1,0.8,2.5,2.1,3.6,2c1.9-0.2,5.1-1.1,5.4-2.3c1.3-5.2,5-5.2,9-5.3c1.1,0,2.1-1.3,3.3-1.6c2.7-0.6,5.5-1.2,8.2-1.2
				c3,0,2.1,3.1,3.1,4.7c0.8,1.4,1.3,2.5,3.5,2c3.5-0.8,6.3,1.8,7.7,4.1c1.8,3-2.8,3.6-3.9,5.8c-0.1,0.2-0.2,0.5-0.3,0.7
				c-0.9-0.1-1.8-0.3-2.7-0.4c0.1,0.4,0.1,0.8,0.2,1.2c0.8-0.3,1.6-0.6,2.4-0.9c3.2-0.4,6.2-0.5,9.4-2.6c5.4-3.5,8.4-2.5,11,3.5
				c2,4.7,6.2,6.5,9.2,9.7c2.6,2.8,5.2,3.2,8.2,3.1c3.1,0,6.2-0.3,9.2-0.8c0.9-0.1,1.8-1.1,2.3-1.9c3.5-5.6,7.3-10.4,15-8.6
				c0.4,0.1,1-0.2,1.5-0.4c5-3.1,10-6.2,15-9.3c1.2-0.7,2.5-1.2,3.8-1.7c-0.4,1.4-0.5,2.9-1.1,4.1c-1.1,2-2.5,4-4,5.7
				c-4.2,4.9-8.6,9.8-12.9,14.6c-2.9,3.3-6,6.4-4.3,11.5c0.7,2.2-0.4,4-3.1,4.3c-9,1-18,5.9-27.2,0.5c-0.8-0.5-2-0.3-3-0.4
				c-9.4-1-18.6,0.1-27.7,2.8c-4.7,1.4-5.2,1.5-3.6,5.5c1.4,3.5,0,5.2-2,7.5c-2.6,3-5.7,3.1-9.2,2.9c-4.6-0.2-4.9,0.2-5.2,4.5
				c-0.1,1-0.2,2.1,0,3.1c1.3,6.4-2,10.3-6.8,13.6c-1.9,1.3-4.7,3-4.8,4.7c-0.4,5.6-4.7,6.6-8.4,7.9c-4,1.4-7.3,2.6-6.7,7.8
				c0.1,1-1.1,2.3-2,3.2c-5.3,5.3-10.6,10.7-16.1,15.9c-1.8,1.7-3.8,2.6-6.8,2.5c-3.2-0.1-6.7,2-9.7,3.9c-0.9,0.5-1.2,3.6-0.5,4.9
				c1.1,2,3.2,1,4.7-0.2c1-0.8,1.9-1.7,2.8-2.7c1.6-1.9,3.2-1.7,5.5-1.1c4.9,1.3,8.2,4.1,10.5,8.5c1,1.9,2.2,2.6,4.2,1.1
				c1.7-1.2,2.5-2,0.8-4.2c-2.5-3.2-2.2-3.2,1.5-5.1c2.2-1.2,4-2.9,6-4.5c1.2-0.9,2.4-2.6,3.6-2.7c4.2-0.2,5.9-2.9,7.1-6.2
				c1.2-3.3,3.6-4.1,6.8-3.8c3.4,0.3,6.5-0.4,9.7-2c3.7-1.9,8-2.3,11.8,0.4c1.6,1.1,2.9,2,4.9,0.8c0.8-0.5,2.5-0.9,2.9-0.5
				c4.1,3.9,10.7,1.5,14.7,6.2c1.4,1.7,5.2,1.8,8,2c0.6,0,1.1-2.9,2.1-4.1c0.9-1.1,2.3-1.9,3.6-2.7c2.3-1.3,3.9-2.7,2-5.5
				c-0.4-0.6-1.2-1.7-1-2c3.7-5.5,0.8-15.3,11-16.4c0.6-0.1,1.4-0.8,1.7-1.5c1.6-2.9,4.6-3.1,7.3-4c3.2-1.1,6.6-1.5,9.6-3
				c5.5-2.7,10.6-1.8,15.6,1c3.6,2,7.2,4.2,10.8,6.1c0.9,0.5,2.9,0.8,3.2,0.4c2.3-3.3,5.2-2.3,8.4-2c4.1,0.4,8.3,0.2,12.5,0.5
				c2.8,0.1,5,0,5.4-3.8c0.1-1.3,2.1-3.1,3.5-3.5c4.4-1.2,9-1.7,13.5-2.6c1.4-0.3,2.8-0.9,4.2-1.5c1.9-0.8,3.7-2,5.6-2.6
				c4.6-1.6,4.6-1.5,4.2-6.4c-0.1-0.7,0.2-1.7,0.7-2s1.5,0,2.1,0.3c1.4,0.8,2.7,1.6,3.9,2.6c3.8,3.1,8.1,4.2,13,3.8
				c3-0.2,6.2,0.6,9,1.5c2.5,0.8,4.3,1.1,6-1.3c0.5-0.8,1.7-1.4,2.6-1.6c7-1.7,14.1-3.5,21.2-4.8c2.2-0.4,4.7,0.1,6.9,0.6
				c5.8,1.4,11.5,3,17.2,4.7c2.6,0.8,4.6,0.6,6-1.9c2.1-4,5.8-5.6,9.9-6.9c3.4-1.1,6.9-2.4,9.9-4.3c3.1-2,6.1-3.8,10-3.6
				c1.1,0,3-1.2,3.3-2.2c1.8-6.3,5.4-10.4,11.9-11.8c0.7-0.2,1.3-0.8,2-1.1c5.4-2.8,9.7-6.1,6.3-13.2c-0.5-1.1-0.3-2.6-0.3-3.9
				c0.1-2.5-1.2-3.3-3.4-2.8c-3.8,0.8-7.5,2-11.4,2.4c-2.2,0.3-5,0.1-6.5-1.1c-4.5-3.5-10-4-15.1-5.9c-3.7-1.3-8.2-0.2-11-3.9
				c3.7-0.9,7.3-2.4,11-2.7c3.6-0.3,5.6-2.2,7.6-4.7c3.1-3.8,3.2-8,2.3-12.5c-0.9-4.4-0.9-4.5,3.6-4.8c1.5-0.1,3.2,0.1,4.7-0.3
				c3.3-0.9,7.7-3.1,7-6.2c-1-4.3,1.6-5.6,3.5-7.7c2.6-2.9,5.3-5.7,8.1-8.4c2.7-2.6,4.2-5.6,4.7-9.5c0.9-6.7,1.9-13.4,3.7-19.8
				c2.3-8.5-1.8-15.7-3.4-23.5c-0.2-0.9-1.2-1.7-2-2.3c-4.7-3.7-9.2-7.6-14.2-10.9c-2.5-1.6-5.7-2.3-8.7-3c-9.8-2-19.6,0.1-29.4-0.2
				c-2.7-0.1-4.3,1-5.2,3.6c-1.3,3.6-3.1,7.1-4.7,10.7c-0.9,2-2.3,2.6-4.4,1.5c-1.1-0.6-2.4-1.1-3.5-1.7c-4.3-2.3-8.6-4.7-13-7
				c3-4.1,5.7-8.5,9.2-12.1c4.8-4.9,5-10.5,2.6-15.7c-4.5-10-8.5-20.8-20.3-25.3c-0.7-0.3-1.3-0.9-1.9-1.4
				c-5.7-5.2-11.8-9.2-20.2-7.1c-0.7,0.2-1.7-0.6-2.6-1c0.7-0.7,1.3-1.7,2.1-2c1.4-0.6,3.1-0.5,4.5-1.1c4.8-1.9,8.8-1.2,12.9,2.3
				c2.4,2,6,2.6,9.2,3.7c0.7,0.2,1.5,0,2.2,0c-0.1-0.9,0-1.9-0.4-2.6c-4.9-8.3-9.9-16.5-14.8-24.7c-1-1.7-3-3.7-0.8-5.5
				c3.4-2.7,1-3.5-0.9-5.4c-2.9-2.9-5.8-6-7.9-9.6c-6.6-11.4-16.4-18.1-28.6-22.5c-5.2-1.9-10.5-4.8-14.7-8.5
				c-9.9-8.5-13.2-20.9-16.5-32.8c-2.4-8.7-3.8-17.7-5.1-26.7c-1-6.9-4.2-11.6-9.8-15.8c-6.8-5.1-14.2-9.8-18.3-17.8
				c-1.4-2.7-3.6-3.2-6.4-3.3c-2.2-0.1-4.5-0.8-6.5-1.9c-3.5-2-6.6-4.7-10.2-6.5c-1.3-0.7-3.6-0.4-5,0.2c-1.5,0.7-2.7,2.4-3.8,3.8
				c-2.8,3.2-7,4.9-10.4,4.1c-6.2-1.5-12.4-0.7-18.5-1.6c-6.8-1-13.2-3.1-17.3-9.2c-0.4-0.6-0.4-1.4-0.6-2.1
				c0.9-0.1,2.1-0.7,2.7-0.3c5.1,3.5,11.2,3.7,17,5c4.5,1,8.5-0.9,11-4.3c4.5-5.9,8.5-11.6,17.4-9.5c1.5,0.4,3.7-2.3,5.5-3.6
				c-1.1-1.2-2.2-2.5-3.4-3.5c-1-0.8-2.4-1.1-3.4-1.9c-0.9-0.8-2.1-2.2-1.8-2.9c1.4-4.2-1.3-3.9-3.5-3c-4.1,1.6-8,3.8-12,5.6
				c-0.6,0.3-1.4-0.1-2.2-0.2c0.1-0.7-0.1-1.6,0.3-2c4.2-4.4,8.7-8.7,15.1-8.7c8.9,0,14.2-5.7,17.3-12.3c3-6.2,6.2-12.1,9.6-18
				c4.2-7.2,5.8-16,7.5-24.3c0.9-4.1,1.7-8.1,4-11.6c1.7-2.6,3.6-5.1,5.2-7.8c2.7-4.4,2.2-11.6-1.2-15.2c-1.3-1.3-3.5-2.4-5.3-2.5
				c-4.9-0.1-9.8,0.5-14.8,0.6c-3.8,0.1-7.7-0.1-11.5-0.1c-4.6-0.1-9.5-0.9-13.9,0.1c-3.8,0.9-7,1.2-10.4-0.7
				c-3.9-2.2-8.3-2.4-11.9-0.1c-5.5,3.4-12.3,3.7-17.2,8.3c-0.4,0.3-0.9,0.6-1.4,0.6c-4.6,0.3-8.4,1.9-11.3,5.7
				c-0.6,0.8-2.7,0.5-4.1,0.7c0.3-1.4,0.5-2.7,0.8-4c0.8-3.1,6.7-5.4,1.5-9.6c-0.2-0.1-0.1-1.1,0.2-1.4c2-1.6,4.6-4.9,5.9-4.4
				c4.4,1.6,4.7-1.6,6-3.9c1-1.8,0.9-3-1.6-2.8c-2.6,0.3-5.1,0.9-7.7,1.2c-0.8,0.1-1.8-0.5-2.6-1c-0.2-0.1,0.2-1.7,0.7-1.9
				c3.3-2,5.5-4.6,5.3-8.7c0-0.6,0.7-1.4,1.2-1.9c4.9-4.2,9.8-8.2,14.6-12.5c2.8-2.6,5.6-5.3,8-8.3c1.6-2.1,3.1-4,5.9-4.7
				c3.8-0.9,5.9-4.1,7.9-7.1c0.5-0.7,0.6-2.4,0.2-2.7c-4.1-2.8-1.8-6-0.8-9c1.8-4.9,2.8-5.8-4.6-5.7c-1.2,0-3.5,1-3.5,1.5
				c0.2,4.3-2.7,3.3-4.7,2.7c-4.7-1.3-9.1-1.3-13.5,1.2c-1.6,0.9-4,0.7-6,0.8c-2.3,0.2-4.9-0.3-6.9,0.6c-9.3,3.9-18.7-1.3-27.9,0.5
				c-0.9,0.2-1.9-0.7-2.9-1.1c-1.9-0.7-3.9-1.3-5.8-2.2c-1.6-0.7-3.2-0.9-4,0.8c-0.9,2-2.4,5.6-1.7,6.2c4.5,3.6,4.2,5.6-1,8.1
				c-1,0.5-1,4.2-0.8,6.3c0.3,2.3-0.4,3.4-2.4,4.1c-0.7,0.2-1.5,0.4-2.2,0.7c-1.9,0.8-4.6,1.1-5.4,2.5c-0.6,1,1.4,3.5,1.9,5.3
				c0.4,1.3,0.7,3.8,0.2,4.1c-4.1,2.1-2.2,3.4,0.3,5.1c1.5,1,2.8,2.4,4,3.7c1.3,1.4,1.5,3-0.7,3.5c-4.3,0.9-8.7,1.6-11.4,5.7
				c-0.2,0.3-1.1,0.5-1.4,0.3c-3.2-2.2-6,0.1-8.9,0.7c-5,1-6,4-2,7.7c2.3,2.1,2.7,3.5,0.7,5.7c-2,2.2-1.6,4.2,0.8,5.9
				c1.3,0.9,2.6,1.8,3.7,2.9c0.6,0.6,1.1,2.1,0.8,2.6c-0.7,1-1.9,2.2-2.9,2.2c-1.5,0-2.9-1-4.3-1.5c-2-0.8-3,0.3-3.5,2
				c-0.8,3.1,2,8.9,4.9,9.6c2.8,0.7,7.4-0.3,3.5,5c-0.1,0.2,0.2,1,0.5,1c4.5,1.1,2.5,3.6,1.2,5.8c-1.4,2.5-3.1,4.8-4.3,7.4
				c-0.6,1.3-1.4,3.5-0.9,4.2c2.7,3.3,1,4.4-2,5.5c-1.2,0.4-2.6,0.9-3.4,1.8c-1,1.1-1.5,2.6-2.2,4c1.2,0.5,2.5,1.1,3.8,1.4
				c1.7,0.4,3.7,1.1,2.2,2.8c-3.2,3.8-5.4,9.2-11.9,8.6c-1.5-0.1-3,0.6-4.5,1c-0.7,0.2-1.3,0.6-2,1c0.7,0.2,1.3,0.6,2,0.7
				c4.1,0.5,8.2,1,12.3,1.6c0.5,0.1,1.1,0.9,1.4,1.5c0.1,0.3-0.2,1-0.6,1.3c-0.6,0.5-1.5,0.6-2,1.2c-1,1-2.9,2.5-2.7,3
				c0.7,1.5,2,3.1,3.5,3.7c5.1,1.9,9.9,2.1,13.8-2.8c1.6-2,3.7-3.7,5.7-5.3c1.6-1.3,3.3-2.5,5.1-3.6c0.2-0.1,1.7,1,1.6,1.4
				c-0.3,1.5-0.8,3-1.5,4.4c-3.7,8-7.3,16.1-11.2,24c-1.5,3-2.2,5.8-0.3,8.8c1.6,2.5,0.9,4.9-0.4,7.3c-1.7,3.2-3.4,6.4-4.8,9.8
				c-0.5,1.2-0.7,3.8-0.1,4.1c3,1.7,1.9,3.6,1.2,5.9c-0.5,1.6-0.6,4,0.3,5.1c2.2,2.9,0.8,5.4-0.1,8c-1.3,3.7-3.2,7.3-3.6,11
				c-0.5,4.6,0,9.3-3,13.4c-0.5,0.7-0.1,2.8,0.6,3.3c2,1.6,5.9,0.1,6.7-2.5c0.6-2,0.9-4,1.2-6.1c1-6.1,1.9-12.3,3.1-18.4
				c0.3-1.6,1.1-3.5,2.3-4.6c4-3.9,4-3.8,1.6-8.5c-0.6-1.1-1.3-2.3-1.8-3.4c-2.8-6.2-2.4-7.6,3.5-11.9c0.8-0.6,1.5-1.5,2.3-2.1
				c0.6-0.4,1.8-0.8,2-0.5c0.7,0.6,1.4,1.8,1.2,2.5c-0.7,3-1.9,5.9-2.5,8.9c-0.2,1.1,0.6,2.4,0.9,3.6c0.8-0.6,1.8-1.1,2.4-1.9
				c1.2-1.5,2.5-1.7,4-0.7c1.1,0.7,2.2,1.4,3.3,2c3.6,2,4.2,2,5.2-2.1c0.8-2.9,1.2-5.9,4.7-6.3c2.7-0.3,5.5,0.2,8.2,0.9
				c1.2,0.3,2.1,2,3.1,3c-1.4,1-2.8,2-4.2,2.8c-0.3,0.2-1,0-1.5-0.2c-3.8-1.4-4.7,1-4.7,3.9c-0.1,3.3,0.6,6.6,0.1,9.8
				c-0.4,2.5,0.2,4,2,5.3c1.7,1.2,3.4,2.4,5,3.7c4.7,4,5,11.1,1.1,15.8c-2.5,2.9-5.5,6-6.4,9.5c-1.3,4.7-3.5,8.6-6.5,12.2
				c-3,3.7-4.1,7.7-2.6,12.4c0.5,1.4,0.5,3.1,0.3,4.6c0,0.4-1.8,1.1-2.3,0.8c-0.8-0.4-1.2-1.6-1.8-2.4c-0.7-0.9-1.6-1.6-2.3-2.4
				c-0.2,1.2-1,2.7-0.6,3.7c1.1,2.5,2.6,4.9,4.2,7.1c1.2,1.6,2,2.1,3.9-0.1c4.1-4.6,5.3-4.5,10.6-1c3.9,2.5,7.8,5.2,11.7,7.7
				c1,0.6,3.1,1.3,3.3,0.9c0.8-1.1,1.4-2.7,1.4-4.1c0-1.1-1.2-2.2-1.6-3.4c-0.4-1.4-1.1-3.1-0.6-4.1c1.1-2.1,3.1-1.2,4.7-0.2
				c4.1,2.3,8.2,4.5,12.2,6.9c2.9,1.7,5.4,1.6,7.5-1.1c2.7-3.4,5.9-5.8,10.3-6.3c2.5-0.3,3.6-1.7,3.5-4.2c-0.2-2.9,1.2-4.3,4.2-4.2
				c6.5,0.1,13,0,19.5,0.1c0.9,0,1.8,0.7,2.7,1.1c-0.6,1-1,2.5-1.9,3.1c-3.1,1.9-6.6,3.2-9.6,5.2c-1.8,1.2-3.4,3-4.5,4.9
				c-2.3,4-4.3,8.2-6.4,12.3c-3.7,7.2-7,14.4-0.5,22c3.1,3.8,5.5,8.2,8.2,12.3c1.3,2,2.5,3.9,5.5,2.6c1.9-0.8,2.8,0.4,2.5,2.4
				c-0.2,1-0.6,2.1-0.5,3s0.8,1.8,1.4,2.4c0.2,0.2,1.3-0.4,1.9-0.9c0.9-0.7,8.8-3.3,9.8-3.8c4.4-2,5.5,1.4,6.7,4.1
				c1.5,3.4-3,4-3.3,6.2c-0.4,2.3,1.1,4.8,0.9,7.2c-0.1,1-2.4,1.6-3.6,2.6c-1.1,0.9-2.9,2.1-3,3.2c-0.2,3.3-0.7,7.3,0.9,9.8
				c2.6,4.1,1.9,7.2-0.3,10.8c-2.2,3.7-3.8,7.4-1.4,11.7c1.4,2.6,0.5,4.7-2,5.8c-3.5,1.5-3.8,3.5-2.1,6.7c0.8,1.4,0.5,3.3,0.7,5
				c-1.7-0.1-3.5,0.3-4.9-0.3c-5.1-2.2-10-2.1-15.1,0c-2.3,1-5.3,2-7.5,1.4c-3.9-1.2-6.8-0.3-9.9,1.8c-2.1,1.5-4.5,2.8-7,3.4
				c-6.3,1.5-10,6.9-15.3,9.7c-0.8,0.4-1.5,1.6-1.7,2.5c-0.7,3.3-2.8,5.4-5.3,7.4c-4.1,3.1-8.1,6.3-12.2,9.5
				c-0.1,0.2-0.3,0.4-0.4,0.6C587.2,515.1,587.4,514.8,587.5,514.6z M529.2,170.9c7.3-0.1,7.3-0.1,4.6,6.6c-0.1,0.2-0.3,0.5-0.3,0.7
				c0.1,0.6,0.3,1.3,0.4,1.9c0.4-0.3,1-0.4,1.3-0.8c3.6-3.6,4.7-9.4,10.3-11.1c0.2-0.1,0.5-0.9,0.3-1.1c-0.2-0.4-0.7-0.8-1.2-0.9
				c-0.7-0.1-1.7-0.2-2.2,0.1c-4,3.3-7,1.4-9.8-1.8c-0.7-0.8-1.6-1.3-2.5-1.9c-5.6-3.4-7.9-8.5-6.2-14.6c1.6-5.6-1.4-9.4-3.7-13.7
				c-0.2-0.4-0.9-0.9-1.1-0.8c-0.6,0.4-1.5,0.9-1.6,1.5c-0.2,1.5-0.1,3.1-0.1,4.6c0.1,2.7,3.1,6,0,7.7c-1.4,0.8-4.8-2.1-7.3-3.2
				c-0.2-0.1-0.4-0.3-0.7-0.4c-1.1-0.2-2.3-0.4-3.5-0.6c0,1-0.1,1.9-0.1,2.9c0.3,3.9,0.3,3.8-4,3.5c-0.6,0-1.8,0.9-1.8,1.3
				c-0.1,3.6,2.9,5.5,6.1,4.1c4.8-2.1,8.3-0.1,7.2,4.7c-0.7,2.8,0.3,4.1,1.6,6.1C518.7,171.3,524.5,169.2,529.2,170.9z M543.9,231
				c0.4-3.8-0.9-6.4-4.1-6.1c-6.4,0.6-9.5-2.4-11.5-7.8c-0.3-0.7-0.8-1.4-1.3-1.9c-1.7-1.7-5.3-0.7-7.2,2c-1.2,1.7-0.2,2.9,1.2,3.8
				c1.7,1.1,4.4,1.9,4.9,3.4s-1.1,3.8-1.7,5.7c-0.2,0.5-0.5,1.1-0.3,1.5c2.4,5.4-1.3,5.4-4.8,5.5c-0.5,0-1.1,0-1.5,0.2
				c-0.3,0.2-0.7,0.8-0.6,1.1c0.1,0.4,0.6,1.2,0.9,1.1c2-0.2,4-0.4,5.9-0.8c4.5-0.7,8.3-4.1,13.4-2.8
				C541.3,237,543.4,235.1,543.9,231z M596.9,477.8c-0.3,6.5,4.8,8.1,9.3,10.3c4.2,2.1,4.1-2.4,6-3.9c0.6-0.5,1.2-1,1.8-1.5
				c2.9-2.4,2.8-2.1-0.3-4c-2.2-1.3-4.4-3-5.7-5.1c-2.2-3.6-5.4-2.6-8.2-2.1C596.5,472.1,597.1,475.3,596.9,477.8z M768.2,676.2
				c-1.8,1.1-3.8,2.5-5.9,3.8c-0.6,0.4-1.4,0.5-2.1,0.8c0.5,0.5,1,1,1.7,1.4c2.2,1.3,4.4,2.5,6.6,3.9c1.8,1.1,3.5,1.3,4.6-0.6
				c1.4-2.3,2.5-4.7,3.7-7.1c-2.4-0.6-4.9-1.2-7.3-1.8C769.2,676.4,769,676.4,768.2,676.2z M560.3,265.2c-1.2-0.5-1.9-1-2.4-0.9
				s-1.1,0.9-1.1,1.5c-0.1,0.6,0.4,1.3,0.7,1.9C558.1,267.1,558.7,266.6,560.3,265.2z M571.9,274.9c-0.8,2.2-1.3,2.9-1.1,3
				c0.7,0.9,1.6,1.7,2.5,2.5c0.3-0.5,0.8-1.1,0.7-1.4C573.5,277.9,572.9,276.8,571.9,274.9z M529.3,213.1c0.9-0.7,1.7-1.3,2.4-1.8
				c-0.7-0.2-1.4-0.4-2-0.4c-0.7,0-1.3,0.3-2,0.5C528.2,211.9,528.7,212.4,529.3,213.1z M644.2,261.2c-0.4-0.2-0.9-0.5-1.3-0.5
				c-0.4,0-0.9,0.2-1.3,0.4c0.4,0.2,0.9,0.5,1.3,0.5C643.3,261.7,643.8,261.4,644.2,261.2z M770.7,672.9c-0.3-0.4-0.5-0.8-0.8-1.1
				c-0.2-0.1-0.7,0.1-1.1,0.2c0.2,0.4,0.3,1,0.7,1.1C769.8,673.2,770.3,673,770.7,672.9z M579,362.8c-0.1,0.2-0.3,0.4-0.3,0.6
				s0.1,0.5,0.2,0.7c0.1-0.2,0.3-0.4,0.3-0.6C579.2,363.2,579.1,363,579,362.8z"/>
			<path d="M521.6,332.7c-1.3,2.4-0.2,3.5,2.2,4.5c0.8,0.3,1,2.2,1.5,3.3c2,5,4.2,9.8,9.3,12.8c5.7,3.3,6,7.9,1.5,12.6
				c-0.5,0.5-1.2,0.9-1.8,1.4c0.7,0.2,1.3,0.5,2,0.5c1.6,0.1,3.2-0.2,4.7,0.2c1.7,0.5,3.9,1.1,4.5,2.4c3.4,6.6,6.6,13.1,5.1,21.1
				c-1.2,6.3-4.9,10.7-8.7,15.3c-1.4,1.8-2.9,1.1-4.8,0.8c-5.4-1-6.1-0.4-6.8,5.3c-0.6,4.8-6,11.4-10.4,12.2c-1.2,0.2-3-0.7-3.9-1.7
				c-3.5-3.7-6.6-4.8-11.5-1.6c-3,2-7.4,2-11.2,2.5c-3.1,0.4-5.9-3.4-4.8-7.1c1-3.5,1-5.2-3.2-5.7c-4-0.5-4.4-4.7-6.2-7.4
				c-0.5-0.8-0.4-2-0.6-3c-1.1-4.2-4.1-7.8-5.9-7c-1.7,0.7-5,7.2-4.3,9.2c1.1,3,1,5.1-2.3,6.2c-2.4,0.8-2.6,2.8-3.4,4.8
				c-1.6,3.9-3.2,4.5-7.3,3.8c-2.5-0.4-5-0.6-7.5-1c-1.2-0.2-2.8-0.1-3.6-0.8c-3.1-2.8-5.5-6.8-10.8-5.5c-0.7,0.2-2.4-1.5-2.7-2.5
				c-1.4-5.7-6.1-8.7-9.7-12.7c-1.2-1.4-2.4-2.7-3.4-4.2c-2.7-4.1-2.5-4.3,1.6-7.3c3.5-2.5,6-6.4,11.3-5.4c1,0.2,2.3-1.8,3.5-2.7
				c-0.8-0.8-1.7-1.5-2.5-2.3c-0.6-0.5-1.2-1-1.6-1.7c-1.3-1.5-3.6-3.3-1.8-5.2c1.8-1.9,4-5.2,7-3.5c5.1,2.8,7.7-1.5,10.5-3.5
				c2.6-1.9,4.7-5.2,5-9.3c0.2-3,1.7-5.9,2.9-8.8c2.1-5.1,4.7-6.3,10.3-5.4c0.8,0.1,1.5,0.2,2.3,0.4c3.3,0.8,5.6-0.4,6.6-3.6
				c0.6-1.7,0.8-3.6,1.6-5.1c0.5-0.9,2.2-2.2,2.7-2c6.4,3.1,11.7-0.8,16.9-3.1c3.9-1.7,7.6-1.6,11.4-1.5c3.5,0,7.1,0.9,10.7,1.4
				C519.9,323.2,522.1,326.8,521.6,332.7z M518.3,334.1c0.7-7.1,0.1-7.8-6.9-8.1c-1.3,0-2.5-0.6-3.8-0.9c-4.9-1.1-9.6-1.2-14.4,1.1
				c-3.6,1.8-7.6,3.6-11.5,3.7c-3.4,0-4.9,0.5-6.4,3.5c-3.4,7.1-3.6,7.1-11.1,6.4c-6.9-0.6-7.2-0.7-9.1,6.1
				c-1.7,5.9-4.1,11.4-6.6,17c-0.3,0.7-1,1.8-1.2,1.8c-4.8-1.1-8.2,4.8-13.2,2.6c-0.6-0.3-1.8,0.7-2.7,1.2c0.5,0.7,0.9,1.6,1.6,1.9
				c1.9,0.9,3.8,1.5,5.8,2.2s2.5,2.4,0.9,3.4c-3.9,2.3-6.4,6.6-11.9,6.6c-2.7,0-5.4,3.3-8.1,5.1c1.4,2.1,2.6,4.2,4.2,6.1
				s3.4,4,5.5,5.3c1.8,1.1,2.5,2.4,2.6,4.3c0.1,3.5,1.4,5.4,5.4,4.1c1.1-0.4,3.3,0.2,4.1,1.2c2.8,3.4,5.7,5,10.6,4.5
				c5.4-0.5,5.5,0.3,8.2-4c0.4-0.6,1-1.3,1.6-1.6c2.3-1.1,3-3,2.2-5.2c-1.3-3.7-0.7-6.3,3.4-7.5c0.4-0.1,0.6-0.8,1-1.2
				c3.8-4.2,5-4.3,9.2-0.7c2.1,1.9,4,4,4.2,7.2c0.3,4.4,1.5,8,7.1,8.5c2.9,0.3,4.1,2.7,3.7,5.8c-0.8,6.2-0.8,6.2,5.1,5
				c1.5-0.3,3.6,0.1,4.5-0.8c5.1-4.9,9.7-2.6,14.6,0.4c3.8,2.4,8,0.7,9.9-3.7c0.7-1.6,1-3.5,1.3-5.3c1-5.4,1.7-6.7,6.8-6.3
				c5.5,0.4,7.8-2.4,10-6.6c3.6-6.9,4.2-13.6-0.2-20.3c-1.2-1.8,0.1-5.2-3.2-5.6c-2.6-0.3-5.2-0.4-7.7,0.1c-1.6,0.3-2.8,2.1-4.4,3
				c-1,0.5-2.2,0.6-3.3,0.9c-0.2-1.2-0.9-2.5-0.7-3.7c0.8-4.1,4.2-5.6,7.4-7.4c4-2.3,3.9-2.3,0-5.2c-1.2-0.9-2-2.2-2.9-3.5
				c-2.2-3.4-5.3-6.7-6.3-10.5C522.2,341.1,516.1,339.4,518.3,334.1z"/>
			<path d="M490.5,88.3c2.5,0.7,4,1.2,5.5,1.5c1.8,0.4,2.5-0.5,1.9-2.1c-1.1-2.8,0.2-4.5,2.4-5.8c6.6-4.1,13.1-8.3,19.8-12.3
				c3.4-2,4.4-1.4,5.2,2.5c0.5,2.3,1.2,4.6,1.3,6.8c0.1,1.7,0,4.2-1,5.1c-6,5-6.7,12.2-7.7,18.9c-1,6.5-3.2,11.2-10.2,12.8
				c-2.1,0.5-3.8,2.5-5.6,4c-2.6,2.1-4.9,4.5-7.6,6.3c-4.4,2.8-9.1,1-11-4.1c-0.3-0.8,0.4-2.4,1.1-3.2c2-2.2,7.2-1.1,6.9-4.9
				c-0.1-1.8-4.2-3.3-6.4-5c-1.9-1.4-3-2.8-0.3-4.9c0.6-0.5-0.1-2.7,0-4c0.2-2.8,0-5.8,1.1-8.1C486.5,90.1,489.2,89.2,490.5,88.3z
				 M523.6,79.6c-0.4-1.9-0.6-3.4-1-4.9c-0.5-1.9-1.4-2.3-3.3-1.1c-5.4,3.5-10.9,6.9-16.5,10.2c-1.5,0.9-2.1,1.7-1.9,3.7
				c0.7,6.7,0.5,6.7-6.2,5.2c-0.8-0.2-1.5-0.4-2.3-0.5c-2.2-0.3-4.2-0.1-4.8,2.6c-0.7,2.9,0.4,5.7,3.2,6c4.2,0.4,6.9,3.3,10.1,5.4
				c2.2,1.4,4.1,3.1,6.1,4.7c2.2,1.8,4.1,1.1,5-1.1c1.4-3.6,2.6-7.3,3.3-11c1.1-5.6,1.7-11.2,6.4-15.3
				C522.8,82.5,523.1,80.7,523.6,79.6z M490.4,104.8c-0.8,0.7-1.5,1.2-1.9,1.8c-0.1,0.2,0.2,0.9,0.5,1.2c0.8,0.7,1.7,1.1,2.5,1.7
				c2,1.5,5.5,2.8,5.8,4.7c0.6,3.7-4.4,2.3-6,4.6c-1,1.4-4.7,1.2-2.7,4.3c1.7,2.6,3.6,0.5,5.3-0.5c0.4-0.3,1-0.5,1.3-0.8
				c2.5-2.7,5-5.5,7.4-8.2c-2.3-2-4.6-4-7-6c-0.6-0.5-1.2-1-1.9-1.3C492.8,105.7,491.6,105.3,490.4,104.8z"/>
			<path d="M660.8,48.3c-2.5,0.9-4.4,3.8-7.7,2.5c-4-1.5-5.8-5-7.7-8.3c-0.5-1-0.7-3-0.1-3.6c3.5-3.6,2.6-8.1,2.8-12.4
				c0.3-6,2-7.5,8.1-7c2.1,0.2,2.9,0,2-2.3c-1.1-2.6,0.4-3.3,2.6-3.1c1.2,0.1,2.8,0.4,3.5,1.2c1.1,1.2,1.6,3,2.4,4.5
				c-1.5,0.7-3,1.3-4.4,2c-0.1-0.2-0.1-0.4-0.2-0.5c-0.1-0.1-0.3-0.1-0.4-0.1c0.2,0.2,0.5,0.4,0.7,0.6c1,1.6,2.1,3.2,3.1,4.8
				c-0.2,0.2-0.3,0.4-0.5,0.6c0.1-0.2,0.2-0.4,0.4-0.7c1.7-1.1,3.3-2.4,5.4-0.3c2.2,2.3,2.2,3.3-0.8,5c-0.6,0.4-1.4,0.6-2,0.9
				c0.7,0.7,1.4,1.5,2.2,1.9c0.9,0.4,2.1,0.1,3,0.5c1.2,0.6,3.1,1.7,3.1,2.5c-0.1,1.5-0.9,3.5-2.1,4.4c-1.5,1.2-3.7,1.6-5.7,2.3
				l0.1,0.1c-2.3-4-5.2-6.7-10.3-4.6c-0.6,0.3-1.5,0-2.2-0.1c-1-0.5-2.1-1-3.1-1.6c-0.7-0.2-1.4-0.4-2.1-0.6
				c0.7,0.2,1.5,0.4,2.2,0.5c1,0.5,2.1,1,3.1,1.5C655.1,43.4,659.7,45,660.8,48.3L660.8,48.3z M667.1,35.8c0.5,0.5,1,1,1.6,1.6
				c0.7,0.5,1.4,1.2,2.2,1.5c0.3,0.1,0.8-0.3,1.3-0.5c-0.5-0.3-0.9-0.7-1.4-0.8c-0.7-0.2-1.4-0.1-2.2-0.2
				C668,37,667.5,36.4,667.1,35.8c-0.6-0.4-1.1-1-1.6-1.5c-1.1-0.4-2.2-1-3.4-1.3c-2.6-0.6-4-2.5-2.3-4.3c3-3.4,0.6-4.1-1.8-5.2
				c-1.8-0.8-3.8-2.2-5.5,0c-2.2,2.7-0.7,8.7,2.2,10.7c3.8,2.7,7.3,0.8,11,0.1C666,34.8,666.6,35.3,667.1,35.8z M655.2,46
				c-1.4-1.6-3-3.7-4.8-5.7c-0.2-0.3-1.2-0.3-1.3-0.2c-0.2,0.7-0.7,1.6-0.4,2c1.5,1.9,3.3,3.7,5,5.5c0.2,0.2,0.9-0.1,1.3-0.2
				C655.1,47.4,655.1,47,655.2,46z"/>
			<path d="M476.7,129.5c3.7-0.6,6.2,0.3,8.4,2.5c3.2,3.2,3.5,3.7,1.3,8c-1.7,3.2-3.7,6.2-5.5,9.4c-1.5,2.7-3.6,5.2-0.3,8.2
				c0.8,0.7,0.7,3.2,0.1,4.2c-2.2,3.5-2.4,7.3-2.3,11.2c0.1,2.1,0.2,4.5-2.7,4.7c-2.6,0.2-5.7,0.3-6.6-2.7c-1-3.7-1.8-7.6-1.6-11.4
				c0.4-6.3,1.6-12.5,2.6-18.8c0.5-3-1.7-4-3.7-5.3c-2.3-1.5-2.3-3.1-0.5-5.1C469.1,131.4,472.1,128.1,476.7,129.5z M473.3,145.8
				c-0.2,0.7-0.8,1.6-0.5,2.2c0.4,0.8,1.2,1.7,2,1.9c0.7,0.2,2.2,0.1,2.5-0.5c2.3-3.7,4.6-7.4,6.5-11.3c0.5-0.9-0.2-3.1-1.1-3.8
				c-3-2.6-9.2-2.3-12,0.4c-1.2,1.1-2.1,2.6-0.2,3.8C473.2,140.3,474.1,142.7,473.3,145.8z M473,155.5c-0.2,0.3-0.6,0.7-0.7,1.1
				c-0.6,3-1.5,5.9-1.7,8.9c-0.2,2.2,0.2,4.6,0.7,6.8c0.2,0.8,1.3,1.3,2,2c0.6-0.7,1.6-1.3,1.6-2.1c0.2-3.8,0-7.6,2.7-10.9
				C478.8,159.9,474.9,155.1,473,155.5z"/>
			<path d="M584.4,412.9c0-0.6,0.1-1.7-0.2-2.7c-1.8-5-0.2-8.2,4.3-10.9c2.1-1.2,3.2-4,5-5.8c2-1.9,4.2-3.8,6.6-5
				c0.9-0.5,3,0.6,4,1.5c0.5,0.4,0.2,2.5-0.4,3.3c-1,1.5-1.1,2.3-0.3,4.1c2.3,5,0.4,9.8-4.7,13c-2.8,1.8-5.5,3.8-8.2,5.8
				c-1.6,1.1-2.5,3.5-5.2,2.4C582.3,417.2,583.6,415.2,584.4,412.9z M599,392.1c-0.7,0.4-0.9,0.5-1.1,0.7c-3.5,3.7-7,7.5-10.4,11.2
				c-2.7,3-0.3,6.4,0.7,8.7c0.8,1.8,2.6-1.6,4.1-2.4c1.8-1,3.6-2,5.2-3.2c3.7-2.9,3.9-4.6,2.1-9.1c-0.5-1.2-0.2-2.8-0.4-4.2
				C599.3,393.3,599.1,392.8,599,392.1z"/>
			<path d="M683.3,25c-1.5,0.7-2.4,1.6-3.1,1.4c-2.7-0.6-5.3-1.2-7.8-2.3c-3.3-1.4-3.2-4.6-2.8-7.3c0.3-2.3-0.9-2.4-2.4-3
				c-1.9-0.8-3.6-2-5.4-3.1c-1.5-1-3.4-2.1-1.8-4.3c1.3-1.8,3-4.3,5.6-2.1c2.9,2.4,7.9,3,7.3,8.8c-0.1,1.3,3.4,2.9,4.9,4.6
				C679.8,19.9,681.3,22.2,683.3,25z M667.1,9.3c0,0.2,0.1,0.4,0.2,0.6c0.1,0.1,0.3,0.1,0.5,0.2C667.5,9.9,667.2,9.6,667.1,9.3
				c-0.6-0.3-1.1-0.7-1.6-1.1c-0.1,0.2-0.2,0.5-0.4,0.8C665.8,9.1,666.4,9.2,667.1,9.3z"/>
			<path d="M573.6,299.2c0.1,5.8-1.3,8-5.2,8.9c-3.7,0.9-8.6-2.1-10.1-6.6c-1-2.9-1.5-6-1.8-9c-0.3-2.4,5.7-8.5,8.1-8.6
				c2.9-0.1,4.9,2.5,6,6.9C571.3,293.9,572.7,296.9,573.6,299.2z M560.1,292.4c0.8,3.6,1.1,6.7,2.3,9.5c1.3,3.3,4,4.3,6,3
				c2.4-1.5,2.5-4.3,1.4-6.1c-1.7-2.7-2.6-5.5-2.9-8.6c-0.1-1-1.3-2.1-2.3-2.5c-0.5-0.2-1.9,0.7-2.5,1.4
				C561.1,290.1,560.5,291.5,560.1,292.4z"/>
			<path d="M682.9,7.8c0.2-0.1,1.3-0.7,2.5-1.2c1.8-0.8,3.7-0.9,4.6,1.2c0.9,2.1,0.5,4.3-1.6,5.3c-2.3,1-4.8,1.7-7.3,1.9
				s-4.5-2.8-4-5.4C677.4,7.9,678.6,7.4,682.9,7.8z M680.6,11.7c0.2,0.1,0.5,0.1,0.7,0.2c-0.2-0.2-0.3-0.4-0.5-0.7
				C680.8,11.4,680.7,11.6,680.6,11.7z"/>
			<path d="M498.6,220c-1.6-2.1-1.9-4.2,0.5-6c3.3-2.4,6.6-4.8,10.1-6.9c1.9-1.1,2.8,0,2.6,2.1c-0.3,3.6-1.9,6.2-5.4,7.6
				C503.8,217.8,501.2,218.9,498.6,220L498.6,220z M506.8,212.7c-0.2-0.1-0.4-0.1-0.6-0.1c0.1,0.2,0.3,0.4,0.4,0.6
				C506.7,213,506.8,212.9,506.8,212.7z"/>
			<path d="M518.9,191.8c-1.6-0.7-3.6-1-4.7-2.2c-1.4-1.6-3.2-4.3-2.6-5.6c0.7-1.6,3.5-2.7,5.6-3.2c2.7-0.7,4.2,1.2,4.9,3.6
				c0.2,0.7,0.2,1.5,0.2,2.3c-0.2,0.3-0.4,0.6-0.7,0.9c-0.4,0.8-0.7,1.6-1.1,2.5l-0.4,0.4C519.7,191,519.3,191.4,518.9,191.8
				L518.9,191.8z M516.8,188.1c0.8-1,1.7-1.8,1.5-2.2c-0.3-0.7-1.1-1.3-1.8-1.7c-0.2-0.1-1.4,1-1.3,1.2
				C515.5,186.4,516.1,187.1,516.8,188.1z"/>
			<path d="M498.6,219.9c-0.1,4.4-3.7,5.8-6.7,7.5c-2.1,1.2-4,0.4-5-1.8c-0.9-1.9,0.6-5.2,2.7-5.4c3-0.4,6.1-0.1,9.1-0.1
				L498.6,219.9z M491.4,224c0-0.2,0-0.4-0.1-0.5c-0.2-0.1-0.4-0.1-0.7-0.1c0.1,0.3,0.1,0.5,0.2,0.8
				C491,224.1,491.2,224.1,491.4,224z"/>
			<path d="M472.1,184.3c-0.3,3-4.1,6.9-6.3,7c-0.5,0-1-0.2-1.4-0.4c-1.7-0.9-1.8-2.2-1.1-3.9c1.8-4.6,4-6.9,5.9-5.9
				C470.5,181.9,471.4,183.5,472.1,184.3z"/>
			<path d="M668.5,43.6c0,2.1,0,4.1,0.1,6.2c0.1,3.1-2.1,4.1-4.5,4.2c-2.7,0.2-3.4-1.8-3.3-4.2c0-0.5,0-1,0-1.5l-0.1,0.1
				c1.8-3,3.9-5.4,7.9-4.7L668.5,43.6z M664.8,49.2c-0.1,0.2-0.3,0.4-0.3,0.6c0,0.2,0.1,0.5,0.2,0.7c0.1-0.2,0.3-0.4,0.3-0.6
				C665,49.7,664.9,49.4,664.8,49.2z"/>
			<path d="M522.3,186.7c2.8-0.8,4.6,0.1,4.4,3.1c-0.2,2.6-2.7,4.8-5,4.2c-1-0.2-1.9-1.4-2.8-2.2l-0.1,0.1c0.5-0.5,0.9-0.9,1.4-1.4
				l0.4-0.4c0.4-0.8,0.7-1.6,1.1-2.5C521.9,187.3,522.1,187,522.3,186.7z"/>
		</g>
	</g>
	<line class="st1" x1="785" y1="627.1" x2="3.6" y2="627.1"/>
	<circle cx="785" cy="627.1" r="13.3"/>
	<circle cx="713.2" cy="651.4" r="13.3"/>
	<polyline class="st1" points="713.2,651.4 713.2,800.2 113.2,800.2 	"/>
	<circle cx="715.2" cy="522.9" r="13.3"/>
	<line class="st1" x1="715.2" y1="522.9" x2="64" y2="522.9"/>
	<g>
		<g>
			<path d="M69.7,509.7v-31.2h13.1c1.4,0,2.7,0.3,3.9,0.9c1.2,0.6,2.2,1.4,3.1,2.3c0.9,1,1.6,2.1,2,3.3c0.5,1.2,0.7,2.4,0.7,3.7
				c0,1.7-0.4,3.4-1.2,4.9c-0.8,1.6-1.9,2.8-3.3,3.8c-1.4,1-3.1,1.5-5,1.5h-8.4v10.9H69.7z M74.7,494.5h8.1c0.9,0,1.7-0.3,2.4-0.8
				c0.7-0.5,1.3-1.2,1.7-2.1c0.4-0.9,0.6-1.9,0.6-3c0-1.1-0.2-2.1-0.7-3s-1.1-1.5-1.8-2c-0.7-0.5-1.5-0.7-2.4-0.7h-7.9V494.5z"/>
			<path d="M96.6,477.6h4.8v25.6c0,1.1,0.2,1.9,0.5,2.2c0.4,0.3,0.8,0.5,1.3,0.5c0.6,0,1.1-0.1,1.6-0.2c0.5-0.1,1-0.3,1.3-0.4
				l0.7,3.8c-0.7,0.3-1.5,0.5-2.5,0.7c-1,0.2-1.8,0.3-2.6,0.3c-1.7,0-3-0.5-3.9-1.4s-1.4-2.2-1.4-3.9V477.6z"/>
			<path d="M108.1,503.1c0-1.5,0.4-2.7,1.3-3.8s2-1.9,3.5-2.5c1.5-0.6,3.2-0.9,5.1-0.9c1,0,2.1,0.1,3.1,0.2c1.1,0.2,2,0.4,2.9,0.7
				v-1.4c0-1.6-0.5-2.8-1.5-3.7c-1-0.9-2.4-1.3-4.2-1.3c-1.3,0-2.5,0.2-3.7,0.7s-2.4,1.1-3.7,2l-1.6-3.3c1.5-1,3-1.8,4.5-2.3
				c1.6-0.5,3.2-0.8,4.9-0.8c3.1,0,5.5,0.8,7.3,2.4c1.8,1.6,2.6,3.9,2.6,6.9v8.5c0,0.6,0.1,0.9,0.3,1.2c0.2,0.2,0.5,0.4,1,0.4v3.9
				c-0.4,0.1-0.8,0.1-1.2,0.2c-0.3,0-0.6,0.1-0.9,0.1c-1.1,0-1.8-0.3-2.4-0.8c-0.5-0.5-0.8-1.1-0.9-1.8l-0.1-1.3
				c-1,1.3-2.2,2.3-3.8,3c-1.6,0.7-3.1,1.1-4.7,1.1c-1.5,0-2.9-0.3-4.1-0.9c-1.2-0.6-2.1-1.5-2.8-2.6
				C108.4,505.6,108.1,504.4,108.1,503.1z M122.7,504.5c0.3-0.4,0.6-0.8,0.8-1.2c0.2-0.4,0.3-0.7,0.3-1v-2.6
				c-0.8-0.3-1.7-0.6-2.6-0.7c-0.9-0.2-1.8-0.2-2.6-0.2c-1.8,0-3.2,0.3-4.3,1s-1.6,1.6-1.6,2.9c0,0.7,0.2,1.3,0.5,1.9
				c0.4,0.6,0.9,1.1,1.6,1.5c0.7,0.4,1.5,0.6,2.5,0.6c1.1,0,2.1-0.2,3.1-0.6C121.4,505.6,122.2,505.1,122.7,504.5z"/>
			<path d="M142.8,510.2c-1.9,0-3.8-0.3-5.5-1c-1.7-0.6-3.2-1.6-4.4-2.9l1.8-3.2c1.3,1.1,2.7,2,4,2.5c1.3,0.5,2.7,0.8,4,0.8
				c1.4,0,2.5-0.3,3.3-0.8s1.3-1.2,1.3-2.2c0-0.7-0.2-1.3-0.7-1.6c-0.5-0.3-1.1-0.7-1.9-0.9c-0.8-0.3-1.8-0.6-3-0.9
				c-1.6-0.5-3-1-4.1-1.5c-1.1-0.5-2-1.2-2.5-2c-0.6-0.8-0.8-1.8-0.8-3c0-1.5,0.4-2.7,1.1-3.7c0.8-1,1.8-1.9,3.2-2.4
				c1.4-0.6,2.9-0.9,4.7-0.9c1.7,0,3.2,0.3,4.6,0.8c1.4,0.5,2.7,1.3,3.8,2.4l-2.1,3.2c-1-0.9-2-1.6-3.1-2c-1.1-0.4-2.2-0.7-3.5-0.7
				c-0.7,0-1.3,0.1-2,0.2c-0.7,0.2-1.2,0.5-1.6,0.9c-0.4,0.4-0.7,1-0.7,1.8c0,0.6,0.2,1.1,0.5,1.5c0.4,0.4,0.9,0.7,1.6,0.9
				c0.7,0.3,1.6,0.6,2.6,0.9c1.8,0.5,3.3,1,4.6,1.5s2.2,1.2,2.9,2c0.7,0.8,1,1.9,1,3.3c0,2.2-0.8,3.9-2.5,5.1
				C147.7,509.5,145.5,510.2,142.8,510.2z"/>
			<path d="M169,508.6c-0.4,0.2-0.9,0.4-1.5,0.6c-0.6,0.2-1.3,0.5-2.1,0.6c-0.8,0.2-1.6,0.3-2.4,0.3c-1,0-1.9-0.2-2.8-0.5
				c-0.9-0.4-1.5-0.9-2-1.7s-0.8-1.7-0.8-2.9v-14.4h-3.1v-3.7h3.1v-7.6h4.8v7.6h5v3.7h-5v12.8c0.1,0.8,0.3,1.4,0.8,1.8
				c0.5,0.4,1,0.6,1.7,0.6c0.7,0,1.3-0.1,2-0.4c0.6-0.2,1.1-0.4,1.3-0.5L169,508.6z"/>
			<path d="M172.3,482.9v-5.3h4.8v5.3H172.3z M172.3,509.7v-23h4.8v23H172.3z"/>
			<path d="M193.4,510.2c-1.8,0-3.4-0.3-4.9-0.9c-1.5-0.6-2.7-1.5-3.8-2.6c-1.1-1.1-1.9-2.4-2.4-3.8c-0.6-1.4-0.9-2.9-0.9-4.5
				c0-2.2,0.5-4.1,1.5-5.9c1-1.8,2.4-3.2,4.2-4.3c1.8-1.1,3.9-1.6,6.3-1.6c2.3,0,4.4,0.5,6.1,1.6c1.7,1,3,2.4,3.9,4.2l-4.8,1.5
				c-0.5-0.9-1.3-1.7-2.2-2.2c-0.9-0.5-2-0.8-3.2-0.8c-1.3,0-2.5,0.3-3.5,1c-1,0.7-1.9,1.5-2.5,2.7c-0.6,1.1-0.9,2.5-0.9,4
				c0,1.5,0.3,2.8,0.9,3.9c0.6,1.2,1.5,2.1,2.5,2.8c1.1,0.7,2.2,1,3.5,1c0.8,0,1.6-0.1,2.3-0.4c0.7-0.3,1.4-0.7,2-1.2
				c0.6-0.5,1-1,1.2-1.6l4.7,1.5c-0.5,1.1-1.2,2.1-2.2,3c-1,0.9-2.1,1.6-3.5,2.1C196.5,509.9,195,510.2,193.4,510.2z"/>
			<path d="M219.1,509.7v-31.2h13.1c1.4,0,2.7,0.3,3.9,0.9c1.2,0.6,2.2,1.4,3.1,2.3c0.9,1,1.6,2.1,2,3.3c0.5,1.2,0.7,2.4,0.7,3.7
				c0,1.7-0.4,3.4-1.2,4.9c-0.8,1.6-1.9,2.8-3.3,3.8c-1.4,1-3.1,1.5-5,1.5H224v10.9H219.1z M224,494.5h8.1c0.9,0,1.7-0.3,2.4-0.8
				c0.7-0.5,1.3-1.2,1.7-2.1c0.4-0.9,0.6-1.9,0.6-3c0-1.1-0.2-2.1-0.7-3s-1.1-1.5-1.8-2c-0.7-0.5-1.5-0.7-2.4-0.7H224V494.5z"/>
			<path d="M258.7,490.9c-1.8,0-3.5,0.5-4.9,1.3c-1.5,0.8-2.5,2-3.1,3.5v14.1h-4.8v-22.8h4.4v4.9c0.8-1.6,1.9-2.8,3.2-3.8
				c1.3-1,2.6-1.5,4-1.6c0.3,0,0.6,0,0.8,0c0.2,0,0.3,0,0.5,0V490.9z"/>
			<path d="M272.6,510.2c-1.8,0-3.4-0.3-4.9-0.9c-1.4-0.6-2.7-1.5-3.7-2.6c-1-1.1-1.8-2.4-2.4-3.8c-0.6-1.4-0.8-2.9-0.8-4.5
				c0-1.6,0.3-3.1,0.8-4.6c0.6-1.4,1.4-2.7,2.4-3.8c1-1.1,2.3-2,3.7-2.6c1.5-0.6,3.1-0.9,4.9-0.9c1.8,0,3.4,0.3,4.9,0.9
				c1.4,0.6,2.7,1.5,3.7,2.6c1.1,1.1,1.9,2.4,2.4,3.8c0.6,1.4,0.8,2.9,0.8,4.6c0,1.6-0.3,3.1-0.8,4.5c-0.6,1.4-1.4,2.7-2.4,3.8
				c-1,1.1-2.3,2-3.7,2.6C276.1,509.8,274.4,510.2,272.6,510.2z M265.8,498.3c0,1.5,0.3,2.8,0.9,3.9c0.6,1.2,1.4,2.1,2.5,2.7
				c1,0.7,2.2,1,3.4,1c1.3,0,2.5-0.3,3.5-1c1-0.7,1.8-1.6,2.5-2.8c0.6-1.2,0.9-2.5,0.9-3.9c0-1.4-0.3-2.8-0.9-3.9
				c-0.6-1.2-1.4-2.1-2.5-2.8c-1-0.7-2.2-1-3.5-1c-1.3,0-2.4,0.3-3.5,1c-1,0.7-1.8,1.6-2.5,2.8C266.1,495.6,265.8,496.9,265.8,498.3
				z"/>
			<path d="M287.3,498.3c0-2.2,0.4-4.2,1.3-6c0.9-1.8,2.1-3.2,3.7-4.3c1.6-1.1,3.3-1.6,5.4-1.6c1.8,0,3.4,0.5,4.8,1.4
				c1.4,0.9,2.5,2,3.3,3.3v-13.6h4.8v26.7c0,0.5,0.1,0.9,0.3,1.2c0.2,0.2,0.5,0.4,1,0.4v3.9c-0.9,0.1-1.6,0.2-2.1,0.3
				c-0.9,0-1.7-0.3-2.3-0.8c-0.6-0.5-1-1.2-1-1.9l0-1.7c-0.9,1.4-2.1,2.6-3.6,3.4c-1.5,0.8-3,1.2-4.6,1.2c-1.6,0-3-0.3-4.4-0.9
				c-1.3-0.6-2.5-1.5-3.5-2.6c-1-1.1-1.7-2.3-2.3-3.7C287.6,501.5,287.3,500,287.3,498.3z M305.8,501.5v-5.9
				c-0.3-0.9-0.8-1.7-1.6-2.5c-0.7-0.7-1.5-1.3-2.4-1.8c-0.9-0.4-1.8-0.7-2.7-0.7c-1,0-1.9,0.2-2.8,0.7c-0.8,0.4-1.6,1-2.2,1.7
				c-0.6,0.7-1.1,1.5-1.4,2.5c-0.3,0.9-0.5,1.9-0.5,2.9s0.2,2,0.5,2.9c0.4,0.9,0.9,1.7,1.5,2.5c0.7,0.7,1.4,1.3,2.3,1.6
				c0.9,0.4,1.8,0.6,2.8,0.6c0.6,0,1.3-0.1,2-0.3c0.7-0.2,1.3-0.5,1.9-0.9c0.6-0.4,1.1-0.9,1.5-1.5
				C305.3,502.7,305.6,502.1,305.8,501.5z"/>
			<path d="M316.6,500.9v-14h4.8v13c0,2,0.4,3.6,1.1,4.6c0.7,1,1.8,1.5,3.3,1.5c0.9,0,1.8-0.2,2.7-0.6c0.9-0.4,1.7-0.9,2.4-1.7
				c0.7-0.7,1.3-1.6,1.7-2.7v-14.2h4.8v17.4c0,0.5,0.1,0.9,0.3,1.2c0.2,0.2,0.5,0.4,1,0.4v3.9c-0.5,0.1-0.9,0.1-1.3,0.2
				c-0.3,0-0.6,0-0.9,0.1c-0.9,0-1.7-0.3-2.2-0.7c-0.6-0.5-0.9-1.1-1-1.8l-0.1-2.2c-1,1.6-2.3,2.8-4,3.7s-3.5,1.3-5.4,1.3
				c-2.4,0-4.2-0.8-5.5-2.4C317.2,506.2,316.6,503.9,316.6,500.9z"/>
			<path d="M354,510.2c-1.8,0-3.4-0.3-4.9-0.9c-1.5-0.6-2.7-1.5-3.8-2.6c-1.1-1.1-1.9-2.4-2.4-3.8c-0.6-1.4-0.9-2.9-0.9-4.5
				c0-2.2,0.5-4.1,1.5-5.9c1-1.8,2.4-3.2,4.2-4.3c1.8-1.1,3.9-1.6,6.3-1.6c2.3,0,4.4,0.5,6.1,1.6c1.7,1,3,2.4,3.9,4.2l-4.8,1.5
				c-0.5-0.9-1.3-1.7-2.2-2.2c-0.9-0.5-2-0.8-3.2-0.8c-1.3,0-2.5,0.3-3.5,1c-1,0.7-1.9,1.5-2.5,2.7c-0.6,1.1-0.9,2.5-0.9,4
				c0,1.5,0.3,2.8,0.9,3.9c0.6,1.2,1.5,2.1,2.5,2.8c1.1,0.7,2.2,1,3.5,1c0.8,0,1.6-0.1,2.3-0.4c0.7-0.3,1.4-0.7,2-1.2
				c0.6-0.5,1-1,1.2-1.6l4.7,1.5c-0.5,1.1-1.2,2.1-2.2,3c-1,0.9-2.1,1.6-3.5,2.1C357.1,509.9,355.7,510.2,354,510.2z"/>
			<path d="M381,508.6c-0.4,0.2-0.9,0.4-1.5,0.6c-0.6,0.2-1.3,0.5-2.1,0.6c-0.8,0.2-1.6,0.3-2.4,0.3c-1,0-1.9-0.2-2.8-0.5
				c-0.9-0.4-1.5-0.9-2-1.7s-0.8-1.7-0.8-2.9v-14.4h-3.1v-3.7h3.1v-7.6h4.8v7.6h5v3.7h-5v12.8c0.1,0.8,0.3,1.4,0.8,1.8
				c0.5,0.4,1,0.6,1.7,0.6c0.7,0,1.3-0.1,2-0.4c0.6-0.2,1.1-0.4,1.3-0.5L381,508.6z"/>
			<path d="M384.4,482.9v-5.3h4.8v5.3H384.4z M384.4,509.7v-23h4.8v23H384.4z"/>
			<path d="M405.3,510.2c-1.8,0-3.4-0.3-4.9-0.9c-1.4-0.6-2.7-1.5-3.7-2.6c-1-1.1-1.8-2.4-2.4-3.8c-0.6-1.4-0.8-2.9-0.8-4.5
				c0-1.6,0.3-3.1,0.8-4.6c0.6-1.4,1.4-2.7,2.4-3.8c1-1.1,2.3-2,3.7-2.6c1.5-0.6,3.1-0.9,4.9-0.9c1.8,0,3.4,0.3,4.9,0.9
				c1.4,0.6,2.7,1.5,3.7,2.6c1.1,1.1,1.9,2.4,2.4,3.8c0.6,1.4,0.8,2.9,0.8,4.6c0,1.6-0.3,3.1-0.8,4.5c-0.6,1.4-1.4,2.7-2.4,3.8
				c-1,1.1-2.3,2-3.7,2.6C408.8,509.8,407.1,510.2,405.3,510.2z M398.5,498.3c0,1.5,0.3,2.8,0.9,3.9c0.6,1.2,1.4,2.1,2.5,2.7
				c1,0.7,2.2,1,3.4,1c1.3,0,2.5-0.3,3.5-1c1-0.7,1.8-1.6,2.5-2.8c0.6-1.2,0.9-2.5,0.9-3.9c0-1.4-0.3-2.8-0.9-3.9
				c-0.6-1.2-1.4-2.1-2.5-2.8c-1-0.7-2.2-1-3.5-1c-1.3,0-2.4,0.3-3.5,1c-1,0.7-1.8,1.6-2.5,2.8C398.8,495.6,398.5,496.9,398.5,498.3
				z"/>
			<path d="M442.1,509.7h-4.8V497c0-2.1-0.4-3.7-1.1-4.7c-0.7-1-1.7-1.5-3.1-1.5c-0.9,0-1.9,0.2-2.8,0.7s-1.7,1.1-2.5,1.9
				c-0.7,0.8-1.3,1.7-1.6,2.7v13.6h-4.8v-22.8h4.4v4.6c0.6-1,1.3-1.9,2.3-2.6c0.9-0.7,2-1.3,3.2-1.7c1.2-0.4,2.5-0.6,3.8-0.6
				c1.4,0,2.5,0.2,3.4,0.7c0.9,0.5,1.6,1.2,2.1,2c0.5,0.9,0.9,1.8,1.1,3c0.2,1.1,0.3,2.3,0.3,3.6V509.7z"/>
		</g>
	</g>
	<g>
		<g>
			<path d="M12.8,608.5v-31.2h11.1c3.4,0,6.2,0.7,8.4,2.1c2.2,1.4,3.9,3.3,5.1,5.6c1.1,2.4,1.7,5,1.7,7.9c0,3.2-0.6,5.9-1.9,8.3
				c-1.2,2.3-3,4.2-5.3,5.5s-5,1.9-8.1,1.9H12.8z M34.1,592.9c0-2.2-0.4-4.1-1.2-5.8c-0.8-1.7-2-3-3.5-4c-1.5-1-3.4-1.5-5.5-1.5
				h-6.1v22.5h6.1c2.2,0,4.1-0.5,5.6-1.5s2.7-2.3,3.5-4C33.7,596.9,34.1,595,34.1,592.9z"/>
			<path d="M54.1,609c-1.8,0-3.4-0.3-4.9-0.9c-1.4-0.6-2.7-1.5-3.7-2.6s-1.9-2.3-2.4-3.8c-0.6-1.4-0.9-2.9-0.9-4.5
				c0-2.2,0.5-4.2,1.5-6c1-1.8,2.4-3.2,4.2-4.3c1.8-1.1,3.9-1.6,6.2-1.6c2.4,0,4.5,0.5,6.3,1.6c1.7,1.1,3.1,2.5,4.1,4.3
				c1,1.8,1.5,3.7,1.5,5.7c0,0.3,0,0.7,0,1c0,0.3-0.1,0.5-0.1,0.7H47.3c0.1,1.4,0.5,2.5,1.2,3.5c0.6,1,1.5,1.8,2.5,2.3
				c1,0.6,2.1,0.8,3.3,0.8c1.3,0,2.6-0.3,3.7-1c1.2-0.6,1.9-1.5,2.4-2.6l4.1,1.2c-0.5,1.1-1.3,2.1-2.3,3c-1,0.9-2.2,1.6-3.6,2.1
				C57.2,608.7,55.7,609,54.1,609z M47.2,595.5h13.9c-0.1-1.3-0.5-2.5-1.1-3.5c-0.6-1-1.5-1.7-2.5-2.3c-1-0.6-2.1-0.8-3.3-0.8
				c-1.2,0-2.4,0.3-3.4,0.8c-1,0.6-1.8,1.3-2.5,2.3C47.7,593,47.3,594.2,47.2,595.5z"/>
			<path d="M78.1,609c-1.9,0-3.8-0.3-5.5-1c-1.7-0.6-3.2-1.6-4.4-2.9l1.8-3.2c1.3,1.1,2.7,2,4,2.5c1.3,0.5,2.7,0.8,4,0.8
				c1.4,0,2.5-0.3,3.3-0.8s1.3-1.2,1.3-2.2c0-0.7-0.2-1.3-0.7-1.6c-0.5-0.3-1.1-0.7-1.9-0.9c-0.8-0.3-1.8-0.6-3-0.9
				c-1.6-0.5-3-1-4.1-1.5c-1.1-0.5-2-1.2-2.5-2c-0.6-0.8-0.8-1.8-0.8-3c0-1.5,0.4-2.7,1.1-3.7c0.8-1,1.8-1.9,3.2-2.4
				c1.4-0.6,2.9-0.9,4.7-0.9c1.7,0,3.2,0.3,4.6,0.8c1.4,0.5,2.7,1.3,3.8,2.4l-2.1,3.2c-1-0.9-2-1.6-3.1-2c-1.1-0.4-2.2-0.7-3.5-0.7
				c-0.7,0-1.3,0.1-2,0.2c-0.7,0.2-1.2,0.5-1.6,0.9c-0.4,0.4-0.7,1-0.7,1.8c0,0.6,0.2,1.1,0.5,1.5c0.4,0.4,0.9,0.7,1.6,0.9
				c0.7,0.3,1.6,0.6,2.6,0.9c1.8,0.5,3.3,1,4.6,1.5s2.2,1.2,2.9,2c0.7,0.8,1,1.9,1,3.3c0,2.2-0.8,3.9-2.5,5.1
				C83,608.3,80.8,609,78.1,609z"/>
			<path d="M91.5,581.7v-5.3h4.8v5.3H91.5z M91.5,608.5v-23h4.8v23H91.5z"/>
			<path d="M111.2,609c-1.6,0-3-0.3-4.3-0.9c-1.3-0.6-2.4-1.5-3.3-2.6c-0.9-1.1-1.6-2.3-2.1-3.7c-0.5-1.4-0.7-2.9-0.7-4.4
				c0-1.6,0.3-3.2,0.8-4.6c0.5-1.4,1.2-2.7,2.2-3.8c1-1.1,2.1-2,3.4-2.6c1.3-0.6,2.7-0.9,4.3-0.9c1.8,0,3.5,0.4,4.9,1.3
				c1.4,0.9,2.5,2,3.5,3.4v-4.3h4.3v22.2c0,2.2-0.5,4.1-1.6,5.6c-1.1,1.5-2.5,2.7-4.4,3.5c-1.8,0.8-3.9,1.2-6.2,1.2
				c-2.6,0-4.7-0.4-6.4-1.3c-1.7-0.9-3.1-2.1-4.3-3.6l2.7-2.6c0.9,1.2,2.1,2.2,3.5,2.8c1.4,0.6,2.9,1,4.5,1c1.3,0,2.5-0.2,3.7-0.7
				c1.1-0.5,2-1.2,2.7-2.2c0.7-1,1-2.2,1-3.7v-3.5c-0.8,1.3-2,2.4-3.4,3.2C114.3,608.6,112.8,609,111.2,609z M112.8,605
				c0.7,0,1.4-0.1,2.1-0.4c0.7-0.3,1.3-0.6,1.9-1c0.6-0.4,1.1-0.9,1.5-1.5c0.4-0.6,0.7-1.1,0.9-1.7v-6c-0.4-1-0.9-1.9-1.6-2.6
				c-0.7-0.7-1.5-1.3-2.4-1.7c-0.9-0.4-1.8-0.6-2.7-0.6c-1.1,0-2,0.2-2.8,0.7c-0.8,0.5-1.5,1.1-2.1,1.8c-0.6,0.7-1,1.6-1.4,2.5
				c-0.3,0.9-0.5,1.9-0.5,2.9c0,1,0.2,2,0.6,2.9c0.4,0.9,0.9,1.7,1.5,2.5c0.6,0.7,1.4,1.3,2.3,1.7C110.9,604.8,111.8,605,112.8,605z
				"/>
			<path d="M150.4,608.5h-4.8v-12.7c0-2.1-0.4-3.7-1.1-4.7c-0.7-1-1.7-1.5-3.1-1.5c-0.9,0-1.9,0.2-2.8,0.7s-1.7,1.1-2.5,1.9
				c-0.7,0.8-1.3,1.7-1.6,2.7v13.6h-4.8v-22.8h4.4v4.6c0.6-1,1.3-1.9,2.3-2.6c0.9-0.7,2-1.3,3.2-1.7c1.2-0.4,2.5-0.6,3.8-0.6
				c1.4,0,2.5,0.2,3.4,0.7c0.9,0.5,1.6,1.2,2.1,2c0.5,0.9,0.9,1.8,1.1,3c0.2,1.1,0.3,2.3,0.3,3.6V608.5z"/>
			<path d="M165.3,601.9c0-1.5,0.4-2.7,1.3-3.8s2-1.9,3.5-2.5c1.5-0.6,3.2-0.9,5.1-0.9c1,0,2.1,0.1,3.1,0.2c1.1,0.2,2,0.4,2.9,0.7
				v-1.4c0-1.6-0.5-2.8-1.5-3.7c-1-0.9-2.4-1.3-4.2-1.3c-1.3,0-2.5,0.2-3.7,0.7s-2.4,1.1-3.7,2l-1.6-3.3c1.5-1,3-1.8,4.5-2.3
				c1.6-0.5,3.2-0.8,4.9-0.8c3.1,0,5.5,0.8,7.3,2.4c1.8,1.6,2.6,3.9,2.6,6.9v8.5c0,0.6,0.1,0.9,0.3,1.2c0.2,0.2,0.5,0.4,1,0.4v3.9
				c-0.4,0.1-0.8,0.1-1.2,0.2c-0.3,0-0.6,0.1-0.9,0.1c-1.1,0-1.8-0.3-2.4-0.8c-0.5-0.5-0.8-1.1-0.9-1.8l-0.1-1.3
				c-1,1.3-2.2,2.3-3.8,3c-1.6,0.7-3.1,1.1-4.7,1.1c-1.5,0-2.9-0.3-4.1-0.9c-1.2-0.6-2.1-1.5-2.8-2.6
				C165.6,604.4,165.3,603.2,165.3,601.9z M179.9,603.3c0.3-0.4,0.6-0.8,0.8-1.2c0.2-0.4,0.3-0.7,0.3-1v-2.6
				c-0.8-0.3-1.7-0.6-2.6-0.7c-0.9-0.2-1.8-0.2-2.6-0.2c-1.8,0-3.2,0.3-4.3,1s-1.6,1.6-1.6,2.9c0,0.7,0.2,1.3,0.5,1.9
				c0.4,0.6,0.9,1.1,1.6,1.5c0.7,0.4,1.5,0.6,2.5,0.6c1.1,0,2.1-0.2,3.1-0.6C178.6,604.4,179.3,603.9,179.9,603.3z"/>
			<path d="M212.4,608.5h-4.8v-12.7c0-2.1-0.4-3.7-1.1-4.7c-0.7-1-1.7-1.5-3.1-1.5c-0.9,0-1.9,0.2-2.8,0.7s-1.7,1.1-2.5,1.9
				c-0.7,0.8-1.3,1.7-1.6,2.7v13.6h-4.8v-22.8h4.4v4.6c0.6-1,1.3-1.9,2.3-2.6c0.9-0.7,2-1.3,3.2-1.7c1.2-0.4,2.5-0.6,3.8-0.6
				c1.4,0,2.5,0.2,3.4,0.7c0.9,0.5,1.6,1.2,2.1,2c0.5,0.9,0.9,1.8,1.1,3c0.2,1.1,0.3,2.3,0.3,3.6V608.5z"/>
			<path d="M216.6,597.1c0-2.2,0.4-4.2,1.3-6c0.9-1.8,2.1-3.2,3.7-4.3c1.6-1.1,3.3-1.6,5.4-1.6c1.8,0,3.4,0.5,4.8,1.4
				c1.4,0.9,2.5,2,3.3,3.3v-13.6h4.8v26.7c0,0.5,0.1,0.9,0.3,1.2c0.2,0.2,0.5,0.4,1,0.4v3.9c-0.9,0.1-1.6,0.2-2.1,0.3
				c-0.9,0-1.7-0.3-2.3-0.8c-0.6-0.5-1-1.2-1-1.9l0-1.7c-0.9,1.4-2.1,2.6-3.6,3.4c-1.5,0.8-3,1.2-4.6,1.2c-1.6,0-3-0.3-4.4-0.9
				c-1.3-0.6-2.5-1.5-3.5-2.6c-1-1.1-1.7-2.3-2.3-3.7C216.9,600.3,216.6,598.8,216.6,597.1z M235.1,600.3v-5.9
				c-0.3-0.9-0.8-1.7-1.6-2.5c-0.7-0.7-1.5-1.3-2.4-1.8c-0.9-0.4-1.8-0.7-2.7-0.7c-1,0-1.9,0.2-2.8,0.7c-0.8,0.4-1.6,1-2.2,1.7
				c-0.6,0.7-1.1,1.5-1.4,2.5c-0.3,0.9-0.5,1.9-0.5,2.9s0.2,2,0.5,2.9c0.4,0.9,0.9,1.7,1.5,2.5c0.7,0.7,1.4,1.3,2.3,1.6
				c0.9,0.4,1.8,0.6,2.8,0.6c0.6,0,1.3-0.1,2-0.3c0.7-0.2,1.3-0.5,1.9-0.9c0.6-0.4,1.1-0.9,1.5-1.5
				C234.6,601.5,234.9,601,235.1,600.3z"/>
			<path d="M257.5,608.5v-31.2h13.1c1.4,0,2.7,0.3,3.9,0.9c1.2,0.6,2.2,1.4,3.1,2.3c0.9,1,1.6,2.1,2,3.3c0.5,1.2,0.7,2.4,0.7,3.7
				c0,1.7-0.4,3.4-1.2,4.9c-0.8,1.6-1.9,2.8-3.3,3.8c-1.4,1-3.1,1.5-5,1.5h-8.4v10.9H257.5z M262.5,593.3h8.1c0.9,0,1.7-0.3,2.4-0.8
				c0.7-0.5,1.3-1.2,1.7-2.1c0.4-0.9,0.6-1.9,0.6-3c0-1.1-0.2-2.1-0.7-3s-1.1-1.5-1.8-2c-0.7-0.5-1.5-0.7-2.4-0.7h-7.9V593.3z"/>
			<path d="M297.2,589.7c-1.8,0-3.5,0.5-4.9,1.3c-1.5,0.8-2.5,2-3.1,3.5v14.1h-4.8v-22.8h4.4v4.9c0.8-1.6,1.9-2.8,3.2-3.8
				c1.3-1,2.6-1.5,4-1.6c0.3,0,0.6,0,0.8,0c0.2,0,0.3,0,0.5,0V589.7z"/>
			<path d="M311.1,609c-1.8,0-3.4-0.3-4.9-0.9c-1.4-0.6-2.7-1.5-3.7-2.6c-1-1.1-1.8-2.4-2.4-3.8c-0.6-1.4-0.8-2.9-0.8-4.5
				c0-1.6,0.3-3.1,0.8-4.6c0.6-1.4,1.4-2.7,2.4-3.8c1-1.1,2.3-2,3.7-2.6c1.5-0.6,3.1-0.9,4.9-0.9c1.8,0,3.4,0.3,4.9,0.9
				c1.4,0.6,2.7,1.5,3.7,2.6c1.1,1.1,1.9,2.4,2.4,3.8c0.6,1.4,0.8,2.9,0.8,4.6c0,1.6-0.3,3.1-0.8,4.5c-0.6,1.4-1.4,2.7-2.4,3.8
				c-1,1.1-2.3,2-3.7,2.6C314.5,608.6,312.9,609,311.1,609z M304.3,597.1c0,1.5,0.3,2.8,0.9,3.9c0.6,1.2,1.4,2.1,2.5,2.7
				c1,0.7,2.2,1,3.4,1c1.3,0,2.5-0.3,3.5-1c1-0.7,1.8-1.6,2.5-2.8c0.6-1.2,0.9-2.5,0.9-3.9c0-1.4-0.3-2.8-0.9-3.9
				c-0.6-1.2-1.4-2.1-2.5-2.8c-1-0.7-2.2-1-3.5-1c-1.3,0-2.4,0.3-3.5,1c-1,0.7-1.8,1.6-2.5,2.8C304.6,594.4,304.3,595.7,304.3,597.1
				z"/>
			<path d="M340.1,607.4c-0.4,0.2-0.9,0.4-1.5,0.6c-0.6,0.2-1.3,0.5-2.1,0.6c-0.8,0.2-1.6,0.3-2.4,0.3c-1,0-1.9-0.2-2.8-0.5
				c-0.9-0.4-1.5-0.9-2-1.7s-0.8-1.7-0.8-2.9v-14.4h-3.1v-3.7h3.1v-7.6h4.8v7.6h5v3.7h-5v12.8c0.1,0.8,0.3,1.4,0.8,1.8
				c0.5,0.4,1,0.6,1.7,0.6c0.7,0,1.3-0.1,2-0.4c0.6-0.2,1.1-0.4,1.3-0.5L340.1,607.4z"/>
			<path d="M353.8,609c-1.8,0-3.4-0.3-4.9-0.9c-1.4-0.6-2.7-1.5-3.7-2.6c-1-1.1-1.8-2.4-2.4-3.8c-0.6-1.4-0.8-2.9-0.8-4.5
				c0-1.6,0.3-3.1,0.8-4.6c0.6-1.4,1.4-2.7,2.4-3.8c1-1.1,2.3-2,3.7-2.6c1.5-0.6,3.1-0.9,4.9-0.9c1.8,0,3.4,0.3,4.9,0.9
				c1.4,0.6,2.7,1.5,3.7,2.6c1.1,1.1,1.9,2.4,2.4,3.8c0.6,1.4,0.8,2.9,0.8,4.6c0,1.6-0.3,3.1-0.8,4.5c-0.6,1.4-1.4,2.7-2.4,3.8
				c-1,1.1-2.3,2-3.7,2.6C357.2,608.6,355.6,609,353.8,609z M346.9,597.1c0,1.5,0.3,2.8,0.9,3.9c0.6,1.2,1.4,2.1,2.5,2.7
				c1,0.7,2.2,1,3.4,1c1.3,0,2.5-0.3,3.5-1c1-0.7,1.8-1.6,2.5-2.8c0.6-1.2,0.9-2.5,0.9-3.9c0-1.4-0.3-2.8-0.9-3.9
				c-0.6-1.2-1.4-2.1-2.5-2.8c-1-0.7-2.2-1-3.5-1c-1.3,0-2.4,0.3-3.5,1c-1,0.7-1.8,1.6-2.5,2.8C347.2,594.4,346.9,595.7,346.9,597.1
				z"/>
			<path d="M382.7,607.4c-0.4,0.2-0.9,0.4-1.5,0.6c-0.6,0.2-1.3,0.5-2.1,0.6c-0.8,0.2-1.6,0.3-2.4,0.3c-1,0-1.9-0.2-2.8-0.5
				c-0.9-0.4-1.5-0.9-2-1.7s-0.8-1.7-0.8-2.9v-14.4H368v-3.7h3.1v-7.6h4.8v7.6h5v3.7h-5v12.8c0.1,0.8,0.3,1.4,0.8,1.8
				c0.5,0.4,1,0.6,1.7,0.6c0.7,0,1.3-0.1,2-0.4c0.6-0.2,1.1-0.4,1.3-0.5L382.7,607.4z"/>
			<path d="M386.9,613.9c0.4,0.1,0.9,0.1,1.3,0.2c0.4,0.1,0.8,0.1,1,0.1c0.5,0,0.9-0.1,1.3-0.4c0.4-0.3,0.7-0.9,1.1-1.7
				c0.4-0.8,0.8-2,1.4-3.6l-9.4-22.9h5.1l7,18l6.2-18h4.7l-10.5,28.2c-0.3,0.9-0.8,1.7-1.4,2.4c-0.6,0.7-1.4,1.3-2.3,1.7
				c-0.9,0.4-2,0.6-3.2,0.6c-0.4,0-0.7,0-1.1,0c-0.4-0.1-0.8-0.1-1.3-0.3V613.9z"/>
			<path d="M423.2,609c-1.8,0-3.5-0.4-4.9-1.3c-1.4-0.9-2.5-2-3.3-3.4v13.6h-4.8v-32.2h4.3v4.1c0.9-1.4,2-2.5,3.4-3.3
				c1.4-0.8,3-1.2,4.7-1.2c1.6,0,3,0.3,4.4,0.9s2.5,1.5,3.4,2.6c1,1.1,1.7,2.4,2.3,3.8c0.5,1.4,0.8,2.9,0.8,4.5c0,2.2-0.4,4.2-1.3,6
				s-2.1,3.2-3.6,4.3C427,608.4,425.2,609,423.2,609z M421.6,604.8c1.1,0,2-0.2,2.8-0.7c0.8-0.4,1.5-1,2.1-1.7
				c0.6-0.7,1-1.5,1.4-2.5c0.3-0.9,0.5-1.9,0.5-2.9c0-1.1-0.2-2.1-0.5-3c-0.4-0.9-0.9-1.7-1.5-2.4s-1.4-1.2-2.3-1.6
				s-1.8-0.6-2.8-0.6c-0.6,0-1.3,0.1-2,0.3s-1.3,0.5-1.9,1c-0.6,0.4-1.1,0.9-1.6,1.4c-0.4,0.5-0.7,1.1-0.9,1.8v5.9
				c0.4,0.9,1,1.8,1.6,2.5c0.7,0.7,1.5,1.3,2.3,1.8C419.8,604.6,420.7,604.8,421.6,604.8z"/>
			<path d="M437.8,581.7v-5.3h4.8v5.3H437.8z M437.8,608.5v-23h4.8v23H437.8z"/>
			<path d="M469,608.5h-4.8v-12.7c0-2.1-0.4-3.7-1.1-4.7c-0.7-1-1.7-1.5-3.1-1.5c-0.9,0-1.9,0.2-2.8,0.7c-0.9,0.5-1.7,1.1-2.5,1.9
				s-1.3,1.7-1.6,2.7v13.6h-4.8v-22.8h4.4v4.6c0.6-1,1.3-1.9,2.3-2.6c0.9-0.7,2-1.3,3.2-1.7c1.2-0.4,2.5-0.6,3.8-0.6
				c1.4,0,2.5,0.2,3.4,0.7c0.9,0.5,1.6,1.2,2.1,2c0.5,0.9,0.9,1.8,1.1,3c0.2,1.1,0.3,2.3,0.3,3.6V608.5z"/>
			<path d="M483.8,609c-1.6,0-3-0.3-4.3-0.9c-1.3-0.6-2.4-1.5-3.3-2.6c-0.9-1.1-1.6-2.3-2.1-3.7c-0.5-1.4-0.7-2.9-0.7-4.4
				c0-1.6,0.3-3.2,0.8-4.6c0.5-1.4,1.2-2.7,2.2-3.8c1-1.1,2.1-2,3.4-2.6c1.3-0.6,2.7-0.9,4.3-0.9c1.8,0,3.5,0.4,4.9,1.3
				c1.4,0.9,2.5,2,3.5,3.4v-4.3h4.3v22.2c0,2.2-0.5,4.1-1.6,5.6c-1.1,1.5-2.5,2.7-4.4,3.5c-1.8,0.8-3.9,1.2-6.2,1.2
				c-2.6,0-4.7-0.4-6.4-1.3s-3.1-2.1-4.3-3.6l2.7-2.6c0.9,1.2,2.1,2.2,3.5,2.8c1.4,0.6,2.9,1,4.5,1c1.3,0,2.5-0.2,3.7-0.7
				c1.1-0.5,2-1.2,2.7-2.2c0.7-1,1-2.2,1-3.7v-3.5c-0.8,1.3-2,2.4-3.4,3.2C486.9,608.6,485.4,609,483.8,609z M485.4,605
				c0.7,0,1.4-0.1,2.1-0.4s1.3-0.6,1.9-1s1.1-0.9,1.5-1.5c0.4-0.6,0.7-1.1,0.9-1.7v-6c-0.4-1-0.9-1.9-1.6-2.6
				c-0.7-0.7-1.5-1.3-2.4-1.7c-0.9-0.4-1.8-0.6-2.7-0.6c-1.1,0-2,0.2-2.8,0.7c-0.8,0.5-1.5,1.1-2.1,1.8c-0.6,0.7-1,1.6-1.4,2.5
				c-0.3,0.9-0.5,1.9-0.5,2.9c0,1,0.2,2,0.5,2.9s0.9,1.7,1.5,2.5c0.6,0.7,1.4,1.3,2.3,1.7C483.4,604.8,484.3,605,485.4,605z"/>
		</g>
	</g>
	<g>
		<g>
			<path d="M135.3,758.7c-0.3-0.3-0.7-0.7-1.3-1c-0.6-0.4-1.2-0.7-2-1c-0.7-0.3-1.6-0.6-2.5-0.8c-0.9-0.2-1.8-0.3-2.8-0.3
				c-2.1,0-3.6,0.4-4.6,1.1c-1,0.8-1.5,1.8-1.5,3.2c0,1,0.3,1.8,0.8,2.4c0.6,0.6,1.4,1.1,2.6,1.4c1.2,0.4,2.6,0.8,4.3,1.2
				c2.1,0.5,4,1.1,5.5,1.8c1.5,0.7,2.7,1.6,3.6,2.8s1.3,2.7,1.3,4.6c0,1.5-0.3,2.9-0.9,4c-0.6,1.1-1.4,2.1-2.5,2.8
				c-1.1,0.7-2.3,1.2-3.7,1.6c-1.4,0.4-2.9,0.5-4.4,0.5c-1.6,0-3.1-0.2-4.6-0.5s-3-0.8-4.4-1.5c-1.4-0.6-2.7-1.4-3.9-2.3l2.3-4.2
				c0.4,0.4,0.9,0.8,1.6,1.3c0.7,0.5,1.6,0.9,2.5,1.3c1,0.4,2,0.8,3.1,1c1.1,0.3,2.3,0.4,3.5,0.4c2,0,3.5-0.3,4.5-1
				c1-0.7,1.6-1.7,1.6-3c0-1-0.3-1.8-1-2.5c-0.7-0.6-1.7-1.2-2.9-1.6c-1.3-0.4-2.8-0.9-4.6-1.3c-2.1-0.5-3.8-1.1-5.1-1.8
				s-2.4-1.5-3.1-2.5c-0.7-1-1-2.4-1-4c0-2,0.5-3.8,1.5-5.2c1-1.4,2.3-2.5,4.1-3.2c1.7-0.7,3.7-1.1,5.8-1.1c1.4,0,2.8,0.2,4,0.5
				s2.5,0.7,3.6,1.3s2.1,1.1,2.9,1.8L135.3,758.7z"/>
			<path d="M153.5,783c-1.8,0-3.4-0.3-4.9-0.9c-1.4-0.6-2.7-1.5-3.7-2.6s-1.9-2.3-2.4-3.8c-0.6-1.4-0.9-2.9-0.9-4.5
				c0-2.2,0.5-4.2,1.5-6c1-1.8,2.4-3.2,4.2-4.3c1.8-1.1,3.9-1.6,6.2-1.6c2.4,0,4.5,0.5,6.3,1.6c1.7,1.1,3.1,2.5,4.1,4.3
				c1,1.8,1.5,3.7,1.5,5.7c0,0.3,0,0.7,0,1c0,0.3-0.1,0.5-0.1,0.7h-18.5c0.1,1.4,0.5,2.5,1.2,3.5c0.6,1,1.5,1.8,2.5,2.3
				c1,0.6,2.1,0.8,3.3,0.8c1.3,0,2.6-0.3,3.7-1c1.2-0.6,1.9-1.5,2.4-2.6l4.1,1.2c-0.5,1.1-1.3,2.1-2.3,3c-1,0.9-2.2,1.6-3.6,2.1
				C156.6,782.7,155.1,783,153.5,783z M146.6,769.5h13.9c-0.1-1.3-0.5-2.5-1.1-3.5c-0.6-1-1.5-1.7-2.5-2.3c-1-0.6-2.1-0.8-3.3-0.8
				c-1.2,0-2.4,0.3-3.4,0.8c-1,0.6-1.8,1.3-2.5,2.3C147.1,767.1,146.7,768.2,146.6,769.5z"/>
			<path d="M198,759.7h4.6l-9.7,22.8h-4.1l-4.2-10.3l-4.1,10.3h-4.1l-9.7-22.8h4.6l7.4,18.2l3.3-8.5l-4-9.7h4.1l2.6,7.2l2.6-7.2h4.1
				l-3.9,9.7l3.3,8.5L198,759.7z"/>
			<path d="M205.8,755.8v-5.3h4.8v5.3H205.8z M205.8,782.5v-23h4.8v23H205.8z"/>
			<path d="M237.1,782.5h-4.8v-12.7c0-2.1-0.4-3.7-1.1-4.7c-0.7-1-1.7-1.5-3.1-1.5c-0.9,0-1.9,0.2-2.8,0.7s-1.7,1.1-2.5,1.9
				c-0.7,0.8-1.3,1.7-1.6,2.7v13.6h-4.8v-22.8h4.4v4.6c0.6-1,1.3-1.9,2.3-2.6c0.9-0.7,2-1.3,3.2-1.7c1.2-0.4,2.5-0.6,3.8-0.6
				c1.4,0,2.5,0.2,3.4,0.7c0.9,0.5,1.6,1.2,2.1,2c0.5,0.9,0.9,1.8,1.1,3c0.2,1.1,0.3,2.3,0.3,3.6V782.5z"/>
			<path d="M251.8,783c-1.6,0-3-0.3-4.3-0.9c-1.3-0.6-2.4-1.5-3.3-2.6c-0.9-1.1-1.6-2.3-2.1-3.7c-0.5-1.4-0.7-2.9-0.7-4.4
				c0-1.6,0.3-3.2,0.8-4.6c0.5-1.4,1.2-2.7,2.2-3.8c1-1.1,2.1-2,3.4-2.6c1.3-0.6,2.7-0.9,4.3-0.9c1.8,0,3.5,0.4,4.9,1.3
				c1.4,0.9,2.5,2,3.5,3.4v-4.3h4.3v22.2c0,2.2-0.5,4.1-1.6,5.6c-1.1,1.5-2.5,2.7-4.4,3.5c-1.8,0.8-3.9,1.2-6.2,1.2
				c-2.6,0-4.7-0.4-6.4-1.3c-1.7-0.9-3.1-2.1-4.3-3.6l2.7-2.6c0.9,1.2,2.1,2.2,3.5,2.8c1.4,0.6,2.9,1,4.5,1c1.3,0,2.5-0.2,3.7-0.7
				c1.1-0.5,2-1.2,2.7-2.2c0.7-1,1-2.2,1-3.7v-3.5c-0.8,1.3-2,2.4-3.4,3.2C254.9,782.6,253.4,783,251.8,783z M253.4,779.1
				c0.7,0,1.4-0.1,2.1-0.4c0.7-0.3,1.3-0.6,1.9-1c0.6-0.4,1.1-0.9,1.5-1.5c0.4-0.6,0.7-1.1,0.9-1.7v-6c-0.4-1-0.9-1.9-1.6-2.6
				c-0.7-0.7-1.5-1.3-2.4-1.7c-0.9-0.4-1.8-0.6-2.7-0.6c-1.1,0-2,0.2-2.8,0.7c-0.8,0.5-1.5,1.1-2.1,1.8c-0.6,0.7-1,1.6-1.4,2.5
				c-0.3,0.9-0.5,1.9-0.5,2.9c0,1,0.2,2,0.6,2.9c0.4,0.9,0.9,1.7,1.5,2.5c0.6,0.7,1.4,1.3,2.3,1.7
				C251.4,778.9,252.4,779.1,253.4,779.1z"/>
			<path d="M279.6,775.9c0-1.5,0.4-2.7,1.3-3.8s2-1.9,3.5-2.5c1.5-0.6,3.2-0.9,5.1-0.9c1,0,2.1,0.1,3.1,0.2c1.1,0.2,2,0.4,2.9,0.7
				v-1.4c0-1.6-0.5-2.8-1.5-3.7c-1-0.9-2.4-1.3-4.2-1.3c-1.3,0-2.5,0.2-3.7,0.7s-2.4,1.1-3.7,2l-1.6-3.3c1.5-1,3-1.8,4.5-2.3
				c1.6-0.5,3.2-0.8,4.9-0.8c3.1,0,5.5,0.8,7.3,2.4c1.8,1.6,2.6,3.9,2.6,6.9v8.5c0,0.6,0.1,0.9,0.3,1.2c0.2,0.2,0.5,0.4,1,0.4v3.9
				c-0.4,0.1-0.8,0.1-1.2,0.2c-0.3,0-0.6,0.1-0.9,0.1c-1.1,0-1.8-0.3-2.4-0.8c-0.5-0.5-0.8-1.1-0.9-1.8l-0.1-1.3
				c-1,1.3-2.2,2.3-3.8,3c-1.6,0.7-3.1,1.1-4.7,1.1c-1.5,0-2.9-0.3-4.1-0.9c-1.2-0.6-2.1-1.5-2.8-2.6
				C279.9,778.4,279.6,777.2,279.6,775.9z M294.2,777.3c0.3-0.4,0.6-0.8,0.8-1.2c0.2-0.4,0.3-0.7,0.3-1v-2.6
				c-0.8-0.3-1.7-0.6-2.6-0.7c-0.9-0.2-1.8-0.2-2.6-0.2c-1.8,0-3.2,0.3-4.3,1s-1.6,1.6-1.6,2.9c0,0.7,0.2,1.3,0.5,1.9
				c0.4,0.6,0.9,1.1,1.6,1.5c0.7,0.4,1.5,0.6,2.5,0.6c1.1,0,2.1-0.2,3.1-0.6C292.9,778.4,293.6,777.9,294.2,777.3z"/>
			<path d="M326.7,782.5h-4.8v-12.7c0-2.1-0.4-3.7-1.1-4.7c-0.7-1-1.7-1.5-3.1-1.5c-0.9,0-1.9,0.2-2.8,0.7s-1.7,1.1-2.5,1.9
				c-0.7,0.8-1.3,1.7-1.6,2.7v13.6h-4.8v-22.8h4.4v4.6c0.6-1,1.3-1.9,2.3-2.6c0.9-0.7,2-1.3,3.2-1.7c1.2-0.4,2.5-0.6,3.8-0.6
				c1.4,0,2.5,0.2,3.4,0.7c0.9,0.5,1.6,1.2,2.1,2c0.5,0.9,0.9,1.8,1.1,3c0.2,1.1,0.3,2.3,0.3,3.6V782.5z"/>
			<path d="M330.9,771.2c0-2.2,0.4-4.2,1.3-6c0.9-1.8,2.1-3.2,3.7-4.3c1.6-1.1,3.3-1.6,5.4-1.6c1.8,0,3.4,0.5,4.8,1.4
				c1.4,0.9,2.5,2,3.3,3.3v-13.6h4.8v26.7c0,0.5,0.1,0.9,0.3,1.2c0.2,0.2,0.5,0.4,1,0.4v3.9c-0.9,0.1-1.6,0.2-2.1,0.3
				c-0.9,0-1.7-0.3-2.3-0.8c-0.6-0.5-1-1.2-1-1.9l0-1.7c-0.9,1.4-2.1,2.6-3.6,3.4c-1.5,0.8-3,1.2-4.6,1.2c-1.6,0-3-0.3-4.4-0.9
				c-1.3-0.6-2.5-1.5-3.5-2.6c-1-1.1-1.7-2.3-2.3-3.7C331.1,774.3,330.9,772.8,330.9,771.2z M349.4,774.3v-5.9
				c-0.3-0.9-0.8-1.7-1.6-2.5c-0.7-0.7-1.5-1.3-2.4-1.8c-0.9-0.4-1.8-0.7-2.7-0.7c-1,0-1.9,0.2-2.8,0.7c-0.8,0.4-1.6,1-2.2,1.7
				c-0.6,0.7-1.1,1.5-1.4,2.5c-0.3,0.9-0.5,1.9-0.5,2.9s0.2,2,0.5,2.9c0.4,0.9,0.9,1.7,1.5,2.5c0.7,0.7,1.4,1.3,2.3,1.6
				c0.9,0.4,1.8,0.6,2.8,0.6c0.6,0,1.3-0.1,2-0.3c0.7-0.2,1.3-0.5,1.9-0.9c0.6-0.4,1.1-0.9,1.5-1.5
				C348.9,775.6,349.2,775,349.4,774.3z"/>
			<path d="M380.9,751.3h4.7l12.1,31.2h-5.2l-3.1-8.5h-12.5l-3.1,8.5h-5.2L380.9,751.3z M388.1,770.4l-4.9-13.7l-4.9,13.7H388.1z"/>
			<path d="M409.1,783c-1.9,0-3.8-0.3-5.5-1c-1.7-0.6-3.2-1.6-4.4-2.9l1.8-3.2c1.3,1.1,2.7,2,4,2.5c1.3,0.5,2.7,0.8,4,0.8
				c1.4,0,2.5-0.3,3.3-0.8s1.3-1.2,1.3-2.2c0-0.7-0.2-1.3-0.7-1.6c-0.5-0.3-1.1-0.7-1.9-0.9c-0.8-0.3-1.8-0.6-3-0.9
				c-1.6-0.5-3-1-4.1-1.5c-1.1-0.5-2-1.2-2.5-2c-0.6-0.8-0.8-1.8-0.8-3c0-1.5,0.4-2.7,1.1-3.7c0.8-1,1.8-1.9,3.2-2.4
				c1.4-0.6,2.9-0.9,4.7-0.9c1.7,0,3.2,0.3,4.6,0.8c1.4,0.5,2.7,1.3,3.8,2.4l-2.1,3.2c-1-0.9-2-1.6-3.1-2c-1.1-0.4-2.2-0.7-3.5-0.7
				c-0.7,0-1.3,0.1-2,0.2c-0.7,0.2-1.2,0.5-1.6,0.9c-0.4,0.4-0.7,1-0.7,1.8c0,0.6,0.2,1.1,0.5,1.5c0.4,0.4,0.9,0.7,1.6,0.9
				c0.7,0.3,1.6,0.6,2.6,0.9c1.8,0.5,3.3,1,4.6,1.5s2.2,1.2,2.9,2c0.7,0.8,1,1.9,1,3.3c0,2.2-0.8,3.9-2.5,5.1
				C414.1,782.4,411.9,783,409.1,783z"/>
			<path d="M430.7,783c-1.9,0-3.8-0.3-5.5-1c-1.7-0.6-3.2-1.6-4.4-2.9l1.8-3.2c1.3,1.1,2.7,2,4,2.5c1.3,0.5,2.7,0.8,4,0.8
				c1.4,0,2.5-0.3,3.3-0.8s1.3-1.2,1.3-2.2c0-0.7-0.2-1.3-0.7-1.6c-0.5-0.3-1.1-0.7-1.9-0.9c-0.8-0.3-1.8-0.6-3-0.9
				c-1.6-0.5-3-1-4.1-1.5c-1.1-0.5-2-1.2-2.5-2c-0.6-0.8-0.8-1.8-0.8-3c0-1.5,0.4-2.7,1.1-3.7c0.8-1,1.8-1.9,3.2-2.4
				c1.4-0.6,2.9-0.9,4.7-0.9c1.7,0,3.2,0.3,4.6,0.8c1.4,0.5,2.7,1.3,3.8,2.4l-2.1,3.2c-1-0.9-2-1.6-3.1-2c-1.1-0.4-2.2-0.7-3.5-0.7
				c-0.7,0-1.3,0.1-2,0.2c-0.7,0.2-1.2,0.5-1.6,0.9c-0.4,0.4-0.7,1-0.7,1.8c0,0.6,0.2,1.1,0.5,1.5c0.4,0.4,0.9,0.7,1.6,0.9
				c0.7,0.3,1.6,0.6,2.6,0.9c1.8,0.5,3.3,1,4.6,1.5s2.2,1.2,2.9,2c0.7,0.8,1,1.9,1,3.3c0,2.2-0.8,3.9-2.5,5.1
				C435.7,782.4,433.5,783,430.7,783z"/>
			<path d="M454.6,783c-1.8,0-3.4-0.3-4.9-0.9c-1.4-0.6-2.7-1.5-3.7-2.6s-1.9-2.3-2.4-3.8c-0.6-1.4-0.9-2.9-0.9-4.5
				c0-2.2,0.5-4.2,1.5-6c1-1.8,2.4-3.2,4.2-4.3c1.8-1.1,3.9-1.6,6.2-1.6c2.4,0,4.5,0.5,6.3,1.6c1.7,1.1,3.1,2.5,4.1,4.3
				c1,1.8,1.5,3.7,1.5,5.7c0,0.3,0,0.7,0,1c0,0.3-0.1,0.5-0.1,0.7h-18.5c0.1,1.4,0.5,2.5,1.2,3.5c0.6,1,1.5,1.8,2.5,2.3
				c1,0.6,2.1,0.8,3.3,0.8c1.3,0,2.6-0.3,3.7-1c1.2-0.6,1.9-1.5,2.4-2.6l4.1,1.2c-0.5,1.1-1.3,2.1-2.3,3c-1,0.9-2.2,1.6-3.6,2.1
				C457.7,782.7,456.2,783,454.6,783z M447.7,769.5h13.9c-0.1-1.3-0.5-2.5-1.1-3.5c-0.6-1-1.5-1.7-2.5-2.3c-1-0.6-2.1-0.8-3.3-0.8
				c-1.2,0-2.4,0.3-3.4,0.8c-1,0.6-1.8,1.3-2.5,2.3C448.1,767.1,447.7,768.2,447.7,769.5z"/>
			<path d="M505.5,782.5h-4.8v-12.7c0-2.1-0.4-3.7-1.1-4.7c-0.7-1-1.8-1.5-3.1-1.5c-1.3,0-2.6,0.5-3.7,1.5c-1.1,1-2,2.3-2.5,3.9
				v13.5h-4.8v-12.7c0-2.1-0.3-3.7-1-4.7c-0.7-1-1.7-1.5-3.1-1.5c-1.3,0-2.6,0.5-3.7,1.4c-1.2,1-2,2.3-2.5,3.9v13.6h-4.8v-22.8h4.4
				v4.6c0.9-1.6,2.1-2.8,3.6-3.6c1.5-0.9,3.2-1.3,5.1-1.3c1.9,0,3.4,0.5,4.5,1.5c1.1,1,1.8,2.2,2.1,3.7c1-1.7,2.2-3,3.6-3.9
				c1.5-0.9,3.1-1.3,5-1.3c1.3,0,2.5,0.2,3.4,0.7c0.9,0.5,1.6,1.2,2.1,2c0.5,0.9,0.9,1.8,1.1,3c0.2,1.1,0.3,2.3,0.3,3.6V782.5z"/>
			<path d="M523.5,783c-1.8,0-3.4-0.4-4.8-1.3c-1.4-0.8-2.5-1.9-3.4-3.3v4.1h-4.3v-32.1h4.8v13.6c0.9-1.4,2-2.6,3.4-3.4
				c1.4-0.9,3-1.3,4.8-1.3c1.6,0,3,0.3,4.2,1c1.2,0.6,2.3,1.5,3.2,2.6s1.6,2.4,2.1,3.8s0.7,2.9,0.7,4.5c0,1.6-0.3,3.2-0.8,4.6
				c-0.5,1.4-1.3,2.7-2.3,3.8c-1,1.1-2.1,1.9-3.5,2.5C526.5,782.7,525.1,783,523.5,783z M522.3,778.9c1,0,2-0.2,2.9-0.6
				c0.9-0.4,1.6-1,2.3-1.7c0.6-0.7,1.1-1.5,1.5-2.4c0.4-0.9,0.5-1.9,0.5-2.9c0-1.4-0.3-2.7-0.9-3.8c-0.6-1.2-1.4-2.1-2.4-2.8
				c-1-0.7-2.2-1.1-3.6-1.1c-1,0-1.9,0.2-2.7,0.7c-0.9,0.4-1.6,1-2.3,1.8c-0.7,0.7-1.2,1.6-1.6,2.5v6c0.1,0.7,0.4,1.3,0.9,1.8
				c0.4,0.5,1,1,1.6,1.4c0.6,0.4,1.3,0.7,1.9,0.9C521,778.7,521.6,778.9,522.3,778.9z"/>
			<path d="M538.8,750.4h4.8V776c0,1.1,0.2,1.9,0.5,2.2c0.4,0.3,0.8,0.5,1.3,0.5c0.6,0,1.1-0.1,1.7-0.2c0.5-0.1,1-0.3,1.3-0.4
				l0.7,3.8c-0.7,0.3-1.5,0.5-2.5,0.7s-1.8,0.3-2.6,0.3c-1.7,0-3-0.5-3.9-1.4s-1.4-2.2-1.4-3.9V750.4z"/>
			<path d="M552.8,788c0.4,0.1,0.9,0.1,1.3,0.2c0.4,0.1,0.8,0.1,1,0.1c0.5,0,0.9-0.1,1.3-0.4c0.4-0.3,0.7-0.9,1.1-1.7
				c0.4-0.8,0.8-2,1.4-3.6l-9.4-22.9h5.1l7,18l6.2-18h4.7L562,787.9c-0.3,0.9-0.8,1.7-1.4,2.4s-1.4,1.3-2.3,1.7
				c-0.9,0.4-2,0.6-3.2,0.6c-0.4,0-0.7,0-1.1,0c-0.4-0.1-0.8-0.1-1.3-0.3V788z"/>
		</g>
	</g>
</g>
</svg>
