<?xml version="1.0" encoding="utf-8"?>
<!-- Generator: Adobe Illustrator 25.2.1, SVG Export Plug-In . SVG Version: 6.00 Build 0)  -->
<svg version="1.1" id="Layer_1" xmlns="http://www.w3.org/2000/svg" xmlns:xlink="http://www.w3.org/1999/xlink" x="0px" y="0px"
	 viewBox="0 0 929.06 802.53" style="enable-background:new 0 0 929.06 802.53;" xml:space="preserve">
<style type="text/css">
	.st0{fill:#FFFFFF;}
	.st1{stroke:#000000;stroke-width:4;stroke-miterlimit:10;}
	.st2{fill:none;stroke:#000000;stroke-width:4;stroke-miterlimit:10;}
</style>
<rect x="448.26" y="0.07" class="st0" width="289.68" height="255.56"/>
<g>
	<g>
		<g>
			<path d="M754.41,681.61c-4.64-1.12-9.04-0.51-13.57,1.05c-2.86,0.98-5.47,1.21-5.22,5.2c0.16,2.7-1.88,3.44-4.22,3.3
				c-5.43-0.32-10.87-0.54-16.28-1.08c-2.67-0.26-5-0.96-6.33,2.49c-0.87,2.27-2.92,1.56-4.61,0.57c-3.8-2.24-7.72-4.31-11.36-6.78
				c-4.95-3.36-9.92-4.03-15.4-1.41c-2.32,1.11-4.81,2.14-7.33,2.52c-3.72,0.57-7.18,1.22-9.18,4.88c-0.23,0.43-0.7,0.95-1.12,1.02
				c-8.81,1.37-7.52,8.72-7.58,14.26c-0.05,4.38-0.34,7.62-4.56,9.46c-2.15,0.93-2.14,2.66-2.11,4.52c0.04,2.87-1.35,3.45-4.01,2.8
				c-4.6-1.12-10.14,0.43-13.16-4.92c-4.24-0.83-8.54-2.48-12.68-2.15c-2.21,0.18-3.72,0.59-5.28-1.04
				c-3.72-3.9-7.77-3.36-12.01-0.97c-1.33,0.75-2.8,2.02-4.12,1.91c-5.59-0.44-10.22,0.19-11.85,6.74c-0.23,0.9-1.96,1.81-3.12,2.03
				c-3.51,0.66-5.72,2.79-8.06,5.33c-1.86,2.03-4.93,2.97-2.55,6.46c-2.75,2.55-5.45,5.15-8.32,7.55c-0.25,0.21-1.83-0.74-2.41-1.46
				c-1.45-1.82-2.58-3.9-4.01-5.74c-3.51-4.53-6.54-4.83-11.43-1.33c-0.63,0.45-1.29,0.85-1.98,1.21c-3.91,2.04-6.77,1.86-8.44-0.48
				c-1.99-2.78-1.34-9.02,1.74-10.49c4.04-1.93,7.56-5.58,12.81-4.57c1.13,0.22,2.81-0.88,3.81-1.82
				c4.72-4.46,9.25-9.12,13.95-13.61c1.8-1.72,2.92-3.56,2.68-6.14c-0.34-3.56,1.58-5.11,4.9-5.73c2.01-0.38,3.96-1.24,5.85-2.09
				c1.14-0.51,2.88-1.28,3.03-2.16c1.05-5.92,6.01-8.2,10.08-11.23c2.19-1.63,2.61-3.58,2.62-6.05c0.02-3.35,0.08-6.75,0.63-10.05
				c0.46-2.75,2.1-4.71,5.45-4.19c1.53,0.24,3.12,0.34,4.66,0.25c4.47-0.27,6.14-2.54,5.33-7.01c-0.97-5.32-0.15-7.53,4.23-8.29
				c9.91-1.72,19.7-4.85,29.98-3.37c1.76,0.25,3.71,0.31,5.21,1.13c4.69,2.55,9.49,2.17,14.41,1.2c1.78-0.35,3.55-0.71,5.34-0.97
				c5.23-0.76,5.45-0.73,5.63-6.04c0.1-2.88,1.25-4.88,3.06-6.86c4.19-4.61,8.29-9.3,12.39-13.99c0.42-0.48,0.57-1.2,0.85-1.81
				c-0.72,0.09-1.58-0.05-2.14,0.3c-1.75,1.09-3.3,2.52-5.09,3.51c-1.27,0.71-2.94,1.52-4.22,1.25c-5.6-1.18-9.04,1.89-11.01,6.17
				c-1.71,3.72-4.3,5.09-7.77,5.14c-4.12,0.07-8.27-0.27-12.37-0.78c-1.36-0.17-2.63-1.34-3.84-2.2c-1.25-0.89-2.24-2.49-3.58-2.84
				c-4.09-1.06-5.67-3.67-6.73-7.57c-1.34-4.9-4.17-6.08-7.96-2.88c-3.55,3-7.79,2.17-11.52,3.79c-2.66,1.15-5.77-1.63-5.97-4.62
				c-0.19-2.84,1.76-3.97,4.29-4.4c0.8-0.14,1.55-0.53,2.33-0.8c-0.96-0.71-1.9-1.98-2.89-2.02c-1.92-0.08-4.6,1.82-5.55-0.7
				c-1.97-5.21-4.75-6.06-9.36-3.29c-0.93,0.56-2.62,0.27-3.81-0.11c-2.55-0.8-3.83,0.18-4.82,2.46c-1.23,2.83-3.4,4.41-6.67,4.54
				c-1.47,0.06-3.27,0.4-4.3,1.32c-2.47,2.21-4.71,1.09-7.23,0.39c-2.9-0.81-3.84-2.26-2.91-5.14c0.1-0.3-1.12-1.37-1.83-1.51
				c-1.24-0.24-2.61,0.16-3.86-0.07c-1.93-0.36-2.65-1.64-1.46-3.36c0.72-1.04,1.97-1.7,2.71-2.73c0.8-1.12,2.03-2.73,1.7-3.63
				c-0.41-1.13-2.11-2.06-3.44-2.51c-1.84-0.62-4.7,0.35-5.09-2.42c-0.41-2.86,2.34-3.74,4.39-4.75c2.65-1.31,6.28-1.25,6.67-5.52
				c0.04-0.48,2.7-1.38,3.78-1.01c5.14,1.78,8.94-0.14,12.28-3.77c2.93-3.19,6.16-5.59,10.85-4.8c0.74,0.13,1.69,0.16,2.29-0.2
				c5.71-3.37,12.04-6.1,16.87-10.47c5.39-4.87,5.63-12.53,6.72-19.44c0.07-0.47-0.02-1.18-0.32-1.48
				c-3.56-3.54-3.78-7.09-0.44-10.95c0.42-0.49,0.17-2.08-0.33-2.73c-2.93-3.87-2.81-8.18-2.12-12.6c0.16-1.03,1.56-2.52-1.1-2.04
				c-4.3,0.77-8.6,1.55-12.93,2.16c-3.35,0.47-6.06,1.3-6.27,5.47c-0.04,0.84-2.08,2.43-2.34,2.28c-3.15-1.91-6.05,0.56-9.04,0.31
				c-2.2-0.18-3.49-2.13-2.1-3.75c2.15-2.5,4.68-4.76,7.35-6.7c5.02-3.65,9.7-7.34,11.84-13.62c0.65-1.91,1.78-2.74-0.65-4.06
				c-4.2-2.28-6.91-6.57-11.44-8.6c-1.29-0.58-2.67-2.72-2.64-4.12c0.05-2.34,2.08-2.38,4.12-1.94c0.36,0.08,1.8-1.95,1.56-2.49
				c-1.54-3.47-0.2-4.67,3.17-5c2.79-0.27,5.53-1.02,8.31-1.33c2.78-0.3,4.9,0.5,6.26,3.41c1.06,2.27,2.73,4.1,5.88,4.39
				c4.61,0.43,4.58,0.75,4.93,6.36c-0.59,0.35-1.18,0.7-1.78,1.05c0.56-0.38,1.13-0.76,1.69-1.15c0.76-0.17,1.65-0.14,2.26-0.53
				c2.78-1.82,5.27-4.62,8.29-5.4c2.69-0.69,6.02,1.48,8.93,1.16c3.79-0.42,7.47-1.98,11.16-3.18c2.47-0.8,4.83-1.92,6.87,0.87
				c0.28,0.38,1.58,0.44,2.04,0.12c0.38-0.27,0.53-1.48,0.25-1.99c-1.84-3.41-0.33-5.37,2.7-6.78c2.31-1.07,3.09-2.74,1.75-5.02
				c-2.54-4.35-0.55-8.05,1.78-11.53c1.9-2.83,2.22-5.13,0.83-8.57c-1.48-3.66-1.6-8.03-1.51-12.08c0.03-1.5,2.07-3.48,3.68-4.32
				c2.83-1.48,4.07-2.94,2.09-5.93c-1.8-2.7-0.15-4.24,1.97-5.69c0.5-0.34,0.61-1.26,0.91-1.91c-0.67-0.25-1.33-0.69-2.01-0.72
				c-1.23-0.06-2.9,0.66-3.62,0.08c-2-1.61-3.12-1.14-4.26,0.82c-0.65,1.12-1.42,2.17-2.22,3.19c-1.16,1.48-2.5,1.72-3.93,0.34
				c-0.75-0.72-1.91-1.33-2.16-2.2c-1.24-4.34-6.01-5.56-7.89-9.45c-1.91-3.95-4.57-7.54-6.94-11.26c-1.25-1.97-2.4-4.05-3.9-5.82
				c-2.64-3.12-2.64-6.38-1.59-10.12c1.42-5.02,2.77-9.91,6.41-13.98c1.64-1.83,2.66-4.47,3.29-6.91c1.19-4.6,3.36-8,8.16-9.42
				c1.07-0.32,1.91-1.41,2.85-2.15c-1.27-0.17-2.53-0.41-3.8-0.48c-1.55-0.08-3.12,0.06-4.68-0.04c-3.46-0.22-6.12,0.16-6.25,4.72
				c-0.03,1.14-2.34,3.15-3.62,3.16c-4.9,0.04-8.57,2.11-11.35,5.82c-2.72,3.62-5.97,3.71-9.61,1.99c-4.2-1.98-8.32-4.1-12.48-6.17
				c-0.18-0.15-0.36-0.3-0.53-0.45c0.21,0.12,0.41,0.25,0.62,0.37c2.92,4.09,0.24,8.01-0.57,11.88c-0.41,1.99-2.27,1.46-3.76,0.49
				c-4.79-3.1-9.62-6.14-14.43-9.21c-0.87-0.56-1.66-1.36-2.6-1.68c-1.1-0.37-2.69-0.83-3.43-0.32c-0.73,0.5-1.06,2.25-0.84,3.3
				c0.61,3.03,1.68,5.97,2.33,9c0.19,0.87-0.2,2.56-0.72,2.74c-1.03,0.36-2.51,0.27-3.49-0.25c-1.01-0.53-2.19-1.69-2.37-2.73
				c-0.89-5.14-3.72-8.9-7.44-12.37c-2.55-2.38-3.37-5.73-3.3-9.27c0.05-2.5,0.36-4.58,3.21-5.51c1.06-0.34,2.49-1.27,2.72-2.19
				c1.3-5.23,4.81-9,7.74-13.27c2.56-3.72,3.79-8.34,5.72-12.52c0.64-1.38,1.51-2.71,2.5-3.87c4.45-5.21,4.23-9.4-0.82-13.53
				c-1.01-0.82-1.94-1.78-3.05-2.41c-3.75-2.12-6.57-4.42-3.25-9.12c0.43-0.61-0.07-1.94-0.27-2.91c-0.1-0.47-0.51-0.88-0.77-1.31
				c-0.37,0.4-0.9,0.73-1.07,1.2c-0.72,1.92-1.18,3.96-2.03,5.82c-1.04,2.25-2.64,2.27-4.18,0.42c-1.65-1.99-3.09-4.17-4.83-6.08
				c-1-1.1-2.38-1.9-3.68-2.67c-0.52-0.31-1.3-0.19-1.97-0.26c0.09,0.47,0.03,1.08,0.31,1.4c2.38,2.74,1.45,4.86-1.44,6.13
				c-3.88,1.7-5.02,4.78-5.52,8.63c-0.86,6.66-1.97,13.3-3.08,19.93c-0.94,5.62-1.3,5.89-6.81,6.32c-7.84,0.61-9.84-2.29-6.56-9.43
				c0.84-1.83,2.18-3.79,2.09-5.63c-0.27-5.65,1.21-10.77,3.56-15.75c1.27-2.68,1.52-5.23,0.46-8.22
				c-1.47-4.15-2.25-8.54-3.32-12.83c-2.24,3.78-4.38,7.62-6.77,11.31c-0.79,1.22-2.04,2.58-3.33,2.92
				c-2.31,0.6-2.05,1.64-1.47,3.34c0.89,2.6-0.17,4.51-2.49,5.86c-2.91,1.7-5.73,3.57-8.7,5.16c-2.69,1.44-4.53,0.14-4.31-2.91
				c0.06-0.74,0.86-1.55,0.71-2.17c-0.41-1.62-0.81-3.45-1.85-4.64c-1.59-1.81-2.6,0.36-3.74,1.16c-0.63,0.44-1.33,1.45-1.79,1.34
				c-0.96-0.22-2.57-1.1-2.52-1.58c0.36-3.85,0.89-7.7,1.75-11.47c0.23-1,1.64-2.18,2.72-2.47c5.4-1.44,9.97-5.53,16.09-4.86
				c1.13,0.12,3.51-1.45,3.5-2.21c-0.11-6.91,5.9-8.54,9.83-11.94c2.29-1.98,4.59-3.77,7.06-0.1c0.19,0.29,1.89,0.08,2.3-0.4
				c1.47-1.72,1.57-3.68,0.45-5.76c-2.04-3.79-1.06-7.28,0.74-10.99c3.05-6.28,5.61-12.79,8.38-19.2c0.12-0.2,0.24-0.4,0.37-0.61
				c-0.09,0.23-0.18,0.46-0.27,0.69c-2.13,1.43-4.3,2.81-6.39,4.3c-3.17,2.26-5.02,5.17-4.35,9.28c0.64,3.91-1.58,6.42-4.48,8.4
				c-0.97,0.67-2.65,1.38-3.49,0.98c-4.91-2.29-9.11,0.1-13.48,1.59c-0.98,0.33-2,0.57-2.99,0.88c-5.34,1.65-9.54-0.5-11.11-5.96
				c-0.17-0.59,1.21-2.29,1.97-2.36c3.2-0.27,6.04-0.4,7.45-4.22c1.08-2.94,0.99-4.64-1.95-6.36c-4.76-2.78-4.92-5.11-1.01-8.74
				c1.8-1.67,4.28-2.38,1.98-5.97c-1.49-2.33,1.1-5.29,4.34-5.99c2.78-0.6,5.64-0.84,8.4-1.5c1.44-0.34,2.9-1.05,4.06-1.97
				c1.9-1.51,1.46-2.43-0.98-2.49c-2.39-0.05-3.47-1.48-2.6-3.59c1.17-2.84,2.16-6.45,4.41-8c3.09-2.13,2.45-4.77,2.99-7.38
				c0.18-0.1,0.37-0.17,0.52-0.3c0.09-0.08,0.11-0.24,0.16-0.37c-0.2,0.25-0.4,0.5-0.6,0.75c-2.68,2.17-5.18,4.64-8.1,6.43
				c-2.62,1.6-4.22,0.23-3.83-2.9c0.22-1.74,0.61-3.45,0.92-5.18c0.53-0.52,1.06-1.05,1.58-1.57c0.13-0.17,0.27-0.34,0.4-0.51
				c-0.11,0.2-0.22,0.39-0.32,0.59c-0.53,0.53-1.05,1.06-1.58,1.59c-3.45-1.35-6.68-2.95-10.56-3.55c-2.76-0.43-5.16-3.92-7.45-6.3
				c-1.59-1.66-2.74-3.57-1.59-6.3c0.94-2.23-0.14-2.57-2.26-1.57c-3.47,1.64-7.71-0.22-10-4.07c-1.78-2.98-1.21-6.71,1.57-9.13
				c0.72-0.63,2.1-0.57,2.7-1.25c1.45-1.63,2.41-4.7,3.96-4.98c1.86-0.33,4.1,1.7,6.23,2.58c0.8,0.33,1.74,0.29,2.62,0.43
				c-0.14-0.73-0.25-1.47-0.42-2.19c-0.64-2.65-2.25-5.13,0.58-7.81c3.92-3.72,5.02-3.7,8.08,1c2.45,3.76,4.51,7.57,3.77,12.29
				c-0.07,0.46,0.15,0.98,0.24,1.47c0.39-0.31,0.82-0.59,1.17-0.94c0.36-0.37,0.6-0.86,0.97-1.21c1.2-1.14,2.02-3.69,4.13-2.16
				c0.87,0.63,1.29,3.16,0.74,4.21c-2.11,4.04-0.63,8.11-0.85,12.16c-0.2,3.69,2.76,4.16,4.71,5.22c0.91,0.49,3.03-1.26,4.6-2
				c-0.65-0.91-1.46-1.74-1.92-2.74c-2.08-4.53-6.2-8.42-3.67-14.33c1.67-3.9,1.32-4.06,6.69-3.25c0.08,0.18,0.14,0.37,0.26,0.52
				c0.07,0.09,0.24,0.12,0.36,0.17c-0.24-0.2-0.47-0.4-0.71-0.61c-0.49-0.6-0.86-1.37-1.48-1.77c-2.67-1.71-3.73-3.62-0.97-6.1
				c2.28-2.04,1.16-3.08-0.7-4.78c-2.85-2.6-1.58-6.26-1.23-9.54c0.06-0.57,0.94-1.23,1.59-1.54c2.74-1.29,5.53-2.47,8.3-3.68
				c0.23-0.1,0.59-0.29,0.7-0.2c4.69,3.67,7.63-1.15,11.37-2.22c2.63-0.75,3.06-1.73,1.15-3.57c-2.05-1.98-4.29-3.78-6.35-5.75
				c-1.65-1.58-1.06-3.07,0.97-3.14c4.63-0.16,3.4-2.25,2.19-4.97c-2.08-4.68-1.95-4.74,2.79-6.49c0.97-0.36,1.94-0.79,2.94-1
				c3.28-0.66,5.03-2.06,3.8-5.82c-0.43-1.33-0.38-3.74,0.45-4.4c2.53-2,4.11-3.65,1.02-6.35c1.75-3.64,3.41-7.32,5.34-10.86
				c0.26-0.48,1.97-0.46,2.88-0.22c1.99,0.54,3.91,1.36,5.85,2.1c1.21,0.46,2.39,1.38,3.6,1.42c4.72,0.16,9.21-0.61,14.15,1.22
				c3.91,1.45,9.07-0.43,13.67-0.91c2.81-0.29,5.63-0.65,8.41-1.13c2.25-0.39,4.45-1.05,6.69-1.51c2.48-0.51,4.98-1.36,7.45-1.29
				c2.47,0.07,5.19,1.87,5.55-2.56c0.03-0.42,1.76-0.98,2.71-1c3.63-0.07,7.28-0.09,10.91,0.17c3.2,0.23,3.92,1.46,3.14,4.71
				c-0.3,1.25-0.82,2.46-1.26,3.68c-0.88,2.39-1.81,4.39,0.72,6.87c1.84,1.81,1.18,5.03-0.71,7.13c-2.25,2.5-4.43,5.47-7.31,6.87
				c-3.95,1.93-6.45,4.82-9.04,8.11c-2.04,2.59-5.03,4.43-7.56,6.65c-4.2,3.68-8.57,7.19-12.41,11.22
				c-1.12,1.18-0.85,3.85-0.77,5.82c0.01,0.27,2.65,0.66,4.06,0.6c4.1-0.16,5.02,0.71,3.18,4.03c-2.59,4.67-3.77,10.31-8.8,13.46
				c-0.69,0.44-0.8,1.81-1.18,2.75c0.99,0.24,1.98,0.64,2.97,0.66c1.01,0.02,2.25-0.02,3-0.57c4.59-3.36,9.83-5.27,15.04-7.39
				c5.68-2.31,10.95-4.1,17-0.96c2.04,1.06,5.19,1.27,7.38,0.53c4.69-1.58,9.18-0.8,13.82-0.37c4.61,0.42,9.27,0.57,13.9,0.47
				c4.13-0.09,8.24-0.88,12.37-1c5.9-0.18,10.23,3.33,12.02,8.85c1.87,5.76,1.91,10.92-2.32,15.94c-4.37,5.18-6.92,11.09-7.93,18.16
				c-1.08,7.59-4.32,14.88-6.64,22.3c-0.31,0.97-0.55,2.34-1.26,2.75c-5.68,3.21-6.42,9.05-8.14,14.45
				c-1.91,5.99-7.09,9.47-11.26,13.62c-4.39,4.36-4.81,7.56,0.34,9.92c7.28,3.33,7.82,5.42,0.35,10.16
				c-1.87,1.19-4.47,2.99-6.09,2.48c-6.89-2.15-10.16,2.29-12.85,6.82c-1.5,2.52-3.11,3.84-5.64,4.72
				c-1.08,0.38-1.96,1.34-2.93,2.03c1.01,0.16,2.02,0.35,3.03,0.46c0.51,0.06,1.1-0.21,1.55-0.04c7.16,2.72,12.71,1.43,17.58-5.13
				c2.95-3.98,6.49-2.62,11.32,0.34c4.65,2.85,8.96,6.87,15.22,6.72c1.93-0.04,4.79,1.5,5.73,3.16
				c5.46,9.64,14.85,15.11,22.85,21.99c3.43,2.95,5.29,5.92,5.96,10.31c1.36,8.95,3.09,17.85,4.92,26.71
				c2,9.71,5.55,18.93,10.4,27.54c3.22,5.72,8.02,10.1,14.21,12.79c5.95,2.59,11.74,5.53,17.75,7.95c4.23,1.71,7.56,4.05,10.14,7.96
				c3.27,4.97,7.13,9.56,10.81,14.25c2.22,2.83,4.42,5.55,8.12,6.89c3.17,1.15,3.22,2.3,1.09,4.4c-1.09,1.08-3.21,2.02-3.23,3.06
				c-0.03,1.58,1.26,3.25,2.17,4.77c4.92,8.25,9.93,16.44,14.82,24.7c2.09,3.52,1.66,4.16-2.65,4.43c-0.78,0.05-1.57-0.07-2.34,0.03
				c-0.93,0.12-1.84,0.37-2.76,0.57c0.69,0.71,1.25,1.71,2.09,2.08c8.6,3.74,12.2,11.5,16.02,19.25c2.41,4.9,5.6,9.47,4.33,15.29
				c-0.48,2.17-1.21,4.44-2.43,6.26c-1.86,2.79-4.08,5.39-6.44,7.78c-5.03,5.09-2.84,5.09,1.74,7.24c9.07,4.26,8.6,6.75,12.9-4.75
				c2.04-5.46,4.88-7.82,10.82-7.49c7.77,0.44,15.58-0.01,23.37,0.09c6.61,0.09,12.44,2.04,17.9,6.22
				c14.83,11.35,15.26,11.58,18.23,29.58c0.25,1.5,0.25,3.13-0.02,4.63c-1.45,7.89-3.29,15.71-4.48,23.64
				c-0.98,6.5-6.06,10.05-9.49,14.81c-2.09,2.9-6.68,4.51-4.74,9.43c-3.23,3.63-5.89,7.79-11.16,9.14
				c-5.36,1.37-5.38,1.63-5.44,7.21c-0.07,7.29-4.11,11.91-9.98,15.4c-0.53,0.32-1.01,0.72-1.51,1.09c0.49,0.15,0.97,0.33,1.47,0.45
				c4.55,1.07,8.95,2.31,12.86,5.21c1.35,1,3.95,0.78,5.87,0.47c5.11-0.81,10.16-1.95,15.23-2.99c2.42-0.49,3.76,0.29,2.78,2.82
				c-1.71,4.43-0.7,8.61,0.66,12.82c0.81,2.52,0.39,4.48-2.06,5.98c-3.74,2.3-7.07,5.56-11.08,7.03c-5.12,1.87-7.83,4.77-7.96,10.09
				c-0.08,3.17-1.66,4.31-4.52,3.33c-4.01-1.37-6.76,0.34-9.83,2.77c-2.54,2.01-5.83,3.29-8.99,4.26c-4.86,1.5-9.26,3.5-11.96,8
				c-1.7,2.83-3.67,2.84-6.55,1.9c-5.16-1.68-10.44-3.13-15.76-4.15c-3.75-0.72-7.72-1.08-11.49-0.65
				c-4.86,0.54-9.64,1.91-14.39,3.16c-1.93,0.51-4.55,1.15-5.38,2.59c-2.32,4.01-4.97,2.3-7.97,1.49c-2.95-0.79-6.03-1.17-9.08-1.49
				c-2.83-0.29-3.01,0.89-1.42,2.97c0.3,0.4,0.1,1.55-0.27,2.04c-2.02,2.67-3.89,5.56-6.37,7.73c-1.31,1.14-4.17,1.87-5.65,1.23
				c-5.12-2.25-9.94-5.19-14.88-7.87c0.53-0.52,1.06-1.04,1.59-1.56c0.52-0.52,1.04-1.04,1.56-1.57c0.14-0.18,0.28-0.36,0.42-0.55
				c-0.12,0.2-0.24,0.41-0.35,0.61c-0.52,0.52-1.04,1.04-1.56,1.56C755.45,680.55,754.93,681.08,754.41,681.61z M535.98,266.64
				c1.01-1.08,2.3-2.02,2.98-3.28c1.42-2.63,2.51-5.44,3.74-8.17c-2.68,1.61-5.44,3.1-8.01,4.86c-2.13,1.46-1.47,2.73,0.5,3.99
				c0.62,0.4,0.62,1.77,0.9,2.69c-7.19,2.41-8,3.16-7.69,7.66c0.06,0.89,0.77,1.74,1.17,2.61c0.85-0.42,2.14-0.62,2.48-1.29
				C533.5,272.76,534.69,269.68,535.98,266.64z M509.48,280.69c2.73-1.1,4.77-4.11,8.41-2.72c2.08,0.8,2.7,2.27,0.72,3.61
				c-1.97,1.33-2.16,2.29-1.07,4.21c0.73,1.29,0.94,2.88,1.38,4.33c-0.12,0.21-0.24,0.42-0.36,0.62c0.09-0.24,0.18-0.47,0.27-0.71
				c8.42-2.87,8.38-2.86,6.07-10.57c-0.59-1.96-1.16-4.01-1.24-6.03c-0.11-2.62-1.05-3.09-3.32-2.1c-2.13,0.93-4.29,2-6.54,2.43
				c-4.21,0.82-4.51,3.66-4.23,7.01c-0.18,0.07-0.4,0.11-0.54,0.23c-0.09,0.08-0.08,0.27-0.12,0.41
				C509.1,281.17,509.29,280.93,509.48,280.69z M587.47,514.63c3.44,0.02,6.49-0.57,8.84-3.61c1.01-1.3,2.93-2.29,4.59-2.6
				c6.05-1.16,12.14-2.21,18.27-2.84c3.17-0.33,4.22,2.02,3.06,5.01c-0.9,2.3-1.53,4.77-1.84,7.22c-0.19,1.53,0.36,2.64,2.74,2.46
				c3.65-0.28,4.21,0.85,2.51,3.51c-0.81,1.27-1.58,2.61-2.56,3.74c-2.25,2.58-3.59,4.87-0.43,7.96c1,0.98,1.09,3.49,0.75,5.12
				c-0.99,4.8-1.88,9.74-3.85,14.17c-1.38,3.12-4.07,6.01-6.85,8.09c-4.26,3.19-9.08,5.63-13.71,8.31
				c-1.09,0.63-2.47,1.49-3.53,1.29c-5.53-1.07-8.88,2.46-11.95,5.85c-1.93,2.14-3.45,3.53-6.46,2.89c-1.9-0.4-4.21-0.82-5.81-0.08
				c-1.77,0.82-2.84,3.07-4.42,4.45c-0.7,0.62-1.93,0.61-2.89,0.96c-0.59,0.22-1.13,0.58-1.69,0.88c0.4,0.3,0.76,0.72,1.21,0.89
				c2.62,1.02,5.25,3.1,4.65,5.56c-1.35,5.52,0.64,7.61,5.78,8.15c0.8,0.08,1.4,1.42,2.21,2c1.14,0.81,2.48,2.14,3.58,2.01
				c1.93-0.24,5.08-1.08,5.38-2.26c1.31-5.21,4.97-5.19,9.01-5.3c1.11-0.03,2.13-1.34,3.29-1.59c2.69-0.59,5.45-1.21,8.18-1.22
				c2.95-0.01,2.08,3.11,3.07,4.74c0.83,1.37,1.35,2.47,3.48,2c3.52-0.78,6.32,1.76,7.72,4.11c1.81,3.05-2.75,3.64-3.88,5.76
				c-0.12,0.23-0.19,0.48-0.28,0.73c-0.9-0.14-1.79-0.27-2.69-0.41c0.07,0.41,0.14,0.82,0.21,1.24c0.8-0.31,1.6-0.63,2.4-0.94
				c3.23-0.42,6.21-0.54,9.37-2.57c5.41-3.47,8.39-2.48,11.03,3.55c2.05,4.68,6.19,6.48,9.18,9.73c2.57,2.8,5.18,3.16,8.25,3.13
				c3.07-0.03,6.16-0.32,9.2-0.78c0.86-0.13,1.82-1.08,2.33-1.9c3.47-5.57,7.28-10.42,15-8.58c0.43,0.1,1.03-0.18,1.45-0.44
				c5.02-3.09,10-6.23,15.03-9.29c1.19-0.72,2.54-1.16,3.82-1.74c-0.36,1.38-0.47,2.91-1.14,4.12c-1.12,2.03-2.46,3.98-3.97,5.74
				c-4.22,4.93-8.56,9.76-12.87,14.6c-2.93,3.29-5.96,6.39-4.34,11.53c0.7,2.23-0.43,4.03-3.12,4.33
				c-9.05,0.99-18.02,5.92-27.22,0.48c-0.81-0.48-2.01-0.32-3.04-0.42c-9.41-0.95-18.62,0.12-27.69,2.75
				c-4.69,1.36-5.2,1.49-3.59,5.51c1.38,3.46-0.05,5.21-2.01,7.48c-2.56,2.97-5.66,3.07-9.18,2.88c-4.61-0.24-4.92,0.2-5.23,4.53
				c-0.08,1.03-0.19,2.12,0.02,3.11c1.33,6.37-2.02,10.26-6.81,13.59c-1.87,1.3-4.71,3-4.83,4.67c-0.38,5.6-4.67,6.62-8.36,7.91
				c-3.99,1.4-7.3,2.57-6.7,7.79c0.11,0.99-1.07,2.32-1.95,3.21c-5.31,5.35-10.63,10.69-16.09,15.88c-1.82,1.73-3.81,2.58-6.85,2.49
				c-3.22-0.09-6.69,2.05-9.65,3.87c-0.9,0.55-1.18,3.64-0.5,4.89c1.1,2.03,3.18,0.95,4.68-0.15c1.03-0.76,1.94-1.74,2.76-2.73
				c1.58-1.91,3.25-1.71,5.52-1.13c4.91,1.26,8.25,4.12,10.55,8.45c1.02,1.92,2.25,2.57,4.23,1.11c1.69-1.24,2.52-2.05,0.77-4.22
				c-2.55-3.15-2.21-3.19,1.5-5.14c2.19-1.15,4.04-2.94,6.04-4.45c1.22-0.93,2.38-2.62,3.63-2.69c4.17-0.23,5.86-2.87,7.06-6.19
				c1.18-3.28,3.57-4.11,6.76-3.79c3.42,0.34,6.48-0.4,9.68-2.04c3.71-1.9,8.03-2.26,11.82,0.42c1.59,1.12,2.94,1.97,4.9,0.76
				c0.8-0.49,2.46-0.91,2.89-0.49c4.07,3.91,10.69,1.45,14.67,6.25c1.43,1.73,5.22,1.77,7.98,1.96c0.57,0.04,1.09-2.87,2.06-4.07
				c0.91-1.13,2.33-1.9,3.64-2.65c2.26-1.3,3.91-2.69,2-5.49c-0.43-0.62-1.17-1.68-0.95-2c3.68-5.45,0.79-15.35,11.02-16.42
				c0.63-0.07,1.37-0.84,1.72-1.47c1.6-2.9,4.64-3.11,7.28-4c3.18-1.08,6.64-1.53,9.61-3c5.52-2.73,10.56-1.75,15.57,0.99
				c3.64,1.99,7.17,4.2,10.84,6.14c0.94,0.5,2.94,0.84,3.22,0.43c2.26-3.35,5.23-2.33,8.36-2c4.12,0.44,8.31,0.25,12.46,0.45
				c2.83,0.13,5.03,0.01,5.44-3.76c0.14-1.31,2.1-3.1,3.54-3.48c4.41-1.16,8.99-1.67,13.47-2.57c1.43-0.29,2.81-0.92,4.16-1.51
				c1.88-0.82,3.65-1.95,5.58-2.61c4.59-1.57,4.59-1.49,4.17-6.44c-0.06-0.67,0.2-1.71,0.65-1.97c0.49-0.28,1.48-0.02,2.09,0.31
				c1.36,0.75,2.7,1.58,3.9,2.56c3.81,3.13,8.06,4.16,13,3.84c2.98-0.19,6.16,0.56,9.04,1.52c2.51,0.84,4.33,1.09,6-1.34
				c0.53-0.77,1.65-1.36,2.6-1.59c7.05-1.7,14.09-3.45,21.21-4.8c2.18-0.41,4.65,0.09,6.87,0.63c5.78,1.41,11.54,2.95,17.23,4.71
				c2.63,0.81,4.62,0.61,5.95-1.89c2.14-4.01,5.84-5.6,9.89-6.94c3.42-1.13,6.9-2.42,9.9-4.34c3.14-2,6.06-3.78,9.99-3.61
				c1.12,0.05,3.04-1.2,3.33-2.2c1.77-6.28,5.39-10.43,11.93-11.8c0.72-0.15,1.34-0.77,2.03-1.13c5.44-2.82,9.69-6.14,6.27-13.23
				c-0.52-1.08-0.34-2.57-0.28-3.86c0.1-2.49-1.19-3.3-3.38-2.85c-3.8,0.77-7.54,1.95-11.38,2.41c-2.15,0.26-4.98,0.13-6.54-1.08
				c-4.54-3.51-10.04-4.02-15.1-5.86c-3.66-1.33-8.21-0.19-11-3.92c3.66-0.94,7.27-2.38,10.98-2.69c3.59-0.3,5.62-2.16,7.63-4.66
				c3.06-3.8,3.24-8.04,2.29-12.54c-0.94-4.44-0.92-4.46,3.57-4.85c1.55-0.14,3.19,0.08,4.65-0.34c3.33-0.94,7.65-3.06,6.95-6.15
				c-0.96-4.28,1.58-5.6,3.48-7.73c2.59-2.91,5.33-5.7,8.12-8.41c2.72-2.64,4.22-5.64,4.74-9.49c0.89-6.66,1.93-13.36,3.69-19.83
				c2.3-8.45-1.78-15.73-3.37-23.47c-0.18-0.88-1.16-1.71-1.95-2.33c-4.68-3.7-9.24-7.6-14.21-10.87c-2.48-1.63-5.69-2.33-8.68-2.95
				c-9.76-2.02-19.57,0.07-29.37-0.18c-2.67-0.07-4.27,0.97-5.24,3.61c-1.34,3.64-3.12,7.13-4.73,10.67
				c-0.92,2.01-2.33,2.63-4.38,1.53c-1.14-0.61-2.36-1.09-3.5-1.7c-4.33-2.32-8.63-4.66-12.95-7c3.03-4.06,5.67-8.53,9.2-12.1
				c4.8-4.85,5.03-10.46,2.64-15.74c-4.53-10.04-8.55-20.83-20.26-25.28c-0.7-0.27-1.31-0.85-1.88-1.38
				c-5.72-5.23-11.84-9.22-20.19-7.06c-0.73,0.19-1.72-0.65-2.59-1.01c0.7-0.68,1.28-1.66,2.12-1.99c1.43-0.57,3.09-0.55,4.52-1.11
				c4.81-1.87,8.79-1.2,12.88,2.31c2.37,2.03,6.03,2.58,9.15,3.7c0.65,0.23,1.46,0.03,2.2,0.03c-0.13-0.89-0.02-1.93-0.44-2.65
				c-4.9-8.26-9.9-16.45-14.83-24.7c-1.02-1.7-2.96-3.73-0.77-5.5c3.39-2.73,0.96-3.53-0.91-5.36c-2.94-2.89-5.82-6.05-7.88-9.59
				c-6.61-11.35-16.44-18.15-28.59-22.53c-5.25-1.9-10.46-4.84-14.68-8.48c-9.89-8.54-13.16-20.9-16.5-32.84
				c-2.43-8.69-3.8-17.72-5.07-26.68c-0.98-6.89-4.23-11.62-9.8-15.76c-6.8-5.06-14.19-9.8-18.27-17.76
				c-1.37-2.68-3.6-3.19-6.42-3.3c-2.19-0.09-4.55-0.82-6.47-1.9c-3.51-1.98-6.62-4.66-10.17-6.55c-1.29-0.69-3.57-0.43-4.98,0.25
				c-1.53,0.74-2.65,2.43-3.83,3.81c-2.77,3.25-7,4.89-10.43,4.08c-6.2-1.47-12.39-0.72-18.5-1.62c-6.77-1-13.17-3.11-17.33-9.18
				c-0.4-0.58-0.42-1.41-0.62-2.12c0.91-0.11,2.12-0.67,2.69-0.28c5.12,3.54,11.21,3.74,16.96,5.01c4.45,0.98,8.46-0.89,11-4.26
				c4.46-5.92,8.48-11.62,17.42-9.48c1.46,0.35,3.65-2.33,5.5-3.61c-1.13-1.17-2.16-2.46-3.42-3.47c-0.99-0.8-2.42-1.07-3.37-1.9
				c-0.86-0.76-2.09-2.2-1.85-2.92c1.37-4.23-1.26-3.88-3.52-2.98c-4.09,1.63-7.97,3.79-11.98,5.61c-0.56,0.26-1.42-0.15-2.15-0.24
				c0.1-0.68-0.06-1.59,0.33-1.99c4.18-4.37,8.71-8.72,15.09-8.74c8.92-0.02,14.15-5.67,17.3-12.29c2.95-6.22,6.15-12.07,9.6-18.01
				c4.17-7.16,5.76-16,7.54-24.31c0.88-4.14,1.73-8.05,4.04-11.58c1.71-2.61,3.56-5.12,5.17-7.78c2.68-4.4,2.24-11.55-1.25-15.2
				c-1.28-1.34-3.5-2.44-5.32-2.49c-4.91-0.12-9.84,0.49-14.76,0.62c-3.83,0.11-7.67-0.06-11.5-0.1c-4.64-0.05-9.46-0.9-13.86,0.11
				c-3.82,0.88-7.01,1.17-10.4-0.74c-3.94-2.21-8.28-2.39-11.92-0.12c-5.46,3.41-12.33,3.72-17.18,8.27
				c-0.36,0.34-0.92,0.6-1.41,0.63c-4.6,0.26-8.37,1.9-11.27,5.72c-0.6,0.8-2.69,0.47-4.09,0.66c0.28-1.35,0.5-2.71,0.85-4.04
				c0.81-3.13,6.71-5.43,1.53-9.56c-0.19-0.15-0.07-1.15,0.22-1.39c1.96-1.63,4.6-4.87,5.9-4.41c4.44,1.58,4.68-1.62,5.97-3.9
				c1.01-1.78,0.88-3.04-1.56-2.76c-2.57,0.29-5.1,0.92-7.66,1.15c-0.84,0.08-1.84-0.5-2.57-1.04c-0.18-0.14,0.19-1.65,0.66-1.94
				c3.34-2,5.49-4.58,5.29-8.74c-0.03-0.61,0.67-1.39,1.22-1.87c4.86-4.19,9.85-8.24,14.62-12.53c2.85-2.56,5.61-5.3,7.95-8.31
				c1.64-2.11,3.06-4.03,5.86-4.69c3.85-0.9,5.86-4.13,7.93-7.1c0.46-0.66,0.57-2.42,0.18-2.68c-4.09-2.75-1.84-5.98-0.76-9
				c1.76-4.89,2.79-5.83-4.63-5.69c-1.22,0.02-3.49,1.03-3.46,1.49c0.22,4.3-2.71,3.29-4.74,2.71c-4.72-1.34-9.06-1.31-13.48,1.25
				c-1.63,0.95-4,0.67-6.05,0.85c-2.32,0.21-4.9-0.27-6.94,0.57c-9.29,3.86-18.65-1.28-27.92,0.51c-0.86,0.17-1.9-0.72-2.88-1.09
				c-1.94-0.73-3.93-1.33-5.82-2.17c-1.63-0.72-3.24-0.9-4.02,0.81c-0.91,2-2.4,5.62-1.72,6.16c4.47,3.59,4.25,5.64-0.98,8.1
				c-1.05,0.49-1.02,4.19-0.76,6.32c0.28,2.3-0.42,3.45-2.44,4.09c-0.74,0.23-1.52,0.37-2.24,0.65c-1.9,0.75-4.59,1.09-5.41,2.5
				c-0.61,1.04,1.39,3.46,1.91,5.35c0.37,1.33,0.73,3.78,0.22,4.05c-4.12,2.14-2.15,3.43,0.31,5.09c1.49,1,2.76,2.36,4.01,3.68
				c1.31,1.38,1.5,3.02-0.66,3.49c-4.34,0.93-8.68,1.64-11.43,5.71c-0.2,0.3-1.12,0.48-1.4,0.29c-3.17-2.24-6,0.07-8.9,0.67
				c-5.04,1.04-5.96,4.04-1.99,7.69c2.26,2.08,2.7,3.49,0.7,5.7c-2.03,2.24-1.56,4.18,0.8,5.87c1.26,0.9,2.61,1.76,3.65,2.88
				c0.58,0.62,1.09,2.09,0.76,2.6c-0.65,0.98-1.92,2.16-2.94,2.16c-1.45,0-2.9-0.98-4.34-1.54c-1.96-0.76-3.01,0.3-3.46,1.97
				c-0.84,3.09,1.96,8.86,4.87,9.59c2.82,0.7,7.41-0.32,3.52,4.99c-0.11,0.16,0.25,0.98,0.51,1.04c4.47,1.1,2.51,3.58,1.24,5.83
				c-1.4,2.48-3.06,4.83-4.34,7.38c-0.64,1.27-1.44,3.47-0.86,4.17c2.69,3.26,0.97,4.42-1.96,5.48c-1.21,0.44-2.57,0.93-3.39,1.83
				c-1.01,1.09-1.52,2.64-2.25,3.99c1.25,0.47,2.47,1.1,3.76,1.36c1.67,0.35,3.65,1.07,2.23,2.79c-3.15,3.82-5.37,9.21-11.92,8.55
				c-1.46-0.15-3.04,0.57-4.53,0.99c-0.71,0.2-1.35,0.64-2.02,0.97c0.65,0.24,1.28,0.62,1.95,0.71c4.11,0.54,8.23,0.96,12.33,1.56
				c0.55,0.08,1.12,0.87,1.41,1.46c0.14,0.28-0.25,1.01-0.6,1.29c-0.59,0.48-1.45,0.65-1.99,1.16c-1.02,0.96-2.88,2.53-2.65,3.04
				c0.68,1.47,2.02,3.1,3.48,3.66c5.07,1.93,9.91,2.07,13.79-2.84c1.59-2.02,3.68-3.67,5.66-5.34c1.58-1.33,3.29-2.52,5.06-3.58
				c0.21-0.13,1.71,1.04,1.64,1.43c-0.26,1.51-0.8,3-1.45,4.41c-3.67,8.02-7.29,16.07-11.18,23.99c-1.48,3.02-2.21,5.76-0.32,8.79
				c1.56,2.5,0.94,4.88-0.36,7.32c-1.72,3.2-3.39,6.44-4.79,9.79c-0.51,1.24-0.71,3.78-0.13,4.1c2.98,1.68,1.87,3.61,1.23,5.94
				c-0.45,1.6-0.62,3.98,0.26,5.12c2.25,2.94,0.78,5.38-0.14,8.02c-1.26,3.66-3.19,7.26-3.6,11.01c-0.5,4.63-0.03,9.28-2.95,13.4
				c-0.48,0.67-0.07,2.76,0.63,3.32c2.04,1.62,5.93,0.12,6.73-2.48c0.61-1.96,0.9-4.03,1.25-6.07c1.03-6.12,1.9-12.27,3.08-18.37
				c0.32-1.64,1.14-3.46,2.31-4.62c3.95-3.9,4.05-3.81,1.62-8.47c-0.6-1.15-1.29-2.26-1.83-3.44c-2.84-6.21-2.4-7.62,3.47-11.87
				c0.84-0.6,1.46-1.51,2.31-2.07c0.58-0.38,1.78-0.79,2.04-0.53c0.65,0.65,1.41,1.79,1.25,2.53c-0.69,3.02-1.87,5.92-2.52,8.94
				c-0.23,1.08,0.57,2.37,0.89,3.57c0.82-0.62,1.81-1.1,2.43-1.88c1.2-1.51,2.48-1.68,4.05-0.74c1.11,0.67,2.21,1.36,3.33,2.01
				c3.56,2.05,4.15,1.98,5.2-2.07c0.75-2.9,1.23-5.94,4.68-6.28c2.69-0.27,5.55,0.18,8.19,0.87c1.22,0.32,2.09,1.98,3.13,3.03
				c-1.4,0.96-2.77,1.97-4.23,2.83c-0.34,0.2-1.01-0.02-1.48-0.2c-3.83-1.41-4.66,0.99-4.72,3.92c-0.07,3.28,0.62,6.64,0.14,9.83
				c-0.37,2.48,0.19,3.99,2,5.34c1.66,1.24,3.43,2.35,5.02,3.68c4.73,3.97,5.04,11.12,1.1,15.81c-2.46,2.93-5.47,5.98-6.41,9.46
				c-1.28,4.72-3.52,8.57-6.45,12.22c-2.97,3.7-4.07,7.7-2.6,12.36c0.45,1.43,0.5,3.06,0.35,4.57c-0.04,0.38-1.76,1.09-2.28,0.82
				c-0.81-0.42-1.19-1.59-1.85-2.36c-0.73-0.85-1.56-1.61-2.34-2.42c-0.23,1.24-0.99,2.72-0.57,3.67c1.12,2.52,2.63,4.89,4.22,7.15
				c1.16,1.65,1.98,2.06,3.88-0.11c4.07-4.65,5.3-4.46,10.58-1.05c3.92,2.53,7.75,5.22,11.71,7.7c0.99,0.62,3.09,1.27,3.34,0.93
				c0.83-1.15,1.43-2.74,1.41-4.15c-0.02-1.14-1.22-2.21-1.6-3.4c-0.42-1.35-1.14-3.15-0.6-4.14c1.12-2.08,3.08-1.18,4.74-0.25
				c4.07,2.28,8.17,4.52,12.21,6.87c2.88,1.67,5.38,1.62,7.55-1.14c2.65-3.37,5.92-5.77,10.31-6.3c2.5-0.3,3.61-1.68,3.47-4.2
				c-0.16-2.9,1.22-4.27,4.17-4.24c6.5,0.06,12.99-0.01,19.49,0.09c0.9,0.01,1.79,0.72,2.69,1.11c-0.6,1.05-0.95,2.52-1.86,3.07
				c-3.11,1.87-6.56,3.19-9.58,5.17c-1.82,1.19-3.41,3.03-4.52,4.92c-2.34,3.98-4.29,8.18-6.41,12.29
				c-3.73,7.25-6.95,14.37-0.53,22.04c3.14,3.76,5.52,8.16,8.19,12.31c1.32,2.05,2.46,3.94,5.55,2.61c1.91-0.83,2.85,0.37,2.5,2.41
				c-0.18,1.02-0.61,2.07-0.47,3.05c0.12,0.86,0.75,1.77,1.42,2.35c0.22,0.19,1.35-0.44,1.91-0.89c0.92-0.74,8.78-3.34,9.83-3.82
				c4.43-2,5.52,1.36,6.73,4.12c1.49,3.38-2.95,4-3.32,6.19c-0.38,2.26,1.1,4.8,0.93,7.16c-0.07,0.95-2.43,1.65-3.61,2.63
				c-1.13,0.94-2.91,2.06-2.97,3.17c-0.15,3.3-0.66,7.3,0.93,9.8c2.6,4.1,1.88,7.2-0.26,10.75c-2.22,3.68-3.75,7.43-1.41,11.72
				c1.4,2.57,0.48,4.68-2.03,5.75c-3.52,1.51-3.84,3.52-2.09,6.71c0.76,1.39,0.52,3.32,0.74,5.01c-1.65-0.07-3.51,0.33-4.93-0.29
				c-5.09-2.23-9.96-2.15-15.07-0.05c-2.33,0.96-5.3,2.01-7.46,1.35c-3.92-1.2-6.78-0.33-9.9,1.83c-2.1,1.46-4.51,2.81-6.97,3.38
				c-6.29,1.45-9.96,6.85-15.31,9.66c-0.79,0.42-1.46,1.57-1.67,2.49c-0.72,3.27-2.77,5.42-5.34,7.35
				c-4.11,3.09-8.11,6.34-12.16,9.52c-0.13,0.19-0.27,0.39-0.4,0.58C587.25,515.07,587.36,514.85,587.47,514.63z M529.17,170.85
				c7.26-0.08,7.26-0.08,4.62,6.64c-0.09,0.24-0.33,0.49-0.3,0.7c0.09,0.64,0.28,1.26,0.43,1.89c0.44-0.26,0.97-0.43,1.32-0.78
				c3.58-3.57,4.73-9.39,10.32-11.14c0.23-0.07,0.48-0.87,0.35-1.15c-0.2-0.4-0.72-0.82-1.15-0.89c-0.72-0.11-1.72-0.24-2.2,0.15
				c-4.03,3.26-7,1.39-9.84-1.78c-0.68-0.76-1.59-1.33-2.47-1.87c-5.57-3.37-7.91-8.48-6.21-14.55c1.58-5.62-1.4-9.43-3.7-13.68
				c-0.2-0.37-0.93-0.88-1.08-0.79c-0.62,0.38-1.49,0.92-1.58,1.5c-0.22,1.5-0.14,3.05-0.06,4.57c0.13,2.67,3.12,6.03,0.05,7.69
				c-1.44,0.77-4.81-2.05-7.31-3.25c-0.23-0.11-0.44-0.32-0.68-0.37c-1.14-0.24-2.3-0.44-3.45-0.65c-0.03,0.96-0.14,1.93-0.07,2.88
				c0.3,3.86,0.32,3.8-4.01,3.47c-0.59-0.04-1.78,0.85-1.79,1.33c-0.1,3.56,2.94,5.52,6.12,4.1c4.79-2.15,8.33-0.06,7.2,4.72
				c-0.66,2.79,0.34,4.11,1.59,6.15C518.66,171.31,524.54,169.22,529.17,170.85z M543.86,231.03c0.39-3.75-0.88-6.39-4.14-6.09
				c-6.37,0.59-9.52-2.45-11.48-7.83c-0.26-0.71-0.75-1.38-1.28-1.92c-1.67-1.71-5.29-0.72-7.21,2.01
				c-1.21,1.72-0.21,2.85,1.25,3.77c1.72,1.09,4.36,1.86,4.9,3.38c0.53,1.5-1.07,3.75-1.72,5.67c-0.16,0.49-0.52,1.11-0.35,1.48
				c2.39,5.35-1.26,5.36-4.8,5.5c-0.51,0.02-1.09,0-1.52,0.23c-0.32,0.17-0.68,0.75-0.61,1.05c0.1,0.44,0.59,1.17,0.87,1.15
				c1.98-0.16,3.96-0.44,5.93-0.76c4.5-0.72,8.32-4.11,13.42-2.79C541.3,236.97,543.43,235.1,543.86,231.03z M596.89,477.76
				c-0.31,6.5,4.83,8.08,9.29,10.28c4.23,2.09,4.14-2.39,6-3.9c0.6-0.49,1.2-0.98,1.8-1.47c2.91-2.35,2.77-2.13-0.26-4.01
				c-2.15-1.33-4.36-3.05-5.65-5.15c-2.23-3.63-5.37-2.63-8.19-2.09C596.49,472.07,597.1,475.26,596.89,477.76z M768.19,676.16
				c-1.75,1.13-3.8,2.5-5.9,3.78c-0.64,0.39-1.42,0.54-2.14,0.79c0.55,0.48,1.04,1.04,1.65,1.42c2.18,1.33,4.43,2.54,6.59,3.91
				c1.78,1.13,3.46,1.32,4.63-0.62c1.39-2.29,2.51-4.74,3.74-7.12c-2.43-0.61-4.86-1.23-7.29-1.84
				C769.22,676.42,768.97,676.36,768.19,676.16z M560.33,265.2c-1.2-0.49-1.89-1.04-2.43-0.91c-0.49,0.11-1.07,0.93-1.13,1.49
				c-0.06,0.61,0.43,1.28,0.69,1.92C558.09,267.15,558.71,266.6,560.33,265.2z M571.91,274.94c-0.84,2.21-1.26,2.85-1.12,3.02
				c0.74,0.9,1.62,1.67,2.45,2.49c0.26-0.49,0.85-1.09,0.72-1.43C573.54,277.85,572.86,276.78,571.91,274.94z M529.31,213.13
				c0.9-0.68,1.66-1.26,2.43-1.84c-0.68-0.16-1.36-0.45-2.03-0.43c-0.65,0.01-1.3,0.34-1.95,0.53
				C528.22,211.9,528.68,212.42,529.31,213.13z M644.23,261.25c-0.43-0.18-0.86-0.49-1.3-0.51c-0.43-0.02-0.88,0.25-1.31,0.39
				c0.43,0.18,0.86,0.48,1.3,0.5C643.34,261.66,643.79,261.4,644.23,261.25z M770.74,672.88c-0.27-0.37-0.48-0.85-0.84-1.06
				c-0.25-0.14-0.71,0.11-1.08,0.19c0.21,0.38,0.33,0.95,0.65,1.08C769.8,673.23,770.31,672.97,770.74,672.88z M578.99,362.77
				c-0.11,0.19-0.28,0.38-0.3,0.58c-0.02,0.22,0.1,0.45,0.16,0.68c0.11-0.2,0.29-0.38,0.32-0.59
				C579.19,363.23,579.06,363,578.99,362.77z"/>
			<path d="M521.62,332.67c-1.31,2.41-0.2,3.55,2.15,4.55c0.81,0.34,1,2.16,1.46,3.32c2.02,5.04,4.17,9.81,9.3,12.77
				c5.69,3.29,6.05,7.85,1.5,12.65c-0.52,0.54-1.18,0.94-1.78,1.41c0.66,0.17,1.31,0.45,1.97,0.48c1.56,0.09,3.2-0.24,4.65,0.17
				c1.65,0.46,3.87,1.15,4.54,2.42c3.43,6.56,6.63,13.12,5.07,21.14c-1.22,6.28-4.93,10.7-8.69,15.3c-1.43,1.75-2.93,1.13-4.83,0.77
				c-5.39-1.04-6.07-0.35-6.79,5.28c-0.62,4.8-6.04,11.41-10.44,12.17c-1.21,0.21-3.02-0.73-3.94-1.72
				c-3.49-3.73-6.63-4.75-11.49-1.58c-3,1.96-7.37,2-11.18,2.46c-3.13,0.38-5.92-3.42-4.83-7.12c1.05-3.52,0.99-5.17-3.22-5.69
				c-3.95-0.49-4.42-4.71-6.2-7.44c-0.52-0.8-0.41-1.98-0.65-2.97c-1.07-4.25-4.08-7.77-5.94-6.98c-1.68,0.71-5.04,7.19-4.28,9.21
				c1.12,2.96,0.99,5.08-2.27,6.17c-2.35,0.79-2.58,2.81-3.36,4.76c-1.58,3.93-3.23,4.54-7.33,3.84c-2.48-0.42-5-0.61-7.49-0.95
				c-1.23-0.17-2.8-0.06-3.61-0.77c-3.15-2.77-5.46-6.8-10.79-5.52c-0.69,0.17-2.43-1.46-2.69-2.5c-1.44-5.68-6.14-8.74-9.71-12.71
				c-1.21-1.35-2.42-2.73-3.41-4.24c-2.7-4.13-2.49-4.34,1.61-7.33c3.45-2.52,6.04-6.41,11.31-5.44c0.97,0.18,2.33-1.77,3.51-2.73
				c-0.84-0.76-1.68-1.5-2.5-2.27c-0.57-0.53-1.16-1.05-1.65-1.66c-1.26-1.55-3.64-3.27-1.76-5.24c1.77-1.86,4.05-5.16,6.99-3.51
				c5.08,2.84,7.73-1.45,10.46-3.45c2.62-1.91,4.7-5.25,4.97-9.32c0.2-2.99,1.71-5.94,2.9-8.8c2.1-5.06,4.73-6.34,10.31-5.38
				c0.76,0.13,1.53,0.24,2.29,0.42c3.33,0.8,5.58-0.39,6.64-3.65c0.56-1.71,0.77-3.58,1.58-5.15c0.48-0.92,2.2-2.21,2.71-1.96
				c6.42,3.09,11.69-0.83,16.85-3.15c3.87-1.74,7.56-1.57,11.35-1.53c3.55,0.04,7.1,0.85,10.65,1.37
				C519.88,323.2,522.07,326.82,521.62,332.67z M518.35,334.14c0.66-7.13,0.08-7.76-6.89-8.06c-1.26-0.05-2.49-0.61-3.75-0.88
				c-4.89-1.08-9.6-1.19-14.36,1.09c-3.64,1.75-7.65,3.64-11.52,3.68c-3.37,0.03-4.91,0.45-6.38,3.55
				c-3.38,7.15-3.58,7.06-11.11,6.41c-6.92-0.6-7.18-0.68-9.15,6.06c-1.72,5.87-4.11,11.43-6.58,16.98
				c-0.3,0.67-0.95,1.82-1.22,1.75c-4.77-1.08-8.16,4.84-13.19,2.56c-0.6-0.27-1.79,0.74-2.71,1.16c0.51,0.66,0.88,1.62,1.56,1.94
				c1.86,0.89,3.84,1.52,5.78,2.24c1.96,0.73,2.54,2.38,0.85,3.39c-3.85,2.3-6.36,6.56-11.92,6.64c-2.72,0.03-5.41,3.31-8.11,5.12
				c1.38,2.06,2.61,4.25,4.19,6.14c1.63,1.94,3.38,3.95,5.49,5.27c1.83,1.14,2.5,2.4,2.58,4.34c0.15,3.52,1.35,5.4,5.42,4.07
				c1.15-0.38,3.31,0.24,4.1,1.18c2.84,3.37,5.73,4.96,10.56,4.51c5.41-0.5,5.46,0.26,8.25-4.04c0.41-0.64,0.97-1.31,1.63-1.63
				c2.28-1.11,2.95-3.01,2.22-5.17c-1.26-3.69-0.71-6.29,3.36-7.51c0.4-0.12,0.62-0.81,0.96-1.19c3.76-4.2,5.04-4.34,9.16-0.69
				c2.14,1.9,3.97,3.98,4.2,7.17c0.31,4.38,1.5,8.02,7.06,8.51c2.86,0.26,4.13,2.66,3.71,5.81c-0.84,6.24-0.75,6.23,5.12,5.05
				c1.51-0.3,3.58,0.11,4.48-0.75c5.13-4.89,9.72-2.64,14.59,0.39c3.81,2.36,7.96,0.74,9.88-3.69c0.71-1.63,0.97-3.48,1.29-5.26
				c0.97-5.41,1.67-6.7,6.78-6.31c5.54,0.42,7.83-2.35,10.02-6.61c3.56-6.92,4.19-13.63-0.21-20.33c-1.2-1.82,0.11-5.22-3.19-5.59
				c-2.56-0.29-5.25-0.39-7.73,0.13c-1.6,0.34-2.85,2.08-4.4,2.95c-0.97,0.54-2.2,0.62-3.31,0.91c-0.24-1.23-0.87-2.53-0.66-3.67
				c0.75-4.07,4.19-5.59,7.37-7.41c4.01-2.29,3.9-2.31-0.02-5.2c-1.18-0.87-2.05-2.25-2.88-3.52c-2.25-3.44-5.32-6.7-6.35-10.5
				C522.18,341.06,516.13,339.38,518.35,334.14z"/>
			<path d="M490.49,88.31c2.51,0.7,3.98,1.19,5.5,1.51c1.75,0.38,2.55-0.48,1.89-2.11c-1.12-2.79,0.2-4.47,2.35-5.82
				c6.58-4.14,13.12-8.35,19.81-12.31c3.41-2.02,4.43-1.38,5.25,2.47c0.48,2.27,1.17,4.55,1.29,6.85c0.09,1.71,0.05,4.2-1,5.07
				c-6.04,5-6.66,12.16-7.73,18.94c-1.02,6.51-3.15,11.24-10.22,12.83c-2.06,0.47-3.79,2.54-5.59,3.98
				c-2.58,2.07-4.88,4.53-7.65,6.29c-4.39,2.79-9.14,0.98-11.03-4.06c-0.31-0.84,0.42-2.4,1.13-3.22c1.96-2.24,7.17-1.14,6.86-4.94
				c-0.15-1.83-4.21-3.29-6.43-5.01c-1.87-1.44-2.97-2.85-0.28-4.86c0.63-0.47-0.15-2.66-0.04-4.03c0.22-2.75,0.02-5.76,1.12-8.14
				C486.53,90.06,489.16,89.21,490.49,88.31z M523.6,79.6c-0.39-1.9-0.62-3.43-1.02-4.91c-0.52-1.94-1.44-2.31-3.29-1.1
				c-5.41,3.51-10.94,6.86-16.46,10.21c-1.45,0.88-2.08,1.74-1.89,3.68c0.67,6.67,0.54,6.69-6.17,5.2c-0.76-0.17-1.5-0.38-2.27-0.49
				c-2.21-0.31-4.2-0.12-4.82,2.56c-0.67,2.9,0.44,5.68,3.19,5.97c4.25,0.45,6.89,3.34,10.08,5.41c2.16,1.4,4.14,3.09,6.15,4.71
				c2.19,1.76,4.15,1.11,5.03-1.11c1.41-3.55,2.57-7.26,3.28-11.01c1.07-5.59,1.67-11.2,6.38-15.31
				C522.81,82.5,523.08,80.74,523.6,79.6z M490.43,104.82c-0.8,0.72-1.45,1.15-1.86,1.75c-0.14,0.2,0.18,0.95,0.49,1.2
				c0.79,0.65,1.73,1.11,2.55,1.72c2.05,1.52,5.49,2.84,5.81,4.69c0.64,3.7-4.38,2.35-5.99,4.59c-1,1.39-4.74,1.25-2.69,4.26
				c1.74,2.56,3.59,0.54,5.29-0.49c0.44-0.27,0.96-0.47,1.3-0.83c2.5-2.73,4.96-5.49,7.44-8.25c-2.32-1.99-4.63-4-6.96-5.97
				c-0.59-0.5-1.23-0.97-1.92-1.3C492.75,105.68,491.57,105.27,490.43,104.82z"/>
			<path d="M660.84,48.31c-2.54,0.88-4.38,3.76-7.68,2.5c-3.96-1.5-5.78-4.98-7.7-8.29c-0.55-0.95-0.72-2.99-0.11-3.62
				c3.52-3.63,2.59-8.08,2.78-12.36c0.26-5.96,1.97-7.5,8.14-6.99c2.13,0.18,2.93-0.04,2-2.28c-1.06-2.57,0.42-3.33,2.6-3.12
				c1.23,0.12,2.8,0.4,3.54,1.22c1.1,1.22,1.61,2.98,2.37,4.51c-1.48,0.67-2.96,1.34-4.44,2.01c-0.08-0.18-0.13-0.38-0.25-0.53
				c-0.08-0.09-0.26-0.1-0.39-0.14c0.24,0.19,0.49,0.39,0.73,0.58c1.04,1.58,2.08,3.17,3.12,4.75c-0.15,0.19-0.31,0.38-0.46,0.57
				c0.12-0.22,0.25-0.44,0.37-0.66c1.73-1.09,3.3-2.42,5.38-0.3c2.25,2.3,2.23,3.27-0.76,4.97c-0.64,0.37-1.37,0.59-2.05,0.88
				c0.73,0.66,1.37,1.54,2.22,1.92c0.9,0.4,2.13,0.06,2.99,0.5c1.21,0.61,3.13,1.68,3.09,2.48c-0.07,1.54-0.93,3.5-2.12,4.43
				c-1.54,1.2-3.73,1.56-5.65,2.28c0,0,0.11,0.1,0.11,0.1c-2.31-4.05-5.21-6.7-10.31-4.63c-0.64,0.26-1.5-0.03-2.25-0.06
				c-1.04-0.52-2.08-1.04-3.13-1.56c-0.71-0.21-1.42-0.42-2.13-0.63c0.74,0.18,1.48,0.36,2.21,0.53c1.04,0.52,2.09,1.03,3.13,1.55
				c-1.13,4.45,3.55,6.08,4.58,9.48L660.84,48.31z M667.08,35.81c0.52,0.53,1.05,1.05,1.57,1.58c0.71,0.53,1.38,1.15,2.16,1.53
				c0.28,0.14,0.84-0.29,1.28-0.46c-0.45-0.28-0.87-0.69-1.36-0.81c-0.69-0.17-1.44-0.12-2.16-0.17c-0.53-0.53-1.05-1.05-1.58-1.58
				c-0.52-0.52-1.04-1.04-1.56-1.56c-1.14-0.44-2.25-1.03-3.44-1.29c-2.59-0.57-3.96-2.49-2.31-4.33c3.02-3.38,0.63-4.14-1.77-5.22
				c-1.84-0.83-3.78-2.18-5.55-0.03c-2.21,2.67-0.71,8.7,2.15,10.72c3.78,2.67,7.35,0.81,11.02,0.08
				C666.04,34.77,666.56,35.29,667.08,35.81z M655.2,46.01c-1.36-1.62-3.05-3.68-4.82-5.68c-0.24-0.27-1.24-0.3-1.27-0.22
				c-0.22,0.65-0.65,1.63-0.37,1.98c1.55,1.94,3.26,3.74,4.99,5.52c0.18,0.19,0.86-0.07,1.28-0.19
				C655.09,47.4,655.07,47.03,655.2,46.01z"/>
			<path d="M476.68,129.53c3.72-0.65,6.17,0.34,8.38,2.53c3.25,3.23,3.51,3.72,1.28,7.99c-1.68,3.2-3.67,6.24-5.45,9.4
				c-1.5,2.66-3.58,5.21-0.27,8.25c0.75,0.69,0.74,3.19,0.09,4.25c-2.18,3.53-2.41,7.28-2.3,11.21c0.06,2.06,0.2,4.47-2.68,4.74
				c-2.59,0.24-5.73,0.34-6.59-2.71c-1.03-3.66-1.81-7.61-1.57-11.36c0.39-6.28,1.63-12.51,2.61-18.75
				c0.47-3.03-1.73-4.01-3.67-5.28c-2.28-1.49-2.29-3.12-0.47-5.07C469.12,131.42,472.13,128.09,476.68,129.53z M473.27,145.77
				c-0.2,0.74-0.75,1.63-0.51,2.17c0.36,0.81,1.17,1.67,1.98,1.95c0.72,0.25,2.18,0.06,2.51-0.46c2.34-3.67,4.64-7.4,6.55-11.3
				c0.45-0.92-0.23-3.05-1.1-3.82c-2.98-2.65-9.22-2.27-12.05,0.45c-1.19,1.15-2.1,2.56-0.19,3.78
				C473.22,140.31,474.15,142.67,473.27,145.77z M473.04,155.47c-0.23,0.33-0.62,0.66-0.7,1.05c-0.63,2.96-1.45,5.91-1.7,8.91
				c-0.19,2.24,0.21,4.59,0.67,6.81c0.16,0.77,1.32,1.33,2.02,1.98c0.58-0.68,1.62-1.34,1.65-2.05c0.18-3.82,0.02-7.57,2.66-10.9
				C478.77,159.85,474.88,155.14,473.04,155.47z"/>
			<path d="M584.37,412.92c-0.05-0.63,0.09-1.74-0.25-2.66c-1.81-4.95-0.19-8.23,4.27-10.94c2.06-1.25,3.15-4.02,4.98-5.79
				c1.98-1.92,4.16-3.77,6.57-5.02c0.9-0.46,2.97,0.6,4.02,1.52c0.49,0.44,0.2,2.45-0.4,3.28c-1.04,1.45-1.09,2.32-0.3,4.06
				c2.31,5.05,0.37,9.75-4.66,13c-2.8,1.81-5.47,3.84-8.19,5.78c-1.57,1.12-2.48,3.55-5.18,2.38
				C582.26,417.24,583.64,415.23,584.37,412.92z M599,392.15c-0.67,0.43-0.92,0.53-1.09,0.71c-3.47,3.74-6.96,7.45-10.38,11.24
				c-2.72,3.02-0.3,6.35,0.74,8.67c0.82,1.83,2.62-1.56,4.12-2.4c1.8-1,3.63-1.99,5.24-3.25c3.7-2.89,3.92-4.58,2.07-9.14
				c-0.5-1.24-0.24-2.79-0.36-4.19C599.3,393.3,599.14,392.82,599,392.15z"/>
			<path d="M683.35,25c-1.5,0.73-2.42,1.59-3.12,1.44c-2.65-0.56-5.32-1.25-7.83-2.27c-3.33-1.35-3.15-4.55-2.79-7.27
				c0.3-2.28-0.87-2.4-2.38-3.03c-1.89-0.78-3.63-1.98-5.36-3.11c-1.51-0.99-3.4-2.13-1.78-4.26c1.35-1.76,2.98-4.34,5.64-2.13
				c2.89,2.41,7.87,3.03,7.28,8.84c-0.14,1.33,3.4,2.87,4.94,4.59C679.78,19.88,681.29,22.23,683.35,25z M667.09,9.3
				c0.05,0.21,0.07,0.45,0.18,0.63c0.07,0.11,0.3,0.12,0.46,0.17c-0.24-0.24-0.49-0.47-0.73-0.71c-0.51-0.41-1.02-0.81-1.53-1.22
				c-0.13,0.25-0.25,0.5-0.38,0.75C665.75,9.05,666.42,9.17,667.09,9.3z"/>
			<path d="M573.59,299.25c0.13,5.82-1.29,8.03-5.23,8.94c-3.67,0.85-8.56-2.12-10.14-6.64c-1-2.88-1.49-5.98-1.85-9.02
				c-0.28-2.4,5.72-8.55,8.08-8.63c2.86-0.1,4.89,2.48,6.04,6.86C571.32,293.89,572.7,296.87,573.59,299.25z M560.06,292.37
				c0.82,3.59,1.14,6.7,2.26,9.48c1.32,3.26,3.96,4.33,6.05,2.99c2.39-1.53,2.53-4.28,1.38-6.13c-1.69-2.74-2.6-5.45-2.9-8.59
				c-0.09-0.95-1.35-2.1-2.35-2.54c-0.54-0.23-1.88,0.67-2.45,1.38C561.13,290.1,560.54,291.51,560.06,292.37z"/>
			<path d="M682.87,7.85c0.17-0.08,1.33-0.67,2.53-1.17c1.81-0.75,3.7-0.88,4.62,1.17c0.92,2.07,0.51,4.35-1.63,5.33
				c-2.28,1.04-4.85,1.7-7.35,1.93c-2.49,0.23-4.48-2.78-4-5.37C677.37,7.9,678.58,7.36,682.87,7.85z M680.62,11.74
				c0.22,0.06,0.45,0.13,0.67,0.19c-0.15-0.22-0.3-0.44-0.46-0.66C680.76,11.43,680.69,11.59,680.62,11.74z"/>
			<path d="M498.65,219.96c-1.6-2.13-1.88-4.25,0.46-5.98c3.28-2.42,6.59-4.83,10.07-6.94c1.85-1.12,2.76,0.04,2.59,2.06
				c-0.29,3.62-1.89,6.25-5.43,7.57c-2.62,0.98-5.19,2.12-7.78,3.18L498.65,219.96z M506.84,212.71c-0.22-0.05-0.43-0.09-0.65-0.14
				c0.14,0.19,0.28,0.37,0.42,0.56C506.69,212.99,506.76,212.85,506.84,212.71z"/>
			<path d="M518.89,191.8c-1.59-0.71-3.61-1.03-4.66-2.22c-1.37-1.55-3.16-4.28-2.6-5.58c0.69-1.61,3.49-2.67,5.57-3.22
				c2.7-0.71,4.19,1.21,4.89,3.65c0.21,0.72,0.15,1.51,0.21,2.27c-0.21,0.3-0.43,0.6-0.66,0.89c-0.36,0.82-0.71,1.65-1.07,2.47
				l-0.37,0.43c-0.46,0.47-0.93,0.94-1.39,1.41L518.89,191.8z M516.82,188.12c0.75-1.01,1.67-1.81,1.52-2.16
				c-0.3-0.72-1.11-1.32-1.85-1.69c-0.19-0.1-1.37,0.97-1.28,1.25C515.47,186.37,516.14,187.08,516.82,188.12z"/>
			<path d="M498.56,219.86c-0.08,4.41-3.66,5.81-6.69,7.51c-2.1,1.18-4.02,0.4-5.04-1.81c-0.87-1.89,0.6-5.17,2.72-5.44
				c2.99-0.39,6.06-0.13,9.1-0.15L498.56,219.86z M491.39,224c-0.05-0.16-0.04-0.42-0.15-0.47c-0.19-0.1-0.44-0.07-0.67-0.1
				c0.06,0.27,0.12,0.53,0.18,0.8C490.97,224.15,491.18,224.07,491.39,224z"/>
			<path d="M472.08,184.3c-0.27,3.03-4.12,6.88-6.29,7.01c-0.47,0.03-1-0.19-1.44-0.43c-1.66-0.9-1.78-2.17-1.1-3.86
				c1.82-4.55,3.99-6.95,5.85-5.89C470.47,181.91,471.37,183.51,472.08,184.3z"/>
			<path d="M668.55,43.62c0.02,2.07,0.02,4.14,0.07,6.2c0.07,3.1-2.08,4.08-4.51,4.22c-2.7,0.15-3.44-1.78-3.27-4.17
				c0.04-0.52,0-1.04,0-1.55l-0.07,0.1c1.79-2.99,3.92-5.39,7.89-4.7L668.55,43.62z M664.79,49.22c-0.11,0.19-0.3,0.38-0.32,0.58
				c-0.02,0.22,0.12,0.45,0.18,0.67c0.12-0.2,0.31-0.38,0.33-0.59C665.01,49.67,664.86,49.44,664.79,49.22z"/>
			<path d="M522.31,186.7c2.75-0.77,4.56,0.06,4.39,3.11c-0.15,2.65-2.71,4.75-5.02,4.19c-1.05-0.25-1.86-1.44-2.78-2.21l-0.07,0.1
				c0.46-0.47,0.93-0.94,1.39-1.41l0.37-0.43c0.36-0.82,0.71-1.65,1.07-2.47C521.88,187.3,522.1,187,522.31,186.7z"/>
		</g>
	</g>
	<line class="st1" x1="784.99" y1="627.11" x2="3.62" y2="627.11"/>
	<circle cx="784.99" cy="627.11" r="13.31"/>
	<circle cx="713.18" cy="651.37" r="13.31"/>
	<polyline class="st2" points="713.18,651.37 713.18,800.15 113.22,800.15 	"/>
	<circle cx="715.24" cy="522.92" r="13.31"/>
	<line class="st2" x1="715.24" y1="522.92" x2="64.04" y2="522.92"/>
	<g>
		<g>
			<path d="M115.75,783.72c0-1.48,0-2.85,0-4.5c0.66,0,1.29,0,1.91,0c6.15,0,12.29,0.01,18.44-0.01c2.53-0.01,3.57-1.12,3.36-3.5
				c-0.15-1.74-1.13-2.57-3.21-2.58c-4.41-0.03-8.83,0.02-13.25-0.02c-5.94-0.05-9.14-4.22-7.66-9.92c0.78-3.02,3.21-4.99,6.98-5.06
				c6.92-0.14,13.84-0.02,20.76,0c0.1,0,0.2,0.09,0.4,0.19c0,1.36,0,2.77,0,4.42c-0.69,0-1.32,0-1.95,0c-5.79,0-11.57,0-17.36,0
				c-1.61,0-3,0.38-3.35,2.25c-0.39,2.14,0.78,3.45,3.18,3.47c4.41,0.03,8.83-0.01,13.25,0.02c4.14,0.03,6.88,1.95,7.72,5.33
				c1.39,5.57-1.65,9.92-7.26,10.03c-7.1,0.14-14.2,0.03-21.3,0.02C116.25,783.87,116.08,783.8,115.75,783.72z"/>
			<path d="M403.73,783.88c-1.95,0-3.62,0.1-5.27-0.06c-0.53-0.05-1.34-0.67-1.45-1.16c-0.85-3.75-3.2-4.65-6.76-4.23
				c-2.76,0.33-5.59,0.1-8.39,0.05c-0.94-0.02-1.66,0.12-1.86,1.16c-0.77,3.87-3.31,4.87-6.86,4.23c-0.34-0.06-0.69-0.05-1.25-0.08
				c3.87-8.65,7.67-17.15,11.49-25.7c2.69,0,5.31-0.03,7.93,0.03c0.42,0.01,1.05,0.35,1.21,0.71
				C396.23,767.07,399.91,775.32,403.73,783.88z M392.96,773.8c-1.69-3.78-3.33-7.43-5.17-11.54c-1.84,4.11-3.48,7.75-5.18,11.54
				C386.15,773.8,389.42,773.8,392.96,773.8z"/>
			<path d="M264.84,765.26c0,7.38,0.07,14.47-0.03,21.56c-0.04,2.87-1.97,4.78-4.94,4.88c-4.28,0.15-8.56,0.04-12.97,0.04
				c0-1.32,0-2.54,0-4.08c1.73,0,3.49,0,5.25,0c1.43,0,2.86,0,4.29,0c2.95,0,3.36-0.46,3.19-3.78c-1.91,0-3.84,0.04-5.78-0.01
				c-1.78-0.05-3.59-0.04-5.33-0.37c-4.43-0.82-6.87-4.09-6.85-8.9c0.02-4.99,2.42-8.26,6.96-8.96c2.63-0.4,5.33-0.32,8.01-0.37
				C259.31,765.21,261.98,765.26,264.84,765.26z M259.63,769.35c-0.82,0-1.47,0-2.11,0c-2.14,0.01-4.3-0.11-6.42,0.07
				c-2.72,0.23-4.07,2.04-4.08,5.11c-0.02,3.01,1.24,4.91,3.85,5.11c2.88,0.23,5.79,0.05,8.77,0.05
				C259.63,776.24,259.63,772.93,259.63,769.35z"/>
			<path d="M492.16,769.46c0,4.81,0,9.5,0,14.3c-1.71,0-3.29,0-5.02,0c0-6.1,0-12.19,0-18.36c0.21-0.05,0.44-0.14,0.66-0.14
				c7.82-0.01,15.63-0.04,23.45,0c3.59,0.02,5.59,1.97,5.66,5.52c0.08,4.28,0.02,8.57,0.02,12.97c-1.69,0-3.27,0-5.13,0
				c0-1.86,0-3.74,0-5.62c0-2.09,0-4.18,0-6.26c0-1.66-0.76-2.56-2.5-2.53c-1.48,0.03-2.96,0.01-4.68,0.01c0,4.9,0,9.63,0,14.44
				c-1.83,0-3.42,0-5.21,0c0-4.77,0-9.5,0-14.33C496.88,769.46,494.59,769.46,492.16,769.46z"/>
			<path d="M573.38,765.3c1.9,0,3.5,0,5.38,0c0,0.62,0,1.19,0,1.76c0,6.15,0.01,12.29,0,18.44c-0.01,4.31-1.94,6.25-6.21,6.25
				c-3.82,0-7.64-0.02-11.46-0.04c-0.1,0-0.21-0.09-0.41-0.17c0-1.19,0-2.41,0-3.88c3.2,0,6.34,0,9.48,0c3.17,0,3.51-0.37,3.25-3.78
				c-3,0-6.02,0-9.04,0c-6.66,0-7.91-1.26-7.91-7.95c0-3.46,0-6.92,0-10.52c1.72,0,3.34,0,5.17,0c0,3.8-0.01,7.6,0,11.4
				c0,2.52,0.47,2.98,3.05,2.98c2.85,0.01,5.69,0,8.69,0C573.38,774.84,573.38,770.15,573.38,765.3z"/>
			<path d="M299.52,772.62c0.31-2.52-0.25-3.25-2.45-3.26c-4.17-0.03-8.35-0.01-12.53-0.01c-0.65,0-1.29,0-2.06,0
				c0-1.39,0-2.62,0-3.98c0.51-0.04,1.03-0.11,1.54-0.11c4.95-0.01,9.9-0.01,14.85,0c4.21,0.01,5.98,1.77,6.01,5.99
				c0.02,4.11,0,8.23,0,12.43c-0.38,0.07-0.71,0.19-1.04,0.19c-6.08,0.01-12.17,0.04-18.25,0c-3.45-0.03-5.4-1.91-5.59-5.2
				c-0.22-3.75,1.81-5.97,5.64-6.03c4-0.06,7.99-0.02,11.99-0.02C298.27,772.62,298.91,772.62,299.52,772.62z M299.67,776.72
				c-4.2,0-8.23,0.01-12.26-0.01c-1.08-0.01-1.92,0.23-1.91,1.52c0.01,1.26,0.84,1.55,1.92,1.55c3.74-0.01,7.48,0,11.23-0.02
				c0.33,0,0.65-0.15,1.02-0.23C299.67,778.63,299.67,777.81,299.67,776.72z"/>
			<path d="M175.23,765.36c1.75,0,3.4,0,5.2,0c0.42,4.63,0.83,9.23,1.26,14.03c1.72-0.75,3.28-1.33,4.72-2.14
				c0.46-0.26,0.78-1.13,0.8-1.73c0.08-3.34,0.04-6.68,0.04-10.14c1.7,0,3.29,0,5.17,0c0,2.4,0,4.87,0,7.35c0,4.35,0,4.35,4.06,6.05
				c0.42,0.18,0.86,0.3,1.48,0.51c0.42-4.72,0.82-9.27,1.23-13.93c1.7,0,3.34,0,5.19,0c-0.58,6.17-1.15,12.25-1.72,18.36
				c-3.05,0.47-5.89,0.25-8.37-1.39c-3.11-2.06-6.04-1.87-9.08,0.04c-2.49,1.56-5.23,1.81-8.24,1.34
				C176.4,777.66,175.82,771.56,175.23,765.36z"/>
			<path d="M153.19,776.36c0.66,2.47,1.85,3.39,4.45,3.41c4.12,0.04,8.23,0.01,12.35,0.01c0.64,0,1.28,0,2.02,0c0,1.44,0,2.66,0,4.1
				c-2.47,0-4.9,0.04-7.33-0.01c-3.33-0.06-6.7,0.09-9.99-0.34c-4.78-0.62-7.24-3.98-7.2-9.1c0.04-4.98,2.55-8.34,7.3-8.83
				c4.31-0.44,8.69-0.42,13.03-0.26c3.28,0.13,5.05,2.1,5.24,5.04c0.25,3.71-1.88,5.9-5.92,5.96c-4.06,0.06-8.11,0.01-12.17,0.01
				C154.39,776.36,153.81,776.36,153.19,776.36z M153.23,772.21c4.58,0,9.02,0.04,13.45-0.07c0.4-0.01,1.19-1.1,1.08-1.46
				c-0.17-0.55-0.97-1.24-1.52-1.26c-3.03-0.12-6.08-0.13-9.11-0.02C155.42,769.45,153.87,770.02,153.23,772.21z"/>
			<path d="M464.03,776.36c0.71,2.54,1.9,3.4,4.65,3.42c4.65,0.02,9.3,0.01,14.12,0.01c0,1.36,0,2.62,0,4.1
				c-3.56,0-7.12,0.03-10.69-0.01c-2.2-0.03-4.43,0.02-6.59-0.31c-4.76-0.74-7.23-4.01-7.19-9.14c0.04-4.98,2.55-8.33,7.32-8.81
				c4.31-0.44,8.69-0.42,13.03-0.25c3.28,0.13,5.04,2.11,5.23,5.05c0.24,3.71-1.89,5.89-5.94,5.95c-4.06,0.06-8.11,0.01-12.17,0.01
				C465.23,776.36,464.65,776.36,464.03,776.36z M464.1,772.26c1.33,0,2.4,0,3.46,0c3.16,0,6.32,0.07,9.47-0.07
				c0.58-0.03,1.12-0.91,1.68-1.4c-0.44-0.47-0.87-1.35-1.31-1.35c-3.45-0.06-6.9-0.04-10.35,0.13
				C465.65,769.63,464.53,770.44,464.1,772.26z"/>
			<path d="M351.69,758.19c1.91,0,3.49,0,5.16,0c0,8.54,0,16.99,0,25.69c-1.13,0-2.24,0-3.35,0c-3.46,0-6.92,0.03-10.37-0.01
				c-5.96-0.07-9.57-3.56-9.59-9.2c-0.02-5.81,3.52-9.31,9.56-9.41c2.8-0.05,5.6-0.01,8.59-0.01
				C351.69,762.91,351.69,760.62,351.69,758.19z M351.7,769.47c-3.1,0-6.13-0.18-9.13,0.06c-2.44,0.2-3.62,2.04-3.65,4.9
				c-0.04,2.92,1.05,4.89,3.39,5.1c3.1,0.27,6.25,0.07,9.4,0.07C351.7,776.2,351.7,772.88,351.7,769.47z"/>
			<path d="M520.75,783.6c0-8.36,0-16.81,0-25.38c1.64,0,3.27,0,5.03,0c0,2.28,0,4.53,0,7.03c2.84,0,5.56-0.12,8.27,0.04
				c1.69,0.1,3.45,0.38,5.02,0.99c3.48,1.35,5.08,4.32,4.99,8.65c-0.08,3.97-1.94,6.83-5.31,8.13c-0.61,0.23-1.25,0.51-1.88,0.52
				C531.52,783.62,526.18,783.6,520.75,783.6z M525.91,769.41c0,3.54,0,6.86,0,10.29c3.05,0,6.03,0.17,8.97-0.05
				c2.59-0.2,3.82-2.1,3.8-5.14c-0.02-3.01-1.3-4.87-3.93-5.05C531.87,769.25,528.95,769.41,525.91,769.41z"/>
			<path d="M405.52,783.65c0-1.19,0-2.41,0-3.87c2.39,0,4.7,0,7,0c3.04,0,6.08,0.01,9.13-0.01c1.28-0.01,2.85,0.31,2.81-1.76
				c-0.04-2.07-1.64-1.65-2.89-1.65c-3.52-0.02-7.04,0.06-10.56-0.03c-4.48-0.1-6.85-3.34-5.58-7.45c0.75-2.4,2.63-3.48,4.87-3.54
				c5.82-0.15,11.66-0.05,17.59-0.05c0,1.35,0,2.57,0,3.96c-0.7,0.03-1.34,0.09-1.97,0.09c-4.29,0.01-8.59-0.01-12.88,0.01
				c-1.13,0.01-2.71-0.38-2.64,1.47c0.06,1.76,1.61,1.41,2.75,1.42c3.52,0.02,7.04-0.01,10.56,0.01c4.91,0.02,7.49,4.2,5.38,8.68
				c-0.91,1.94-2.55,2.88-4.57,2.9c-6.2,0.07-12.4,0.01-18.61-0.01C405.79,783.84,405.69,783.74,405.52,783.65z"/>
			<path d="M432,783.88c0-1.44,0-2.63,0-4c0.68-0.03,1.31-0.09,1.94-0.09c4.89-0.01,9.78-0.01,14.67,0c1.21,0,2.35-0.05,2.36-1.69
				c0.01-1.6-1.02-1.76-2.29-1.75c-3.7,0.03-7.4,0.06-11.09,0c-3.99-0.07-6.19-2.34-5.93-5.98c0.21-2.98,2.1-4.95,5.43-5.06
				c5.12-0.17,10.26-0.05,15.39-0.05c0.59,0,1.18,0,1.89,0c0,1.33,0,2.55,0,3.98c-0.62,0.04-1.24,0.11-1.87,0.11
				c-4.47,0.01-8.95,0.01-13.42,0c-1.05,0-2.2-0.04-2.2,1.41c0,1.38,1.07,1.51,2.16,1.5c3.76-0.01,7.52-0.02,11.27,0
				c3.88,0.02,5.84,1.93,5.84,5.64c0,3.89-2.06,5.96-5.96,5.97C444.17,783.89,438.16,783.88,432,783.88z"/>
			<path d="M238.67,783.82c-1.83,0-3.36,0-5.14,0c0-3.37,0-6.68,0-10c0-4.47,0-4.47-4.46-4.46c-2.26,0-4.53,0.03-6.79,0.05
				c-0.11,0-0.21,0.09-0.45,0.19c0,4.63,0,9.32,0,14.14c-1.75,0-3.38,0-5.11,0c0-6.1,0-12.16,0-18.49c0.57,0,1.13,0,1.7,0
				c4.71,0,9.42-0.01,14.13,0c4.23,0.01,6.11,1.89,6.12,6.11C238.68,775.47,238.67,779.57,238.67,783.82z"/>
			<path d="M313.77,769.35c0,5.05,0,9.69,0,14.43c-1.68,0-3.26,0-4.98,0c0-6.12,0-12.21,0-18.52c1.79,0,3.56,0,5.33,0
				c3.64,0,7.28-0.04,10.91,0.01c3.69,0.05,5.64,2.01,5.67,5.66c0.03,4.23,0.01,8.46,0.01,12.82c-1.71,0-3.34,0-5.14,0
				c0-3.79,0-7.53,0-11.27c0-2.66-0.47-3.12-3.11-3.12C319.61,769.35,316.76,769.35,313.77,769.35z"/>
			<path d="M547.3,758.15c1.68,0,3.22,0,4.89,0c0,8.52,0,17.02,0,25.62c-1.58,0-3.16,0-4.89,0
				C547.3,775.28,547.3,766.8,547.3,758.15z"/>
			<path d="M207.45,765.31c1.69,0,3.22,0,4.89,0c0,6.14,0,12.24,0,18.46c-1.58,0-3.16,0-4.89,0
				C207.45,777.67,207.45,771.57,207.45,765.31z"/>
			<path d="M207.21,758.41c1.72,0,3.35,0,5.09,0c0,1.33,0,2.55,0,3.88c-1.7,0-3.33,0-5.09,0
				C207.21,761.01,207.21,759.74,207.21,758.41z"/>
		</g>
	</g>
	<g>
		<g>
			<path d="M73.6,497.88c0,3.14,0,6.08,0,9.13c-1.92,0-3.72,0-5.6,0c0-8.43,0-16.81,0-25.48c0.52,0,1.08,0,1.64,0
				c6.51,0,13.02-0.01,19.52,0c7.04,0.01,10.85,6.77,7.26,12.9c-1.55,2.66-4.12,3.41-6.97,3.44
				C84.26,497.92,79.06,497.88,73.6,497.88z M73.67,493.25c5.22,0,10.29,0.06,15.37-0.03c1.84-0.03,2.69-1.3,2.7-3.47
				c0.01-2.22-0.8-3.51-2.61-3.55c-5.12-0.1-10.25-0.03-15.46-0.03C73.67,488.56,73.67,490.79,73.67,493.25z"/>
			<path d="M234.99,497.88c0,3.13,0,6.07,0,9.12c-1.92,0-3.72,0-5.61,0c0-8.45,0-16.87,0-25.47c0.82,0,1.57,0,2.32,0
				c6.33,0,12.66-0.03,18.99,0.01c2.98,0.02,5.78,0.73,7.18,3.64c1.54,3.2,1.57,6.58-0.37,9.67c-1.5,2.38-4.01,3-6.65,3.02
				C245.65,497.91,240.45,497.88,234.99,497.88z M235.04,493.26c5.05,0,9.9,0.02,14.75-0.01c2.35-0.01,3.34-1.12,3.32-3.59
				c-0.01-2.46-0.99-3.49-3.41-3.5c-4.14-0.02-8.28-0.01-12.42-0.01c-0.74,0-1.49,0-2.24,0
				C235.04,488.62,235.04,490.85,235.04,493.26z"/>
			<path d="M127.67,495.95c0.24-2.58-0.29-3.23-2.51-3.24c-4.14-0.02-8.29-0.01-12.43-0.01c-0.63,0-1.27,0-2.01,0
				c0-1.43,0-2.64,0-4.06c1.63,0,3.21,0,4.79,0c3.97,0,7.93-0.03,11.9,0.01c3.66,0.04,5.49,1.83,5.54,5.45
				c0.06,4.26,0.01,8.51,0.01,12.86c-0.41,0.06-0.74,0.16-1.08,0.16c-5.98,0.01-11.96,0.03-17.94,0c-3.6-0.02-5.58-1.94-5.68-5.39
				c-0.11-3.56,1.84-5.67,5.48-5.75c3.73-0.08,7.46-0.02,11.19-0.02C125.82,495.95,126.7,495.95,127.67,495.95z M127.76,500.02
				c-4.31,0-8.43-0.05-12.55,0.06c-0.5,0.01-1.44,0.95-1.38,1.31c0.11,0.61,0.82,1.52,1.35,1.58c1.87,0.2,3.76,0.09,5.65,0.09
				c2.28,0,4.56,0,6.93,0C127.76,501.95,127.76,501.1,127.76,500.02z"/>
			<path d="M331.25,488.64c0-2.4,0-4.63,0-6.98c1.74,0,3.35,0,5.07,0c0,8.43,0,16.81,0,25.36c-0.5,0.03-1,0.1-1.51,0.1
				c-4.08,0.01-8.17,0.06-12.25-0.01c-5.81-0.09-9.34-3.56-9.37-9.09c-0.03-5.71,3.39-9.2,9.28-9.36
				C325.35,488.57,328.24,488.64,331.25,488.64z M331.21,492.83c-3.08,0-6.09-0.18-9.07,0.06c-2.37,0.19-3.53,1.97-3.61,4.7
				c-0.08,2.91,0.97,4.99,3.2,5.19c3.13,0.29,6.31,0.07,9.48,0.07C331.21,499.49,331.21,496.2,331.21,492.83z"/>
			<path d="M158.4,488.64c0,1.44,0,2.6,0,3.95c-0.69,0.04-1.31,0.11-1.94,0.11c-4.44,0.01-8.88,0.01-13.32,0
				c-1.05,0-2.18,0-2.16,1.43c0.02,1.37,1.1,1.47,2.18,1.46c3.73-0.01,7.46-0.02,11.19,0c3.83,0.02,5.77,1.94,5.76,5.62
				c-0.01,3.8-2.03,5.88-5.77,5.9c-5.62,0.02-11.25,0.01-16.87,0.01c-0.4,0-0.8,0-1.3,0c0-1.38,0-2.59,0-4.06c1.2,0,2.36,0,3.52,0
				c4.32,0,8.64-0.01,12.96,0c1.22,0,2.32-0.09,2.31-1.71c-0.01-1.6-1.07-1.71-2.31-1.7c-3.67,0.03-7.34,0.06-11.01,0
				c-3.95-0.07-6.13-2.34-5.86-5.97c0.22-2.9,2-4.61,5.25-5.01c0.53-0.06,1.06-0.03,1.6-0.03
				C147.85,488.64,153.05,488.64,158.4,488.64z"/>
			<path d="M297.48,507.25c-2.06-0.14-4.14-0.12-6.17-0.45c-4.65-0.77-7.09-3.94-7.09-8.92c0-4.99,2.45-8.34,7.1-8.87
				c3.79-0.43,7.69-0.55,11.48-0.17c5.8,0.57,8.55,4.22,8.15,9.93c-0.36,5.15-3.81,8.22-9.38,8.35c-1.36,0.03-2.72,0-4.08,0
				C297.48,507.17,297.48,507.21,297.48,507.25z M297.56,502.93c0,0.07,0,0.13,0,0.2c1.53-0.07,3.08-0.02,4.58-0.25
				c2.39-0.38,3.48-2.05,3.49-4.96c0.01-2.91-1.07-4.77-3.44-4.98c-3.04-0.26-6.13-0.27-9.17-0.01c-2.43,0.21-3.58,2.18-3.52,5.11
				c0.06,2.87,1.19,4.51,3.64,4.86C294.59,503.1,296.08,502.93,297.56,502.93z"/>
			<path d="M432.2,507.26c-2.12-0.15-4.26-0.14-6.34-0.5c-4.58-0.8-6.97-4.03-6.93-9.05c0.05-4.87,2.5-8.18,7.09-8.7
				c3.79-0.43,7.69-0.55,11.48-0.18c5.8,0.57,8.56,4.21,8.16,9.93c-0.35,5.15-3.8,8.23-9.37,8.36c-1.36,0.03-2.72,0-4.08,0
				C432.21,507.17,432.2,507.22,432.2,507.26z M432.21,503.05c1.24,0,2.48,0.06,3.72-0.01c2.95-0.17,4.39-1.85,4.42-5.07
				c0.03-3.31-1.42-5.11-4.42-5.24c-2.42-0.1-4.84-0.1-7.26,0c-2.98,0.12-4.48,1.96-4.44,5.24c0.04,3.19,1.52,4.91,4.44,5.07
				C429.84,503.11,431.03,503.05,432.21,503.05z"/>
			<path d="M340.22,488.7c1.76,0,3.28,0,5.08,0c0,2.4,0,4.73,0,7.07c0,1.6,0.02,3.2,0,4.79c-0.02,1.69,0.75,2.52,2.47,2.49
				c2.25-0.03,4.5,0.02,6.75-0.02c1.87-0.03,2.4-0.58,2.41-2.48c0.02-3.9,0.01-7.79,0.01-11.81c1.76,0,3.38,0,5.11,0
				c0,4.64,0.18,9.25-0.07,13.83c-0.15,2.84-2.24,4.45-5.23,4.51c-3.73,0.08-7.46,0.08-11.19,0c-3.05-0.07-5.19-1.8-5.31-4.64
				C340.09,497.93,340.22,493.38,340.22,488.7z"/>
			<path d="M448.93,488.65c5.66,0,11.16-0.09,16.65,0.03c3.06,0.07,4.99,1.97,5.06,4.87c0.11,4.43,0.03,8.87,0.03,13.44
				c-1.68,0-3.29,0-5.09,0c0-3.76,0-7.47,0-11.18c0-2.64-0.46-3.1-3.09-3.1c-2.77,0-5.55,0-8.52,0c0,4.83,0,9.52,0,14.32
				c-1.77,0-3.33,0-5.05,0C448.93,500.95,448.93,494.9,448.93,488.65z"/>
			<path d="M213.66,503.22c0,1.29,0,2.5,0,3.55c-5.21,0-10.37,0.37-15.45-0.11c-4.5-0.42-6.81-3.99-6.77-8.95
				c0.04-4.81,2.45-8.25,6.93-8.65c4.91-0.43,9.88-0.1,14.93-0.1c0,1.07,0,2.28,0,3.74c-1.95,0-3.83,0-5.7,0c-1.78,0-3.55,0-5.33,0
				c-4.57,0.01-6.83,3.4-5.12,7.7c0.83,2.09,2.55,2.65,4.57,2.66c3.79,0.02,7.58,0.02,11.37,0.03
				C213.21,503.09,213.33,503.14,213.66,503.22z"/>
			<path d="M387.49,503.06c0,1.44,0,2.6,0,4.06c-0.68,0-1.36,0.01-2.04,0c-4.02-0.04-8.08,0.23-12.06-0.2
				c-5.77-0.62-8.32-3.91-8.13-9.6c0.18-5.19,3.29-8.36,8.88-8.63c4.25-0.21,8.51-0.04,12.92-0.04c0,1.34,0,2.59,0,4.06
				c-3.82,0-7.6-0.09-11.36,0.05c-1.23,0.04-2.6,0.42-3.62,1.08c-1.53,0.99-1.96,4.24-1.16,6.43c0.65,1.8,2.04,2.74,4.31,2.77
				c3.38,0.05,6.75,0.01,10.13,0.01C386,503.06,386.64,503.06,387.49,503.06z"/>
			<path d="M171.68,492.65c0,2.98-0.01,5.64,0.01,8.3c0.01,1.49,0.89,2.1,2.29,2.1c2.01,0.01,4.01,0,6.15,0c0,1.34,0,2.56,0,4.22
				c-3.39-0.18-6.86-0.14-10.25-0.62c-2.06-0.29-3.1-2.13-3.24-4.18c-0.16-2.42-0.11-4.85-0.15-7.27c-0.01-0.76,0-1.52,0-2.44
				c-1.76,0-3.34,0-5.08,0c0-1.42,0-2.67,0-4.11c1.63,0,3.26,0,5.08,0c0-1.87,0-3.56,0-5.37c1.76,0,3.33,0,5.13,0
				c0,1.72,0,3.45,0,5.35c2.62,0,5.02,0,7.51,0c0,1.38,0,2.59,0,4.02C176.69,492.65,174.3,492.65,171.68,492.65z"/>
			<path d="M394.41,492.71c-1.92,0-3.49,0-5.2,0c0-1.38,0-2.6,0-4c1.59,0,3.22,0,5.05,0c0-1.86,0-3.54,0-5.39c1.81,0,3.42,0,5.19,0
				c0,1.69,0,3.38,0,5.25c2.55,0,4.95,0,7.48,0c0,1.42,0,2.68,0,4.14c-2.46,0-4.86,0-7.39,0c0,2.97-0.05,5.74,0.02,8.51
				c0.04,1.43,1.08,1.84,2.34,1.84c2,0,3.99,0,6.09,0c0,1.41,0,2.62,0,3.95c-3.07,0-6.14,0.2-9.17-0.06
				c-2.74-0.24-4.23-1.94-4.38-4.74C394.28,499.15,394.41,496.08,394.41,492.71z"/>
			<path d="M266.68,507.03c-1.86,0-3.44,0-5.11,0c0-6.11,0-12.12,0-18.39c1.11,0,2.22,0,3.32,0c3.61,0,7.22-0.03,10.83,0.01
				c3.7,0.04,5.68,2.04,5.74,5.74c0.02,1.12,0,2.23,0,3.53c-0.93,0.04-1.73,0.1-2.53,0.12c-0.82,0.02-1.65,0-2.72,0
				c0-1.18,0.21-2.28-0.07-3.25c-0.21-0.76-0.98-1.89-1.57-1.94c-2.57-0.21-5.17-0.09-7.9-0.09
				C266.68,497.6,266.68,502.25,266.68,507.03z"/>
			<path d="M100.6,481.59c1.67,0,3.2,0,4.85,0c0,8.46,0,16.89,0,25.43c-1.57,0-3.13,0-4.85,0
				C100.6,498.59,100.6,490.17,100.6,481.59z"/>
			<path d="M183.01,507.03c0-6.16,0-12.18,0-18.29c1.66,0,3.24,0,4.92,0c0,6.08,0,12.14,0,18.29
				C186.32,507.03,184.75,507.03,183.01,507.03z"/>
			<path d="M415.81,488.73c0,6.18,0,12.2,0,18.3c-1.65,0-3.22,0-4.92,0c0-6.1,0-12.16,0-18.3
				C412.52,488.73,414.1,488.73,415.81,488.73z"/>
			<path d="M182.8,485.67c0-1.3,0-2.52,0-3.84c1.71,0,3.33,0,5.07,0c0,1.29,0,2.5,0,3.84C186.22,485.67,184.6,485.67,182.8,485.67z"
				/>
			<path d="M410.64,485.65c0-1.25,0-2.46,0-3.8c1.68,0,3.29,0,5.05,0c0,1.24,0,2.44,0,3.8
				C414.06,485.65,412.39,485.65,410.64,485.65z"/>
		</g>
	</g>
</g>
<g>
	<g>
		<path d="M7.81,613.2c0-8.54,0-16.85,0-25.29c0.49-0.07,0.96-0.19,1.43-0.19c5.89,0.07,11.82-0.27,17.66,0.34
			c9.38,0.98,14.01,9.98,9.91,18.54c-2.19,4.58-6.3,6.31-10.95,6.53C19.91,613.41,13.95,613.2,7.81,613.2z M13.58,608.78
			c4.48-0.2,8.76-0.08,12.94-0.65c3.97-0.55,5.68-3.3,5.65-7.74c-0.03-4.32-1.73-7.06-5.65-7.5c-4.23-0.47-8.55-0.11-12.93-0.11
			C13.58,597.9,13.58,603.11,13.58,608.78z"/>
		<path d="M263.69,587.72c7.59,0,15.03-0.16,22.46,0.06c4.81,0.14,7.39,3.45,7.22,8.45c-0.17,4.77-2.98,7.6-7.83,7.67
			c-5.32,0.08-10.63,0.02-16.21,0.02c0,3.11,0,6.12,0,9.25c-2,0-3.74,0-5.64,0C263.69,604.78,263.69,596.38,263.69,587.72z
			 M269.38,599.21c5.24,0,10.35,0.08,15.44-0.04c1.99-0.05,2.7-1.48,2.71-3.39c0-1.92-0.73-3.3-2.73-3.34
			c-5.09-0.1-10.19-0.03-15.42-0.03C269.38,594.69,269.38,596.78,269.38,599.21z"/>
		<path d="M127.67,594.55c0,7.55,0.11,14.85-0.05,22.15c-0.06,2.85-2.12,4.58-5.1,4.66c-4.18,0.11-8.36,0.03-12.71,0.03
			c0-1.32,0-2.54,0-4.02c3.15,0,6.25,0.02,9.35-0.01c3.12-0.03,3.63-0.66,3.17-4.07c-2.65,0-5.33,0.02-8.02,0
			c-7.22-0.07-11.21-5.27-9.43-12.28c0.96-3.8,3.94-6.22,8.51-6.41C118.06,594.39,122.74,594.55,127.67,594.55z M122.4,609.02
			c0-3.41,0-6.83,0-10.22c-3.03,0-5.93-0.19-8.79,0.06c-2.53,0.21-3.73,2.12-3.72,5.09c0.01,2.87,1.19,4.82,3.56,5.02
			C116.38,609.21,119.35,609.02,122.4,609.02z"/>
		<path d="M530.99,594.58c0,7.44,0.09,14.6-0.04,21.76c-0.05,3.02-2,4.9-5.03,5c-4.24,0.14-8.49,0.04-12.87,0.04
			c0-1.31,0-2.47,0-4.01c2.43,0,4.87,0,7.32,0c0.85,0,1.7,0.03,2.56-0.01c2.56-0.12,3-0.71,2.77-4.07c-2.64,0-5.3,0.01-7.97,0
			c-7.38-0.05-11.39-5.24-9.55-12.36c0.95-3.66,3.66-6.02,8.15-6.29C521.11,594.36,525.93,594.58,530.99,594.58z M525.69,598.8
			c-3.06,0-5.96-0.19-8.82,0.06c-2.52,0.21-3.73,2.12-3.72,5.09c0.01,2.87,1.19,4.81,3.56,5.02c2.93,0.25,5.9,0.06,8.97,0.06
			C525.69,605.66,525.69,602.28,525.69,598.8z"/>
		<path d="M424.98,621.39c0-1.46,0-2.63,0-4.02c3.17,0,6.21,0.02,9.25,0c3.22-0.02,3.71-0.56,3.49-4.07
			c-3.42,0-6.87,0.06-10.31-0.03c-1.32-0.03-2.92-0.01-3.87-0.72c-1.19-0.88-2.5-2.44-2.59-3.78c-0.31-4.64-0.12-9.32-0.12-14.1
			c1.68,0,3.27,0,5.07,0c0,3.79-0.01,7.46,0,11.13c0.01,2.96,0.49,3.45,3.45,3.47c2.68,0.03,5.36,0.01,8.25,0.01
			c0-4.98,0-9.71,0-14.58c1.86,0,3.51,0,5.43,0c0,1.39,0,2.78,0,4.18c0,5.46,0.03,10.93-0.01,16.39c-0.03,4.15-2.02,6.11-6.17,6.13
			C432.96,621.4,429.06,621.39,424.98,621.39z"/>
		<path d="M193.88,613.29c-3.92,0-7.67,0-11.41,0c-2.55,0-5.11,0.03-7.66-0.01c-3.8-0.06-5.87-2.14-5.85-5.78
			c0.02-3.55,2.04-5.46,5.83-5.48c4.53-0.02,9.06,0,13.55,0c0.52-2.66-0.1-3.43-2.82-3.45c-4.6-0.04-9.2-0.01-13.96-0.01
			c0-1.33,0-2.5,0-3.9c0.52-0.04,1.12-0.11,1.73-0.11c4.82-0.01,9.65-0.02,14.47,0c4.2,0.01,5.94,1.51,6.08,5.63
			C194,604.47,193.88,608.78,193.88,613.29z M188.58,606.05c-4.26,0-8.44-0.05-12.61,0.06c-0.51,0.01-1.47,1.02-1.39,1.37
			c0.16,0.65,0.91,1.64,1.44,1.66c4.15,0.14,8.31,0.08,12.56,0.08C188.58,608.05,188.58,607.16,188.58,606.05z"/>
		<path d="M46.18,605.8c0.68,2.21,1.86,3.19,3.7,3.23c3.97,0.1,7.94,0.16,11.91,0.23c1.06,0.02,2.12,0,3.35,0c0,1.36,0,2.57,0,3.86
			c-5.55,0-11.1,0.39-16.56-0.11c-5.82-0.52-8.34-4.21-7.94-10.23c0.32-4.91,3.69-8.04,9.1-8.23c3.55-0.13,7.1-0.1,10.65,0
			c3.76,0.1,5.88,2.34,5.81,5.9c-0.07,3.52-2.08,5.33-5.98,5.34C55.62,605.82,51.03,605.8,46.18,605.8z M46.31,601.78
			c4.47,0,8.66,0.07,12.84-0.07c0.63-0.02,1.23-0.98,1.84-1.51c-0.61-0.54-1.22-1.53-1.85-1.54c-3.18-0.09-6.37,0-9.55,0.17
			C47.98,598.91,46.87,599.85,46.31,601.78z"/>
		<path d="M451.98,621.28c-1.95,0-3.49,0-5.14,0c0-8.89,0-17.67,0-26.95c5.66,0.22,11.34,0.1,16.92,0.79
			c4.26,0.53,6.43,4.22,6.32,9.05c-0.1,4.71-2.36,8-6.61,8.64c-3.69,0.56-7.47,0.48-11.49,0.69
			C451.98,615.97,451.98,618.55,451.98,621.28z M452.03,609.02c3.14,0,6.11,0.17,9.05-0.05c2.45-0.19,3.64-2,3.69-4.88
			c0.06-3-1.12-5.02-3.55-5.22c-3.01-0.25-6.05-0.06-9.19-0.06C452.03,602.17,452.03,605.54,452.03,609.02z"/>
		<path d="M241.49,594.53c0-2.36,0-4.46,0-6.69c1.77,0,3.36,0,5.06,0c0,8.45,0,16.8,0,25.65c-5.68-0.22-11.35-0.11-16.94-0.78
			c-4.15-0.5-6.36-4.16-6.32-8.85c0.04-4.74,2.25-7.93,6.42-8.83c1.92-0.41,3.94-0.4,5.91-0.48
			C237.46,594.47,239.3,594.53,241.49,594.53z M241.35,598.82c-3.19,0-6.23-0.18-9.24,0.06c-2.34,0.19-3.5,2.17-3.5,5.06
			c0.01,2.89,1.17,4.83,3.54,5.02c3.01,0.24,6.05,0.06,9.2,0.06C241.35,605.66,241.35,602.29,241.35,598.82z"/>
		<path d="M91.28,594.55c0,1.42,0,2.54,0,3.9c-0.8,0.04-1.54,0.11-2.29,0.11c-4.33,0.01-8.66-0.01-12.99,0.03
			c-1.07,0.01-2.26,0.1-2.19,1.66c0.06,1.49,1.14,1.56,2.28,1.55c3.69-0.02,7.38-0.02,11.07,0c3.92,0.02,5.89,1.93,5.89,5.65
			c0,3.78-2.09,5.84-6,5.85c-6.01,0.02-12.03,0-18.16,0c0-1.37,0-2.53,0-3.9c0.8-0.04,1.55-0.11,2.3-0.11
			c4.75-0.01,9.51,0,14.26-0.01c1.19,0,2.4-0.15,2.4-1.73c0-1.58-1.22-1.71-2.4-1.72c-3.69-0.02-7.38,0.02-11.07-0.02
			c-3.64-0.03-5.64-1.81-5.82-5.09c-0.19-3.53,1.7-5.97,5.31-6.1C79.62,594.39,85.36,594.55,91.28,594.55z"/>
		<path d="M383.06,613.29c-1.49,0-2.98,0.08-4.47-0.02c-5.5-0.38-8.71-3.54-8.89-8.66c-0.2-5.89,2.37-9.25,8.15-9.9
			c3.5-0.39,7.11-0.39,10.61,0c5.92,0.67,8.48,4.15,8.12,10.32c-0.29,4.97-3.76,8.08-9.27,8.26
			C385.9,613.33,384.48,613.29,383.06,613.29z M383.17,609.36c1.45-0.11,3.02-0.13,4.54-0.36c2.36-0.36,3.57-2.13,3.58-4.99
			c0.02-3.03-1.16-4.95-3.6-5.16c-2.8-0.24-5.64-0.27-8.44-0.05c-2.98,0.24-4.17,1.86-4.22,5.01c-0.05,3.22,1.21,4.82,4.24,5.25
			C380.53,609.24,381.8,609.26,383.17,609.36z"/>
		<path d="M332.68,613.13c-1.77,0-3.57,0.22-5.3-0.04c-5.48-0.82-7.99-3.82-7.98-9.2c0.01-5.38,2.53-8.51,8.03-9.14
			c3.56-0.41,7.25-0.42,10.81-0.01c5.91,0.68,8.43,4.19,8.04,10.37c-0.31,4.88-3.72,7.94-9.13,8.17c-1.49,0.06-2.98,0.01-4.47,0.01
			C332.68,613.24,332.68,613.18,332.68,613.13z M332.89,609.36c1.45-0.11,3.01-0.13,4.54-0.36c2.35-0.36,3.56-2.14,3.57-5
			c0.01-3.03-1.17-4.94-3.62-5.15c-2.8-0.23-5.64-0.27-8.44-0.05c-2.97,0.23-4.17,1.87-4.21,5.03c-0.04,3.22,1.21,4.81,4.25,5.23
			C330.24,609.24,331.51,609.26,332.89,609.36z"/>
		<path d="M136.87,613.18c-1.87,0-3.41,0-5.06,0c0-6.19,0-12.27,0-18.65c2.69,0,5.36,0,8.04,0c2.77,0,5.54-0.04,8.31,0.01
			c3.21,0.07,5.33,1.63,5.47,4.51c0.21,4.66,0.06,9.33,0.06,14.11c-1.67,0-3.21,0-5.07,0c0-2.52,0-5.05,0-7.58
			c0-1.56-0.02-3.13-0.01-4.69c0.01-1.37-0.69-2.21-2.01-2.25c-3.17-0.08-6.35-0.02-9.71-0.02
			C136.87,603.56,136.87,608.29,136.87,613.18z"/>
		<path d="M197.95,594.54c5.71,0,11.24-0.1,16.77,0.04c3.08,0.07,4.98,1.96,5.07,4.96c0.13,4.47,0.03,8.94,0.03,13.58
			c-1.68,0-3.27,0-5.14,0c0-3.57,0-7.18,0-10.78c0-3.41-0.36-3.77-3.78-3.78c-2.55-0.01-5.09,0-7.91,0c0,4.96,0,9.74,0,14.62
			c-1.81,0-3.34,0-5.05,0C197.95,607.04,197.95,600.92,197.95,594.54z"/>
		<path d="M482.59,613.14c0-6.21,0-12.24,0-18.44c0.58-0.06,1.11-0.16,1.65-0.16c4.76-0.01,9.52-0.02,14.28,0
			c4.12,0.02,6.05,1.9,6.08,5.95c0.03,4.18,0.01,8.36,0.01,12.67c-1.71,0-3.24,0-5.16,0c0-1.7,0-3.43,0-5.17
			c0-2.27-0.04-4.55,0.01-6.82c0.03-1.55-0.64-2.51-2.19-2.54c-3.11-0.07-6.22-0.02-9.52-0.02c0,4.92,0,9.65,0,14.53
			C485.97,613.14,484.39,613.14,482.59,613.14z"/>
		<path d="M359.1,598.54c0,3.03-0.02,5.78,0.01,8.53c0.01,1.7,1.23,2.12,2.59,2.17c1.9,0.07,3.81,0.02,5.89,0.02
			c0,1.34,0,2.51,0,4.16c-3.36-0.17-6.81-0.11-10.18-0.58c-2.21-0.3-3.39-2.34-3.45-5c-0.08-2.97-0.02-5.95-0.02-9.21
			c-1.79,0-3.45,0-5.25,0c0-1.46,0-2.62,0-4.04c1.67,0,3.33,0,5.14,0c0-1.92,0-3.59,0-5.43c1.75,0,3.34,0,5.18,0
			c0,1.65,0,3.38,0,5.34c2.67,0,5.11,0,7.65,0c0,1.41,0,2.58,0,4.04C364.15,598.54,361.72,598.54,359.1,598.54z"/>
		<path d="M416.95,594.47c0,1.48,0,2.66,0,4.11c-2.54,0-4.98,0-7.56,0c0,2.96,0.01,5.65,0,8.33c-0.01,1.81,1.2,2.28,2.66,2.33
			c1.9,0.06,3.8,0.02,5.85,0.02c0,1.39,0,2.56,0,3.86c-3.12,0-6.3,0.24-9.43-0.07c-2.71-0.27-4.12-2.18-4.21-5.04
			c-0.1-3.04-0.02-6.09-0.02-9.41c-1.83,0-3.49,0-5.27,0c0-1.45,0-2.62,0-4.04c1.72,0,3.38,0,5.2,0c0-1.91,0-3.59,0-5.41
			c1.75,0,3.34,0,5.18,0c0,1.71,0,3.44,0,5.33C411.96,594.47,414.35,594.47,416.95,594.47z"/>
		<path d="M316.33,603.98c-1.84,0-3.37,0-5.09,0c-0.04-0.86-0.16-1.62-0.1-2.37c0.15-2.07-0.8-3.05-2.83-3.05
			c-2.19-0.01-4.37,0-6.78,0c0,4.97,0,9.75,0,14.63c-1.82,0-3.42,0-5.15,0c0-6.21,0-12.32,0-18.62c5.12,0,10.14-0.13,15.15,0.05
			c2.77,0.1,4.45,1.89,4.77,4.58C316.47,600.72,316.33,602.28,316.33,603.98z"/>
		<path d="M473.69,613.13c0-6.23,0-12.3,0-18.49c1.64,0,3.18,0,4.89,0c0,6.1,0,12.22,0,18.49
			C476.96,613.13,475.33,613.13,473.69,613.13z"/>
		<path d="M96.06,594.63c1.71,0,3.24,0,4.89,0c0,6.17,0,12.23,0,18.48c-1.57,0-3.15,0-4.89,0
			C96.06,607.03,96.06,600.92,96.06,594.63z"/>
		<path d="M96.21,587.63c1.69,0,3.24,0,4.93,0c0,1.27,0,2.44,0,3.77c-1.56,0-3.16,0-4.93,0C96.21,590.26,96.21,589.04,96.21,587.63z
			"/>
		<path d="M473.87,587.65c1.66,0,3.25,0,4.97,0c0,1.29,0,2.46,0,3.77c-1.62,0-3.22,0-4.97,0
			C473.87,590.22,473.87,588.99,473.87,587.65z"/>
	</g>
</g>
</svg>
