<?xml version="1.0" encoding="utf-8"?>
<!-- Generator: Adobe Illustrator 25.2.1, SVG Export Plug-In . SVG Version: 6.00 Build 0)  -->
<svg version="1.1" id="Layer_1" xmlns="http://www.w3.org/2000/svg" xmlns:xlink="http://www.w3.org/1999/xlink" x="0px" y="0px"
	 viewBox="0 0 500 138.7" style="enable-background:new 0 0 500 138.7;" xml:space="preserve">
<style type="text/css">
	.st0{fill:#EDEDED;}
	.st1{fill:#7E9A96;}
	.st2{fill:#FFFFFF;}
</style>
<g>
	<g>
		<path d="M34.7,123.5l1.8-8.7H40c0.4,0,0.8,0.1,1,0.3c0.3,0.2,0.5,0.5,0.7,0.8c0.2,0.3,0.2,0.7,0.2,1.1c0,0.4-0.1,0.7-0.2,1
			c-0.1,0.3-0.3,0.6-0.5,0.9c-0.2,0.3-0.5,0.5-0.8,0.7c-0.3,0.2-0.6,0.3-1,0.4l1.3,3.4h-1l-1.2-3.2h-2.4l-0.7,3.2H34.7z M39.1,119.5
			c0.3,0,0.5-0.1,0.8-0.2s0.5-0.3,0.6-0.6c0.2-0.2,0.3-0.5,0.4-0.8c0.1-0.3,0.2-0.6,0.2-0.8c0-0.3-0.1-0.6-0.2-0.8
			c-0.1-0.2-0.3-0.4-0.4-0.6c-0.2-0.1-0.4-0.2-0.7-0.2h-2.6l-0.8,4H39.1z"/>
		<path d="M44.9,123.6c-0.5,0-1-0.1-1.3-0.4s-0.6-0.6-0.8-1c-0.2-0.4-0.3-0.9-0.3-1.4c0-0.5,0.1-1,0.3-1.4c0.2-0.5,0.4-0.9,0.8-1.2
			c0.3-0.4,0.7-0.7,1.2-0.9c0.5-0.2,1-0.3,1.5-0.3c0.4,0,0.8,0.1,1.1,0.2c0.3,0.1,0.6,0.3,0.8,0.6c0.2,0.3,0.3,0.6,0.3,0.9
			c0,0.6-0.3,1.1-0.8,1.4s-1.4,0.5-2.6,0.5c-0.3,0-0.5,0-0.8,0c-0.3,0-0.7,0-1-0.1l0.1-0.6c0.4,0,0.7,0,1,0.1c0.3,0,0.5,0,0.8,0
			c0.7,0,1.2-0.1,1.5-0.2c0.4-0.1,0.6-0.2,0.8-0.4c0.2-0.2,0.2-0.4,0.2-0.7c0-0.2-0.1-0.5-0.2-0.6c-0.1-0.2-0.3-0.3-0.5-0.3
			c-0.2-0.1-0.4-0.1-0.7-0.1c-0.4,0-0.8,0.1-1.2,0.3c-0.3,0.2-0.6,0.4-0.9,0.7c-0.3,0.3-0.4,0.6-0.6,1c-0.1,0.4-0.2,0.8-0.2,1.2
			c0,0.4,0.1,0.7,0.2,1c0.1,0.3,0.3,0.6,0.6,0.8c0.3,0.2,0.6,0.3,1,0.3c0.4,0,0.8-0.1,1.2-0.3c0.4-0.2,0.7-0.5,0.9-0.9l0.7,0.2
			c-0.2,0.3-0.4,0.6-0.7,0.8c-0.3,0.2-0.6,0.4-1,0.6S45.3,123.6,44.9,123.6z"/>
		<path d="M50.8,123.6c-0.5,0-1-0.1-1.4-0.2c-0.4-0.2-0.8-0.4-1-0.7l0.5-0.6c0.3,0.3,0.6,0.5,0.9,0.6c0.3,0.1,0.7,0.2,1.1,0.2
			c0.4,0,0.7-0.1,1-0.2s0.5-0.3,0.7-0.5s0.2-0.4,0.2-0.7c0-0.3-0.1-0.5-0.4-0.7s-0.7-0.3-1.2-0.4c-0.4-0.1-0.7-0.2-1-0.3
			c-0.3-0.1-0.5-0.2-0.6-0.4c-0.1-0.2-0.2-0.4-0.2-0.7c0-0.4,0.1-0.8,0.4-1.2s0.6-0.6,1-0.7c0.4-0.2,0.9-0.3,1.4-0.3
			c0.5,0,0.9,0.1,1.2,0.2s0.6,0.4,0.8,0.6l-0.5,0.5c-0.2-0.2-0.4-0.4-0.7-0.5c-0.3-0.1-0.6-0.2-0.9-0.2c-0.3,0-0.6,0-0.9,0.1
			c-0.3,0.1-0.5,0.2-0.7,0.4c-0.2,0.2-0.3,0.4-0.3,0.7c0,0.3,0.1,0.5,0.3,0.6c0.2,0.1,0.5,0.2,1,0.3c0.4,0.1,0.8,0.2,1.1,0.4
			c0.3,0.1,0.5,0.3,0.7,0.5c0.2,0.2,0.2,0.4,0.2,0.7c0,0.4-0.1,0.8-0.3,1.1c-0.2,0.3-0.6,0.6-1,0.7
			C51.8,123.5,51.3,123.6,50.8,123.6z"/>
		<path d="M56.3,123.6c-1,0-1.5-0.5-1.5-1.6c0-0.2,0-0.3,0-0.5c0-0.2,0.1-0.4,0.1-0.6l0.8-3.7h0.8l-0.8,3.6c-0.1,0.4-0.1,0.7-0.1,1
			c0,0.8,0.4,1.2,1.1,1.2c0.3,0,0.6-0.1,0.9-0.2c0.3-0.1,0.6-0.3,0.9-0.6c0.3-0.3,0.5-0.6,0.7-0.9l0.9-4H61l-1.1,5.2
			c0,0,0,0.1,0,0.1s0,0.1,0,0.1c0,0.1,0.1,0.2,0.2,0.2l-0.2,0.7c-0.1,0-0.1,0-0.2,0s-0.1,0-0.2,0c-0.2,0-0.3-0.1-0.4-0.1
			c-0.1-0.1-0.1-0.2-0.1-0.3c0,0,0-0.1,0-0.2c0-0.1,0-0.2,0-0.3c0-0.1,0.1-0.3,0.1-0.5c-0.4,0.5-0.8,0.9-1.3,1.1
			C57.4,123.5,56.8,123.6,56.3,123.6z"/>
		<path d="M62.6,123.6c-0.3,0-0.5-0.1-0.7-0.2c-0.2-0.2-0.3-0.4-0.3-0.7c0-0.1,0-0.1,0-0.2c0-0.1,0-0.1,0-0.2l1.6-7.8h0.8l-1.6,7.5
			c0,0,0,0.1,0,0.1c0,0,0,0.1,0,0.1c0,0.4,0.2,0.5,0.6,0.5c0.1,0,0.2,0,0.3,0c0.1,0,0.2-0.1,0.3-0.1l0,0.7c-0.2,0.1-0.3,0.1-0.6,0.2
			C63,123.6,62.8,123.6,62.6,123.6z"/>
		<path d="M65.1,122.7c0,0,0-0.1,0-0.2c0-0.1,0-0.1,0-0.2l1-4.6h-0.8l0.1-0.7h0.8l0.5-2.2h0.8l-0.5,2.2h1.4l-0.1,0.7H67l-0.9,4.2
			c0,0.1,0,0.2,0,0.2c0,0,0,0.1,0,0.1c0,0.2,0.1,0.3,0.2,0.4c0.1,0.1,0.3,0.1,0.4,0.1c0.2,0,0.3,0,0.4-0.1s0.2-0.1,0.3-0.1
			c0.1,0,0.2-0.1,0.2-0.1l0.1,0.7c-0.1,0-0.2,0.1-0.3,0.2s-0.3,0.1-0.5,0.2c-0.2,0-0.4,0.1-0.6,0.1c-0.3,0-0.6-0.1-0.8-0.2
			C65.3,123.2,65.1,123,65.1,122.7z"/>
		<path d="M70.6,123.6c-0.5,0-1-0.1-1.4-0.2c-0.4-0.2-0.8-0.4-1-0.7l0.5-0.6c0.3,0.3,0.6,0.5,0.9,0.6c0.3,0.1,0.7,0.2,1.1,0.2
			c0.4,0,0.7-0.1,1-0.2s0.5-0.3,0.7-0.5s0.2-0.4,0.2-0.7c0-0.3-0.1-0.5-0.4-0.7s-0.7-0.3-1.2-0.4c-0.4-0.1-0.7-0.2-1-0.3
			c-0.3-0.1-0.5-0.2-0.6-0.4c-0.1-0.2-0.2-0.4-0.2-0.7c0-0.4,0.1-0.8,0.4-1.2s0.6-0.6,1-0.7c0.4-0.2,0.9-0.3,1.4-0.3
			c0.5,0,0.9,0.1,1.2,0.2s0.6,0.4,0.8,0.6l-0.5,0.5c-0.2-0.2-0.4-0.4-0.7-0.5c-0.3-0.1-0.6-0.2-0.9-0.2c-0.3,0-0.6,0-0.9,0.1
			c-0.3,0.1-0.5,0.2-0.7,0.4c-0.2,0.2-0.3,0.4-0.3,0.7c0,0.3,0.1,0.5,0.3,0.6c0.2,0.1,0.5,0.2,1,0.3c0.4,0.1,0.8,0.2,1.1,0.4
			c0.3,0.1,0.5,0.3,0.7,0.5c0.2,0.2,0.2,0.4,0.2,0.7c0,0.4-0.1,0.8-0.3,1.1c-0.2,0.3-0.6,0.6-1,0.7
			C71.7,123.5,71.2,123.6,70.6,123.6z"/>
		<path d="M78.9,117.8H78l0.1-0.7H79l0-0.2c0.1-0.5,0.3-1,0.5-1.3s0.5-0.7,0.8-0.9c0.3-0.2,0.7-0.3,1-0.3c0.2,0,0.5,0,0.7,0.1
			c0.2,0.1,0.4,0.2,0.5,0.3l-0.4,0.6c-0.1-0.1-0.2-0.2-0.3-0.2c-0.2,0-0.3-0.1-0.5-0.1c-0.4,0-0.7,0.2-0.9,0.5
			c-0.3,0.3-0.5,0.7-0.6,1.3l0,0.2h1.7l-0.1,0.7h-1.7l-1.8,8.3h-0.8L78.9,117.8z"/>
		<path d="M82.7,117.1h0.8l-0.3,1.5c0.3-0.5,0.7-0.8,1.1-1.1s0.8-0.4,1.2-0.4c0.1,0,0.1,0,0.2,0s0.1,0,0.1,0l-0.2,0.7
			c-0.5,0-1,0.2-1.5,0.5c-0.5,0.3-0.8,0.7-1.1,1.2l-0.8,4h-0.8L82.7,117.1z"/>
		<path d="M88.2,123.6c-0.6,0-1-0.1-1.4-0.4s-0.6-0.6-0.8-1c-0.2-0.4-0.3-0.9-0.3-1.3c0-0.5,0.1-1,0.3-1.5c0.2-0.5,0.5-0.9,0.8-1.2
			s0.7-0.6,1.2-0.8c0.5-0.2,0.9-0.3,1.4-0.3c0.5,0,1,0.1,1.4,0.4c0.4,0.2,0.6,0.6,0.8,1c0.2,0.4,0.3,0.9,0.3,1.3
			c0,0.5-0.1,1-0.3,1.5s-0.5,0.9-0.8,1.2c-0.3,0.4-0.7,0.6-1.2,0.8C89.2,123.5,88.7,123.6,88.2,123.6z M88.3,122.9
			c0.3,0,0.7-0.1,1-0.2c0.3-0.1,0.6-0.4,0.9-0.6c0.3-0.3,0.5-0.6,0.6-1c0.2-0.4,0.2-0.8,0.2-1.2c0-0.4-0.1-0.7-0.2-1.1
			c-0.1-0.3-0.3-0.6-0.6-0.7c-0.3-0.2-0.6-0.3-1-0.3c-0.3,0-0.7,0.1-1,0.2c-0.3,0.2-0.6,0.4-0.9,0.7c-0.3,0.3-0.5,0.6-0.6,1
			c-0.2,0.4-0.2,0.8-0.2,1.2c0,0.4,0.1,0.7,0.2,1.1c0.1,0.3,0.3,0.6,0.6,0.7C87.6,122.8,87.9,122.9,88.3,122.9z"/>
		<path d="M93.9,117.1h0.8l-0.3,1.4c0.3-0.5,0.7-0.9,1.2-1.1c0.5-0.3,0.9-0.4,1.4-0.4c0.3,0,0.6,0.1,0.8,0.2
			c0.2,0.1,0.4,0.3,0.5,0.6c0.1,0.2,0.2,0.5,0.2,0.9c0.2-0.4,0.5-0.7,0.8-0.9c0.3-0.2,0.6-0.4,0.9-0.6c0.3-0.1,0.6-0.2,1-0.2
			c0.3,0,0.6,0.1,0.8,0.2c0.2,0.1,0.4,0.3,0.5,0.5c0.1,0.2,0.1,0.5,0.1,0.8c0,0.2,0,0.4,0,0.6c0,0.2-0.1,0.4-0.1,0.6l-0.8,3.7h-0.8
			l0.7-3.5c0.1-0.4,0.1-0.7,0.1-1c0-0.4-0.1-0.7-0.2-0.9c-0.2-0.2-0.4-0.3-0.7-0.3c-0.3,0-0.6,0.1-0.9,0.2c-0.3,0.2-0.6,0.4-0.8,0.6
			c-0.3,0.3-0.5,0.6-0.6,1l-0.8,3.9h-0.8l0.7-3.5c0-0.2,0.1-0.4,0.1-0.5s0-0.3,0-0.5c0-0.4-0.1-0.7-0.2-0.9
			c-0.2-0.2-0.4-0.3-0.7-0.3c-0.4,0-0.9,0.2-1.3,0.5c-0.4,0.3-0.8,0.8-1,1.3l-0.8,3.9h-0.8L93.9,117.1z"/>
		<path d="M106.8,122.7c0,0,0-0.1,0-0.2c0-0.1,0-0.1,0-0.2l1-4.6H107l0.1-0.7h0.8l0.5-2.2h0.8l-0.5,2.2h1.4l-0.1,0.7h-1.4l-0.9,4.2
			c0,0.1,0,0.2,0,0.2c0,0,0,0.1,0,0.1c0,0.2,0.1,0.3,0.2,0.4c0.1,0.1,0.3,0.1,0.4,0.1c0.2,0,0.3,0,0.4-0.1s0.2-0.1,0.3-0.1
			c0.1,0,0.2-0.1,0.2-0.1l0.1,0.7c-0.1,0-0.2,0.1-0.3,0.2s-0.3,0.1-0.5,0.2c-0.2,0-0.4,0.1-0.6,0.1c-0.3,0-0.6-0.1-0.8-0.2
			C106.9,123.2,106.8,123,106.8,122.7z"/>
		<path d="M112.2,114.5h0.8l-0.9,4c0.3-0.5,0.8-0.8,1.2-1.1c0.5-0.3,1-0.4,1.5-0.4c0.3,0,0.6,0.1,0.8,0.2s0.4,0.3,0.5,0.6
			c0.1,0.2,0.1,0.5,0.1,0.9c0,0.2,0,0.3,0,0.5s-0.1,0.4-0.1,0.6l-0.8,3.7h-0.8l0.8-3.5c0-0.2,0.1-0.3,0.1-0.5s0-0.3,0-0.4
			c0-0.4-0.1-0.7-0.3-0.9c-0.2-0.2-0.4-0.3-0.8-0.3c-0.3,0-0.6,0.1-0.9,0.2s-0.6,0.4-0.9,0.6c-0.3,0.3-0.5,0.6-0.7,0.9l-0.8,3.9
			h-0.8L112.2,114.5z"/>
		<path d="M119.8,123.6c-0.5,0-1-0.1-1.3-0.4s-0.6-0.6-0.8-1c-0.2-0.4-0.3-0.9-0.3-1.4c0-0.5,0.1-1,0.3-1.4c0.2-0.5,0.4-0.9,0.8-1.2
			c0.3-0.4,0.7-0.7,1.2-0.9c0.5-0.2,1-0.3,1.5-0.3c0.4,0,0.8,0.1,1.1,0.2c0.3,0.1,0.6,0.3,0.8,0.6c0.2,0.3,0.3,0.6,0.3,0.9
			c0,0.6-0.3,1.1-0.8,1.4s-1.4,0.5-2.6,0.5c-0.3,0-0.5,0-0.8,0c-0.3,0-0.7,0-1-0.1l0.1-0.6c0.4,0,0.7,0,1,0.1c0.3,0,0.5,0,0.8,0
			c0.7,0,1.2-0.1,1.5-0.2c0.4-0.1,0.6-0.2,0.8-0.4c0.2-0.2,0.2-0.4,0.2-0.7c0-0.2-0.1-0.5-0.2-0.6c-0.1-0.2-0.3-0.3-0.5-0.3
			c-0.2-0.1-0.4-0.1-0.7-0.1c-0.4,0-0.8,0.1-1.2,0.3c-0.3,0.2-0.6,0.4-0.9,0.7c-0.3,0.3-0.4,0.6-0.6,1c-0.1,0.4-0.2,0.8-0.2,1.2
			c0,0.4,0.1,0.7,0.2,1c0.1,0.3,0.3,0.6,0.6,0.8c0.3,0.2,0.6,0.3,1,0.3c0.4,0,0.8-0.1,1.2-0.3c0.4-0.2,0.7-0.5,0.9-0.9l0.7,0.2
			c-0.2,0.3-0.4,0.6-0.7,0.8c-0.3,0.2-0.6,0.4-1,0.6S120.2,123.6,119.8,123.6z"/>
		<path d="M126.9,123.5l1.8-8.7h3.5c0.4,0,0.8,0.1,1,0.3c0.3,0.2,0.5,0.5,0.7,0.8c0.2,0.3,0.2,0.7,0.2,1.1c0,0.4-0.1,0.7-0.2,1
			c-0.1,0.3-0.3,0.6-0.5,0.9c-0.2,0.3-0.5,0.5-0.8,0.7c-0.3,0.2-0.6,0.3-1,0.4l1.3,3.4h-1l-1.2-3.2h-2.4l-0.7,3.2H126.9z
			 M131.2,119.5c0.3,0,0.5-0.1,0.8-0.2s0.5-0.3,0.6-0.6c0.2-0.2,0.3-0.5,0.4-0.8c0.1-0.3,0.2-0.6,0.2-0.8c0-0.3-0.1-0.6-0.2-0.8
			c-0.1-0.2-0.3-0.4-0.4-0.6c-0.2-0.1-0.4-0.2-0.7-0.2h-2.6l-0.8,4H131.2z"/>
		<path d="M137,123.6c-0.6,0-1-0.1-1.4-0.4s-0.6-0.6-0.8-1c-0.2-0.4-0.3-0.9-0.3-1.3c0-0.5,0.1-1,0.3-1.5c0.2-0.5,0.5-0.9,0.8-1.2
			s0.7-0.6,1.2-0.8c0.5-0.2,0.9-0.3,1.4-0.3c0.5,0,1,0.1,1.4,0.4c0.4,0.2,0.6,0.6,0.8,1c0.2,0.4,0.3,0.9,0.3,1.3
			c0,0.5-0.1,1-0.3,1.5s-0.5,0.9-0.8,1.2c-0.3,0.4-0.7,0.6-1.2,0.8C138,123.5,137.5,123.6,137,123.6z M137.2,122.9
			c0.3,0,0.7-0.1,1-0.2c0.3-0.1,0.6-0.4,0.9-0.6c0.3-0.3,0.5-0.6,0.6-1c0.2-0.4,0.2-0.8,0.2-1.2c0-0.4-0.1-0.7-0.2-1.1
			c-0.1-0.3-0.3-0.6-0.6-0.7c-0.3-0.2-0.6-0.3-1-0.3c-0.3,0-0.7,0.1-1,0.2c-0.3,0.2-0.6,0.4-0.9,0.7c-0.3,0.3-0.5,0.6-0.6,1
			c-0.2,0.4-0.2,0.8-0.2,1.2c0,0.4,0.1,0.7,0.2,1.1c0.1,0.3,0.3,0.6,0.6,0.7C136.5,122.8,136.8,122.9,137.2,122.9z"/>
		<path d="M140.8,125.5c0.3-0.1,0.6-0.1,0.8-0.2c0.2-0.1,0.4-0.2,0.6-0.4c0.2-0.2,0.4-0.4,0.6-0.7l0.4-0.6l-1.3-6.5h0.9l1,5.6
			l0.5-0.8c0.4-0.6,0.6-1.1,0.9-1.5c0.2-0.4,0.5-0.8,0.6-1.2c0.2-0.4,0.3-0.7,0.4-1s0.2-0.7,0.3-1h0.8c-0.1,0.4-0.2,0.8-0.3,1.1
			c-0.1,0.3-0.3,0.7-0.5,1.1c-0.2,0.4-0.4,0.8-0.7,1.3c-0.3,0.5-0.6,1-1,1.7l-1,1.6c-0.3,0.4-0.5,0.8-0.8,1.1
			c-0.2,0.3-0.5,0.5-0.7,0.7c-0.2,0.2-0.5,0.3-0.7,0.4c-0.2,0.1-0.5,0.1-0.8,0.2L140.8,125.5z"/>
		<path d="M149.8,123.6c-0.5,0-0.9-0.1-1.2-0.4c-0.3-0.2-0.6-0.6-0.8-1c-0.2-0.4-0.3-0.8-0.3-1.3c0-0.5,0.1-1,0.3-1.5
			c0.2-0.5,0.5-0.9,0.8-1.3s0.7-0.7,1.1-0.9c0.4-0.2,0.9-0.3,1.3-0.3c0.5,0,0.9,0.1,1.3,0.4s0.6,0.6,0.7,1l0.3-1.3h0.8l-1.1,5.2
			c0,0,0,0,0,0.1c0,0,0,0.1,0,0.1c0,0.1,0.1,0.2,0.2,0.2l-0.2,0.7c-0.1,0-0.1,0-0.2,0c-0.1,0-0.1,0-0.2,0c-0.2,0-0.3-0.1-0.4-0.1
			c-0.1-0.1-0.1-0.2-0.1-0.3c0,0,0-0.1,0-0.2c0-0.1,0-0.1,0-0.2s0-0.2,0.1-0.4c-0.3,0.4-0.7,0.7-1.2,1
			C150.7,123.5,150.2,123.6,149.8,123.6z M150.1,122.9c0.2,0,0.4,0,0.7-0.1s0.5-0.2,0.7-0.3s0.4-0.3,0.6-0.5
			c0.2-0.2,0.3-0.4,0.4-0.6l0.4-2c0-0.3-0.1-0.6-0.3-0.8c-0.2-0.2-0.4-0.4-0.6-0.6s-0.5-0.2-0.8-0.2c-0.4,0-0.7,0.1-1,0.3
			c-0.3,0.2-0.6,0.4-0.9,0.7c-0.3,0.3-0.5,0.6-0.6,1c-0.1,0.4-0.2,0.7-0.2,1.1c0,0.4,0.1,0.7,0.2,1s0.3,0.6,0.6,0.7
			C149.5,122.8,149.8,122.9,150.1,122.9z"/>
		<path d="M155.9,123.6c-0.3,0-0.5-0.1-0.7-0.2c-0.2-0.2-0.3-0.4-0.3-0.7c0-0.1,0-0.1,0-0.2c0-0.1,0-0.1,0-0.2l1.6-7.8h0.8l-1.6,7.5
			c0,0,0,0.1,0,0.1c0,0,0,0.1,0,0.1c0,0.4,0.2,0.5,0.6,0.5c0.1,0,0.2,0,0.3,0c0.1,0,0.2-0.1,0.3-0.1l0,0.7c-0.2,0.1-0.3,0.1-0.6,0.2
			C156.2,123.6,156,123.6,155.9,123.6z"/>
		<path d="M163.8,123.5c-0.6,0-1.2-0.1-1.7-0.3c-0.5-0.2-1-0.5-1.4-0.9l0.6-0.7c0.1,0.2,0.3,0.3,0.4,0.4s0.4,0.3,0.6,0.4
			c0.2,0.1,0.5,0.2,0.8,0.3s0.6,0.1,0.9,0.1c0.5,0,0.9-0.1,1.3-0.2s0.6-0.3,0.8-0.6c0.2-0.3,0.3-0.6,0.3-0.9c0-0.3-0.1-0.6-0.2-0.7
			s-0.4-0.3-0.7-0.5s-0.7-0.2-1.2-0.4c-0.5-0.1-0.9-0.3-1.2-0.4c-0.3-0.1-0.6-0.3-0.7-0.6c-0.2-0.2-0.3-0.5-0.3-0.9
			c0-0.4,0.1-0.9,0.3-1.2c0.2-0.4,0.4-0.7,0.7-0.9s0.7-0.4,1.1-0.6c0.4-0.1,0.9-0.2,1.4-0.2c0.4,0,0.7,0,1,0.1
			c0.3,0.1,0.6,0.2,0.8,0.3c0.2,0.2,0.5,0.3,0.6,0.5l-0.6,0.7c-0.1-0.1-0.2-0.3-0.3-0.4s-0.3-0.2-0.5-0.3c-0.2-0.1-0.4-0.1-0.6-0.2
			c-0.2,0-0.4-0.1-0.7-0.1c-0.5,0-1,0.1-1.4,0.2c-0.4,0.2-0.6,0.4-0.8,0.7s-0.3,0.6-0.3,1c0,0.3,0.1,0.5,0.2,0.6
			c0.1,0.2,0.4,0.3,0.6,0.4c0.3,0.1,0.7,0.2,1.1,0.3c0.5,0.1,0.9,0.3,1.3,0.4c0.4,0.2,0.6,0.4,0.8,0.6c0.2,0.2,0.3,0.6,0.3,1
			c0,0.5-0.1,0.9-0.3,1.2c-0.2,0.3-0.4,0.6-0.8,0.9c-0.3,0.2-0.7,0.4-1.1,0.5C164.7,123.5,164.3,123.5,163.8,123.5z"/>
		<path d="M169.9,123.6c-1,0-1.5-0.5-1.5-1.6c0-0.2,0-0.3,0-0.5c0-0.2,0.1-0.4,0.1-0.6l0.8-3.7h0.8l-0.8,3.6c-0.1,0.4-0.1,0.7-0.1,1
			c0,0.8,0.4,1.2,1.1,1.2c0.3,0,0.6-0.1,0.9-0.2c0.3-0.1,0.6-0.3,0.9-0.6c0.3-0.3,0.5-0.6,0.7-0.9l0.9-4h0.8l-1.1,5.2
			c0,0,0,0.1,0,0.1s0,0.1,0,0.1c0,0.1,0.1,0.2,0.2,0.2l-0.2,0.7c-0.1,0-0.1,0-0.2,0s-0.1,0-0.2,0c-0.2,0-0.3-0.1-0.4-0.1
			c-0.1-0.1-0.1-0.2-0.1-0.3c0,0,0-0.1,0-0.2c0-0.1,0-0.2,0-0.3c0-0.1,0.1-0.3,0.1-0.5c-0.4,0.5-0.8,0.9-1.3,1.1
			C171,123.5,170.5,123.6,169.9,123.6z"/>
		<path d="M176.4,117.1h0.8l-0.3,1.5c0.3-0.5,0.7-0.8,1.1-1.1s0.8-0.4,1.2-0.4c0.1,0,0.1,0,0.2,0s0.1,0,0.1,0l-0.2,0.7
			c-0.5,0-1,0.2-1.5,0.5c-0.5,0.3-0.8,0.7-1.1,1.2l-0.8,4h-0.8L176.4,117.1z"/>
		<path d="M180.6,117.1h0.8l-0.3,1.5c0.3-0.5,0.7-0.8,1.1-1.1s0.8-0.4,1.2-0.4c0.1,0,0.1,0,0.2,0s0.1,0,0.1,0l-0.2,0.7
			c-0.5,0-1,0.2-1.5,0.5c-0.5,0.3-0.8,0.7-1.1,1.2l-0.8,4h-0.8L180.6,117.1z"/>
		<path d="M186.1,123.6c-0.5,0-1-0.1-1.3-0.4s-0.6-0.6-0.8-1c-0.2-0.4-0.3-0.9-0.3-1.4c0-0.5,0.1-1,0.3-1.4c0.2-0.5,0.4-0.9,0.8-1.2
			c0.3-0.4,0.7-0.7,1.2-0.9c0.5-0.2,1-0.3,1.5-0.3c0.4,0,0.8,0.1,1.1,0.2c0.3,0.1,0.6,0.3,0.8,0.6c0.2,0.3,0.3,0.6,0.3,0.9
			c0,0.6-0.3,1.1-0.8,1.4s-1.4,0.5-2.6,0.5c-0.3,0-0.5,0-0.8,0c-0.3,0-0.7,0-1-0.1l0.1-0.6c0.4,0,0.7,0,1,0.1c0.3,0,0.5,0,0.8,0
			c0.7,0,1.2-0.1,1.5-0.2c0.4-0.1,0.6-0.2,0.8-0.4c0.2-0.2,0.2-0.4,0.2-0.7c0-0.2-0.1-0.5-0.2-0.6c-0.1-0.2-0.3-0.3-0.5-0.3
			c-0.2-0.1-0.4-0.1-0.7-0.1c-0.4,0-0.8,0.1-1.2,0.3c-0.3,0.2-0.6,0.4-0.9,0.7c-0.3,0.3-0.4,0.6-0.6,1c-0.1,0.4-0.2,0.8-0.2,1.2
			c0,0.4,0.1,0.7,0.2,1c0.1,0.3,0.3,0.6,0.6,0.8c0.3,0.2,0.6,0.3,1,0.3c0.4,0,0.8-0.1,1.2-0.3c0.4-0.2,0.7-0.5,0.9-0.9l0.7,0.2
			c-0.2,0.3-0.4,0.6-0.7,0.8c-0.3,0.2-0.6,0.4-1,0.6S186.6,123.6,186.1,123.6z"/>
		<path d="M189.5,125.5c0.3-0.1,0.6-0.1,0.8-0.2c0.2-0.1,0.4-0.2,0.6-0.4c0.2-0.2,0.4-0.4,0.6-0.7l0.4-0.6l-1.3-6.5h0.9l1,5.6
			l0.5-0.8c0.4-0.6,0.6-1.1,0.9-1.5c0.2-0.4,0.5-0.8,0.6-1.2c0.2-0.4,0.3-0.7,0.4-1s0.2-0.7,0.3-1h0.8c-0.1,0.4-0.2,0.8-0.3,1.1
			c-0.1,0.3-0.3,0.7-0.5,1.1c-0.2,0.4-0.4,0.8-0.7,1.3c-0.3,0.5-0.6,1-1,1.7l-1,1.6c-0.3,0.4-0.5,0.8-0.8,1.1
			c-0.2,0.3-0.5,0.5-0.7,0.7c-0.2,0.2-0.5,0.3-0.7,0.4c-0.2,0.1-0.5,0.1-0.8,0.2L189.5,125.5z"/>
		<path d="M201,114.8h0.8l-0.8,3.9h4.8l0.8-3.9h0.9l-1.8,8.7h-0.9l0.9-4.1h-4.8l-0.9,4.1h-0.8L201,114.8z"/>
		<path d="M210.3,123.6c-0.6,0-1-0.1-1.4-0.4s-0.6-0.6-0.8-1c-0.2-0.4-0.3-0.9-0.3-1.3c0-0.5,0.1-1,0.3-1.5c0.2-0.5,0.5-0.9,0.8-1.2
			s0.7-0.6,1.2-0.8c0.5-0.2,0.9-0.3,1.4-0.3c0.5,0,1,0.1,1.4,0.4c0.4,0.2,0.6,0.6,0.8,1c0.2,0.4,0.3,0.9,0.3,1.3
			c0,0.5-0.1,1-0.3,1.5s-0.5,0.9-0.8,1.2c-0.3,0.4-0.7,0.6-1.2,0.8C211.3,123.5,210.8,123.6,210.3,123.6z M210.5,122.9
			c0.3,0,0.7-0.1,1-0.2c0.3-0.1,0.6-0.4,0.9-0.6c0.3-0.3,0.5-0.6,0.6-1c0.2-0.4,0.2-0.8,0.2-1.2c0-0.4-0.1-0.7-0.2-1.1
			c-0.1-0.3-0.3-0.6-0.6-0.7c-0.3-0.2-0.6-0.3-1-0.3c-0.3,0-0.7,0.1-1,0.2c-0.3,0.2-0.6,0.4-0.9,0.7c-0.3,0.3-0.5,0.6-0.6,1
			c-0.2,0.4-0.2,0.8-0.2,1.2c0,0.4,0.1,0.7,0.2,1.1c0.1,0.3,0.3,0.6,0.6,0.7C209.8,122.8,210.1,122.9,210.5,122.9z"/>
		<path d="M216.7,123.6c-0.5,0-1-0.1-1.4-0.2c-0.4-0.2-0.8-0.4-1-0.7l0.5-0.6c0.3,0.3,0.6,0.5,0.9,0.6c0.3,0.1,0.7,0.2,1.1,0.2
			c0.4,0,0.7-0.1,1-0.2s0.5-0.3,0.7-0.5s0.2-0.4,0.2-0.7c0-0.3-0.1-0.5-0.4-0.7s-0.7-0.3-1.2-0.4c-0.4-0.1-0.7-0.2-1-0.3
			c-0.3-0.1-0.5-0.2-0.6-0.4c-0.1-0.2-0.2-0.4-0.2-0.7c0-0.4,0.1-0.8,0.4-1.2s0.6-0.6,1-0.7c0.4-0.2,0.9-0.3,1.4-0.3
			c0.5,0,0.9,0.1,1.2,0.2s0.6,0.4,0.8,0.6l-0.5,0.5c-0.2-0.2-0.4-0.4-0.7-0.5c-0.3-0.1-0.6-0.2-0.9-0.2c-0.3,0-0.6,0-0.9,0.1
			c-0.3,0.1-0.5,0.2-0.7,0.4c-0.2,0.2-0.3,0.4-0.3,0.7c0,0.3,0.1,0.5,0.3,0.6c0.2,0.1,0.5,0.2,1,0.3c0.4,0.1,0.8,0.2,1.1,0.4
			c0.3,0.1,0.5,0.3,0.7,0.5c0.2,0.2,0.2,0.4,0.2,0.7c0,0.4-0.1,0.8-0.3,1.1c-0.2,0.3-0.6,0.6-1,0.7
			C217.8,123.5,217.3,123.6,216.7,123.6z"/>
		<path d="M221.8,117.1h0.7l-0.3,1.2c0.3-0.4,0.7-0.7,1.2-1c0.5-0.2,0.9-0.4,1.4-0.4c0.5,0,0.9,0.1,1.2,0.4c0.3,0.2,0.6,0.6,0.8,1
			c0.2,0.4,0.3,0.8,0.3,1.3c0,0.5-0.1,1-0.3,1.4c-0.2,0.5-0.4,0.9-0.8,1.3c-0.3,0.4-0.7,0.7-1.1,0.9s-0.9,0.3-1.4,0.3
			c-0.5,0-0.9-0.1-1.3-0.4c-0.3-0.3-0.6-0.6-0.7-1l-0.8,3.9h-0.8L221.8,117.1z M223.4,122.9c0.4,0,0.7-0.1,1-0.3
			c0.3-0.2,0.6-0.4,0.9-0.7c0.3-0.3,0.5-0.6,0.6-1c0.1-0.4,0.2-0.7,0.2-1.1c0-0.4-0.1-0.7-0.2-1c-0.1-0.3-0.3-0.6-0.6-0.7
			c-0.3-0.2-0.6-0.3-0.9-0.3c-0.2,0-0.4,0-0.6,0.1c-0.2,0.1-0.5,0.2-0.7,0.3c-0.2,0.1-0.4,0.3-0.6,0.5s-0.3,0.4-0.4,0.6l-0.4,1.9
			c0.1,0.3,0.2,0.6,0.3,0.8c0.2,0.2,0.4,0.4,0.6,0.6S223.1,122.9,223.4,122.9z"/>
		<path d="M229,117.1h0.8l-1.3,6.4h-0.8L229,117.1z M229.6,114.6h0.8l-0.3,1.2h-0.8L229.6,114.6z"/>
		<path d="M230.8,122.7c0,0,0-0.1,0-0.2c0-0.1,0-0.1,0-0.2l1-4.6h-0.8l0.1-0.7h0.8l0.5-2.2h0.8l-0.5,2.2h1.4l-0.1,0.7h-1.4l-0.9,4.2
			c0,0.1,0,0.2,0,0.2c0,0,0,0.1,0,0.1c0,0.2,0.1,0.3,0.2,0.4c0.1,0.1,0.3,0.1,0.4,0.1c0.2,0,0.3,0,0.4-0.1s0.2-0.1,0.3-0.1
			c0.1,0,0.2-0.1,0.2-0.1l0.1,0.7c-0.1,0-0.2,0.1-0.3,0.2s-0.3,0.1-0.5,0.2c-0.2,0-0.4,0.1-0.6,0.1c-0.3,0-0.6-0.1-0.8-0.2
			C230.9,123.2,230.8,123,230.8,122.7z"/>
		<path d="M236.7,123.6c-0.5,0-0.9-0.1-1.2-0.4c-0.3-0.2-0.6-0.6-0.8-1c-0.2-0.4-0.3-0.8-0.3-1.3c0-0.5,0.1-1,0.3-1.5
			c0.2-0.5,0.5-0.9,0.8-1.3s0.7-0.7,1.1-0.9c0.4-0.2,0.9-0.3,1.3-0.3c0.5,0,0.9,0.1,1.3,0.4s0.6,0.6,0.7,1l0.3-1.3h0.8l-1.1,5.2
			c0,0,0,0,0,0.1c0,0,0,0.1,0,0.1c0,0.1,0.1,0.2,0.2,0.2l-0.2,0.7c-0.1,0-0.1,0-0.2,0c-0.1,0-0.1,0-0.2,0c-0.2,0-0.3-0.1-0.4-0.1
			c-0.1-0.1-0.1-0.2-0.1-0.3c0,0,0-0.1,0-0.2c0-0.1,0-0.1,0-0.2s0-0.2,0.1-0.4c-0.3,0.4-0.7,0.7-1.2,1
			C237.6,123.5,237.1,123.6,236.7,123.6z M237,122.9c0.2,0,0.4,0,0.7-0.1s0.5-0.2,0.7-0.3s0.4-0.3,0.6-0.5c0.2-0.2,0.3-0.4,0.4-0.6
			l0.4-2c0-0.3-0.1-0.6-0.3-0.8c-0.2-0.2-0.4-0.4-0.6-0.6s-0.5-0.2-0.8-0.2c-0.4,0-0.7,0.1-1,0.3c-0.3,0.2-0.6,0.4-0.9,0.7
			c-0.3,0.3-0.5,0.6-0.6,1c-0.1,0.4-0.2,0.7-0.2,1.1c0,0.4,0.1,0.7,0.2,1s0.3,0.6,0.6,0.7C236.4,122.8,236.7,122.9,237,122.9z"/>
		<path d="M242.7,123.6c-0.3,0-0.5-0.1-0.7-0.2c-0.2-0.2-0.3-0.4-0.3-0.7c0-0.1,0-0.1,0-0.2c0-0.1,0-0.1,0-0.2l1.6-7.8h0.8l-1.6,7.5
			c0,0,0,0.1,0,0.1c0,0,0,0.1,0,0.1c0,0.4,0.2,0.5,0.6,0.5c0.1,0,0.2,0,0.3,0c0.1,0,0.2-0.1,0.3-0.1l0,0.7c-0.2,0.1-0.3,0.1-0.6,0.2
			C243.1,123.6,242.9,123.6,242.7,123.6z"/>
		<path d="M249.8,114.8h0.7l3.9,7.2l1.5-7.2h0.8l-1.8,8.7h-0.7l-3.8-7.1l-1.5,7.1H248L249.8,114.8z"/>
		<path d="M258.9,114.8h0.8l-0.8,3.9h4.8l0.8-3.9h0.9l-1.8,8.7h-0.9l0.9-4.1h-4.8l-0.9,4.1H257L258.9,114.8z"/>
		<path d="M268.4,123.5c-0.6,0-1.2-0.1-1.7-0.3s-1-0.5-1.4-0.9l0.6-0.7c0.1,0.2,0.3,0.3,0.4,0.4c0.2,0.1,0.4,0.3,0.6,0.4
			c0.2,0.1,0.5,0.2,0.8,0.3s0.6,0.1,0.9,0.1c0.5,0,0.9-0.1,1.3-0.2s0.6-0.3,0.8-0.6c0.2-0.3,0.3-0.6,0.3-0.9c0-0.3-0.1-0.6-0.2-0.7
			c-0.2-0.2-0.4-0.3-0.7-0.5s-0.7-0.2-1.2-0.4c-0.5-0.1-0.9-0.3-1.2-0.4c-0.3-0.1-0.6-0.3-0.7-0.6c-0.2-0.2-0.3-0.5-0.3-0.9
			c0-0.4,0.1-0.9,0.3-1.2c0.2-0.4,0.4-0.7,0.7-0.9s0.7-0.4,1.1-0.6c0.4-0.1,0.9-0.2,1.4-0.2c0.4,0,0.7,0,1,0.1
			c0.3,0.1,0.6,0.2,0.8,0.3c0.2,0.2,0.5,0.3,0.6,0.5l-0.6,0.7c-0.1-0.1-0.2-0.3-0.3-0.4s-0.3-0.2-0.5-0.3c-0.2-0.1-0.4-0.1-0.6-0.2
			c-0.2,0-0.4-0.1-0.7-0.1c-0.5,0-1,0.1-1.4,0.2s-0.6,0.4-0.8,0.7s-0.3,0.6-0.3,1c0,0.3,0.1,0.5,0.2,0.6s0.4,0.3,0.6,0.4
			c0.3,0.1,0.7,0.2,1.1,0.3c0.5,0.1,0.9,0.3,1.3,0.4c0.4,0.2,0.6,0.4,0.8,0.6c0.2,0.2,0.3,0.6,0.3,1c0,0.5-0.1,0.9-0.3,1.2
			c-0.2,0.3-0.4,0.6-0.8,0.9c-0.3,0.2-0.7,0.4-1.1,0.5C269.3,123.5,268.9,123.5,268.4,123.5z"/>
		<path d="M279.7,115.5h-2.9l0.2-0.8h6.7l-0.2,0.8h-2.9l-1.7,7.9H278L279.7,115.5z"/>
		<path d="M284.2,117.1h0.8l-0.3,1.5c0.3-0.5,0.7-0.8,1.1-1.1s0.8-0.4,1.2-0.4c0.1,0,0.1,0,0.2,0s0.1,0,0.1,0l-0.2,0.7
			c-0.5,0-1,0.2-1.5,0.5c-0.5,0.3-0.8,0.7-1.1,1.2l-0.8,4h-0.8L284.2,117.1z"/>
		<path d="M288.9,123.6c-1,0-1.5-0.5-1.5-1.6c0-0.2,0-0.3,0-0.5c0-0.2,0.1-0.4,0.1-0.6l0.8-3.7h0.8l-0.8,3.6c-0.1,0.4-0.1,0.7-0.1,1
			c0,0.8,0.4,1.2,1.1,1.2c0.3,0,0.6-0.1,0.9-0.2c0.3-0.1,0.6-0.3,0.9-0.6c0.3-0.3,0.5-0.6,0.7-0.9l0.9-4h0.8l-1.1,5.2
			c0,0,0,0.1,0,0.1c0,0,0,0.1,0,0.1c0,0.1,0.1,0.2,0.2,0.2l-0.2,0.7c-0.1,0-0.1,0-0.2,0c-0.1,0-0.1,0-0.2,0c-0.2,0-0.3-0.1-0.4-0.1
			c-0.1-0.1-0.1-0.2-0.1-0.3c0,0,0-0.1,0-0.2c0-0.1,0-0.2,0-0.3c0-0.1,0.1-0.3,0.1-0.5c-0.4,0.5-0.8,0.9-1.3,1.1
			C289.9,123.5,289.4,123.6,288.9,123.6z"/>
		<path d="M296.1,123.6c-0.5,0-1-0.1-1.4-0.2s-0.8-0.4-1-0.7l0.5-0.6c0.3,0.3,0.6,0.5,0.9,0.6c0.3,0.1,0.7,0.2,1.1,0.2
			c0.4,0,0.7-0.1,1-0.2s0.5-0.3,0.7-0.5s0.2-0.4,0.2-0.7c0-0.3-0.1-0.5-0.4-0.7c-0.3-0.1-0.7-0.3-1.2-0.4c-0.4-0.1-0.7-0.2-1-0.3
			c-0.3-0.1-0.5-0.2-0.6-0.4c-0.1-0.2-0.2-0.4-0.2-0.7c0-0.4,0.1-0.8,0.4-1.2c0.2-0.3,0.6-0.6,1-0.7c0.4-0.2,0.9-0.3,1.4-0.3
			c0.5,0,0.9,0.1,1.2,0.2s0.6,0.4,0.8,0.6l-0.5,0.5c-0.2-0.2-0.4-0.4-0.7-0.5s-0.6-0.2-0.9-0.2c-0.3,0-0.6,0-0.9,0.1
			c-0.3,0.1-0.5,0.2-0.7,0.4s-0.3,0.4-0.3,0.7c0,0.3,0.1,0.5,0.3,0.6s0.5,0.2,1,0.3c0.4,0.1,0.8,0.2,1.1,0.4
			c0.3,0.1,0.5,0.3,0.7,0.5c0.2,0.2,0.2,0.4,0.2,0.7c0,0.4-0.1,0.8-0.3,1.1s-0.6,0.6-1,0.7S296.6,123.6,296.1,123.6z"/>
		<path d="M300.2,122.7c0,0,0-0.1,0-0.2s0-0.1,0-0.2l1-4.6h-0.8l0.1-0.7h0.8l0.5-2.2h0.8l-0.5,2.2h1.4l-0.1,0.7h-1.4l-0.9,4.2
			c0,0.1,0,0.2,0,0.2c0,0,0,0.1,0,0.1c0,0.2,0.1,0.3,0.2,0.4c0.1,0.1,0.3,0.1,0.4,0.1c0.2,0,0.3,0,0.4-0.1s0.2-0.1,0.3-0.1
			c0.1,0,0.2-0.1,0.2-0.1l0.1,0.7c-0.1,0-0.2,0.1-0.3,0.2s-0.3,0.1-0.5,0.2c-0.2,0-0.4,0.1-0.6,0.1c-0.3,0-0.6-0.1-0.8-0.2
			C300.3,123.2,300.2,123,300.2,122.7z"/>
		<path d="M310.3,123.5c-0.5,0-1-0.1-1.3-0.3c-0.4-0.2-0.7-0.5-1-0.8c-0.3-0.3-0.5-0.7-0.6-1.1s-0.2-0.9-0.2-1.3
			c0-0.5,0.1-1.1,0.3-1.6c0.2-0.5,0.4-1,0.7-1.4c0.3-0.4,0.7-0.8,1.1-1.2c0.4-0.3,0.9-0.6,1.3-0.8s1-0.3,1.5-0.3
			c0.5,0,1,0.1,1.3,0.3s0.7,0.5,1,0.8s0.4,0.7,0.6,1.2c0.1,0.4,0.2,0.9,0.2,1.3c0,0.5-0.1,1.1-0.3,1.6c-0.2,0.5-0.4,1-0.7,1.4
			c-0.3,0.4-0.7,0.8-1.1,1.2c-0.4,0.3-0.9,0.6-1.3,0.8C311.3,123.4,310.8,123.5,310.3,123.5z M310.5,122.8c0.5,0,1-0.1,1.5-0.4
			c0.5-0.3,0.9-0.6,1.2-1c0.4-0.4,0.6-0.9,0.8-1.4c0.2-0.5,0.3-1,0.3-1.6c0-0.5-0.1-1-0.3-1.4s-0.4-0.8-0.8-1.1
			c-0.3-0.3-0.8-0.4-1.3-0.4c-0.5,0-1,0.1-1.5,0.4c-0.5,0.3-0.9,0.6-1.2,1c-0.4,0.4-0.6,0.9-0.8,1.4c-0.2,0.5-0.3,1-0.3,1.6
			c0,0.5,0.1,1,0.3,1.4s0.4,0.8,0.8,1.1C309.5,122.6,309.9,122.8,310.5,122.8z M313.1,123.5l-1.6-2.7h0.8l1.6,2.7H313.1z"/>
		<path d="M317.4,123.6c-1,0-1.5-0.5-1.5-1.6c0-0.2,0-0.3,0-0.5c0-0.2,0.1-0.4,0.1-0.6l0.8-3.7h0.8l-0.8,3.6c-0.1,0.4-0.1,0.7-0.1,1
			c0,0.8,0.4,1.2,1.1,1.2c0.3,0,0.6-0.1,0.9-0.2c0.3-0.1,0.6-0.3,0.9-0.6c0.3-0.3,0.5-0.6,0.7-0.9l0.9-4h0.8l-1.1,5.2
			c0,0,0,0.1,0,0.1c0,0,0,0.1,0,0.1c0,0.1,0.1,0.2,0.2,0.2l-0.2,0.7c-0.1,0-0.1,0-0.2,0c-0.1,0-0.1,0-0.2,0c-0.2,0-0.3-0.1-0.4-0.1
			c-0.1-0.1-0.1-0.2-0.1-0.3c0,0,0-0.1,0-0.2c0-0.1,0-0.2,0-0.3c0-0.1,0.1-0.3,0.1-0.5c-0.4,0.5-0.8,0.9-1.3,1.1
			C318.4,123.5,317.9,123.6,317.4,123.6z"/>
		<path d="M325,123.6c-0.5,0-0.9-0.1-1.2-0.4c-0.3-0.2-0.6-0.6-0.8-1c-0.2-0.4-0.3-0.8-0.3-1.3c0-0.5,0.1-1,0.3-1.5
			c0.2-0.5,0.5-0.9,0.8-1.3c0.3-0.4,0.7-0.7,1.1-0.9c0.4-0.2,0.9-0.3,1.3-0.3c0.5,0,0.9,0.1,1.3,0.4c0.3,0.3,0.6,0.6,0.7,1l0.3-1.3
			h0.8l-1.1,5.2c0,0,0,0,0,0.1c0,0,0,0.1,0,0.1c0,0.1,0.1,0.2,0.2,0.2l-0.2,0.7c-0.1,0-0.1,0-0.2,0c-0.1,0-0.1,0-0.2,0
			c-0.2,0-0.3-0.1-0.4-0.1s-0.1-0.2-0.1-0.3c0,0,0-0.1,0-0.2c0-0.1,0-0.1,0-0.2s0-0.2,0.1-0.4c-0.3,0.4-0.7,0.7-1.2,1
			C325.9,123.5,325.4,123.6,325,123.6z M325.3,122.9c0.2,0,0.4,0,0.7-0.1s0.5-0.2,0.7-0.3c0.2-0.1,0.4-0.3,0.6-0.5
			c0.2-0.2,0.3-0.4,0.4-0.6l0.4-2c0-0.3-0.1-0.6-0.3-0.8c-0.2-0.2-0.4-0.4-0.6-0.6c-0.2-0.1-0.5-0.2-0.8-0.2c-0.4,0-0.7,0.1-1,0.3
			c-0.3,0.2-0.6,0.4-0.9,0.7c-0.3,0.3-0.5,0.6-0.6,1c-0.1,0.4-0.2,0.7-0.2,1.1c0,0.4,0.1,0.7,0.2,1s0.3,0.6,0.6,0.7
			C324.7,122.8,325,122.9,325.3,122.9z"/>
		<path d="M331.1,123.6c-0.3,0-0.5-0.1-0.7-0.2c-0.2-0.2-0.3-0.4-0.3-0.7c0-0.1,0-0.1,0-0.2c0-0.1,0-0.1,0-0.2l1.6-7.8h0.8l-1.6,7.5
			c0,0,0,0.1,0,0.1s0,0.1,0,0.1c0,0.4,0.2,0.5,0.6,0.5c0.1,0,0.2,0,0.3,0c0.1,0,0.2-0.1,0.3-0.1l0,0.7c-0.2,0.1-0.3,0.1-0.6,0.2
			C331.4,123.6,331.2,123.6,331.1,123.6z"/>
		<path d="M334.4,117.1h0.8l-1.3,6.4h-0.8L334.4,117.1z M335,114.6h0.8l-0.3,1.2h-0.8L335,114.6z"/>
		<path d="M336.2,122.7c0,0,0-0.1,0-0.2s0-0.1,0-0.2l1-4.6h-0.8l0.1-0.7h0.8l0.5-2.2h0.8l-0.5,2.2h1.4l-0.1,0.7H338l-0.9,4.2
			c0,0.1,0,0.2,0,0.2c0,0,0,0.1,0,0.1c0,0.2,0.1,0.3,0.2,0.4c0.1,0.1,0.3,0.1,0.4,0.1c0.2,0,0.3,0,0.4-0.1s0.2-0.1,0.3-0.1
			c0.1,0,0.2-0.1,0.2-0.1l0.1,0.7c-0.1,0-0.2,0.1-0.3,0.2s-0.3,0.1-0.5,0.2c-0.2,0-0.4,0.1-0.6,0.1c-0.3,0-0.6-0.1-0.8-0.2
			C336.3,123.2,336.2,123,336.2,122.7z"/>
		<path d="M339.1,125.5c0.3-0.1,0.6-0.1,0.8-0.2c0.2-0.1,0.4-0.2,0.6-0.4c0.2-0.2,0.4-0.4,0.6-0.7l0.4-0.6l-1.3-6.5h0.9l1,5.6
			l0.5-0.8c0.4-0.6,0.6-1.1,0.9-1.5s0.5-0.8,0.6-1.2c0.2-0.4,0.3-0.7,0.4-1s0.2-0.7,0.3-1h0.8c-0.1,0.4-0.2,0.8-0.3,1.1
			c-0.1,0.3-0.3,0.7-0.5,1.1c-0.2,0.4-0.4,0.8-0.7,1.3c-0.3,0.5-0.6,1-1,1.7l-1,1.6c-0.3,0.4-0.5,0.8-0.8,1.1
			c-0.2,0.3-0.5,0.5-0.7,0.7c-0.2,0.2-0.5,0.3-0.7,0.4c-0.2,0.1-0.5,0.1-0.8,0.2L339.1,125.5z"/>
		<path d="M350.6,114.8h0.8l-1.8,8.7h-0.8L350.6,114.8z"/>
		<path d="M353,117.1h0.8l-0.3,1.4c0.3-0.5,0.7-0.9,1.2-1.1c0.5-0.3,0.9-0.4,1.4-0.4c0.3,0,0.6,0.1,0.8,0.2c0.2,0.1,0.4,0.3,0.5,0.6
			s0.2,0.5,0.2,0.9c0.2-0.4,0.5-0.7,0.8-0.9c0.3-0.2,0.6-0.4,0.9-0.6c0.3-0.1,0.6-0.2,1-0.2c0.3,0,0.6,0.1,0.8,0.2
			c0.2,0.1,0.4,0.3,0.5,0.5c0.1,0.2,0.1,0.5,0.1,0.8c0,0.2,0,0.4,0,0.6c0,0.2-0.1,0.4-0.1,0.6l-0.8,3.7h-0.8l0.7-3.5
			c0.1-0.4,0.1-0.7,0.1-1c0-0.4-0.1-0.7-0.2-0.9c-0.2-0.2-0.4-0.3-0.7-0.3c-0.3,0-0.6,0.1-0.9,0.2c-0.3,0.2-0.6,0.4-0.8,0.6
			c-0.3,0.3-0.5,0.6-0.6,1l-0.8,3.9h-0.8l0.7-3.5c0-0.2,0.1-0.4,0.1-0.5s0-0.3,0-0.5c0-0.4-0.1-0.7-0.2-0.9
			c-0.2-0.2-0.4-0.3-0.7-0.3c-0.4,0-0.9,0.2-1.3,0.5c-0.4,0.3-0.8,0.8-1,1.3l-0.8,3.9h-0.8L353,117.1z"/>
		<path d="M363.7,117.1h0.7l-0.3,1.2c0.3-0.4,0.7-0.7,1.2-1c0.5-0.2,0.9-0.4,1.4-0.4c0.5,0,0.9,0.1,1.2,0.4c0.3,0.2,0.6,0.6,0.8,1
			c0.2,0.4,0.3,0.8,0.3,1.3c0,0.5-0.1,1-0.3,1.4c-0.2,0.5-0.4,0.9-0.8,1.3c-0.3,0.4-0.7,0.7-1.1,0.9c-0.4,0.2-0.9,0.3-1.4,0.3
			c-0.5,0-0.9-0.1-1.3-0.4c-0.3-0.3-0.6-0.6-0.7-1l-0.8,3.9h-0.8L363.7,117.1z M365.4,122.9c0.4,0,0.7-0.1,1-0.3
			c0.3-0.2,0.6-0.4,0.9-0.7c0.3-0.3,0.5-0.6,0.6-1c0.1-0.4,0.2-0.7,0.2-1.1c0-0.4-0.1-0.7-0.2-1s-0.3-0.6-0.6-0.7
			c-0.3-0.2-0.6-0.3-0.9-0.3c-0.2,0-0.4,0-0.6,0.1s-0.5,0.2-0.7,0.3s-0.4,0.3-0.6,0.5c-0.2,0.2-0.3,0.4-0.4,0.6l-0.4,1.9
			c0.1,0.3,0.2,0.6,0.3,0.8c0.2,0.2,0.4,0.4,0.6,0.6C364.8,122.8,365.1,122.9,365.4,122.9z"/>
		<path d="M371,117.1h0.8l-0.3,1.5c0.3-0.5,0.7-0.8,1.1-1.1s0.8-0.4,1.2-0.4c0.1,0,0.1,0,0.2,0s0.1,0,0.1,0l-0.2,0.7
			c-0.5,0-1,0.2-1.5,0.5c-0.5,0.3-0.8,0.7-1.1,1.2l-0.8,4h-0.8L371,117.1z"/>
		<path d="M376.5,123.6c-0.6,0-1-0.1-1.4-0.4s-0.6-0.6-0.8-1c-0.2-0.4-0.3-0.9-0.3-1.3c0-0.5,0.1-1,0.3-1.5s0.5-0.9,0.8-1.2
			c0.3-0.4,0.7-0.6,1.2-0.8c0.5-0.2,0.9-0.3,1.4-0.3c0.5,0,1,0.1,1.4,0.4c0.4,0.2,0.6,0.6,0.8,1s0.3,0.9,0.3,1.3
			c0,0.5-0.1,1-0.3,1.5c-0.2,0.5-0.5,0.9-0.8,1.2c-0.3,0.4-0.7,0.6-1.2,0.8C377.5,123.5,377,123.6,376.5,123.6z M376.6,122.9
			c0.3,0,0.7-0.1,1-0.2c0.3-0.1,0.6-0.4,0.9-0.6c0.3-0.3,0.5-0.6,0.6-1c0.2-0.4,0.2-0.8,0.2-1.2c0-0.4-0.1-0.7-0.2-1.1
			c-0.1-0.3-0.3-0.6-0.6-0.7c-0.3-0.2-0.6-0.3-1-0.3c-0.3,0-0.7,0.1-1,0.2c-0.3,0.2-0.6,0.4-0.9,0.7c-0.3,0.3-0.5,0.6-0.6,1
			c-0.2,0.4-0.2,0.8-0.2,1.2c0,0.4,0.1,0.7,0.2,1.1c0.1,0.3,0.3,0.6,0.6,0.7C375.9,122.8,376.2,122.9,376.6,122.9z"/>
		<path d="M381.4,117.1h0.9l0.8,5.6c0.4-0.5,0.7-0.9,1-1.4s0.6-0.9,0.8-1.4s0.5-0.9,0.7-1.4c0.2-0.5,0.3-0.9,0.5-1.4h0.8
			c-0.3,1.1-0.8,2.1-1.3,3.2c-0.6,1.1-1.3,2.1-2.1,3.2h-0.9L381.4,117.1z"/>
		<path d="M389.5,123.6c-0.5,0-1-0.1-1.3-0.4s-0.6-0.6-0.8-1c-0.2-0.4-0.3-0.9-0.3-1.4c0-0.5,0.1-1,0.3-1.4c0.2-0.5,0.4-0.9,0.8-1.2
			s0.7-0.7,1.2-0.9c0.5-0.2,1-0.3,1.5-0.3c0.4,0,0.8,0.1,1.1,0.2c0.3,0.1,0.6,0.3,0.8,0.6c0.2,0.3,0.3,0.6,0.3,0.9
			c0,0.6-0.3,1.1-0.8,1.4c-0.6,0.3-1.4,0.5-2.6,0.5c-0.3,0-0.5,0-0.8,0c-0.3,0-0.7,0-1-0.1l0.1-0.6c0.4,0,0.7,0,1,0.1
			c0.3,0,0.5,0,0.8,0c0.7,0,1.2-0.1,1.5-0.2c0.4-0.1,0.6-0.2,0.8-0.4c0.2-0.2,0.2-0.4,0.2-0.7c0-0.2-0.1-0.5-0.2-0.6
			c-0.1-0.2-0.3-0.3-0.5-0.3c-0.2-0.1-0.4-0.1-0.7-0.1c-0.4,0-0.8,0.1-1.2,0.3c-0.3,0.2-0.6,0.4-0.9,0.7c-0.3,0.3-0.4,0.6-0.6,1
			c-0.1,0.4-0.2,0.8-0.2,1.2c0,0.4,0.1,0.7,0.2,1c0.1,0.3,0.3,0.6,0.6,0.8c0.3,0.2,0.6,0.3,1,0.3c0.4,0,0.8-0.1,1.2-0.3
			c0.4-0.2,0.7-0.5,0.9-0.9l0.7,0.2c-0.2,0.3-0.4,0.6-0.7,0.8c-0.3,0.2-0.6,0.4-1,0.6S389.9,123.6,389.5,123.6z"/>
		<path d="M394.7,117.1h0.8l-0.3,1.4c0.3-0.5,0.7-0.9,1.2-1.1c0.5-0.3,0.9-0.4,1.4-0.4c0.3,0,0.6,0.1,0.8,0.2
			c0.2,0.1,0.4,0.3,0.5,0.6s0.2,0.5,0.2,0.9c0.2-0.4,0.5-0.7,0.8-0.9c0.3-0.2,0.6-0.4,0.9-0.6c0.3-0.1,0.6-0.2,1-0.2
			c0.3,0,0.6,0.1,0.8,0.2c0.2,0.1,0.4,0.3,0.5,0.5c0.1,0.2,0.1,0.5,0.1,0.8c0,0.2,0,0.4,0,0.6c0,0.2-0.1,0.4-0.1,0.6l-0.8,3.7h-0.8
			l0.7-3.5c0.1-0.4,0.1-0.7,0.1-1c0-0.4-0.1-0.7-0.2-0.9c-0.2-0.2-0.4-0.3-0.7-0.3c-0.3,0-0.6,0.1-0.9,0.2c-0.3,0.2-0.6,0.4-0.8,0.6
			c-0.3,0.3-0.5,0.6-0.6,1l-0.8,3.9h-0.8l0.7-3.5c0-0.2,0.1-0.4,0.1-0.5s0-0.3,0-0.5c0-0.4-0.1-0.7-0.2-0.9
			c-0.2-0.2-0.4-0.3-0.7-0.3c-0.4,0-0.9,0.2-1.3,0.5c-0.4,0.3-0.8,0.8-1,1.3l-0.8,3.9h-0.8L394.7,117.1z"/>
		<path d="M406.8,123.6c-0.5,0-1-0.1-1.3-0.4s-0.6-0.6-0.8-1c-0.2-0.4-0.3-0.9-0.3-1.4c0-0.5,0.1-1,0.3-1.4c0.2-0.5,0.4-0.9,0.8-1.2
			s0.7-0.7,1.2-0.9c0.5-0.2,1-0.3,1.5-0.3c0.4,0,0.8,0.1,1.1,0.2c0.3,0.1,0.6,0.3,0.8,0.6c0.2,0.3,0.3,0.6,0.3,0.9
			c0,0.6-0.3,1.1-0.8,1.4c-0.6,0.3-1.4,0.5-2.6,0.5c-0.3,0-0.5,0-0.8,0c-0.3,0-0.7,0-1-0.1l0.1-0.6c0.4,0,0.7,0,1,0.1
			c0.3,0,0.5,0,0.8,0c0.7,0,1.2-0.1,1.5-0.2c0.4-0.1,0.6-0.2,0.8-0.4c0.2-0.2,0.2-0.4,0.2-0.7c0-0.2-0.1-0.5-0.2-0.6
			c-0.1-0.2-0.3-0.3-0.5-0.3c-0.2-0.1-0.4-0.1-0.7-0.1c-0.4,0-0.8,0.1-1.2,0.3c-0.3,0.2-0.6,0.4-0.9,0.7c-0.3,0.3-0.4,0.6-0.6,1
			c-0.1,0.4-0.2,0.8-0.2,1.2c0,0.4,0.1,0.7,0.2,1c0.1,0.3,0.3,0.6,0.6,0.8c0.3,0.2,0.6,0.3,1,0.3c0.4,0,0.8-0.1,1.2-0.3
			c0.4-0.2,0.7-0.5,0.9-0.9l0.7,0.2c-0.2,0.3-0.4,0.6-0.7,0.8c-0.3,0.2-0.6,0.4-1,0.6S407.2,123.6,406.8,123.6z"/>
		<path d="M412,117.1h0.8l-0.3,1.4c0.2-0.3,0.5-0.6,0.8-0.8s0.7-0.4,1-0.5c0.4-0.1,0.7-0.2,1.1-0.2c0.3,0,0.6,0.1,0.8,0.2
			c0.2,0.1,0.3,0.3,0.4,0.5c0.1,0.2,0.1,0.5,0.1,0.8c0,0.2,0,0.4,0,0.6s-0.1,0.4-0.1,0.6l-0.8,3.7H415l0.8-3.5
			c0-0.2,0.1-0.4,0.1-0.6c0-0.2,0-0.3,0-0.5c0-0.4-0.1-0.7-0.2-0.8c-0.2-0.2-0.4-0.3-0.7-0.3c-0.3,0-0.6,0.1-0.9,0.2
			c-0.3,0.2-0.6,0.4-0.9,0.6c-0.3,0.3-0.5,0.6-0.7,0.9l-0.8,3.9h-0.8L412,117.1z"/>
		<path d="M418,122.7c0,0,0-0.1,0-0.2s0-0.1,0-0.2l1-4.6h-0.8l0.1-0.7h0.8l0.5-2.2h0.8l-0.5,2.2h1.4l-0.1,0.7h-1.4L419,122
			c0,0.1,0,0.2,0,0.2c0,0,0,0.1,0,0.1c0,0.2,0.1,0.3,0.2,0.4c0.1,0.1,0.3,0.1,0.4,0.1c0.2,0,0.3,0,0.4-0.1s0.2-0.1,0.3-0.1
			c0.1,0,0.2-0.1,0.2-0.1l0.1,0.7c-0.1,0-0.2,0.1-0.3,0.2s-0.3,0.1-0.5,0.2c-0.2,0-0.4,0.1-0.6,0.1c-0.3,0-0.6-0.1-0.8-0.2
			C418.1,123.2,418,123,418,122.7z"/>
		<path d="M426.5,114.8h3.4c0.4,0,0.8,0.1,1.1,0.3c0.3,0.2,0.5,0.5,0.7,0.8s0.2,0.7,0.2,1.1c0,0.4-0.1,0.8-0.2,1.2
			c-0.2,0.4-0.4,0.7-0.7,1c-0.3,0.3-0.6,0.6-1,0.7s-0.8,0.3-1.2,0.3h-2.6l-0.7,3.2h-0.8L426.5,114.8z M429,119.5
			c0.3,0,0.6-0.1,0.8-0.2s0.5-0.3,0.7-0.6c0.2-0.2,0.3-0.5,0.4-0.8c0.1-0.3,0.2-0.6,0.2-0.9c0-0.3-0.1-0.6-0.2-0.8
			c-0.1-0.2-0.3-0.4-0.5-0.6c-0.2-0.1-0.4-0.2-0.7-0.2h-2.5l-0.8,4H429z"/>
		<path d="M433.2,117.1h0.8l-0.3,1.5c0.3-0.5,0.7-0.8,1.1-1.1s0.8-0.4,1.2-0.4c0.1,0,0.1,0,0.2,0s0.1,0,0.1,0l-0.2,0.7
			c-0.5,0-1,0.2-1.5,0.5c-0.5,0.3-0.8,0.7-1.1,1.2l-0.8,4h-0.8L433.2,117.1z"/>
		<path d="M438.7,123.6c-0.6,0-1-0.1-1.4-0.4s-0.6-0.6-0.8-1c-0.2-0.4-0.3-0.9-0.3-1.3c0-0.5,0.1-1,0.3-1.5s0.5-0.9,0.8-1.2
			c0.3-0.4,0.7-0.6,1.2-0.8c0.5-0.2,0.9-0.3,1.4-0.3c0.5,0,1,0.1,1.4,0.4c0.4,0.2,0.6,0.6,0.8,1s0.3,0.9,0.3,1.3
			c0,0.5-0.1,1-0.3,1.5c-0.2,0.5-0.5,0.9-0.8,1.2c-0.3,0.4-0.7,0.6-1.2,0.8C439.7,123.5,439.2,123.6,438.7,123.6z M438.8,122.9
			c0.3,0,0.7-0.1,1-0.2c0.3-0.1,0.6-0.4,0.9-0.6c0.3-0.3,0.5-0.6,0.6-1c0.2-0.4,0.2-0.8,0.2-1.2c0-0.4-0.1-0.7-0.2-1.1
			c-0.1-0.3-0.3-0.6-0.6-0.7c-0.3-0.2-0.6-0.3-1-0.3c-0.3,0-0.7,0.1-1,0.2c-0.3,0.2-0.6,0.4-0.9,0.7c-0.3,0.3-0.5,0.6-0.6,1
			c-0.2,0.4-0.2,0.8-0.2,1.2c0,0.4,0.1,0.7,0.2,1.1c0.1,0.3,0.3,0.6,0.6,0.7C438.1,122.8,438.5,122.9,438.8,122.9z"/>
		<path d="M441.7,125.7c-0.3,0-0.5,0-0.7-0.1s-0.4-0.2-0.5-0.4l0.5-0.6c0.1,0.1,0.2,0.2,0.4,0.2c0.1,0,0.3,0.1,0.4,0.1
			c0.2,0,0.4,0,0.5-0.1s0.4-0.2,0.5-0.4c0.1-0.2,0.2-0.4,0.3-0.6l1.4-6.7h0.8l-1.4,6.6c-0.1,0.4-0.2,0.7-0.5,1
			c-0.2,0.3-0.5,0.5-0.8,0.7C442.3,125.6,442,125.7,441.7,125.7z M445,114.6h0.8l-0.3,1.2h-0.8L445,114.6z"/>
		<path d="M448.4,123.6c-0.5,0-1-0.1-1.3-0.4s-0.6-0.6-0.8-1c-0.2-0.4-0.3-0.9-0.3-1.4c0-0.5,0.1-1,0.3-1.4c0.2-0.5,0.4-0.9,0.8-1.2
			s0.7-0.7,1.2-0.9c0.5-0.2,1-0.3,1.5-0.3c0.4,0,0.8,0.1,1.1,0.2c0.3,0.1,0.6,0.3,0.8,0.6c0.2,0.3,0.3,0.6,0.3,0.9
			c0,0.6-0.3,1.1-0.8,1.4c-0.6,0.3-1.4,0.5-2.6,0.5c-0.3,0-0.5,0-0.8,0c-0.3,0-0.7,0-1-0.1l0.1-0.6c0.4,0,0.7,0,1,0.1
			c0.3,0,0.5,0,0.8,0c0.7,0,1.2-0.1,1.5-0.2c0.4-0.1,0.6-0.2,0.8-0.4c0.2-0.2,0.2-0.4,0.2-0.7c0-0.2-0.1-0.5-0.2-0.6
			c-0.1-0.2-0.3-0.3-0.5-0.3c-0.2-0.1-0.4-0.1-0.7-0.1c-0.4,0-0.8,0.1-1.2,0.3c-0.3,0.2-0.6,0.4-0.9,0.7c-0.3,0.3-0.4,0.6-0.6,1
			c-0.1,0.4-0.2,0.8-0.2,1.2c0,0.4,0.1,0.7,0.2,1c0.1,0.3,0.3,0.6,0.6,0.8c0.3,0.2,0.6,0.3,1,0.3c0.4,0,0.8-0.1,1.2-0.3
			c0.4-0.2,0.7-0.5,0.9-0.9l0.7,0.2c-0.2,0.3-0.4,0.6-0.7,0.8c-0.3,0.2-0.6,0.4-1,0.6S448.8,123.6,448.4,123.6z"/>
		<path d="M454.9,123.6c-0.5,0-1-0.1-1.3-0.4c-0.4-0.2-0.6-0.6-0.8-1c-0.2-0.4-0.3-0.9-0.3-1.4c0-0.5,0.1-1,0.3-1.5
			c0.2-0.5,0.5-0.9,0.8-1.2c0.3-0.4,0.8-0.6,1.2-0.9s1-0.3,1.5-0.3c0.6,0,1.1,0.1,1.4,0.4c0.4,0.3,0.6,0.6,0.7,1.1l-0.9,0.3
			c-0.1-0.3-0.3-0.6-0.5-0.8c-0.2-0.2-0.5-0.3-0.9-0.3c-0.4,0-0.7,0.1-1,0.2c-0.3,0.2-0.6,0.4-0.9,0.7c-0.3,0.3-0.5,0.6-0.6,1
			s-0.2,0.8-0.2,1.2c0,0.4,0.1,0.7,0.2,1.1c0.1,0.3,0.3,0.6,0.6,0.7c0.3,0.2,0.5,0.3,0.9,0.3c0.3,0,0.5,0,0.8-0.1s0.5-0.2,0.7-0.4
			c0.2-0.2,0.4-0.3,0.5-0.5l0.8,0.2c-0.2,0.3-0.4,0.6-0.7,0.8c-0.3,0.2-0.6,0.4-1,0.6C455.7,123.5,455.3,123.6,454.9,123.6z"/>
		<path d="M459.2,122.7c0,0,0-0.1,0-0.2s0-0.1,0-0.2l1-4.6h-0.8l0.1-0.7h0.8l0.5-2.2h0.8l-0.5,2.2h1.4l-0.1,0.7H461l-0.9,4.2
			c0,0.1,0,0.2,0,0.2c0,0,0,0.1,0,0.1c0,0.2,0.1,0.3,0.2,0.4c0.1,0.1,0.3,0.1,0.4,0.1c0.2,0,0.3,0,0.4-0.1s0.2-0.1,0.3-0.1
			c0.1,0,0.2-0.1,0.2-0.1l0.1,0.7c-0.1,0-0.2,0.1-0.3,0.2s-0.3,0.1-0.5,0.2c-0.2,0-0.4,0.1-0.6,0.1c-0.3,0-0.6-0.1-0.8-0.2
			C459.3,123.2,459.2,123,459.2,122.7z"/>
		<path d="M462.6,123.5l0.3-1.2h0.7l-0.3,1.2H462.6z"/>
	</g>
</g>
<g>
	<path class="st0" d="M296.6,103.4H7.7c-3.1,0-5.7-2.5-5.7-5.7v-20c0-3.1,2.5-5.7,5.7-5.7h288.9V103.4z"/>
	<path class="st0" d="M491.5,103.4h-92V72.1h97.7v25.6C497.2,100.9,494.7,103.4,491.5,103.4z"/>
	<rect x="298.9" y="72.1" class="st0" width="98.2" height="31.3"/>
	<path class="st0" d="M296.6,69.7H7.7c-3.1,0-5.7-2.5-5.7-5.7v-20c0-3.1,2.5-5.7,5.7-5.7h288.9V69.7z"/>
	<rect x="399.5" y="38.4" class="st0" width="97.7" height="31.3"/>
	<rect x="298.9" y="38.4" class="st0" width="98.2" height="31.3"/>
	<path class="st1" d="M497.2,36.3h-97.7V5h92c3.1,0,5.7,2.5,5.7,5.7V36.3z"/>
	<path class="st1" d="M397.1,36.3h-98.2V10.6c0-3.1,2.5-5.7,5.7-5.7h92.5V36.3z"/>
	<g>
		<g>
			<path class="st2" d="M311,25.5c-0.7,0-1.3-0.1-1.9-0.4s-1.1-0.7-1.5-1.1s-0.8-1-1-1.6s-0.3-1.2-0.3-1.9c0-0.7,0.1-1.3,0.4-1.9
				c0.2-0.6,0.6-1.1,1-1.6c0.4-0.5,0.9-0.8,1.5-1.1c0.6-0.3,1.2-0.4,1.9-0.4c0.7,0,1.4,0.1,1.9,0.4c0.6,0.3,1.1,0.7,1.5,1.2
				c0.4,0.5,0.7,1,1,1.6c0.2,0.6,0.3,1.2,0.3,1.8c0,0.7-0.1,1.3-0.3,1.9c-0.2,0.6-0.6,1.1-1,1.6c-0.4,0.5-0.9,0.8-1.5,1.1
				C312.4,25.4,311.7,25.5,311,25.5z M307.9,20.5c0,0.5,0.1,0.9,0.2,1.4c0.1,0.4,0.4,0.8,0.6,1.2c0.3,0.3,0.6,0.6,1,0.8
				c0.4,0.2,0.8,0.3,1.3,0.3c0.5,0,1-0.1,1.3-0.3c0.4-0.2,0.7-0.5,1-0.8c0.3-0.3,0.5-0.7,0.6-1.2c0.1-0.4,0.2-0.9,0.2-1.3
				c0-0.5-0.1-0.9-0.2-1.4c-0.1-0.4-0.4-0.8-0.6-1.2c-0.3-0.3-0.6-0.6-1-0.8c-0.4-0.2-0.8-0.3-1.3-0.3c-0.5,0-1,0.1-1.3,0.3
				c-0.4,0.2-0.7,0.5-1,0.8c-0.3,0.3-0.5,0.7-0.6,1.2C308,19.6,307.9,20.1,307.9,20.5z"/>
			<path class="st2" d="M317.2,15.3h1.5v8.1c0,0.4,0.1,0.6,0.2,0.7c0.1,0.1,0.3,0.2,0.4,0.2c0.2,0,0.4,0,0.5-0.1
				c0.2,0,0.3-0.1,0.4-0.1l0.2,1.2c-0.2,0.1-0.5,0.2-0.8,0.2s-0.6,0.1-0.8,0.1c-0.5,0-0.9-0.1-1.2-0.4c-0.3-0.3-0.4-0.7-0.4-1.2
				V15.3z"/>
			<path class="st2" d="M321,21.9c0-0.7,0.1-1.3,0.4-1.9c0.3-0.6,0.7-1,1.2-1.4s1.1-0.5,1.7-0.5c0.6,0,1.1,0.1,1.5,0.4
				s0.8,0.6,1,1.1v-4.3h1.5v8.5c0,0.2,0,0.3,0.1,0.4c0.1,0.1,0.2,0.1,0.3,0.1v1.2c-0.3,0-0.5,0.1-0.7,0.1c-0.3,0-0.5-0.1-0.7-0.3
				c-0.2-0.2-0.3-0.4-0.3-0.6l0-0.5c-0.3,0.5-0.7,0.8-1.1,1.1c-0.5,0.3-1,0.4-1.5,0.4c-0.5,0-1-0.1-1.4-0.3
				c-0.4-0.2-0.8-0.5-1.1-0.8c-0.3-0.3-0.6-0.7-0.7-1.2C321.1,22.9,321,22.4,321,21.9z M326.9,22.9V21c-0.1-0.3-0.3-0.6-0.5-0.8
				s-0.5-0.4-0.8-0.6s-0.6-0.2-0.9-0.2c-0.3,0-0.6,0.1-0.9,0.2c-0.3,0.1-0.5,0.3-0.7,0.5c-0.2,0.2-0.3,0.5-0.4,0.8s-0.2,0.6-0.2,0.9
				c0,0.3,0.1,0.6,0.2,0.9c0.1,0.3,0.3,0.6,0.5,0.8s0.5,0.4,0.7,0.5s0.6,0.2,0.9,0.2c0.2,0,0.4,0,0.6-0.1c0.2-0.1,0.4-0.2,0.6-0.3
				c0.2-0.1,0.3-0.3,0.5-0.5C326.7,23.3,326.8,23.1,326.9,22.9z"/>
			<path class="st2" d="M334,25.5v-9.9h4.2c0.4,0,0.9,0.1,1.2,0.3c0.4,0.2,0.7,0.4,1,0.7c0.3,0.3,0.5,0.7,0.6,1
				c0.1,0.4,0.2,0.8,0.2,1.2c0,0.6-0.1,1.1-0.4,1.6c-0.2,0.5-0.6,0.9-1,1.2c-0.4,0.3-1,0.5-1.6,0.5h-2.7v3.5H334z M335.6,20.6h2.6
				c0.3,0,0.5-0.1,0.8-0.2c0.2-0.2,0.4-0.4,0.5-0.7c0.1-0.3,0.2-0.6,0.2-1c0-0.4-0.1-0.7-0.2-1s-0.3-0.5-0.6-0.6
				c-0.2-0.2-0.5-0.2-0.8-0.2h-2.5V20.6z"/>
			<path class="st2" d="M346.6,19.5c-0.6,0-1.1,0.1-1.6,0.4c-0.5,0.3-0.8,0.6-1,1.1v4.5h-1.5v-7.3h1.4v1.6c0.3-0.5,0.6-0.9,1-1.2
				c0.4-0.3,0.8-0.5,1.3-0.5c0.1,0,0.2,0,0.2,0s0.1,0,0.1,0V19.5z"/>
			<path class="st2" d="M351,25.6c-0.6,0-1.1-0.1-1.6-0.3s-0.9-0.5-1.2-0.8s-0.6-0.8-0.8-1.2c-0.2-0.4-0.3-0.9-0.3-1.4
				c0-0.5,0.1-1,0.3-1.4c0.2-0.4,0.4-0.8,0.8-1.2s0.7-0.6,1.2-0.8c0.5-0.2,1-0.3,1.5-0.3c0.6,0,1.1,0.1,1.5,0.3
				c0.5,0.2,0.8,0.5,1.2,0.8c0.3,0.4,0.6,0.8,0.8,1.2c0.2,0.4,0.3,0.9,0.3,1.4c0,0.5-0.1,1-0.3,1.4c-0.2,0.4-0.4,0.8-0.8,1.2
				s-0.7,0.6-1.2,0.8S351.6,25.6,351,25.6z M348.9,21.9c0,0.5,0.1,0.9,0.3,1.3c0.2,0.4,0.5,0.7,0.8,0.9s0.7,0.3,1.1,0.3
				c0.4,0,0.8-0.1,1.1-0.3c0.3-0.2,0.6-0.5,0.8-0.9s0.3-0.8,0.3-1.2c0-0.5-0.1-0.9-0.3-1.2c-0.2-0.4-0.5-0.7-0.8-0.9
				c-0.3-0.2-0.7-0.3-1.1-0.3c-0.4,0-0.8,0.1-1.1,0.3s-0.6,0.5-0.8,0.9S348.9,21.4,348.9,21.9z"/>
			<path class="st2" d="M360.3,25.1c-0.1,0.1-0.3,0.1-0.5,0.2c-0.2,0.1-0.4,0.1-0.7,0.2c-0.2,0.1-0.5,0.1-0.8,0.1
				c-0.3,0-0.6-0.1-0.9-0.2c-0.3-0.1-0.5-0.3-0.7-0.5s-0.2-0.6-0.2-0.9v-4.6h-1v-1.2h1v-2.4h1.5v2.4h1.6v1.2h-1.6v4.1
				c0,0.3,0.1,0.4,0.2,0.6s0.3,0.2,0.5,0.2c0.2,0,0.4,0,0.6-0.1c0.2-0.1,0.3-0.1,0.4-0.2L360.3,25.1z"/>
			<path class="st2" d="M364.6,25.6c-0.6,0-1.1-0.1-1.6-0.3s-0.9-0.5-1.2-0.8s-0.6-0.8-0.8-1.2c-0.2-0.4-0.3-0.9-0.3-1.4
				c0-0.5,0.1-1,0.3-1.4c0.2-0.4,0.4-0.8,0.8-1.2s0.7-0.6,1.2-0.8c0.5-0.2,1-0.3,1.5-0.3c0.6,0,1.1,0.1,1.5,0.3
				c0.5,0.2,0.8,0.5,1.2,0.8c0.3,0.4,0.6,0.8,0.8,1.2c0.2,0.4,0.3,0.9,0.3,1.4c0,0.5-0.1,1-0.3,1.4c-0.2,0.4-0.4,0.8-0.8,1.2
				s-0.7,0.6-1.2,0.8S365.2,25.6,364.6,25.6z M362.4,21.9c0,0.5,0.1,0.9,0.3,1.3c0.2,0.4,0.5,0.7,0.8,0.9s0.7,0.3,1.1,0.3
				c0.4,0,0.8-0.1,1.1-0.3c0.3-0.2,0.6-0.5,0.8-0.9s0.3-0.8,0.3-1.2c0-0.5-0.1-0.9-0.3-1.2c-0.2-0.4-0.5-0.7-0.8-0.9
				c-0.3-0.2-0.7-0.3-1.1-0.3c-0.4,0-0.8,0.1-1.1,0.3s-0.6,0.5-0.8,0.9S362.4,21.4,362.4,21.9z"/>
			<path class="st2" d="M373.1,25.6c-0.6,0-1.1-0.1-1.5-0.3c-0.5-0.2-0.9-0.5-1.2-0.8c-0.3-0.4-0.6-0.8-0.8-1.2
				c-0.2-0.5-0.3-0.9-0.3-1.4c0-0.7,0.2-1.3,0.5-1.9s0.7-1,1.3-1.4s1.2-0.5,2-0.5c0.7,0,1.4,0.2,2,0.5s1,0.8,1.2,1.3l-1.5,0.5
				c-0.2-0.3-0.4-0.5-0.7-0.7c-0.3-0.2-0.6-0.3-1-0.3c-0.4,0-0.8,0.1-1.1,0.3c-0.3,0.2-0.6,0.5-0.8,0.9s-0.3,0.8-0.3,1.3
				c0,0.5,0.1,0.9,0.3,1.3s0.5,0.7,0.8,0.9c0.3,0.2,0.7,0.3,1.1,0.3c0.3,0,0.5,0,0.7-0.1c0.2-0.1,0.4-0.2,0.6-0.4s0.3-0.3,0.4-0.5
				l1.5,0.5c-0.2,0.4-0.4,0.7-0.7,1s-0.7,0.5-1.1,0.7C374,25.5,373.6,25.6,373.1,25.6z"/>
			<path class="st2" d="M380.8,25.6c-0.6,0-1.1-0.1-1.6-0.3s-0.9-0.5-1.2-0.8s-0.6-0.8-0.8-1.2c-0.2-0.4-0.3-0.9-0.3-1.4
				c0-0.5,0.1-1,0.3-1.4c0.2-0.4,0.4-0.8,0.8-1.2s0.7-0.6,1.2-0.8c0.5-0.2,1-0.3,1.5-0.3c0.6,0,1.1,0.1,1.5,0.3
				c0.5,0.2,0.8,0.5,1.2,0.8c0.3,0.4,0.6,0.8,0.8,1.2c0.2,0.4,0.3,0.9,0.3,1.4c0,0.5-0.1,1-0.3,1.4c-0.2,0.4-0.4,0.8-0.8,1.2
				s-0.7,0.6-1.2,0.8S381.4,25.6,380.8,25.6z M378.7,21.9c0,0.5,0.1,0.9,0.3,1.3c0.2,0.4,0.5,0.7,0.8,0.9s0.7,0.3,1.1,0.3
				c0.4,0,0.8-0.1,1.1-0.3c0.3-0.2,0.6-0.5,0.8-0.9s0.3-0.8,0.3-1.2c0-0.5-0.1-0.9-0.3-1.2c-0.2-0.4-0.5-0.7-0.8-0.9
				c-0.3-0.2-0.7-0.3-1.1-0.3c-0.4,0-0.8,0.1-1.1,0.3s-0.6,0.5-0.8,0.9S378.7,21.4,378.7,21.9z"/>
			<path class="st2" d="M386,15.3h1.5v8.1c0,0.4,0.1,0.6,0.2,0.7c0.1,0.1,0.3,0.2,0.4,0.2c0.2,0,0.4,0,0.5-0.1
				c0.2,0,0.3-0.1,0.4-0.1l0.2,1.2c-0.2,0.1-0.5,0.2-0.8,0.2s-0.6,0.1-0.8,0.1c-0.5,0-0.9-0.1-1.2-0.4c-0.3-0.3-0.4-0.7-0.4-1.2
				V15.3z"/>
			<path d="M345.9,56.3c0,0.6-0.2,1.1-0.5,1.5c-0.3,0.4-0.7,0.8-1.3,1c-0.5,0.2-1.1,0.4-1.7,0.4c-0.7,0-1.2-0.1-1.8-0.4
				c-0.5-0.3-0.9-0.6-1.2-1.1c-0.3-0.4-0.4-0.9-0.4-1.5c0-0.4,0.1-0.8,0.3-1.1c0.2-0.3,0.5-0.6,0.8-0.9c0.3-0.2,0.6-0.4,0.9-0.5
				c-0.3-0.1-0.6-0.3-0.8-0.5c-0.3-0.2-0.5-0.4-0.6-0.7c-0.1-0.3-0.2-0.6-0.2-0.9c0-0.4,0.1-0.8,0.3-1.1c0.2-0.3,0.4-0.6,0.7-0.8
				c0.3-0.2,0.6-0.4,1-0.5c0.4-0.1,0.7-0.2,1.1-0.2c0.4,0,0.7,0.1,1.1,0.2s0.7,0.3,1,0.5c0.3,0.2,0.5,0.5,0.7,0.8
				c0.2,0.3,0.3,0.7,0.3,1.1c0,0.3-0.1,0.6-0.2,0.9c-0.2,0.3-0.4,0.5-0.6,0.7c-0.3,0.2-0.5,0.4-0.8,0.5c0.4,0.1,0.7,0.3,1,0.6
				c0.3,0.2,0.5,0.5,0.7,0.9C345.8,55.5,345.9,55.9,345.9,56.3z M344.9,56.2c0-0.3-0.1-0.6-0.2-0.9s-0.3-0.5-0.6-0.7
				c-0.2-0.2-0.5-0.3-0.8-0.4c-0.3-0.1-0.6-0.1-0.9-0.1c-0.4,0-0.8,0.1-1.2,0.3s-0.7,0.4-0.9,0.7c-0.2,0.3-0.4,0.7-0.4,1.1
				c0,0.3,0.1,0.6,0.2,0.9c0.1,0.3,0.3,0.5,0.6,0.7c0.2,0.2,0.5,0.3,0.8,0.4c0.3,0.1,0.6,0.1,0.9,0.1c0.4,0,0.8-0.1,1.2-0.3
				s0.7-0.4,0.9-0.7C344.8,57,344.9,56.7,344.9,56.2z M340.3,51.7c0,0.4,0.1,0.7,0.3,0.9c0.2,0.3,0.5,0.5,0.8,0.6
				c0.3,0.1,0.7,0.2,1,0.2c0.3,0,0.7-0.1,1-0.2s0.6-0.3,0.8-0.6c0.2-0.3,0.3-0.6,0.3-0.9c0-0.4-0.1-0.7-0.3-0.9s-0.5-0.4-0.8-0.6
				s-0.7-0.2-1.1-0.2c-0.4,0-0.7,0.1-1,0.2c-0.3,0.1-0.6,0.3-0.8,0.6C340.4,51,340.3,51.3,340.3,51.7z"/>
			<path d="M347.5,59v-1.4h0.8V59H347.5z"/>
			<path d="M355.1,51.9h-5.4v-0.9h6.9l-5,9.8h-1.1L355.1,51.9z"/>
			<path d="M340.8,92.6c0-0.3,0-0.6,0.1-1c0.1-0.3,0.2-0.6,0.3-1c0.2-0.3,0.4-0.6,0.7-0.9c0.3-0.3,0.7-0.6,1.2-0.8
				c0.3-0.1,0.6-0.3,0.8-0.4s0.6-0.3,0.8-0.5s0.5-0.4,0.6-0.6c0.2-0.2,0.2-0.5,0.2-0.8c0-0.2-0.1-0.5-0.2-0.7
				c-0.1-0.2-0.3-0.4-0.6-0.6c-0.3-0.1-0.6-0.2-1-0.2c-0.3,0-0.6,0-0.8,0.1c-0.2,0.1-0.5,0.2-0.6,0.3s-0.3,0.3-0.5,0.4
				c-0.1,0.1-0.2,0.2-0.3,0.3l-0.6-0.7c0-0.1,0.2-0.2,0.3-0.3c0.2-0.1,0.4-0.3,0.6-0.5s0.6-0.3,0.9-0.4c0.4-0.1,0.7-0.2,1.2-0.2
				c0.6,0,1.1,0.1,1.5,0.3c0.4,0.2,0.7,0.5,0.9,0.8s0.3,0.7,0.3,1.1c0,0.4-0.1,0.7-0.2,1s-0.4,0.5-0.6,0.7s-0.5,0.4-0.8,0.5
				c-0.3,0.1-0.5,0.3-0.7,0.4c-0.4,0.2-0.8,0.4-1.1,0.6c-0.3,0.2-0.5,0.4-0.7,0.6c-0.2,0.2-0.3,0.4-0.4,0.6
				c-0.1,0.2-0.2,0.4-0.2,0.6h5v0.9H340.8z"/>
			<path d="M352.2,89.2c0.4,0.1,0.8,0.2,1.1,0.5c0.3,0.2,0.5,0.5,0.7,0.9c0.2,0.4,0.3,0.8,0.3,1.2c0,0.6-0.1,1.1-0.4,1.5
				c-0.3,0.4-0.6,0.8-1.1,1s-1,0.4-1.7,0.4c-0.7,0-1.3-0.1-1.9-0.4c-0.5-0.3-0.9-0.7-1.2-1.2l0.7-0.6c0.2,0.4,0.5,0.7,0.9,1
				c0.4,0.2,0.9,0.4,1.5,0.4c0.7,0,1.2-0.2,1.6-0.5c0.4-0.3,0.6-0.8,0.6-1.5s-0.2-1.2-0.6-1.6c-0.4-0.4-1-0.6-1.8-0.6h-0.3v-0.8h0.4
				c0.7,0,1.3-0.2,1.7-0.5c0.4-0.3,0.6-0.8,0.6-1.3c0-0.4-0.1-0.7-0.3-1c-0.2-0.3-0.4-0.5-0.7-0.6c-0.3-0.1-0.7-0.2-1-0.2
				c-0.5,0-1,0.1-1.4,0.4c-0.4,0.2-0.7,0.6-0.9,1l-0.6-0.6c0.2-0.3,0.4-0.6,0.7-0.9c0.3-0.2,0.6-0.4,1-0.6c0.4-0.1,0.8-0.2,1.3-0.2
				c0.6,0,1.1,0.1,1.5,0.3s0.8,0.5,1,0.9s0.4,0.8,0.4,1.3c0,0.4-0.1,0.7-0.2,1.1c-0.1,0.3-0.4,0.6-0.6,0.8
				C352.9,89,352.6,89.2,352.2,89.2z"/>
		</g>
	</g>
	<g>
		<g>
			<path class="st2" d="M415.6,16.9h-3.3v8.5h-1.6v-8.5h-3.3v-1.4h8.2V16.9z"/>
			<path class="st2" d="M423.3,25.5h-1.5v-4.1c0-0.7-0.1-1.1-0.4-1.5s-0.6-0.5-1-0.5c-0.3,0-0.6,0.1-0.8,0.2
				c-0.3,0.1-0.5,0.3-0.8,0.6c-0.2,0.3-0.4,0.5-0.5,0.9v4.3h-1.5V15.3h1.5v4.4c0.3-0.5,0.7-0.9,1.1-1.2c0.5-0.3,1-0.4,1.6-0.4
				c0.5,0,0.8,0.1,1.1,0.2c0.3,0.2,0.5,0.4,0.7,0.6s0.3,0.6,0.4,0.9c0.1,0.4,0.1,0.7,0.1,1.1V25.5z"/>
			<path class="st2" d="M428.4,25.6c-0.6,0-1.1-0.1-1.6-0.3c-0.5-0.2-0.9-0.5-1.2-0.8s-0.6-0.7-0.8-1.2c-0.2-0.4-0.3-0.9-0.3-1.4
				c0-0.7,0.2-1.3,0.5-1.9c0.3-0.6,0.8-1,1.3-1.4c0.6-0.3,1.2-0.5,2-0.5c0.8,0,1.4,0.2,2,0.5s1,0.8,1.3,1.4c0.3,0.6,0.5,1.2,0.5,1.8
				c0,0.1,0,0.2,0,0.3c0,0.1,0,0.2,0,0.2h-5.9c0,0.4,0.2,0.8,0.4,1.1c0.2,0.3,0.5,0.6,0.8,0.7c0.3,0.2,0.7,0.3,1,0.3
				c0.4,0,0.8-0.1,1.2-0.3c0.4-0.2,0.6-0.5,0.7-0.8l1.3,0.4c-0.2,0.4-0.4,0.7-0.7,1s-0.7,0.5-1.1,0.7S428.9,25.6,428.4,25.6z
				 M426.2,21.3h4.4c0-0.4-0.2-0.8-0.4-1.1c-0.2-0.3-0.5-0.6-0.8-0.7c-0.3-0.2-0.7-0.3-1.1-0.3c-0.4,0-0.7,0.1-1.1,0.3
				c-0.3,0.2-0.6,0.4-0.8,0.7C426.3,20.5,426.2,20.9,426.2,21.3z"/>
			<path class="st2" d="M437.4,25.1c-0.1,0.1-0.3,0.1-0.5,0.2c-0.2,0.1-0.4,0.1-0.7,0.2c-0.2,0.1-0.5,0.1-0.8,0.1
				c-0.3,0-0.6-0.1-0.9-0.2c-0.3-0.1-0.5-0.3-0.7-0.5s-0.2-0.6-0.2-0.9v-4.6h-1v-1.2h1v-2.4h1.5v2.4h1.6v1.2h-1.6v4.1
				c0,0.3,0.1,0.4,0.2,0.6s0.3,0.2,0.5,0.2c0.2,0,0.4,0,0.6-0.1c0.2-0.1,0.3-0.1,0.4-0.2L437.4,25.1z"/>
			<path class="st2" d="M438.5,16.9v-1.7h1.5v1.7H438.5z M438.5,25.5v-7.3h1.5v7.3H438.5z"/>
			<path class="st2" d="M444.5,25.6c-0.6,0-1.2-0.1-1.7-0.3c-0.5-0.2-1-0.5-1.4-0.9l0.6-1c0.4,0.4,0.9,0.6,1.3,0.8
				c0.4,0.2,0.8,0.3,1.3,0.3c0.4,0,0.8-0.1,1.1-0.2c0.3-0.2,0.4-0.4,0.4-0.7c0-0.2-0.1-0.4-0.2-0.5c-0.1-0.1-0.4-0.2-0.6-0.3
				s-0.6-0.2-0.9-0.3c-0.5-0.2-0.9-0.3-1.3-0.5c-0.4-0.2-0.6-0.4-0.8-0.6s-0.3-0.6-0.3-1c0-0.5,0.1-0.9,0.4-1.2
				c0.2-0.3,0.6-0.6,1-0.8s0.9-0.3,1.5-0.3c0.5,0,1,0.1,1.5,0.2c0.5,0.2,0.9,0.4,1.2,0.8l-0.7,1c-0.3-0.3-0.6-0.5-1-0.6
				c-0.3-0.1-0.7-0.2-1.1-0.2c-0.2,0-0.4,0-0.6,0.1s-0.4,0.1-0.5,0.3s-0.2,0.3-0.2,0.6c0,0.2,0.1,0.4,0.2,0.5s0.3,0.2,0.5,0.3
				s0.5,0.2,0.8,0.3c0.6,0.2,1.1,0.3,1.5,0.5s0.7,0.4,0.9,0.6c0.2,0.3,0.3,0.6,0.3,1c0,0.7-0.3,1.2-0.8,1.6
				C446.1,25.4,445.4,25.6,444.5,25.6z"/>
			<path class="st2" d="M458.3,17.9c-0.1-0.1-0.2-0.2-0.4-0.3c-0.2-0.1-0.4-0.2-0.6-0.3c-0.2-0.1-0.5-0.2-0.8-0.3
				c-0.3-0.1-0.6-0.1-0.9-0.1c-0.7,0-1.1,0.1-1.5,0.4c-0.3,0.2-0.5,0.6-0.5,1c0,0.3,0.1,0.6,0.3,0.8c0.2,0.2,0.4,0.3,0.8,0.5
				c0.4,0.1,0.8,0.2,1.4,0.4c0.7,0.2,1.3,0.3,1.8,0.6c0.5,0.2,0.9,0.5,1.1,0.9c0.3,0.4,0.4,0.8,0.4,1.4c0,0.5-0.1,0.9-0.3,1.3
				s-0.5,0.7-0.8,0.9c-0.3,0.2-0.7,0.4-1.2,0.5s-0.9,0.2-1.4,0.2c-0.5,0-1-0.1-1.5-0.2c-0.5-0.1-1-0.3-1.4-0.5
				c-0.4-0.2-0.9-0.4-1.2-0.7l0.7-1.3c0.1,0.1,0.3,0.3,0.5,0.4c0.2,0.1,0.5,0.3,0.8,0.4c0.3,0.1,0.6,0.2,1,0.3
				c0.4,0.1,0.7,0.1,1.1,0.1c0.6,0,1.1-0.1,1.4-0.3s0.5-0.5,0.5-1c0-0.3-0.1-0.6-0.3-0.8c-0.2-0.2-0.5-0.4-0.9-0.5s-0.9-0.3-1.5-0.4
				c-0.7-0.2-1.2-0.4-1.6-0.6c-0.4-0.2-0.8-0.5-1-0.8S452,19,452,18.5c0-0.7,0.2-1.2,0.5-1.7c0.3-0.5,0.7-0.8,1.3-1
				c0.5-0.2,1.2-0.3,1.8-0.3c0.4,0,0.9,0,1.3,0.1c0.4,0.1,0.8,0.2,1.1,0.4c0.4,0.2,0.7,0.4,0.9,0.6L458.3,17.9z"/>
			<path class="st2" d="M464.9,25.6c-0.6,0-1.1-0.1-1.6-0.4c-0.4-0.3-0.8-0.6-1.1-1.1v4.3h-1.5V18.2h1.4v1.3c0.3-0.4,0.6-0.8,1.1-1
				c0.4-0.3,0.9-0.4,1.5-0.4c0.5,0,1,0.1,1.4,0.3c0.4,0.2,0.8,0.5,1.1,0.8s0.5,0.8,0.7,1.2c0.2,0.4,0.3,0.9,0.3,1.4
				c0,0.7-0.1,1.3-0.4,1.9s-0.7,1-1.1,1.4C466.1,25.4,465.5,25.6,464.9,25.6z M464.4,24.3c0.3,0,0.6-0.1,0.9-0.2
				c0.3-0.1,0.5-0.3,0.7-0.6s0.3-0.5,0.4-0.8s0.2-0.6,0.2-0.9c0-0.3-0.1-0.7-0.2-0.9c-0.1-0.3-0.3-0.5-0.5-0.8s-0.5-0.4-0.7-0.5
				c-0.3-0.1-0.6-0.2-0.9-0.2c-0.2,0-0.4,0-0.6,0.1c-0.2,0.1-0.4,0.2-0.6,0.3c-0.2,0.1-0.4,0.3-0.5,0.4c-0.1,0.2-0.2,0.4-0.3,0.6
				v1.9c0.1,0.3,0.3,0.6,0.5,0.8c0.2,0.2,0.5,0.4,0.7,0.6C463.8,24.2,464.1,24.3,464.4,24.3z"/>
			<path class="st2" d="M469.6,15.3h1.5v8.1c0,0.4,0.1,0.6,0.2,0.7c0.1,0.1,0.3,0.2,0.4,0.2c0.2,0,0.4,0,0.5-0.1
				c0.2,0,0.3-0.1,0.4-0.1l0.2,1.2c-0.2,0.1-0.5,0.2-0.8,0.2s-0.6,0.1-0.8,0.1c-0.5,0-0.9-0.1-1.2-0.4c-0.3-0.3-0.4-0.7-0.4-1.2
				V15.3z"/>
			<path class="st2" d="M473.8,16.9v-1.7h1.5v1.7H473.8z M473.8,25.5v-7.3h1.5v7.3H473.8z"/>
			<path class="st2" d="M483.7,25.5h-1.5v-4.1c0-0.7-0.1-1.2-0.3-1.5c-0.2-0.3-0.6-0.5-1-0.5c-0.3,0-0.6,0.1-0.9,0.2
				c-0.3,0.2-0.6,0.4-0.8,0.6s-0.4,0.5-0.5,0.9v4.3h-1.5v-7.3h1.4v1.5c0.2-0.3,0.4-0.6,0.7-0.8s0.6-0.4,1-0.5
				c0.4-0.1,0.8-0.2,1.2-0.2c0.4,0,0.8,0.1,1.1,0.2c0.3,0.2,0.5,0.4,0.7,0.6s0.3,0.6,0.3,0.9c0.1,0.4,0.1,0.7,0.1,1.1V25.5z"/>
			<path class="st2" d="M489.6,25.1c-0.1,0.1-0.3,0.1-0.5,0.2c-0.2,0.1-0.4,0.1-0.7,0.2c-0.2,0.1-0.5,0.1-0.8,0.1
				c-0.3,0-0.6-0.1-0.9-0.2c-0.3-0.1-0.5-0.3-0.7-0.5s-0.2-0.6-0.2-0.9v-4.6h-1v-1.2h1v-2.4h1.5v2.4h1.6v1.2h-1.6v4.1
				c0,0.3,0.1,0.4,0.2,0.6s0.3,0.2,0.5,0.2c0.2,0,0.4,0,0.6-0.1c0.2-0.1,0.3-0.1,0.4-0.2L489.6,25.1z"/>
			<path d="M440,59c0-0.3,0-0.6,0.1-1c0.1-0.3,0.2-0.6,0.3-1c0.2-0.3,0.4-0.6,0.7-0.9s0.7-0.6,1.2-0.8c0.3-0.1,0.6-0.3,0.8-0.4
				c0.3-0.1,0.6-0.3,0.8-0.5c0.3-0.2,0.5-0.4,0.6-0.6c0.2-0.2,0.2-0.5,0.2-0.8c0-0.2-0.1-0.5-0.2-0.7c-0.1-0.2-0.3-0.4-0.6-0.6
				c-0.3-0.1-0.6-0.2-1-0.2c-0.3,0-0.6,0-0.8,0.1c-0.2,0.1-0.5,0.2-0.6,0.3c-0.2,0.1-0.3,0.3-0.5,0.4c-0.1,0.1-0.2,0.2-0.3,0.3
				l-0.6-0.7c0-0.1,0.2-0.2,0.3-0.3c0.2-0.1,0.4-0.3,0.6-0.5s0.6-0.3,0.9-0.4c0.4-0.1,0.7-0.2,1.2-0.2c0.6,0,1.1,0.1,1.5,0.3
				c0.4,0.2,0.7,0.5,0.9,0.8s0.3,0.7,0.3,1.1c0,0.4-0.1,0.7-0.2,1s-0.4,0.5-0.6,0.7s-0.5,0.4-0.8,0.5c-0.3,0.1-0.5,0.3-0.7,0.4
				c-0.4,0.2-0.8,0.4-1.1,0.6c-0.3,0.2-0.5,0.4-0.7,0.6c-0.2,0.2-0.3,0.4-0.4,0.6c-0.1,0.2-0.2,0.4-0.2,0.6h5V59H440z"/>
			<path d="M447.6,59v-1.4h0.8V59H447.6z"/>
			<path d="M450.3,52.5c0.3-0.5,0.7-0.9,1.3-1.3s1.1-0.5,1.8-0.5c0.7,0,1.3,0.2,1.9,0.5c0.5,0.3,1,0.8,1.3,1.5s0.5,1.4,0.5,2.3
				c0,1.4-0.2,2.5-0.5,3.4s-0.7,1.6-1.3,2c-0.6,0.4-1.2,0.7-1.9,0.7c-0.7,0-1.2-0.2-1.8-0.5c-0.5-0.3-0.9-0.8-1.2-1.4l0.6-0.6
				c0.2,0.5,0.5,0.8,0.9,1.1c0.4,0.3,0.9,0.4,1.4,0.4c0.6,0,1-0.2,1.4-0.5c0.4-0.4,0.7-0.9,1-1.5s0.3-1.4,0.4-2.4
				c-0.1,0.4-0.3,0.7-0.6,0.9c-0.3,0.3-0.6,0.5-1,0.6c-0.4,0.1-0.8,0.2-1.2,0.2c-0.6,0-1.2-0.2-1.7-0.5s-0.9-0.7-1.2-1.2
				c-0.3-0.5-0.5-1.1-0.5-1.7C449.8,53.7,450,53.1,450.3,52.5z M452,52c-0.4,0.2-0.7,0.6-0.9,1c-0.2,0.4-0.4,0.8-0.4,1.3
				c0,0.5,0.1,0.9,0.4,1.3c0.2,0.4,0.6,0.7,1,1c0.4,0.2,0.8,0.4,1.3,0.4c0.5,0,0.9-0.1,1.3-0.4c0.4-0.2,0.7-0.6,0.9-1
				c0.2-0.4,0.3-0.8,0.3-1.3s-0.1-0.9-0.3-1.3c-0.2-0.4-0.5-0.7-0.9-1c-0.4-0.2-0.8-0.4-1.3-0.4C452.8,51.7,452.4,51.8,452,52z"/>
			<path d="M451.6,91.1c-0.3,0.5-0.7,0.9-1.3,1.2c-0.5,0.3-1.1,0.5-1.8,0.5c-0.7,0-1.3-0.2-1.8-0.5s-1-0.8-1.3-1.4
				c-0.3-0.6-0.5-1.4-0.5-2.2c0-1.4,0.2-2.5,0.5-3.4c0.3-0.9,0.7-1.5,1.3-2c0.5-0.4,1.2-0.7,1.9-0.7c0.7,0,1.3,0.2,1.8,0.5
				c0.5,0.3,0.9,0.8,1.2,1.3L451,85c-0.2-0.5-0.5-0.9-0.9-1.1c-0.4-0.3-0.9-0.4-1.4-0.4c-0.5,0-1,0.2-1.4,0.5
				c-0.4,0.3-0.7,0.8-1,1.5s-0.3,1.4-0.3,2.3c0.1-0.4,0.3-0.7,0.6-1s0.6-0.5,1-0.6s0.8-0.2,1.2-0.2c0.6,0,1.2,0.1,1.7,0.4
				c0.5,0.3,0.9,0.7,1.2,1.2c0.3,0.5,0.5,1.1,0.5,1.7S451.9,90.5,451.6,91.1z M449.8,91.6c0.4-0.2,0.7-0.5,0.9-0.9
				c0.2-0.4,0.4-0.8,0.4-1.3c0-0.5-0.1-0.9-0.4-1.3c-0.2-0.4-0.6-0.7-0.9-0.9c-0.4-0.2-0.8-0.3-1.3-0.3c-0.5,0-0.9,0.1-1.3,0.3
				s-0.7,0.5-0.9,0.9s-0.3,0.8-0.3,1.3c0,0.5,0.1,0.9,0.4,1.3c0.2,0.4,0.6,0.7,0.9,0.9c0.4,0.2,0.8,0.4,1.3,0.4
				C449,91.9,449.4,91.8,449.8,91.6z"/>
		</g>
	</g>
	<g>
		<g>
			<path d="M19.1,58.3v-8.1l-3.6,6.3h-0.6l-3.6-6.3v8.1h-1v-9.9h1l3.9,6.8l3.9-6.8h1v9.9H19.1z"/>
			<path d="M25.5,58.4c-0.5,0-1-0.1-1.5-0.3c-0.4-0.2-0.8-0.5-1.2-0.8c-0.3-0.3-0.6-0.8-0.8-1.2c-0.2-0.5-0.3-0.9-0.3-1.5
				c0-0.7,0.2-1.3,0.5-1.9c0.3-0.6,0.7-1,1.3-1.4s1.2-0.5,1.9-0.5c0.7,0,1.3,0.2,1.9,0.5s1,0.8,1.3,1.4c0.3,0.6,0.5,1.2,0.5,1.8
				c0,0.1,0,0.1,0,0.2c0,0.1,0,0.1,0,0.2h-6.2c0,0.5,0.2,1,0.4,1.4c0.2,0.4,0.6,0.7,1,1s0.8,0.4,1.3,0.4c0.5,0,0.9-0.1,1.4-0.4
				s0.7-0.6,0.9-1l0.8,0.2c-0.1,0.3-0.4,0.7-0.7,0.9c-0.3,0.3-0.7,0.5-1.1,0.7C26.4,58.4,26,58.4,25.5,58.4z M22.8,54.3h5.4
				c0-0.5-0.2-1-0.4-1.4s-0.6-0.7-1-0.9s-0.8-0.3-1.3-0.3s-0.9,0.1-1.3,0.3s-0.7,0.5-1,0.9S22.9,53.8,22.8,54.3z"/>
			<path d="M30,56.2c0-0.5,0.1-0.8,0.4-1.2c0.3-0.3,0.6-0.6,1.1-0.8c0.5-0.2,1-0.3,1.6-0.3c0.4,0,0.7,0,1.1,0.1s0.7,0.1,1,0.3v-0.6
				c0-0.6-0.2-1.1-0.5-1.5c-0.4-0.4-0.9-0.5-1.5-0.5c-0.4,0-0.8,0.1-1.2,0.2c-0.4,0.1-0.8,0.4-1.2,0.6l-0.4-0.7
				c0.5-0.3,0.9-0.6,1.4-0.7c0.5-0.2,0.9-0.2,1.4-0.2c0.9,0,1.6,0.3,2.1,0.8c0.5,0.5,0.8,1.2,0.8,2.1v3.4c0,0.1,0,0.2,0.1,0.3
				c0.1,0.1,0.1,0.1,0.3,0.1v0.8c-0.1,0-0.2,0-0.3,0s-0.1,0-0.2,0c-0.2,0-0.4-0.1-0.5-0.2c-0.1-0.1-0.2-0.3-0.2-0.4l0-0.5
				c-0.3,0.4-0.8,0.7-1.3,1c-0.5,0.2-1.1,0.3-1.6,0.3c-0.5,0-0.9-0.1-1.3-0.3c-0.4-0.2-0.7-0.5-0.9-0.8C30.1,57,30,56.6,30,56.2z
				 M34.9,56.8c0.1-0.1,0.2-0.3,0.2-0.4c0.1-0.1,0.1-0.2,0.1-0.3V55c-0.3-0.1-0.6-0.2-1-0.3c-0.3-0.1-0.7-0.1-1-0.1
				c-0.7,0-1.2,0.1-1.7,0.4c-0.4,0.3-0.6,0.6-0.6,1.1c0,0.3,0.1,0.5,0.2,0.8c0.1,0.2,0.3,0.4,0.6,0.6c0.3,0.2,0.6,0.2,1,0.2
				c0.5,0,0.9-0.1,1.3-0.3C34.3,57.3,34.7,57,34.9,56.8z"/>
			<path d="M44.3,58.3h-1v-4c0-0.9-0.1-1.5-0.4-1.9c-0.3-0.4-0.6-0.6-1.2-0.6c-0.4,0-0.7,0.1-1.1,0.3c-0.4,0.2-0.7,0.4-1,0.7
				c-0.3,0.3-0.5,0.7-0.6,1.1v4.4h-1V51h0.9v1.7c0.2-0.4,0.5-0.7,0.8-0.9c0.3-0.3,0.7-0.5,1.1-0.6s0.8-0.2,1.2-0.2
				c0.4,0,0.7,0.1,1,0.2s0.5,0.4,0.7,0.6c0.2,0.3,0.3,0.6,0.4,1c0.1,0.4,0.1,0.8,0.1,1.3V58.3z"/>
			<path d="M49.4,54.7c0-0.7,0.1-1.3,0.4-1.9c0.3-0.6,0.7-1,1.2-1.4c0.5-0.3,1.1-0.5,1.7-0.5c0.6,0,1.1,0.2,1.6,0.5
				c0.5,0.3,0.9,0.7,1.1,1.2v-4.5h1v9.1c0,0.1,0,0.2,0.1,0.3c0.1,0.1,0.1,0.1,0.3,0.1v0.8c-0.2,0-0.3,0-0.4,0
				c-0.2,0-0.4-0.1-0.5-0.2c-0.1-0.1-0.2-0.3-0.2-0.5v-0.7c-0.3,0.5-0.7,0.9-1.2,1.1c-0.5,0.3-1,0.4-1.5,0.4c-0.5,0-1-0.1-1.4-0.3
				c-0.4-0.2-0.8-0.5-1.1-0.8c-0.3-0.4-0.6-0.8-0.7-1.2C49.5,55.6,49.4,55.2,49.4,54.7z M55.5,55.8v-2.2c-0.1-0.3-0.3-0.6-0.6-0.9
				S54.4,52.2,54,52s-0.7-0.2-1-0.2c-0.4,0-0.7,0.1-1.1,0.2c-0.3,0.2-0.6,0.4-0.8,0.7c-0.2,0.3-0.4,0.6-0.5,0.9
				c-0.1,0.4-0.2,0.7-0.2,1.1c0,0.4,0.1,0.8,0.2,1.1s0.3,0.7,0.6,0.9c0.3,0.3,0.5,0.5,0.9,0.6c0.3,0.1,0.7,0.2,1.1,0.2
				c0.2,0,0.5,0,0.8-0.1s0.5-0.2,0.7-0.4s0.4-0.4,0.6-0.6C55.4,56.3,55.5,56,55.5,55.8z"/>
			<path d="M58,56.2c0-0.5,0.1-0.8,0.4-1.2c0.3-0.3,0.6-0.6,1.1-0.8c0.5-0.2,1-0.3,1.6-0.3c0.4,0,0.7,0,1.1,0.1s0.7,0.1,1,0.3v-0.6
				c0-0.6-0.2-1.1-0.5-1.5c-0.4-0.4-0.9-0.5-1.5-0.5c-0.4,0-0.8,0.1-1.2,0.2c-0.4,0.1-0.8,0.4-1.2,0.6l-0.4-0.7
				c0.5-0.3,0.9-0.6,1.4-0.7c0.5-0.2,0.9-0.2,1.4-0.2c0.9,0,1.6,0.3,2.1,0.8c0.5,0.5,0.8,1.2,0.8,2.1v3.4c0,0.1,0,0.2,0.1,0.3
				c0.1,0.1,0.1,0.1,0.3,0.1v0.8c-0.1,0-0.2,0-0.3,0s-0.1,0-0.2,0c-0.2,0-0.4-0.1-0.5-0.2c-0.1-0.1-0.2-0.3-0.2-0.4l0-0.5
				c-0.3,0.4-0.8,0.7-1.3,1c-0.5,0.2-1.1,0.3-1.6,0.3c-0.5,0-0.9-0.1-1.3-0.3c-0.4-0.2-0.7-0.5-0.9-0.8C58.1,57,58,56.6,58,56.2z
				 M62.9,56.8c0.1-0.1,0.2-0.3,0.2-0.4c0.1-0.1,0.1-0.2,0.1-0.3V55c-0.3-0.1-0.6-0.2-1-0.3c-0.3-0.1-0.7-0.1-1-0.1
				c-0.7,0-1.2,0.1-1.7,0.4c-0.4,0.3-0.6,0.6-0.6,1.1c0,0.3,0.1,0.5,0.2,0.8c0.1,0.2,0.3,0.4,0.6,0.6c0.3,0.2,0.6,0.2,1,0.2
				c0.5,0,0.9-0.1,1.3-0.3C62.4,57.3,62.7,57,62.9,56.8z"/>
			<path d="M66.7,60.5c0.1,0,0.3,0,0.4,0c0.1,0,0.2,0,0.3,0c0.1,0,0.2-0.1,0.3-0.2c0.1-0.1,0.2-0.3,0.4-0.6c0.1-0.3,0.3-0.8,0.6-1.4
				L65.4,51h1l2.7,6.3l2.5-6.3h1l-3.8,9.4c-0.1,0.2-0.2,0.3-0.3,0.5c-0.1,0.2-0.3,0.3-0.5,0.4c-0.2,0.1-0.4,0.1-0.7,0.1
				c-0.1,0-0.2,0-0.3,0c-0.1,0-0.2,0-0.3,0V60.5z"/>
			<path d="M76.2,58.4c-0.6,0-1.2-0.1-1.7-0.3c-0.5-0.2-1-0.5-1.3-0.9l0.4-0.7c0.4,0.4,0.8,0.7,1.2,0.8c0.4,0.2,0.9,0.3,1.3,0.3
				c0.6,0,1-0.1,1.4-0.3c0.4-0.2,0.5-0.6,0.5-1c0-0.3-0.1-0.5-0.3-0.7c-0.2-0.2-0.4-0.3-0.7-0.4s-0.7-0.2-1.2-0.3
				c-0.5-0.1-0.9-0.3-1.3-0.4c-0.3-0.2-0.6-0.3-0.8-0.6c-0.2-0.2-0.3-0.5-0.3-0.9c0-0.5,0.1-0.9,0.4-1.2s0.6-0.5,1-0.7
				c0.4-0.2,0.9-0.2,1.4-0.2c0.6,0,1.1,0.1,1.5,0.3c0.4,0.2,0.8,0.4,1,0.7l-0.5,0.6c-0.3-0.3-0.6-0.5-0.9-0.7s-0.8-0.2-1.2-0.2
				c-0.3,0-0.6,0-0.9,0.1S75,52,74.8,52.2c-0.2,0.2-0.3,0.4-0.3,0.7c0,0.3,0.1,0.5,0.2,0.6c0.1,0.1,0.3,0.3,0.6,0.4
				c0.3,0.1,0.6,0.2,1,0.3c0.6,0.1,1,0.3,1.4,0.5c0.4,0.2,0.7,0.3,1,0.6c0.2,0.2,0.3,0.6,0.3,1c0,0.7-0.3,1.2-0.8,1.6
				C77.7,58.2,77.1,58.4,76.2,58.4z"/>
			<path d="M87.4,48.4h0.8l4.1,9.9h-1l-1.2-3.1h-4.5l-1.2,3.1h-1L87.4,48.4z M89.8,54.4l-2-4.9l-2,4.9H89.8z"/>
			<path d="M100.5,58.3l-5-5.2c-0.4-0.4-0.7-0.8-1-1.1s-0.4-0.6-0.5-0.8S94,50.7,94,50.4c0-0.4,0.1-0.8,0.3-1.1
				c0.2-0.3,0.5-0.6,0.9-0.8c0.4-0.2,0.8-0.3,1.3-0.3c0.4,0,0.8,0.1,1.2,0.2s0.6,0.4,0.8,0.7c0.2,0.3,0.3,0.6,0.3,1
				c0,0.4-0.1,0.8-0.4,1.1c-0.2,0.3-0.5,0.6-0.9,0.9c-0.4,0.3-0.8,0.6-1.3,0.8c-0.4,0.3-0.7,0.5-1.1,0.8c-0.3,0.3-0.6,0.5-0.8,0.8
				c-0.2,0.3-0.3,0.6-0.3,1c0,0.4,0.1,0.7,0.3,1c0.2,0.3,0.5,0.5,0.9,0.6s0.7,0.2,1.1,0.2c0.5,0,1-0.1,1.4-0.3
				c0.4-0.2,0.8-0.5,1.1-1c0.3-0.4,0.6-0.9,0.7-1.4c0.2-0.5,0.3-1.1,0.3-1.7h0.8c0,0.7-0.1,1.4-0.3,2c-0.2,0.6-0.5,1.2-0.9,1.6
				c-0.4,0.5-0.9,0.8-1.4,1.1c-0.5,0.3-1.1,0.4-1.7,0.4c-0.6,0-1.1-0.1-1.6-0.3s-0.9-0.5-1.2-0.9c-0.3-0.4-0.4-0.9-0.4-1.4
				c0-0.5,0.1-0.9,0.4-1.3s0.5-0.7,0.9-1c0.4-0.3,0.8-0.6,1.2-0.8c0.4-0.3,0.8-0.5,1.1-0.8s0.6-0.5,0.8-0.7c0.2-0.2,0.3-0.5,0.3-0.8
				c0-0.4-0.1-0.7-0.4-0.9c-0.3-0.2-0.6-0.3-1-0.3c-0.3,0-0.6,0.1-0.8,0.2c-0.2,0.1-0.4,0.3-0.6,0.5c-0.1,0.2-0.2,0.4-0.2,0.7
				c0,0.2,0,0.3,0.1,0.5s0.2,0.4,0.4,0.6c0.2,0.3,0.5,0.6,0.9,1l5.5,5.7H100.5z"/>
			<path d="M109.8,57.4v0.9h-6.7v-9.9h6.5v0.9h-5.6v3.6h4.9v0.8h-4.9v3.8H109.8z"/>
			<path d="M118.5,58c-0.1,0-0.2,0.1-0.4,0.2c-0.2,0.1-0.3,0.1-0.6,0.2c-0.2,0.1-0.5,0.1-0.7,0.1c-0.3,0-0.5-0.1-0.8-0.2
				s-0.4-0.3-0.6-0.5c-0.1-0.2-0.2-0.5-0.2-0.8v-5.2h-1V51h1v-2.5h1V51h1.7v0.8h-1.7v5c0,0.3,0.1,0.5,0.3,0.6
				c0.2,0.1,0.4,0.2,0.6,0.2c0.3,0,0.5,0,0.7-0.1c0.2-0.1,0.3-0.2,0.4-0.2L118.5,58z"/>
			<path d="M122.8,58.4c-0.5,0-1-0.1-1.5-0.3s-0.8-0.5-1.1-0.8s-0.6-0.7-0.7-1.2c-0.2-0.5-0.3-0.9-0.3-1.4c0-0.5,0.1-1,0.3-1.5
				c0.2-0.4,0.4-0.8,0.8-1.2c0.3-0.3,0.7-0.6,1.2-0.8c0.4-0.2,0.9-0.3,1.4-0.3s1,0.1,1.4,0.3c0.4,0.2,0.8,0.5,1.1,0.8
				c0.3,0.3,0.6,0.7,0.8,1.2c0.2,0.4,0.3,0.9,0.3,1.5c0,0.5-0.1,1-0.3,1.4c-0.2,0.4-0.4,0.8-0.7,1.2s-0.7,0.6-1.1,0.8
				S123.4,58.4,122.8,58.4z M120.2,54.7c0,0.5,0.1,1,0.4,1.5c0.2,0.4,0.6,0.8,1,1c0.4,0.3,0.8,0.4,1.3,0.4s0.9-0.1,1.3-0.4
				s0.7-0.6,1-1.1s0.4-0.9,0.4-1.5c0-0.5-0.1-1-0.4-1.5c-0.2-0.4-0.6-0.8-1-1.1s-0.8-0.4-1.3-0.4s-0.9,0.1-1.3,0.4
				c-0.4,0.3-0.7,0.6-1,1.1S120.2,54.2,120.2,54.7z"/>
			<path d="M134,58.4c-0.6,0-1.2-0.1-1.7-0.3c-0.5-0.2-1-0.5-1.3-0.9l0.4-0.7c0.4,0.4,0.8,0.7,1.2,0.8c0.4,0.2,0.9,0.3,1.3,0.3
				c0.6,0,1-0.1,1.4-0.3c0.4-0.2,0.5-0.6,0.5-1c0-0.3-0.1-0.5-0.3-0.7c-0.2-0.2-0.4-0.3-0.7-0.4s-0.7-0.2-1.2-0.3
				c-0.5-0.1-0.9-0.3-1.3-0.4c-0.3-0.2-0.6-0.3-0.8-0.6c-0.2-0.2-0.3-0.5-0.3-0.9c0-0.5,0.1-0.9,0.4-1.2s0.6-0.5,1-0.7
				c0.4-0.2,0.9-0.2,1.4-0.2c0.6,0,1.1,0.1,1.5,0.3c0.4,0.2,0.8,0.4,1,0.7l-0.5,0.6c-0.3-0.3-0.6-0.5-0.9-0.7s-0.8-0.2-1.2-0.2
				c-0.3,0-0.6,0-0.9,0.1s-0.5,0.2-0.7,0.4c-0.2,0.2-0.3,0.4-0.3,0.7c0,0.3,0.1,0.5,0.2,0.6c0.1,0.1,0.3,0.3,0.6,0.4
				c0.3,0.1,0.6,0.2,1,0.3c0.6,0.1,1,0.3,1.4,0.5c0.4,0.2,0.7,0.3,1,0.6c0.2,0.2,0.3,0.6,0.3,1c0,0.7-0.3,1.2-0.8,1.6
				C135.5,58.2,134.8,58.4,134,58.4z"/>
			<path d="M141.5,58.4c-0.5,0-1-0.1-1.5-0.3s-0.8-0.5-1.2-0.8c-0.3-0.4-0.6-0.8-0.8-1.2c-0.2-0.5-0.3-0.9-0.3-1.4
				c0-0.7,0.2-1.3,0.5-1.9c0.3-0.6,0.7-1,1.3-1.3c0.6-0.3,1.2-0.5,1.9-0.5c0.7,0,1.3,0.2,1.8,0.5s0.9,0.7,1.2,1.3l-0.9,0.3
				c-0.2-0.4-0.5-0.7-0.9-0.9c-0.4-0.2-0.8-0.3-1.2-0.3c-0.5,0-0.9,0.1-1.3,0.4c-0.4,0.2-0.7,0.6-1,1s-0.4,0.9-0.4,1.5
				c0,0.5,0.1,1,0.4,1.5c0.2,0.4,0.6,0.8,1,1.1c0.4,0.3,0.8,0.4,1.3,0.4c0.3,0,0.6-0.1,0.9-0.2c0.3-0.1,0.5-0.3,0.8-0.5
				c0.2-0.2,0.4-0.4,0.4-0.6l0.9,0.3c-0.1,0.3-0.3,0.7-0.7,0.9s-0.7,0.5-1.1,0.6S142,58.4,141.5,58.4z"/>
			<path d="M145.5,56.2c0-0.5,0.1-0.8,0.4-1.2c0.3-0.3,0.6-0.6,1.1-0.8c0.5-0.2,1-0.3,1.6-0.3c0.4,0,0.7,0,1.1,0.1s0.7,0.1,1,0.3
				v-0.6c0-0.6-0.2-1.1-0.5-1.5c-0.4-0.4-0.9-0.5-1.5-0.5c-0.4,0-0.8,0.1-1.2,0.2c-0.4,0.1-0.8,0.4-1.2,0.6l-0.4-0.7
				c0.5-0.3,0.9-0.6,1.4-0.7c0.5-0.2,0.9-0.2,1.4-0.2c0.9,0,1.6,0.3,2.1,0.8c0.5,0.5,0.8,1.2,0.8,2.1v3.4c0,0.1,0,0.2,0.1,0.3
				c0.1,0.1,0.1,0.1,0.3,0.1v0.8c-0.1,0-0.2,0-0.3,0s-0.1,0-0.2,0c-0.2,0-0.4-0.1-0.5-0.2c-0.1-0.1-0.2-0.3-0.2-0.4l0-0.5
				c-0.3,0.4-0.8,0.7-1.3,1c-0.5,0.2-1.1,0.3-1.6,0.3c-0.5,0-0.9-0.1-1.3-0.3c-0.4-0.2-0.7-0.5-0.9-0.8
				C145.6,57,145.5,56.6,145.5,56.2z M150.3,56.8c0.1-0.1,0.2-0.3,0.2-0.4c0.1-0.1,0.1-0.2,0.1-0.3V55c-0.3-0.1-0.6-0.2-1-0.3
				c-0.3-0.1-0.7-0.1-1-0.1c-0.7,0-1.2,0.1-1.7,0.4c-0.4,0.3-0.6,0.6-0.6,1.1c0,0.3,0.1,0.5,0.2,0.8c0.1,0.2,0.3,0.4,0.6,0.6
				c0.3,0.2,0.6,0.2,1,0.2c0.5,0,0.9-0.1,1.3-0.3C149.8,57.3,150.1,57,150.3,56.8z"/>
			<path d="M159.8,58.3h-1v-4c0-0.9-0.1-1.5-0.4-1.9c-0.3-0.4-0.6-0.6-1.2-0.6c-0.4,0-0.7,0.1-1.1,0.3c-0.4,0.2-0.7,0.4-1,0.7
				c-0.3,0.3-0.5,0.7-0.6,1.1v4.4h-1V51h0.9v1.7c0.2-0.4,0.5-0.7,0.8-0.9c0.3-0.3,0.7-0.5,1.1-0.6s0.8-0.2,1.2-0.2
				c0.4,0,0.7,0.1,1,0.2s0.5,0.4,0.7,0.6c0.2,0.3,0.3,0.6,0.4,1c0.1,0.4,0.1,0.8,0.1,1.3V58.3z"/>
			<path d="M168.9,58c-0.1,0-0.2,0.1-0.4,0.2c-0.2,0.1-0.3,0.1-0.6,0.2c-0.2,0.1-0.5,0.1-0.7,0.1c-0.3,0-0.5-0.1-0.8-0.2
				s-0.4-0.3-0.6-0.5c-0.1-0.2-0.2-0.5-0.2-0.8v-5.2h-1V51h1v-2.5h1V51h1.7v0.8h-1.7v5c0,0.3,0.1,0.5,0.3,0.6
				c0.2,0.1,0.4,0.2,0.6,0.2c0.3,0,0.5,0,0.7-0.1c0.2-0.1,0.3-0.2,0.4-0.2L168.9,58z"/>
			<path d="M176.2,58.3h-1v-4c0-0.8-0.1-1.4-0.4-1.8c-0.3-0.4-0.7-0.6-1.2-0.6c-0.4,0-0.7,0.1-1.1,0.3c-0.3,0.2-0.7,0.4-0.9,0.7
				c-0.3,0.3-0.5,0.7-0.6,1.1v4.4h-1V48.1h1v4.6c0.3-0.5,0.7-1,1.2-1.3c0.5-0.3,1.1-0.5,1.7-0.5c0.4,0,0.8,0.1,1.1,0.2
				c0.3,0.1,0.5,0.4,0.7,0.6c0.2,0.3,0.3,0.6,0.4,1s0.1,0.8,0.1,1.3V58.3z"/>
			<path d="M181.4,58.4c-0.5,0-1-0.1-1.5-0.3c-0.4-0.2-0.8-0.5-1.2-0.8c-0.3-0.3-0.6-0.8-0.8-1.2c-0.2-0.5-0.3-0.9-0.3-1.5
				c0-0.7,0.2-1.3,0.5-1.9c0.3-0.6,0.7-1,1.3-1.4s1.2-0.5,1.9-0.5c0.7,0,1.3,0.2,1.9,0.5s1,0.8,1.3,1.4c0.3,0.6,0.5,1.2,0.5,1.8
				c0,0.1,0,0.1,0,0.2c0,0.1,0,0.1,0,0.2h-6.2c0,0.5,0.2,1,0.4,1.4c0.2,0.4,0.6,0.7,1,1s0.8,0.4,1.3,0.4c0.5,0,0.9-0.1,1.4-0.4
				s0.7-0.6,0.9-1l0.8,0.2c-0.1,0.3-0.4,0.7-0.7,0.9c-0.3,0.3-0.7,0.5-1.1,0.7C182.3,58.4,181.9,58.4,181.4,58.4z M178.7,54.3h5.4
				c0-0.5-0.2-1-0.4-1.4s-0.6-0.7-1-0.9s-0.8-0.3-1.3-0.3s-0.9,0.1-1.3,0.3s-0.7,0.5-1,0.9S178.7,53.8,178.7,54.3z"/>
			<path d="M192.6,58.3h-1v-4c0-0.9-0.1-1.5-0.4-1.9c-0.3-0.4-0.6-0.6-1.2-0.6c-0.4,0-0.7,0.1-1.1,0.3c-0.4,0.2-0.7,0.4-1,0.7
				c-0.3,0.3-0.5,0.7-0.6,1.1v4.4h-1V51h0.9v1.7c0.2-0.4,0.5-0.7,0.8-0.9c0.3-0.3,0.7-0.5,1.1-0.6s0.8-0.2,1.2-0.2
				c0.4,0,0.7,0.1,1,0.2s0.5,0.4,0.7,0.6c0.2,0.3,0.3,0.6,0.4,1c0.1,0.4,0.1,0.8,0.1,1.3V58.3z"/>
			<path d="M200.6,58.4c-0.6,0-1.2-0.1-1.7-0.3c-0.5-0.2-1-0.5-1.3-0.9l0.4-0.7c0.4,0.4,0.8,0.7,1.2,0.8c0.4,0.2,0.9,0.3,1.3,0.3
				c0.6,0,1-0.1,1.4-0.3c0.4-0.2,0.5-0.6,0.5-1c0-0.3-0.1-0.5-0.3-0.7c-0.2-0.2-0.4-0.3-0.7-0.4s-0.7-0.2-1.2-0.3
				c-0.5-0.1-0.9-0.3-1.3-0.4c-0.3-0.2-0.6-0.3-0.8-0.6c-0.2-0.2-0.3-0.5-0.3-0.9c0-0.5,0.1-0.9,0.4-1.2s0.6-0.5,1-0.7
				c0.4-0.2,0.9-0.2,1.4-0.2c0.6,0,1.1,0.1,1.5,0.3c0.4,0.2,0.8,0.4,1,0.7l-0.5,0.6c-0.3-0.3-0.6-0.5-0.9-0.7s-0.8-0.2-1.2-0.2
				c-0.3,0-0.6,0-0.9,0.1s-0.5,0.2-0.7,0.4c-0.2,0.2-0.3,0.4-0.3,0.7c0,0.3,0.1,0.5,0.2,0.6c0.1,0.1,0.3,0.3,0.6,0.4
				c0.3,0.1,0.6,0.2,1,0.3c0.6,0.1,1,0.3,1.4,0.5c0.4,0.2,0.7,0.3,1,0.6c0.2,0.2,0.3,0.6,0.3,1c0,0.7-0.3,1.2-0.8,1.6
				C202.1,58.2,201.4,58.4,200.6,58.4z"/>
			<path d="M208.6,58.4c-0.6,0-1.1-0.2-1.6-0.5s-0.9-0.7-1.1-1.2v4.5h-1V51h0.9v1.4c0.3-0.5,0.7-0.8,1.2-1.1c0.5-0.3,1-0.4,1.6-0.4
				c0.5,0,1,0.1,1.4,0.3c0.4,0.2,0.8,0.5,1.1,0.8s0.5,0.8,0.7,1.2c0.2,0.5,0.3,0.9,0.3,1.4c0,0.7-0.1,1.3-0.4,1.9
				c-0.3,0.6-0.7,1-1.2,1.4C209.9,58.3,209.3,58.4,208.6,58.4z M208.4,57.6c0.4,0,0.8-0.1,1.1-0.2c0.3-0.2,0.6-0.4,0.8-0.7
				s0.4-0.6,0.5-0.9c0.1-0.3,0.2-0.7,0.2-1.1c0-0.4-0.1-0.8-0.2-1.1s-0.3-0.7-0.6-0.9c-0.3-0.3-0.5-0.5-0.9-0.6
				c-0.3-0.2-0.7-0.2-1.1-0.2c-0.2,0-0.5,0-0.8,0.1c-0.3,0.1-0.5,0.2-0.7,0.4c-0.2,0.2-0.4,0.4-0.6,0.6c-0.2,0.2-0.3,0.4-0.3,0.7
				v2.2c0.1,0.3,0.3,0.6,0.6,0.9c0.3,0.3,0.5,0.5,0.9,0.7C207.7,57.5,208,57.6,208.4,57.6z"/>
			<path d="M216.7,58.4c-0.5,0-1-0.1-1.5-0.3c-0.4-0.2-0.8-0.5-1.2-0.8c-0.3-0.3-0.6-0.8-0.8-1.2c-0.2-0.5-0.3-0.9-0.3-1.5
				c0-0.7,0.2-1.3,0.5-1.9c0.3-0.6,0.7-1,1.3-1.4s1.2-0.5,1.9-0.5c0.7,0,1.3,0.2,1.9,0.5s1,0.8,1.3,1.4c0.3,0.6,0.5,1.2,0.5,1.8
				c0,0.1,0,0.1,0,0.2c0,0.1,0,0.1,0,0.2H214c0,0.5,0.2,1,0.4,1.4c0.2,0.4,0.6,0.7,1,1s0.8,0.4,1.3,0.4c0.5,0,0.9-0.1,1.4-0.4
				s0.7-0.6,0.9-1l0.8,0.2c-0.1,0.3-0.4,0.7-0.7,0.9c-0.3,0.3-0.7,0.5-1.1,0.7C217.6,58.4,217.2,58.4,216.7,58.4z M214,54.3h5.4
				c0-0.5-0.2-1-0.4-1.4s-0.6-0.7-1-0.9s-0.8-0.3-1.3-0.3s-0.9,0.1-1.3,0.3s-0.7,0.5-1,0.9S214.1,53.8,214,54.3z"/>
			<path d="M224.9,58.4c-0.5,0-1-0.1-1.5-0.3s-0.8-0.5-1.2-0.8c-0.3-0.4-0.6-0.8-0.8-1.2c-0.2-0.5-0.3-0.9-0.3-1.4
				c0-0.7,0.2-1.3,0.5-1.9c0.3-0.6,0.7-1,1.3-1.3c0.6-0.3,1.2-0.5,1.9-0.5c0.7,0,1.3,0.2,1.8,0.5s0.9,0.7,1.2,1.3l-0.9,0.3
				c-0.2-0.4-0.5-0.7-0.9-0.9c-0.4-0.2-0.8-0.3-1.2-0.3c-0.5,0-0.9,0.1-1.3,0.4c-0.4,0.2-0.7,0.6-1,1s-0.4,0.9-0.4,1.5
				c0,0.5,0.1,1,0.4,1.5c0.2,0.4,0.6,0.8,1,1.1c0.4,0.3,0.8,0.4,1.3,0.4c0.3,0,0.6-0.1,0.9-0.2c0.3-0.1,0.5-0.3,0.8-0.5
				c0.2-0.2,0.4-0.4,0.4-0.6l0.9,0.3c-0.1,0.3-0.3,0.7-0.7,0.9s-0.7,0.5-1.1,0.6S225.4,58.4,224.9,58.4z"/>
			<path d="M229.4,49.5v-1.4h1v1.4H229.4z M229.4,58.3V51h1v7.3H229.4z"/>
			<path d="M231.9,56.2c0-0.5,0.1-0.8,0.4-1.2c0.3-0.3,0.6-0.6,1.1-0.8c0.5-0.2,1-0.3,1.6-0.3c0.4,0,0.7,0,1.1,0.1s0.7,0.1,1,0.3
				v-0.6c0-0.6-0.2-1.1-0.5-1.5c-0.4-0.4-0.9-0.5-1.5-0.5c-0.4,0-0.8,0.1-1.2,0.2c-0.4,0.1-0.8,0.4-1.2,0.6l-0.4-0.7
				c0.5-0.3,0.9-0.6,1.4-0.7c0.5-0.2,0.9-0.2,1.4-0.2c0.9,0,1.6,0.3,2.1,0.8c0.5,0.5,0.8,1.2,0.8,2.1v3.4c0,0.1,0,0.2,0.1,0.3
				c0.1,0.1,0.1,0.1,0.3,0.1v0.8c-0.1,0-0.2,0-0.3,0s-0.1,0-0.2,0c-0.2,0-0.4-0.1-0.5-0.2c-0.1-0.1-0.2-0.3-0.2-0.4l0-0.5
				c-0.3,0.4-0.8,0.7-1.3,1c-0.5,0.2-1.1,0.3-1.6,0.3c-0.5,0-0.9-0.1-1.3-0.3c-0.4-0.2-0.7-0.5-0.9-0.8
				C232,57,231.9,56.6,231.9,56.2z M236.8,56.8c0.1-0.1,0.2-0.3,0.2-0.4c0.1-0.1,0.1-0.2,0.1-0.3V55c-0.3-0.1-0.6-0.2-1-0.3
				c-0.3-0.1-0.7-0.1-1-0.1c-0.7,0-1.2,0.1-1.7,0.4c-0.4,0.3-0.6,0.6-0.6,1.1c0,0.3,0.1,0.5,0.2,0.8c0.1,0.2,0.3,0.4,0.6,0.6
				c0.3,0.2,0.6,0.2,1,0.2c0.5,0,0.9-0.1,1.3-0.3C236.3,57.3,236.6,57,236.8,56.8z"/>
			<path d="M240.2,48.1h1v8.6c0,0.4,0.1,0.6,0.2,0.7c0.1,0.1,0.3,0.2,0.5,0.2c0.2,0,0.3,0,0.5-0.1c0.2,0,0.3-0.1,0.4-0.1l0.2,0.8
				c-0.2,0.1-0.4,0.1-0.7,0.2c-0.3,0-0.5,0.1-0.7,0.1c-0.4,0-0.8-0.1-1-0.4c-0.3-0.3-0.4-0.6-0.4-1V48.1z"/>
			<path d="M243.9,49.5v-1.4h1v1.4H243.9z M243.9,58.3V51h1v7.3H243.9z"/>
			<path d="M249.4,58.4c-0.6,0-1.2-0.1-1.7-0.3c-0.5-0.2-1-0.5-1.3-0.9l0.4-0.7c0.4,0.4,0.8,0.7,1.2,0.8c0.4,0.2,0.9,0.3,1.3,0.3
				c0.6,0,1-0.1,1.4-0.3c0.4-0.2,0.5-0.6,0.5-1c0-0.3-0.1-0.5-0.3-0.7c-0.2-0.2-0.4-0.3-0.7-0.4s-0.7-0.2-1.2-0.3
				c-0.5-0.1-0.9-0.3-1.3-0.4c-0.3-0.2-0.6-0.3-0.8-0.6c-0.2-0.2-0.3-0.5-0.3-0.9c0-0.5,0.1-0.9,0.4-1.2s0.6-0.5,1-0.7
				c0.4-0.2,0.9-0.2,1.4-0.2c0.6,0,1.1,0.1,1.5,0.3c0.4,0.2,0.8,0.4,1.1,0.7l-0.5,0.6c-0.3-0.3-0.6-0.5-0.9-0.7s-0.8-0.2-1.2-0.2
				c-0.3,0-0.6,0-0.9,0.1s-0.5,0.2-0.7,0.4c-0.2,0.2-0.3,0.4-0.3,0.7c0,0.3,0.1,0.5,0.2,0.6c0.1,0.1,0.3,0.3,0.6,0.4
				c0.3,0.1,0.6,0.2,1,0.3c0.6,0.1,1,0.3,1.4,0.5c0.4,0.2,0.7,0.3,1,0.6c0.2,0.2,0.3,0.6,0.3,1c0,0.7-0.3,1.2-0.8,1.6
				C250.9,58.2,250.2,58.4,249.4,58.4z"/>
			<path d="M257.2,58c-0.1,0-0.2,0.1-0.3,0.2c-0.2,0.1-0.3,0.1-0.6,0.2c-0.2,0.1-0.5,0.1-0.7,0.1c-0.3,0-0.5-0.1-0.8-0.2
				c-0.2-0.1-0.4-0.3-0.6-0.5c-0.1-0.2-0.2-0.5-0.2-0.8v-5.2h-1V51h1v-2.5h1V51h1.7v0.8H255v5c0,0.3,0.1,0.5,0.3,0.6
				c0.2,0.1,0.4,0.2,0.6,0.2c0.3,0,0.5,0,0.7-0.1c0.2-0.1,0.3-0.2,0.4-0.2L257.2,58z"/>
			<path d="M19.1,91.9v-8.1l-3.6,6.3h-0.6l-3.6-6.3v8.1h-1v-9.9h1l3.9,6.8l3.9-6.8h1v9.9H19.1z"/>
			<path d="M21.8,89.8c0-0.5,0.1-0.8,0.4-1.2c0.3-0.3,0.6-0.6,1.1-0.8c0.5-0.2,1-0.3,1.6-0.3c0.4,0,0.7,0,1.1,0.1s0.7,0.1,1,0.3
				v-0.6c0-0.6-0.2-1.1-0.5-1.5c-0.4-0.4-0.9-0.5-1.5-0.5c-0.4,0-0.8,0.1-1.2,0.2c-0.4,0.1-0.8,0.4-1.2,0.6l-0.4-0.7
				c0.5-0.3,0.9-0.6,1.4-0.7s0.9-0.2,1.4-0.2c0.9,0,1.6,0.3,2.1,0.8c0.5,0.5,0.8,1.2,0.8,2.1v3.4c0,0.1,0,0.2,0.1,0.3
				c0.1,0.1,0.1,0.1,0.3,0.1v0.8c-0.1,0-0.2,0-0.3,0c-0.1,0-0.1,0-0.2,0c-0.2,0-0.4-0.1-0.5-0.2c-0.1-0.1-0.2-0.3-0.2-0.4l0-0.5
				c-0.3,0.4-0.8,0.7-1.3,1S24.8,92,24.2,92c-0.5,0-0.9-0.1-1.3-0.3c-0.4-0.2-0.7-0.5-0.9-0.8C21.9,90.6,21.8,90.2,21.8,89.8z
				 M26.7,90.3c0.1-0.1,0.2-0.3,0.2-0.4c0.1-0.1,0.1-0.2,0.1-0.3v-1.1c-0.3-0.1-0.6-0.2-1-0.3c-0.3-0.1-0.7-0.1-1-0.1
				c-0.7,0-1.2,0.1-1.7,0.4c-0.4,0.3-0.6,0.6-0.6,1.1c0,0.3,0.1,0.5,0.2,0.8c0.1,0.2,0.3,0.4,0.6,0.6s0.6,0.2,1,0.2
				c0.5,0,0.9-0.1,1.3-0.3S26.4,90.6,26.7,90.3z"/>
			<path d="M30.2,84.6l2.1,2.8l0.1,0.2l0.1-0.2l2.1-2.8h1.1L33,88.3l2.8,3.6h-1.1L32.6,89l-0.1-0.2L32.3,89l-2.1,2.8h-1.1l2.8-3.6
				l-2.8-3.7H30.2z"/>
			<path d="M37,83.1v-1.4h1v1.4H37z M37,91.9v-7.3h1v7.3H37z"/>
			<path d="M50.9,91.9h-1v-4c0-0.8-0.1-1.5-0.4-1.9s-0.7-0.6-1.2-0.6c-0.6,0-1,0.2-1.5,0.6c-0.4,0.4-0.7,0.9-0.9,1.5v4.4h-1v-4
				c0-0.9-0.1-1.5-0.4-1.9c-0.3-0.4-0.7-0.6-1.2-0.6s-1,0.2-1.5,0.6c-0.4,0.4-0.7,0.9-0.9,1.5v4.4h-1v-7.3H41v1.7
				c0.3-0.6,0.7-1,1.2-1.3c0.5-0.3,1-0.5,1.6-0.5c0.6,0,1.1,0.2,1.5,0.5c0.4,0.3,0.6,0.8,0.7,1.3c0.3-0.6,0.7-1.1,1.2-1.4
				c0.5-0.3,1-0.5,1.6-0.5c0.4,0,0.8,0.1,1,0.2c0.3,0.1,0.5,0.4,0.7,0.6c0.2,0.3,0.3,0.6,0.4,1c0.1,0.4,0.1,0.8,0.1,1.3V91.9z"/>
			<path d="M52.9,88.9v-4.3h1v4.1c0,0.8,0.1,1.4,0.4,1.9c0.3,0.4,0.7,0.6,1.3,0.6c0.4,0,0.7-0.1,1.1-0.2c0.3-0.2,0.7-0.4,0.9-0.7
				s0.5-0.7,0.6-1.1v-4.6h1v6.1c0,0.1,0,0.2,0.1,0.3c0.1,0.1,0.1,0.1,0.3,0.1v0.8c-0.1,0-0.2,0-0.3,0c-0.1,0-0.1,0-0.2,0
				c-0.2,0-0.3-0.1-0.5-0.2c-0.1-0.1-0.2-0.3-0.2-0.5l0-1c-0.3,0.6-0.7,1-1.3,1.3c-0.5,0.3-1.1,0.5-1.8,0.5c-0.8,0-1.3-0.3-1.7-0.8
				C53.1,90.7,52.9,89.9,52.9,88.9z"/>
			<path d="M72.1,91.9h-1v-4c0-0.8-0.1-1.5-0.4-1.9s-0.7-0.6-1.2-0.6c-0.6,0-1,0.2-1.5,0.6c-0.4,0.4-0.7,0.9-0.9,1.5v4.4h-1v-4
				c0-0.9-0.1-1.5-0.4-1.9c-0.3-0.4-0.7-0.6-1.2-0.6s-1,0.2-1.5,0.6c-0.4,0.4-0.7,0.9-0.9,1.5v4.4h-1v-7.3h0.9v1.7
				c0.3-0.6,0.7-1,1.2-1.3c0.5-0.3,1-0.5,1.6-0.5c0.6,0,1.1,0.2,1.5,0.5c0.4,0.3,0.6,0.8,0.7,1.3c0.3-0.6,0.7-1.1,1.2-1.4
				c0.5-0.3,1-0.5,1.6-0.5c0.4,0,0.8,0.1,1,0.2c0.3,0.1,0.5,0.4,0.7,0.6c0.2,0.3,0.3,0.6,0.4,1c0.1,0.4,0.1,0.8,0.1,1.3V91.9z"/>
			<path d="M77.2,88.3c0-0.7,0.1-1.3,0.4-1.9c0.3-0.6,0.7-1,1.2-1.4c0.5-0.3,1.1-0.5,1.7-0.5c0.6,0,1.1,0.2,1.6,0.5
				c0.5,0.3,0.9,0.7,1.1,1.2v-4.5h1v9.1c0,0.1,0,0.2,0.1,0.3c0.1,0.1,0.1,0.1,0.3,0.1v0.8c-0.2,0-0.3,0-0.4,0
				c-0.2,0-0.4-0.1-0.5-0.2c-0.1-0.1-0.2-0.3-0.2-0.5v-0.7c-0.3,0.5-0.7,0.9-1.2,1.1c-0.5,0.3-1,0.4-1.5,0.4c-0.5,0-1-0.1-1.4-0.3
				s-0.8-0.5-1.1-0.8s-0.6-0.8-0.7-1.2C77.3,89.2,77.2,88.7,77.2,88.3z M83.3,89.4v-2.2c-0.1-0.3-0.3-0.6-0.6-0.9
				c-0.3-0.3-0.6-0.5-0.9-0.7s-0.7-0.2-1-0.2c-0.4,0-0.7,0.1-1.1,0.2c-0.3,0.2-0.6,0.4-0.8,0.7c-0.2,0.3-0.4,0.6-0.5,0.9
				c-0.1,0.4-0.2,0.7-0.2,1.1c0,0.4,0.1,0.8,0.2,1.1s0.3,0.7,0.6,0.9s0.5,0.5,0.9,0.6c0.3,0.1,0.7,0.2,1.1,0.2c0.2,0,0.5,0,0.8-0.1
				c0.3-0.1,0.5-0.2,0.7-0.4s0.4-0.4,0.6-0.6C83.1,89.8,83.2,89.6,83.3,89.4z"/>
			<path d="M85.8,89.8c0-0.5,0.1-0.8,0.4-1.2c0.3-0.3,0.6-0.6,1.1-0.8c0.5-0.2,1-0.3,1.6-0.3c0.4,0,0.7,0,1.1,0.1s0.7,0.1,1,0.3
				v-0.6c0-0.6-0.2-1.1-0.5-1.5c-0.4-0.4-0.9-0.5-1.5-0.5c-0.4,0-0.8,0.1-1.2,0.2c-0.4,0.1-0.8,0.4-1.2,0.6l-0.4-0.7
				c0.5-0.3,0.9-0.6,1.4-0.7s0.9-0.2,1.4-0.2c0.9,0,1.6,0.3,2.1,0.8c0.5,0.5,0.8,1.2,0.8,2.1v3.4c0,0.1,0,0.2,0.1,0.3
				c0.1,0.1,0.1,0.1,0.3,0.1v0.8c-0.1,0-0.2,0-0.3,0c-0.1,0-0.1,0-0.2,0c-0.2,0-0.4-0.1-0.5-0.2c-0.1-0.1-0.2-0.3-0.2-0.4l0-0.5
				c-0.3,0.4-0.8,0.7-1.3,1S88.8,92,88.3,92c-0.5,0-0.9-0.1-1.3-0.3c-0.4-0.2-0.7-0.5-0.9-0.8C85.9,90.6,85.8,90.2,85.8,89.8z
				 M90.7,90.3c0.1-0.1,0.2-0.3,0.2-0.4c0.1-0.1,0.1-0.2,0.1-0.3v-1.1c-0.3-0.1-0.6-0.2-1-0.3c-0.3-0.1-0.7-0.1-1-0.1
				c-0.7,0-1.2,0.1-1.7,0.4c-0.4,0.3-0.6,0.6-0.6,1.1c0,0.3,0.1,0.5,0.2,0.8c0.1,0.2,0.3,0.4,0.6,0.6s0.6,0.2,1,0.2
				c0.5,0,0.9-0.1,1.3-0.3S90.5,90.6,90.7,90.3z"/>
			<path d="M94.4,94.1c0.1,0,0.3,0,0.4,0c0.1,0,0.2,0,0.3,0c0.1,0,0.2-0.1,0.3-0.2s0.2-0.3,0.4-0.6c0.1-0.3,0.3-0.8,0.6-1.4
				l-3.2-7.3h1l2.7,6.3l2.5-6.3h1L96.5,94c-0.1,0.2-0.2,0.3-0.3,0.5c-0.1,0.2-0.3,0.3-0.5,0.4C95.5,94.9,95.3,95,95,95
				c-0.1,0-0.2,0-0.3,0c-0.1,0-0.2,0-0.3,0V94.1z"/>
			<path d="M104,92c-0.6,0-1.2-0.1-1.7-0.3c-0.5-0.2-1-0.5-1.3-0.9l0.4-0.7c0.4,0.4,0.8,0.7,1.2,0.8c0.4,0.2,0.9,0.3,1.3,0.3
				c0.6,0,1-0.1,1.4-0.3c0.4-0.2,0.5-0.6,0.5-1c0-0.3-0.1-0.5-0.3-0.7c-0.2-0.2-0.4-0.3-0.7-0.4s-0.7-0.2-1.2-0.3
				c-0.5-0.1-0.9-0.3-1.3-0.4c-0.3-0.2-0.6-0.3-0.8-0.6c-0.2-0.2-0.3-0.5-0.3-0.9c0-0.5,0.1-0.9,0.4-1.2c0.2-0.3,0.6-0.5,1-0.7
				c0.4-0.2,0.9-0.2,1.4-0.2c0.6,0,1.1,0.1,1.5,0.3c0.4,0.2,0.8,0.4,1,0.7l-0.5,0.6c-0.3-0.3-0.6-0.5-0.9-0.7
				c-0.4-0.1-0.8-0.2-1.2-0.2c-0.3,0-0.6,0-0.9,0.1c-0.3,0.1-0.5,0.2-0.7,0.4c-0.2,0.2-0.3,0.4-0.3,0.7c0,0.3,0.1,0.5,0.2,0.6
				c0.1,0.1,0.3,0.3,0.6,0.4c0.3,0.1,0.6,0.2,1,0.3c0.6,0.1,1,0.3,1.4,0.5c0.4,0.2,0.7,0.4,1,0.6c0.2,0.2,0.3,0.6,0.3,1
				c0,0.7-0.3,1.2-0.8,1.6C105.5,91.8,104.8,92,104,92z"/>
			<path d="M115.2,81.9h0.8l4.1,9.9h-1l-1.2-3.1h-4.5l-1.2,3.1h-1L115.2,81.9z M117.5,88l-2-4.9l-2,4.9H117.5z"/>
			<path d="M128.3,91.9l-5-5.2c-0.4-0.4-0.7-0.8-1-1.1c-0.2-0.3-0.4-0.6-0.5-0.8s-0.2-0.5-0.2-0.7c0-0.4,0.1-0.8,0.3-1.1
				s0.5-0.6,0.9-0.8c0.4-0.2,0.8-0.3,1.3-0.3c0.4,0,0.8,0.1,1.2,0.2s0.6,0.4,0.8,0.7c0.2,0.3,0.3,0.6,0.3,1c0,0.4-0.1,0.8-0.4,1.1
				c-0.2,0.3-0.5,0.6-0.9,0.9c-0.4,0.3-0.8,0.6-1.3,0.8c-0.4,0.3-0.7,0.5-1.1,0.8s-0.6,0.5-0.8,0.8c-0.2,0.3-0.3,0.6-0.3,1
				c0,0.4,0.1,0.7,0.3,1c0.2,0.3,0.5,0.5,0.9,0.6s0.7,0.2,1.1,0.2c0.5,0,1-0.1,1.4-0.3c0.4-0.2,0.8-0.5,1.1-1
				c0.3-0.4,0.6-0.9,0.7-1.4c0.2-0.5,0.3-1.1,0.3-1.7h0.8c0,0.7-0.1,1.4-0.3,2c-0.2,0.6-0.5,1.2-0.9,1.6c-0.4,0.5-0.9,0.8-1.4,1.1
				c-0.5,0.3-1.1,0.4-1.7,0.4c-0.6,0-1.1-0.1-1.6-0.3s-0.9-0.5-1.2-0.9c-0.3-0.4-0.4-0.9-0.4-1.4c0-0.5,0.1-0.9,0.4-1.3
				s0.5-0.7,0.9-1c0.4-0.3,0.8-0.6,1.2-0.8c0.4-0.3,0.8-0.5,1.1-0.8s0.6-0.5,0.8-0.7c0.2-0.2,0.3-0.5,0.3-0.8c0-0.4-0.1-0.7-0.4-0.9
				s-0.6-0.3-1-0.3c-0.3,0-0.6,0.1-0.8,0.2c-0.2,0.1-0.4,0.3-0.6,0.5c-0.1,0.2-0.2,0.4-0.2,0.7c0,0.2,0,0.3,0.1,0.5s0.2,0.4,0.4,0.6
				c0.2,0.3,0.5,0.6,0.9,1l5.5,5.7H128.3z"/>
			<path d="M137.6,91v0.9h-6.7v-9.9h6.5v0.9h-5.6v3.6h4.9v0.8h-4.9V91H137.6z"/>
			<path d="M146.3,91.6c-0.1,0-0.2,0.1-0.4,0.2c-0.2,0.1-0.3,0.1-0.6,0.2c-0.2,0.1-0.5,0.1-0.7,0.1c-0.3,0-0.5-0.1-0.8-0.2
				s-0.4-0.3-0.6-0.5c-0.1-0.2-0.2-0.5-0.2-0.8v-5.2h-1v-0.8h1v-2.5h1v2.5h1.7v0.8H144v5c0,0.3,0.1,0.5,0.3,0.6
				c0.2,0.1,0.4,0.2,0.6,0.2c0.3,0,0.5,0,0.7-0.1c0.2-0.1,0.3-0.2,0.4-0.2L146.3,91.6z"/>
			<path d="M150.6,92c-0.5,0-1-0.1-1.5-0.3s-0.8-0.5-1.1-0.8c-0.3-0.3-0.6-0.7-0.7-1.2c-0.2-0.4-0.3-0.9-0.3-1.4
				c0-0.5,0.1-1,0.3-1.5c0.2-0.4,0.4-0.8,0.8-1.2c0.3-0.3,0.7-0.6,1.2-0.8c0.4-0.2,0.9-0.3,1.4-0.3s1,0.1,1.4,0.3s0.8,0.5,1.1,0.8
				c0.3,0.3,0.6,0.7,0.8,1.2c0.2,0.5,0.3,0.9,0.3,1.5c0,0.5-0.1,1-0.3,1.4c-0.2,0.5-0.4,0.8-0.7,1.2c-0.3,0.3-0.7,0.6-1.1,0.8
				S151.1,92,150.6,92z M147.9,88.3c0,0.5,0.1,1,0.4,1.5s0.6,0.8,1,1c0.4,0.3,0.8,0.4,1.3,0.4s0.9-0.1,1.3-0.4
				c0.4-0.3,0.7-0.6,1-1.1c0.2-0.4,0.4-0.9,0.4-1.5c0-0.5-0.1-1-0.4-1.5c-0.2-0.4-0.6-0.8-1-1.1c-0.4-0.3-0.8-0.4-1.3-0.4
				s-0.9,0.1-1.3,0.4c-0.4,0.3-0.7,0.6-1,1.1C148,87.2,147.9,87.7,147.9,88.3z"/>
			<path d="M161.8,92c-0.6,0-1.2-0.1-1.7-0.3c-0.5-0.2-1-0.5-1.3-0.9l0.4-0.7c0.4,0.4,0.8,0.7,1.2,0.8c0.4,0.2,0.9,0.3,1.3,0.3
				c0.6,0,1-0.1,1.4-0.3c0.4-0.2,0.5-0.6,0.5-1c0-0.3-0.1-0.5-0.3-0.7c-0.2-0.2-0.4-0.3-0.7-0.4s-0.7-0.2-1.2-0.3
				c-0.5-0.1-0.9-0.3-1.3-0.4c-0.3-0.2-0.6-0.3-0.8-0.6c-0.2-0.2-0.3-0.5-0.3-0.9c0-0.5,0.1-0.9,0.4-1.2c0.2-0.3,0.6-0.5,1-0.7
				c0.4-0.2,0.9-0.2,1.4-0.2c0.6,0,1.1,0.1,1.5,0.3c0.4,0.2,0.8,0.4,1,0.7l-0.5,0.6c-0.3-0.3-0.6-0.5-0.9-0.7
				c-0.4-0.1-0.8-0.2-1.2-0.2c-0.3,0-0.6,0-0.9,0.1c-0.3,0.1-0.5,0.2-0.7,0.4c-0.2,0.2-0.3,0.4-0.3,0.7c0,0.3,0.1,0.5,0.2,0.6
				c0.1,0.1,0.3,0.3,0.6,0.4c0.3,0.1,0.6,0.2,1,0.3c0.6,0.1,1,0.3,1.4,0.5c0.4,0.2,0.7,0.4,1,0.6c0.2,0.2,0.3,0.6,0.3,1
				c0,0.7-0.3,1.2-0.8,1.6C163.3,91.8,162.6,92,161.8,92z"/>
			<path d="M169.3,92c-0.5,0-1-0.1-1.5-0.3s-0.8-0.5-1.2-0.8c-0.3-0.4-0.6-0.8-0.8-1.2c-0.2-0.5-0.3-0.9-0.3-1.4
				c0-0.7,0.2-1.3,0.5-1.9s0.7-1,1.3-1.3s1.2-0.5,1.9-0.5c0.7,0,1.3,0.2,1.8,0.5s0.9,0.7,1.2,1.3l-0.9,0.3c-0.2-0.4-0.5-0.7-0.9-0.9
				c-0.4-0.2-0.8-0.3-1.2-0.3c-0.5,0-0.9,0.1-1.3,0.4c-0.4,0.2-0.7,0.6-1,1c-0.2,0.4-0.4,0.9-0.4,1.5c0,0.5,0.1,1,0.4,1.5
				c0.2,0.4,0.6,0.8,1,1.1c0.4,0.3,0.8,0.4,1.3,0.4c0.3,0,0.6-0.1,0.9-0.2c0.3-0.1,0.5-0.3,0.8-0.5c0.2-0.2,0.4-0.4,0.4-0.6l0.9,0.3
				c-0.1,0.3-0.3,0.7-0.7,0.9s-0.7,0.5-1.1,0.6C170.2,91.9,169.7,92,169.3,92z"/>
			<path d="M173.2,89.8c0-0.5,0.1-0.8,0.4-1.2c0.3-0.3,0.6-0.6,1.1-0.8c0.5-0.2,1-0.3,1.6-0.3c0.4,0,0.7,0,1.1,0.1s0.7,0.1,1,0.3
				v-0.6c0-0.6-0.2-1.1-0.5-1.5c-0.4-0.4-0.9-0.5-1.5-0.5c-0.4,0-0.8,0.1-1.2,0.2c-0.4,0.1-0.8,0.4-1.2,0.6l-0.4-0.7
				c0.5-0.3,0.9-0.6,1.4-0.7s0.9-0.2,1.4-0.2c0.9,0,1.6,0.3,2.1,0.8c0.5,0.5,0.8,1.2,0.8,2.1v3.4c0,0.1,0,0.2,0.1,0.3
				c0.1,0.1,0.1,0.1,0.3,0.1v0.8c-0.1,0-0.2,0-0.3,0c-0.1,0-0.1,0-0.2,0c-0.2,0-0.4-0.1-0.5-0.2c-0.1-0.1-0.2-0.3-0.2-0.4l0-0.5
				c-0.3,0.4-0.8,0.7-1.3,1s-1.1,0.3-1.6,0.3c-0.5,0-0.9-0.1-1.3-0.3c-0.4-0.2-0.7-0.5-0.9-0.8C173.3,90.6,173.2,90.2,173.2,89.8z
				 M178.1,90.3c0.1-0.1,0.2-0.3,0.2-0.4c0.1-0.1,0.1-0.2,0.1-0.3v-1.1c-0.3-0.1-0.6-0.2-1-0.3c-0.3-0.1-0.7-0.1-1-0.1
				c-0.7,0-1.2,0.1-1.7,0.4c-0.4,0.3-0.6,0.6-0.6,1.1c0,0.3,0.1,0.5,0.2,0.8c0.1,0.2,0.3,0.4,0.6,0.6s0.6,0.2,1,0.2
				c0.5,0,0.9-0.1,1.3-0.3S177.9,90.6,178.1,90.3z"/>
			<path d="M187.5,91.9h-1v-4c0-0.9-0.1-1.5-0.4-1.9c-0.3-0.4-0.6-0.6-1.2-0.6c-0.4,0-0.7,0.1-1.1,0.3s-0.7,0.4-1,0.7
				c-0.3,0.3-0.5,0.7-0.6,1.1v4.4h-1v-7.3h0.9v1.7c0.2-0.4,0.5-0.7,0.8-0.9c0.3-0.3,0.7-0.5,1.1-0.6c0.4-0.1,0.8-0.2,1.2-0.2
				c0.4,0,0.7,0.1,1,0.2c0.3,0.1,0.5,0.4,0.7,0.6c0.2,0.3,0.3,0.6,0.4,1c0.1,0.4,0.1,0.8,0.1,1.3V91.9z"/>
			<path d="M196.6,91.6c-0.1,0-0.2,0.1-0.4,0.2c-0.2,0.1-0.3,0.1-0.6,0.2c-0.2,0.1-0.5,0.1-0.7,0.1c-0.3,0-0.5-0.1-0.8-0.2
				s-0.4-0.3-0.6-0.5c-0.1-0.2-0.2-0.5-0.2-0.8v-5.2h-1v-0.8h1v-2.5h1v2.5h1.7v0.8h-1.7v5c0,0.3,0.1,0.5,0.3,0.6
				c0.2,0.1,0.4,0.2,0.6,0.2c0.3,0,0.5,0,0.7-0.1c0.2-0.1,0.3-0.2,0.4-0.2L196.6,91.6z"/>
			<path d="M204,91.9h-1v-4c0-0.8-0.1-1.4-0.4-1.8c-0.3-0.4-0.7-0.6-1.2-0.6c-0.4,0-0.7,0.1-1.1,0.3c-0.3,0.2-0.7,0.4-0.9,0.7
				c-0.3,0.3-0.5,0.7-0.6,1.1v4.4h-1V81.7h1v4.6c0.3-0.5,0.7-1,1.2-1.3c0.5-0.3,1.1-0.5,1.7-0.5c0.4,0,0.8,0.1,1.1,0.2
				c0.3,0.1,0.5,0.4,0.7,0.6c0.2,0.3,0.3,0.6,0.4,1c0.1,0.4,0.1,0.8,0.1,1.3V91.9z"/>
			<path d="M209.1,92c-0.5,0-1-0.1-1.5-0.3c-0.4-0.2-0.8-0.5-1.2-0.8c-0.3-0.3-0.6-0.8-0.8-1.2c-0.2-0.5-0.3-0.9-0.3-1.5
				c0-0.7,0.2-1.3,0.5-1.9s0.7-1,1.3-1.4c0.6-0.3,1.2-0.5,1.9-0.5c0.7,0,1.3,0.2,1.9,0.5s1,0.8,1.3,1.4c0.3,0.6,0.5,1.2,0.5,1.8
				c0,0.1,0,0.1,0,0.2s0,0.1,0,0.2h-6.2c0,0.5,0.2,1,0.4,1.4s0.6,0.7,1,1s0.8,0.4,1.3,0.4c0.5,0,0.9-0.1,1.4-0.4s0.7-0.6,0.9-1
				l0.8,0.2c-0.1,0.3-0.4,0.7-0.7,0.9c-0.3,0.3-0.7,0.5-1.1,0.7C210.1,91.9,209.6,92,209.1,92z M206.4,87.9h5.4c0-0.5-0.2-1-0.4-1.4
				c-0.2-0.4-0.6-0.7-1-0.9c-0.4-0.2-0.8-0.3-1.3-0.3s-0.9,0.1-1.3,0.3c-0.4,0.2-0.7,0.5-1,0.9S206.5,87.4,206.4,87.9z"/>
			<path d="M220.3,91.9h-1v-4c0-0.9-0.1-1.5-0.4-1.9c-0.3-0.4-0.6-0.6-1.2-0.6c-0.4,0-0.7,0.1-1.1,0.3s-0.7,0.4-1,0.7
				c-0.3,0.3-0.5,0.7-0.6,1.1v4.4h-1v-7.3h0.9v1.7c0.2-0.4,0.5-0.7,0.8-0.9c0.3-0.3,0.7-0.5,1.1-0.6c0.4-0.1,0.8-0.2,1.2-0.2
				c0.4,0,0.7,0.1,1,0.2c0.3,0.1,0.5,0.4,0.7,0.6c0.2,0.3,0.3,0.6,0.4,1c0.1,0.4,0.1,0.8,0.1,1.3V91.9z"/>
			<path d="M228.3,92c-0.6,0-1.2-0.1-1.7-0.3c-0.5-0.2-1-0.5-1.3-0.9l0.4-0.7c0.4,0.4,0.8,0.7,1.2,0.8c0.4,0.2,0.9,0.3,1.3,0.3
				c0.6,0,1-0.1,1.4-0.3c0.4-0.2,0.5-0.6,0.5-1c0-0.3-0.1-0.5-0.3-0.7c-0.2-0.2-0.4-0.3-0.7-0.4s-0.7-0.2-1.2-0.3
				c-0.5-0.1-0.9-0.3-1.3-0.4c-0.3-0.2-0.6-0.3-0.8-0.6c-0.2-0.2-0.3-0.5-0.3-0.9c0-0.5,0.1-0.9,0.4-1.2c0.2-0.3,0.6-0.5,1-0.7
				c0.4-0.2,0.9-0.2,1.4-0.2c0.6,0,1.1,0.1,1.5,0.3c0.4,0.2,0.8,0.4,1,0.7l-0.5,0.6c-0.3-0.3-0.6-0.5-0.9-0.7
				c-0.4-0.1-0.8-0.2-1.2-0.2c-0.3,0-0.6,0-0.9,0.1c-0.3,0.1-0.5,0.2-0.7,0.4c-0.2,0.2-0.3,0.4-0.3,0.7c0,0.3,0.1,0.5,0.2,0.6
				c0.1,0.1,0.3,0.3,0.6,0.4c0.3,0.1,0.6,0.2,1,0.3c0.6,0.1,1,0.3,1.4,0.5c0.4,0.2,0.7,0.4,1,0.6c0.2,0.2,0.3,0.6,0.3,1
				c0,0.7-0.3,1.2-0.8,1.6C229.8,91.8,229.2,92,228.3,92z"/>
			<path d="M236.4,92c-0.6,0-1.1-0.2-1.6-0.5s-0.9-0.7-1.1-1.2v4.5h-1V84.6h0.9V86c0.3-0.5,0.7-0.8,1.2-1.1c0.5-0.3,1-0.4,1.6-0.4
				c0.5,0,1,0.1,1.4,0.3c0.4,0.2,0.8,0.5,1.1,0.8s0.5,0.8,0.7,1.2c0.2,0.5,0.3,0.9,0.3,1.4c0,0.7-0.1,1.3-0.4,1.9
				c-0.3,0.6-0.7,1-1.2,1.4C237.6,91.8,237.1,92,236.4,92z M236.1,91.2c0.4,0,0.8-0.1,1.1-0.2c0.3-0.2,0.6-0.4,0.8-0.7
				c0.2-0.3,0.4-0.6,0.5-0.9c0.1-0.3,0.2-0.7,0.2-1.1c0-0.4-0.1-0.8-0.2-1.1s-0.3-0.7-0.6-0.9c-0.3-0.3-0.5-0.5-0.9-0.6
				c-0.3-0.2-0.7-0.2-1.1-0.2c-0.2,0-0.5,0-0.8,0.1s-0.5,0.2-0.7,0.4c-0.2,0.2-0.4,0.4-0.6,0.6c-0.2,0.2-0.3,0.4-0.3,0.7v2.2
				c0.1,0.3,0.3,0.7,0.6,0.9c0.3,0.3,0.5,0.5,0.9,0.7S235.8,91.2,236.1,91.2z"/>
			<path d="M244.5,92c-0.5,0-1-0.1-1.5-0.3c-0.4-0.2-0.8-0.5-1.2-0.8c-0.3-0.3-0.6-0.8-0.8-1.2c-0.2-0.5-0.3-0.9-0.3-1.5
				c0-0.7,0.2-1.3,0.5-1.9s0.7-1,1.3-1.4c0.6-0.3,1.2-0.5,1.9-0.5c0.7,0,1.3,0.2,1.9,0.5s1,0.8,1.3,1.4c0.3,0.6,0.5,1.2,0.5,1.8
				c0,0.1,0,0.1,0,0.2s0,0.1,0,0.2h-6.2c0,0.5,0.2,1,0.4,1.4s0.6,0.7,1,1s0.8,0.4,1.3,0.4c0.5,0,0.9-0.1,1.4-0.4s0.7-0.6,0.9-1
				l0.8,0.2c-0.1,0.3-0.4,0.7-0.7,0.9c-0.3,0.3-0.7,0.5-1.1,0.7C245.4,91.9,244.9,92,244.5,92z M241.8,87.9h5.4c0-0.5-0.2-1-0.4-1.4
				c-0.2-0.4-0.6-0.7-1-0.9c-0.4-0.2-0.8-0.3-1.3-0.3s-0.9,0.1-1.3,0.3c-0.4,0.2-0.7,0.5-1,0.9S241.8,87.4,241.8,87.9z"/>
			<path d="M252.7,92c-0.5,0-1-0.1-1.5-0.3c-0.4-0.2-0.8-0.5-1.2-0.8c-0.3-0.4-0.6-0.8-0.8-1.2c-0.2-0.5-0.3-0.9-0.3-1.4
				c0-0.7,0.2-1.3,0.5-1.9s0.7-1,1.3-1.3s1.2-0.5,1.9-0.5c0.7,0,1.3,0.2,1.8,0.5c0.5,0.3,0.9,0.7,1.2,1.3l-0.9,0.3
				c-0.2-0.4-0.5-0.7-0.9-0.9s-0.8-0.3-1.2-0.3c-0.5,0-0.9,0.1-1.3,0.4c-0.4,0.2-0.7,0.6-1,1c-0.2,0.4-0.4,0.9-0.4,1.5
				c0,0.5,0.1,1,0.4,1.5c0.2,0.4,0.6,0.8,1,1.1c0.4,0.3,0.8,0.4,1.3,0.4c0.3,0,0.6-0.1,0.9-0.2c0.3-0.1,0.6-0.3,0.8-0.5
				c0.2-0.2,0.4-0.4,0.4-0.6l0.9,0.3c-0.1,0.3-0.3,0.7-0.7,0.9s-0.7,0.5-1.1,0.6C253.6,91.9,253.1,92,252.7,92z"/>
			<path d="M257.2,83.1v-1.4h1v1.4H257.2z M257.2,91.9v-7.3h1v7.3H257.2z"/>
			<path d="M259.7,89.8c0-0.5,0.1-0.8,0.4-1.2c0.3-0.3,0.6-0.6,1.1-0.8s1-0.3,1.6-0.3c0.4,0,0.7,0,1.1,0.1s0.7,0.1,1,0.3v-0.6
				c0-0.6-0.2-1.1-0.5-1.5c-0.4-0.4-0.9-0.5-1.5-0.5c-0.4,0-0.8,0.1-1.2,0.2s-0.8,0.4-1.2,0.6l-0.4-0.7c0.5-0.3,0.9-0.6,1.4-0.7
				s0.9-0.2,1.4-0.2c0.9,0,1.6,0.3,2.1,0.8s0.8,1.2,0.8,2.1v3.4c0,0.1,0,0.2,0.1,0.3c0.1,0.1,0.1,0.1,0.3,0.1v0.8
				c-0.1,0-0.2,0-0.3,0c-0.1,0-0.1,0-0.2,0c-0.2,0-0.4-0.1-0.5-0.2c-0.1-0.1-0.2-0.3-0.2-0.4l0-0.5c-0.3,0.4-0.8,0.7-1.3,1
				s-1.1,0.3-1.6,0.3c-0.5,0-0.9-0.1-1.3-0.3c-0.4-0.2-0.7-0.5-0.9-0.8C259.8,90.6,259.7,90.2,259.7,89.8z M264.5,90.3
				c0.1-0.1,0.2-0.3,0.2-0.4s0.1-0.2,0.1-0.3v-1.1c-0.3-0.1-0.6-0.2-1-0.3c-0.3-0.1-0.7-0.1-1-0.1c-0.7,0-1.2,0.1-1.7,0.4
				c-0.4,0.3-0.6,0.6-0.6,1.1c0,0.3,0.1,0.5,0.2,0.8s0.3,0.4,0.6,0.6s0.6,0.2,1,0.2c0.5,0,0.9-0.1,1.3-0.3S264.3,90.6,264.5,90.3z"
				/>
			<path d="M267.9,81.7h1v8.6c0,0.4,0.1,0.6,0.2,0.7c0.1,0.1,0.3,0.2,0.5,0.2c0.2,0,0.3,0,0.5-0.1s0.3-0.1,0.4-0.1l0.2,0.8
				c-0.2,0.1-0.4,0.1-0.7,0.2c-0.3,0-0.5,0.1-0.7,0.1c-0.4,0-0.8-0.1-1-0.4c-0.3-0.3-0.4-0.6-0.4-1V81.7z"/>
			<path d="M271.7,83.1v-1.4h1v1.4H271.7z M271.7,91.9v-7.3h1v7.3H271.7z"/>
			<path d="M277.1,92c-0.6,0-1.2-0.1-1.7-0.3c-0.5-0.2-1-0.5-1.3-0.9l0.4-0.7c0.4,0.4,0.8,0.7,1.2,0.8c0.4,0.2,0.9,0.3,1.3,0.3
				c0.6,0,1-0.1,1.4-0.3c0.4-0.2,0.5-0.6,0.5-1c0-0.3-0.1-0.5-0.3-0.7c-0.2-0.2-0.4-0.3-0.7-0.4c-0.3-0.1-0.7-0.2-1.2-0.3
				c-0.5-0.1-0.9-0.3-1.3-0.4c-0.3-0.2-0.6-0.3-0.8-0.6c-0.2-0.2-0.3-0.5-0.3-0.9c0-0.5,0.1-0.9,0.4-1.2c0.2-0.3,0.6-0.5,1-0.7
				s0.9-0.2,1.4-0.2c0.6,0,1.1,0.1,1.5,0.3c0.4,0.2,0.8,0.4,1,0.7l-0.5,0.6c-0.3-0.3-0.6-0.5-0.9-0.7c-0.4-0.1-0.8-0.2-1.2-0.2
				c-0.3,0-0.6,0-0.9,0.1c-0.3,0.1-0.5,0.2-0.7,0.4s-0.3,0.4-0.3,0.7c0,0.3,0.1,0.5,0.2,0.6c0.1,0.1,0.3,0.3,0.6,0.4
				c0.3,0.1,0.6,0.2,1,0.3c0.5,0.1,1,0.3,1.4,0.5c0.4,0.2,0.7,0.4,1,0.6c0.2,0.2,0.3,0.6,0.3,1c0,0.7-0.3,1.2-0.8,1.6
				C278.6,91.8,278,92,277.1,92z"/>
			<path d="M285,91.6c-0.1,0-0.2,0.1-0.3,0.2c-0.2,0.1-0.3,0.1-0.6,0.2c-0.2,0.1-0.5,0.1-0.7,0.1c-0.3,0-0.5-0.1-0.8-0.2
				c-0.2-0.1-0.4-0.3-0.6-0.5c-0.1-0.2-0.2-0.5-0.2-0.8v-5.2h-1v-0.8h1v-2.5h1v2.5h1.7v0.8h-1.7v5c0,0.3,0.1,0.5,0.3,0.6
				c0.2,0.1,0.4,0.2,0.6,0.2c0.3,0,0.5,0,0.7-0.1c0.2-0.1,0.3-0.2,0.4-0.2L285,91.6z"/>
		</g>
	</g>
</g>
</svg>
